G04 #@! TF.GenerationSoftware,KiCad,Pcbnew,10.0.6*
G04 #@! TF.CreationDate,2026-10-07T19:39:00-07:00*
G04 #@! TF.ProjectId,AttenuverterFaceplate,41747465-6e75-4766-9572-746572466163,1.1*
G04 #@! TF.SameCoordinates,Original*
G04 #@! TF.FileFunction,Copper,L1,Top*
G04 #@! TF.FilePolarity,Positive*
%FSLAX46Y46*%
G04 Gerber Fmt 4.6, Leading zero omitted, Abs format (unit mm)*
G04 Created by KiCad (PCBNEW 10.0.6) date 2026-10-07 19:39:00*
%MOMM*%
%LPD*%
G01*
G04 APERTURE LIST*
G04 APERTURE END LIST*
G04 #@! TA.AperFunction,NonConductor*
G36*
X144843005Y-25870502D02*
G01*
X144889498Y-25924158D01*
X144900884Y-25976500D01*
X144900884Y-154023500D01*
X144880882Y-154091621D01*
X144827226Y-154138114D01*
X144774884Y-154149500D01*
X115227884Y-154149500D01*
X115159763Y-154129498D01*
X115113270Y-154075842D01*
X115101884Y-154023500D01*
X115101884Y-151128709D01*
X120648116Y-151128709D01*
X120648116Y-151371290D01*
X120679776Y-151611782D01*
X120742560Y-151846095D01*
X120742561Y-151846097D01*
X120742562Y-151846100D01*
X120835392Y-152070212D01*
X120835393Y-152070213D01*
X120835398Y-152070224D01*
X120956677Y-152280285D01*
X120956679Y-152280288D01*
X120956680Y-152280289D01*
X121104351Y-152472738D01*
X121104355Y-152472742D01*
X121104360Y-152472748D01*
X121275867Y-152644255D01*
X121275872Y-152644259D01*
X121275878Y-152644265D01*
X121468327Y-152791936D01*
X121468330Y-152791938D01*
X121678391Y-152913217D01*
X121678395Y-152913218D01*
X121678404Y-152913224D01*
X121902516Y-153006054D01*
X122136827Y-153068838D01*
X122136831Y-153068838D01*
X122136833Y-153068839D01*
X122198818Y-153076999D01*
X122377328Y-153100500D01*
X122377335Y-153100500D01*
X122619897Y-153100500D01*
X122619904Y-153100500D01*
X122837253Y-153071885D01*
X122860398Y-153068839D01*
X122860398Y-153068838D01*
X122860405Y-153068838D01*
X123094716Y-153006054D01*
X123318828Y-152913224D01*
X123528905Y-152791936D01*
X123721354Y-152644265D01*
X123892881Y-152472738D01*
X124040552Y-152280289D01*
X124161840Y-152070212D01*
X124254670Y-151846100D01*
X124317454Y-151611789D01*
X124349116Y-151371288D01*
X124349116Y-151128712D01*
X124317454Y-150888211D01*
X124254670Y-150653900D01*
X124161840Y-150429788D01*
X124161834Y-150429779D01*
X124161833Y-150429775D01*
X124040554Y-150219714D01*
X124040552Y-150219711D01*
X123892881Y-150027262D01*
X123892875Y-150027256D01*
X123892871Y-150027251D01*
X123721364Y-149855744D01*
X123721358Y-149855739D01*
X123721354Y-149855735D01*
X123528905Y-149708064D01*
X123528904Y-149708063D01*
X123528901Y-149708061D01*
X123318840Y-149586782D01*
X123318832Y-149586778D01*
X123318828Y-149586776D01*
X123094716Y-149493946D01*
X123094713Y-149493945D01*
X123094711Y-149493944D01*
X122860398Y-149431160D01*
X122619906Y-149399500D01*
X122619904Y-149399500D01*
X122377328Y-149399500D01*
X122377325Y-149399500D01*
X122136833Y-149431160D01*
X121902520Y-149493944D01*
X121902516Y-149493946D01*
X121678402Y-149586777D01*
X121678391Y-149586782D01*
X121468330Y-149708061D01*
X121275878Y-149855735D01*
X121275867Y-149855744D01*
X121104360Y-150027251D01*
X121104351Y-150027262D01*
X120956677Y-150219714D01*
X120835398Y-150429775D01*
X120835393Y-150429786D01*
X120742562Y-150653900D01*
X120742560Y-150653904D01*
X120679776Y-150888217D01*
X120648116Y-151128709D01*
X115101884Y-151128709D01*
X115101884Y-134840306D01*
X135549500Y-134840306D01*
X135549500Y-135159693D01*
X135580802Y-135477508D01*
X135580804Y-135477523D01*
X135643111Y-135790760D01*
X135735820Y-136096381D01*
X135735821Y-136096385D01*
X135858039Y-136391444D01*
X136008592Y-136673108D01*
X136186020Y-136938649D01*
X136186031Y-136938664D01*
X136388628Y-137185528D01*
X136388646Y-137185548D01*
X136614451Y-137411353D01*
X136614461Y-137411362D01*
X136614465Y-137411366D01*
X136861344Y-137613975D01*
X137126894Y-137791409D01*
X137408556Y-137941961D01*
X137703619Y-138064180D01*
X138009240Y-138156889D01*
X138322477Y-138219196D01*
X138640313Y-138250500D01*
X138640322Y-138250500D01*
X138959678Y-138250500D01*
X138959687Y-138250500D01*
X139277523Y-138219196D01*
X139590760Y-138156889D01*
X139896381Y-138064180D01*
X140191444Y-137941961D01*
X140473106Y-137791409D01*
X140738656Y-137613975D01*
X140985535Y-137411366D01*
X141211366Y-137185535D01*
X141413975Y-136938656D01*
X141591409Y-136673106D01*
X141741961Y-136391444D01*
X141864180Y-136096381D01*
X141956889Y-135790760D01*
X142019196Y-135477523D01*
X142050500Y-135159687D01*
X142050500Y-134840313D01*
X142019196Y-134522477D01*
X141956889Y-134209240D01*
X141864180Y-133903619D01*
X141741961Y-133608556D01*
X141591409Y-133326894D01*
X141413975Y-133061344D01*
X141211366Y-132814465D01*
X141211362Y-132814461D01*
X141211353Y-132814451D01*
X140985548Y-132588646D01*
X140985528Y-132588628D01*
X140738664Y-132386031D01*
X140738649Y-132386020D01*
X140473108Y-132208592D01*
X140191444Y-132058039D01*
X139896385Y-131935821D01*
X139896381Y-131935820D01*
X139590760Y-131843111D01*
X139381935Y-131801573D01*
X139277524Y-131780804D01*
X139277508Y-131780802D01*
X138959693Y-131749500D01*
X138959687Y-131749500D01*
X138640313Y-131749500D01*
X138640306Y-131749500D01*
X138322491Y-131780802D01*
X138322475Y-131780804D01*
X138113652Y-131822342D01*
X138009240Y-131843111D01*
X137856429Y-131889465D01*
X137703618Y-131935820D01*
X137703614Y-131935821D01*
X137408555Y-132058039D01*
X137126891Y-132208592D01*
X136861350Y-132386020D01*
X136861335Y-132386031D01*
X136614471Y-132588628D01*
X136614451Y-132588646D01*
X136388646Y-132814451D01*
X136388628Y-132814471D01*
X136186031Y-133061335D01*
X136186020Y-133061350D01*
X136008592Y-133326891D01*
X135858039Y-133608555D01*
X135735821Y-133903614D01*
X135735820Y-133903618D01*
X135643111Y-134209241D01*
X135580804Y-134522475D01*
X135580802Y-134522491D01*
X135549500Y-134840306D01*
X115101884Y-134840306D01*
X115101884Y-128815743D01*
X118496732Y-128815743D01*
X118496732Y-129184256D01*
X118532849Y-129550961D01*
X118532852Y-129550981D01*
X118604738Y-129912382D01*
X118711712Y-130265029D01*
X118711713Y-130265033D01*
X118852731Y-130605479D01*
X119026442Y-130930470D01*
X119231164Y-131236858D01*
X119231175Y-131236873D01*
X119464937Y-131521712D01*
X119464955Y-131521732D01*
X119725499Y-131782276D01*
X119725519Y-131782294D01*
X119912590Y-131935820D01*
X120010367Y-132016063D01*
X120316764Y-132220791D01*
X120641753Y-132394501D01*
X120982203Y-132535520D01*
X121334836Y-132642490D01*
X121334845Y-132642491D01*
X121334849Y-132642493D01*
X121457462Y-132666881D01*
X121696256Y-132714381D01*
X122062982Y-132750500D01*
X122062991Y-132750500D01*
X122431473Y-132750500D01*
X122431482Y-132750500D01*
X122798208Y-132714381D01*
X123095892Y-132655167D01*
X123159614Y-132642493D01*
X123159616Y-132642492D01*
X123159628Y-132642490D01*
X123512261Y-132535520D01*
X123852711Y-132394501D01*
X124177700Y-132220791D01*
X124484097Y-132016063D01*
X124768951Y-131782289D01*
X125029521Y-131521719D01*
X125263295Y-131236865D01*
X125468023Y-130930468D01*
X125641733Y-130605479D01*
X125782752Y-130265029D01*
X125889722Y-129912396D01*
X125961613Y-129550976D01*
X125997732Y-129184250D01*
X125997732Y-128815750D01*
X125961613Y-128449024D01*
X125889722Y-128087604D01*
X125782752Y-127734971D01*
X125641733Y-127394521D01*
X125468023Y-127069532D01*
X125263295Y-126763135D01*
X125029521Y-126478281D01*
X125029517Y-126478277D01*
X125029508Y-126478267D01*
X124768964Y-126217723D01*
X124768944Y-126217705D01*
X124484105Y-125983943D01*
X124484090Y-125983932D01*
X124177702Y-125779210D01*
X123852711Y-125605499D01*
X123512265Y-125464481D01*
X123512261Y-125464480D01*
X123337184Y-125411371D01*
X123159628Y-125357510D01*
X123159625Y-125357509D01*
X123159614Y-125357506D01*
X122798213Y-125285620D01*
X122798208Y-125285619D01*
X122798203Y-125285618D01*
X122798193Y-125285617D01*
X122431488Y-125249500D01*
X122431482Y-125249500D01*
X122062982Y-125249500D01*
X122062975Y-125249500D01*
X121696270Y-125285617D01*
X121696257Y-125285618D01*
X121696256Y-125285619D01*
X121696253Y-125285619D01*
X121696250Y-125285620D01*
X121334849Y-125357506D01*
X120982202Y-125464480D01*
X120982198Y-125464481D01*
X120641752Y-125605499D01*
X120316761Y-125779210D01*
X120010373Y-125983932D01*
X120010358Y-125983943D01*
X119725519Y-126217705D01*
X119725499Y-126217723D01*
X119464955Y-126478267D01*
X119464937Y-126478287D01*
X119231175Y-126763126D01*
X119231164Y-126763141D01*
X119026442Y-127069529D01*
X118852731Y-127394520D01*
X118711713Y-127734966D01*
X118711712Y-127734970D01*
X118604738Y-128087617D01*
X118532852Y-128449018D01*
X118532849Y-128449038D01*
X118496732Y-128815743D01*
X115101884Y-128815743D01*
X115101884Y-122840306D01*
X135549500Y-122840306D01*
X135549500Y-123159693D01*
X135580802Y-123477508D01*
X135580804Y-123477523D01*
X135643111Y-123790760D01*
X135735820Y-124096381D01*
X135735821Y-124096385D01*
X135858039Y-124391444D01*
X136008592Y-124673108D01*
X136186020Y-124938649D01*
X136186031Y-124938664D01*
X136388628Y-125185528D01*
X136388646Y-125185548D01*
X136614451Y-125411353D01*
X136614471Y-125411371D01*
X136679185Y-125464481D01*
X136861344Y-125613975D01*
X137126894Y-125791409D01*
X137408556Y-125941961D01*
X137703619Y-126064180D01*
X138009240Y-126156889D01*
X138322477Y-126219196D01*
X138640313Y-126250500D01*
X138640322Y-126250500D01*
X138959678Y-126250500D01*
X138959687Y-126250500D01*
X139277523Y-126219196D01*
X139590760Y-126156889D01*
X139896381Y-126064180D01*
X140191444Y-125941961D01*
X140473106Y-125791409D01*
X140738656Y-125613975D01*
X140985535Y-125411366D01*
X141211366Y-125185535D01*
X141413975Y-124938656D01*
X141591409Y-124673106D01*
X141741961Y-124391444D01*
X141864180Y-124096381D01*
X141956889Y-123790760D01*
X142019196Y-123477523D01*
X142050500Y-123159687D01*
X142050500Y-122840313D01*
X142019196Y-122522477D01*
X141956889Y-122209240D01*
X141864180Y-121903619D01*
X141741961Y-121608556D01*
X141591409Y-121326894D01*
X141413975Y-121061344D01*
X141211366Y-120814465D01*
X141211362Y-120814461D01*
X141211353Y-120814451D01*
X140985548Y-120588646D01*
X140985528Y-120588628D01*
X140738664Y-120386031D01*
X140738649Y-120386020D01*
X140473108Y-120208592D01*
X140191444Y-120058039D01*
X139896385Y-119935821D01*
X139896381Y-119935820D01*
X139590760Y-119843111D01*
X139381935Y-119801573D01*
X139277524Y-119780804D01*
X139277508Y-119780802D01*
X138959693Y-119749500D01*
X138959687Y-119749500D01*
X138640313Y-119749500D01*
X138640306Y-119749500D01*
X138322491Y-119780802D01*
X138322475Y-119780804D01*
X138113652Y-119822342D01*
X138009240Y-119843111D01*
X137856429Y-119889465D01*
X137703618Y-119935820D01*
X137703614Y-119935821D01*
X137408555Y-120058039D01*
X137126891Y-120208592D01*
X136861350Y-120386020D01*
X136861335Y-120386031D01*
X136614471Y-120588628D01*
X136614451Y-120588646D01*
X136388646Y-120814451D01*
X136388628Y-120814471D01*
X136186031Y-121061335D01*
X136186020Y-121061350D01*
X136008592Y-121326891D01*
X135858039Y-121608555D01*
X135735821Y-121903614D01*
X135735820Y-121903618D01*
X135643111Y-122209241D01*
X135580804Y-122522475D01*
X135580802Y-122522491D01*
X135549500Y-122840306D01*
X115101884Y-122840306D01*
X115101884Y-108840306D01*
X135549500Y-108840306D01*
X135549500Y-109159693D01*
X135580802Y-109477508D01*
X135580804Y-109477523D01*
X135643111Y-109790760D01*
X135735820Y-110096381D01*
X135735821Y-110096385D01*
X135858039Y-110391444D01*
X136008592Y-110673108D01*
X136186020Y-110938649D01*
X136186031Y-110938664D01*
X136388628Y-111185528D01*
X136388646Y-111185548D01*
X136614451Y-111411353D01*
X136614461Y-111411362D01*
X136614465Y-111411366D01*
X136861344Y-111613975D01*
X137126894Y-111791409D01*
X137408556Y-111941961D01*
X137703619Y-112064180D01*
X138009240Y-112156889D01*
X138322477Y-112219196D01*
X138640313Y-112250500D01*
X138640322Y-112250500D01*
X138959678Y-112250500D01*
X138959687Y-112250500D01*
X139277523Y-112219196D01*
X139590760Y-112156889D01*
X139896381Y-112064180D01*
X140191444Y-111941961D01*
X140473106Y-111791409D01*
X140738656Y-111613975D01*
X140985535Y-111411366D01*
X141211366Y-111185535D01*
X141413975Y-110938656D01*
X141591409Y-110673106D01*
X141741961Y-110391444D01*
X141864180Y-110096381D01*
X141956889Y-109790760D01*
X142019196Y-109477523D01*
X142050500Y-109159687D01*
X142050500Y-108840313D01*
X142019196Y-108522477D01*
X141956889Y-108209240D01*
X141864180Y-107903619D01*
X141741961Y-107608556D01*
X141591409Y-107326894D01*
X141413975Y-107061344D01*
X141211366Y-106814465D01*
X141211362Y-106814461D01*
X141211353Y-106814451D01*
X140985548Y-106588646D01*
X140985528Y-106588628D01*
X140738664Y-106386031D01*
X140738649Y-106386020D01*
X140473108Y-106208592D01*
X140191444Y-106058039D01*
X139896385Y-105935821D01*
X139896381Y-105935820D01*
X139590760Y-105843111D01*
X139381935Y-105801573D01*
X139277524Y-105780804D01*
X139277508Y-105780802D01*
X138959693Y-105749500D01*
X138959687Y-105749500D01*
X138640313Y-105749500D01*
X138640306Y-105749500D01*
X138322491Y-105780802D01*
X138322475Y-105780804D01*
X138113652Y-105822342D01*
X138009240Y-105843111D01*
X137856429Y-105889465D01*
X137703618Y-105935820D01*
X137703614Y-105935821D01*
X137408555Y-106058039D01*
X137126891Y-106208592D01*
X136861350Y-106386020D01*
X136861335Y-106386031D01*
X136614471Y-106588628D01*
X136614451Y-106588646D01*
X136388646Y-106814451D01*
X136388628Y-106814471D01*
X136186031Y-107061335D01*
X136186020Y-107061350D01*
X136008592Y-107326891D01*
X135858039Y-107608555D01*
X135735821Y-107903614D01*
X135735820Y-107903618D01*
X135643111Y-108209241D01*
X135580804Y-108522475D01*
X135580802Y-108522491D01*
X135549500Y-108840306D01*
X115101884Y-108840306D01*
X115101884Y-102815743D01*
X118496732Y-102815743D01*
X118496732Y-103184256D01*
X118532849Y-103550961D01*
X118532852Y-103550981D01*
X118604738Y-103912382D01*
X118711712Y-104265029D01*
X118711713Y-104265033D01*
X118852731Y-104605479D01*
X119026442Y-104930470D01*
X119231164Y-105236858D01*
X119231175Y-105236873D01*
X119464937Y-105521712D01*
X119464955Y-105521732D01*
X119725499Y-105782276D01*
X119725519Y-105782294D01*
X119912590Y-105935820D01*
X120010367Y-106016063D01*
X120316764Y-106220791D01*
X120641753Y-106394501D01*
X120982203Y-106535520D01*
X121334836Y-106642490D01*
X121334845Y-106642491D01*
X121334849Y-106642493D01*
X121457462Y-106666881D01*
X121696256Y-106714381D01*
X122062982Y-106750500D01*
X122062991Y-106750500D01*
X122431473Y-106750500D01*
X122431482Y-106750500D01*
X122798208Y-106714381D01*
X123095892Y-106655167D01*
X123159614Y-106642493D01*
X123159616Y-106642492D01*
X123159628Y-106642490D01*
X123512261Y-106535520D01*
X123852711Y-106394501D01*
X124177700Y-106220791D01*
X124484097Y-106016063D01*
X124768951Y-105782289D01*
X125029521Y-105521719D01*
X125263295Y-105236865D01*
X125468023Y-104930468D01*
X125641733Y-104605479D01*
X125782752Y-104265029D01*
X125889722Y-103912396D01*
X125961613Y-103550976D01*
X125997732Y-103184250D01*
X125997732Y-102815750D01*
X125961613Y-102449024D01*
X125889722Y-102087604D01*
X125782752Y-101734971D01*
X125641733Y-101394521D01*
X125468023Y-101069532D01*
X125263295Y-100763135D01*
X125029521Y-100478281D01*
X125029517Y-100478277D01*
X125029508Y-100478267D01*
X124768964Y-100217723D01*
X124768944Y-100217705D01*
X124484105Y-99983943D01*
X124484090Y-99983932D01*
X124177702Y-99779210D01*
X123852711Y-99605499D01*
X123512265Y-99464481D01*
X123512261Y-99464480D01*
X123337184Y-99411371D01*
X123159628Y-99357510D01*
X123159625Y-99357509D01*
X123159614Y-99357506D01*
X122798213Y-99285620D01*
X122798208Y-99285619D01*
X122798203Y-99285618D01*
X122798193Y-99285617D01*
X122431488Y-99249500D01*
X122431482Y-99249500D01*
X122062982Y-99249500D01*
X122062975Y-99249500D01*
X121696270Y-99285617D01*
X121696257Y-99285618D01*
X121696256Y-99285619D01*
X121696253Y-99285619D01*
X121696250Y-99285620D01*
X121334849Y-99357506D01*
X120982202Y-99464480D01*
X120982198Y-99464481D01*
X120641752Y-99605499D01*
X120316761Y-99779210D01*
X120010373Y-99983932D01*
X120010358Y-99983943D01*
X119725519Y-100217705D01*
X119725499Y-100217723D01*
X119464955Y-100478267D01*
X119464937Y-100478287D01*
X119231175Y-100763126D01*
X119231164Y-100763141D01*
X119026442Y-101069529D01*
X118852731Y-101394520D01*
X118711713Y-101734966D01*
X118711712Y-101734970D01*
X118604738Y-102087617D01*
X118532852Y-102449018D01*
X118532849Y-102449038D01*
X118496732Y-102815743D01*
X115101884Y-102815743D01*
X115101884Y-96840306D01*
X135549500Y-96840306D01*
X135549500Y-97159693D01*
X135580802Y-97477508D01*
X135580804Y-97477523D01*
X135643111Y-97790760D01*
X135735820Y-98096381D01*
X135735821Y-98096385D01*
X135858039Y-98391444D01*
X136008592Y-98673108D01*
X136186020Y-98938649D01*
X136186031Y-98938664D01*
X136388628Y-99185528D01*
X136388646Y-99185548D01*
X136614451Y-99411353D01*
X136614471Y-99411371D01*
X136679185Y-99464481D01*
X136861344Y-99613975D01*
X137126894Y-99791409D01*
X137408556Y-99941961D01*
X137703619Y-100064180D01*
X138009240Y-100156889D01*
X138322477Y-100219196D01*
X138640313Y-100250500D01*
X138640322Y-100250500D01*
X138959678Y-100250500D01*
X138959687Y-100250500D01*
X139277523Y-100219196D01*
X139590760Y-100156889D01*
X139896381Y-100064180D01*
X140191444Y-99941961D01*
X140473106Y-99791409D01*
X140738656Y-99613975D01*
X140985535Y-99411366D01*
X141211366Y-99185535D01*
X141413975Y-98938656D01*
X141591409Y-98673106D01*
X141741961Y-98391444D01*
X141864180Y-98096381D01*
X141956889Y-97790760D01*
X142019196Y-97477523D01*
X142050500Y-97159687D01*
X142050500Y-96840313D01*
X142019196Y-96522477D01*
X141956889Y-96209240D01*
X141864180Y-95903619D01*
X141741961Y-95608556D01*
X141591409Y-95326894D01*
X141413975Y-95061344D01*
X141211366Y-94814465D01*
X141211362Y-94814461D01*
X141211353Y-94814451D01*
X140985548Y-94588646D01*
X140985528Y-94588628D01*
X140738664Y-94386031D01*
X140738649Y-94386020D01*
X140473108Y-94208592D01*
X140191444Y-94058039D01*
X139896385Y-93935821D01*
X139896381Y-93935820D01*
X139590760Y-93843111D01*
X139381935Y-93801573D01*
X139277524Y-93780804D01*
X139277508Y-93780802D01*
X138959693Y-93749500D01*
X138959687Y-93749500D01*
X138640313Y-93749500D01*
X138640306Y-93749500D01*
X138322491Y-93780802D01*
X138322475Y-93780804D01*
X138113652Y-93822342D01*
X138009240Y-93843111D01*
X137856429Y-93889465D01*
X137703618Y-93935820D01*
X137703614Y-93935821D01*
X137408555Y-94058039D01*
X137126891Y-94208592D01*
X136861350Y-94386020D01*
X136861335Y-94386031D01*
X136614471Y-94588628D01*
X136614451Y-94588646D01*
X136388646Y-94814451D01*
X136388628Y-94814471D01*
X136186031Y-95061335D01*
X136186020Y-95061350D01*
X136008592Y-95326891D01*
X135858039Y-95608555D01*
X135735821Y-95903614D01*
X135735820Y-95903618D01*
X135643111Y-96209241D01*
X135580804Y-96522475D01*
X135580802Y-96522491D01*
X135549500Y-96840306D01*
X115101884Y-96840306D01*
X115101884Y-82840306D01*
X135549500Y-82840306D01*
X135549500Y-83159693D01*
X135580802Y-83477508D01*
X135580804Y-83477523D01*
X135643111Y-83790760D01*
X135735820Y-84096381D01*
X135735821Y-84096385D01*
X135858039Y-84391444D01*
X136008592Y-84673108D01*
X136186020Y-84938649D01*
X136186031Y-84938664D01*
X136388628Y-85185528D01*
X136388646Y-85185548D01*
X136614451Y-85411353D01*
X136614461Y-85411362D01*
X136614465Y-85411366D01*
X136861344Y-85613975D01*
X137126894Y-85791409D01*
X137408556Y-85941961D01*
X137703619Y-86064180D01*
X138009240Y-86156889D01*
X138322477Y-86219196D01*
X138640313Y-86250500D01*
X138640322Y-86250500D01*
X138959678Y-86250500D01*
X138959687Y-86250500D01*
X139277523Y-86219196D01*
X139590760Y-86156889D01*
X139896381Y-86064180D01*
X140191444Y-85941961D01*
X140473106Y-85791409D01*
X140738656Y-85613975D01*
X140985535Y-85411366D01*
X141211366Y-85185535D01*
X141413975Y-84938656D01*
X141591409Y-84673106D01*
X141741961Y-84391444D01*
X141864180Y-84096381D01*
X141956889Y-83790760D01*
X142019196Y-83477523D01*
X142050500Y-83159687D01*
X142050500Y-82840313D01*
X142019196Y-82522477D01*
X141956889Y-82209240D01*
X141864180Y-81903619D01*
X141741961Y-81608556D01*
X141591409Y-81326894D01*
X141413975Y-81061344D01*
X141211366Y-80814465D01*
X141211362Y-80814461D01*
X141211353Y-80814451D01*
X140985548Y-80588646D01*
X140985528Y-80588628D01*
X140738664Y-80386031D01*
X140738649Y-80386020D01*
X140473108Y-80208592D01*
X140191444Y-80058039D01*
X139896385Y-79935821D01*
X139896381Y-79935820D01*
X139590760Y-79843111D01*
X139381935Y-79801573D01*
X139277524Y-79780804D01*
X139277508Y-79780802D01*
X138959693Y-79749500D01*
X138959687Y-79749500D01*
X138640313Y-79749500D01*
X138640306Y-79749500D01*
X138322491Y-79780802D01*
X138322475Y-79780804D01*
X138113652Y-79822342D01*
X138009240Y-79843111D01*
X137856429Y-79889465D01*
X137703618Y-79935820D01*
X137703614Y-79935821D01*
X137408555Y-80058039D01*
X137126891Y-80208592D01*
X136861350Y-80386020D01*
X136861335Y-80386031D01*
X136614471Y-80588628D01*
X136614451Y-80588646D01*
X136388646Y-80814451D01*
X136388628Y-80814471D01*
X136186031Y-81061335D01*
X136186020Y-81061350D01*
X136008592Y-81326891D01*
X135858039Y-81608555D01*
X135735821Y-81903614D01*
X135735820Y-81903618D01*
X135643111Y-82209241D01*
X135580804Y-82522475D01*
X135580802Y-82522491D01*
X135549500Y-82840306D01*
X115101884Y-82840306D01*
X115101884Y-76815743D01*
X118496732Y-76815743D01*
X118496732Y-77184256D01*
X118532849Y-77550961D01*
X118532852Y-77550981D01*
X118604738Y-77912382D01*
X118711712Y-78265029D01*
X118711713Y-78265033D01*
X118852731Y-78605479D01*
X119026442Y-78930470D01*
X119231164Y-79236858D01*
X119231175Y-79236873D01*
X119464937Y-79521712D01*
X119464955Y-79521732D01*
X119725499Y-79782276D01*
X119725519Y-79782294D01*
X119912590Y-79935820D01*
X120010367Y-80016063D01*
X120316764Y-80220791D01*
X120641753Y-80394501D01*
X120982203Y-80535520D01*
X121334836Y-80642490D01*
X121334845Y-80642491D01*
X121334849Y-80642493D01*
X121457462Y-80666881D01*
X121696256Y-80714381D01*
X122062982Y-80750500D01*
X122062991Y-80750500D01*
X122431473Y-80750500D01*
X122431482Y-80750500D01*
X122798208Y-80714381D01*
X123095892Y-80655167D01*
X123159614Y-80642493D01*
X123159616Y-80642492D01*
X123159628Y-80642490D01*
X123512261Y-80535520D01*
X123852711Y-80394501D01*
X124177700Y-80220791D01*
X124484097Y-80016063D01*
X124768951Y-79782289D01*
X125029521Y-79521719D01*
X125263295Y-79236865D01*
X125468023Y-78930468D01*
X125641733Y-78605479D01*
X125782752Y-78265029D01*
X125889722Y-77912396D01*
X125961613Y-77550976D01*
X125997732Y-77184250D01*
X125997732Y-76815750D01*
X125961613Y-76449024D01*
X125889722Y-76087604D01*
X125782752Y-75734971D01*
X125641733Y-75394521D01*
X125468023Y-75069532D01*
X125263295Y-74763135D01*
X125029521Y-74478281D01*
X125029517Y-74478277D01*
X125029508Y-74478267D01*
X124768964Y-74217723D01*
X124768944Y-74217705D01*
X124484105Y-73983943D01*
X124484090Y-73983932D01*
X124177702Y-73779210D01*
X123852711Y-73605499D01*
X123512265Y-73464481D01*
X123512261Y-73464480D01*
X123337184Y-73411371D01*
X123159628Y-73357510D01*
X123159625Y-73357509D01*
X123159614Y-73357506D01*
X122798213Y-73285620D01*
X122798208Y-73285619D01*
X122798203Y-73285618D01*
X122798193Y-73285617D01*
X122431488Y-73249500D01*
X122431482Y-73249500D01*
X122062982Y-73249500D01*
X122062975Y-73249500D01*
X121696270Y-73285617D01*
X121696257Y-73285618D01*
X121696256Y-73285619D01*
X121696253Y-73285619D01*
X121696250Y-73285620D01*
X121334849Y-73357506D01*
X120982202Y-73464480D01*
X120982198Y-73464481D01*
X120641752Y-73605499D01*
X120316761Y-73779210D01*
X120010373Y-73983932D01*
X120010358Y-73983943D01*
X119725519Y-74217705D01*
X119725499Y-74217723D01*
X119464955Y-74478267D01*
X119464937Y-74478287D01*
X119231175Y-74763126D01*
X119231164Y-74763141D01*
X119026442Y-75069529D01*
X118852731Y-75394520D01*
X118711713Y-75734966D01*
X118711712Y-75734970D01*
X118604738Y-76087617D01*
X118532852Y-76449018D01*
X118532849Y-76449038D01*
X118496732Y-76815743D01*
X115101884Y-76815743D01*
X115101884Y-70840306D01*
X135549500Y-70840306D01*
X135549500Y-71159693D01*
X135580802Y-71477508D01*
X135580804Y-71477523D01*
X135643111Y-71790760D01*
X135735820Y-72096381D01*
X135735821Y-72096385D01*
X135858039Y-72391444D01*
X136008592Y-72673108D01*
X136186020Y-72938649D01*
X136186031Y-72938664D01*
X136388628Y-73185528D01*
X136388646Y-73185548D01*
X136614451Y-73411353D01*
X136614471Y-73411371D01*
X136679185Y-73464481D01*
X136861344Y-73613975D01*
X137126894Y-73791409D01*
X137408556Y-73941961D01*
X137703619Y-74064180D01*
X138009240Y-74156889D01*
X138322477Y-74219196D01*
X138640313Y-74250500D01*
X138640322Y-74250500D01*
X138959678Y-74250500D01*
X138959687Y-74250500D01*
X139277523Y-74219196D01*
X139590760Y-74156889D01*
X139896381Y-74064180D01*
X140191444Y-73941961D01*
X140473106Y-73791409D01*
X140738656Y-73613975D01*
X140985535Y-73411366D01*
X141211366Y-73185535D01*
X141413975Y-72938656D01*
X141591409Y-72673106D01*
X141741961Y-72391444D01*
X141864180Y-72096381D01*
X141956889Y-71790760D01*
X142019196Y-71477523D01*
X142050500Y-71159687D01*
X142050500Y-70840313D01*
X142019196Y-70522477D01*
X141956889Y-70209240D01*
X141864180Y-69903619D01*
X141741961Y-69608556D01*
X141591409Y-69326894D01*
X141413975Y-69061344D01*
X141211366Y-68814465D01*
X141211362Y-68814461D01*
X141211353Y-68814451D01*
X140985548Y-68588646D01*
X140985528Y-68588628D01*
X140738664Y-68386031D01*
X140738649Y-68386020D01*
X140473108Y-68208592D01*
X140191444Y-68058039D01*
X139896385Y-67935821D01*
X139896381Y-67935820D01*
X139590760Y-67843111D01*
X139381935Y-67801573D01*
X139277524Y-67780804D01*
X139277508Y-67780802D01*
X138959693Y-67749500D01*
X138959687Y-67749500D01*
X138640313Y-67749500D01*
X138640306Y-67749500D01*
X138322491Y-67780802D01*
X138322475Y-67780804D01*
X138113652Y-67822342D01*
X138009240Y-67843111D01*
X137856429Y-67889465D01*
X137703618Y-67935820D01*
X137703614Y-67935821D01*
X137408555Y-68058039D01*
X137126891Y-68208592D01*
X136861350Y-68386020D01*
X136861335Y-68386031D01*
X136614471Y-68588628D01*
X136614451Y-68588646D01*
X136388646Y-68814451D01*
X136388628Y-68814471D01*
X136186031Y-69061335D01*
X136186020Y-69061350D01*
X136008592Y-69326891D01*
X135858039Y-69608555D01*
X135735821Y-69903614D01*
X135735820Y-69903618D01*
X135643111Y-70209241D01*
X135580804Y-70522475D01*
X135580802Y-70522491D01*
X135549500Y-70840306D01*
X115101884Y-70840306D01*
X115101884Y-56840306D01*
X135549500Y-56840306D01*
X135549500Y-57159693D01*
X135580802Y-57477508D01*
X135580804Y-57477523D01*
X135643111Y-57790760D01*
X135735820Y-58096381D01*
X135735821Y-58096385D01*
X135858039Y-58391444D01*
X136008592Y-58673108D01*
X136186020Y-58938649D01*
X136186031Y-58938664D01*
X136388628Y-59185528D01*
X136388646Y-59185548D01*
X136614451Y-59411353D01*
X136614461Y-59411362D01*
X136614465Y-59411366D01*
X136861344Y-59613975D01*
X137126894Y-59791409D01*
X137408556Y-59941961D01*
X137703619Y-60064180D01*
X138009240Y-60156889D01*
X138322477Y-60219196D01*
X138640313Y-60250500D01*
X138640322Y-60250500D01*
X138959678Y-60250500D01*
X138959687Y-60250500D01*
X139277523Y-60219196D01*
X139590760Y-60156889D01*
X139896381Y-60064180D01*
X140191444Y-59941961D01*
X140473106Y-59791409D01*
X140738656Y-59613975D01*
X140985535Y-59411366D01*
X141211366Y-59185535D01*
X141413975Y-58938656D01*
X141591409Y-58673106D01*
X141741961Y-58391444D01*
X141864180Y-58096381D01*
X141956889Y-57790760D01*
X142019196Y-57477523D01*
X142050500Y-57159687D01*
X142050500Y-56840313D01*
X142019196Y-56522477D01*
X141956889Y-56209240D01*
X141864180Y-55903619D01*
X141741961Y-55608556D01*
X141591409Y-55326894D01*
X141413975Y-55061344D01*
X141211366Y-54814465D01*
X141211362Y-54814461D01*
X141211353Y-54814451D01*
X140985548Y-54588646D01*
X140985528Y-54588628D01*
X140738664Y-54386031D01*
X140738649Y-54386020D01*
X140473108Y-54208592D01*
X140191444Y-54058039D01*
X139896385Y-53935821D01*
X139896381Y-53935820D01*
X139590760Y-53843111D01*
X139381935Y-53801573D01*
X139277524Y-53780804D01*
X139277508Y-53780802D01*
X138959693Y-53749500D01*
X138959687Y-53749500D01*
X138640313Y-53749500D01*
X138640306Y-53749500D01*
X138322491Y-53780802D01*
X138322475Y-53780804D01*
X138113652Y-53822342D01*
X138009240Y-53843111D01*
X137856429Y-53889465D01*
X137703618Y-53935820D01*
X137703614Y-53935821D01*
X137408555Y-54058039D01*
X137126891Y-54208592D01*
X136861350Y-54386020D01*
X136861335Y-54386031D01*
X136614471Y-54588628D01*
X136614451Y-54588646D01*
X136388646Y-54814451D01*
X136388628Y-54814471D01*
X136186031Y-55061335D01*
X136186020Y-55061350D01*
X136008592Y-55326891D01*
X135858039Y-55608555D01*
X135735821Y-55903614D01*
X135735820Y-55903618D01*
X135643111Y-56209241D01*
X135580804Y-56522475D01*
X135580802Y-56522491D01*
X135549500Y-56840306D01*
X115101884Y-56840306D01*
X115101884Y-50815743D01*
X118498116Y-50815743D01*
X118498116Y-51184256D01*
X118534233Y-51550961D01*
X118534236Y-51550981D01*
X118606122Y-51912382D01*
X118713096Y-52265029D01*
X118713097Y-52265033D01*
X118854115Y-52605479D01*
X119027826Y-52930470D01*
X119232548Y-53236858D01*
X119232559Y-53236873D01*
X119466321Y-53521712D01*
X119466339Y-53521732D01*
X119726883Y-53782276D01*
X119726903Y-53782294D01*
X119913974Y-53935820D01*
X120011751Y-54016063D01*
X120318148Y-54220791D01*
X120643137Y-54394501D01*
X120983587Y-54535520D01*
X121336220Y-54642490D01*
X121336229Y-54642491D01*
X121336233Y-54642493D01*
X121458846Y-54666881D01*
X121697640Y-54714381D01*
X122064366Y-54750500D01*
X122064375Y-54750500D01*
X122432857Y-54750500D01*
X122432866Y-54750500D01*
X122799592Y-54714381D01*
X123097276Y-54655167D01*
X123160998Y-54642493D01*
X123161000Y-54642492D01*
X123161012Y-54642490D01*
X123513645Y-54535520D01*
X123854095Y-54394501D01*
X124179084Y-54220791D01*
X124485481Y-54016063D01*
X124770335Y-53782289D01*
X125030905Y-53521719D01*
X125264679Y-53236865D01*
X125469407Y-52930468D01*
X125643117Y-52605479D01*
X125784136Y-52265029D01*
X125891106Y-51912396D01*
X125962997Y-51550976D01*
X125999116Y-51184250D01*
X125999116Y-50815750D01*
X125962997Y-50449024D01*
X125891106Y-50087604D01*
X125784136Y-49734971D01*
X125643117Y-49394521D01*
X125469407Y-49069532D01*
X125264679Y-48763135D01*
X125030905Y-48478281D01*
X125030901Y-48478277D01*
X125030892Y-48478267D01*
X124770348Y-48217723D01*
X124770328Y-48217705D01*
X124485489Y-47983943D01*
X124485474Y-47983932D01*
X124179086Y-47779210D01*
X123854095Y-47605499D01*
X123513649Y-47464481D01*
X123513645Y-47464480D01*
X123338568Y-47411371D01*
X123161012Y-47357510D01*
X123161009Y-47357509D01*
X123160998Y-47357506D01*
X122799597Y-47285620D01*
X122799592Y-47285619D01*
X122799587Y-47285618D01*
X122799577Y-47285617D01*
X122432872Y-47249500D01*
X122432866Y-47249500D01*
X122064366Y-47249500D01*
X122064359Y-47249500D01*
X121697654Y-47285617D01*
X121697641Y-47285618D01*
X121697640Y-47285619D01*
X121697637Y-47285619D01*
X121697634Y-47285620D01*
X121336233Y-47357506D01*
X120983586Y-47464480D01*
X120983582Y-47464481D01*
X120643136Y-47605499D01*
X120318145Y-47779210D01*
X120011757Y-47983932D01*
X120011742Y-47983943D01*
X119726903Y-48217705D01*
X119726883Y-48217723D01*
X119466339Y-48478267D01*
X119466321Y-48478287D01*
X119232559Y-48763126D01*
X119232548Y-48763141D01*
X119027826Y-49069529D01*
X118854115Y-49394520D01*
X118713097Y-49734966D01*
X118713096Y-49734970D01*
X118606122Y-50087617D01*
X118534236Y-50449018D01*
X118534233Y-50449038D01*
X118498116Y-50815743D01*
X115101884Y-50815743D01*
X115101884Y-44840306D01*
X135548116Y-44840306D01*
X135548116Y-45159693D01*
X135579418Y-45477508D01*
X135579420Y-45477523D01*
X135641727Y-45790760D01*
X135734436Y-46096381D01*
X135734437Y-46096385D01*
X135856655Y-46391444D01*
X136007208Y-46673108D01*
X136184636Y-46938649D01*
X136184647Y-46938664D01*
X136387244Y-47185528D01*
X136387262Y-47185548D01*
X136613067Y-47411353D01*
X136613087Y-47411371D01*
X136677801Y-47464481D01*
X136859960Y-47613975D01*
X137125510Y-47791409D01*
X137407172Y-47941961D01*
X137702235Y-48064180D01*
X138007856Y-48156889D01*
X138321093Y-48219196D01*
X138638929Y-48250500D01*
X138638938Y-48250500D01*
X138958294Y-48250500D01*
X138958303Y-48250500D01*
X139276139Y-48219196D01*
X139589376Y-48156889D01*
X139894997Y-48064180D01*
X140190060Y-47941961D01*
X140471722Y-47791409D01*
X140737272Y-47613975D01*
X140984151Y-47411366D01*
X141209982Y-47185535D01*
X141412591Y-46938656D01*
X141590025Y-46673106D01*
X141740577Y-46391444D01*
X141862796Y-46096381D01*
X141955505Y-45790760D01*
X142017812Y-45477523D01*
X142049116Y-45159687D01*
X142049116Y-44840313D01*
X142017812Y-44522477D01*
X141955505Y-44209240D01*
X141862796Y-43903619D01*
X141740577Y-43608556D01*
X141590025Y-43326894D01*
X141412591Y-43061344D01*
X141209982Y-42814465D01*
X141209978Y-42814461D01*
X141209969Y-42814451D01*
X140984164Y-42588646D01*
X140984144Y-42588628D01*
X140737280Y-42386031D01*
X140737265Y-42386020D01*
X140471724Y-42208592D01*
X140190060Y-42058039D01*
X139895001Y-41935821D01*
X139894997Y-41935820D01*
X139589376Y-41843111D01*
X139380551Y-41801573D01*
X139276140Y-41780804D01*
X139276124Y-41780802D01*
X138958309Y-41749500D01*
X138958303Y-41749500D01*
X138638929Y-41749500D01*
X138638922Y-41749500D01*
X138321107Y-41780802D01*
X138321091Y-41780804D01*
X138112268Y-41822342D01*
X138007856Y-41843111D01*
X137855045Y-41889465D01*
X137702234Y-41935820D01*
X137702230Y-41935821D01*
X137407171Y-42058039D01*
X137125507Y-42208592D01*
X136859966Y-42386020D01*
X136859951Y-42386031D01*
X136613087Y-42588628D01*
X136613067Y-42588646D01*
X136387262Y-42814451D01*
X136387244Y-42814471D01*
X136184647Y-43061335D01*
X136184636Y-43061350D01*
X136007208Y-43326891D01*
X135856655Y-43608555D01*
X135734437Y-43903614D01*
X135734436Y-43903618D01*
X135641727Y-44209241D01*
X135579420Y-44522475D01*
X135579418Y-44522491D01*
X135548116Y-44840306D01*
X115101884Y-44840306D01*
X115101884Y-28628709D01*
X120649500Y-28628709D01*
X120649500Y-28871290D01*
X120681160Y-29111782D01*
X120743944Y-29346095D01*
X120743945Y-29346097D01*
X120743946Y-29346100D01*
X120836776Y-29570212D01*
X120836777Y-29570213D01*
X120836782Y-29570224D01*
X120958061Y-29780285D01*
X120958063Y-29780288D01*
X120958064Y-29780289D01*
X121105735Y-29972738D01*
X121105739Y-29972742D01*
X121105744Y-29972748D01*
X121277251Y-30144255D01*
X121277256Y-30144259D01*
X121277262Y-30144265D01*
X121469711Y-30291936D01*
X121469714Y-30291938D01*
X121679775Y-30413217D01*
X121679779Y-30413218D01*
X121679788Y-30413224D01*
X121903900Y-30506054D01*
X122138211Y-30568838D01*
X122138215Y-30568838D01*
X122138217Y-30568839D01*
X122200202Y-30576999D01*
X122378712Y-30600500D01*
X122378719Y-30600500D01*
X122621281Y-30600500D01*
X122621288Y-30600500D01*
X122838637Y-30571885D01*
X122861782Y-30568839D01*
X122861782Y-30568838D01*
X122861789Y-30568838D01*
X123096100Y-30506054D01*
X123320212Y-30413224D01*
X123530289Y-30291936D01*
X123722738Y-30144265D01*
X123894265Y-29972738D01*
X124041936Y-29780289D01*
X124163224Y-29570212D01*
X124256054Y-29346100D01*
X124318838Y-29111789D01*
X124350500Y-28871288D01*
X124350500Y-28628712D01*
X124318838Y-28388211D01*
X124256054Y-28153900D01*
X124163224Y-27929788D01*
X124163218Y-27929779D01*
X124163217Y-27929775D01*
X124041938Y-27719714D01*
X124041936Y-27719711D01*
X123894265Y-27527262D01*
X123894259Y-27527256D01*
X123894255Y-27527251D01*
X123722748Y-27355744D01*
X123722742Y-27355739D01*
X123722738Y-27355735D01*
X123530289Y-27208064D01*
X123530288Y-27208063D01*
X123530285Y-27208061D01*
X123320224Y-27086782D01*
X123320216Y-27086778D01*
X123320212Y-27086776D01*
X123096100Y-26993946D01*
X123096097Y-26993945D01*
X123096095Y-26993944D01*
X122861782Y-26931160D01*
X122621290Y-26899500D01*
X122621288Y-26899500D01*
X122378712Y-26899500D01*
X122378709Y-26899500D01*
X122138217Y-26931160D01*
X121903904Y-26993944D01*
X121903900Y-26993946D01*
X121679786Y-27086777D01*
X121679775Y-27086782D01*
X121469714Y-27208061D01*
X121277262Y-27355735D01*
X121277251Y-27355744D01*
X121105744Y-27527251D01*
X121105735Y-27527262D01*
X120958061Y-27719714D01*
X120836782Y-27929775D01*
X120836777Y-27929786D01*
X120743946Y-28153900D01*
X120743944Y-28153904D01*
X120681160Y-28388217D01*
X120649500Y-28628709D01*
X115101884Y-28628709D01*
X115101884Y-25976500D01*
X115121886Y-25908379D01*
X115175542Y-25861886D01*
X115227884Y-25850500D01*
X144774884Y-25850500D01*
X144843005Y-25870502D01*
G37*
G04 #@! TD.AperFunction*
M02*
