G04 #@! TF.GenerationSoftware,KiCad,Pcbnew,(5.1.4)-1*
G04 #@! TF.CreationDate,2019-11-28T10:56:44-08:00*
G04 #@! TF.ProjectId,Attenuverter,41747465-6e75-4766-9572-7465722e6b69,rev?*
G04 #@! TF.SameCoordinates,Original*
G04 #@! TF.FileFunction,Paste,Bot*
G04 #@! TF.FilePolarity,Positive*
%FSLAX46Y46*%
G04 Gerber Fmt 4.6, Leading zero omitted, Abs format (unit mm)*
G04 Created by KiCad (PCBNEW (5.1.4)-1) date 2019-11-28 10:56:44*
%MOMM*%
%LPD*%
G04 APERTURE LIST*
%ADD10R,1.250000X1.500000*%
%ADD11R,1.500000X1.250000*%
%ADD12R,3.500000X1.800000*%
%ADD13R,2.650000X2.030000*%
%ADD14R,1.500000X1.300000*%
%ADD15R,1.300000X1.500000*%
%ADD16R,0.600000X1.500000*%
%ADD17R,0.900000X0.800000*%
G04 APERTURE END LIST*
D10*
X102500000Y-100250000D03*
X102500000Y-102750000D03*
X116750000Y-100500000D03*
X116750000Y-103000000D03*
X118750000Y-103000000D03*
X118750000Y-100500000D03*
D11*
X120000000Y-128000000D03*
X122500000Y-128000000D03*
X105500000Y-82500000D03*
X103000000Y-82500000D03*
X109000000Y-98000000D03*
X111500000Y-98000000D03*
D10*
X102500000Y-108000000D03*
X102500000Y-105500000D03*
D11*
X111500000Y-82500000D03*
X114000000Y-82500000D03*
X111750000Y-108000000D03*
X109250000Y-108000000D03*
D12*
X128000000Y-76000000D03*
X123000000Y-76000000D03*
X128000000Y-72000000D03*
X123000000Y-72000000D03*
D13*
X101500000Y-80000000D03*
X105680000Y-80000000D03*
X110000000Y-80000000D03*
X114180000Y-80000000D03*
D14*
X104300000Y-98000000D03*
X107000000Y-98000000D03*
X125300000Y-58500000D03*
X128000000Y-58500000D03*
X128000000Y-63000000D03*
X125300000Y-63000000D03*
X108500000Y-65500000D03*
X111200000Y-65500000D03*
X103300000Y-65500000D03*
X106000000Y-65500000D03*
D15*
X114750000Y-100300000D03*
X114750000Y-103000000D03*
D14*
X125300000Y-84500000D03*
X128000000Y-84500000D03*
X128000000Y-89500000D03*
X125300000Y-89500000D03*
X108500000Y-91500000D03*
X111200000Y-91500000D03*
X103300000Y-91500000D03*
X106000000Y-91500000D03*
X117750000Y-126000000D03*
X115050000Y-126000000D03*
D15*
X114750000Y-108000000D03*
X114750000Y-105300000D03*
D14*
X125300000Y-110500000D03*
X128000000Y-110500000D03*
X128000000Y-115500000D03*
X125300000Y-115500000D03*
X108500000Y-117500000D03*
X111200000Y-117500000D03*
X103300000Y-117500000D03*
X106000000Y-117500000D03*
X104500000Y-108000000D03*
X107200000Y-108000000D03*
X125300000Y-136500000D03*
X128000000Y-136500000D03*
X128000000Y-141500000D03*
X125300000Y-141500000D03*
X108500000Y-143500000D03*
X111200000Y-143500000D03*
X103300000Y-143500000D03*
X106000000Y-143500000D03*
D16*
X105130000Y-100350000D03*
X106400000Y-100350000D03*
X107670000Y-100350000D03*
X108940000Y-100350000D03*
X110210000Y-100350000D03*
X111480000Y-100350000D03*
X112750000Y-100350000D03*
X112750000Y-105750000D03*
X111480000Y-105750000D03*
X110210000Y-105750000D03*
X108940000Y-105750000D03*
X107670000Y-105750000D03*
X106400000Y-105750000D03*
X105130000Y-105750000D03*
D17*
X119750000Y-126000000D03*
X119750000Y-124100000D03*
X121750000Y-125050000D03*
M02*
