G04 #@! TF.GenerationSoftware,KiCad,Pcbnew,10.0.6*
G04 #@! TF.CreationDate,2026-10-07T16:45:18-07:00*
G04 #@! TF.ProjectId,Attenuverter,41747465-6e75-4766-9572-7465722e6b69,1.1*
G04 #@! TF.SameCoordinates,Original*
G04 #@! TF.FileFunction,Paste,Bot*
G04 #@! TF.FilePolarity,Positive*
%FSLAX46Y46*%
G04 Gerber Fmt 4.6, Leading zero omitted, Abs format (unit mm)*
G04 Created by KiCad (PCBNEW 10.0.6) date 2026-10-07 16:45:18*
%MOMM*%
%LPD*%
G01*
G04 APERTURE LIST*
G04 Aperture macros list*
%AMRoundRect*
0 Rectangle with rounded corners*
0 $1 Rounding radius*
0 $2 $3 $4 $5 $6 $7 $8 $9 X,Y pos of 4 corners*
0 Add a 4 corners polygon primitive as box body*
4,1,4,$2,$3,$4,$5,$6,$7,$8,$9,$2,$3,0*
0 Add four circle primitives for the rounded corners*
1,1,$1+$1,$2,$3*
1,1,$1+$1,$4,$5*
1,1,$1+$1,$6,$7*
1,1,$1+$1,$8,$9*
0 Add four rect primitives between the rounded corners*
20,1,$1+$1,$2,$3,$4,$5,0*
20,1,$1+$1,$4,$5,$6,$7,0*
20,1,$1+$1,$6,$7,$8,$9,0*
20,1,$1+$1,$8,$9,$2,$3,0*%
G04 Aperture macros list end*
%ADD10RoundRect,0.250000X-0.475000X0.250000X-0.475000X-0.250000X0.475000X-0.250000X0.475000X0.250000X0*%
%ADD11RoundRect,0.250000X0.475000X-0.250000X0.475000X0.250000X-0.475000X0.250000X-0.475000X-0.250000X0*%
%ADD12RoundRect,0.250000X-0.250000X-0.475000X0.250000X-0.475000X0.250000X0.475000X-0.250000X0.475000X0*%
%ADD13RoundRect,0.250000X0.250000X0.475000X-0.250000X0.475000X-0.250000X-0.475000X0.250000X-0.475000X0*%
%ADD14RoundRect,0.250000X1.000000X0.650000X-1.000000X0.650000X-1.000000X-0.650000X1.000000X-0.650000X0*%
%ADD15RoundRect,0.150000X-0.587500X-0.150000X0.587500X-0.150000X0.587500X0.150000X-0.587500X0.150000X0*%
%ADD16RoundRect,0.250000X-0.262500X-0.450000X0.262500X-0.450000X0.262500X0.450000X-0.262500X0.450000X0*%
%ADD17RoundRect,0.250000X0.262500X0.450000X-0.262500X0.450000X-0.262500X-0.450000X0.262500X-0.450000X0*%
%ADD18RoundRect,0.250000X-0.375000X-0.625000X0.375000X-0.625000X0.375000X0.625000X-0.375000X0.625000X0*%
%ADD19RoundRect,0.250000X-0.450000X0.262500X-0.450000X-0.262500X0.450000X-0.262500X0.450000X0.262500X0*%
%ADD20RoundRect,0.250000X0.450000X-0.262500X0.450000X0.262500X-0.450000X0.262500X-0.450000X-0.262500X0*%
%ADD21RoundRect,0.150000X-0.150000X0.825000X-0.150000X-0.825000X0.150000X-0.825000X0.150000X0.825000X0*%
%ADD22RoundRect,0.112500X0.112500X-0.187500X0.112500X0.187500X-0.112500X0.187500X-0.112500X-0.187500X0*%
G04 APERTURE END LIST*
D10*
X116750000Y-100800000D03*
X116750000Y-102700000D03*
D11*
X119000000Y-102700000D03*
X119000000Y-100800000D03*
D12*
X120300000Y-128000000D03*
X122200000Y-128000000D03*
D10*
X102500000Y-100550000D03*
X102500000Y-102450000D03*
D12*
X111800000Y-82500000D03*
X113700000Y-82500000D03*
X109300000Y-98000000D03*
X111200000Y-98000000D03*
D11*
X102500000Y-107700000D03*
X102500000Y-105800000D03*
D13*
X105200000Y-82500000D03*
X103300000Y-82500000D03*
D14*
X127500000Y-76000000D03*
X123500000Y-76000000D03*
D15*
X119812500Y-126000000D03*
X119812500Y-124100000D03*
X121687500Y-125050000D03*
D16*
X103737500Y-143500000D03*
X105562500Y-143500000D03*
D17*
X127600000Y-141200000D03*
X125775000Y-141200000D03*
D16*
X104937500Y-108000000D03*
X106762500Y-108000000D03*
X108937500Y-117500000D03*
X110762500Y-117500000D03*
X125800000Y-87200000D03*
X127625000Y-87200000D03*
D17*
X127562500Y-115400000D03*
X125737500Y-115400000D03*
D16*
X125775500Y-113400000D03*
X127600500Y-113400000D03*
X103737500Y-91500000D03*
X105562500Y-91500000D03*
X103737500Y-65500000D03*
X105562500Y-65500000D03*
D18*
X110690000Y-80000000D03*
X113490000Y-80000000D03*
D16*
X108937500Y-91500000D03*
X110762500Y-91500000D03*
X125775000Y-139200000D03*
X127600000Y-139200000D03*
D14*
X127500000Y-72000000D03*
X123500000Y-72000000D03*
D17*
X117312500Y-126000000D03*
X115487500Y-126000000D03*
D16*
X103737500Y-117500000D03*
X105562500Y-117500000D03*
D19*
X114750000Y-100837500D03*
X114750000Y-102662500D03*
D16*
X125800000Y-61000000D03*
X127625000Y-61000000D03*
D17*
X127625000Y-63000000D03*
X125800000Y-63000000D03*
D16*
X108937500Y-143500000D03*
X110762500Y-143500000D03*
D20*
X114750000Y-107562500D03*
X114750000Y-105737500D03*
D18*
X102190000Y-80000000D03*
X104990000Y-80000000D03*
D21*
X105130000Y-100575000D03*
X106400000Y-100575000D03*
X107670000Y-100575000D03*
X108940000Y-100575000D03*
X110210000Y-100575000D03*
X111480000Y-100575000D03*
X112750000Y-100575000D03*
X112750000Y-105525000D03*
X111480000Y-105525000D03*
X110210000Y-105525000D03*
X108940000Y-105525000D03*
X107670000Y-105525000D03*
X106400000Y-105525000D03*
X105130000Y-105525000D03*
D16*
X108937500Y-65500000D03*
X110762500Y-65500000D03*
D17*
X127625000Y-89200000D03*
X125800000Y-89200000D03*
D16*
X104737500Y-98000000D03*
X106562500Y-98000000D03*
D13*
X111450000Y-108000000D03*
X109550000Y-108000000D03*
D22*
X115600000Y-130450000D03*
X115600000Y-128350000D03*
X109400000Y-125400000D03*
X109400000Y-123300000D03*
D17*
X122425000Y-85200000D03*
X120600000Y-85200000D03*
D22*
X106200000Y-62000000D03*
X106200000Y-59900000D03*
D17*
X121825000Y-111400000D03*
X120000000Y-111400000D03*
X122000000Y-59000000D03*
X120175000Y-59000000D03*
X122312500Y-137200000D03*
X120487500Y-137200000D03*
X127600000Y-137200000D03*
X125775000Y-137200000D03*
D22*
X106000000Y-136600000D03*
X106000000Y-134500000D03*
X108800000Y-88200000D03*
X108800000Y-86100000D03*
X108200000Y-136600000D03*
X108200000Y-134500000D03*
X108200000Y-62000000D03*
X108200000Y-59900000D03*
D17*
X127625000Y-85200000D03*
X125800000Y-85200000D03*
D22*
X106800000Y-88200000D03*
X106800000Y-86100000D03*
X111600000Y-125400000D03*
X111600000Y-123300000D03*
D17*
X127600000Y-111400000D03*
X125775000Y-111400000D03*
D16*
X125775000Y-59000000D03*
X127600000Y-59000000D03*
M02*
