M48
INCH
T1C0.0157
T2C0.0295
T3C0.0394
T4C0.0480
T5C0.0787
%
G90
G05
T1
X4.0256Y-3.7894
X4.0354Y-3.8484
X4.1525Y-4.0147
X4.1732Y-4.3012
X4.1732Y-5.5217
X4.2224Y-4.4291
X4.2421Y-4.065
X4.2913Y-4.311
X4.3012Y-4.0453
X4.3307Y-3.2283
X4.3898Y-3.6811
X4.5276Y-4.685
X4.6161Y-3.4547
X4.6752Y-4.6949
X4.6806Y-3.0589
X4.7539Y-3.3268
X4.7835Y-3.4154
X4.7933Y-5.3839
X4.8425Y-2.4803
X4.8622Y-2.3031
T3
X4.124Y-3.7205
X4.2224Y-3.7205
X4.3209Y-3.7205
X4.1472Y-2.8724
X4.1472Y-2.9724
X4.2472Y-2.8724
X4.2472Y-2.9724
X4.3472Y-2.8724
X4.3472Y-2.9724
X4.4472Y-2.8724
X4.4472Y-2.9724
X4.5472Y-2.8724
X4.5472Y-2.9724
X4.124Y-2.6969
X4.2224Y-2.6969
X4.3209Y-2.6969
X4.124Y-5.7677
X4.2224Y-5.7677
X4.3209Y-5.7677
X4.124Y-4.7441
X4.2224Y-4.7441
X4.3209Y-4.7441
T4
X4.6063Y-4.2126
X4.6063Y-3.6614
X4.6063Y-5.2362
X4.6063Y-2.1654
X4.6063Y-2.6378
X4.6063Y-4.685
X4.6063Y-5.7087
X4.6063Y-3.189
T5
X4.0354Y-4.4488
X4.4094Y-4.4488
X4.0354Y-3.4252
X4.4094Y-3.4252
X4.0354Y-2.4016
X4.4094Y-2.4016
X4.0354Y-5.4724
X4.4094Y-5.4724
T2
G00X4.7283Y-4.1781
M15
G01X4.7283Y-4.247
M16
G05
G00X5.0551Y-4.1781
M15
G01X5.0551Y-4.247
M16
G05
G00X4.7283Y-3.627
M15
G01X4.7283Y-3.6959
M16
G05
G00X5.0551Y-3.627
M15
G01X5.0551Y-3.6959
M16
G05
G00X4.7283Y-5.2018
M15
G01X4.7283Y-5.2707
M16
G05
G00X5.0551Y-5.2018
M15
G01X5.0551Y-5.2707
M16
G05
G00X4.7283Y-2.1309
M15
G01X4.7283Y-2.1998
M16
G05
G00X5.0551Y-2.1309
M15
G01X5.0551Y-2.1998
M16
G05
G00X4.7283Y-2.6033
M15
G01X4.7283Y-2.6722
M16
G05
G00X5.0551Y-2.6033
M15
G01X5.0551Y-2.6722
M16
G05
G00X4.7283Y-4.6506
M15
G01X4.7283Y-4.7195
M16
G05
G00X5.0551Y-4.6506
M15
G01X5.0551Y-4.7195
M16
G05
G00X4.7283Y-5.6742
M15
G01X4.7283Y-5.7431
M16
G05
G00X5.0551Y-5.6742
M15
G01X5.0551Y-5.7431
M16
G05
G00X4.7283Y-3.1545
M15
G01X4.7283Y-3.2234
M16
G05
G00X5.0551Y-3.1545
M15
G01X5.0551Y-3.2234
M16
G05
T0
M30
