G04 #@! TF.GenerationSoftware,KiCad,Pcbnew,(5.1.4)-1*
G04 #@! TF.CreationDate,2019-11-25T21:03:08-08:00*
G04 #@! TF.ProjectId,Attenuverter,41747465-6e75-4766-9572-7465722e6b69,rev?*
G04 #@! TF.SameCoordinates,Original*
G04 #@! TF.FileFunction,Copper,L1,Top*
G04 #@! TF.FilePolarity,Positive*
%FSLAX46Y46*%
G04 Gerber Fmt 4.6, Leading zero omitted, Abs format (unit mm)*
G04 Created by KiCad (PCBNEW (5.1.4)-1) date 2019-11-25 21:03:08*
%MOMM*%
%LPD*%
G04 APERTURE LIST*
%ADD10C,4.000000*%
%ADD11C,1.800000*%
%ADD12O,1.500000X3.300000*%
%ADD13R,1.830000X1.930000*%
%ADD14O,1.700000X1.700000*%
%ADD15R,1.700000X1.700000*%
%ADD16C,0.800000*%
%ADD17C,0.250000*%
%ADD18C,0.750000*%
%ADD19C,0.500000*%
%ADD20C,0.254000*%
G04 APERTURE END LIST*
D10*
X112000000Y-61000000D03*
X102500000Y-61000000D03*
D11*
X109750000Y-68500000D03*
X107250000Y-68500000D03*
X104750000Y-68500000D03*
D10*
X112000000Y-139000000D03*
X102500000Y-139000000D03*
D11*
X109750000Y-146500000D03*
X107250000Y-146500000D03*
X104750000Y-146500000D03*
D12*
X120100000Y-55000000D03*
D13*
X117000000Y-55000000D03*
D12*
X128400000Y-55000000D03*
X120100000Y-67000000D03*
D13*
X117000000Y-67000000D03*
D12*
X128400000Y-67000000D03*
X120100000Y-81000000D03*
D13*
X117000000Y-81000000D03*
D12*
X128400000Y-81000000D03*
X120100000Y-93000000D03*
D13*
X117000000Y-93000000D03*
D12*
X128400000Y-93000000D03*
X120100000Y-107000000D03*
D13*
X117000000Y-107000000D03*
D12*
X128400000Y-107000000D03*
X120100000Y-119000000D03*
D13*
X117000000Y-119000000D03*
D12*
X128400000Y-119000000D03*
X120100000Y-133000000D03*
D13*
X117000000Y-133000000D03*
D12*
X128400000Y-133000000D03*
X120100000Y-145000000D03*
D13*
X117000000Y-145000000D03*
D12*
X128400000Y-145000000D03*
D10*
X112000000Y-87000000D03*
X102500000Y-87000000D03*
D11*
X109750000Y-94500000D03*
X107250000Y-94500000D03*
X104750000Y-94500000D03*
D10*
X112000000Y-113000000D03*
X102500000Y-113000000D03*
D11*
X109750000Y-120500000D03*
X107250000Y-120500000D03*
X104750000Y-120500000D03*
D14*
X105340000Y-72960000D03*
X105340000Y-75500000D03*
X107880000Y-72960000D03*
X107880000Y-75500000D03*
X110420000Y-72960000D03*
X110420000Y-75500000D03*
X112960000Y-72960000D03*
X112960000Y-75500000D03*
X115500000Y-72960000D03*
D15*
X115500000Y-75500000D03*
D16*
X123000000Y-63000000D03*
X102250000Y-96250000D03*
X123500000Y-58500000D03*
X107750000Y-103250000D03*
X117250000Y-87750000D03*
X111500000Y-93500000D03*
X102500000Y-97750000D03*
X110000000Y-82000000D03*
X118750000Y-119250000D03*
X121500000Y-86750000D03*
X120750000Y-84500000D03*
X109250000Y-102750000D03*
X115000000Y-119000000D03*
X107250000Y-112500000D03*
X121750000Y-136750000D03*
X109000000Y-109500000D03*
X118887073Y-77697231D03*
X105472347Y-101972347D03*
X106000000Y-140250000D03*
X106000000Y-111250000D03*
D17*
X102250000Y-93308998D02*
X102250000Y-96250000D01*
X121651999Y-73906999D02*
X102250000Y-93308998D01*
X123000000Y-63000000D02*
X121651999Y-64348001D01*
X121651999Y-64348001D02*
X121651999Y-73906999D01*
X107750000Y-99428002D02*
X107750000Y-103250000D01*
X125302001Y-81876001D02*
X107750000Y-99428002D01*
X125752011Y-60752011D02*
X125125000Y-60125000D01*
X125752011Y-74084399D02*
X125752011Y-60752011D01*
X125302001Y-74534409D02*
X125752011Y-74084399D01*
X125302001Y-81876001D02*
X125302001Y-74534409D01*
X123500000Y-58500000D02*
X125125000Y-60125000D01*
X125125000Y-60125000D02*
X125302001Y-60302001D01*
D18*
X102500000Y-87000000D02*
X102500000Y-84171573D01*
X102500000Y-84171573D02*
X102500000Y-83500000D01*
X102500000Y-87000000D02*
X102500000Y-88500000D01*
X102500000Y-88500000D02*
X101250000Y-89750000D01*
D17*
X119100000Y-107000000D02*
X120100000Y-107000000D01*
X118750000Y-107350000D02*
X119100000Y-107000000D01*
X118750000Y-119250000D02*
X118750000Y-107350000D01*
X121500000Y-103700000D02*
X121500000Y-86750000D01*
X120100000Y-107000000D02*
X120100000Y-105100000D01*
X120100000Y-105100000D02*
X121500000Y-103700000D01*
X120100000Y-83850000D02*
X120100000Y-81000000D01*
X120750000Y-84500000D02*
X120100000Y-83850000D01*
X120100000Y-56900000D02*
X120100000Y-55000000D01*
X125302001Y-62102001D02*
X120100000Y-56900000D01*
X125302001Y-73897999D02*
X125302001Y-62102001D01*
X120100000Y-79100000D02*
X125302001Y-73897999D01*
X120100000Y-81000000D02*
X120100000Y-79100000D01*
X109250000Y-102750000D02*
X115000000Y-108500000D01*
X115000000Y-108500000D02*
X115000000Y-119000000D01*
X121651999Y-136651999D02*
X121750000Y-136750000D01*
X107250000Y-112500000D02*
X121651999Y-126901999D01*
X121651999Y-126901999D02*
X121651999Y-136651999D01*
D19*
X118365001Y-78219303D02*
X118887073Y-77697231D01*
X118365001Y-87883001D02*
X118365001Y-78219303D01*
X106899999Y-99348003D02*
X118365001Y-87883001D01*
X109000000Y-109500000D02*
X106899999Y-107399999D01*
X106899999Y-107399999D02*
X106899999Y-99348003D01*
D17*
X104825001Y-88116001D02*
X104825001Y-79825001D01*
X101524999Y-91416003D02*
X104825001Y-88116001D01*
X105472347Y-101972347D02*
X101524999Y-98024999D01*
X101524999Y-98024999D02*
X101524999Y-91416003D01*
X104825001Y-79825001D02*
X103000000Y-78000000D01*
X106350001Y-67600001D02*
X107250000Y-68500000D01*
X106024999Y-67274999D02*
X106350001Y-67600001D01*
X104161999Y-67274999D02*
X106024999Y-67274999D01*
X103000000Y-68436998D02*
X104161999Y-67274999D01*
X103000000Y-78000000D02*
X103000000Y-68436998D01*
X106000000Y-140250000D02*
X106000000Y-111250000D01*
D20*
G36*
X129340001Y-53079743D02*
G01*
X129173188Y-52942843D01*
X128932581Y-52814236D01*
X128671507Y-52735040D01*
X128400000Y-52708299D01*
X128128494Y-52735040D01*
X127867420Y-52814236D01*
X127626813Y-52942843D01*
X127415920Y-53115919D01*
X127242844Y-53326812D01*
X127114237Y-53567419D01*
X127035041Y-53828493D01*
X127015000Y-54031963D01*
X127015000Y-55968036D01*
X127035040Y-56171506D01*
X127114236Y-56432580D01*
X127242843Y-56673187D01*
X127415919Y-56884080D01*
X127626812Y-57057157D01*
X127867419Y-57185764D01*
X128128493Y-57264960D01*
X128400000Y-57291701D01*
X128671506Y-57264960D01*
X128932580Y-57185764D01*
X129173187Y-57057157D01*
X129340001Y-56920256D01*
X129340001Y-65079743D01*
X129173188Y-64942843D01*
X128932581Y-64814236D01*
X128671507Y-64735040D01*
X128400000Y-64708299D01*
X128128494Y-64735040D01*
X127867420Y-64814236D01*
X127626813Y-64942843D01*
X127415920Y-65115919D01*
X127242844Y-65326812D01*
X127114237Y-65567419D01*
X127035041Y-65828493D01*
X127015000Y-66031963D01*
X127015000Y-67968036D01*
X127035040Y-68171506D01*
X127114236Y-68432580D01*
X127242843Y-68673187D01*
X127415919Y-68884080D01*
X127626812Y-69057157D01*
X127867419Y-69185764D01*
X128128493Y-69264960D01*
X128400000Y-69291701D01*
X128671506Y-69264960D01*
X128932580Y-69185764D01*
X129173187Y-69057157D01*
X129340001Y-68920256D01*
X129340001Y-79079743D01*
X129173188Y-78942843D01*
X128932581Y-78814236D01*
X128671507Y-78735040D01*
X128400000Y-78708299D01*
X128128494Y-78735040D01*
X127867420Y-78814236D01*
X127626813Y-78942843D01*
X127415920Y-79115919D01*
X127242844Y-79326812D01*
X127114237Y-79567419D01*
X127035041Y-79828493D01*
X127015000Y-80031963D01*
X127015000Y-81968036D01*
X127035040Y-82171506D01*
X127114236Y-82432580D01*
X127242843Y-82673187D01*
X127415919Y-82884080D01*
X127626812Y-83057157D01*
X127867419Y-83185764D01*
X128128493Y-83264960D01*
X128400000Y-83291701D01*
X128671506Y-83264960D01*
X128932580Y-83185764D01*
X129173187Y-83057157D01*
X129340001Y-82920256D01*
X129340001Y-91079743D01*
X129173188Y-90942843D01*
X128932581Y-90814236D01*
X128671507Y-90735040D01*
X128400000Y-90708299D01*
X128128494Y-90735040D01*
X127867420Y-90814236D01*
X127626813Y-90942843D01*
X127415920Y-91115919D01*
X127242844Y-91326812D01*
X127114237Y-91567419D01*
X127035041Y-91828493D01*
X127015000Y-92031963D01*
X127015000Y-93968036D01*
X127035040Y-94171506D01*
X127114236Y-94432580D01*
X127242843Y-94673187D01*
X127415919Y-94884080D01*
X127626812Y-95057157D01*
X127867419Y-95185764D01*
X128128493Y-95264960D01*
X128400000Y-95291701D01*
X128671506Y-95264960D01*
X128932580Y-95185764D01*
X129173187Y-95057157D01*
X129340001Y-94920256D01*
X129340000Y-105079743D01*
X129173188Y-104942843D01*
X128932581Y-104814236D01*
X128671507Y-104735040D01*
X128400000Y-104708299D01*
X128128494Y-104735040D01*
X127867420Y-104814236D01*
X127626813Y-104942843D01*
X127415920Y-105115919D01*
X127242844Y-105326812D01*
X127114237Y-105567419D01*
X127035041Y-105828493D01*
X127015000Y-106031963D01*
X127015000Y-107968036D01*
X127035040Y-108171506D01*
X127114236Y-108432580D01*
X127242843Y-108673187D01*
X127415919Y-108884080D01*
X127626812Y-109057157D01*
X127867419Y-109185764D01*
X128128493Y-109264960D01*
X128400000Y-109291701D01*
X128671506Y-109264960D01*
X128932580Y-109185764D01*
X129173187Y-109057157D01*
X129340000Y-108920256D01*
X129340000Y-117079743D01*
X129173188Y-116942843D01*
X128932581Y-116814236D01*
X128671507Y-116735040D01*
X128400000Y-116708299D01*
X128128494Y-116735040D01*
X127867420Y-116814236D01*
X127626813Y-116942843D01*
X127415920Y-117115919D01*
X127242844Y-117326812D01*
X127114237Y-117567419D01*
X127035041Y-117828493D01*
X127015000Y-118031963D01*
X127015000Y-119968036D01*
X127035040Y-120171506D01*
X127114236Y-120432580D01*
X127242843Y-120673187D01*
X127415919Y-120884080D01*
X127626812Y-121057157D01*
X127867419Y-121185764D01*
X128128493Y-121264960D01*
X128400000Y-121291701D01*
X128671506Y-121264960D01*
X128932580Y-121185764D01*
X129173187Y-121057157D01*
X129340000Y-120920256D01*
X129340000Y-131079743D01*
X129173188Y-130942843D01*
X128932581Y-130814236D01*
X128671507Y-130735040D01*
X128400000Y-130708299D01*
X128128494Y-130735040D01*
X127867420Y-130814236D01*
X127626813Y-130942843D01*
X127415920Y-131115919D01*
X127242844Y-131326812D01*
X127114237Y-131567419D01*
X127035041Y-131828493D01*
X127015000Y-132031963D01*
X127015000Y-133968036D01*
X127035040Y-134171506D01*
X127114236Y-134432580D01*
X127242843Y-134673187D01*
X127415919Y-134884080D01*
X127626812Y-135057157D01*
X127867419Y-135185764D01*
X128128493Y-135264960D01*
X128400000Y-135291701D01*
X128671506Y-135264960D01*
X128932580Y-135185764D01*
X129173187Y-135057157D01*
X129340000Y-134920257D01*
X129340000Y-143079743D01*
X129173188Y-142942843D01*
X128932581Y-142814236D01*
X128671507Y-142735040D01*
X128400000Y-142708299D01*
X128128494Y-142735040D01*
X127867420Y-142814236D01*
X127626813Y-142942843D01*
X127415920Y-143115919D01*
X127242844Y-143326812D01*
X127114237Y-143567419D01*
X127035041Y-143828493D01*
X127015000Y-144031963D01*
X127015000Y-145968036D01*
X127035040Y-146171506D01*
X127114236Y-146432580D01*
X127242843Y-146673187D01*
X127415919Y-146884080D01*
X127626812Y-147057157D01*
X127867419Y-147185764D01*
X128128493Y-147264960D01*
X128400000Y-147291701D01*
X128671506Y-147264960D01*
X128932580Y-147185764D01*
X129173187Y-147057157D01*
X129340000Y-146920257D01*
X129340000Y-149340000D01*
X100660000Y-149340000D01*
X100660000Y-147564080D01*
X103865525Y-147564080D01*
X103949208Y-147818261D01*
X104221775Y-147949158D01*
X104514642Y-148024365D01*
X104816553Y-148040991D01*
X105115907Y-147998397D01*
X105401199Y-147898222D01*
X105550792Y-147818261D01*
X105634475Y-147564080D01*
X104750000Y-146679605D01*
X103865525Y-147564080D01*
X100660000Y-147564080D01*
X100660000Y-146566553D01*
X103209009Y-146566553D01*
X103251603Y-146865907D01*
X103351778Y-147151199D01*
X103431739Y-147300792D01*
X103685920Y-147384475D01*
X104570395Y-146500000D01*
X104929605Y-146500000D01*
X105814080Y-147384475D01*
X105962262Y-147335690D01*
X106057688Y-147478505D01*
X106271495Y-147692312D01*
X106522905Y-147860299D01*
X106802257Y-147976011D01*
X107098816Y-148035000D01*
X107401184Y-148035000D01*
X107697743Y-147976011D01*
X107977095Y-147860299D01*
X108228505Y-147692312D01*
X108442312Y-147478505D01*
X108500000Y-147392169D01*
X108557688Y-147478505D01*
X108771495Y-147692312D01*
X109022905Y-147860299D01*
X109302257Y-147976011D01*
X109598816Y-148035000D01*
X109901184Y-148035000D01*
X110197743Y-147976011D01*
X110477095Y-147860299D01*
X110728505Y-147692312D01*
X110942312Y-147478505D01*
X111110299Y-147227095D01*
X111226011Y-146947743D01*
X111285000Y-146651184D01*
X111285000Y-146348816D01*
X111226011Y-146052257D01*
X111189868Y-145965000D01*
X115446928Y-145965000D01*
X115459188Y-146089482D01*
X115495498Y-146209180D01*
X115554463Y-146319494D01*
X115633815Y-146416185D01*
X115730506Y-146495537D01*
X115840820Y-146554502D01*
X115960518Y-146590812D01*
X116085000Y-146603072D01*
X116714250Y-146600000D01*
X116873000Y-146441250D01*
X116873000Y-145127000D01*
X117127000Y-145127000D01*
X117127000Y-146441250D01*
X117285750Y-146600000D01*
X117915000Y-146603072D01*
X118039482Y-146590812D01*
X118159180Y-146554502D01*
X118269494Y-146495537D01*
X118366185Y-146416185D01*
X118445537Y-146319494D01*
X118504502Y-146209180D01*
X118540812Y-146089482D01*
X118553072Y-145965000D01*
X118550000Y-145285750D01*
X118391250Y-145127000D01*
X117127000Y-145127000D01*
X116873000Y-145127000D01*
X115608750Y-145127000D01*
X115450000Y-145285750D01*
X115446928Y-145965000D01*
X111189868Y-145965000D01*
X111110299Y-145772905D01*
X110942312Y-145521495D01*
X110728505Y-145307688D01*
X110477095Y-145139701D01*
X110197743Y-145023989D01*
X109901184Y-144965000D01*
X109598816Y-144965000D01*
X109302257Y-145023989D01*
X109022905Y-145139701D01*
X108771495Y-145307688D01*
X108557688Y-145521495D01*
X108500000Y-145607831D01*
X108442312Y-145521495D01*
X108228505Y-145307688D01*
X107977095Y-145139701D01*
X107697743Y-145023989D01*
X107401184Y-144965000D01*
X107098816Y-144965000D01*
X106802257Y-145023989D01*
X106522905Y-145139701D01*
X106271495Y-145307688D01*
X106057688Y-145521495D01*
X105962262Y-145664310D01*
X105814080Y-145615525D01*
X104929605Y-146500000D01*
X104570395Y-146500000D01*
X103685920Y-145615525D01*
X103431739Y-145699208D01*
X103300842Y-145971775D01*
X103225635Y-146264642D01*
X103209009Y-146566553D01*
X100660000Y-146566553D01*
X100660000Y-145435920D01*
X103865525Y-145435920D01*
X104750000Y-146320395D01*
X105634475Y-145435920D01*
X105550792Y-145181739D01*
X105278225Y-145050842D01*
X104985358Y-144975635D01*
X104683447Y-144959009D01*
X104384093Y-145001603D01*
X104098801Y-145101778D01*
X103949208Y-145181739D01*
X103865525Y-145435920D01*
X100660000Y-145435920D01*
X100660000Y-144035000D01*
X115446928Y-144035000D01*
X115450000Y-144714250D01*
X115608750Y-144873000D01*
X116873000Y-144873000D01*
X116873000Y-143558750D01*
X117127000Y-143558750D01*
X117127000Y-144873000D01*
X118391250Y-144873000D01*
X118550000Y-144714250D01*
X118553072Y-144035000D01*
X118552773Y-144031963D01*
X118715000Y-144031963D01*
X118715000Y-145968036D01*
X118735040Y-146171506D01*
X118814236Y-146432580D01*
X118942843Y-146673187D01*
X119115919Y-146884080D01*
X119326812Y-147057157D01*
X119567419Y-147185764D01*
X119828493Y-147264960D01*
X120100000Y-147291701D01*
X120371506Y-147264960D01*
X120632580Y-147185764D01*
X120873187Y-147057157D01*
X121084080Y-146884081D01*
X121257157Y-146673188D01*
X121385764Y-146432581D01*
X121464960Y-146171507D01*
X121485000Y-145968037D01*
X121485000Y-145769910D01*
X121584988Y-146011302D01*
X121818637Y-146360983D01*
X122116017Y-146658363D01*
X122465698Y-146892012D01*
X122854244Y-147052953D01*
X123266721Y-147135000D01*
X123687279Y-147135000D01*
X124099756Y-147052953D01*
X124488302Y-146892012D01*
X124837983Y-146658363D01*
X125135363Y-146360983D01*
X125369012Y-146011302D01*
X125529953Y-145622756D01*
X125612000Y-145210279D01*
X125612000Y-144789721D01*
X125529953Y-144377244D01*
X125369012Y-143988698D01*
X125135363Y-143639017D01*
X124837983Y-143341637D01*
X124488302Y-143107988D01*
X124099756Y-142947047D01*
X123687279Y-142865000D01*
X123266721Y-142865000D01*
X122854244Y-142947047D01*
X122465698Y-143107988D01*
X122116017Y-143341637D01*
X121818637Y-143639017D01*
X121584988Y-143988698D01*
X121485000Y-144230090D01*
X121485000Y-144031963D01*
X121464960Y-143828493D01*
X121385764Y-143567419D01*
X121257157Y-143326812D01*
X121084081Y-143115919D01*
X120873188Y-142942843D01*
X120632581Y-142814236D01*
X120371507Y-142735040D01*
X120100000Y-142708299D01*
X119828494Y-142735040D01*
X119567420Y-142814236D01*
X119326813Y-142942843D01*
X119115920Y-143115919D01*
X118942844Y-143326812D01*
X118814237Y-143567419D01*
X118735041Y-143828493D01*
X118715000Y-144031963D01*
X118552773Y-144031963D01*
X118540812Y-143910518D01*
X118504502Y-143790820D01*
X118445537Y-143680506D01*
X118366185Y-143583815D01*
X118269494Y-143504463D01*
X118159180Y-143445498D01*
X118039482Y-143409188D01*
X117915000Y-143396928D01*
X117285750Y-143400000D01*
X117127000Y-143558750D01*
X116873000Y-143558750D01*
X116714250Y-143400000D01*
X116085000Y-143396928D01*
X115960518Y-143409188D01*
X115840820Y-143445498D01*
X115730506Y-143504463D01*
X115633815Y-143583815D01*
X115554463Y-143680506D01*
X115495498Y-143790820D01*
X115459188Y-143910518D01*
X115446928Y-144035000D01*
X100660000Y-144035000D01*
X100660000Y-140903614D01*
X100717997Y-140961611D01*
X100832107Y-140847501D01*
X101048228Y-141214258D01*
X101508105Y-141454938D01*
X102006098Y-141601275D01*
X102523071Y-141647648D01*
X103039159Y-141592273D01*
X103534526Y-141437279D01*
X103951772Y-141214258D01*
X104167894Y-140847499D01*
X102500000Y-139179605D01*
X102485858Y-139193748D01*
X102306253Y-139014143D01*
X102320395Y-139000000D01*
X102679605Y-139000000D01*
X104347499Y-140667894D01*
X104714258Y-140451772D01*
X104954938Y-139991895D01*
X105101275Y-139493902D01*
X105147648Y-138976929D01*
X105092273Y-138460841D01*
X104937279Y-137965474D01*
X104714258Y-137548228D01*
X104347499Y-137332106D01*
X102679605Y-139000000D01*
X102320395Y-139000000D01*
X102306253Y-138985858D01*
X102485858Y-138806253D01*
X102500000Y-138820395D01*
X104167894Y-137152501D01*
X103951772Y-136785742D01*
X103491895Y-136545062D01*
X102993902Y-136398725D01*
X102476929Y-136352352D01*
X101960841Y-136407727D01*
X101465474Y-136562721D01*
X101048228Y-136785742D01*
X100832107Y-137152499D01*
X100717997Y-137038389D01*
X100660000Y-137096386D01*
X100660000Y-120566553D01*
X103209009Y-120566553D01*
X103251603Y-120865907D01*
X103351778Y-121151199D01*
X103431739Y-121300792D01*
X103685920Y-121384475D01*
X104570395Y-120500000D01*
X103685920Y-119615525D01*
X103431739Y-119699208D01*
X103300842Y-119971775D01*
X103225635Y-120264642D01*
X103209009Y-120566553D01*
X100660000Y-120566553D01*
X100660000Y-114903614D01*
X100717997Y-114961611D01*
X100832107Y-114847501D01*
X101048228Y-115214258D01*
X101508105Y-115454938D01*
X102006098Y-115601275D01*
X102523071Y-115647648D01*
X103039159Y-115592273D01*
X103534526Y-115437279D01*
X103951772Y-115214258D01*
X104167894Y-114847499D01*
X102500000Y-113179605D01*
X102485858Y-113193748D01*
X102306253Y-113014143D01*
X102320395Y-113000000D01*
X102679605Y-113000000D01*
X104347499Y-114667894D01*
X104714258Y-114451772D01*
X104954938Y-113991895D01*
X105101275Y-113493902D01*
X105147648Y-112976929D01*
X105092273Y-112460841D01*
X104937279Y-111965474D01*
X104714258Y-111548228D01*
X104347499Y-111332106D01*
X102679605Y-113000000D01*
X102320395Y-113000000D01*
X102306253Y-112985858D01*
X102485858Y-112806253D01*
X102500000Y-112820395D01*
X104167894Y-111152501D01*
X103951772Y-110785742D01*
X103491895Y-110545062D01*
X102993902Y-110398725D01*
X102476929Y-110352352D01*
X101960841Y-110407727D01*
X101465474Y-110562721D01*
X101048228Y-110785742D01*
X100832107Y-111152499D01*
X100717997Y-111038389D01*
X100660000Y-111096386D01*
X100660000Y-88903614D01*
X100717997Y-88961611D01*
X100832107Y-88847501D01*
X101048228Y-89214258D01*
X101508105Y-89454938D01*
X102006098Y-89601275D01*
X102243620Y-89622581D01*
X101013997Y-90852204D01*
X100984999Y-90876002D01*
X100961201Y-90905000D01*
X100961200Y-90905001D01*
X100890025Y-90991727D01*
X100819453Y-91123757D01*
X100789179Y-91223561D01*
X100775997Y-91267017D01*
X100765000Y-91378670D01*
X100761323Y-91416003D01*
X100765000Y-91453335D01*
X100764999Y-97987676D01*
X100761323Y-98024999D01*
X100764999Y-98062321D01*
X100764999Y-98062331D01*
X100775996Y-98173984D01*
X100819453Y-98317245D01*
X100890025Y-98449275D01*
X100929870Y-98497825D01*
X100984998Y-98565000D01*
X101014002Y-98588803D01*
X104437347Y-102012149D01*
X104437347Y-102074286D01*
X104477121Y-102274245D01*
X104555142Y-102462603D01*
X104668410Y-102632121D01*
X104812573Y-102776284D01*
X104982091Y-102889552D01*
X105170449Y-102967573D01*
X105370408Y-103007347D01*
X105574286Y-103007347D01*
X105774245Y-102967573D01*
X105962603Y-102889552D01*
X106015000Y-102854542D01*
X106014999Y-107356530D01*
X106010718Y-107399999D01*
X106014999Y-107443468D01*
X106014999Y-107443475D01*
X106027804Y-107573488D01*
X106078410Y-107740311D01*
X106160588Y-107894057D01*
X106271182Y-108028816D01*
X106304955Y-108056533D01*
X107993465Y-109745044D01*
X108004774Y-109801898D01*
X108082795Y-109990256D01*
X108196063Y-110159774D01*
X108340226Y-110303937D01*
X108509744Y-110417205D01*
X108698102Y-110495226D01*
X108898061Y-110535000D01*
X109101939Y-110535000D01*
X109301898Y-110495226D01*
X109490256Y-110417205D01*
X109659774Y-110303937D01*
X109803937Y-110159774D01*
X109917205Y-109990256D01*
X109995226Y-109801898D01*
X110035000Y-109601939D01*
X110035000Y-109398061D01*
X109995226Y-109198102D01*
X109917205Y-109009744D01*
X109803937Y-108840226D01*
X109659774Y-108696063D01*
X109490256Y-108582795D01*
X109301898Y-108504774D01*
X109245044Y-108493465D01*
X107784999Y-107033421D01*
X107784999Y-104285000D01*
X107851939Y-104285000D01*
X108051898Y-104245226D01*
X108240256Y-104167205D01*
X108409774Y-104053937D01*
X108553937Y-103909774D01*
X108667205Y-103740256D01*
X108710965Y-103634612D01*
X108759744Y-103667205D01*
X108948102Y-103745226D01*
X109148061Y-103785000D01*
X109210199Y-103785000D01*
X114240000Y-108814802D01*
X114240000Y-111596389D01*
X114214258Y-111548228D01*
X113847499Y-111332106D01*
X112179605Y-113000000D01*
X113847499Y-114667894D01*
X114214258Y-114451772D01*
X114240001Y-114402585D01*
X114240001Y-118296288D01*
X114196063Y-118340226D01*
X114183632Y-118358830D01*
X111392776Y-115567975D01*
X111506098Y-115601275D01*
X112023071Y-115647648D01*
X112539159Y-115592273D01*
X113034526Y-115437279D01*
X113451772Y-115214258D01*
X113667894Y-114847499D01*
X112000000Y-113179605D01*
X111985858Y-113193748D01*
X111806253Y-113014143D01*
X111820395Y-113000000D01*
X110152501Y-111332106D01*
X109785742Y-111548228D01*
X109545062Y-112008105D01*
X109398725Y-112506098D01*
X109352352Y-113023071D01*
X109407727Y-113539159D01*
X109427657Y-113602856D01*
X108285000Y-112460199D01*
X108285000Y-112398061D01*
X108245226Y-112198102D01*
X108167205Y-112009744D01*
X108053937Y-111840226D01*
X107909774Y-111696063D01*
X107740256Y-111582795D01*
X107551898Y-111504774D01*
X107351939Y-111465000D01*
X107148061Y-111465000D01*
X107006927Y-111493073D01*
X107035000Y-111351939D01*
X107035000Y-111152501D01*
X110332106Y-111152501D01*
X112000000Y-112820395D01*
X113667894Y-111152501D01*
X113451772Y-110785742D01*
X112991895Y-110545062D01*
X112493902Y-110398725D01*
X111976929Y-110352352D01*
X111460841Y-110407727D01*
X110965474Y-110562721D01*
X110548228Y-110785742D01*
X110332106Y-111152501D01*
X107035000Y-111152501D01*
X107035000Y-111148061D01*
X106995226Y-110948102D01*
X106917205Y-110759744D01*
X106803937Y-110590226D01*
X106659774Y-110446063D01*
X106490256Y-110332795D01*
X106301898Y-110254774D01*
X106101939Y-110215000D01*
X105898061Y-110215000D01*
X105698102Y-110254774D01*
X105509744Y-110332795D01*
X105340226Y-110446063D01*
X105196063Y-110590226D01*
X105082795Y-110759744D01*
X105004774Y-110948102D01*
X104965000Y-111148061D01*
X104965000Y-111351939D01*
X105004774Y-111551898D01*
X105082795Y-111740256D01*
X105196063Y-111909774D01*
X105240001Y-111953712D01*
X105240001Y-119041026D01*
X104985358Y-118975635D01*
X104683447Y-118959009D01*
X104384093Y-119001603D01*
X104098801Y-119101778D01*
X103949208Y-119181739D01*
X103865525Y-119435920D01*
X104750000Y-120320395D01*
X104764143Y-120306253D01*
X104943748Y-120485858D01*
X104929605Y-120500000D01*
X104943748Y-120514143D01*
X104764143Y-120693748D01*
X104750000Y-120679605D01*
X103865525Y-121564080D01*
X103949208Y-121818261D01*
X104221775Y-121949158D01*
X104514642Y-122024365D01*
X104816553Y-122040991D01*
X105115907Y-121998397D01*
X105240001Y-121954824D01*
X105240000Y-139546289D01*
X105196063Y-139590226D01*
X105082795Y-139759744D01*
X105004774Y-139948102D01*
X104965000Y-140148061D01*
X104965000Y-140351939D01*
X105004774Y-140551898D01*
X105082795Y-140740256D01*
X105196063Y-140909774D01*
X105340226Y-141053937D01*
X105509744Y-141167205D01*
X105698102Y-141245226D01*
X105898061Y-141285000D01*
X106101939Y-141285000D01*
X106301898Y-141245226D01*
X106490256Y-141167205D01*
X106659774Y-141053937D01*
X106803937Y-140909774D01*
X106845547Y-140847499D01*
X110332106Y-140847499D01*
X110548228Y-141214258D01*
X111008105Y-141454938D01*
X111506098Y-141601275D01*
X112023071Y-141647648D01*
X112539159Y-141592273D01*
X113034526Y-141437279D01*
X113451772Y-141214258D01*
X113667894Y-140847499D01*
X112000000Y-139179605D01*
X110332106Y-140847499D01*
X106845547Y-140847499D01*
X106917205Y-140740256D01*
X106995226Y-140551898D01*
X107035000Y-140351939D01*
X107035000Y-140148061D01*
X106995226Y-139948102D01*
X106917205Y-139759744D01*
X106803937Y-139590226D01*
X106760000Y-139546289D01*
X106760000Y-139023071D01*
X109352352Y-139023071D01*
X109407727Y-139539159D01*
X109562721Y-140034526D01*
X109785742Y-140451772D01*
X110152501Y-140667894D01*
X111820395Y-139000000D01*
X112179605Y-139000000D01*
X113847499Y-140667894D01*
X114214258Y-140451772D01*
X114454938Y-139991895D01*
X114601275Y-139493902D01*
X114647648Y-138976929D01*
X114592273Y-138460841D01*
X114437279Y-137965474D01*
X114214258Y-137548228D01*
X113847499Y-137332106D01*
X112179605Y-139000000D01*
X111820395Y-139000000D01*
X110152501Y-137332106D01*
X109785742Y-137548228D01*
X109545062Y-138008105D01*
X109398725Y-138506098D01*
X109352352Y-139023071D01*
X106760000Y-139023071D01*
X106760000Y-137152501D01*
X110332106Y-137152501D01*
X112000000Y-138820395D01*
X113667894Y-137152501D01*
X113451772Y-136785742D01*
X112991895Y-136545062D01*
X112493902Y-136398725D01*
X111976929Y-136352352D01*
X111460841Y-136407727D01*
X110965474Y-136562721D01*
X110548228Y-136785742D01*
X110332106Y-137152501D01*
X106760000Y-137152501D01*
X106760000Y-133965000D01*
X115446928Y-133965000D01*
X115459188Y-134089482D01*
X115495498Y-134209180D01*
X115554463Y-134319494D01*
X115633815Y-134416185D01*
X115730506Y-134495537D01*
X115840820Y-134554502D01*
X115960518Y-134590812D01*
X116085000Y-134603072D01*
X116714250Y-134600000D01*
X116873000Y-134441250D01*
X116873000Y-133127000D01*
X117127000Y-133127000D01*
X117127000Y-134441250D01*
X117285750Y-134600000D01*
X117915000Y-134603072D01*
X118039482Y-134590812D01*
X118159180Y-134554502D01*
X118269494Y-134495537D01*
X118366185Y-134416185D01*
X118445537Y-134319494D01*
X118504502Y-134209180D01*
X118540812Y-134089482D01*
X118553072Y-133965000D01*
X118550000Y-133285750D01*
X118391250Y-133127000D01*
X117127000Y-133127000D01*
X116873000Y-133127000D01*
X115608750Y-133127000D01*
X115450000Y-133285750D01*
X115446928Y-133965000D01*
X106760000Y-133965000D01*
X106760000Y-132035000D01*
X115446928Y-132035000D01*
X115450000Y-132714250D01*
X115608750Y-132873000D01*
X116873000Y-132873000D01*
X116873000Y-131558750D01*
X117127000Y-131558750D01*
X117127000Y-132873000D01*
X118391250Y-132873000D01*
X118550000Y-132714250D01*
X118553072Y-132035000D01*
X118540812Y-131910518D01*
X118504502Y-131790820D01*
X118445537Y-131680506D01*
X118366185Y-131583815D01*
X118269494Y-131504463D01*
X118159180Y-131445498D01*
X118039482Y-131409188D01*
X117915000Y-131396928D01*
X117285750Y-131400000D01*
X117127000Y-131558750D01*
X116873000Y-131558750D01*
X116714250Y-131400000D01*
X116085000Y-131396928D01*
X115960518Y-131409188D01*
X115840820Y-131445498D01*
X115730506Y-131504463D01*
X115633815Y-131583815D01*
X115554463Y-131680506D01*
X115495498Y-131790820D01*
X115459188Y-131910518D01*
X115446928Y-132035000D01*
X106760000Y-132035000D01*
X106760000Y-121958507D01*
X106802257Y-121976011D01*
X107098816Y-122035000D01*
X107401184Y-122035000D01*
X107697743Y-121976011D01*
X107977095Y-121860299D01*
X108228505Y-121692312D01*
X108442312Y-121478505D01*
X108500000Y-121392169D01*
X108557688Y-121478505D01*
X108771495Y-121692312D01*
X109022905Y-121860299D01*
X109302257Y-121976011D01*
X109598816Y-122035000D01*
X109901184Y-122035000D01*
X110197743Y-121976011D01*
X110477095Y-121860299D01*
X110728505Y-121692312D01*
X110942312Y-121478505D01*
X111110299Y-121227095D01*
X111226011Y-120947743D01*
X111285000Y-120651184D01*
X111285000Y-120348816D01*
X111226011Y-120052257D01*
X111110299Y-119772905D01*
X110942312Y-119521495D01*
X110728505Y-119307688D01*
X110477095Y-119139701D01*
X110197743Y-119023989D01*
X109901184Y-118965000D01*
X109598816Y-118965000D01*
X109302257Y-119023989D01*
X109022905Y-119139701D01*
X108771495Y-119307688D01*
X108557688Y-119521495D01*
X108500000Y-119607831D01*
X108442312Y-119521495D01*
X108228505Y-119307688D01*
X107977095Y-119139701D01*
X107697743Y-119023989D01*
X107401184Y-118965000D01*
X107098816Y-118965000D01*
X106802257Y-119023989D01*
X106760000Y-119041493D01*
X106760000Y-113417311D01*
X106948102Y-113495226D01*
X107148061Y-113535000D01*
X107210199Y-113535000D01*
X120891999Y-127216801D01*
X120891999Y-130958281D01*
X120873188Y-130942843D01*
X120632581Y-130814236D01*
X120371507Y-130735040D01*
X120100000Y-130708299D01*
X119828494Y-130735040D01*
X119567420Y-130814236D01*
X119326813Y-130942843D01*
X119115920Y-131115919D01*
X118942844Y-131326812D01*
X118814237Y-131567419D01*
X118735041Y-131828493D01*
X118715000Y-132031963D01*
X118715000Y-133968036D01*
X118735040Y-134171506D01*
X118814236Y-134432580D01*
X118942843Y-134673187D01*
X119115919Y-134884080D01*
X119326812Y-135057157D01*
X119567419Y-135185764D01*
X119828493Y-135264960D01*
X120100000Y-135291701D01*
X120371506Y-135264960D01*
X120632580Y-135185764D01*
X120873187Y-135057157D01*
X120892000Y-135041718D01*
X120892000Y-136171137D01*
X120832795Y-136259744D01*
X120754774Y-136448102D01*
X120715000Y-136648061D01*
X120715000Y-136851939D01*
X120754774Y-137051898D01*
X120832795Y-137240256D01*
X120946063Y-137409774D01*
X121090226Y-137553937D01*
X121259744Y-137667205D01*
X121448102Y-137745226D01*
X121648061Y-137785000D01*
X121851939Y-137785000D01*
X122051898Y-137745226D01*
X122240256Y-137667205D01*
X122409774Y-137553937D01*
X122553937Y-137409774D01*
X122667205Y-137240256D01*
X122745226Y-137051898D01*
X122785000Y-136851939D01*
X122785000Y-136648061D01*
X122745226Y-136448102D01*
X122667205Y-136259744D01*
X122553937Y-136090226D01*
X122411999Y-135948288D01*
X122411999Y-134856132D01*
X122465698Y-134892012D01*
X122854244Y-135052953D01*
X123266721Y-135135000D01*
X123687279Y-135135000D01*
X124099756Y-135052953D01*
X124488302Y-134892012D01*
X124837983Y-134658363D01*
X125135363Y-134360983D01*
X125369012Y-134011302D01*
X125529953Y-133622756D01*
X125612000Y-133210279D01*
X125612000Y-132789721D01*
X125529953Y-132377244D01*
X125369012Y-131988698D01*
X125135363Y-131639017D01*
X124837983Y-131341637D01*
X124488302Y-131107988D01*
X124099756Y-130947047D01*
X123687279Y-130865000D01*
X123266721Y-130865000D01*
X122854244Y-130947047D01*
X122465698Y-131107988D01*
X122411999Y-131143868D01*
X122411999Y-126939321D01*
X122415675Y-126901998D01*
X122411999Y-126864675D01*
X122411999Y-126864666D01*
X122401002Y-126753013D01*
X122357545Y-126609752D01*
X122286973Y-126477723D01*
X122192000Y-126361998D01*
X122163003Y-126338201D01*
X116426208Y-120601406D01*
X116714250Y-120600000D01*
X116873000Y-120441250D01*
X116873000Y-119127000D01*
X116853000Y-119127000D01*
X116853000Y-118873000D01*
X116873000Y-118873000D01*
X116873000Y-117558750D01*
X116714250Y-117400000D01*
X116085000Y-117396928D01*
X115960518Y-117409188D01*
X115840820Y-117445498D01*
X115760000Y-117488698D01*
X115760000Y-108537322D01*
X115762435Y-108512603D01*
X115840820Y-108554502D01*
X115960518Y-108590812D01*
X116085000Y-108603072D01*
X116714250Y-108600000D01*
X116873000Y-108441250D01*
X116873000Y-107127000D01*
X115608750Y-107127000D01*
X115450000Y-107285750D01*
X115447346Y-107872544D01*
X113609802Y-106035000D01*
X115446928Y-106035000D01*
X115450000Y-106714250D01*
X115608750Y-106873000D01*
X116873000Y-106873000D01*
X116873000Y-105558750D01*
X116714250Y-105400000D01*
X116085000Y-105396928D01*
X115960518Y-105409188D01*
X115840820Y-105445498D01*
X115730506Y-105504463D01*
X115633815Y-105583815D01*
X115554463Y-105680506D01*
X115495498Y-105790820D01*
X115459188Y-105910518D01*
X115446928Y-106035000D01*
X113609802Y-106035000D01*
X110285000Y-102710199D01*
X110285000Y-102648061D01*
X110245226Y-102448102D01*
X110167205Y-102259744D01*
X110053937Y-102090226D01*
X109909774Y-101946063D01*
X109740256Y-101832795D01*
X109551898Y-101754774D01*
X109351939Y-101715000D01*
X109148061Y-101715000D01*
X108948102Y-101754774D01*
X108759744Y-101832795D01*
X108590226Y-101946063D01*
X108510000Y-102026289D01*
X108510000Y-99742803D01*
X114287803Y-93965000D01*
X115446928Y-93965000D01*
X115459188Y-94089482D01*
X115495498Y-94209180D01*
X115554463Y-94319494D01*
X115633815Y-94416185D01*
X115730506Y-94495537D01*
X115840820Y-94554502D01*
X115960518Y-94590812D01*
X116085000Y-94603072D01*
X116714250Y-94600000D01*
X116873000Y-94441250D01*
X116873000Y-93127000D01*
X117127000Y-93127000D01*
X117127000Y-94441250D01*
X117285750Y-94600000D01*
X117915000Y-94603072D01*
X118039482Y-94590812D01*
X118159180Y-94554502D01*
X118269494Y-94495537D01*
X118366185Y-94416185D01*
X118445537Y-94319494D01*
X118504502Y-94209180D01*
X118540812Y-94089482D01*
X118553072Y-93965000D01*
X118550000Y-93285750D01*
X118391250Y-93127000D01*
X117127000Y-93127000D01*
X116873000Y-93127000D01*
X115608750Y-93127000D01*
X115450000Y-93285750D01*
X115446928Y-93965000D01*
X114287803Y-93965000D01*
X115494277Y-92758527D01*
X115608750Y-92873000D01*
X116873000Y-92873000D01*
X116873000Y-91558750D01*
X117127000Y-91558750D01*
X117127000Y-92873000D01*
X118391250Y-92873000D01*
X118550000Y-92714250D01*
X118553072Y-92035000D01*
X118540812Y-91910518D01*
X118504502Y-91790820D01*
X118445537Y-91680506D01*
X118366185Y-91583815D01*
X118269494Y-91504463D01*
X118159180Y-91445498D01*
X118039482Y-91409188D01*
X117915000Y-91396928D01*
X117285750Y-91400000D01*
X117127000Y-91558750D01*
X116873000Y-91558750D01*
X116783527Y-91469277D01*
X120740001Y-87512803D01*
X120740001Y-90871653D01*
X120632581Y-90814236D01*
X120371507Y-90735040D01*
X120100000Y-90708299D01*
X119828494Y-90735040D01*
X119567420Y-90814236D01*
X119326813Y-90942843D01*
X119115920Y-91115919D01*
X118942844Y-91326812D01*
X118814237Y-91567419D01*
X118735041Y-91828493D01*
X118715000Y-92031963D01*
X118715000Y-93968036D01*
X118735040Y-94171506D01*
X118814236Y-94432580D01*
X118942843Y-94673187D01*
X119115919Y-94884080D01*
X119326812Y-95057157D01*
X119567419Y-95185764D01*
X119828493Y-95264960D01*
X120100000Y-95291701D01*
X120371506Y-95264960D01*
X120632580Y-95185764D01*
X120740001Y-95128347D01*
X120740000Y-103385198D01*
X119588998Y-104536201D01*
X119560000Y-104559999D01*
X119536202Y-104588997D01*
X119536201Y-104588998D01*
X119465026Y-104675724D01*
X119394454Y-104807754D01*
X119364180Y-104907558D01*
X119358636Y-104925833D01*
X119326813Y-104942843D01*
X119115920Y-105115919D01*
X118942844Y-105326812D01*
X118814237Y-105567419D01*
X118735041Y-105828493D01*
X118715000Y-106031963D01*
X118715000Y-106344032D01*
X118675724Y-106365026D01*
X118559999Y-106459999D01*
X118551101Y-106470841D01*
X118553072Y-106035000D01*
X118540812Y-105910518D01*
X118504502Y-105790820D01*
X118445537Y-105680506D01*
X118366185Y-105583815D01*
X118269494Y-105504463D01*
X118159180Y-105445498D01*
X118039482Y-105409188D01*
X117915000Y-105396928D01*
X117285750Y-105400000D01*
X117127000Y-105558750D01*
X117127000Y-106873000D01*
X117147000Y-106873000D01*
X117147000Y-107127000D01*
X117127000Y-107127000D01*
X117127000Y-108441250D01*
X117285750Y-108600000D01*
X117915000Y-108603072D01*
X117990001Y-108595685D01*
X117990000Y-117404315D01*
X117915000Y-117396928D01*
X117285750Y-117400000D01*
X117127000Y-117558750D01*
X117127000Y-118873000D01*
X117147000Y-118873000D01*
X117147000Y-119127000D01*
X117127000Y-119127000D01*
X117127000Y-120441250D01*
X117285750Y-120600000D01*
X117915000Y-120603072D01*
X118039482Y-120590812D01*
X118159180Y-120554502D01*
X118269494Y-120495537D01*
X118366185Y-120416185D01*
X118445537Y-120319494D01*
X118481666Y-120251902D01*
X118648061Y-120285000D01*
X118769468Y-120285000D01*
X118814236Y-120432580D01*
X118942843Y-120673187D01*
X119115919Y-120884080D01*
X119326812Y-121057157D01*
X119567419Y-121185764D01*
X119828493Y-121264960D01*
X120100000Y-121291701D01*
X120371506Y-121264960D01*
X120632580Y-121185764D01*
X120873187Y-121057157D01*
X121084080Y-120884081D01*
X121257157Y-120673188D01*
X121385764Y-120432581D01*
X121464960Y-120171507D01*
X121485000Y-119968037D01*
X121485000Y-119769910D01*
X121584988Y-120011302D01*
X121818637Y-120360983D01*
X122116017Y-120658363D01*
X122465698Y-120892012D01*
X122854244Y-121052953D01*
X123266721Y-121135000D01*
X123687279Y-121135000D01*
X124099756Y-121052953D01*
X124488302Y-120892012D01*
X124837983Y-120658363D01*
X125135363Y-120360983D01*
X125369012Y-120011302D01*
X125529953Y-119622756D01*
X125612000Y-119210279D01*
X125612000Y-118789721D01*
X125529953Y-118377244D01*
X125369012Y-117988698D01*
X125135363Y-117639017D01*
X124837983Y-117341637D01*
X124488302Y-117107988D01*
X124099756Y-116947047D01*
X123687279Y-116865000D01*
X123266721Y-116865000D01*
X122854244Y-116947047D01*
X122465698Y-117107988D01*
X122116017Y-117341637D01*
X121818637Y-117639017D01*
X121584988Y-117988698D01*
X121485000Y-118230090D01*
X121485000Y-118031963D01*
X121464960Y-117828493D01*
X121385764Y-117567419D01*
X121257157Y-117326812D01*
X121084081Y-117115919D01*
X120873188Y-116942843D01*
X120632581Y-116814236D01*
X120371507Y-116735040D01*
X120100000Y-116708299D01*
X119828494Y-116735040D01*
X119567420Y-116814236D01*
X119510000Y-116844928D01*
X119510000Y-109155073D01*
X119567419Y-109185764D01*
X119828493Y-109264960D01*
X120100000Y-109291701D01*
X120371506Y-109264960D01*
X120632580Y-109185764D01*
X120873187Y-109057157D01*
X121084080Y-108884081D01*
X121257157Y-108673188D01*
X121385764Y-108432581D01*
X121464960Y-108171507D01*
X121485000Y-107968037D01*
X121485000Y-107769910D01*
X121584988Y-108011302D01*
X121818637Y-108360983D01*
X122116017Y-108658363D01*
X122465698Y-108892012D01*
X122854244Y-109052953D01*
X123266721Y-109135000D01*
X123687279Y-109135000D01*
X124099756Y-109052953D01*
X124488302Y-108892012D01*
X124837983Y-108658363D01*
X125135363Y-108360983D01*
X125369012Y-108011302D01*
X125529953Y-107622756D01*
X125612000Y-107210279D01*
X125612000Y-106789721D01*
X125529953Y-106377244D01*
X125369012Y-105988698D01*
X125135363Y-105639017D01*
X124837983Y-105341637D01*
X124488302Y-105107988D01*
X124099756Y-104947047D01*
X123687279Y-104865000D01*
X123266721Y-104865000D01*
X122854244Y-104947047D01*
X122465698Y-105107988D01*
X122116017Y-105341637D01*
X121818637Y-105639017D01*
X121584988Y-105988698D01*
X121485000Y-106230090D01*
X121485000Y-106031963D01*
X121464960Y-105828493D01*
X121385764Y-105567419D01*
X121257157Y-105326812D01*
X121117798Y-105157003D01*
X122011004Y-104263798D01*
X122040001Y-104240001D01*
X122099743Y-104167205D01*
X122134974Y-104124277D01*
X122205546Y-103992247D01*
X122238086Y-103884974D01*
X122249003Y-103848986D01*
X122260000Y-103737333D01*
X122260000Y-103737323D01*
X122263676Y-103700000D01*
X122260000Y-103662678D01*
X122260000Y-94754569D01*
X122465698Y-94892012D01*
X122854244Y-95052953D01*
X123266721Y-95135000D01*
X123687279Y-95135000D01*
X124099756Y-95052953D01*
X124488302Y-94892012D01*
X124837983Y-94658363D01*
X125135363Y-94360983D01*
X125369012Y-94011302D01*
X125529953Y-93622756D01*
X125612000Y-93210279D01*
X125612000Y-92789721D01*
X125529953Y-92377244D01*
X125369012Y-91988698D01*
X125135363Y-91639017D01*
X124837983Y-91341637D01*
X124488302Y-91107988D01*
X124099756Y-90947047D01*
X123687279Y-90865000D01*
X123266721Y-90865000D01*
X122854244Y-90947047D01*
X122465698Y-91107988D01*
X122260000Y-91245431D01*
X122260000Y-87453711D01*
X122303937Y-87409774D01*
X122417205Y-87240256D01*
X122495226Y-87051898D01*
X122535000Y-86851939D01*
X122535000Y-86648061D01*
X122495226Y-86448102D01*
X122417205Y-86259744D01*
X122303937Y-86090226D01*
X122233257Y-86019546D01*
X125813005Y-82439799D01*
X125842002Y-82416002D01*
X125936975Y-82300277D01*
X126007547Y-82168248D01*
X126051004Y-82024987D01*
X126062001Y-81913334D01*
X126062001Y-81913324D01*
X126065677Y-81876001D01*
X126062001Y-81838678D01*
X126062001Y-74849210D01*
X126263009Y-74648202D01*
X126292012Y-74624400D01*
X126386985Y-74508675D01*
X126457557Y-74376646D01*
X126501014Y-74233385D01*
X126512011Y-74121732D01*
X126512011Y-74121723D01*
X126515687Y-74084400D01*
X126512011Y-74047077D01*
X126512011Y-60789333D01*
X126515687Y-60752010D01*
X126512011Y-60714687D01*
X126512011Y-60714678D01*
X126501014Y-60603025D01*
X126457557Y-60459764D01*
X126386985Y-60327735D01*
X126342874Y-60273985D01*
X126315810Y-60241007D01*
X126315806Y-60241003D01*
X126292012Y-60212010D01*
X126263019Y-60188216D01*
X125688803Y-59614002D01*
X125688799Y-59613997D01*
X124535000Y-58460199D01*
X124535000Y-58398061D01*
X124495226Y-58198102D01*
X124417205Y-58009744D01*
X124303937Y-57840226D01*
X124159774Y-57696063D01*
X123990256Y-57582795D01*
X123801898Y-57504774D01*
X123601939Y-57465000D01*
X123398061Y-57465000D01*
X123198102Y-57504774D01*
X123009744Y-57582795D01*
X122840226Y-57696063D01*
X122696063Y-57840226D01*
X122582795Y-58009744D01*
X122504774Y-58198102D01*
X122499486Y-58224685D01*
X121117798Y-56842996D01*
X121257157Y-56673188D01*
X121385764Y-56432581D01*
X121464960Y-56171507D01*
X121485000Y-55968037D01*
X121485000Y-55769910D01*
X121584988Y-56011302D01*
X121818637Y-56360983D01*
X122116017Y-56658363D01*
X122465698Y-56892012D01*
X122854244Y-57052953D01*
X123266721Y-57135000D01*
X123687279Y-57135000D01*
X124099756Y-57052953D01*
X124488302Y-56892012D01*
X124837983Y-56658363D01*
X125135363Y-56360983D01*
X125369012Y-56011302D01*
X125529953Y-55622756D01*
X125612000Y-55210279D01*
X125612000Y-54789721D01*
X125529953Y-54377244D01*
X125369012Y-53988698D01*
X125135363Y-53639017D01*
X124837983Y-53341637D01*
X124488302Y-53107988D01*
X124099756Y-52947047D01*
X123687279Y-52865000D01*
X123266721Y-52865000D01*
X122854244Y-52947047D01*
X122465698Y-53107988D01*
X122116017Y-53341637D01*
X121818637Y-53639017D01*
X121584988Y-53988698D01*
X121485000Y-54230090D01*
X121485000Y-54031963D01*
X121464960Y-53828493D01*
X121385764Y-53567419D01*
X121257157Y-53326812D01*
X121084081Y-53115919D01*
X120873188Y-52942843D01*
X120632581Y-52814236D01*
X120371507Y-52735040D01*
X120100000Y-52708299D01*
X119828494Y-52735040D01*
X119567420Y-52814236D01*
X119326813Y-52942843D01*
X119115920Y-53115919D01*
X118942844Y-53326812D01*
X118814237Y-53567419D01*
X118735041Y-53828493D01*
X118715000Y-54031963D01*
X118715000Y-55968036D01*
X118735040Y-56171506D01*
X118814236Y-56432580D01*
X118942843Y-56673187D01*
X119115919Y-56884080D01*
X119326812Y-57057157D01*
X119358636Y-57074167D01*
X119377089Y-57135000D01*
X119394454Y-57192246D01*
X119465026Y-57324276D01*
X119504871Y-57372826D01*
X119559999Y-57440001D01*
X119589003Y-57463804D01*
X124542002Y-62416804D01*
X124542002Y-65143869D01*
X124488302Y-65107988D01*
X124099756Y-64947047D01*
X123687279Y-64865000D01*
X123266721Y-64865000D01*
X122854244Y-64947047D01*
X122465698Y-65107988D01*
X122411999Y-65143868D01*
X122411999Y-64662802D01*
X123039802Y-64035000D01*
X123101939Y-64035000D01*
X123301898Y-63995226D01*
X123490256Y-63917205D01*
X123659774Y-63803937D01*
X123803937Y-63659774D01*
X123917205Y-63490256D01*
X123995226Y-63301898D01*
X124035000Y-63101939D01*
X124035000Y-62898061D01*
X123995226Y-62698102D01*
X123917205Y-62509744D01*
X123803937Y-62340226D01*
X123659774Y-62196063D01*
X123490256Y-62082795D01*
X123301898Y-62004774D01*
X123101939Y-61965000D01*
X122898061Y-61965000D01*
X122698102Y-62004774D01*
X122509744Y-62082795D01*
X122340226Y-62196063D01*
X122196063Y-62340226D01*
X122082795Y-62509744D01*
X122004774Y-62698102D01*
X121965000Y-62898061D01*
X121965000Y-62960198D01*
X121141002Y-63784197D01*
X121111998Y-63808000D01*
X121056870Y-63875175D01*
X121017025Y-63923725D01*
X120978807Y-63995226D01*
X120946453Y-64055755D01*
X120902996Y-64199016D01*
X120891999Y-64310669D01*
X120891999Y-64310679D01*
X120888323Y-64348001D01*
X120891999Y-64385323D01*
X120891999Y-64958281D01*
X120873188Y-64942843D01*
X120632581Y-64814236D01*
X120371507Y-64735040D01*
X120100000Y-64708299D01*
X119828494Y-64735040D01*
X119567420Y-64814236D01*
X119326813Y-64942843D01*
X119115920Y-65115919D01*
X118942844Y-65326812D01*
X118814237Y-65567419D01*
X118735041Y-65828493D01*
X118715000Y-66031963D01*
X118715000Y-67968036D01*
X118735040Y-68171506D01*
X118814236Y-68432580D01*
X118942843Y-68673187D01*
X119115919Y-68884080D01*
X119326812Y-69057157D01*
X119567419Y-69185764D01*
X119828493Y-69264960D01*
X120100000Y-69291701D01*
X120371506Y-69264960D01*
X120632580Y-69185764D01*
X120873187Y-69057157D01*
X120891999Y-69041718D01*
X120892000Y-73592196D01*
X102284999Y-92199198D01*
X102284999Y-91730804D01*
X105336005Y-88679799D01*
X105365002Y-88656002D01*
X105459975Y-88540277D01*
X105530547Y-88408248D01*
X105574004Y-88264987D01*
X105585001Y-88153334D01*
X105585001Y-88153333D01*
X105588678Y-88116001D01*
X105585001Y-88078668D01*
X105585001Y-79862323D01*
X105588677Y-79825000D01*
X105585001Y-79787677D01*
X105585001Y-79787668D01*
X105574004Y-79676015D01*
X105530547Y-79532754D01*
X105459975Y-79400725D01*
X105365002Y-79285000D01*
X105336004Y-79261202D01*
X103760000Y-77685199D01*
X103760000Y-72960000D01*
X103847815Y-72960000D01*
X103876487Y-73251111D01*
X103961401Y-73531034D01*
X104099294Y-73789014D01*
X104284866Y-74015134D01*
X104510986Y-74200706D01*
X104565791Y-74230000D01*
X104510986Y-74259294D01*
X104284866Y-74444866D01*
X104099294Y-74670986D01*
X103961401Y-74928966D01*
X103876487Y-75208889D01*
X103847815Y-75500000D01*
X103876487Y-75791111D01*
X103961401Y-76071034D01*
X104099294Y-76329014D01*
X104284866Y-76555134D01*
X104510986Y-76740706D01*
X104768966Y-76878599D01*
X105048889Y-76963513D01*
X105267050Y-76985000D01*
X105412950Y-76985000D01*
X105631111Y-76963513D01*
X105911034Y-76878599D01*
X106169014Y-76740706D01*
X106395134Y-76555134D01*
X106580706Y-76329014D01*
X106615201Y-76264477D01*
X106684822Y-76381355D01*
X106879731Y-76597588D01*
X107113080Y-76771641D01*
X107375901Y-76896825D01*
X107523110Y-76941476D01*
X107753000Y-76820155D01*
X107753000Y-75627000D01*
X108007000Y-75627000D01*
X108007000Y-76820155D01*
X108236890Y-76941476D01*
X108384099Y-76896825D01*
X108646920Y-76771641D01*
X108880269Y-76597588D01*
X109075178Y-76381355D01*
X109150000Y-76255745D01*
X109224822Y-76381355D01*
X109419731Y-76597588D01*
X109653080Y-76771641D01*
X109915901Y-76896825D01*
X110063110Y-76941476D01*
X110293000Y-76820155D01*
X110293000Y-75627000D01*
X110547000Y-75627000D01*
X110547000Y-76820155D01*
X110776890Y-76941476D01*
X110924099Y-76896825D01*
X111186920Y-76771641D01*
X111420269Y-76597588D01*
X111615178Y-76381355D01*
X111690000Y-76255745D01*
X111764822Y-76381355D01*
X111959731Y-76597588D01*
X112193080Y-76771641D01*
X112455901Y-76896825D01*
X112603110Y-76941476D01*
X112833000Y-76820155D01*
X112833000Y-75627000D01*
X110547000Y-75627000D01*
X110293000Y-75627000D01*
X108007000Y-75627000D01*
X107753000Y-75627000D01*
X107733000Y-75627000D01*
X107733000Y-75373000D01*
X107753000Y-75373000D01*
X107753000Y-73087000D01*
X108007000Y-73087000D01*
X108007000Y-75373000D01*
X110293000Y-75373000D01*
X110293000Y-73087000D01*
X110547000Y-73087000D01*
X110547000Y-75373000D01*
X112833000Y-75373000D01*
X112833000Y-73087000D01*
X110547000Y-73087000D01*
X110293000Y-73087000D01*
X108007000Y-73087000D01*
X107753000Y-73087000D01*
X107733000Y-73087000D01*
X107733000Y-72833000D01*
X107753000Y-72833000D01*
X107753000Y-71639845D01*
X108007000Y-71639845D01*
X108007000Y-72833000D01*
X110293000Y-72833000D01*
X110293000Y-71639845D01*
X110547000Y-71639845D01*
X110547000Y-72833000D01*
X112833000Y-72833000D01*
X112833000Y-71639845D01*
X113087000Y-71639845D01*
X113087000Y-72833000D01*
X113107000Y-72833000D01*
X113107000Y-73087000D01*
X113087000Y-73087000D01*
X113087000Y-75373000D01*
X113107000Y-75373000D01*
X113107000Y-75627000D01*
X113087000Y-75627000D01*
X113087000Y-76820155D01*
X113316890Y-76941476D01*
X113464099Y-76896825D01*
X113726920Y-76771641D01*
X113960269Y-76597588D01*
X114036034Y-76513534D01*
X114060498Y-76594180D01*
X114119463Y-76704494D01*
X114198815Y-76801185D01*
X114295506Y-76880537D01*
X114405820Y-76939502D01*
X114525518Y-76975812D01*
X114650000Y-76988072D01*
X116350000Y-76988072D01*
X116474482Y-76975812D01*
X116594180Y-76939502D01*
X116704494Y-76880537D01*
X116801185Y-76801185D01*
X116880537Y-76704494D01*
X116939502Y-76594180D01*
X116975812Y-76474482D01*
X116988072Y-76350000D01*
X116988072Y-74650000D01*
X116975812Y-74525518D01*
X116939502Y-74405820D01*
X116880537Y-74295506D01*
X116801185Y-74198815D01*
X116704494Y-74119463D01*
X116594180Y-74060498D01*
X116525313Y-74039607D01*
X116555134Y-74015134D01*
X116740706Y-73789014D01*
X116878599Y-73531034D01*
X116963513Y-73251111D01*
X116992185Y-72960000D01*
X116963513Y-72668889D01*
X116878599Y-72388966D01*
X116740706Y-72130986D01*
X116555134Y-71904866D01*
X116329014Y-71719294D01*
X116071034Y-71581401D01*
X115791111Y-71496487D01*
X115572950Y-71475000D01*
X115427050Y-71475000D01*
X115208889Y-71496487D01*
X114928966Y-71581401D01*
X114670986Y-71719294D01*
X114444866Y-71904866D01*
X114259294Y-72130986D01*
X114224799Y-72195523D01*
X114155178Y-72078645D01*
X113960269Y-71862412D01*
X113726920Y-71688359D01*
X113464099Y-71563175D01*
X113316890Y-71518524D01*
X113087000Y-71639845D01*
X112833000Y-71639845D01*
X112603110Y-71518524D01*
X112455901Y-71563175D01*
X112193080Y-71688359D01*
X111959731Y-71862412D01*
X111764822Y-72078645D01*
X111690000Y-72204255D01*
X111615178Y-72078645D01*
X111420269Y-71862412D01*
X111186920Y-71688359D01*
X110924099Y-71563175D01*
X110776890Y-71518524D01*
X110547000Y-71639845D01*
X110293000Y-71639845D01*
X110063110Y-71518524D01*
X109915901Y-71563175D01*
X109653080Y-71688359D01*
X109419731Y-71862412D01*
X109224822Y-72078645D01*
X109150000Y-72204255D01*
X109075178Y-72078645D01*
X108880269Y-71862412D01*
X108646920Y-71688359D01*
X108384099Y-71563175D01*
X108236890Y-71518524D01*
X108007000Y-71639845D01*
X107753000Y-71639845D01*
X107523110Y-71518524D01*
X107375901Y-71563175D01*
X107113080Y-71688359D01*
X106879731Y-71862412D01*
X106684822Y-72078645D01*
X106615201Y-72195523D01*
X106580706Y-72130986D01*
X106395134Y-71904866D01*
X106169014Y-71719294D01*
X105911034Y-71581401D01*
X105631111Y-71496487D01*
X105412950Y-71475000D01*
X105267050Y-71475000D01*
X105048889Y-71496487D01*
X104768966Y-71581401D01*
X104510986Y-71719294D01*
X104284866Y-71904866D01*
X104099294Y-72130986D01*
X103961401Y-72388966D01*
X103876487Y-72668889D01*
X103847815Y-72960000D01*
X103760000Y-72960000D01*
X103760000Y-69669608D01*
X103865526Y-69564082D01*
X103949208Y-69818261D01*
X104221775Y-69949158D01*
X104514642Y-70024365D01*
X104816553Y-70040991D01*
X105115907Y-69998397D01*
X105401199Y-69898222D01*
X105550792Y-69818261D01*
X105634475Y-69564080D01*
X104750000Y-68679605D01*
X104735858Y-68693748D01*
X104556253Y-68514143D01*
X104570395Y-68500000D01*
X104556253Y-68485858D01*
X104735858Y-68306253D01*
X104750000Y-68320395D01*
X104764143Y-68306253D01*
X104943748Y-68485858D01*
X104929605Y-68500000D01*
X105814080Y-69384475D01*
X105962262Y-69335690D01*
X106057688Y-69478505D01*
X106271495Y-69692312D01*
X106522905Y-69860299D01*
X106802257Y-69976011D01*
X107098816Y-70035000D01*
X107401184Y-70035000D01*
X107697743Y-69976011D01*
X107977095Y-69860299D01*
X108228505Y-69692312D01*
X108442312Y-69478505D01*
X108500000Y-69392169D01*
X108557688Y-69478505D01*
X108771495Y-69692312D01*
X109022905Y-69860299D01*
X109302257Y-69976011D01*
X109598816Y-70035000D01*
X109901184Y-70035000D01*
X110197743Y-69976011D01*
X110477095Y-69860299D01*
X110728505Y-69692312D01*
X110942312Y-69478505D01*
X111110299Y-69227095D01*
X111226011Y-68947743D01*
X111285000Y-68651184D01*
X111285000Y-68348816D01*
X111226011Y-68052257D01*
X111189868Y-67965000D01*
X115446928Y-67965000D01*
X115459188Y-68089482D01*
X115495498Y-68209180D01*
X115554463Y-68319494D01*
X115633815Y-68416185D01*
X115730506Y-68495537D01*
X115840820Y-68554502D01*
X115960518Y-68590812D01*
X116085000Y-68603072D01*
X116714250Y-68600000D01*
X116873000Y-68441250D01*
X116873000Y-67127000D01*
X117127000Y-67127000D01*
X117127000Y-68441250D01*
X117285750Y-68600000D01*
X117915000Y-68603072D01*
X118039482Y-68590812D01*
X118159180Y-68554502D01*
X118269494Y-68495537D01*
X118366185Y-68416185D01*
X118445537Y-68319494D01*
X118504502Y-68209180D01*
X118540812Y-68089482D01*
X118553072Y-67965000D01*
X118550000Y-67285750D01*
X118391250Y-67127000D01*
X117127000Y-67127000D01*
X116873000Y-67127000D01*
X115608750Y-67127000D01*
X115450000Y-67285750D01*
X115446928Y-67965000D01*
X111189868Y-67965000D01*
X111110299Y-67772905D01*
X110942312Y-67521495D01*
X110728505Y-67307688D01*
X110477095Y-67139701D01*
X110197743Y-67023989D01*
X109901184Y-66965000D01*
X109598816Y-66965000D01*
X109302257Y-67023989D01*
X109022905Y-67139701D01*
X108771495Y-67307688D01*
X108557688Y-67521495D01*
X108500000Y-67607831D01*
X108442312Y-67521495D01*
X108228505Y-67307688D01*
X107977095Y-67139701D01*
X107697743Y-67023989D01*
X107401184Y-66965000D01*
X107098816Y-66965000D01*
X106841070Y-67016269D01*
X106588803Y-66764002D01*
X106565000Y-66734998D01*
X106449275Y-66640025D01*
X106317246Y-66569453D01*
X106173985Y-66525996D01*
X106062332Y-66514999D01*
X106062321Y-66514999D01*
X106024999Y-66511323D01*
X105987677Y-66514999D01*
X104199324Y-66514999D01*
X104161999Y-66511323D01*
X104124674Y-66514999D01*
X104124666Y-66514999D01*
X104013013Y-66525996D01*
X103869752Y-66569453D01*
X103737723Y-66640025D01*
X103621998Y-66734998D01*
X103598200Y-66763996D01*
X102488998Y-67873199D01*
X102460000Y-67896997D01*
X102436202Y-67925995D01*
X102436201Y-67925996D01*
X102365026Y-68012722D01*
X102294454Y-68144752D01*
X102250998Y-68288013D01*
X102236324Y-68436998D01*
X102240001Y-68474330D01*
X102240000Y-77962678D01*
X102236324Y-78000000D01*
X102240000Y-78037322D01*
X102240000Y-78037332D01*
X102250997Y-78148985D01*
X102294454Y-78292246D01*
X102365026Y-78424276D01*
X102398469Y-78465026D01*
X102459999Y-78540001D01*
X102489003Y-78563804D01*
X104065002Y-80139804D01*
X104065001Y-84977892D01*
X103951772Y-84785742D01*
X103491895Y-84545062D01*
X102993902Y-84398725D01*
X102476929Y-84352352D01*
X101960841Y-84407727D01*
X101465474Y-84562721D01*
X101048228Y-84785742D01*
X100832107Y-85152499D01*
X100717997Y-85038389D01*
X100660000Y-85096386D01*
X100660000Y-66035000D01*
X115446928Y-66035000D01*
X115450000Y-66714250D01*
X115608750Y-66873000D01*
X116873000Y-66873000D01*
X116873000Y-65558750D01*
X117127000Y-65558750D01*
X117127000Y-66873000D01*
X118391250Y-66873000D01*
X118550000Y-66714250D01*
X118553072Y-66035000D01*
X118540812Y-65910518D01*
X118504502Y-65790820D01*
X118445537Y-65680506D01*
X118366185Y-65583815D01*
X118269494Y-65504463D01*
X118159180Y-65445498D01*
X118039482Y-65409188D01*
X117915000Y-65396928D01*
X117285750Y-65400000D01*
X117127000Y-65558750D01*
X116873000Y-65558750D01*
X116714250Y-65400000D01*
X116085000Y-65396928D01*
X115960518Y-65409188D01*
X115840820Y-65445498D01*
X115730506Y-65504463D01*
X115633815Y-65583815D01*
X115554463Y-65680506D01*
X115495498Y-65790820D01*
X115459188Y-65910518D01*
X115446928Y-66035000D01*
X100660000Y-66035000D01*
X100660000Y-62903614D01*
X100717997Y-62961611D01*
X100832107Y-62847501D01*
X101048228Y-63214258D01*
X101508105Y-63454938D01*
X102006098Y-63601275D01*
X102523071Y-63647648D01*
X103039159Y-63592273D01*
X103534526Y-63437279D01*
X103951772Y-63214258D01*
X104167894Y-62847499D01*
X110332106Y-62847499D01*
X110548228Y-63214258D01*
X111008105Y-63454938D01*
X111506098Y-63601275D01*
X112023071Y-63647648D01*
X112539159Y-63592273D01*
X113034526Y-63437279D01*
X113451772Y-63214258D01*
X113667894Y-62847499D01*
X112000000Y-61179605D01*
X110332106Y-62847499D01*
X104167894Y-62847499D01*
X102500000Y-61179605D01*
X102485858Y-61193748D01*
X102306253Y-61014143D01*
X102320395Y-61000000D01*
X102679605Y-61000000D01*
X104347499Y-62667894D01*
X104714258Y-62451772D01*
X104954938Y-61991895D01*
X105101275Y-61493902D01*
X105143509Y-61023071D01*
X109352352Y-61023071D01*
X109407727Y-61539159D01*
X109562721Y-62034526D01*
X109785742Y-62451772D01*
X110152501Y-62667894D01*
X111820395Y-61000000D01*
X112179605Y-61000000D01*
X113847499Y-62667894D01*
X114214258Y-62451772D01*
X114454938Y-61991895D01*
X114601275Y-61493902D01*
X114647648Y-60976929D01*
X114592273Y-60460841D01*
X114437279Y-59965474D01*
X114214258Y-59548228D01*
X113847499Y-59332106D01*
X112179605Y-61000000D01*
X111820395Y-61000000D01*
X110152501Y-59332106D01*
X109785742Y-59548228D01*
X109545062Y-60008105D01*
X109398725Y-60506098D01*
X109352352Y-61023071D01*
X105143509Y-61023071D01*
X105147648Y-60976929D01*
X105092273Y-60460841D01*
X104937279Y-59965474D01*
X104714258Y-59548228D01*
X104347499Y-59332106D01*
X102679605Y-61000000D01*
X102320395Y-61000000D01*
X102306253Y-60985858D01*
X102485858Y-60806253D01*
X102500000Y-60820395D01*
X104167894Y-59152501D01*
X110332106Y-59152501D01*
X112000000Y-60820395D01*
X113667894Y-59152501D01*
X113451772Y-58785742D01*
X112991895Y-58545062D01*
X112493902Y-58398725D01*
X111976929Y-58352352D01*
X111460841Y-58407727D01*
X110965474Y-58562721D01*
X110548228Y-58785742D01*
X110332106Y-59152501D01*
X104167894Y-59152501D01*
X103951772Y-58785742D01*
X103491895Y-58545062D01*
X102993902Y-58398725D01*
X102476929Y-58352352D01*
X101960841Y-58407727D01*
X101465474Y-58562721D01*
X101048228Y-58785742D01*
X100832107Y-59152499D01*
X100717997Y-59038389D01*
X100660000Y-59096386D01*
X100660000Y-55965000D01*
X115446928Y-55965000D01*
X115459188Y-56089482D01*
X115495498Y-56209180D01*
X115554463Y-56319494D01*
X115633815Y-56416185D01*
X115730506Y-56495537D01*
X115840820Y-56554502D01*
X115960518Y-56590812D01*
X116085000Y-56603072D01*
X116714250Y-56600000D01*
X116873000Y-56441250D01*
X116873000Y-55127000D01*
X117127000Y-55127000D01*
X117127000Y-56441250D01*
X117285750Y-56600000D01*
X117915000Y-56603072D01*
X118039482Y-56590812D01*
X118159180Y-56554502D01*
X118269494Y-56495537D01*
X118366185Y-56416185D01*
X118445537Y-56319494D01*
X118504502Y-56209180D01*
X118540812Y-56089482D01*
X118553072Y-55965000D01*
X118550000Y-55285750D01*
X118391250Y-55127000D01*
X117127000Y-55127000D01*
X116873000Y-55127000D01*
X115608750Y-55127000D01*
X115450000Y-55285750D01*
X115446928Y-55965000D01*
X100660000Y-55965000D01*
X100660000Y-54035000D01*
X115446928Y-54035000D01*
X115450000Y-54714250D01*
X115608750Y-54873000D01*
X116873000Y-54873000D01*
X116873000Y-53558750D01*
X117127000Y-53558750D01*
X117127000Y-54873000D01*
X118391250Y-54873000D01*
X118550000Y-54714250D01*
X118553072Y-54035000D01*
X118540812Y-53910518D01*
X118504502Y-53790820D01*
X118445537Y-53680506D01*
X118366185Y-53583815D01*
X118269494Y-53504463D01*
X118159180Y-53445498D01*
X118039482Y-53409188D01*
X117915000Y-53396928D01*
X117285750Y-53400000D01*
X117127000Y-53558750D01*
X116873000Y-53558750D01*
X116714250Y-53400000D01*
X116085000Y-53396928D01*
X115960518Y-53409188D01*
X115840820Y-53445498D01*
X115730506Y-53504463D01*
X115633815Y-53583815D01*
X115554463Y-53680506D01*
X115495498Y-53790820D01*
X115459188Y-53910518D01*
X115446928Y-54035000D01*
X100660000Y-54035000D01*
X100660000Y-50660000D01*
X129340001Y-50660000D01*
X129340001Y-53079743D01*
X129340001Y-53079743D01*
G37*
X129340001Y-53079743D02*
X129173188Y-52942843D01*
X128932581Y-52814236D01*
X128671507Y-52735040D01*
X128400000Y-52708299D01*
X128128494Y-52735040D01*
X127867420Y-52814236D01*
X127626813Y-52942843D01*
X127415920Y-53115919D01*
X127242844Y-53326812D01*
X127114237Y-53567419D01*
X127035041Y-53828493D01*
X127015000Y-54031963D01*
X127015000Y-55968036D01*
X127035040Y-56171506D01*
X127114236Y-56432580D01*
X127242843Y-56673187D01*
X127415919Y-56884080D01*
X127626812Y-57057157D01*
X127867419Y-57185764D01*
X128128493Y-57264960D01*
X128400000Y-57291701D01*
X128671506Y-57264960D01*
X128932580Y-57185764D01*
X129173187Y-57057157D01*
X129340001Y-56920256D01*
X129340001Y-65079743D01*
X129173188Y-64942843D01*
X128932581Y-64814236D01*
X128671507Y-64735040D01*
X128400000Y-64708299D01*
X128128494Y-64735040D01*
X127867420Y-64814236D01*
X127626813Y-64942843D01*
X127415920Y-65115919D01*
X127242844Y-65326812D01*
X127114237Y-65567419D01*
X127035041Y-65828493D01*
X127015000Y-66031963D01*
X127015000Y-67968036D01*
X127035040Y-68171506D01*
X127114236Y-68432580D01*
X127242843Y-68673187D01*
X127415919Y-68884080D01*
X127626812Y-69057157D01*
X127867419Y-69185764D01*
X128128493Y-69264960D01*
X128400000Y-69291701D01*
X128671506Y-69264960D01*
X128932580Y-69185764D01*
X129173187Y-69057157D01*
X129340001Y-68920256D01*
X129340001Y-79079743D01*
X129173188Y-78942843D01*
X128932581Y-78814236D01*
X128671507Y-78735040D01*
X128400000Y-78708299D01*
X128128494Y-78735040D01*
X127867420Y-78814236D01*
X127626813Y-78942843D01*
X127415920Y-79115919D01*
X127242844Y-79326812D01*
X127114237Y-79567419D01*
X127035041Y-79828493D01*
X127015000Y-80031963D01*
X127015000Y-81968036D01*
X127035040Y-82171506D01*
X127114236Y-82432580D01*
X127242843Y-82673187D01*
X127415919Y-82884080D01*
X127626812Y-83057157D01*
X127867419Y-83185764D01*
X128128493Y-83264960D01*
X128400000Y-83291701D01*
X128671506Y-83264960D01*
X128932580Y-83185764D01*
X129173187Y-83057157D01*
X129340001Y-82920256D01*
X129340001Y-91079743D01*
X129173188Y-90942843D01*
X128932581Y-90814236D01*
X128671507Y-90735040D01*
X128400000Y-90708299D01*
X128128494Y-90735040D01*
X127867420Y-90814236D01*
X127626813Y-90942843D01*
X127415920Y-91115919D01*
X127242844Y-91326812D01*
X127114237Y-91567419D01*
X127035041Y-91828493D01*
X127015000Y-92031963D01*
X127015000Y-93968036D01*
X127035040Y-94171506D01*
X127114236Y-94432580D01*
X127242843Y-94673187D01*
X127415919Y-94884080D01*
X127626812Y-95057157D01*
X127867419Y-95185764D01*
X128128493Y-95264960D01*
X128400000Y-95291701D01*
X128671506Y-95264960D01*
X128932580Y-95185764D01*
X129173187Y-95057157D01*
X129340001Y-94920256D01*
X129340000Y-105079743D01*
X129173188Y-104942843D01*
X128932581Y-104814236D01*
X128671507Y-104735040D01*
X128400000Y-104708299D01*
X128128494Y-104735040D01*
X127867420Y-104814236D01*
X127626813Y-104942843D01*
X127415920Y-105115919D01*
X127242844Y-105326812D01*
X127114237Y-105567419D01*
X127035041Y-105828493D01*
X127015000Y-106031963D01*
X127015000Y-107968036D01*
X127035040Y-108171506D01*
X127114236Y-108432580D01*
X127242843Y-108673187D01*
X127415919Y-108884080D01*
X127626812Y-109057157D01*
X127867419Y-109185764D01*
X128128493Y-109264960D01*
X128400000Y-109291701D01*
X128671506Y-109264960D01*
X128932580Y-109185764D01*
X129173187Y-109057157D01*
X129340000Y-108920256D01*
X129340000Y-117079743D01*
X129173188Y-116942843D01*
X128932581Y-116814236D01*
X128671507Y-116735040D01*
X128400000Y-116708299D01*
X128128494Y-116735040D01*
X127867420Y-116814236D01*
X127626813Y-116942843D01*
X127415920Y-117115919D01*
X127242844Y-117326812D01*
X127114237Y-117567419D01*
X127035041Y-117828493D01*
X127015000Y-118031963D01*
X127015000Y-119968036D01*
X127035040Y-120171506D01*
X127114236Y-120432580D01*
X127242843Y-120673187D01*
X127415919Y-120884080D01*
X127626812Y-121057157D01*
X127867419Y-121185764D01*
X128128493Y-121264960D01*
X128400000Y-121291701D01*
X128671506Y-121264960D01*
X128932580Y-121185764D01*
X129173187Y-121057157D01*
X129340000Y-120920256D01*
X129340000Y-131079743D01*
X129173188Y-130942843D01*
X128932581Y-130814236D01*
X128671507Y-130735040D01*
X128400000Y-130708299D01*
X128128494Y-130735040D01*
X127867420Y-130814236D01*
X127626813Y-130942843D01*
X127415920Y-131115919D01*
X127242844Y-131326812D01*
X127114237Y-131567419D01*
X127035041Y-131828493D01*
X127015000Y-132031963D01*
X127015000Y-133968036D01*
X127035040Y-134171506D01*
X127114236Y-134432580D01*
X127242843Y-134673187D01*
X127415919Y-134884080D01*
X127626812Y-135057157D01*
X127867419Y-135185764D01*
X128128493Y-135264960D01*
X128400000Y-135291701D01*
X128671506Y-135264960D01*
X128932580Y-135185764D01*
X129173187Y-135057157D01*
X129340000Y-134920257D01*
X129340000Y-143079743D01*
X129173188Y-142942843D01*
X128932581Y-142814236D01*
X128671507Y-142735040D01*
X128400000Y-142708299D01*
X128128494Y-142735040D01*
X127867420Y-142814236D01*
X127626813Y-142942843D01*
X127415920Y-143115919D01*
X127242844Y-143326812D01*
X127114237Y-143567419D01*
X127035041Y-143828493D01*
X127015000Y-144031963D01*
X127015000Y-145968036D01*
X127035040Y-146171506D01*
X127114236Y-146432580D01*
X127242843Y-146673187D01*
X127415919Y-146884080D01*
X127626812Y-147057157D01*
X127867419Y-147185764D01*
X128128493Y-147264960D01*
X128400000Y-147291701D01*
X128671506Y-147264960D01*
X128932580Y-147185764D01*
X129173187Y-147057157D01*
X129340000Y-146920257D01*
X129340000Y-149340000D01*
X100660000Y-149340000D01*
X100660000Y-147564080D01*
X103865525Y-147564080D01*
X103949208Y-147818261D01*
X104221775Y-147949158D01*
X104514642Y-148024365D01*
X104816553Y-148040991D01*
X105115907Y-147998397D01*
X105401199Y-147898222D01*
X105550792Y-147818261D01*
X105634475Y-147564080D01*
X104750000Y-146679605D01*
X103865525Y-147564080D01*
X100660000Y-147564080D01*
X100660000Y-146566553D01*
X103209009Y-146566553D01*
X103251603Y-146865907D01*
X103351778Y-147151199D01*
X103431739Y-147300792D01*
X103685920Y-147384475D01*
X104570395Y-146500000D01*
X104929605Y-146500000D01*
X105814080Y-147384475D01*
X105962262Y-147335690D01*
X106057688Y-147478505D01*
X106271495Y-147692312D01*
X106522905Y-147860299D01*
X106802257Y-147976011D01*
X107098816Y-148035000D01*
X107401184Y-148035000D01*
X107697743Y-147976011D01*
X107977095Y-147860299D01*
X108228505Y-147692312D01*
X108442312Y-147478505D01*
X108500000Y-147392169D01*
X108557688Y-147478505D01*
X108771495Y-147692312D01*
X109022905Y-147860299D01*
X109302257Y-147976011D01*
X109598816Y-148035000D01*
X109901184Y-148035000D01*
X110197743Y-147976011D01*
X110477095Y-147860299D01*
X110728505Y-147692312D01*
X110942312Y-147478505D01*
X111110299Y-147227095D01*
X111226011Y-146947743D01*
X111285000Y-146651184D01*
X111285000Y-146348816D01*
X111226011Y-146052257D01*
X111189868Y-145965000D01*
X115446928Y-145965000D01*
X115459188Y-146089482D01*
X115495498Y-146209180D01*
X115554463Y-146319494D01*
X115633815Y-146416185D01*
X115730506Y-146495537D01*
X115840820Y-146554502D01*
X115960518Y-146590812D01*
X116085000Y-146603072D01*
X116714250Y-146600000D01*
X116873000Y-146441250D01*
X116873000Y-145127000D01*
X117127000Y-145127000D01*
X117127000Y-146441250D01*
X117285750Y-146600000D01*
X117915000Y-146603072D01*
X118039482Y-146590812D01*
X118159180Y-146554502D01*
X118269494Y-146495537D01*
X118366185Y-146416185D01*
X118445537Y-146319494D01*
X118504502Y-146209180D01*
X118540812Y-146089482D01*
X118553072Y-145965000D01*
X118550000Y-145285750D01*
X118391250Y-145127000D01*
X117127000Y-145127000D01*
X116873000Y-145127000D01*
X115608750Y-145127000D01*
X115450000Y-145285750D01*
X115446928Y-145965000D01*
X111189868Y-145965000D01*
X111110299Y-145772905D01*
X110942312Y-145521495D01*
X110728505Y-145307688D01*
X110477095Y-145139701D01*
X110197743Y-145023989D01*
X109901184Y-144965000D01*
X109598816Y-144965000D01*
X109302257Y-145023989D01*
X109022905Y-145139701D01*
X108771495Y-145307688D01*
X108557688Y-145521495D01*
X108500000Y-145607831D01*
X108442312Y-145521495D01*
X108228505Y-145307688D01*
X107977095Y-145139701D01*
X107697743Y-145023989D01*
X107401184Y-144965000D01*
X107098816Y-144965000D01*
X106802257Y-145023989D01*
X106522905Y-145139701D01*
X106271495Y-145307688D01*
X106057688Y-145521495D01*
X105962262Y-145664310D01*
X105814080Y-145615525D01*
X104929605Y-146500000D01*
X104570395Y-146500000D01*
X103685920Y-145615525D01*
X103431739Y-145699208D01*
X103300842Y-145971775D01*
X103225635Y-146264642D01*
X103209009Y-146566553D01*
X100660000Y-146566553D01*
X100660000Y-145435920D01*
X103865525Y-145435920D01*
X104750000Y-146320395D01*
X105634475Y-145435920D01*
X105550792Y-145181739D01*
X105278225Y-145050842D01*
X104985358Y-144975635D01*
X104683447Y-144959009D01*
X104384093Y-145001603D01*
X104098801Y-145101778D01*
X103949208Y-145181739D01*
X103865525Y-145435920D01*
X100660000Y-145435920D01*
X100660000Y-144035000D01*
X115446928Y-144035000D01*
X115450000Y-144714250D01*
X115608750Y-144873000D01*
X116873000Y-144873000D01*
X116873000Y-143558750D01*
X117127000Y-143558750D01*
X117127000Y-144873000D01*
X118391250Y-144873000D01*
X118550000Y-144714250D01*
X118553072Y-144035000D01*
X118552773Y-144031963D01*
X118715000Y-144031963D01*
X118715000Y-145968036D01*
X118735040Y-146171506D01*
X118814236Y-146432580D01*
X118942843Y-146673187D01*
X119115919Y-146884080D01*
X119326812Y-147057157D01*
X119567419Y-147185764D01*
X119828493Y-147264960D01*
X120100000Y-147291701D01*
X120371506Y-147264960D01*
X120632580Y-147185764D01*
X120873187Y-147057157D01*
X121084080Y-146884081D01*
X121257157Y-146673188D01*
X121385764Y-146432581D01*
X121464960Y-146171507D01*
X121485000Y-145968037D01*
X121485000Y-145769910D01*
X121584988Y-146011302D01*
X121818637Y-146360983D01*
X122116017Y-146658363D01*
X122465698Y-146892012D01*
X122854244Y-147052953D01*
X123266721Y-147135000D01*
X123687279Y-147135000D01*
X124099756Y-147052953D01*
X124488302Y-146892012D01*
X124837983Y-146658363D01*
X125135363Y-146360983D01*
X125369012Y-146011302D01*
X125529953Y-145622756D01*
X125612000Y-145210279D01*
X125612000Y-144789721D01*
X125529953Y-144377244D01*
X125369012Y-143988698D01*
X125135363Y-143639017D01*
X124837983Y-143341637D01*
X124488302Y-143107988D01*
X124099756Y-142947047D01*
X123687279Y-142865000D01*
X123266721Y-142865000D01*
X122854244Y-142947047D01*
X122465698Y-143107988D01*
X122116017Y-143341637D01*
X121818637Y-143639017D01*
X121584988Y-143988698D01*
X121485000Y-144230090D01*
X121485000Y-144031963D01*
X121464960Y-143828493D01*
X121385764Y-143567419D01*
X121257157Y-143326812D01*
X121084081Y-143115919D01*
X120873188Y-142942843D01*
X120632581Y-142814236D01*
X120371507Y-142735040D01*
X120100000Y-142708299D01*
X119828494Y-142735040D01*
X119567420Y-142814236D01*
X119326813Y-142942843D01*
X119115920Y-143115919D01*
X118942844Y-143326812D01*
X118814237Y-143567419D01*
X118735041Y-143828493D01*
X118715000Y-144031963D01*
X118552773Y-144031963D01*
X118540812Y-143910518D01*
X118504502Y-143790820D01*
X118445537Y-143680506D01*
X118366185Y-143583815D01*
X118269494Y-143504463D01*
X118159180Y-143445498D01*
X118039482Y-143409188D01*
X117915000Y-143396928D01*
X117285750Y-143400000D01*
X117127000Y-143558750D01*
X116873000Y-143558750D01*
X116714250Y-143400000D01*
X116085000Y-143396928D01*
X115960518Y-143409188D01*
X115840820Y-143445498D01*
X115730506Y-143504463D01*
X115633815Y-143583815D01*
X115554463Y-143680506D01*
X115495498Y-143790820D01*
X115459188Y-143910518D01*
X115446928Y-144035000D01*
X100660000Y-144035000D01*
X100660000Y-140903614D01*
X100717997Y-140961611D01*
X100832107Y-140847501D01*
X101048228Y-141214258D01*
X101508105Y-141454938D01*
X102006098Y-141601275D01*
X102523071Y-141647648D01*
X103039159Y-141592273D01*
X103534526Y-141437279D01*
X103951772Y-141214258D01*
X104167894Y-140847499D01*
X102500000Y-139179605D01*
X102485858Y-139193748D01*
X102306253Y-139014143D01*
X102320395Y-139000000D01*
X102679605Y-139000000D01*
X104347499Y-140667894D01*
X104714258Y-140451772D01*
X104954938Y-139991895D01*
X105101275Y-139493902D01*
X105147648Y-138976929D01*
X105092273Y-138460841D01*
X104937279Y-137965474D01*
X104714258Y-137548228D01*
X104347499Y-137332106D01*
X102679605Y-139000000D01*
X102320395Y-139000000D01*
X102306253Y-138985858D01*
X102485858Y-138806253D01*
X102500000Y-138820395D01*
X104167894Y-137152501D01*
X103951772Y-136785742D01*
X103491895Y-136545062D01*
X102993902Y-136398725D01*
X102476929Y-136352352D01*
X101960841Y-136407727D01*
X101465474Y-136562721D01*
X101048228Y-136785742D01*
X100832107Y-137152499D01*
X100717997Y-137038389D01*
X100660000Y-137096386D01*
X100660000Y-120566553D01*
X103209009Y-120566553D01*
X103251603Y-120865907D01*
X103351778Y-121151199D01*
X103431739Y-121300792D01*
X103685920Y-121384475D01*
X104570395Y-120500000D01*
X103685920Y-119615525D01*
X103431739Y-119699208D01*
X103300842Y-119971775D01*
X103225635Y-120264642D01*
X103209009Y-120566553D01*
X100660000Y-120566553D01*
X100660000Y-114903614D01*
X100717997Y-114961611D01*
X100832107Y-114847501D01*
X101048228Y-115214258D01*
X101508105Y-115454938D01*
X102006098Y-115601275D01*
X102523071Y-115647648D01*
X103039159Y-115592273D01*
X103534526Y-115437279D01*
X103951772Y-115214258D01*
X104167894Y-114847499D01*
X102500000Y-113179605D01*
X102485858Y-113193748D01*
X102306253Y-113014143D01*
X102320395Y-113000000D01*
X102679605Y-113000000D01*
X104347499Y-114667894D01*
X104714258Y-114451772D01*
X104954938Y-113991895D01*
X105101275Y-113493902D01*
X105147648Y-112976929D01*
X105092273Y-112460841D01*
X104937279Y-111965474D01*
X104714258Y-111548228D01*
X104347499Y-111332106D01*
X102679605Y-113000000D01*
X102320395Y-113000000D01*
X102306253Y-112985858D01*
X102485858Y-112806253D01*
X102500000Y-112820395D01*
X104167894Y-111152501D01*
X103951772Y-110785742D01*
X103491895Y-110545062D01*
X102993902Y-110398725D01*
X102476929Y-110352352D01*
X101960841Y-110407727D01*
X101465474Y-110562721D01*
X101048228Y-110785742D01*
X100832107Y-111152499D01*
X100717997Y-111038389D01*
X100660000Y-111096386D01*
X100660000Y-88903614D01*
X100717997Y-88961611D01*
X100832107Y-88847501D01*
X101048228Y-89214258D01*
X101508105Y-89454938D01*
X102006098Y-89601275D01*
X102243620Y-89622581D01*
X101013997Y-90852204D01*
X100984999Y-90876002D01*
X100961201Y-90905000D01*
X100961200Y-90905001D01*
X100890025Y-90991727D01*
X100819453Y-91123757D01*
X100789179Y-91223561D01*
X100775997Y-91267017D01*
X100765000Y-91378670D01*
X100761323Y-91416003D01*
X100765000Y-91453335D01*
X100764999Y-97987676D01*
X100761323Y-98024999D01*
X100764999Y-98062321D01*
X100764999Y-98062331D01*
X100775996Y-98173984D01*
X100819453Y-98317245D01*
X100890025Y-98449275D01*
X100929870Y-98497825D01*
X100984998Y-98565000D01*
X101014002Y-98588803D01*
X104437347Y-102012149D01*
X104437347Y-102074286D01*
X104477121Y-102274245D01*
X104555142Y-102462603D01*
X104668410Y-102632121D01*
X104812573Y-102776284D01*
X104982091Y-102889552D01*
X105170449Y-102967573D01*
X105370408Y-103007347D01*
X105574286Y-103007347D01*
X105774245Y-102967573D01*
X105962603Y-102889552D01*
X106015000Y-102854542D01*
X106014999Y-107356530D01*
X106010718Y-107399999D01*
X106014999Y-107443468D01*
X106014999Y-107443475D01*
X106027804Y-107573488D01*
X106078410Y-107740311D01*
X106160588Y-107894057D01*
X106271182Y-108028816D01*
X106304955Y-108056533D01*
X107993465Y-109745044D01*
X108004774Y-109801898D01*
X108082795Y-109990256D01*
X108196063Y-110159774D01*
X108340226Y-110303937D01*
X108509744Y-110417205D01*
X108698102Y-110495226D01*
X108898061Y-110535000D01*
X109101939Y-110535000D01*
X109301898Y-110495226D01*
X109490256Y-110417205D01*
X109659774Y-110303937D01*
X109803937Y-110159774D01*
X109917205Y-109990256D01*
X109995226Y-109801898D01*
X110035000Y-109601939D01*
X110035000Y-109398061D01*
X109995226Y-109198102D01*
X109917205Y-109009744D01*
X109803937Y-108840226D01*
X109659774Y-108696063D01*
X109490256Y-108582795D01*
X109301898Y-108504774D01*
X109245044Y-108493465D01*
X107784999Y-107033421D01*
X107784999Y-104285000D01*
X107851939Y-104285000D01*
X108051898Y-104245226D01*
X108240256Y-104167205D01*
X108409774Y-104053937D01*
X108553937Y-103909774D01*
X108667205Y-103740256D01*
X108710965Y-103634612D01*
X108759744Y-103667205D01*
X108948102Y-103745226D01*
X109148061Y-103785000D01*
X109210199Y-103785000D01*
X114240000Y-108814802D01*
X114240000Y-111596389D01*
X114214258Y-111548228D01*
X113847499Y-111332106D01*
X112179605Y-113000000D01*
X113847499Y-114667894D01*
X114214258Y-114451772D01*
X114240001Y-114402585D01*
X114240001Y-118296288D01*
X114196063Y-118340226D01*
X114183632Y-118358830D01*
X111392776Y-115567975D01*
X111506098Y-115601275D01*
X112023071Y-115647648D01*
X112539159Y-115592273D01*
X113034526Y-115437279D01*
X113451772Y-115214258D01*
X113667894Y-114847499D01*
X112000000Y-113179605D01*
X111985858Y-113193748D01*
X111806253Y-113014143D01*
X111820395Y-113000000D01*
X110152501Y-111332106D01*
X109785742Y-111548228D01*
X109545062Y-112008105D01*
X109398725Y-112506098D01*
X109352352Y-113023071D01*
X109407727Y-113539159D01*
X109427657Y-113602856D01*
X108285000Y-112460199D01*
X108285000Y-112398061D01*
X108245226Y-112198102D01*
X108167205Y-112009744D01*
X108053937Y-111840226D01*
X107909774Y-111696063D01*
X107740256Y-111582795D01*
X107551898Y-111504774D01*
X107351939Y-111465000D01*
X107148061Y-111465000D01*
X107006927Y-111493073D01*
X107035000Y-111351939D01*
X107035000Y-111152501D01*
X110332106Y-111152501D01*
X112000000Y-112820395D01*
X113667894Y-111152501D01*
X113451772Y-110785742D01*
X112991895Y-110545062D01*
X112493902Y-110398725D01*
X111976929Y-110352352D01*
X111460841Y-110407727D01*
X110965474Y-110562721D01*
X110548228Y-110785742D01*
X110332106Y-111152501D01*
X107035000Y-111152501D01*
X107035000Y-111148061D01*
X106995226Y-110948102D01*
X106917205Y-110759744D01*
X106803937Y-110590226D01*
X106659774Y-110446063D01*
X106490256Y-110332795D01*
X106301898Y-110254774D01*
X106101939Y-110215000D01*
X105898061Y-110215000D01*
X105698102Y-110254774D01*
X105509744Y-110332795D01*
X105340226Y-110446063D01*
X105196063Y-110590226D01*
X105082795Y-110759744D01*
X105004774Y-110948102D01*
X104965000Y-111148061D01*
X104965000Y-111351939D01*
X105004774Y-111551898D01*
X105082795Y-111740256D01*
X105196063Y-111909774D01*
X105240001Y-111953712D01*
X105240001Y-119041026D01*
X104985358Y-118975635D01*
X104683447Y-118959009D01*
X104384093Y-119001603D01*
X104098801Y-119101778D01*
X103949208Y-119181739D01*
X103865525Y-119435920D01*
X104750000Y-120320395D01*
X104764143Y-120306253D01*
X104943748Y-120485858D01*
X104929605Y-120500000D01*
X104943748Y-120514143D01*
X104764143Y-120693748D01*
X104750000Y-120679605D01*
X103865525Y-121564080D01*
X103949208Y-121818261D01*
X104221775Y-121949158D01*
X104514642Y-122024365D01*
X104816553Y-122040991D01*
X105115907Y-121998397D01*
X105240001Y-121954824D01*
X105240000Y-139546289D01*
X105196063Y-139590226D01*
X105082795Y-139759744D01*
X105004774Y-139948102D01*
X104965000Y-140148061D01*
X104965000Y-140351939D01*
X105004774Y-140551898D01*
X105082795Y-140740256D01*
X105196063Y-140909774D01*
X105340226Y-141053937D01*
X105509744Y-141167205D01*
X105698102Y-141245226D01*
X105898061Y-141285000D01*
X106101939Y-141285000D01*
X106301898Y-141245226D01*
X106490256Y-141167205D01*
X106659774Y-141053937D01*
X106803937Y-140909774D01*
X106845547Y-140847499D01*
X110332106Y-140847499D01*
X110548228Y-141214258D01*
X111008105Y-141454938D01*
X111506098Y-141601275D01*
X112023071Y-141647648D01*
X112539159Y-141592273D01*
X113034526Y-141437279D01*
X113451772Y-141214258D01*
X113667894Y-140847499D01*
X112000000Y-139179605D01*
X110332106Y-140847499D01*
X106845547Y-140847499D01*
X106917205Y-140740256D01*
X106995226Y-140551898D01*
X107035000Y-140351939D01*
X107035000Y-140148061D01*
X106995226Y-139948102D01*
X106917205Y-139759744D01*
X106803937Y-139590226D01*
X106760000Y-139546289D01*
X106760000Y-139023071D01*
X109352352Y-139023071D01*
X109407727Y-139539159D01*
X109562721Y-140034526D01*
X109785742Y-140451772D01*
X110152501Y-140667894D01*
X111820395Y-139000000D01*
X112179605Y-139000000D01*
X113847499Y-140667894D01*
X114214258Y-140451772D01*
X114454938Y-139991895D01*
X114601275Y-139493902D01*
X114647648Y-138976929D01*
X114592273Y-138460841D01*
X114437279Y-137965474D01*
X114214258Y-137548228D01*
X113847499Y-137332106D01*
X112179605Y-139000000D01*
X111820395Y-139000000D01*
X110152501Y-137332106D01*
X109785742Y-137548228D01*
X109545062Y-138008105D01*
X109398725Y-138506098D01*
X109352352Y-139023071D01*
X106760000Y-139023071D01*
X106760000Y-137152501D01*
X110332106Y-137152501D01*
X112000000Y-138820395D01*
X113667894Y-137152501D01*
X113451772Y-136785742D01*
X112991895Y-136545062D01*
X112493902Y-136398725D01*
X111976929Y-136352352D01*
X111460841Y-136407727D01*
X110965474Y-136562721D01*
X110548228Y-136785742D01*
X110332106Y-137152501D01*
X106760000Y-137152501D01*
X106760000Y-133965000D01*
X115446928Y-133965000D01*
X115459188Y-134089482D01*
X115495498Y-134209180D01*
X115554463Y-134319494D01*
X115633815Y-134416185D01*
X115730506Y-134495537D01*
X115840820Y-134554502D01*
X115960518Y-134590812D01*
X116085000Y-134603072D01*
X116714250Y-134600000D01*
X116873000Y-134441250D01*
X116873000Y-133127000D01*
X117127000Y-133127000D01*
X117127000Y-134441250D01*
X117285750Y-134600000D01*
X117915000Y-134603072D01*
X118039482Y-134590812D01*
X118159180Y-134554502D01*
X118269494Y-134495537D01*
X118366185Y-134416185D01*
X118445537Y-134319494D01*
X118504502Y-134209180D01*
X118540812Y-134089482D01*
X118553072Y-133965000D01*
X118550000Y-133285750D01*
X118391250Y-133127000D01*
X117127000Y-133127000D01*
X116873000Y-133127000D01*
X115608750Y-133127000D01*
X115450000Y-133285750D01*
X115446928Y-133965000D01*
X106760000Y-133965000D01*
X106760000Y-132035000D01*
X115446928Y-132035000D01*
X115450000Y-132714250D01*
X115608750Y-132873000D01*
X116873000Y-132873000D01*
X116873000Y-131558750D01*
X117127000Y-131558750D01*
X117127000Y-132873000D01*
X118391250Y-132873000D01*
X118550000Y-132714250D01*
X118553072Y-132035000D01*
X118540812Y-131910518D01*
X118504502Y-131790820D01*
X118445537Y-131680506D01*
X118366185Y-131583815D01*
X118269494Y-131504463D01*
X118159180Y-131445498D01*
X118039482Y-131409188D01*
X117915000Y-131396928D01*
X117285750Y-131400000D01*
X117127000Y-131558750D01*
X116873000Y-131558750D01*
X116714250Y-131400000D01*
X116085000Y-131396928D01*
X115960518Y-131409188D01*
X115840820Y-131445498D01*
X115730506Y-131504463D01*
X115633815Y-131583815D01*
X115554463Y-131680506D01*
X115495498Y-131790820D01*
X115459188Y-131910518D01*
X115446928Y-132035000D01*
X106760000Y-132035000D01*
X106760000Y-121958507D01*
X106802257Y-121976011D01*
X107098816Y-122035000D01*
X107401184Y-122035000D01*
X107697743Y-121976011D01*
X107977095Y-121860299D01*
X108228505Y-121692312D01*
X108442312Y-121478505D01*
X108500000Y-121392169D01*
X108557688Y-121478505D01*
X108771495Y-121692312D01*
X109022905Y-121860299D01*
X109302257Y-121976011D01*
X109598816Y-122035000D01*
X109901184Y-122035000D01*
X110197743Y-121976011D01*
X110477095Y-121860299D01*
X110728505Y-121692312D01*
X110942312Y-121478505D01*
X111110299Y-121227095D01*
X111226011Y-120947743D01*
X111285000Y-120651184D01*
X111285000Y-120348816D01*
X111226011Y-120052257D01*
X111110299Y-119772905D01*
X110942312Y-119521495D01*
X110728505Y-119307688D01*
X110477095Y-119139701D01*
X110197743Y-119023989D01*
X109901184Y-118965000D01*
X109598816Y-118965000D01*
X109302257Y-119023989D01*
X109022905Y-119139701D01*
X108771495Y-119307688D01*
X108557688Y-119521495D01*
X108500000Y-119607831D01*
X108442312Y-119521495D01*
X108228505Y-119307688D01*
X107977095Y-119139701D01*
X107697743Y-119023989D01*
X107401184Y-118965000D01*
X107098816Y-118965000D01*
X106802257Y-119023989D01*
X106760000Y-119041493D01*
X106760000Y-113417311D01*
X106948102Y-113495226D01*
X107148061Y-113535000D01*
X107210199Y-113535000D01*
X120891999Y-127216801D01*
X120891999Y-130958281D01*
X120873188Y-130942843D01*
X120632581Y-130814236D01*
X120371507Y-130735040D01*
X120100000Y-130708299D01*
X119828494Y-130735040D01*
X119567420Y-130814236D01*
X119326813Y-130942843D01*
X119115920Y-131115919D01*
X118942844Y-131326812D01*
X118814237Y-131567419D01*
X118735041Y-131828493D01*
X118715000Y-132031963D01*
X118715000Y-133968036D01*
X118735040Y-134171506D01*
X118814236Y-134432580D01*
X118942843Y-134673187D01*
X119115919Y-134884080D01*
X119326812Y-135057157D01*
X119567419Y-135185764D01*
X119828493Y-135264960D01*
X120100000Y-135291701D01*
X120371506Y-135264960D01*
X120632580Y-135185764D01*
X120873187Y-135057157D01*
X120892000Y-135041718D01*
X120892000Y-136171137D01*
X120832795Y-136259744D01*
X120754774Y-136448102D01*
X120715000Y-136648061D01*
X120715000Y-136851939D01*
X120754774Y-137051898D01*
X120832795Y-137240256D01*
X120946063Y-137409774D01*
X121090226Y-137553937D01*
X121259744Y-137667205D01*
X121448102Y-137745226D01*
X121648061Y-137785000D01*
X121851939Y-137785000D01*
X122051898Y-137745226D01*
X122240256Y-137667205D01*
X122409774Y-137553937D01*
X122553937Y-137409774D01*
X122667205Y-137240256D01*
X122745226Y-137051898D01*
X122785000Y-136851939D01*
X122785000Y-136648061D01*
X122745226Y-136448102D01*
X122667205Y-136259744D01*
X122553937Y-136090226D01*
X122411999Y-135948288D01*
X122411999Y-134856132D01*
X122465698Y-134892012D01*
X122854244Y-135052953D01*
X123266721Y-135135000D01*
X123687279Y-135135000D01*
X124099756Y-135052953D01*
X124488302Y-134892012D01*
X124837983Y-134658363D01*
X125135363Y-134360983D01*
X125369012Y-134011302D01*
X125529953Y-133622756D01*
X125612000Y-133210279D01*
X125612000Y-132789721D01*
X125529953Y-132377244D01*
X125369012Y-131988698D01*
X125135363Y-131639017D01*
X124837983Y-131341637D01*
X124488302Y-131107988D01*
X124099756Y-130947047D01*
X123687279Y-130865000D01*
X123266721Y-130865000D01*
X122854244Y-130947047D01*
X122465698Y-131107988D01*
X122411999Y-131143868D01*
X122411999Y-126939321D01*
X122415675Y-126901998D01*
X122411999Y-126864675D01*
X122411999Y-126864666D01*
X122401002Y-126753013D01*
X122357545Y-126609752D01*
X122286973Y-126477723D01*
X122192000Y-126361998D01*
X122163003Y-126338201D01*
X116426208Y-120601406D01*
X116714250Y-120600000D01*
X116873000Y-120441250D01*
X116873000Y-119127000D01*
X116853000Y-119127000D01*
X116853000Y-118873000D01*
X116873000Y-118873000D01*
X116873000Y-117558750D01*
X116714250Y-117400000D01*
X116085000Y-117396928D01*
X115960518Y-117409188D01*
X115840820Y-117445498D01*
X115760000Y-117488698D01*
X115760000Y-108537322D01*
X115762435Y-108512603D01*
X115840820Y-108554502D01*
X115960518Y-108590812D01*
X116085000Y-108603072D01*
X116714250Y-108600000D01*
X116873000Y-108441250D01*
X116873000Y-107127000D01*
X115608750Y-107127000D01*
X115450000Y-107285750D01*
X115447346Y-107872544D01*
X113609802Y-106035000D01*
X115446928Y-106035000D01*
X115450000Y-106714250D01*
X115608750Y-106873000D01*
X116873000Y-106873000D01*
X116873000Y-105558750D01*
X116714250Y-105400000D01*
X116085000Y-105396928D01*
X115960518Y-105409188D01*
X115840820Y-105445498D01*
X115730506Y-105504463D01*
X115633815Y-105583815D01*
X115554463Y-105680506D01*
X115495498Y-105790820D01*
X115459188Y-105910518D01*
X115446928Y-106035000D01*
X113609802Y-106035000D01*
X110285000Y-102710199D01*
X110285000Y-102648061D01*
X110245226Y-102448102D01*
X110167205Y-102259744D01*
X110053937Y-102090226D01*
X109909774Y-101946063D01*
X109740256Y-101832795D01*
X109551898Y-101754774D01*
X109351939Y-101715000D01*
X109148061Y-101715000D01*
X108948102Y-101754774D01*
X108759744Y-101832795D01*
X108590226Y-101946063D01*
X108510000Y-102026289D01*
X108510000Y-99742803D01*
X114287803Y-93965000D01*
X115446928Y-93965000D01*
X115459188Y-94089482D01*
X115495498Y-94209180D01*
X115554463Y-94319494D01*
X115633815Y-94416185D01*
X115730506Y-94495537D01*
X115840820Y-94554502D01*
X115960518Y-94590812D01*
X116085000Y-94603072D01*
X116714250Y-94600000D01*
X116873000Y-94441250D01*
X116873000Y-93127000D01*
X117127000Y-93127000D01*
X117127000Y-94441250D01*
X117285750Y-94600000D01*
X117915000Y-94603072D01*
X118039482Y-94590812D01*
X118159180Y-94554502D01*
X118269494Y-94495537D01*
X118366185Y-94416185D01*
X118445537Y-94319494D01*
X118504502Y-94209180D01*
X118540812Y-94089482D01*
X118553072Y-93965000D01*
X118550000Y-93285750D01*
X118391250Y-93127000D01*
X117127000Y-93127000D01*
X116873000Y-93127000D01*
X115608750Y-93127000D01*
X115450000Y-93285750D01*
X115446928Y-93965000D01*
X114287803Y-93965000D01*
X115494277Y-92758527D01*
X115608750Y-92873000D01*
X116873000Y-92873000D01*
X116873000Y-91558750D01*
X117127000Y-91558750D01*
X117127000Y-92873000D01*
X118391250Y-92873000D01*
X118550000Y-92714250D01*
X118553072Y-92035000D01*
X118540812Y-91910518D01*
X118504502Y-91790820D01*
X118445537Y-91680506D01*
X118366185Y-91583815D01*
X118269494Y-91504463D01*
X118159180Y-91445498D01*
X118039482Y-91409188D01*
X117915000Y-91396928D01*
X117285750Y-91400000D01*
X117127000Y-91558750D01*
X116873000Y-91558750D01*
X116783527Y-91469277D01*
X120740001Y-87512803D01*
X120740001Y-90871653D01*
X120632581Y-90814236D01*
X120371507Y-90735040D01*
X120100000Y-90708299D01*
X119828494Y-90735040D01*
X119567420Y-90814236D01*
X119326813Y-90942843D01*
X119115920Y-91115919D01*
X118942844Y-91326812D01*
X118814237Y-91567419D01*
X118735041Y-91828493D01*
X118715000Y-92031963D01*
X118715000Y-93968036D01*
X118735040Y-94171506D01*
X118814236Y-94432580D01*
X118942843Y-94673187D01*
X119115919Y-94884080D01*
X119326812Y-95057157D01*
X119567419Y-95185764D01*
X119828493Y-95264960D01*
X120100000Y-95291701D01*
X120371506Y-95264960D01*
X120632580Y-95185764D01*
X120740001Y-95128347D01*
X120740000Y-103385198D01*
X119588998Y-104536201D01*
X119560000Y-104559999D01*
X119536202Y-104588997D01*
X119536201Y-104588998D01*
X119465026Y-104675724D01*
X119394454Y-104807754D01*
X119364180Y-104907558D01*
X119358636Y-104925833D01*
X119326813Y-104942843D01*
X119115920Y-105115919D01*
X118942844Y-105326812D01*
X118814237Y-105567419D01*
X118735041Y-105828493D01*
X118715000Y-106031963D01*
X118715000Y-106344032D01*
X118675724Y-106365026D01*
X118559999Y-106459999D01*
X118551101Y-106470841D01*
X118553072Y-106035000D01*
X118540812Y-105910518D01*
X118504502Y-105790820D01*
X118445537Y-105680506D01*
X118366185Y-105583815D01*
X118269494Y-105504463D01*
X118159180Y-105445498D01*
X118039482Y-105409188D01*
X117915000Y-105396928D01*
X117285750Y-105400000D01*
X117127000Y-105558750D01*
X117127000Y-106873000D01*
X117147000Y-106873000D01*
X117147000Y-107127000D01*
X117127000Y-107127000D01*
X117127000Y-108441250D01*
X117285750Y-108600000D01*
X117915000Y-108603072D01*
X117990001Y-108595685D01*
X117990000Y-117404315D01*
X117915000Y-117396928D01*
X117285750Y-117400000D01*
X117127000Y-117558750D01*
X117127000Y-118873000D01*
X117147000Y-118873000D01*
X117147000Y-119127000D01*
X117127000Y-119127000D01*
X117127000Y-120441250D01*
X117285750Y-120600000D01*
X117915000Y-120603072D01*
X118039482Y-120590812D01*
X118159180Y-120554502D01*
X118269494Y-120495537D01*
X118366185Y-120416185D01*
X118445537Y-120319494D01*
X118481666Y-120251902D01*
X118648061Y-120285000D01*
X118769468Y-120285000D01*
X118814236Y-120432580D01*
X118942843Y-120673187D01*
X119115919Y-120884080D01*
X119326812Y-121057157D01*
X119567419Y-121185764D01*
X119828493Y-121264960D01*
X120100000Y-121291701D01*
X120371506Y-121264960D01*
X120632580Y-121185764D01*
X120873187Y-121057157D01*
X121084080Y-120884081D01*
X121257157Y-120673188D01*
X121385764Y-120432581D01*
X121464960Y-120171507D01*
X121485000Y-119968037D01*
X121485000Y-119769910D01*
X121584988Y-120011302D01*
X121818637Y-120360983D01*
X122116017Y-120658363D01*
X122465698Y-120892012D01*
X122854244Y-121052953D01*
X123266721Y-121135000D01*
X123687279Y-121135000D01*
X124099756Y-121052953D01*
X124488302Y-120892012D01*
X124837983Y-120658363D01*
X125135363Y-120360983D01*
X125369012Y-120011302D01*
X125529953Y-119622756D01*
X125612000Y-119210279D01*
X125612000Y-118789721D01*
X125529953Y-118377244D01*
X125369012Y-117988698D01*
X125135363Y-117639017D01*
X124837983Y-117341637D01*
X124488302Y-117107988D01*
X124099756Y-116947047D01*
X123687279Y-116865000D01*
X123266721Y-116865000D01*
X122854244Y-116947047D01*
X122465698Y-117107988D01*
X122116017Y-117341637D01*
X121818637Y-117639017D01*
X121584988Y-117988698D01*
X121485000Y-118230090D01*
X121485000Y-118031963D01*
X121464960Y-117828493D01*
X121385764Y-117567419D01*
X121257157Y-117326812D01*
X121084081Y-117115919D01*
X120873188Y-116942843D01*
X120632581Y-116814236D01*
X120371507Y-116735040D01*
X120100000Y-116708299D01*
X119828494Y-116735040D01*
X119567420Y-116814236D01*
X119510000Y-116844928D01*
X119510000Y-109155073D01*
X119567419Y-109185764D01*
X119828493Y-109264960D01*
X120100000Y-109291701D01*
X120371506Y-109264960D01*
X120632580Y-109185764D01*
X120873187Y-109057157D01*
X121084080Y-108884081D01*
X121257157Y-108673188D01*
X121385764Y-108432581D01*
X121464960Y-108171507D01*
X121485000Y-107968037D01*
X121485000Y-107769910D01*
X121584988Y-108011302D01*
X121818637Y-108360983D01*
X122116017Y-108658363D01*
X122465698Y-108892012D01*
X122854244Y-109052953D01*
X123266721Y-109135000D01*
X123687279Y-109135000D01*
X124099756Y-109052953D01*
X124488302Y-108892012D01*
X124837983Y-108658363D01*
X125135363Y-108360983D01*
X125369012Y-108011302D01*
X125529953Y-107622756D01*
X125612000Y-107210279D01*
X125612000Y-106789721D01*
X125529953Y-106377244D01*
X125369012Y-105988698D01*
X125135363Y-105639017D01*
X124837983Y-105341637D01*
X124488302Y-105107988D01*
X124099756Y-104947047D01*
X123687279Y-104865000D01*
X123266721Y-104865000D01*
X122854244Y-104947047D01*
X122465698Y-105107988D01*
X122116017Y-105341637D01*
X121818637Y-105639017D01*
X121584988Y-105988698D01*
X121485000Y-106230090D01*
X121485000Y-106031963D01*
X121464960Y-105828493D01*
X121385764Y-105567419D01*
X121257157Y-105326812D01*
X121117798Y-105157003D01*
X122011004Y-104263798D01*
X122040001Y-104240001D01*
X122099743Y-104167205D01*
X122134974Y-104124277D01*
X122205546Y-103992247D01*
X122238086Y-103884974D01*
X122249003Y-103848986D01*
X122260000Y-103737333D01*
X122260000Y-103737323D01*
X122263676Y-103700000D01*
X122260000Y-103662678D01*
X122260000Y-94754569D01*
X122465698Y-94892012D01*
X122854244Y-95052953D01*
X123266721Y-95135000D01*
X123687279Y-95135000D01*
X124099756Y-95052953D01*
X124488302Y-94892012D01*
X124837983Y-94658363D01*
X125135363Y-94360983D01*
X125369012Y-94011302D01*
X125529953Y-93622756D01*
X125612000Y-93210279D01*
X125612000Y-92789721D01*
X125529953Y-92377244D01*
X125369012Y-91988698D01*
X125135363Y-91639017D01*
X124837983Y-91341637D01*
X124488302Y-91107988D01*
X124099756Y-90947047D01*
X123687279Y-90865000D01*
X123266721Y-90865000D01*
X122854244Y-90947047D01*
X122465698Y-91107988D01*
X122260000Y-91245431D01*
X122260000Y-87453711D01*
X122303937Y-87409774D01*
X122417205Y-87240256D01*
X122495226Y-87051898D01*
X122535000Y-86851939D01*
X122535000Y-86648061D01*
X122495226Y-86448102D01*
X122417205Y-86259744D01*
X122303937Y-86090226D01*
X122233257Y-86019546D01*
X125813005Y-82439799D01*
X125842002Y-82416002D01*
X125936975Y-82300277D01*
X126007547Y-82168248D01*
X126051004Y-82024987D01*
X126062001Y-81913334D01*
X126062001Y-81913324D01*
X126065677Y-81876001D01*
X126062001Y-81838678D01*
X126062001Y-74849210D01*
X126263009Y-74648202D01*
X126292012Y-74624400D01*
X126386985Y-74508675D01*
X126457557Y-74376646D01*
X126501014Y-74233385D01*
X126512011Y-74121732D01*
X126512011Y-74121723D01*
X126515687Y-74084400D01*
X126512011Y-74047077D01*
X126512011Y-60789333D01*
X126515687Y-60752010D01*
X126512011Y-60714687D01*
X126512011Y-60714678D01*
X126501014Y-60603025D01*
X126457557Y-60459764D01*
X126386985Y-60327735D01*
X126342874Y-60273985D01*
X126315810Y-60241007D01*
X126315806Y-60241003D01*
X126292012Y-60212010D01*
X126263019Y-60188216D01*
X125688803Y-59614002D01*
X125688799Y-59613997D01*
X124535000Y-58460199D01*
X124535000Y-58398061D01*
X124495226Y-58198102D01*
X124417205Y-58009744D01*
X124303937Y-57840226D01*
X124159774Y-57696063D01*
X123990256Y-57582795D01*
X123801898Y-57504774D01*
X123601939Y-57465000D01*
X123398061Y-57465000D01*
X123198102Y-57504774D01*
X123009744Y-57582795D01*
X122840226Y-57696063D01*
X122696063Y-57840226D01*
X122582795Y-58009744D01*
X122504774Y-58198102D01*
X122499486Y-58224685D01*
X121117798Y-56842996D01*
X121257157Y-56673188D01*
X121385764Y-56432581D01*
X121464960Y-56171507D01*
X121485000Y-55968037D01*
X121485000Y-55769910D01*
X121584988Y-56011302D01*
X121818637Y-56360983D01*
X122116017Y-56658363D01*
X122465698Y-56892012D01*
X122854244Y-57052953D01*
X123266721Y-57135000D01*
X123687279Y-57135000D01*
X124099756Y-57052953D01*
X124488302Y-56892012D01*
X124837983Y-56658363D01*
X125135363Y-56360983D01*
X125369012Y-56011302D01*
X125529953Y-55622756D01*
X125612000Y-55210279D01*
X125612000Y-54789721D01*
X125529953Y-54377244D01*
X125369012Y-53988698D01*
X125135363Y-53639017D01*
X124837983Y-53341637D01*
X124488302Y-53107988D01*
X124099756Y-52947047D01*
X123687279Y-52865000D01*
X123266721Y-52865000D01*
X122854244Y-52947047D01*
X122465698Y-53107988D01*
X122116017Y-53341637D01*
X121818637Y-53639017D01*
X121584988Y-53988698D01*
X121485000Y-54230090D01*
X121485000Y-54031963D01*
X121464960Y-53828493D01*
X121385764Y-53567419D01*
X121257157Y-53326812D01*
X121084081Y-53115919D01*
X120873188Y-52942843D01*
X120632581Y-52814236D01*
X120371507Y-52735040D01*
X120100000Y-52708299D01*
X119828494Y-52735040D01*
X119567420Y-52814236D01*
X119326813Y-52942843D01*
X119115920Y-53115919D01*
X118942844Y-53326812D01*
X118814237Y-53567419D01*
X118735041Y-53828493D01*
X118715000Y-54031963D01*
X118715000Y-55968036D01*
X118735040Y-56171506D01*
X118814236Y-56432580D01*
X118942843Y-56673187D01*
X119115919Y-56884080D01*
X119326812Y-57057157D01*
X119358636Y-57074167D01*
X119377089Y-57135000D01*
X119394454Y-57192246D01*
X119465026Y-57324276D01*
X119504871Y-57372826D01*
X119559999Y-57440001D01*
X119589003Y-57463804D01*
X124542002Y-62416804D01*
X124542002Y-65143869D01*
X124488302Y-65107988D01*
X124099756Y-64947047D01*
X123687279Y-64865000D01*
X123266721Y-64865000D01*
X122854244Y-64947047D01*
X122465698Y-65107988D01*
X122411999Y-65143868D01*
X122411999Y-64662802D01*
X123039802Y-64035000D01*
X123101939Y-64035000D01*
X123301898Y-63995226D01*
X123490256Y-63917205D01*
X123659774Y-63803937D01*
X123803937Y-63659774D01*
X123917205Y-63490256D01*
X123995226Y-63301898D01*
X124035000Y-63101939D01*
X124035000Y-62898061D01*
X123995226Y-62698102D01*
X123917205Y-62509744D01*
X123803937Y-62340226D01*
X123659774Y-62196063D01*
X123490256Y-62082795D01*
X123301898Y-62004774D01*
X123101939Y-61965000D01*
X122898061Y-61965000D01*
X122698102Y-62004774D01*
X122509744Y-62082795D01*
X122340226Y-62196063D01*
X122196063Y-62340226D01*
X122082795Y-62509744D01*
X122004774Y-62698102D01*
X121965000Y-62898061D01*
X121965000Y-62960198D01*
X121141002Y-63784197D01*
X121111998Y-63808000D01*
X121056870Y-63875175D01*
X121017025Y-63923725D01*
X120978807Y-63995226D01*
X120946453Y-64055755D01*
X120902996Y-64199016D01*
X120891999Y-64310669D01*
X120891999Y-64310679D01*
X120888323Y-64348001D01*
X120891999Y-64385323D01*
X120891999Y-64958281D01*
X120873188Y-64942843D01*
X120632581Y-64814236D01*
X120371507Y-64735040D01*
X120100000Y-64708299D01*
X119828494Y-64735040D01*
X119567420Y-64814236D01*
X119326813Y-64942843D01*
X119115920Y-65115919D01*
X118942844Y-65326812D01*
X118814237Y-65567419D01*
X118735041Y-65828493D01*
X118715000Y-66031963D01*
X118715000Y-67968036D01*
X118735040Y-68171506D01*
X118814236Y-68432580D01*
X118942843Y-68673187D01*
X119115919Y-68884080D01*
X119326812Y-69057157D01*
X119567419Y-69185764D01*
X119828493Y-69264960D01*
X120100000Y-69291701D01*
X120371506Y-69264960D01*
X120632580Y-69185764D01*
X120873187Y-69057157D01*
X120891999Y-69041718D01*
X120892000Y-73592196D01*
X102284999Y-92199198D01*
X102284999Y-91730804D01*
X105336005Y-88679799D01*
X105365002Y-88656002D01*
X105459975Y-88540277D01*
X105530547Y-88408248D01*
X105574004Y-88264987D01*
X105585001Y-88153334D01*
X105585001Y-88153333D01*
X105588678Y-88116001D01*
X105585001Y-88078668D01*
X105585001Y-79862323D01*
X105588677Y-79825000D01*
X105585001Y-79787677D01*
X105585001Y-79787668D01*
X105574004Y-79676015D01*
X105530547Y-79532754D01*
X105459975Y-79400725D01*
X105365002Y-79285000D01*
X105336004Y-79261202D01*
X103760000Y-77685199D01*
X103760000Y-72960000D01*
X103847815Y-72960000D01*
X103876487Y-73251111D01*
X103961401Y-73531034D01*
X104099294Y-73789014D01*
X104284866Y-74015134D01*
X104510986Y-74200706D01*
X104565791Y-74230000D01*
X104510986Y-74259294D01*
X104284866Y-74444866D01*
X104099294Y-74670986D01*
X103961401Y-74928966D01*
X103876487Y-75208889D01*
X103847815Y-75500000D01*
X103876487Y-75791111D01*
X103961401Y-76071034D01*
X104099294Y-76329014D01*
X104284866Y-76555134D01*
X104510986Y-76740706D01*
X104768966Y-76878599D01*
X105048889Y-76963513D01*
X105267050Y-76985000D01*
X105412950Y-76985000D01*
X105631111Y-76963513D01*
X105911034Y-76878599D01*
X106169014Y-76740706D01*
X106395134Y-76555134D01*
X106580706Y-76329014D01*
X106615201Y-76264477D01*
X106684822Y-76381355D01*
X106879731Y-76597588D01*
X107113080Y-76771641D01*
X107375901Y-76896825D01*
X107523110Y-76941476D01*
X107753000Y-76820155D01*
X107753000Y-75627000D01*
X108007000Y-75627000D01*
X108007000Y-76820155D01*
X108236890Y-76941476D01*
X108384099Y-76896825D01*
X108646920Y-76771641D01*
X108880269Y-76597588D01*
X109075178Y-76381355D01*
X109150000Y-76255745D01*
X109224822Y-76381355D01*
X109419731Y-76597588D01*
X109653080Y-76771641D01*
X109915901Y-76896825D01*
X110063110Y-76941476D01*
X110293000Y-76820155D01*
X110293000Y-75627000D01*
X110547000Y-75627000D01*
X110547000Y-76820155D01*
X110776890Y-76941476D01*
X110924099Y-76896825D01*
X111186920Y-76771641D01*
X111420269Y-76597588D01*
X111615178Y-76381355D01*
X111690000Y-76255745D01*
X111764822Y-76381355D01*
X111959731Y-76597588D01*
X112193080Y-76771641D01*
X112455901Y-76896825D01*
X112603110Y-76941476D01*
X112833000Y-76820155D01*
X112833000Y-75627000D01*
X110547000Y-75627000D01*
X110293000Y-75627000D01*
X108007000Y-75627000D01*
X107753000Y-75627000D01*
X107733000Y-75627000D01*
X107733000Y-75373000D01*
X107753000Y-75373000D01*
X107753000Y-73087000D01*
X108007000Y-73087000D01*
X108007000Y-75373000D01*
X110293000Y-75373000D01*
X110293000Y-73087000D01*
X110547000Y-73087000D01*
X110547000Y-75373000D01*
X112833000Y-75373000D01*
X112833000Y-73087000D01*
X110547000Y-73087000D01*
X110293000Y-73087000D01*
X108007000Y-73087000D01*
X107753000Y-73087000D01*
X107733000Y-73087000D01*
X107733000Y-72833000D01*
X107753000Y-72833000D01*
X107753000Y-71639845D01*
X108007000Y-71639845D01*
X108007000Y-72833000D01*
X110293000Y-72833000D01*
X110293000Y-71639845D01*
X110547000Y-71639845D01*
X110547000Y-72833000D01*
X112833000Y-72833000D01*
X112833000Y-71639845D01*
X113087000Y-71639845D01*
X113087000Y-72833000D01*
X113107000Y-72833000D01*
X113107000Y-73087000D01*
X113087000Y-73087000D01*
X113087000Y-75373000D01*
X113107000Y-75373000D01*
X113107000Y-75627000D01*
X113087000Y-75627000D01*
X113087000Y-76820155D01*
X113316890Y-76941476D01*
X113464099Y-76896825D01*
X113726920Y-76771641D01*
X113960269Y-76597588D01*
X114036034Y-76513534D01*
X114060498Y-76594180D01*
X114119463Y-76704494D01*
X114198815Y-76801185D01*
X114295506Y-76880537D01*
X114405820Y-76939502D01*
X114525518Y-76975812D01*
X114650000Y-76988072D01*
X116350000Y-76988072D01*
X116474482Y-76975812D01*
X116594180Y-76939502D01*
X116704494Y-76880537D01*
X116801185Y-76801185D01*
X116880537Y-76704494D01*
X116939502Y-76594180D01*
X116975812Y-76474482D01*
X116988072Y-76350000D01*
X116988072Y-74650000D01*
X116975812Y-74525518D01*
X116939502Y-74405820D01*
X116880537Y-74295506D01*
X116801185Y-74198815D01*
X116704494Y-74119463D01*
X116594180Y-74060498D01*
X116525313Y-74039607D01*
X116555134Y-74015134D01*
X116740706Y-73789014D01*
X116878599Y-73531034D01*
X116963513Y-73251111D01*
X116992185Y-72960000D01*
X116963513Y-72668889D01*
X116878599Y-72388966D01*
X116740706Y-72130986D01*
X116555134Y-71904866D01*
X116329014Y-71719294D01*
X116071034Y-71581401D01*
X115791111Y-71496487D01*
X115572950Y-71475000D01*
X115427050Y-71475000D01*
X115208889Y-71496487D01*
X114928966Y-71581401D01*
X114670986Y-71719294D01*
X114444866Y-71904866D01*
X114259294Y-72130986D01*
X114224799Y-72195523D01*
X114155178Y-72078645D01*
X113960269Y-71862412D01*
X113726920Y-71688359D01*
X113464099Y-71563175D01*
X113316890Y-71518524D01*
X113087000Y-71639845D01*
X112833000Y-71639845D01*
X112603110Y-71518524D01*
X112455901Y-71563175D01*
X112193080Y-71688359D01*
X111959731Y-71862412D01*
X111764822Y-72078645D01*
X111690000Y-72204255D01*
X111615178Y-72078645D01*
X111420269Y-71862412D01*
X111186920Y-71688359D01*
X110924099Y-71563175D01*
X110776890Y-71518524D01*
X110547000Y-71639845D01*
X110293000Y-71639845D01*
X110063110Y-71518524D01*
X109915901Y-71563175D01*
X109653080Y-71688359D01*
X109419731Y-71862412D01*
X109224822Y-72078645D01*
X109150000Y-72204255D01*
X109075178Y-72078645D01*
X108880269Y-71862412D01*
X108646920Y-71688359D01*
X108384099Y-71563175D01*
X108236890Y-71518524D01*
X108007000Y-71639845D01*
X107753000Y-71639845D01*
X107523110Y-71518524D01*
X107375901Y-71563175D01*
X107113080Y-71688359D01*
X106879731Y-71862412D01*
X106684822Y-72078645D01*
X106615201Y-72195523D01*
X106580706Y-72130986D01*
X106395134Y-71904866D01*
X106169014Y-71719294D01*
X105911034Y-71581401D01*
X105631111Y-71496487D01*
X105412950Y-71475000D01*
X105267050Y-71475000D01*
X105048889Y-71496487D01*
X104768966Y-71581401D01*
X104510986Y-71719294D01*
X104284866Y-71904866D01*
X104099294Y-72130986D01*
X103961401Y-72388966D01*
X103876487Y-72668889D01*
X103847815Y-72960000D01*
X103760000Y-72960000D01*
X103760000Y-69669608D01*
X103865526Y-69564082D01*
X103949208Y-69818261D01*
X104221775Y-69949158D01*
X104514642Y-70024365D01*
X104816553Y-70040991D01*
X105115907Y-69998397D01*
X105401199Y-69898222D01*
X105550792Y-69818261D01*
X105634475Y-69564080D01*
X104750000Y-68679605D01*
X104735858Y-68693748D01*
X104556253Y-68514143D01*
X104570395Y-68500000D01*
X104556253Y-68485858D01*
X104735858Y-68306253D01*
X104750000Y-68320395D01*
X104764143Y-68306253D01*
X104943748Y-68485858D01*
X104929605Y-68500000D01*
X105814080Y-69384475D01*
X105962262Y-69335690D01*
X106057688Y-69478505D01*
X106271495Y-69692312D01*
X106522905Y-69860299D01*
X106802257Y-69976011D01*
X107098816Y-70035000D01*
X107401184Y-70035000D01*
X107697743Y-69976011D01*
X107977095Y-69860299D01*
X108228505Y-69692312D01*
X108442312Y-69478505D01*
X108500000Y-69392169D01*
X108557688Y-69478505D01*
X108771495Y-69692312D01*
X109022905Y-69860299D01*
X109302257Y-69976011D01*
X109598816Y-70035000D01*
X109901184Y-70035000D01*
X110197743Y-69976011D01*
X110477095Y-69860299D01*
X110728505Y-69692312D01*
X110942312Y-69478505D01*
X111110299Y-69227095D01*
X111226011Y-68947743D01*
X111285000Y-68651184D01*
X111285000Y-68348816D01*
X111226011Y-68052257D01*
X111189868Y-67965000D01*
X115446928Y-67965000D01*
X115459188Y-68089482D01*
X115495498Y-68209180D01*
X115554463Y-68319494D01*
X115633815Y-68416185D01*
X115730506Y-68495537D01*
X115840820Y-68554502D01*
X115960518Y-68590812D01*
X116085000Y-68603072D01*
X116714250Y-68600000D01*
X116873000Y-68441250D01*
X116873000Y-67127000D01*
X117127000Y-67127000D01*
X117127000Y-68441250D01*
X117285750Y-68600000D01*
X117915000Y-68603072D01*
X118039482Y-68590812D01*
X118159180Y-68554502D01*
X118269494Y-68495537D01*
X118366185Y-68416185D01*
X118445537Y-68319494D01*
X118504502Y-68209180D01*
X118540812Y-68089482D01*
X118553072Y-67965000D01*
X118550000Y-67285750D01*
X118391250Y-67127000D01*
X117127000Y-67127000D01*
X116873000Y-67127000D01*
X115608750Y-67127000D01*
X115450000Y-67285750D01*
X115446928Y-67965000D01*
X111189868Y-67965000D01*
X111110299Y-67772905D01*
X110942312Y-67521495D01*
X110728505Y-67307688D01*
X110477095Y-67139701D01*
X110197743Y-67023989D01*
X109901184Y-66965000D01*
X109598816Y-66965000D01*
X109302257Y-67023989D01*
X109022905Y-67139701D01*
X108771495Y-67307688D01*
X108557688Y-67521495D01*
X108500000Y-67607831D01*
X108442312Y-67521495D01*
X108228505Y-67307688D01*
X107977095Y-67139701D01*
X107697743Y-67023989D01*
X107401184Y-66965000D01*
X107098816Y-66965000D01*
X106841070Y-67016269D01*
X106588803Y-66764002D01*
X106565000Y-66734998D01*
X106449275Y-66640025D01*
X106317246Y-66569453D01*
X106173985Y-66525996D01*
X106062332Y-66514999D01*
X106062321Y-66514999D01*
X106024999Y-66511323D01*
X105987677Y-66514999D01*
X104199324Y-66514999D01*
X104161999Y-66511323D01*
X104124674Y-66514999D01*
X104124666Y-66514999D01*
X104013013Y-66525996D01*
X103869752Y-66569453D01*
X103737723Y-66640025D01*
X103621998Y-66734998D01*
X103598200Y-66763996D01*
X102488998Y-67873199D01*
X102460000Y-67896997D01*
X102436202Y-67925995D01*
X102436201Y-67925996D01*
X102365026Y-68012722D01*
X102294454Y-68144752D01*
X102250998Y-68288013D01*
X102236324Y-68436998D01*
X102240001Y-68474330D01*
X102240000Y-77962678D01*
X102236324Y-78000000D01*
X102240000Y-78037322D01*
X102240000Y-78037332D01*
X102250997Y-78148985D01*
X102294454Y-78292246D01*
X102365026Y-78424276D01*
X102398469Y-78465026D01*
X102459999Y-78540001D01*
X102489003Y-78563804D01*
X104065002Y-80139804D01*
X104065001Y-84977892D01*
X103951772Y-84785742D01*
X103491895Y-84545062D01*
X102993902Y-84398725D01*
X102476929Y-84352352D01*
X101960841Y-84407727D01*
X101465474Y-84562721D01*
X101048228Y-84785742D01*
X100832107Y-85152499D01*
X100717997Y-85038389D01*
X100660000Y-85096386D01*
X100660000Y-66035000D01*
X115446928Y-66035000D01*
X115450000Y-66714250D01*
X115608750Y-66873000D01*
X116873000Y-66873000D01*
X116873000Y-65558750D01*
X117127000Y-65558750D01*
X117127000Y-66873000D01*
X118391250Y-66873000D01*
X118550000Y-66714250D01*
X118553072Y-66035000D01*
X118540812Y-65910518D01*
X118504502Y-65790820D01*
X118445537Y-65680506D01*
X118366185Y-65583815D01*
X118269494Y-65504463D01*
X118159180Y-65445498D01*
X118039482Y-65409188D01*
X117915000Y-65396928D01*
X117285750Y-65400000D01*
X117127000Y-65558750D01*
X116873000Y-65558750D01*
X116714250Y-65400000D01*
X116085000Y-65396928D01*
X115960518Y-65409188D01*
X115840820Y-65445498D01*
X115730506Y-65504463D01*
X115633815Y-65583815D01*
X115554463Y-65680506D01*
X115495498Y-65790820D01*
X115459188Y-65910518D01*
X115446928Y-66035000D01*
X100660000Y-66035000D01*
X100660000Y-62903614D01*
X100717997Y-62961611D01*
X100832107Y-62847501D01*
X101048228Y-63214258D01*
X101508105Y-63454938D01*
X102006098Y-63601275D01*
X102523071Y-63647648D01*
X103039159Y-63592273D01*
X103534526Y-63437279D01*
X103951772Y-63214258D01*
X104167894Y-62847499D01*
X110332106Y-62847499D01*
X110548228Y-63214258D01*
X111008105Y-63454938D01*
X111506098Y-63601275D01*
X112023071Y-63647648D01*
X112539159Y-63592273D01*
X113034526Y-63437279D01*
X113451772Y-63214258D01*
X113667894Y-62847499D01*
X112000000Y-61179605D01*
X110332106Y-62847499D01*
X104167894Y-62847499D01*
X102500000Y-61179605D01*
X102485858Y-61193748D01*
X102306253Y-61014143D01*
X102320395Y-61000000D01*
X102679605Y-61000000D01*
X104347499Y-62667894D01*
X104714258Y-62451772D01*
X104954938Y-61991895D01*
X105101275Y-61493902D01*
X105143509Y-61023071D01*
X109352352Y-61023071D01*
X109407727Y-61539159D01*
X109562721Y-62034526D01*
X109785742Y-62451772D01*
X110152501Y-62667894D01*
X111820395Y-61000000D01*
X112179605Y-61000000D01*
X113847499Y-62667894D01*
X114214258Y-62451772D01*
X114454938Y-61991895D01*
X114601275Y-61493902D01*
X114647648Y-60976929D01*
X114592273Y-60460841D01*
X114437279Y-59965474D01*
X114214258Y-59548228D01*
X113847499Y-59332106D01*
X112179605Y-61000000D01*
X111820395Y-61000000D01*
X110152501Y-59332106D01*
X109785742Y-59548228D01*
X109545062Y-60008105D01*
X109398725Y-60506098D01*
X109352352Y-61023071D01*
X105143509Y-61023071D01*
X105147648Y-60976929D01*
X105092273Y-60460841D01*
X104937279Y-59965474D01*
X104714258Y-59548228D01*
X104347499Y-59332106D01*
X102679605Y-61000000D01*
X102320395Y-61000000D01*
X102306253Y-60985858D01*
X102485858Y-60806253D01*
X102500000Y-60820395D01*
X104167894Y-59152501D01*
X110332106Y-59152501D01*
X112000000Y-60820395D01*
X113667894Y-59152501D01*
X113451772Y-58785742D01*
X112991895Y-58545062D01*
X112493902Y-58398725D01*
X111976929Y-58352352D01*
X111460841Y-58407727D01*
X110965474Y-58562721D01*
X110548228Y-58785742D01*
X110332106Y-59152501D01*
X104167894Y-59152501D01*
X103951772Y-58785742D01*
X103491895Y-58545062D01*
X102993902Y-58398725D01*
X102476929Y-58352352D01*
X101960841Y-58407727D01*
X101465474Y-58562721D01*
X101048228Y-58785742D01*
X100832107Y-59152499D01*
X100717997Y-59038389D01*
X100660000Y-59096386D01*
X100660000Y-55965000D01*
X115446928Y-55965000D01*
X115459188Y-56089482D01*
X115495498Y-56209180D01*
X115554463Y-56319494D01*
X115633815Y-56416185D01*
X115730506Y-56495537D01*
X115840820Y-56554502D01*
X115960518Y-56590812D01*
X116085000Y-56603072D01*
X116714250Y-56600000D01*
X116873000Y-56441250D01*
X116873000Y-55127000D01*
X117127000Y-55127000D01*
X117127000Y-56441250D01*
X117285750Y-56600000D01*
X117915000Y-56603072D01*
X118039482Y-56590812D01*
X118159180Y-56554502D01*
X118269494Y-56495537D01*
X118366185Y-56416185D01*
X118445537Y-56319494D01*
X118504502Y-56209180D01*
X118540812Y-56089482D01*
X118553072Y-55965000D01*
X118550000Y-55285750D01*
X118391250Y-55127000D01*
X117127000Y-55127000D01*
X116873000Y-55127000D01*
X115608750Y-55127000D01*
X115450000Y-55285750D01*
X115446928Y-55965000D01*
X100660000Y-55965000D01*
X100660000Y-54035000D01*
X115446928Y-54035000D01*
X115450000Y-54714250D01*
X115608750Y-54873000D01*
X116873000Y-54873000D01*
X116873000Y-53558750D01*
X117127000Y-53558750D01*
X117127000Y-54873000D01*
X118391250Y-54873000D01*
X118550000Y-54714250D01*
X118553072Y-54035000D01*
X118540812Y-53910518D01*
X118504502Y-53790820D01*
X118445537Y-53680506D01*
X118366185Y-53583815D01*
X118269494Y-53504463D01*
X118159180Y-53445498D01*
X118039482Y-53409188D01*
X117915000Y-53396928D01*
X117285750Y-53400000D01*
X117127000Y-53558750D01*
X116873000Y-53558750D01*
X116714250Y-53400000D01*
X116085000Y-53396928D01*
X115960518Y-53409188D01*
X115840820Y-53445498D01*
X115730506Y-53504463D01*
X115633815Y-53583815D01*
X115554463Y-53680506D01*
X115495498Y-53790820D01*
X115459188Y-53910518D01*
X115446928Y-54035000D01*
X100660000Y-54035000D01*
X100660000Y-50660000D01*
X129340001Y-50660000D01*
X129340001Y-53079743D01*
G36*
X117127000Y-80873000D02*
G01*
X117147000Y-80873000D01*
X117147000Y-81127000D01*
X117127000Y-81127000D01*
X117127000Y-82441250D01*
X117285750Y-82600000D01*
X117480002Y-82600948D01*
X117480001Y-87516422D01*
X111143460Y-93852963D01*
X111110299Y-93772905D01*
X110942312Y-93521495D01*
X110728505Y-93307688D01*
X110477095Y-93139701D01*
X110197743Y-93023989D01*
X109901184Y-92965000D01*
X109598816Y-92965000D01*
X109302257Y-93023989D01*
X109022905Y-93139701D01*
X108771495Y-93307688D01*
X108557688Y-93521495D01*
X108500000Y-93607831D01*
X108442312Y-93521495D01*
X108228505Y-93307688D01*
X107977095Y-93139701D01*
X107697743Y-93023989D01*
X107401184Y-92965000D01*
X107098816Y-92965000D01*
X106802257Y-93023989D01*
X106522905Y-93139701D01*
X106271495Y-93307688D01*
X106057688Y-93521495D01*
X105962262Y-93664310D01*
X105814080Y-93615525D01*
X104929605Y-94500000D01*
X105814080Y-95384475D01*
X105962262Y-95335690D01*
X106057688Y-95478505D01*
X106271495Y-95692312D01*
X106522905Y-95860299D01*
X106802257Y-95976011D01*
X107098816Y-96035000D01*
X107401184Y-96035000D01*
X107697743Y-95976011D01*
X107977095Y-95860299D01*
X108228505Y-95692312D01*
X108442312Y-95478505D01*
X108500000Y-95392169D01*
X108557688Y-95478505D01*
X108771495Y-95692312D01*
X109022905Y-95860299D01*
X109102963Y-95893460D01*
X106304951Y-98691473D01*
X106271183Y-98719186D01*
X106243470Y-98752954D01*
X106243467Y-98752957D01*
X106160589Y-98853944D01*
X106078411Y-99007690D01*
X106027804Y-99174513D01*
X106010718Y-99348003D01*
X106015000Y-99391482D01*
X106015000Y-101090152D01*
X105962603Y-101055142D01*
X105774245Y-100977121D01*
X105574286Y-100937347D01*
X105512149Y-100937347D01*
X102284999Y-97710198D01*
X102284999Y-97285000D01*
X102351939Y-97285000D01*
X102551898Y-97245226D01*
X102740256Y-97167205D01*
X102909774Y-97053937D01*
X103053937Y-96909774D01*
X103167205Y-96740256D01*
X103245226Y-96551898D01*
X103285000Y-96351939D01*
X103285000Y-96148061D01*
X103245226Y-95948102D01*
X103167205Y-95759744D01*
X103053937Y-95590226D01*
X103027791Y-95564080D01*
X103865525Y-95564080D01*
X103949208Y-95818261D01*
X104221775Y-95949158D01*
X104514642Y-96024365D01*
X104816553Y-96040991D01*
X105115907Y-95998397D01*
X105401199Y-95898222D01*
X105550792Y-95818261D01*
X105634475Y-95564080D01*
X104750000Y-94679605D01*
X103865525Y-95564080D01*
X103027791Y-95564080D01*
X103010000Y-95546289D01*
X103010000Y-94566553D01*
X103209009Y-94566553D01*
X103251603Y-94865907D01*
X103351778Y-95151199D01*
X103431739Y-95300792D01*
X103685920Y-95384475D01*
X104570395Y-94500000D01*
X103685920Y-93615525D01*
X103431739Y-93699208D01*
X103300842Y-93971775D01*
X103225635Y-94264642D01*
X103209009Y-94566553D01*
X103010000Y-94566553D01*
X103010000Y-93623799D01*
X103197879Y-93435920D01*
X103865525Y-93435920D01*
X104750000Y-94320395D01*
X105634475Y-93435920D01*
X105550792Y-93181739D01*
X105278225Y-93050842D01*
X104985358Y-92975635D01*
X104683447Y-92959009D01*
X104384093Y-93001603D01*
X104098801Y-93101778D01*
X103949208Y-93181739D01*
X103865525Y-93435920D01*
X103197879Y-93435920D01*
X107786300Y-88847499D01*
X110332106Y-88847499D01*
X110548228Y-89214258D01*
X111008105Y-89454938D01*
X111506098Y-89601275D01*
X112023071Y-89647648D01*
X112539159Y-89592273D01*
X113034526Y-89437279D01*
X113451772Y-89214258D01*
X113667894Y-88847499D01*
X112000000Y-87179605D01*
X110332106Y-88847499D01*
X107786300Y-88847499D01*
X109377389Y-87256411D01*
X109407727Y-87539159D01*
X109562721Y-88034526D01*
X109785742Y-88451772D01*
X110152501Y-88667894D01*
X111820395Y-87000000D01*
X112179605Y-87000000D01*
X113847499Y-88667894D01*
X114214258Y-88451772D01*
X114454938Y-87991895D01*
X114601275Y-87493902D01*
X114647648Y-86976929D01*
X114592273Y-86460841D01*
X114437279Y-85965474D01*
X114214258Y-85548228D01*
X113847499Y-85332106D01*
X112179605Y-87000000D01*
X111820395Y-87000000D01*
X111806253Y-86985858D01*
X111985858Y-86806253D01*
X112000000Y-86820395D01*
X113667894Y-85152501D01*
X113451772Y-84785742D01*
X112991895Y-84545062D01*
X112493902Y-84398725D01*
X112256380Y-84377419D01*
X115506798Y-81127002D01*
X115608748Y-81127002D01*
X115450000Y-81285750D01*
X115446928Y-81965000D01*
X115459188Y-82089482D01*
X115495498Y-82209180D01*
X115554463Y-82319494D01*
X115633815Y-82416185D01*
X115730506Y-82495537D01*
X115840820Y-82554502D01*
X115960518Y-82590812D01*
X116085000Y-82603072D01*
X116714250Y-82600000D01*
X116873000Y-82441250D01*
X116873000Y-81127000D01*
X116853000Y-81127000D01*
X116853000Y-80873000D01*
X116873000Y-80873000D01*
X116873000Y-80853000D01*
X117127000Y-80853000D01*
X117127000Y-80873000D01*
X117127000Y-80873000D01*
G37*
X117127000Y-80873000D02*
X117147000Y-80873000D01*
X117147000Y-81127000D01*
X117127000Y-81127000D01*
X117127000Y-82441250D01*
X117285750Y-82600000D01*
X117480002Y-82600948D01*
X117480001Y-87516422D01*
X111143460Y-93852963D01*
X111110299Y-93772905D01*
X110942312Y-93521495D01*
X110728505Y-93307688D01*
X110477095Y-93139701D01*
X110197743Y-93023989D01*
X109901184Y-92965000D01*
X109598816Y-92965000D01*
X109302257Y-93023989D01*
X109022905Y-93139701D01*
X108771495Y-93307688D01*
X108557688Y-93521495D01*
X108500000Y-93607831D01*
X108442312Y-93521495D01*
X108228505Y-93307688D01*
X107977095Y-93139701D01*
X107697743Y-93023989D01*
X107401184Y-92965000D01*
X107098816Y-92965000D01*
X106802257Y-93023989D01*
X106522905Y-93139701D01*
X106271495Y-93307688D01*
X106057688Y-93521495D01*
X105962262Y-93664310D01*
X105814080Y-93615525D01*
X104929605Y-94500000D01*
X105814080Y-95384475D01*
X105962262Y-95335690D01*
X106057688Y-95478505D01*
X106271495Y-95692312D01*
X106522905Y-95860299D01*
X106802257Y-95976011D01*
X107098816Y-96035000D01*
X107401184Y-96035000D01*
X107697743Y-95976011D01*
X107977095Y-95860299D01*
X108228505Y-95692312D01*
X108442312Y-95478505D01*
X108500000Y-95392169D01*
X108557688Y-95478505D01*
X108771495Y-95692312D01*
X109022905Y-95860299D01*
X109102963Y-95893460D01*
X106304951Y-98691473D01*
X106271183Y-98719186D01*
X106243470Y-98752954D01*
X106243467Y-98752957D01*
X106160589Y-98853944D01*
X106078411Y-99007690D01*
X106027804Y-99174513D01*
X106010718Y-99348003D01*
X106015000Y-99391482D01*
X106015000Y-101090152D01*
X105962603Y-101055142D01*
X105774245Y-100977121D01*
X105574286Y-100937347D01*
X105512149Y-100937347D01*
X102284999Y-97710198D01*
X102284999Y-97285000D01*
X102351939Y-97285000D01*
X102551898Y-97245226D01*
X102740256Y-97167205D01*
X102909774Y-97053937D01*
X103053937Y-96909774D01*
X103167205Y-96740256D01*
X103245226Y-96551898D01*
X103285000Y-96351939D01*
X103285000Y-96148061D01*
X103245226Y-95948102D01*
X103167205Y-95759744D01*
X103053937Y-95590226D01*
X103027791Y-95564080D01*
X103865525Y-95564080D01*
X103949208Y-95818261D01*
X104221775Y-95949158D01*
X104514642Y-96024365D01*
X104816553Y-96040991D01*
X105115907Y-95998397D01*
X105401199Y-95898222D01*
X105550792Y-95818261D01*
X105634475Y-95564080D01*
X104750000Y-94679605D01*
X103865525Y-95564080D01*
X103027791Y-95564080D01*
X103010000Y-95546289D01*
X103010000Y-94566553D01*
X103209009Y-94566553D01*
X103251603Y-94865907D01*
X103351778Y-95151199D01*
X103431739Y-95300792D01*
X103685920Y-95384475D01*
X104570395Y-94500000D01*
X103685920Y-93615525D01*
X103431739Y-93699208D01*
X103300842Y-93971775D01*
X103225635Y-94264642D01*
X103209009Y-94566553D01*
X103010000Y-94566553D01*
X103010000Y-93623799D01*
X103197879Y-93435920D01*
X103865525Y-93435920D01*
X104750000Y-94320395D01*
X105634475Y-93435920D01*
X105550792Y-93181739D01*
X105278225Y-93050842D01*
X104985358Y-92975635D01*
X104683447Y-92959009D01*
X104384093Y-93001603D01*
X104098801Y-93101778D01*
X103949208Y-93181739D01*
X103865525Y-93435920D01*
X103197879Y-93435920D01*
X107786300Y-88847499D01*
X110332106Y-88847499D01*
X110548228Y-89214258D01*
X111008105Y-89454938D01*
X111506098Y-89601275D01*
X112023071Y-89647648D01*
X112539159Y-89592273D01*
X113034526Y-89437279D01*
X113451772Y-89214258D01*
X113667894Y-88847499D01*
X112000000Y-87179605D01*
X110332106Y-88847499D01*
X107786300Y-88847499D01*
X109377389Y-87256411D01*
X109407727Y-87539159D01*
X109562721Y-88034526D01*
X109785742Y-88451772D01*
X110152501Y-88667894D01*
X111820395Y-87000000D01*
X112179605Y-87000000D01*
X113847499Y-88667894D01*
X114214258Y-88451772D01*
X114454938Y-87991895D01*
X114601275Y-87493902D01*
X114647648Y-86976929D01*
X114592273Y-86460841D01*
X114437279Y-85965474D01*
X114214258Y-85548228D01*
X113847499Y-85332106D01*
X112179605Y-87000000D01*
X111820395Y-87000000D01*
X111806253Y-86985858D01*
X111985858Y-86806253D01*
X112000000Y-86820395D01*
X113667894Y-85152501D01*
X113451772Y-84785742D01*
X112991895Y-84545062D01*
X112493902Y-84398725D01*
X112256380Y-84377419D01*
X115506798Y-81127002D01*
X115608748Y-81127002D01*
X115450000Y-81285750D01*
X115446928Y-81965000D01*
X115459188Y-82089482D01*
X115495498Y-82209180D01*
X115554463Y-82319494D01*
X115633815Y-82416185D01*
X115730506Y-82495537D01*
X115840820Y-82554502D01*
X115960518Y-82590812D01*
X116085000Y-82603072D01*
X116714250Y-82600000D01*
X116873000Y-82441250D01*
X116873000Y-81127000D01*
X116853000Y-81127000D01*
X116853000Y-80873000D01*
X116873000Y-80873000D01*
X116873000Y-80853000D01*
X117127000Y-80853000D01*
X117127000Y-80873000D01*
G36*
X102693748Y-86985858D02*
G01*
X102679605Y-87000000D01*
X102693748Y-87014143D01*
X102514143Y-87193748D01*
X102500000Y-87179605D01*
X102485858Y-87193748D01*
X102306253Y-87014143D01*
X102320395Y-87000000D01*
X102306253Y-86985858D01*
X102485858Y-86806253D01*
X102500000Y-86820395D01*
X102514143Y-86806253D01*
X102693748Y-86985858D01*
X102693748Y-86985858D01*
G37*
X102693748Y-86985858D02*
X102679605Y-87000000D01*
X102693748Y-87014143D01*
X102514143Y-87193748D01*
X102500000Y-87179605D01*
X102485858Y-87193748D01*
X102306253Y-87014143D01*
X102320395Y-87000000D01*
X102306253Y-86985858D01*
X102485858Y-86806253D01*
X102500000Y-86820395D01*
X102514143Y-86806253D01*
X102693748Y-86985858D01*
M02*
