G04 #@! TF.GenerationSoftware,KiCad,Pcbnew,(5.1.4)-1*
G04 #@! TF.CreationDate,2019-11-25T21:03:08-08:00*
G04 #@! TF.ProjectId,Attenuverter,41747465-6e75-4766-9572-7465722e6b69,rev?*
G04 #@! TF.SameCoordinates,Original*
G04 #@! TF.FileFunction,Legend,Top*
G04 #@! TF.FilePolarity,Positive*
%FSLAX46Y46*%
G04 Gerber Fmt 4.6, Leading zero omitted, Abs format (unit mm)*
G04 Created by KiCad (PCBNEW (5.1.4)-1) date 2019-11-25 21:03:08*
%MOMM*%
%LPD*%
G04 APERTURE LIST*
%ADD10C,0.120000*%
%ADD11C,0.150000*%
G04 APERTURE END LIST*
D10*
X101140000Y-56090000D02*
X113360000Y-56090000D01*
X110575000Y-67560000D02*
X113360000Y-67560000D01*
X108075000Y-67560000D02*
X108925000Y-67560000D01*
X105575000Y-67560000D02*
X106425000Y-67560000D01*
X101140000Y-67560000D02*
X103925000Y-67560000D01*
X113360000Y-59097000D02*
X113360000Y-56090000D01*
X113360000Y-67560000D02*
X113360000Y-62902000D01*
X101140000Y-59097000D02*
X101140000Y-56090000D01*
X101140000Y-67560000D02*
X101140000Y-62902000D01*
X109874100Y-62455624D02*
G75*
G02X104625000Y-62454000I-2624100J1455624D01*
G01*
X104625582Y-59545754D02*
G75*
G02X109874000Y-59545000I2624418J-1454246D01*
G01*
X101140000Y-134090000D02*
X113360000Y-134090000D01*
X110575000Y-145560000D02*
X113360000Y-145560000D01*
X108075000Y-145560000D02*
X108925000Y-145560000D01*
X105575000Y-145560000D02*
X106425000Y-145560000D01*
X101140000Y-145560000D02*
X103925000Y-145560000D01*
X113360000Y-137097000D02*
X113360000Y-134090000D01*
X113360000Y-145560000D02*
X113360000Y-140902000D01*
X101140000Y-137097000D02*
X101140000Y-134090000D01*
X101140000Y-145560000D02*
X101140000Y-140902000D01*
X109874100Y-140455624D02*
G75*
G02X104625000Y-140454000I-2624100J1455624D01*
G01*
X104625582Y-137545754D02*
G75*
G02X109874000Y-137545000I2624418J-1454246D01*
G01*
X118980000Y-59500000D02*
X129480000Y-59500000D01*
X118980000Y-50500000D02*
X129480000Y-50500000D01*
X129480000Y-50500000D02*
X129480000Y-54500000D01*
X129480000Y-55500000D02*
X129480000Y-59500000D01*
X118980000Y-50500000D02*
X118980000Y-54650000D01*
X118980000Y-55350000D02*
X118980000Y-59500000D01*
X125280000Y-55000000D02*
G75*
G03X125280000Y-55000000I-1800000J0D01*
G01*
X116000000Y-56060000D02*
X116800000Y-56060000D01*
X116000000Y-56060000D02*
X116000000Y-55200000D01*
X118980000Y-71500000D02*
X129480000Y-71500000D01*
X118980000Y-62500000D02*
X129480000Y-62500000D01*
X129480000Y-62500000D02*
X129480000Y-66500000D01*
X129480000Y-67500000D02*
X129480000Y-71500000D01*
X118980000Y-62500000D02*
X118980000Y-66650000D01*
X118980000Y-67350000D02*
X118980000Y-71500000D01*
X125280000Y-67000000D02*
G75*
G03X125280000Y-67000000I-1800000J0D01*
G01*
X116000000Y-68060000D02*
X116800000Y-68060000D01*
X116000000Y-68060000D02*
X116000000Y-67200000D01*
X118980000Y-85500000D02*
X129480000Y-85500000D01*
X118980000Y-76500000D02*
X129480000Y-76500000D01*
X129480000Y-76500000D02*
X129480000Y-80500000D01*
X129480000Y-81500000D02*
X129480000Y-85500000D01*
X118980000Y-76500000D02*
X118980000Y-80650000D01*
X118980000Y-81350000D02*
X118980000Y-85500000D01*
X125280000Y-81000000D02*
G75*
G03X125280000Y-81000000I-1800000J0D01*
G01*
X116000000Y-82060000D02*
X116800000Y-82060000D01*
X116000000Y-82060000D02*
X116000000Y-81200000D01*
X118980000Y-97500000D02*
X129480000Y-97500000D01*
X118980000Y-88500000D02*
X129480000Y-88500000D01*
X129480000Y-88500000D02*
X129480000Y-92500000D01*
X129480000Y-93500000D02*
X129480000Y-97500000D01*
X118980000Y-88500000D02*
X118980000Y-92650000D01*
X118980000Y-93350000D02*
X118980000Y-97500000D01*
X125280000Y-93000000D02*
G75*
G03X125280000Y-93000000I-1800000J0D01*
G01*
X116000000Y-94060000D02*
X116800000Y-94060000D01*
X116000000Y-94060000D02*
X116000000Y-93200000D01*
X118980000Y-111500000D02*
X129480000Y-111500000D01*
X118980000Y-102500000D02*
X129480000Y-102500000D01*
X129480000Y-102500000D02*
X129480000Y-106500000D01*
X129480000Y-107500000D02*
X129480000Y-111500000D01*
X118980000Y-102500000D02*
X118980000Y-106650000D01*
X118980000Y-107350000D02*
X118980000Y-111500000D01*
X125280000Y-107000000D02*
G75*
G03X125280000Y-107000000I-1800000J0D01*
G01*
X116000000Y-108060000D02*
X116800000Y-108060000D01*
X116000000Y-108060000D02*
X116000000Y-107200000D01*
X118980000Y-123500000D02*
X129480000Y-123500000D01*
X118980000Y-114500000D02*
X129480000Y-114500000D01*
X129480000Y-114500000D02*
X129480000Y-118500000D01*
X129480000Y-119500000D02*
X129480000Y-123500000D01*
X118980000Y-114500000D02*
X118980000Y-118650000D01*
X118980000Y-119350000D02*
X118980000Y-123500000D01*
X125280000Y-119000000D02*
G75*
G03X125280000Y-119000000I-1800000J0D01*
G01*
X116000000Y-120060000D02*
X116800000Y-120060000D01*
X116000000Y-120060000D02*
X116000000Y-119200000D01*
X118980000Y-137500000D02*
X129480000Y-137500000D01*
X118980000Y-128500000D02*
X129480000Y-128500000D01*
X129480000Y-128500000D02*
X129480000Y-132500000D01*
X129480000Y-133500000D02*
X129480000Y-137500000D01*
X118980000Y-128500000D02*
X118980000Y-132650000D01*
X118980000Y-133350000D02*
X118980000Y-137500000D01*
X125280000Y-133000000D02*
G75*
G03X125280000Y-133000000I-1800000J0D01*
G01*
X116000000Y-134060000D02*
X116800000Y-134060000D01*
X116000000Y-134060000D02*
X116000000Y-133200000D01*
X118980000Y-149500000D02*
X129480000Y-149500000D01*
X118980000Y-140500000D02*
X129480000Y-140500000D01*
X129480000Y-140500000D02*
X129480000Y-144500000D01*
X129480000Y-145500000D02*
X129480000Y-149500000D01*
X118980000Y-140500000D02*
X118980000Y-144650000D01*
X118980000Y-145350000D02*
X118980000Y-149500000D01*
X125280000Y-145000000D02*
G75*
G03X125280000Y-145000000I-1800000J0D01*
G01*
X116000000Y-146060000D02*
X116800000Y-146060000D01*
X116000000Y-146060000D02*
X116000000Y-145200000D01*
X101140000Y-82090000D02*
X113360000Y-82090000D01*
X110575000Y-93560000D02*
X113360000Y-93560000D01*
X108075000Y-93560000D02*
X108925000Y-93560000D01*
X105575000Y-93560000D02*
X106425000Y-93560000D01*
X101140000Y-93560000D02*
X103925000Y-93560000D01*
X113360000Y-85097000D02*
X113360000Y-82090000D01*
X113360000Y-93560000D02*
X113360000Y-88902000D01*
X101140000Y-85097000D02*
X101140000Y-82090000D01*
X101140000Y-93560000D02*
X101140000Y-88902000D01*
X109874100Y-88455624D02*
G75*
G02X104625000Y-88454000I-2624100J1455624D01*
G01*
X104625582Y-85545754D02*
G75*
G02X109874000Y-85545000I2624418J-1454246D01*
G01*
X101140000Y-108090000D02*
X113360000Y-108090000D01*
X110575000Y-119560000D02*
X113360000Y-119560000D01*
X108075000Y-119560000D02*
X108925000Y-119560000D01*
X105575000Y-119560000D02*
X106425000Y-119560000D01*
X101140000Y-119560000D02*
X103925000Y-119560000D01*
X113360000Y-111097000D02*
X113360000Y-108090000D01*
X113360000Y-119560000D02*
X113360000Y-114902000D01*
X101140000Y-111097000D02*
X101140000Y-108090000D01*
X101140000Y-119560000D02*
X101140000Y-114902000D01*
X109874100Y-114455624D02*
G75*
G02X104625000Y-114454000I-2624100J1455624D01*
G01*
X104625582Y-111545754D02*
G75*
G02X109874000Y-111545000I2624418J-1454246D01*
G01*
D11*
X100904761Y-55452380D02*
X100571428Y-54976190D01*
X100333333Y-55452380D02*
X100333333Y-54452380D01*
X100714285Y-54452380D01*
X100809523Y-54500000D01*
X100857142Y-54547619D01*
X100904761Y-54642857D01*
X100904761Y-54785714D01*
X100857142Y-54880952D01*
X100809523Y-54928571D01*
X100714285Y-54976190D01*
X100333333Y-54976190D01*
X101190476Y-54452380D02*
X101523809Y-55452380D01*
X101857142Y-54452380D01*
X102714285Y-55452380D02*
X102142857Y-55452380D01*
X102428571Y-55452380D02*
X102428571Y-54452380D01*
X102333333Y-54595238D01*
X102238095Y-54690476D01*
X102142857Y-54738095D01*
X100904761Y-133452380D02*
X100571428Y-132976190D01*
X100333333Y-133452380D02*
X100333333Y-132452380D01*
X100714285Y-132452380D01*
X100809523Y-132500000D01*
X100857142Y-132547619D01*
X100904761Y-132642857D01*
X100904761Y-132785714D01*
X100857142Y-132880952D01*
X100809523Y-132928571D01*
X100714285Y-132976190D01*
X100333333Y-132976190D01*
X101190476Y-132452380D02*
X101523809Y-133452380D01*
X101857142Y-132452380D01*
X102619047Y-132785714D02*
X102619047Y-133452380D01*
X102380952Y-132404761D02*
X102142857Y-133119047D01*
X102761904Y-133119047D01*
X117532380Y-59363333D02*
X118246666Y-59363333D01*
X118389523Y-59410952D01*
X118484761Y-59506190D01*
X118532380Y-59649047D01*
X118532380Y-59744285D01*
X118532380Y-58363333D02*
X118532380Y-58934761D01*
X118532380Y-58649047D02*
X117532380Y-58649047D01*
X117675238Y-58744285D01*
X117770476Y-58839523D01*
X117818095Y-58934761D01*
X117532380Y-71363333D02*
X118246666Y-71363333D01*
X118389523Y-71410952D01*
X118484761Y-71506190D01*
X118532380Y-71649047D01*
X118532380Y-71744285D01*
X117627619Y-70934761D02*
X117580000Y-70887142D01*
X117532380Y-70791904D01*
X117532380Y-70553809D01*
X117580000Y-70458571D01*
X117627619Y-70410952D01*
X117722857Y-70363333D01*
X117818095Y-70363333D01*
X117960952Y-70410952D01*
X118532380Y-70982380D01*
X118532380Y-70363333D01*
X117532380Y-85363333D02*
X118246666Y-85363333D01*
X118389523Y-85410952D01*
X118484761Y-85506190D01*
X118532380Y-85649047D01*
X118532380Y-85744285D01*
X117532380Y-84982380D02*
X117532380Y-84363333D01*
X117913333Y-84696666D01*
X117913333Y-84553809D01*
X117960952Y-84458571D01*
X118008571Y-84410952D01*
X118103809Y-84363333D01*
X118341904Y-84363333D01*
X118437142Y-84410952D01*
X118484761Y-84458571D01*
X118532380Y-84553809D01*
X118532380Y-84839523D01*
X118484761Y-84934761D01*
X118437142Y-84982380D01*
X117532380Y-97363333D02*
X118246666Y-97363333D01*
X118389523Y-97410952D01*
X118484761Y-97506190D01*
X118532380Y-97649047D01*
X118532380Y-97744285D01*
X117865714Y-96458571D02*
X118532380Y-96458571D01*
X117484761Y-96696666D02*
X118199047Y-96934761D01*
X118199047Y-96315714D01*
X117532380Y-111363333D02*
X118246666Y-111363333D01*
X118389523Y-111410952D01*
X118484761Y-111506190D01*
X118532380Y-111649047D01*
X118532380Y-111744285D01*
X117532380Y-110410952D02*
X117532380Y-110887142D01*
X118008571Y-110934761D01*
X117960952Y-110887142D01*
X117913333Y-110791904D01*
X117913333Y-110553809D01*
X117960952Y-110458571D01*
X118008571Y-110410952D01*
X118103809Y-110363333D01*
X118341904Y-110363333D01*
X118437142Y-110410952D01*
X118484761Y-110458571D01*
X118532380Y-110553809D01*
X118532380Y-110791904D01*
X118484761Y-110887142D01*
X118437142Y-110934761D01*
X117532380Y-123363333D02*
X118246666Y-123363333D01*
X118389523Y-123410952D01*
X118484761Y-123506190D01*
X118532380Y-123649047D01*
X118532380Y-123744285D01*
X117532380Y-122458571D02*
X117532380Y-122649047D01*
X117580000Y-122744285D01*
X117627619Y-122791904D01*
X117770476Y-122887142D01*
X117960952Y-122934761D01*
X118341904Y-122934761D01*
X118437142Y-122887142D01*
X118484761Y-122839523D01*
X118532380Y-122744285D01*
X118532380Y-122553809D01*
X118484761Y-122458571D01*
X118437142Y-122410952D01*
X118341904Y-122363333D01*
X118103809Y-122363333D01*
X118008571Y-122410952D01*
X117960952Y-122458571D01*
X117913333Y-122553809D01*
X117913333Y-122744285D01*
X117960952Y-122839523D01*
X118008571Y-122887142D01*
X118103809Y-122934761D01*
X117532380Y-137363333D02*
X118246666Y-137363333D01*
X118389523Y-137410952D01*
X118484761Y-137506190D01*
X118532380Y-137649047D01*
X118532380Y-137744285D01*
X117960952Y-136744285D02*
X117913333Y-136839523D01*
X117865714Y-136887142D01*
X117770476Y-136934761D01*
X117722857Y-136934761D01*
X117627619Y-136887142D01*
X117580000Y-136839523D01*
X117532380Y-136744285D01*
X117532380Y-136553809D01*
X117580000Y-136458571D01*
X117627619Y-136410952D01*
X117722857Y-136363333D01*
X117770476Y-136363333D01*
X117865714Y-136410952D01*
X117913333Y-136458571D01*
X117960952Y-136553809D01*
X117960952Y-136744285D01*
X118008571Y-136839523D01*
X118056190Y-136887142D01*
X118151428Y-136934761D01*
X118341904Y-136934761D01*
X118437142Y-136887142D01*
X118484761Y-136839523D01*
X118532380Y-136744285D01*
X118532380Y-136553809D01*
X118484761Y-136458571D01*
X118437142Y-136410952D01*
X118341904Y-136363333D01*
X118151428Y-136363333D01*
X118056190Y-136410952D01*
X118008571Y-136458571D01*
X117960952Y-136553809D01*
X117532380Y-149363333D02*
X118246666Y-149363333D01*
X118389523Y-149410952D01*
X118484761Y-149506190D01*
X118532380Y-149649047D01*
X118532380Y-149744285D01*
X118532380Y-148839523D02*
X118532380Y-148649047D01*
X118484761Y-148553809D01*
X118437142Y-148506190D01*
X118294285Y-148410952D01*
X118103809Y-148363333D01*
X117722857Y-148363333D01*
X117627619Y-148410952D01*
X117580000Y-148458571D01*
X117532380Y-148553809D01*
X117532380Y-148744285D01*
X117580000Y-148839523D01*
X117627619Y-148887142D01*
X117722857Y-148934761D01*
X117960952Y-148934761D01*
X118056190Y-148887142D01*
X118103809Y-148839523D01*
X118151428Y-148744285D01*
X118151428Y-148553809D01*
X118103809Y-148458571D01*
X118056190Y-148410952D01*
X117960952Y-148363333D01*
X100904761Y-81452380D02*
X100571428Y-80976190D01*
X100333333Y-81452380D02*
X100333333Y-80452380D01*
X100714285Y-80452380D01*
X100809523Y-80500000D01*
X100857142Y-80547619D01*
X100904761Y-80642857D01*
X100904761Y-80785714D01*
X100857142Y-80880952D01*
X100809523Y-80928571D01*
X100714285Y-80976190D01*
X100333333Y-80976190D01*
X101190476Y-80452380D02*
X101523809Y-81452380D01*
X101857142Y-80452380D01*
X102142857Y-80547619D02*
X102190476Y-80500000D01*
X102285714Y-80452380D01*
X102523809Y-80452380D01*
X102619047Y-80500000D01*
X102666666Y-80547619D01*
X102714285Y-80642857D01*
X102714285Y-80738095D01*
X102666666Y-80880952D01*
X102095238Y-81452380D01*
X102714285Y-81452380D01*
X100904761Y-107452380D02*
X100571428Y-106976190D01*
X100333333Y-107452380D02*
X100333333Y-106452380D01*
X100714285Y-106452380D01*
X100809523Y-106500000D01*
X100857142Y-106547619D01*
X100904761Y-106642857D01*
X100904761Y-106785714D01*
X100857142Y-106880952D01*
X100809523Y-106928571D01*
X100714285Y-106976190D01*
X100333333Y-106976190D01*
X101190476Y-106452380D02*
X101523809Y-107452380D01*
X101857142Y-106452380D01*
X102095238Y-106452380D02*
X102714285Y-106452380D01*
X102380952Y-106833333D01*
X102523809Y-106833333D01*
X102619047Y-106880952D01*
X102666666Y-106928571D01*
X102714285Y-107023809D01*
X102714285Y-107261904D01*
X102666666Y-107357142D01*
X102619047Y-107404761D01*
X102523809Y-107452380D01*
X102238095Y-107452380D01*
X102142857Y-107404761D01*
X102095238Y-107357142D01*
M02*
