G04 #@! TF.GenerationSoftware,KiCad,Pcbnew,10.0.6*
G04 #@! TF.CreationDate,2026-10-07T16:45:18-07:00*
G04 #@! TF.ProjectId,Attenuverter,41747465-6e75-4766-9572-7465722e6b69,1.1*
G04 #@! TF.SameCoordinates,Original*
G04 #@! TF.FileFunction,Legend,Top*
G04 #@! TF.FilePolarity,Positive*
%FSLAX46Y46*%
G04 Gerber Fmt 4.6, Leading zero omitted, Abs format (unit mm)*
G04 Created by KiCad (PCBNEW 10.0.6) date 2026-10-07 16:45:18*
%MOMM*%
%LPD*%
G01*
G04 APERTURE LIST*
%ADD10C,0.150000*%
%ADD11C,0.120000*%
G04 APERTURE END LIST*
D10*
X117856646Y-97363333D02*
X118570931Y-97363333D01*
X118570931Y-97363333D02*
X118713788Y-97410952D01*
X118713788Y-97410952D02*
X118809027Y-97506190D01*
X118809027Y-97506190D02*
X118856646Y-97649047D01*
X118856646Y-97649047D02*
X118856646Y-97744285D01*
X118189979Y-96458571D02*
X118856646Y-96458571D01*
X117809027Y-96696666D02*
X118523312Y-96934761D01*
X118523312Y-96934761D02*
X118523312Y-96315714D01*
X117856646Y-59363333D02*
X118570931Y-59363333D01*
X118570931Y-59363333D02*
X118713788Y-59410952D01*
X118713788Y-59410952D02*
X118809027Y-59506190D01*
X118809027Y-59506190D02*
X118856646Y-59649047D01*
X118856646Y-59649047D02*
X118856646Y-59744285D01*
X118856646Y-58363333D02*
X118856646Y-58934761D01*
X118856646Y-58649047D02*
X117856646Y-58649047D01*
X117856646Y-58649047D02*
X117999503Y-58744285D01*
X117999503Y-58744285D02*
X118094741Y-58839523D01*
X118094741Y-58839523D02*
X118142360Y-58934761D01*
X117856646Y-123363333D02*
X118570931Y-123363333D01*
X118570931Y-123363333D02*
X118713788Y-123410952D01*
X118713788Y-123410952D02*
X118809027Y-123506190D01*
X118809027Y-123506190D02*
X118856646Y-123649047D01*
X118856646Y-123649047D02*
X118856646Y-123744285D01*
X117856646Y-122458571D02*
X117856646Y-122649047D01*
X117856646Y-122649047D02*
X117904265Y-122744285D01*
X117904265Y-122744285D02*
X117951884Y-122791904D01*
X117951884Y-122791904D02*
X118094741Y-122887142D01*
X118094741Y-122887142D02*
X118285217Y-122934761D01*
X118285217Y-122934761D02*
X118666169Y-122934761D01*
X118666169Y-122934761D02*
X118761407Y-122887142D01*
X118761407Y-122887142D02*
X118809027Y-122839523D01*
X118809027Y-122839523D02*
X118856646Y-122744285D01*
X118856646Y-122744285D02*
X118856646Y-122553809D01*
X118856646Y-122553809D02*
X118809027Y-122458571D01*
X118809027Y-122458571D02*
X118761407Y-122410952D01*
X118761407Y-122410952D02*
X118666169Y-122363333D01*
X118666169Y-122363333D02*
X118428074Y-122363333D01*
X118428074Y-122363333D02*
X118332836Y-122410952D01*
X118332836Y-122410952D02*
X118285217Y-122458571D01*
X118285217Y-122458571D02*
X118237598Y-122553809D01*
X118237598Y-122553809D02*
X118237598Y-122744285D01*
X118237598Y-122744285D02*
X118285217Y-122839523D01*
X118285217Y-122839523D02*
X118332836Y-122887142D01*
X118332836Y-122887142D02*
X118428074Y-122934761D01*
X117856646Y-85363333D02*
X118570931Y-85363333D01*
X118570931Y-85363333D02*
X118713788Y-85410952D01*
X118713788Y-85410952D02*
X118809027Y-85506190D01*
X118809027Y-85506190D02*
X118856646Y-85649047D01*
X118856646Y-85649047D02*
X118856646Y-85744285D01*
X117856646Y-84982380D02*
X117856646Y-84363333D01*
X117856646Y-84363333D02*
X118237598Y-84696666D01*
X118237598Y-84696666D02*
X118237598Y-84553809D01*
X118237598Y-84553809D02*
X118285217Y-84458571D01*
X118285217Y-84458571D02*
X118332836Y-84410952D01*
X118332836Y-84410952D02*
X118428074Y-84363333D01*
X118428074Y-84363333D02*
X118666169Y-84363333D01*
X118666169Y-84363333D02*
X118761407Y-84410952D01*
X118761407Y-84410952D02*
X118809027Y-84458571D01*
X118809027Y-84458571D02*
X118856646Y-84553809D01*
X118856646Y-84553809D02*
X118856646Y-84839523D01*
X118856646Y-84839523D02*
X118809027Y-84934761D01*
X118809027Y-84934761D02*
X118761407Y-84982380D01*
X117856646Y-149363333D02*
X118570931Y-149363333D01*
X118570931Y-149363333D02*
X118713788Y-149410952D01*
X118713788Y-149410952D02*
X118809027Y-149506190D01*
X118809027Y-149506190D02*
X118856646Y-149649047D01*
X118856646Y-149649047D02*
X118856646Y-149744285D01*
X118856646Y-148839523D02*
X118856646Y-148649047D01*
X118856646Y-148649047D02*
X118809027Y-148553809D01*
X118809027Y-148553809D02*
X118761407Y-148506190D01*
X118761407Y-148506190D02*
X118618550Y-148410952D01*
X118618550Y-148410952D02*
X118428074Y-148363333D01*
X118428074Y-148363333D02*
X118047122Y-148363333D01*
X118047122Y-148363333D02*
X117951884Y-148410952D01*
X117951884Y-148410952D02*
X117904265Y-148458571D01*
X117904265Y-148458571D02*
X117856646Y-148553809D01*
X117856646Y-148553809D02*
X117856646Y-148744285D01*
X117856646Y-148744285D02*
X117904265Y-148839523D01*
X117904265Y-148839523D02*
X117951884Y-148887142D01*
X117951884Y-148887142D02*
X118047122Y-148934761D01*
X118047122Y-148934761D02*
X118285217Y-148934761D01*
X118285217Y-148934761D02*
X118380455Y-148887142D01*
X118380455Y-148887142D02*
X118428074Y-148839523D01*
X118428074Y-148839523D02*
X118475693Y-148744285D01*
X118475693Y-148744285D02*
X118475693Y-148553809D01*
X118475693Y-148553809D02*
X118428074Y-148458571D01*
X118428074Y-148458571D02*
X118380455Y-148410952D01*
X118380455Y-148410952D02*
X118285217Y-148363333D01*
X117856646Y-137363333D02*
X118570931Y-137363333D01*
X118570931Y-137363333D02*
X118713788Y-137410952D01*
X118713788Y-137410952D02*
X118809027Y-137506190D01*
X118809027Y-137506190D02*
X118856646Y-137649047D01*
X118856646Y-137649047D02*
X118856646Y-137744285D01*
X118285217Y-136744285D02*
X118237598Y-136839523D01*
X118237598Y-136839523D02*
X118189979Y-136887142D01*
X118189979Y-136887142D02*
X118094741Y-136934761D01*
X118094741Y-136934761D02*
X118047122Y-136934761D01*
X118047122Y-136934761D02*
X117951884Y-136887142D01*
X117951884Y-136887142D02*
X117904265Y-136839523D01*
X117904265Y-136839523D02*
X117856646Y-136744285D01*
X117856646Y-136744285D02*
X117856646Y-136553809D01*
X117856646Y-136553809D02*
X117904265Y-136458571D01*
X117904265Y-136458571D02*
X117951884Y-136410952D01*
X117951884Y-136410952D02*
X118047122Y-136363333D01*
X118047122Y-136363333D02*
X118094741Y-136363333D01*
X118094741Y-136363333D02*
X118189979Y-136410952D01*
X118189979Y-136410952D02*
X118237598Y-136458571D01*
X118237598Y-136458571D02*
X118285217Y-136553809D01*
X118285217Y-136553809D02*
X118285217Y-136744285D01*
X118285217Y-136744285D02*
X118332836Y-136839523D01*
X118332836Y-136839523D02*
X118380455Y-136887142D01*
X118380455Y-136887142D02*
X118475693Y-136934761D01*
X118475693Y-136934761D02*
X118666169Y-136934761D01*
X118666169Y-136934761D02*
X118761407Y-136887142D01*
X118761407Y-136887142D02*
X118809027Y-136839523D01*
X118809027Y-136839523D02*
X118856646Y-136744285D01*
X118856646Y-136744285D02*
X118856646Y-136553809D01*
X118856646Y-136553809D02*
X118809027Y-136458571D01*
X118809027Y-136458571D02*
X118761407Y-136410952D01*
X118761407Y-136410952D02*
X118666169Y-136363333D01*
X118666169Y-136363333D02*
X118475693Y-136363333D01*
X118475693Y-136363333D02*
X118380455Y-136410952D01*
X118380455Y-136410952D02*
X118332836Y-136458571D01*
X118332836Y-136458571D02*
X118285217Y-136553809D01*
X117856646Y-111363333D02*
X118570931Y-111363333D01*
X118570931Y-111363333D02*
X118713788Y-111410952D01*
X118713788Y-111410952D02*
X118809027Y-111506190D01*
X118809027Y-111506190D02*
X118856646Y-111649047D01*
X118856646Y-111649047D02*
X118856646Y-111744285D01*
X117856646Y-110410952D02*
X117856646Y-110887142D01*
X117856646Y-110887142D02*
X118332836Y-110934761D01*
X118332836Y-110934761D02*
X118285217Y-110887142D01*
X118285217Y-110887142D02*
X118237598Y-110791904D01*
X118237598Y-110791904D02*
X118237598Y-110553809D01*
X118237598Y-110553809D02*
X118285217Y-110458571D01*
X118285217Y-110458571D02*
X118332836Y-110410952D01*
X118332836Y-110410952D02*
X118428074Y-110363333D01*
X118428074Y-110363333D02*
X118666169Y-110363333D01*
X118666169Y-110363333D02*
X118761407Y-110410952D01*
X118761407Y-110410952D02*
X118809027Y-110458571D01*
X118809027Y-110458571D02*
X118856646Y-110553809D01*
X118856646Y-110553809D02*
X118856646Y-110791904D01*
X118856646Y-110791904D02*
X118809027Y-110887142D01*
X118809027Y-110887142D02*
X118761407Y-110934761D01*
X100904761Y-81454819D02*
X100571428Y-80978628D01*
X100333333Y-81454819D02*
X100333333Y-80454819D01*
X100333333Y-80454819D02*
X100714285Y-80454819D01*
X100714285Y-80454819D02*
X100809523Y-80502438D01*
X100809523Y-80502438D02*
X100857142Y-80550057D01*
X100857142Y-80550057D02*
X100904761Y-80645295D01*
X100904761Y-80645295D02*
X100904761Y-80788152D01*
X100904761Y-80788152D02*
X100857142Y-80883390D01*
X100857142Y-80883390D02*
X100809523Y-80931009D01*
X100809523Y-80931009D02*
X100714285Y-80978628D01*
X100714285Y-80978628D02*
X100333333Y-80978628D01*
X101190476Y-80454819D02*
X101523809Y-81454819D01*
X101523809Y-81454819D02*
X101857142Y-80454819D01*
X102142857Y-80550057D02*
X102190476Y-80502438D01*
X102190476Y-80502438D02*
X102285714Y-80454819D01*
X102285714Y-80454819D02*
X102523809Y-80454819D01*
X102523809Y-80454819D02*
X102619047Y-80502438D01*
X102619047Y-80502438D02*
X102666666Y-80550057D01*
X102666666Y-80550057D02*
X102714285Y-80645295D01*
X102714285Y-80645295D02*
X102714285Y-80740533D01*
X102714285Y-80740533D02*
X102666666Y-80883390D01*
X102666666Y-80883390D02*
X102095238Y-81454819D01*
X102095238Y-81454819D02*
X102714285Y-81454819D01*
X100904761Y-107454819D02*
X100571428Y-106978628D01*
X100333333Y-107454819D02*
X100333333Y-106454819D01*
X100333333Y-106454819D02*
X100714285Y-106454819D01*
X100714285Y-106454819D02*
X100809523Y-106502438D01*
X100809523Y-106502438D02*
X100857142Y-106550057D01*
X100857142Y-106550057D02*
X100904761Y-106645295D01*
X100904761Y-106645295D02*
X100904761Y-106788152D01*
X100904761Y-106788152D02*
X100857142Y-106883390D01*
X100857142Y-106883390D02*
X100809523Y-106931009D01*
X100809523Y-106931009D02*
X100714285Y-106978628D01*
X100714285Y-106978628D02*
X100333333Y-106978628D01*
X101190476Y-106454819D02*
X101523809Y-107454819D01*
X101523809Y-107454819D02*
X101857142Y-106454819D01*
X102095238Y-106454819D02*
X102714285Y-106454819D01*
X102714285Y-106454819D02*
X102380952Y-106835771D01*
X102380952Y-106835771D02*
X102523809Y-106835771D01*
X102523809Y-106835771D02*
X102619047Y-106883390D01*
X102619047Y-106883390D02*
X102666666Y-106931009D01*
X102666666Y-106931009D02*
X102714285Y-107026247D01*
X102714285Y-107026247D02*
X102714285Y-107264342D01*
X102714285Y-107264342D02*
X102666666Y-107359580D01*
X102666666Y-107359580D02*
X102619047Y-107407200D01*
X102619047Y-107407200D02*
X102523809Y-107454819D01*
X102523809Y-107454819D02*
X102238095Y-107454819D01*
X102238095Y-107454819D02*
X102142857Y-107407200D01*
X102142857Y-107407200D02*
X102095238Y-107359580D01*
X100904761Y-133454819D02*
X100571428Y-132978628D01*
X100333333Y-133454819D02*
X100333333Y-132454819D01*
X100333333Y-132454819D02*
X100714285Y-132454819D01*
X100714285Y-132454819D02*
X100809523Y-132502438D01*
X100809523Y-132502438D02*
X100857142Y-132550057D01*
X100857142Y-132550057D02*
X100904761Y-132645295D01*
X100904761Y-132645295D02*
X100904761Y-132788152D01*
X100904761Y-132788152D02*
X100857142Y-132883390D01*
X100857142Y-132883390D02*
X100809523Y-132931009D01*
X100809523Y-132931009D02*
X100714285Y-132978628D01*
X100714285Y-132978628D02*
X100333333Y-132978628D01*
X101190476Y-132454819D02*
X101523809Y-133454819D01*
X101523809Y-133454819D02*
X101857142Y-132454819D01*
X102619047Y-132788152D02*
X102619047Y-133454819D01*
X102380952Y-132407200D02*
X102142857Y-133121485D01*
X102142857Y-133121485D02*
X102761904Y-133121485D01*
X100904761Y-55454819D02*
X100571428Y-54978628D01*
X100333333Y-55454819D02*
X100333333Y-54454819D01*
X100333333Y-54454819D02*
X100714285Y-54454819D01*
X100714285Y-54454819D02*
X100809523Y-54502438D01*
X100809523Y-54502438D02*
X100857142Y-54550057D01*
X100857142Y-54550057D02*
X100904761Y-54645295D01*
X100904761Y-54645295D02*
X100904761Y-54788152D01*
X100904761Y-54788152D02*
X100857142Y-54883390D01*
X100857142Y-54883390D02*
X100809523Y-54931009D01*
X100809523Y-54931009D02*
X100714285Y-54978628D01*
X100714285Y-54978628D02*
X100333333Y-54978628D01*
X101190476Y-54454819D02*
X101523809Y-55454819D01*
X101523809Y-55454819D02*
X101857142Y-54454819D01*
X102714285Y-55454819D02*
X102142857Y-55454819D01*
X102428571Y-55454819D02*
X102428571Y-54454819D01*
X102428571Y-54454819D02*
X102333333Y-54597676D01*
X102333333Y-54597676D02*
X102238095Y-54692914D01*
X102238095Y-54692914D02*
X102142857Y-54740533D01*
X117856646Y-71363333D02*
X118570931Y-71363333D01*
X118570931Y-71363333D02*
X118713788Y-71410952D01*
X118713788Y-71410952D02*
X118809027Y-71506190D01*
X118809027Y-71506190D02*
X118856646Y-71649047D01*
X118856646Y-71649047D02*
X118856646Y-71744285D01*
X117951884Y-70934761D02*
X117904265Y-70887142D01*
X117904265Y-70887142D02*
X117856646Y-70791904D01*
X117856646Y-70791904D02*
X117856646Y-70553809D01*
X117856646Y-70553809D02*
X117904265Y-70458571D01*
X117904265Y-70458571D02*
X117951884Y-70410952D01*
X117951884Y-70410952D02*
X118047122Y-70363333D01*
X118047122Y-70363333D02*
X118142360Y-70363333D01*
X118142360Y-70363333D02*
X118285217Y-70410952D01*
X118285217Y-70410952D02*
X118856646Y-70982380D01*
X118856646Y-70982380D02*
X118856646Y-70363333D01*
D11*
X116321827Y-94060000D02*
X116321827Y-93200000D01*
X116321827Y-94060000D02*
X117121827Y-94060000D01*
X119301827Y-88500000D02*
X119301827Y-92650000D01*
X119301827Y-88500000D02*
X129801827Y-88500000D01*
X119301827Y-93350000D02*
X119301827Y-97500000D01*
X119301827Y-97500000D02*
X129801827Y-97500000D01*
X129801827Y-88500000D02*
X129801827Y-92500000D01*
X129801827Y-93500000D02*
X129801827Y-97500000D01*
X125601827Y-93000000D02*
G75*
G02*
X122001827Y-93000000I-1800000J0D01*
G01*
X122001827Y-93000000D02*
G75*
G02*
X125601827Y-93000000I1800000J0D01*
G01*
X116321827Y-56060000D02*
X116321827Y-55200000D01*
X116321827Y-56060000D02*
X117121827Y-56060000D01*
X119301827Y-50500000D02*
X119301827Y-54650000D01*
X119301827Y-50500000D02*
X129801827Y-50500000D01*
X119301827Y-55350000D02*
X119301827Y-59500000D01*
X119301827Y-59500000D02*
X129801827Y-59500000D01*
X129801827Y-50500000D02*
X129801827Y-54500000D01*
X129801827Y-55500000D02*
X129801827Y-59500000D01*
X125601827Y-55000000D02*
G75*
G02*
X122001827Y-55000000I-1800000J0D01*
G01*
X122001827Y-55000000D02*
G75*
G02*
X125601827Y-55000000I1800000J0D01*
G01*
X116321827Y-120060000D02*
X116321827Y-119200000D01*
X116321827Y-120060000D02*
X117121827Y-120060000D01*
X119301827Y-114500000D02*
X119301827Y-118650000D01*
X119301827Y-114500000D02*
X129801827Y-114500000D01*
X119301827Y-119350000D02*
X119301827Y-123500000D01*
X119301827Y-123500000D02*
X129801827Y-123500000D01*
X129801827Y-114500000D02*
X129801827Y-118500000D01*
X129801827Y-119500000D02*
X129801827Y-123500000D01*
X125601827Y-119000000D02*
G75*
G02*
X122001827Y-119000000I-1800000J0D01*
G01*
X122001827Y-119000000D02*
G75*
G02*
X125601827Y-119000000I1800000J0D01*
G01*
X116321827Y-82060000D02*
X116321827Y-81200000D01*
X116321827Y-82060000D02*
X117121827Y-82060000D01*
X119301827Y-76500000D02*
X119301827Y-80650000D01*
X119301827Y-76500000D02*
X129801827Y-76500000D01*
X119301827Y-81350000D02*
X119301827Y-85500000D01*
X119301827Y-85500000D02*
X129801827Y-85500000D01*
X129801827Y-76500000D02*
X129801827Y-80500000D01*
X129801827Y-81500000D02*
X129801827Y-85500000D01*
X125601827Y-81000000D02*
G75*
G02*
X122001827Y-81000000I-1800000J0D01*
G01*
X122001827Y-81000000D02*
G75*
G02*
X125601827Y-81000000I1800000J0D01*
G01*
X116321827Y-146060000D02*
X116321827Y-145200000D01*
X116321827Y-146060000D02*
X117121827Y-146060000D01*
X119301827Y-140500000D02*
X119301827Y-144650000D01*
X119301827Y-140500000D02*
X129801827Y-140500000D01*
X119301827Y-145350000D02*
X119301827Y-149500000D01*
X119301827Y-149500000D02*
X129801827Y-149500000D01*
X129801827Y-140500000D02*
X129801827Y-144500000D01*
X129801827Y-145500000D02*
X129801827Y-149500000D01*
X125601827Y-145000000D02*
G75*
G02*
X122001827Y-145000000I-1800000J0D01*
G01*
X122001827Y-145000000D02*
G75*
G02*
X125601827Y-145000000I1800000J0D01*
G01*
X116321827Y-134060000D02*
X116321827Y-133200000D01*
X116321827Y-134060000D02*
X117121827Y-134060000D01*
X119301827Y-128500000D02*
X119301827Y-132650000D01*
X119301827Y-128500000D02*
X129801827Y-128500000D01*
X119301827Y-133350000D02*
X119301827Y-137500000D01*
X119301827Y-137500000D02*
X129801827Y-137500000D01*
X129801827Y-128500000D02*
X129801827Y-132500000D01*
X129801827Y-133500000D02*
X129801827Y-137500000D01*
X125601827Y-133000000D02*
G75*
G02*
X122001827Y-133000000I-1800000J0D01*
G01*
X122001827Y-133000000D02*
G75*
G02*
X125601827Y-133000000I1800000J0D01*
G01*
X116321827Y-108060000D02*
X116321827Y-107200000D01*
X116321827Y-108060000D02*
X117121827Y-108060000D01*
X119301827Y-102500000D02*
X119301827Y-106650000D01*
X119301827Y-102500000D02*
X129801827Y-102500000D01*
X119301827Y-107350000D02*
X119301827Y-111500000D01*
X119301827Y-111500000D02*
X129801827Y-111500000D01*
X129801827Y-102500000D02*
X129801827Y-106500000D01*
X129801827Y-107500000D02*
X129801827Y-111500000D01*
X125601827Y-107000000D02*
G75*
G02*
X122001827Y-107000000I-1800000J0D01*
G01*
X122001827Y-107000000D02*
G75*
G02*
X125601827Y-107000000I1800000J0D01*
G01*
X101140000Y-82090000D02*
X113360000Y-82090000D01*
X101140000Y-85097000D02*
X101140000Y-82090000D01*
X101140000Y-93560000D02*
X101140000Y-88902000D01*
X101140000Y-93560000D02*
X103925000Y-93560000D01*
X105575000Y-93560000D02*
X106425000Y-93560000D01*
X108075000Y-93560000D02*
X108925000Y-93560000D01*
X110575000Y-93560000D02*
X113360000Y-93560000D01*
X113360000Y-85097000D02*
X113360000Y-82090000D01*
X113360000Y-93560000D02*
X113360000Y-88902000D01*
X104625582Y-85545754D02*
G75*
G02*
X109874000Y-85545000I2624418J-1454246D01*
G01*
X109874100Y-88455624D02*
G75*
G02*
X104625000Y-88454000I-2624100J1455624D01*
G01*
X101140000Y-108090000D02*
X113360000Y-108090000D01*
X101140000Y-111097000D02*
X101140000Y-108090000D01*
X101140000Y-119560000D02*
X101140000Y-114902000D01*
X101140000Y-119560000D02*
X103925000Y-119560000D01*
X105575000Y-119560000D02*
X106425000Y-119560000D01*
X108075000Y-119560000D02*
X108925000Y-119560000D01*
X110575000Y-119560000D02*
X113360000Y-119560000D01*
X113360000Y-111097000D02*
X113360000Y-108090000D01*
X113360000Y-119560000D02*
X113360000Y-114902000D01*
X104625582Y-111545754D02*
G75*
G02*
X109874000Y-111545000I2624418J-1454246D01*
G01*
X109874100Y-114455624D02*
G75*
G02*
X104625000Y-114454000I-2624100J1455624D01*
G01*
X101140000Y-134090000D02*
X113360000Y-134090000D01*
X101140000Y-137097000D02*
X101140000Y-134090000D01*
X101140000Y-145560000D02*
X101140000Y-140902000D01*
X101140000Y-145560000D02*
X103925000Y-145560000D01*
X105575000Y-145560000D02*
X106425000Y-145560000D01*
X108075000Y-145560000D02*
X108925000Y-145560000D01*
X110575000Y-145560000D02*
X113360000Y-145560000D01*
X113360000Y-137097000D02*
X113360000Y-134090000D01*
X113360000Y-145560000D02*
X113360000Y-140902000D01*
X104625582Y-137545754D02*
G75*
G02*
X109874000Y-137545000I2624418J-1454246D01*
G01*
X109874100Y-140455624D02*
G75*
G02*
X104625000Y-140454000I-2624100J1455624D01*
G01*
X101140000Y-56090000D02*
X113360000Y-56090000D01*
X101140000Y-59097000D02*
X101140000Y-56090000D01*
X101140000Y-67560000D02*
X101140000Y-62902000D01*
X101140000Y-67560000D02*
X103925000Y-67560000D01*
X105575000Y-67560000D02*
X106425000Y-67560000D01*
X108075000Y-67560000D02*
X108925000Y-67560000D01*
X110575000Y-67560000D02*
X113360000Y-67560000D01*
X113360000Y-59097000D02*
X113360000Y-56090000D01*
X113360000Y-67560000D02*
X113360000Y-62902000D01*
X104625582Y-59545754D02*
G75*
G02*
X109874000Y-59545000I2624418J-1454246D01*
G01*
X109874100Y-62455624D02*
G75*
G02*
X104625000Y-62454000I-2624100J1455624D01*
G01*
X116321827Y-68060000D02*
X116321827Y-67200000D01*
X116321827Y-68060000D02*
X117121827Y-68060000D01*
X119301827Y-62500000D02*
X119301827Y-66650000D01*
X119301827Y-62500000D02*
X129801827Y-62500000D01*
X119301827Y-67350000D02*
X119301827Y-71500000D01*
X119301827Y-71500000D02*
X129801827Y-71500000D01*
X129801827Y-62500000D02*
X129801827Y-66500000D01*
X129801827Y-67500000D02*
X129801827Y-71500000D01*
X125601827Y-67000000D02*
G75*
G02*
X122001827Y-67000000I-1800000J0D01*
G01*
X122001827Y-67000000D02*
G75*
G02*
X125601827Y-67000000I1800000J0D01*
G01*
M02*
