G04 #@! TF.GenerationSoftware,KiCad,Pcbnew,10.0.6*
G04 #@! TF.CreationDate,2026-10-07T16:45:18-07:00*
G04 #@! TF.ProjectId,Attenuverter,41747465-6e75-4766-9572-7465722e6b69,1.1*
G04 #@! TF.SameCoordinates,Original*
G04 #@! TF.FileFunction,Legend,Bot*
G04 #@! TF.FilePolarity,Positive*
%FSLAX46Y46*%
G04 Gerber Fmt 4.6, Leading zero omitted, Abs format (unit mm)*
G04 Created by KiCad (PCBNEW 10.0.6) date 2026-10-07 16:45:18*
%MOMM*%
%LPD*%
G01*
G04 APERTURE LIST*
%ADD10C,1.000000*%
%ADD11C,0.150000*%
%ADD12C,0.120000*%
%ADD13C,0.020000*%
G04 APERTURE END LIST*
D10*
X115500000Y-71500000D02*
X115500000Y-64250000D01*
D11*
X113210839Y-127852228D02*
X113067982Y-127899847D01*
X113067982Y-127899847D02*
X112829887Y-127899847D01*
X112829887Y-127899847D02*
X112734649Y-127852228D01*
X112734649Y-127852228D02*
X112687030Y-127804608D01*
X112687030Y-127804608D02*
X112639411Y-127709370D01*
X112639411Y-127709370D02*
X112639411Y-127614132D01*
X112639411Y-127614132D02*
X112687030Y-127518894D01*
X112687030Y-127518894D02*
X112734649Y-127471275D01*
X112734649Y-127471275D02*
X112829887Y-127423656D01*
X112829887Y-127423656D02*
X113020363Y-127376037D01*
X113020363Y-127376037D02*
X113115601Y-127328418D01*
X113115601Y-127328418D02*
X113163220Y-127280799D01*
X113163220Y-127280799D02*
X113210839Y-127185561D01*
X113210839Y-127185561D02*
X113210839Y-127090323D01*
X113210839Y-127090323D02*
X113163220Y-126995085D01*
X113163220Y-126995085D02*
X113115601Y-126947466D01*
X113115601Y-126947466D02*
X113020363Y-126899847D01*
X113020363Y-126899847D02*
X112782268Y-126899847D01*
X112782268Y-126899847D02*
X112639411Y-126947466D01*
X112353696Y-126899847D02*
X111782268Y-126899847D01*
X112067982Y-127899847D02*
X112067982Y-126899847D01*
X111448934Y-127518894D02*
X110687030Y-127518894D01*
X110020363Y-126899847D02*
X109925125Y-126899847D01*
X109925125Y-126899847D02*
X109829887Y-126947466D01*
X109829887Y-126947466D02*
X109782268Y-126995085D01*
X109782268Y-126995085D02*
X109734649Y-127090323D01*
X109734649Y-127090323D02*
X109687030Y-127280799D01*
X109687030Y-127280799D02*
X109687030Y-127518894D01*
X109687030Y-127518894D02*
X109734649Y-127709370D01*
X109734649Y-127709370D02*
X109782268Y-127804608D01*
X109782268Y-127804608D02*
X109829887Y-127852228D01*
X109829887Y-127852228D02*
X109925125Y-127899847D01*
X109925125Y-127899847D02*
X110020363Y-127899847D01*
X110020363Y-127899847D02*
X110115601Y-127852228D01*
X110115601Y-127852228D02*
X110163220Y-127804608D01*
X110163220Y-127804608D02*
X110210839Y-127709370D01*
X110210839Y-127709370D02*
X110258458Y-127518894D01*
X110258458Y-127518894D02*
X110258458Y-127280799D01*
X110258458Y-127280799D02*
X110210839Y-127090323D01*
X110210839Y-127090323D02*
X110163220Y-126995085D01*
X110163220Y-126995085D02*
X110115601Y-126947466D01*
X110115601Y-126947466D02*
X110020363Y-126899847D01*
X109353696Y-126899847D02*
X108734649Y-126899847D01*
X108734649Y-126899847D02*
X109067982Y-127280799D01*
X109067982Y-127280799D02*
X108925125Y-127280799D01*
X108925125Y-127280799D02*
X108829887Y-127328418D01*
X108829887Y-127328418D02*
X108782268Y-127376037D01*
X108782268Y-127376037D02*
X108734649Y-127471275D01*
X108734649Y-127471275D02*
X108734649Y-127709370D01*
X108734649Y-127709370D02*
X108782268Y-127804608D01*
X108782268Y-127804608D02*
X108829887Y-127852228D01*
X108829887Y-127852228D02*
X108925125Y-127899847D01*
X108925125Y-127899847D02*
X109210839Y-127899847D01*
X109210839Y-127899847D02*
X109306077Y-127852228D01*
X109306077Y-127852228D02*
X109353696Y-127804608D01*
X107639410Y-127233180D02*
X107401315Y-127899847D01*
X107401315Y-127899847D02*
X107163220Y-127233180D01*
X106258458Y-127899847D02*
X106829886Y-127899847D01*
X106544172Y-127899847D02*
X106544172Y-126899847D01*
X106544172Y-126899847D02*
X106639410Y-127042704D01*
X106639410Y-127042704D02*
X106734648Y-127137942D01*
X106734648Y-127137942D02*
X106829886Y-127185561D01*
X105829886Y-127804608D02*
X105782267Y-127852228D01*
X105782267Y-127852228D02*
X105829886Y-127899847D01*
X105829886Y-127899847D02*
X105877505Y-127852228D01*
X105877505Y-127852228D02*
X105829886Y-127804608D01*
X105829886Y-127804608D02*
X105829886Y-127899847D01*
X104829887Y-127899847D02*
X105401315Y-127899847D01*
X105115601Y-127899847D02*
X105115601Y-126899847D01*
X105115601Y-126899847D02*
X105210839Y-127042704D01*
X105210839Y-127042704D02*
X105306077Y-127137942D01*
X105306077Y-127137942D02*
X105401315Y-127185561D01*
X113210839Y-129224076D02*
X112734649Y-129224076D01*
X113306077Y-129509791D02*
X112972744Y-128509791D01*
X112972744Y-128509791D02*
X112639411Y-129509791D01*
X112448934Y-128843124D02*
X112067982Y-128843124D01*
X112306077Y-128509791D02*
X112306077Y-129366933D01*
X112306077Y-129366933D02*
X112258458Y-129462172D01*
X112258458Y-129462172D02*
X112163220Y-129509791D01*
X112163220Y-129509791D02*
X112067982Y-129509791D01*
X111877505Y-128843124D02*
X111496553Y-128843124D01*
X111734648Y-128509791D02*
X111734648Y-129366933D01*
X111734648Y-129366933D02*
X111687029Y-129462172D01*
X111687029Y-129462172D02*
X111591791Y-129509791D01*
X111591791Y-129509791D02*
X111496553Y-129509791D01*
X110782267Y-129462172D02*
X110877505Y-129509791D01*
X110877505Y-129509791D02*
X111067981Y-129509791D01*
X111067981Y-129509791D02*
X111163219Y-129462172D01*
X111163219Y-129462172D02*
X111210838Y-129366933D01*
X111210838Y-129366933D02*
X111210838Y-128985981D01*
X111210838Y-128985981D02*
X111163219Y-128890743D01*
X111163219Y-128890743D02*
X111067981Y-128843124D01*
X111067981Y-128843124D02*
X110877505Y-128843124D01*
X110877505Y-128843124D02*
X110782267Y-128890743D01*
X110782267Y-128890743D02*
X110734648Y-128985981D01*
X110734648Y-128985981D02*
X110734648Y-129081219D01*
X110734648Y-129081219D02*
X111210838Y-129176457D01*
X110306076Y-128843124D02*
X110306076Y-129509791D01*
X110306076Y-128938362D02*
X110258457Y-128890743D01*
X110258457Y-128890743D02*
X110163219Y-128843124D01*
X110163219Y-128843124D02*
X110020362Y-128843124D01*
X110020362Y-128843124D02*
X109925124Y-128890743D01*
X109925124Y-128890743D02*
X109877505Y-128985981D01*
X109877505Y-128985981D02*
X109877505Y-129509791D01*
X108972743Y-128843124D02*
X108972743Y-129509791D01*
X109401314Y-128843124D02*
X109401314Y-129366933D01*
X109401314Y-129366933D02*
X109353695Y-129462172D01*
X109353695Y-129462172D02*
X109258457Y-129509791D01*
X109258457Y-129509791D02*
X109115600Y-129509791D01*
X109115600Y-129509791D02*
X109020362Y-129462172D01*
X109020362Y-129462172D02*
X108972743Y-129414552D01*
X108591790Y-128843124D02*
X108353695Y-129509791D01*
X108353695Y-129509791D02*
X108115600Y-128843124D01*
X107353695Y-129462172D02*
X107448933Y-129509791D01*
X107448933Y-129509791D02*
X107639409Y-129509791D01*
X107639409Y-129509791D02*
X107734647Y-129462172D01*
X107734647Y-129462172D02*
X107782266Y-129366933D01*
X107782266Y-129366933D02*
X107782266Y-128985981D01*
X107782266Y-128985981D02*
X107734647Y-128890743D01*
X107734647Y-128890743D02*
X107639409Y-128843124D01*
X107639409Y-128843124D02*
X107448933Y-128843124D01*
X107448933Y-128843124D02*
X107353695Y-128890743D01*
X107353695Y-128890743D02*
X107306076Y-128985981D01*
X107306076Y-128985981D02*
X107306076Y-129081219D01*
X107306076Y-129081219D02*
X107782266Y-129176457D01*
X106877504Y-129509791D02*
X106877504Y-128843124D01*
X106877504Y-129033600D02*
X106829885Y-128938362D01*
X106829885Y-128938362D02*
X106782266Y-128890743D01*
X106782266Y-128890743D02*
X106687028Y-128843124D01*
X106687028Y-128843124D02*
X106591790Y-128843124D01*
X106401313Y-128843124D02*
X106020361Y-128843124D01*
X106258456Y-128509791D02*
X106258456Y-129366933D01*
X106258456Y-129366933D02*
X106210837Y-129462172D01*
X106210837Y-129462172D02*
X106115599Y-129509791D01*
X106115599Y-129509791D02*
X106020361Y-129509791D01*
X105306075Y-129462172D02*
X105401313Y-129509791D01*
X105401313Y-129509791D02*
X105591789Y-129509791D01*
X105591789Y-129509791D02*
X105687027Y-129462172D01*
X105687027Y-129462172D02*
X105734646Y-129366933D01*
X105734646Y-129366933D02*
X105734646Y-128985981D01*
X105734646Y-128985981D02*
X105687027Y-128890743D01*
X105687027Y-128890743D02*
X105591789Y-128843124D01*
X105591789Y-128843124D02*
X105401313Y-128843124D01*
X105401313Y-128843124D02*
X105306075Y-128890743D01*
X105306075Y-128890743D02*
X105258456Y-128985981D01*
X105258456Y-128985981D02*
X105258456Y-129081219D01*
X105258456Y-129081219D02*
X105734646Y-129176457D01*
X104829884Y-129509791D02*
X104829884Y-128843124D01*
X104829884Y-129033600D02*
X104782265Y-128938362D01*
X104782265Y-128938362D02*
X104734646Y-128890743D01*
X104734646Y-128890743D02*
X104639408Y-128843124D01*
X104639408Y-128843124D02*
X104544170Y-128843124D01*
X113738095Y-131157200D02*
X113642857Y-131204819D01*
X113642857Y-131204819D02*
X113452381Y-131204819D01*
X113452381Y-131204819D02*
X113357143Y-131157200D01*
X113357143Y-131157200D02*
X113309524Y-131061961D01*
X113309524Y-131061961D02*
X113309524Y-131014342D01*
X113309524Y-131014342D02*
X113357143Y-130919104D01*
X113357143Y-130919104D02*
X113452381Y-130871485D01*
X113452381Y-130871485D02*
X113595238Y-130871485D01*
X113595238Y-130871485D02*
X113690476Y-130823866D01*
X113690476Y-130823866D02*
X113738095Y-130728628D01*
X113738095Y-130728628D02*
X113738095Y-130681009D01*
X113738095Y-130681009D02*
X113690476Y-130585771D01*
X113690476Y-130585771D02*
X113595238Y-130538152D01*
X113595238Y-130538152D02*
X113452381Y-130538152D01*
X113452381Y-130538152D02*
X113357143Y-130585771D01*
X112452381Y-131157200D02*
X112547619Y-131204819D01*
X112547619Y-131204819D02*
X112738095Y-131204819D01*
X112738095Y-131204819D02*
X112833333Y-131157200D01*
X112833333Y-131157200D02*
X112880952Y-131109580D01*
X112880952Y-131109580D02*
X112928571Y-131014342D01*
X112928571Y-131014342D02*
X112928571Y-130728628D01*
X112928571Y-130728628D02*
X112880952Y-130633390D01*
X112880952Y-130633390D02*
X112833333Y-130585771D01*
X112833333Y-130585771D02*
X112738095Y-130538152D01*
X112738095Y-130538152D02*
X112547619Y-130538152D01*
X112547619Y-130538152D02*
X112452381Y-130585771D01*
X112023809Y-131204819D02*
X112023809Y-130204819D01*
X111595238Y-131204819D02*
X111595238Y-130681009D01*
X111595238Y-130681009D02*
X111642857Y-130585771D01*
X111642857Y-130585771D02*
X111738095Y-130538152D01*
X111738095Y-130538152D02*
X111880952Y-130538152D01*
X111880952Y-130538152D02*
X111976190Y-130585771D01*
X111976190Y-130585771D02*
X112023809Y-130633390D01*
X110738095Y-131157200D02*
X110833333Y-131204819D01*
X110833333Y-131204819D02*
X111023809Y-131204819D01*
X111023809Y-131204819D02*
X111119047Y-131157200D01*
X111119047Y-131157200D02*
X111166666Y-131061961D01*
X111166666Y-131061961D02*
X111166666Y-130681009D01*
X111166666Y-130681009D02*
X111119047Y-130585771D01*
X111119047Y-130585771D02*
X111023809Y-130538152D01*
X111023809Y-130538152D02*
X110833333Y-130538152D01*
X110833333Y-130538152D02*
X110738095Y-130585771D01*
X110738095Y-130585771D02*
X110690476Y-130681009D01*
X110690476Y-130681009D02*
X110690476Y-130776247D01*
X110690476Y-130776247D02*
X111166666Y-130871485D01*
X110261904Y-130538152D02*
X110261904Y-131204819D01*
X110261904Y-130633390D02*
X110214285Y-130585771D01*
X110214285Y-130585771D02*
X110119047Y-130538152D01*
X110119047Y-130538152D02*
X109976190Y-130538152D01*
X109976190Y-130538152D02*
X109880952Y-130585771D01*
X109880952Y-130585771D02*
X109833333Y-130681009D01*
X109833333Y-130681009D02*
X109833333Y-131204819D01*
X109357142Y-131204819D02*
X109357142Y-130204819D01*
X109261904Y-130823866D02*
X108976190Y-131204819D01*
X108976190Y-130538152D02*
X109357142Y-130919104D01*
X108690475Y-130538152D02*
X108309523Y-130538152D01*
X108547618Y-130204819D02*
X108547618Y-131061961D01*
X108547618Y-131061961D02*
X108499999Y-131157200D01*
X108499999Y-131157200D02*
X108404761Y-131204819D01*
X108404761Y-131204819D02*
X108309523Y-131204819D01*
X107976189Y-131204819D02*
X107976189Y-130538152D01*
X107976189Y-130728628D02*
X107928570Y-130633390D01*
X107928570Y-130633390D02*
X107880951Y-130585771D01*
X107880951Y-130585771D02*
X107785713Y-130538152D01*
X107785713Y-130538152D02*
X107690475Y-130538152D01*
X107214284Y-131204819D02*
X107309522Y-131157200D01*
X107309522Y-131157200D02*
X107357141Y-131109580D01*
X107357141Y-131109580D02*
X107404760Y-131014342D01*
X107404760Y-131014342D02*
X107404760Y-130728628D01*
X107404760Y-130728628D02*
X107357141Y-130633390D01*
X107357141Y-130633390D02*
X107309522Y-130585771D01*
X107309522Y-130585771D02*
X107214284Y-130538152D01*
X107214284Y-130538152D02*
X107071427Y-130538152D01*
X107071427Y-130538152D02*
X106976189Y-130585771D01*
X106976189Y-130585771D02*
X106928570Y-130633390D01*
X106928570Y-130633390D02*
X106880951Y-130728628D01*
X106880951Y-130728628D02*
X106880951Y-131014342D01*
X106880951Y-131014342D02*
X106928570Y-131109580D01*
X106928570Y-131109580D02*
X106976189Y-131157200D01*
X106976189Y-131157200D02*
X107071427Y-131204819D01*
X107071427Y-131204819D02*
X107214284Y-131204819D01*
X106452379Y-130538152D02*
X106452379Y-131204819D01*
X106452379Y-130633390D02*
X106404760Y-130585771D01*
X106404760Y-130585771D02*
X106309522Y-130538152D01*
X106309522Y-130538152D02*
X106166665Y-130538152D01*
X106166665Y-130538152D02*
X106071427Y-130585771D01*
X106071427Y-130585771D02*
X106023808Y-130681009D01*
X106023808Y-130681009D02*
X106023808Y-131204819D01*
X105547617Y-131204819D02*
X105547617Y-130538152D01*
X105547617Y-130204819D02*
X105595236Y-130252438D01*
X105595236Y-130252438D02*
X105547617Y-130300057D01*
X105547617Y-130300057D02*
X105499998Y-130252438D01*
X105499998Y-130252438D02*
X105547617Y-130204819D01*
X105547617Y-130204819D02*
X105547617Y-130300057D01*
X104642856Y-131157200D02*
X104738094Y-131204819D01*
X104738094Y-131204819D02*
X104928570Y-131204819D01*
X104928570Y-131204819D02*
X105023808Y-131157200D01*
X105023808Y-131157200D02*
X105071427Y-131109580D01*
X105071427Y-131109580D02*
X105119046Y-131014342D01*
X105119046Y-131014342D02*
X105119046Y-130728628D01*
X105119046Y-130728628D02*
X105071427Y-130633390D01*
X105071427Y-130633390D02*
X105023808Y-130585771D01*
X105023808Y-130585771D02*
X104928570Y-130538152D01*
X104928570Y-130538152D02*
X104738094Y-130538152D01*
X104738094Y-130538152D02*
X104642856Y-130585771D01*
X104261903Y-131157200D02*
X104166665Y-131204819D01*
X104166665Y-131204819D02*
X103976189Y-131204819D01*
X103976189Y-131204819D02*
X103880951Y-131157200D01*
X103880951Y-131157200D02*
X103833332Y-131061961D01*
X103833332Y-131061961D02*
X103833332Y-131014342D01*
X103833332Y-131014342D02*
X103880951Y-130919104D01*
X103880951Y-130919104D02*
X103976189Y-130871485D01*
X103976189Y-130871485D02*
X104119046Y-130871485D01*
X104119046Y-130871485D02*
X104214284Y-130823866D01*
X104214284Y-130823866D02*
X104261903Y-130728628D01*
X104261903Y-130728628D02*
X104261903Y-130681009D01*
X104261903Y-130681009D02*
X104214284Y-130585771D01*
X104214284Y-130585771D02*
X104119046Y-130538152D01*
X104119046Y-130538152D02*
X103976189Y-130538152D01*
X103976189Y-130538152D02*
X103880951Y-130585771D01*
X103404760Y-131109580D02*
X103357141Y-131157200D01*
X103357141Y-131157200D02*
X103404760Y-131204819D01*
X103404760Y-131204819D02*
X103452379Y-131157200D01*
X103452379Y-131157200D02*
X103404760Y-131109580D01*
X103404760Y-131109580D02*
X103404760Y-131204819D01*
X102499999Y-131157200D02*
X102595237Y-131204819D01*
X102595237Y-131204819D02*
X102785713Y-131204819D01*
X102785713Y-131204819D02*
X102880951Y-131157200D01*
X102880951Y-131157200D02*
X102928570Y-131109580D01*
X102928570Y-131109580D02*
X102976189Y-131014342D01*
X102976189Y-131014342D02*
X102976189Y-130728628D01*
X102976189Y-130728628D02*
X102928570Y-130633390D01*
X102928570Y-130633390D02*
X102880951Y-130585771D01*
X102880951Y-130585771D02*
X102785713Y-130538152D01*
X102785713Y-130538152D02*
X102595237Y-130538152D01*
X102595237Y-130538152D02*
X102499999Y-130585771D01*
X101928570Y-131204819D02*
X102023808Y-131157200D01*
X102023808Y-131157200D02*
X102071427Y-131109580D01*
X102071427Y-131109580D02*
X102119046Y-131014342D01*
X102119046Y-131014342D02*
X102119046Y-130728628D01*
X102119046Y-130728628D02*
X102071427Y-130633390D01*
X102071427Y-130633390D02*
X102023808Y-130585771D01*
X102023808Y-130585771D02*
X101928570Y-130538152D01*
X101928570Y-130538152D02*
X101785713Y-130538152D01*
X101785713Y-130538152D02*
X101690475Y-130585771D01*
X101690475Y-130585771D02*
X101642856Y-130633390D01*
X101642856Y-130633390D02*
X101595237Y-130728628D01*
X101595237Y-130728628D02*
X101595237Y-131014342D01*
X101595237Y-131014342D02*
X101642856Y-131109580D01*
X101642856Y-131109580D02*
X101690475Y-131157200D01*
X101690475Y-131157200D02*
X101785713Y-131204819D01*
X101785713Y-131204819D02*
X101928570Y-131204819D01*
X101166665Y-131204819D02*
X101166665Y-130538152D01*
X101166665Y-130633390D02*
X101119046Y-130585771D01*
X101119046Y-130585771D02*
X101023808Y-130538152D01*
X101023808Y-130538152D02*
X100880951Y-130538152D01*
X100880951Y-130538152D02*
X100785713Y-130585771D01*
X100785713Y-130585771D02*
X100738094Y-130681009D01*
X100738094Y-130681009D02*
X100738094Y-131204819D01*
X100738094Y-130681009D02*
X100690475Y-130585771D01*
X100690475Y-130585771D02*
X100595237Y-130538152D01*
X100595237Y-130538152D02*
X100452380Y-130538152D01*
X100452380Y-130538152D02*
X100357141Y-130585771D01*
X100357141Y-130585771D02*
X100309522Y-130681009D01*
X100309522Y-130681009D02*
X100309522Y-131204819D01*
X120642858Y-69573866D02*
X119880954Y-69573866D01*
X118880954Y-69954819D02*
X119452382Y-69954819D01*
X119166668Y-69954819D02*
X119166668Y-68954819D01*
X119166668Y-68954819D02*
X119261906Y-69097676D01*
X119261906Y-69097676D02*
X119357144Y-69192914D01*
X119357144Y-69192914D02*
X119452382Y-69240533D01*
X118500001Y-69050057D02*
X118452382Y-69002438D01*
X118452382Y-69002438D02*
X118357144Y-68954819D01*
X118357144Y-68954819D02*
X118119049Y-68954819D01*
X118119049Y-68954819D02*
X118023811Y-69002438D01*
X118023811Y-69002438D02*
X117976192Y-69050057D01*
X117976192Y-69050057D02*
X117928573Y-69145295D01*
X117928573Y-69145295D02*
X117928573Y-69240533D01*
X117928573Y-69240533D02*
X117976192Y-69383390D01*
X117976192Y-69383390D02*
X118547620Y-69954819D01*
X118547620Y-69954819D02*
X117928573Y-69954819D01*
X117595239Y-69288152D02*
X117357144Y-69954819D01*
X117357144Y-69954819D02*
X117119049Y-69288152D01*
X103785711Y-69573866D02*
X103023807Y-69573866D01*
X103404759Y-69954819D02*
X103404759Y-69192914D01*
X102023807Y-69954819D02*
X102595235Y-69954819D01*
X102309521Y-69954819D02*
X102309521Y-68954819D01*
X102309521Y-68954819D02*
X102404759Y-69097676D01*
X102404759Y-69097676D02*
X102499997Y-69192914D01*
X102499997Y-69192914D02*
X102595235Y-69240533D01*
X101642854Y-69050057D02*
X101595235Y-69002438D01*
X101595235Y-69002438D02*
X101499997Y-68954819D01*
X101499997Y-68954819D02*
X101261902Y-68954819D01*
X101261902Y-68954819D02*
X101166664Y-69002438D01*
X101166664Y-69002438D02*
X101119045Y-69050057D01*
X101119045Y-69050057D02*
X101071426Y-69145295D01*
X101071426Y-69145295D02*
X101071426Y-69240533D01*
X101071426Y-69240533D02*
X101119045Y-69383390D01*
X101119045Y-69383390D02*
X101690473Y-69954819D01*
X101690473Y-69954819D02*
X101071426Y-69954819D01*
X100738092Y-69288152D02*
X100499997Y-69954819D01*
X100499997Y-69954819D02*
X100261902Y-69288152D01*
X115704819Y-56357142D02*
X115228628Y-56023809D01*
X115704819Y-55785714D02*
X114704819Y-55785714D01*
X114704819Y-55785714D02*
X114704819Y-56166666D01*
X114704819Y-56166666D02*
X114752438Y-56261904D01*
X114752438Y-56261904D02*
X114800057Y-56309523D01*
X114800057Y-56309523D02*
X114895295Y-56357142D01*
X114895295Y-56357142D02*
X115038152Y-56357142D01*
X115038152Y-56357142D02*
X115133390Y-56309523D01*
X115133390Y-56309523D02*
X115181009Y-56261904D01*
X115181009Y-56261904D02*
X115228628Y-56166666D01*
X115228628Y-56166666D02*
X115228628Y-55785714D01*
X115657200Y-57166666D02*
X115704819Y-57071428D01*
X115704819Y-57071428D02*
X115704819Y-56880952D01*
X115704819Y-56880952D02*
X115657200Y-56785714D01*
X115657200Y-56785714D02*
X115561961Y-56738095D01*
X115561961Y-56738095D02*
X115181009Y-56738095D01*
X115181009Y-56738095D02*
X115085771Y-56785714D01*
X115085771Y-56785714D02*
X115038152Y-56880952D01*
X115038152Y-56880952D02*
X115038152Y-57071428D01*
X115038152Y-57071428D02*
X115085771Y-57166666D01*
X115085771Y-57166666D02*
X115181009Y-57214285D01*
X115181009Y-57214285D02*
X115276247Y-57214285D01*
X115276247Y-57214285D02*
X115371485Y-56738095D01*
X115704819Y-58071428D02*
X114704819Y-58071428D01*
X115657200Y-58071428D02*
X115704819Y-57976190D01*
X115704819Y-57976190D02*
X115704819Y-57785714D01*
X115704819Y-57785714D02*
X115657200Y-57690476D01*
X115657200Y-57690476D02*
X115609580Y-57642857D01*
X115609580Y-57642857D02*
X115514342Y-57595238D01*
X115514342Y-57595238D02*
X115228628Y-57595238D01*
X115228628Y-57595238D02*
X115133390Y-57642857D01*
X115133390Y-57642857D02*
X115085771Y-57690476D01*
X115085771Y-57690476D02*
X115038152Y-57785714D01*
X115038152Y-57785714D02*
X115038152Y-57976190D01*
X115038152Y-57976190D02*
X115085771Y-58071428D01*
X115657200Y-59261905D02*
X115704819Y-59404762D01*
X115704819Y-59404762D02*
X115704819Y-59642857D01*
X115704819Y-59642857D02*
X115657200Y-59738095D01*
X115657200Y-59738095D02*
X115609580Y-59785714D01*
X115609580Y-59785714D02*
X115514342Y-59833333D01*
X115514342Y-59833333D02*
X115419104Y-59833333D01*
X115419104Y-59833333D02*
X115323866Y-59785714D01*
X115323866Y-59785714D02*
X115276247Y-59738095D01*
X115276247Y-59738095D02*
X115228628Y-59642857D01*
X115228628Y-59642857D02*
X115181009Y-59452381D01*
X115181009Y-59452381D02*
X115133390Y-59357143D01*
X115133390Y-59357143D02*
X115085771Y-59309524D01*
X115085771Y-59309524D02*
X114990533Y-59261905D01*
X114990533Y-59261905D02*
X114895295Y-59261905D01*
X114895295Y-59261905D02*
X114800057Y-59309524D01*
X114800057Y-59309524D02*
X114752438Y-59357143D01*
X114752438Y-59357143D02*
X114704819Y-59452381D01*
X114704819Y-59452381D02*
X114704819Y-59690476D01*
X114704819Y-59690476D02*
X114752438Y-59833333D01*
X115038152Y-60119048D02*
X115038152Y-60500000D01*
X114704819Y-60261905D02*
X115561961Y-60261905D01*
X115561961Y-60261905D02*
X115657200Y-60309524D01*
X115657200Y-60309524D02*
X115704819Y-60404762D01*
X115704819Y-60404762D02*
X115704819Y-60500000D01*
X115704819Y-60833334D02*
X115038152Y-60833334D01*
X115228628Y-60833334D02*
X115133390Y-60880953D01*
X115133390Y-60880953D02*
X115085771Y-60928572D01*
X115085771Y-60928572D02*
X115038152Y-61023810D01*
X115038152Y-61023810D02*
X115038152Y-61119048D01*
X115704819Y-61452382D02*
X115038152Y-61452382D01*
X114704819Y-61452382D02*
X114752438Y-61404763D01*
X114752438Y-61404763D02*
X114800057Y-61452382D01*
X114800057Y-61452382D02*
X114752438Y-61500001D01*
X114752438Y-61500001D02*
X114704819Y-61452382D01*
X114704819Y-61452382D02*
X114800057Y-61452382D01*
X115038152Y-61928572D02*
X116038152Y-61928572D01*
X115085771Y-61928572D02*
X115038152Y-62023810D01*
X115038152Y-62023810D02*
X115038152Y-62214286D01*
X115038152Y-62214286D02*
X115085771Y-62309524D01*
X115085771Y-62309524D02*
X115133390Y-62357143D01*
X115133390Y-62357143D02*
X115228628Y-62404762D01*
X115228628Y-62404762D02*
X115514342Y-62404762D01*
X115514342Y-62404762D02*
X115609580Y-62357143D01*
X115609580Y-62357143D02*
X115657200Y-62309524D01*
X115657200Y-62309524D02*
X115704819Y-62214286D01*
X115704819Y-62214286D02*
X115704819Y-62023810D01*
X115704819Y-62023810D02*
X115657200Y-61928572D01*
X115657200Y-63214286D02*
X115704819Y-63119048D01*
X115704819Y-63119048D02*
X115704819Y-62928572D01*
X115704819Y-62928572D02*
X115657200Y-62833334D01*
X115657200Y-62833334D02*
X115561961Y-62785715D01*
X115561961Y-62785715D02*
X115181009Y-62785715D01*
X115181009Y-62785715D02*
X115085771Y-62833334D01*
X115085771Y-62833334D02*
X115038152Y-62928572D01*
X115038152Y-62928572D02*
X115038152Y-63119048D01*
X115038152Y-63119048D02*
X115085771Y-63214286D01*
X115085771Y-63214286D02*
X115181009Y-63261905D01*
X115181009Y-63261905D02*
X115276247Y-63261905D01*
X115276247Y-63261905D02*
X115371485Y-62785715D01*
X117159580Y-98833333D02*
X117207200Y-98785714D01*
X117207200Y-98785714D02*
X117254819Y-98642857D01*
X117254819Y-98642857D02*
X117254819Y-98547619D01*
X117254819Y-98547619D02*
X117207200Y-98404762D01*
X117207200Y-98404762D02*
X117111961Y-98309524D01*
X117111961Y-98309524D02*
X117016723Y-98261905D01*
X117016723Y-98261905D02*
X116826247Y-98214286D01*
X116826247Y-98214286D02*
X116683390Y-98214286D01*
X116683390Y-98214286D02*
X116492914Y-98261905D01*
X116492914Y-98261905D02*
X116397676Y-98309524D01*
X116397676Y-98309524D02*
X116302438Y-98404762D01*
X116302438Y-98404762D02*
X116254819Y-98547619D01*
X116254819Y-98547619D02*
X116254819Y-98642857D01*
X116254819Y-98642857D02*
X116302438Y-98785714D01*
X116302438Y-98785714D02*
X116350057Y-98833333D01*
X116350057Y-99214286D02*
X116302438Y-99261905D01*
X116302438Y-99261905D02*
X116254819Y-99357143D01*
X116254819Y-99357143D02*
X116254819Y-99595238D01*
X116254819Y-99595238D02*
X116302438Y-99690476D01*
X116302438Y-99690476D02*
X116350057Y-99738095D01*
X116350057Y-99738095D02*
X116445295Y-99785714D01*
X116445295Y-99785714D02*
X116540533Y-99785714D01*
X116540533Y-99785714D02*
X116683390Y-99738095D01*
X116683390Y-99738095D02*
X117254819Y-99166667D01*
X117254819Y-99166667D02*
X117254819Y-99785714D01*
X119359580Y-98833333D02*
X119407200Y-98785714D01*
X119407200Y-98785714D02*
X119454819Y-98642857D01*
X119454819Y-98642857D02*
X119454819Y-98547619D01*
X119454819Y-98547619D02*
X119407200Y-98404762D01*
X119407200Y-98404762D02*
X119311961Y-98309524D01*
X119311961Y-98309524D02*
X119216723Y-98261905D01*
X119216723Y-98261905D02*
X119026247Y-98214286D01*
X119026247Y-98214286D02*
X118883390Y-98214286D01*
X118883390Y-98214286D02*
X118692914Y-98261905D01*
X118692914Y-98261905D02*
X118597676Y-98309524D01*
X118597676Y-98309524D02*
X118502438Y-98404762D01*
X118502438Y-98404762D02*
X118454819Y-98547619D01*
X118454819Y-98547619D02*
X118454819Y-98642857D01*
X118454819Y-98642857D02*
X118502438Y-98785714D01*
X118502438Y-98785714D02*
X118550057Y-98833333D01*
X118454819Y-99166667D02*
X118454819Y-99785714D01*
X118454819Y-99785714D02*
X118835771Y-99452381D01*
X118835771Y-99452381D02*
X118835771Y-99595238D01*
X118835771Y-99595238D02*
X118883390Y-99690476D01*
X118883390Y-99690476D02*
X118931009Y-99738095D01*
X118931009Y-99738095D02*
X119026247Y-99785714D01*
X119026247Y-99785714D02*
X119264342Y-99785714D01*
X119264342Y-99785714D02*
X119359580Y-99738095D01*
X119359580Y-99738095D02*
X119407200Y-99690476D01*
X119407200Y-99690476D02*
X119454819Y-99595238D01*
X119454819Y-99595238D02*
X119454819Y-99309524D01*
X119454819Y-99309524D02*
X119407200Y-99214286D01*
X119407200Y-99214286D02*
X119359580Y-99166667D01*
X124116666Y-128359580D02*
X124164285Y-128407200D01*
X124164285Y-128407200D02*
X124307142Y-128454819D01*
X124307142Y-128454819D02*
X124402380Y-128454819D01*
X124402380Y-128454819D02*
X124545237Y-128407200D01*
X124545237Y-128407200D02*
X124640475Y-128311961D01*
X124640475Y-128311961D02*
X124688094Y-128216723D01*
X124688094Y-128216723D02*
X124735713Y-128026247D01*
X124735713Y-128026247D02*
X124735713Y-127883390D01*
X124735713Y-127883390D02*
X124688094Y-127692914D01*
X124688094Y-127692914D02*
X124640475Y-127597676D01*
X124640475Y-127597676D02*
X124545237Y-127502438D01*
X124545237Y-127502438D02*
X124402380Y-127454819D01*
X124402380Y-127454819D02*
X124307142Y-127454819D01*
X124307142Y-127454819D02*
X124164285Y-127502438D01*
X124164285Y-127502438D02*
X124116666Y-127550057D01*
X123259523Y-127788152D02*
X123259523Y-128454819D01*
X123497618Y-127407200D02*
X123735713Y-128121485D01*
X123735713Y-128121485D02*
X123116666Y-128121485D01*
X102959580Y-98633333D02*
X103007200Y-98585714D01*
X103007200Y-98585714D02*
X103054819Y-98442857D01*
X103054819Y-98442857D02*
X103054819Y-98347619D01*
X103054819Y-98347619D02*
X103007200Y-98204762D01*
X103007200Y-98204762D02*
X102911961Y-98109524D01*
X102911961Y-98109524D02*
X102816723Y-98061905D01*
X102816723Y-98061905D02*
X102626247Y-98014286D01*
X102626247Y-98014286D02*
X102483390Y-98014286D01*
X102483390Y-98014286D02*
X102292914Y-98061905D01*
X102292914Y-98061905D02*
X102197676Y-98109524D01*
X102197676Y-98109524D02*
X102102438Y-98204762D01*
X102102438Y-98204762D02*
X102054819Y-98347619D01*
X102054819Y-98347619D02*
X102054819Y-98442857D01*
X102054819Y-98442857D02*
X102102438Y-98585714D01*
X102102438Y-98585714D02*
X102150057Y-98633333D01*
X103054819Y-99585714D02*
X103054819Y-99014286D01*
X103054819Y-99300000D02*
X102054819Y-99300000D01*
X102054819Y-99300000D02*
X102197676Y-99204762D01*
X102197676Y-99204762D02*
X102292914Y-99109524D01*
X102292914Y-99109524D02*
X102340533Y-99014286D01*
X110166666Y-82559580D02*
X110214285Y-82607200D01*
X110214285Y-82607200D02*
X110357142Y-82654819D01*
X110357142Y-82654819D02*
X110452380Y-82654819D01*
X110452380Y-82654819D02*
X110595237Y-82607200D01*
X110595237Y-82607200D02*
X110690475Y-82511961D01*
X110690475Y-82511961D02*
X110738094Y-82416723D01*
X110738094Y-82416723D02*
X110785713Y-82226247D01*
X110785713Y-82226247D02*
X110785713Y-82083390D01*
X110785713Y-82083390D02*
X110738094Y-81892914D01*
X110738094Y-81892914D02*
X110690475Y-81797676D01*
X110690475Y-81797676D02*
X110595237Y-81702438D01*
X110595237Y-81702438D02*
X110452380Y-81654819D01*
X110452380Y-81654819D02*
X110357142Y-81654819D01*
X110357142Y-81654819D02*
X110214285Y-81702438D01*
X110214285Y-81702438D02*
X110166666Y-81750057D01*
X109595237Y-82083390D02*
X109690475Y-82035771D01*
X109690475Y-82035771D02*
X109738094Y-81988152D01*
X109738094Y-81988152D02*
X109785713Y-81892914D01*
X109785713Y-81892914D02*
X109785713Y-81845295D01*
X109785713Y-81845295D02*
X109738094Y-81750057D01*
X109738094Y-81750057D02*
X109690475Y-81702438D01*
X109690475Y-81702438D02*
X109595237Y-81654819D01*
X109595237Y-81654819D02*
X109404761Y-81654819D01*
X109404761Y-81654819D02*
X109309523Y-81702438D01*
X109309523Y-81702438D02*
X109261904Y-81750057D01*
X109261904Y-81750057D02*
X109214285Y-81845295D01*
X109214285Y-81845295D02*
X109214285Y-81892914D01*
X109214285Y-81892914D02*
X109261904Y-81988152D01*
X109261904Y-81988152D02*
X109309523Y-82035771D01*
X109309523Y-82035771D02*
X109404761Y-82083390D01*
X109404761Y-82083390D02*
X109595237Y-82083390D01*
X109595237Y-82083390D02*
X109690475Y-82131009D01*
X109690475Y-82131009D02*
X109738094Y-82178628D01*
X109738094Y-82178628D02*
X109785713Y-82273866D01*
X109785713Y-82273866D02*
X109785713Y-82464342D01*
X109785713Y-82464342D02*
X109738094Y-82559580D01*
X109738094Y-82559580D02*
X109690475Y-82607200D01*
X109690475Y-82607200D02*
X109595237Y-82654819D01*
X109595237Y-82654819D02*
X109404761Y-82654819D01*
X109404761Y-82654819D02*
X109309523Y-82607200D01*
X109309523Y-82607200D02*
X109261904Y-82559580D01*
X109261904Y-82559580D02*
X109214285Y-82464342D01*
X109214285Y-82464342D02*
X109214285Y-82273866D01*
X109214285Y-82273866D02*
X109261904Y-82178628D01*
X109261904Y-82178628D02*
X109309523Y-82131009D01*
X109309523Y-82131009D02*
X109404761Y-82083390D01*
X110416666Y-96709580D02*
X110464285Y-96757200D01*
X110464285Y-96757200D02*
X110607142Y-96804819D01*
X110607142Y-96804819D02*
X110702380Y-96804819D01*
X110702380Y-96804819D02*
X110845237Y-96757200D01*
X110845237Y-96757200D02*
X110940475Y-96661961D01*
X110940475Y-96661961D02*
X110988094Y-96566723D01*
X110988094Y-96566723D02*
X111035713Y-96376247D01*
X111035713Y-96376247D02*
X111035713Y-96233390D01*
X111035713Y-96233390D02*
X110988094Y-96042914D01*
X110988094Y-96042914D02*
X110940475Y-95947676D01*
X110940475Y-95947676D02*
X110845237Y-95852438D01*
X110845237Y-95852438D02*
X110702380Y-95804819D01*
X110702380Y-95804819D02*
X110607142Y-95804819D01*
X110607142Y-95804819D02*
X110464285Y-95852438D01*
X110464285Y-95852438D02*
X110416666Y-95900057D01*
X109559523Y-95804819D02*
X109749999Y-95804819D01*
X109749999Y-95804819D02*
X109845237Y-95852438D01*
X109845237Y-95852438D02*
X109892856Y-95900057D01*
X109892856Y-95900057D02*
X109988094Y-96042914D01*
X109988094Y-96042914D02*
X110035713Y-96233390D01*
X110035713Y-96233390D02*
X110035713Y-96614342D01*
X110035713Y-96614342D02*
X109988094Y-96709580D01*
X109988094Y-96709580D02*
X109940475Y-96757200D01*
X109940475Y-96757200D02*
X109845237Y-96804819D01*
X109845237Y-96804819D02*
X109654761Y-96804819D01*
X109654761Y-96804819D02*
X109559523Y-96757200D01*
X109559523Y-96757200D02*
X109511904Y-96709580D01*
X109511904Y-96709580D02*
X109464285Y-96614342D01*
X109464285Y-96614342D02*
X109464285Y-96376247D01*
X109464285Y-96376247D02*
X109511904Y-96281009D01*
X109511904Y-96281009D02*
X109559523Y-96233390D01*
X109559523Y-96233390D02*
X109654761Y-96185771D01*
X109654761Y-96185771D02*
X109845237Y-96185771D01*
X109845237Y-96185771D02*
X109940475Y-96233390D01*
X109940475Y-96233390D02*
X109988094Y-96281009D01*
X109988094Y-96281009D02*
X110035713Y-96376247D01*
X102759580Y-109433333D02*
X102807200Y-109385714D01*
X102807200Y-109385714D02*
X102854819Y-109242857D01*
X102854819Y-109242857D02*
X102854819Y-109147619D01*
X102854819Y-109147619D02*
X102807200Y-109004762D01*
X102807200Y-109004762D02*
X102711961Y-108909524D01*
X102711961Y-108909524D02*
X102616723Y-108861905D01*
X102616723Y-108861905D02*
X102426247Y-108814286D01*
X102426247Y-108814286D02*
X102283390Y-108814286D01*
X102283390Y-108814286D02*
X102092914Y-108861905D01*
X102092914Y-108861905D02*
X101997676Y-108909524D01*
X101997676Y-108909524D02*
X101902438Y-109004762D01*
X101902438Y-109004762D02*
X101854819Y-109147619D01*
X101854819Y-109147619D02*
X101854819Y-109242857D01*
X101854819Y-109242857D02*
X101902438Y-109385714D01*
X101902438Y-109385714D02*
X101950057Y-109433333D01*
X101854819Y-109766667D02*
X101854819Y-110433333D01*
X101854819Y-110433333D02*
X102854819Y-110004762D01*
X107166666Y-82559580D02*
X107214285Y-82607200D01*
X107214285Y-82607200D02*
X107357142Y-82654819D01*
X107357142Y-82654819D02*
X107452380Y-82654819D01*
X107452380Y-82654819D02*
X107595237Y-82607200D01*
X107595237Y-82607200D02*
X107690475Y-82511961D01*
X107690475Y-82511961D02*
X107738094Y-82416723D01*
X107738094Y-82416723D02*
X107785713Y-82226247D01*
X107785713Y-82226247D02*
X107785713Y-82083390D01*
X107785713Y-82083390D02*
X107738094Y-81892914D01*
X107738094Y-81892914D02*
X107690475Y-81797676D01*
X107690475Y-81797676D02*
X107595237Y-81702438D01*
X107595237Y-81702438D02*
X107452380Y-81654819D01*
X107452380Y-81654819D02*
X107357142Y-81654819D01*
X107357142Y-81654819D02*
X107214285Y-81702438D01*
X107214285Y-81702438D02*
X107166666Y-81750057D01*
X106261904Y-81654819D02*
X106738094Y-81654819D01*
X106738094Y-81654819D02*
X106785713Y-82131009D01*
X106785713Y-82131009D02*
X106738094Y-82083390D01*
X106738094Y-82083390D02*
X106642856Y-82035771D01*
X106642856Y-82035771D02*
X106404761Y-82035771D01*
X106404761Y-82035771D02*
X106309523Y-82083390D01*
X106309523Y-82083390D02*
X106261904Y-82131009D01*
X106261904Y-82131009D02*
X106214285Y-82226247D01*
X106214285Y-82226247D02*
X106214285Y-82464342D01*
X106214285Y-82464342D02*
X106261904Y-82559580D01*
X106261904Y-82559580D02*
X106309523Y-82607200D01*
X106309523Y-82607200D02*
X106404761Y-82654819D01*
X106404761Y-82654819D02*
X106642856Y-82654819D01*
X106642856Y-82654819D02*
X106738094Y-82607200D01*
X106738094Y-82607200D02*
X106785713Y-82559580D01*
X121854819Y-75261905D02*
X120854819Y-75261905D01*
X120854819Y-75261905D02*
X120854819Y-75500000D01*
X120854819Y-75500000D02*
X120902438Y-75642857D01*
X120902438Y-75642857D02*
X120997676Y-75738095D01*
X120997676Y-75738095D02*
X121092914Y-75785714D01*
X121092914Y-75785714D02*
X121283390Y-75833333D01*
X121283390Y-75833333D02*
X121426247Y-75833333D01*
X121426247Y-75833333D02*
X121616723Y-75785714D01*
X121616723Y-75785714D02*
X121711961Y-75738095D01*
X121711961Y-75738095D02*
X121807200Y-75642857D01*
X121807200Y-75642857D02*
X121854819Y-75500000D01*
X121854819Y-75500000D02*
X121854819Y-75261905D01*
X121854819Y-76785714D02*
X121854819Y-76214286D01*
X121854819Y-76500000D02*
X120854819Y-76500000D01*
X120854819Y-76500000D02*
X120997676Y-76404762D01*
X120997676Y-76404762D02*
X121092914Y-76309524D01*
X121092914Y-76309524D02*
X121140533Y-76214286D01*
X123561904Y-123054819D02*
X123561904Y-123864342D01*
X123561904Y-123864342D02*
X123514285Y-123959580D01*
X123514285Y-123959580D02*
X123466666Y-124007200D01*
X123466666Y-124007200D02*
X123371428Y-124054819D01*
X123371428Y-124054819D02*
X123180952Y-124054819D01*
X123180952Y-124054819D02*
X123085714Y-124007200D01*
X123085714Y-124007200D02*
X123038095Y-123959580D01*
X123038095Y-123959580D02*
X122990476Y-123864342D01*
X122990476Y-123864342D02*
X122990476Y-123054819D01*
X122561904Y-123150057D02*
X122514285Y-123102438D01*
X122514285Y-123102438D02*
X122419047Y-123054819D01*
X122419047Y-123054819D02*
X122180952Y-123054819D01*
X122180952Y-123054819D02*
X122085714Y-123102438D01*
X122085714Y-123102438D02*
X122038095Y-123150057D01*
X122038095Y-123150057D02*
X121990476Y-123245295D01*
X121990476Y-123245295D02*
X121990476Y-123340533D01*
X121990476Y-123340533D02*
X122038095Y-123483390D01*
X122038095Y-123483390D02*
X122609523Y-124054819D01*
X122609523Y-124054819D02*
X121990476Y-124054819D01*
X105292857Y-142304819D02*
X105626190Y-141828628D01*
X105864285Y-142304819D02*
X105864285Y-141304819D01*
X105864285Y-141304819D02*
X105483333Y-141304819D01*
X105483333Y-141304819D02*
X105388095Y-141352438D01*
X105388095Y-141352438D02*
X105340476Y-141400057D01*
X105340476Y-141400057D02*
X105292857Y-141495295D01*
X105292857Y-141495295D02*
X105292857Y-141638152D01*
X105292857Y-141638152D02*
X105340476Y-141733390D01*
X105340476Y-141733390D02*
X105388095Y-141781009D01*
X105388095Y-141781009D02*
X105483333Y-141828628D01*
X105483333Y-141828628D02*
X105864285Y-141828628D01*
X104911904Y-141400057D02*
X104864285Y-141352438D01*
X104864285Y-141352438D02*
X104769047Y-141304819D01*
X104769047Y-141304819D02*
X104530952Y-141304819D01*
X104530952Y-141304819D02*
X104435714Y-141352438D01*
X104435714Y-141352438D02*
X104388095Y-141400057D01*
X104388095Y-141400057D02*
X104340476Y-141495295D01*
X104340476Y-141495295D02*
X104340476Y-141590533D01*
X104340476Y-141590533D02*
X104388095Y-141733390D01*
X104388095Y-141733390D02*
X104959523Y-142304819D01*
X104959523Y-142304819D02*
X104340476Y-142304819D01*
X103388095Y-142304819D02*
X103959523Y-142304819D01*
X103673809Y-142304819D02*
X103673809Y-141304819D01*
X103673809Y-141304819D02*
X103769047Y-141447676D01*
X103769047Y-141447676D02*
X103864285Y-141542914D01*
X103864285Y-141542914D02*
X103959523Y-141590533D01*
X124042857Y-141654819D02*
X124376190Y-141178628D01*
X124614285Y-141654819D02*
X124614285Y-140654819D01*
X124614285Y-140654819D02*
X124233333Y-140654819D01*
X124233333Y-140654819D02*
X124138095Y-140702438D01*
X124138095Y-140702438D02*
X124090476Y-140750057D01*
X124090476Y-140750057D02*
X124042857Y-140845295D01*
X124042857Y-140845295D02*
X124042857Y-140988152D01*
X124042857Y-140988152D02*
X124090476Y-141083390D01*
X124090476Y-141083390D02*
X124138095Y-141131009D01*
X124138095Y-141131009D02*
X124233333Y-141178628D01*
X124233333Y-141178628D02*
X124614285Y-141178628D01*
X123090476Y-141654819D02*
X123661904Y-141654819D01*
X123376190Y-141654819D02*
X123376190Y-140654819D01*
X123376190Y-140654819D02*
X123471428Y-140797676D01*
X123471428Y-140797676D02*
X123566666Y-140892914D01*
X123566666Y-140892914D02*
X123661904Y-140940533D01*
X122614285Y-141654819D02*
X122423809Y-141654819D01*
X122423809Y-141654819D02*
X122328571Y-141607200D01*
X122328571Y-141607200D02*
X122280952Y-141559580D01*
X122280952Y-141559580D02*
X122185714Y-141416723D01*
X122185714Y-141416723D02*
X122138095Y-141226247D01*
X122138095Y-141226247D02*
X122138095Y-140845295D01*
X122138095Y-140845295D02*
X122185714Y-140750057D01*
X122185714Y-140750057D02*
X122233333Y-140702438D01*
X122233333Y-140702438D02*
X122328571Y-140654819D01*
X122328571Y-140654819D02*
X122519047Y-140654819D01*
X122519047Y-140654819D02*
X122614285Y-140702438D01*
X122614285Y-140702438D02*
X122661904Y-140750057D01*
X122661904Y-140750057D02*
X122709523Y-140845295D01*
X122709523Y-140845295D02*
X122709523Y-141083390D01*
X122709523Y-141083390D02*
X122661904Y-141178628D01*
X122661904Y-141178628D02*
X122614285Y-141226247D01*
X122614285Y-141226247D02*
X122519047Y-141273866D01*
X122519047Y-141273866D02*
X122328571Y-141273866D01*
X122328571Y-141273866D02*
X122233333Y-141226247D01*
X122233333Y-141226247D02*
X122185714Y-141178628D01*
X122185714Y-141178628D02*
X122138095Y-141083390D01*
X106492857Y-110104819D02*
X106826190Y-109628628D01*
X107064285Y-110104819D02*
X107064285Y-109104819D01*
X107064285Y-109104819D02*
X106683333Y-109104819D01*
X106683333Y-109104819D02*
X106588095Y-109152438D01*
X106588095Y-109152438D02*
X106540476Y-109200057D01*
X106540476Y-109200057D02*
X106492857Y-109295295D01*
X106492857Y-109295295D02*
X106492857Y-109438152D01*
X106492857Y-109438152D02*
X106540476Y-109533390D01*
X106540476Y-109533390D02*
X106588095Y-109581009D01*
X106588095Y-109581009D02*
X106683333Y-109628628D01*
X106683333Y-109628628D02*
X107064285Y-109628628D01*
X105540476Y-110104819D02*
X106111904Y-110104819D01*
X105826190Y-110104819D02*
X105826190Y-109104819D01*
X105826190Y-109104819D02*
X105921428Y-109247676D01*
X105921428Y-109247676D02*
X106016666Y-109342914D01*
X106016666Y-109342914D02*
X106111904Y-109390533D01*
X105207142Y-109104819D02*
X104540476Y-109104819D01*
X104540476Y-109104819D02*
X104969047Y-110104819D01*
X110492857Y-116304819D02*
X110826190Y-115828628D01*
X111064285Y-116304819D02*
X111064285Y-115304819D01*
X111064285Y-115304819D02*
X110683333Y-115304819D01*
X110683333Y-115304819D02*
X110588095Y-115352438D01*
X110588095Y-115352438D02*
X110540476Y-115400057D01*
X110540476Y-115400057D02*
X110492857Y-115495295D01*
X110492857Y-115495295D02*
X110492857Y-115638152D01*
X110492857Y-115638152D02*
X110540476Y-115733390D01*
X110540476Y-115733390D02*
X110588095Y-115781009D01*
X110588095Y-115781009D02*
X110683333Y-115828628D01*
X110683333Y-115828628D02*
X111064285Y-115828628D01*
X109540476Y-116304819D02*
X110111904Y-116304819D01*
X109826190Y-116304819D02*
X109826190Y-115304819D01*
X109826190Y-115304819D02*
X109921428Y-115447676D01*
X109921428Y-115447676D02*
X110016666Y-115542914D01*
X110016666Y-115542914D02*
X110111904Y-115590533D01*
X108635714Y-115304819D02*
X109111904Y-115304819D01*
X109111904Y-115304819D02*
X109159523Y-115781009D01*
X109159523Y-115781009D02*
X109111904Y-115733390D01*
X109111904Y-115733390D02*
X109016666Y-115685771D01*
X109016666Y-115685771D02*
X108778571Y-115685771D01*
X108778571Y-115685771D02*
X108683333Y-115733390D01*
X108683333Y-115733390D02*
X108635714Y-115781009D01*
X108635714Y-115781009D02*
X108588095Y-115876247D01*
X108588095Y-115876247D02*
X108588095Y-116114342D01*
X108588095Y-116114342D02*
X108635714Y-116209580D01*
X108635714Y-116209580D02*
X108683333Y-116257200D01*
X108683333Y-116257200D02*
X108778571Y-116304819D01*
X108778571Y-116304819D02*
X109016666Y-116304819D01*
X109016666Y-116304819D02*
X109111904Y-116257200D01*
X109111904Y-116257200D02*
X109159523Y-116209580D01*
X123829166Y-87654819D02*
X124162499Y-87178628D01*
X124400594Y-87654819D02*
X124400594Y-86654819D01*
X124400594Y-86654819D02*
X124019642Y-86654819D01*
X124019642Y-86654819D02*
X123924404Y-86702438D01*
X123924404Y-86702438D02*
X123876785Y-86750057D01*
X123876785Y-86750057D02*
X123829166Y-86845295D01*
X123829166Y-86845295D02*
X123829166Y-86988152D01*
X123829166Y-86988152D02*
X123876785Y-87083390D01*
X123876785Y-87083390D02*
X123924404Y-87131009D01*
X123924404Y-87131009D02*
X124019642Y-87178628D01*
X124019642Y-87178628D02*
X124400594Y-87178628D01*
X123495832Y-86654819D02*
X122829166Y-86654819D01*
X122829166Y-86654819D02*
X123257737Y-87654819D01*
X124242857Y-115954819D02*
X124576190Y-115478628D01*
X124814285Y-115954819D02*
X124814285Y-114954819D01*
X124814285Y-114954819D02*
X124433333Y-114954819D01*
X124433333Y-114954819D02*
X124338095Y-115002438D01*
X124338095Y-115002438D02*
X124290476Y-115050057D01*
X124290476Y-115050057D02*
X124242857Y-115145295D01*
X124242857Y-115145295D02*
X124242857Y-115288152D01*
X124242857Y-115288152D02*
X124290476Y-115383390D01*
X124290476Y-115383390D02*
X124338095Y-115431009D01*
X124338095Y-115431009D02*
X124433333Y-115478628D01*
X124433333Y-115478628D02*
X124814285Y-115478628D01*
X123290476Y-115954819D02*
X123861904Y-115954819D01*
X123576190Y-115954819D02*
X123576190Y-114954819D01*
X123576190Y-114954819D02*
X123671428Y-115097676D01*
X123671428Y-115097676D02*
X123766666Y-115192914D01*
X123766666Y-115192914D02*
X123861904Y-115240533D01*
X122433333Y-115288152D02*
X122433333Y-115954819D01*
X122671428Y-114907200D02*
X122909523Y-115621485D01*
X122909523Y-115621485D02*
X122290476Y-115621485D01*
X124280857Y-113854819D02*
X124614190Y-113378628D01*
X124852285Y-113854819D02*
X124852285Y-112854819D01*
X124852285Y-112854819D02*
X124471333Y-112854819D01*
X124471333Y-112854819D02*
X124376095Y-112902438D01*
X124376095Y-112902438D02*
X124328476Y-112950057D01*
X124328476Y-112950057D02*
X124280857Y-113045295D01*
X124280857Y-113045295D02*
X124280857Y-113188152D01*
X124280857Y-113188152D02*
X124328476Y-113283390D01*
X124328476Y-113283390D02*
X124376095Y-113331009D01*
X124376095Y-113331009D02*
X124471333Y-113378628D01*
X124471333Y-113378628D02*
X124852285Y-113378628D01*
X123328476Y-113854819D02*
X123899904Y-113854819D01*
X123614190Y-113854819D02*
X123614190Y-112854819D01*
X123614190Y-112854819D02*
X123709428Y-112997676D01*
X123709428Y-112997676D02*
X123804666Y-113092914D01*
X123804666Y-113092914D02*
X123899904Y-113140533D01*
X122995142Y-112854819D02*
X122376095Y-112854819D01*
X122376095Y-112854819D02*
X122709428Y-113235771D01*
X122709428Y-113235771D02*
X122566571Y-113235771D01*
X122566571Y-113235771D02*
X122471333Y-113283390D01*
X122471333Y-113283390D02*
X122423714Y-113331009D01*
X122423714Y-113331009D02*
X122376095Y-113426247D01*
X122376095Y-113426247D02*
X122376095Y-113664342D01*
X122376095Y-113664342D02*
X122423714Y-113759580D01*
X122423714Y-113759580D02*
X122471333Y-113807200D01*
X122471333Y-113807200D02*
X122566571Y-113854819D01*
X122566571Y-113854819D02*
X122852285Y-113854819D01*
X122852285Y-113854819D02*
X122947523Y-113807200D01*
X122947523Y-113807200D02*
X122995142Y-113759580D01*
X105292857Y-90304819D02*
X105626190Y-89828628D01*
X105864285Y-90304819D02*
X105864285Y-89304819D01*
X105864285Y-89304819D02*
X105483333Y-89304819D01*
X105483333Y-89304819D02*
X105388095Y-89352438D01*
X105388095Y-89352438D02*
X105340476Y-89400057D01*
X105340476Y-89400057D02*
X105292857Y-89495295D01*
X105292857Y-89495295D02*
X105292857Y-89638152D01*
X105292857Y-89638152D02*
X105340476Y-89733390D01*
X105340476Y-89733390D02*
X105388095Y-89781009D01*
X105388095Y-89781009D02*
X105483333Y-89828628D01*
X105483333Y-89828628D02*
X105864285Y-89828628D01*
X104340476Y-90304819D02*
X104911904Y-90304819D01*
X104626190Y-90304819D02*
X104626190Y-89304819D01*
X104626190Y-89304819D02*
X104721428Y-89447676D01*
X104721428Y-89447676D02*
X104816666Y-89542914D01*
X104816666Y-89542914D02*
X104911904Y-89590533D01*
X103721428Y-89304819D02*
X103626190Y-89304819D01*
X103626190Y-89304819D02*
X103530952Y-89352438D01*
X103530952Y-89352438D02*
X103483333Y-89400057D01*
X103483333Y-89400057D02*
X103435714Y-89495295D01*
X103435714Y-89495295D02*
X103388095Y-89685771D01*
X103388095Y-89685771D02*
X103388095Y-89923866D01*
X103388095Y-89923866D02*
X103435714Y-90114342D01*
X103435714Y-90114342D02*
X103483333Y-90209580D01*
X103483333Y-90209580D02*
X103530952Y-90257200D01*
X103530952Y-90257200D02*
X103626190Y-90304819D01*
X103626190Y-90304819D02*
X103721428Y-90304819D01*
X103721428Y-90304819D02*
X103816666Y-90257200D01*
X103816666Y-90257200D02*
X103864285Y-90209580D01*
X103864285Y-90209580D02*
X103911904Y-90114342D01*
X103911904Y-90114342D02*
X103959523Y-89923866D01*
X103959523Y-89923866D02*
X103959523Y-89685771D01*
X103959523Y-89685771D02*
X103911904Y-89495295D01*
X103911904Y-89495295D02*
X103864285Y-89400057D01*
X103864285Y-89400057D02*
X103816666Y-89352438D01*
X103816666Y-89352438D02*
X103721428Y-89304819D01*
X104816666Y-64304819D02*
X105149999Y-63828628D01*
X105388094Y-64304819D02*
X105388094Y-63304819D01*
X105388094Y-63304819D02*
X105007142Y-63304819D01*
X105007142Y-63304819D02*
X104911904Y-63352438D01*
X104911904Y-63352438D02*
X104864285Y-63400057D01*
X104864285Y-63400057D02*
X104816666Y-63495295D01*
X104816666Y-63495295D02*
X104816666Y-63638152D01*
X104816666Y-63638152D02*
X104864285Y-63733390D01*
X104864285Y-63733390D02*
X104911904Y-63781009D01*
X104911904Y-63781009D02*
X105007142Y-63828628D01*
X105007142Y-63828628D02*
X105388094Y-63828628D01*
X103911904Y-63304819D02*
X104388094Y-63304819D01*
X104388094Y-63304819D02*
X104435713Y-63781009D01*
X104435713Y-63781009D02*
X104388094Y-63733390D01*
X104388094Y-63733390D02*
X104292856Y-63685771D01*
X104292856Y-63685771D02*
X104054761Y-63685771D01*
X104054761Y-63685771D02*
X103959523Y-63733390D01*
X103959523Y-63733390D02*
X103911904Y-63781009D01*
X103911904Y-63781009D02*
X103864285Y-63876247D01*
X103864285Y-63876247D02*
X103864285Y-64114342D01*
X103864285Y-64114342D02*
X103911904Y-64209580D01*
X103911904Y-64209580D02*
X103959523Y-64257200D01*
X103959523Y-64257200D02*
X104054761Y-64304819D01*
X104054761Y-64304819D02*
X104292856Y-64304819D01*
X104292856Y-64304819D02*
X104388094Y-64257200D01*
X104388094Y-64257200D02*
X104435713Y-64209580D01*
X109373333Y-79931009D02*
X109706666Y-79931009D01*
X109706666Y-80454819D02*
X109706666Y-79454819D01*
X109706666Y-79454819D02*
X109230476Y-79454819D01*
X108897142Y-79550057D02*
X108849523Y-79502438D01*
X108849523Y-79502438D02*
X108754285Y-79454819D01*
X108754285Y-79454819D02*
X108516190Y-79454819D01*
X108516190Y-79454819D02*
X108420952Y-79502438D01*
X108420952Y-79502438D02*
X108373333Y-79550057D01*
X108373333Y-79550057D02*
X108325714Y-79645295D01*
X108325714Y-79645295D02*
X108325714Y-79740533D01*
X108325714Y-79740533D02*
X108373333Y-79883390D01*
X108373333Y-79883390D02*
X108944761Y-80454819D01*
X108944761Y-80454819D02*
X108325714Y-80454819D01*
X110166666Y-90304819D02*
X110499999Y-89828628D01*
X110738094Y-90304819D02*
X110738094Y-89304819D01*
X110738094Y-89304819D02*
X110357142Y-89304819D01*
X110357142Y-89304819D02*
X110261904Y-89352438D01*
X110261904Y-89352438D02*
X110214285Y-89400057D01*
X110214285Y-89400057D02*
X110166666Y-89495295D01*
X110166666Y-89495295D02*
X110166666Y-89638152D01*
X110166666Y-89638152D02*
X110214285Y-89733390D01*
X110214285Y-89733390D02*
X110261904Y-89781009D01*
X110261904Y-89781009D02*
X110357142Y-89828628D01*
X110357142Y-89828628D02*
X110738094Y-89828628D01*
X109690475Y-90304819D02*
X109499999Y-90304819D01*
X109499999Y-90304819D02*
X109404761Y-90257200D01*
X109404761Y-90257200D02*
X109357142Y-90209580D01*
X109357142Y-90209580D02*
X109261904Y-90066723D01*
X109261904Y-90066723D02*
X109214285Y-89876247D01*
X109214285Y-89876247D02*
X109214285Y-89495295D01*
X109214285Y-89495295D02*
X109261904Y-89400057D01*
X109261904Y-89400057D02*
X109309523Y-89352438D01*
X109309523Y-89352438D02*
X109404761Y-89304819D01*
X109404761Y-89304819D02*
X109595237Y-89304819D01*
X109595237Y-89304819D02*
X109690475Y-89352438D01*
X109690475Y-89352438D02*
X109738094Y-89400057D01*
X109738094Y-89400057D02*
X109785713Y-89495295D01*
X109785713Y-89495295D02*
X109785713Y-89733390D01*
X109785713Y-89733390D02*
X109738094Y-89828628D01*
X109738094Y-89828628D02*
X109690475Y-89876247D01*
X109690475Y-89876247D02*
X109595237Y-89923866D01*
X109595237Y-89923866D02*
X109404761Y-89923866D01*
X109404761Y-89923866D02*
X109309523Y-89876247D01*
X109309523Y-89876247D02*
X109261904Y-89828628D01*
X109261904Y-89828628D02*
X109214285Y-89733390D01*
X124280357Y-139654819D02*
X124613690Y-139178628D01*
X124851785Y-139654819D02*
X124851785Y-138654819D01*
X124851785Y-138654819D02*
X124470833Y-138654819D01*
X124470833Y-138654819D02*
X124375595Y-138702438D01*
X124375595Y-138702438D02*
X124327976Y-138750057D01*
X124327976Y-138750057D02*
X124280357Y-138845295D01*
X124280357Y-138845295D02*
X124280357Y-138988152D01*
X124280357Y-138988152D02*
X124327976Y-139083390D01*
X124327976Y-139083390D02*
X124375595Y-139131009D01*
X124375595Y-139131009D02*
X124470833Y-139178628D01*
X124470833Y-139178628D02*
X124851785Y-139178628D01*
X123327976Y-139654819D02*
X123899404Y-139654819D01*
X123613690Y-139654819D02*
X123613690Y-138654819D01*
X123613690Y-138654819D02*
X123708928Y-138797676D01*
X123708928Y-138797676D02*
X123804166Y-138892914D01*
X123804166Y-138892914D02*
X123899404Y-138940533D01*
X122756547Y-139083390D02*
X122851785Y-139035771D01*
X122851785Y-139035771D02*
X122899404Y-138988152D01*
X122899404Y-138988152D02*
X122947023Y-138892914D01*
X122947023Y-138892914D02*
X122947023Y-138845295D01*
X122947023Y-138845295D02*
X122899404Y-138750057D01*
X122899404Y-138750057D02*
X122851785Y-138702438D01*
X122851785Y-138702438D02*
X122756547Y-138654819D01*
X122756547Y-138654819D02*
X122566071Y-138654819D01*
X122566071Y-138654819D02*
X122470833Y-138702438D01*
X122470833Y-138702438D02*
X122423214Y-138750057D01*
X122423214Y-138750057D02*
X122375595Y-138845295D01*
X122375595Y-138845295D02*
X122375595Y-138892914D01*
X122375595Y-138892914D02*
X122423214Y-138988152D01*
X122423214Y-138988152D02*
X122470833Y-139035771D01*
X122470833Y-139035771D02*
X122566071Y-139083390D01*
X122566071Y-139083390D02*
X122756547Y-139083390D01*
X122756547Y-139083390D02*
X122851785Y-139131009D01*
X122851785Y-139131009D02*
X122899404Y-139178628D01*
X122899404Y-139178628D02*
X122947023Y-139273866D01*
X122947023Y-139273866D02*
X122947023Y-139464342D01*
X122947023Y-139464342D02*
X122899404Y-139559580D01*
X122899404Y-139559580D02*
X122851785Y-139607200D01*
X122851785Y-139607200D02*
X122756547Y-139654819D01*
X122756547Y-139654819D02*
X122566071Y-139654819D01*
X122566071Y-139654819D02*
X122470833Y-139607200D01*
X122470833Y-139607200D02*
X122423214Y-139559580D01*
X122423214Y-139559580D02*
X122375595Y-139464342D01*
X122375595Y-139464342D02*
X122375595Y-139273866D01*
X122375595Y-139273866D02*
X122423214Y-139178628D01*
X122423214Y-139178628D02*
X122470833Y-139131009D01*
X122470833Y-139131009D02*
X122566071Y-139083390D01*
X121854819Y-71061905D02*
X120854819Y-71061905D01*
X120854819Y-71061905D02*
X120854819Y-71300000D01*
X120854819Y-71300000D02*
X120902438Y-71442857D01*
X120902438Y-71442857D02*
X120997676Y-71538095D01*
X120997676Y-71538095D02*
X121092914Y-71585714D01*
X121092914Y-71585714D02*
X121283390Y-71633333D01*
X121283390Y-71633333D02*
X121426247Y-71633333D01*
X121426247Y-71633333D02*
X121616723Y-71585714D01*
X121616723Y-71585714D02*
X121711961Y-71538095D01*
X121711961Y-71538095D02*
X121807200Y-71442857D01*
X121807200Y-71442857D02*
X121854819Y-71300000D01*
X121854819Y-71300000D02*
X121854819Y-71061905D01*
X120950057Y-72014286D02*
X120902438Y-72061905D01*
X120902438Y-72061905D02*
X120854819Y-72157143D01*
X120854819Y-72157143D02*
X120854819Y-72395238D01*
X120854819Y-72395238D02*
X120902438Y-72490476D01*
X120902438Y-72490476D02*
X120950057Y-72538095D01*
X120950057Y-72538095D02*
X121045295Y-72585714D01*
X121045295Y-72585714D02*
X121140533Y-72585714D01*
X121140533Y-72585714D02*
X121283390Y-72538095D01*
X121283390Y-72538095D02*
X121854819Y-71966667D01*
X121854819Y-71966667D02*
X121854819Y-72585714D01*
X117042857Y-124804819D02*
X117376190Y-124328628D01*
X117614285Y-124804819D02*
X117614285Y-123804819D01*
X117614285Y-123804819D02*
X117233333Y-123804819D01*
X117233333Y-123804819D02*
X117138095Y-123852438D01*
X117138095Y-123852438D02*
X117090476Y-123900057D01*
X117090476Y-123900057D02*
X117042857Y-123995295D01*
X117042857Y-123995295D02*
X117042857Y-124138152D01*
X117042857Y-124138152D02*
X117090476Y-124233390D01*
X117090476Y-124233390D02*
X117138095Y-124281009D01*
X117138095Y-124281009D02*
X117233333Y-124328628D01*
X117233333Y-124328628D02*
X117614285Y-124328628D01*
X116090476Y-124804819D02*
X116661904Y-124804819D01*
X116376190Y-124804819D02*
X116376190Y-123804819D01*
X116376190Y-123804819D02*
X116471428Y-123947676D01*
X116471428Y-123947676D02*
X116566666Y-124042914D01*
X116566666Y-124042914D02*
X116661904Y-124090533D01*
X115138095Y-124804819D02*
X115709523Y-124804819D01*
X115423809Y-124804819D02*
X115423809Y-123804819D01*
X115423809Y-123804819D02*
X115519047Y-123947676D01*
X115519047Y-123947676D02*
X115614285Y-124042914D01*
X115614285Y-124042914D02*
X115709523Y-124090533D01*
X105292857Y-116304819D02*
X105626190Y-115828628D01*
X105864285Y-116304819D02*
X105864285Y-115304819D01*
X105864285Y-115304819D02*
X105483333Y-115304819D01*
X105483333Y-115304819D02*
X105388095Y-115352438D01*
X105388095Y-115352438D02*
X105340476Y-115400057D01*
X105340476Y-115400057D02*
X105292857Y-115495295D01*
X105292857Y-115495295D02*
X105292857Y-115638152D01*
X105292857Y-115638152D02*
X105340476Y-115733390D01*
X105340476Y-115733390D02*
X105388095Y-115781009D01*
X105388095Y-115781009D02*
X105483333Y-115828628D01*
X105483333Y-115828628D02*
X105864285Y-115828628D01*
X104340476Y-116304819D02*
X104911904Y-116304819D01*
X104626190Y-116304819D02*
X104626190Y-115304819D01*
X104626190Y-115304819D02*
X104721428Y-115447676D01*
X104721428Y-115447676D02*
X104816666Y-115542914D01*
X104816666Y-115542914D02*
X104911904Y-115590533D01*
X103483333Y-115304819D02*
X103673809Y-115304819D01*
X103673809Y-115304819D02*
X103769047Y-115352438D01*
X103769047Y-115352438D02*
X103816666Y-115400057D01*
X103816666Y-115400057D02*
X103911904Y-115542914D01*
X103911904Y-115542914D02*
X103959523Y-115733390D01*
X103959523Y-115733390D02*
X103959523Y-116114342D01*
X103959523Y-116114342D02*
X103911904Y-116209580D01*
X103911904Y-116209580D02*
X103864285Y-116257200D01*
X103864285Y-116257200D02*
X103769047Y-116304819D01*
X103769047Y-116304819D02*
X103578571Y-116304819D01*
X103578571Y-116304819D02*
X103483333Y-116257200D01*
X103483333Y-116257200D02*
X103435714Y-116209580D01*
X103435714Y-116209580D02*
X103388095Y-116114342D01*
X103388095Y-116114342D02*
X103388095Y-115876247D01*
X103388095Y-115876247D02*
X103435714Y-115781009D01*
X103435714Y-115781009D02*
X103483333Y-115733390D01*
X103483333Y-115733390D02*
X103578571Y-115685771D01*
X103578571Y-115685771D02*
X103769047Y-115685771D01*
X103769047Y-115685771D02*
X103864285Y-115733390D01*
X103864285Y-115733390D02*
X103911904Y-115781009D01*
X103911904Y-115781009D02*
X103959523Y-115876247D01*
X115254819Y-98895833D02*
X114778628Y-98562500D01*
X115254819Y-98324405D02*
X114254819Y-98324405D01*
X114254819Y-98324405D02*
X114254819Y-98705357D01*
X114254819Y-98705357D02*
X114302438Y-98800595D01*
X114302438Y-98800595D02*
X114350057Y-98848214D01*
X114350057Y-98848214D02*
X114445295Y-98895833D01*
X114445295Y-98895833D02*
X114588152Y-98895833D01*
X114588152Y-98895833D02*
X114683390Y-98848214D01*
X114683390Y-98848214D02*
X114731009Y-98800595D01*
X114731009Y-98800595D02*
X114778628Y-98705357D01*
X114778628Y-98705357D02*
X114778628Y-98324405D01*
X114254819Y-99752976D02*
X114254819Y-99562500D01*
X114254819Y-99562500D02*
X114302438Y-99467262D01*
X114302438Y-99467262D02*
X114350057Y-99419643D01*
X114350057Y-99419643D02*
X114492914Y-99324405D01*
X114492914Y-99324405D02*
X114683390Y-99276786D01*
X114683390Y-99276786D02*
X115064342Y-99276786D01*
X115064342Y-99276786D02*
X115159580Y-99324405D01*
X115159580Y-99324405D02*
X115207200Y-99372024D01*
X115207200Y-99372024D02*
X115254819Y-99467262D01*
X115254819Y-99467262D02*
X115254819Y-99657738D01*
X115254819Y-99657738D02*
X115207200Y-99752976D01*
X115207200Y-99752976D02*
X115159580Y-99800595D01*
X115159580Y-99800595D02*
X115064342Y-99848214D01*
X115064342Y-99848214D02*
X114826247Y-99848214D01*
X114826247Y-99848214D02*
X114731009Y-99800595D01*
X114731009Y-99800595D02*
X114683390Y-99752976D01*
X114683390Y-99752976D02*
X114635771Y-99657738D01*
X114635771Y-99657738D02*
X114635771Y-99467262D01*
X114635771Y-99467262D02*
X114683390Y-99372024D01*
X114683390Y-99372024D02*
X114731009Y-99324405D01*
X114731009Y-99324405D02*
X114826247Y-99276786D01*
X123829166Y-61454819D02*
X124162499Y-60978628D01*
X124400594Y-61454819D02*
X124400594Y-60454819D01*
X124400594Y-60454819D02*
X124019642Y-60454819D01*
X124019642Y-60454819D02*
X123924404Y-60502438D01*
X123924404Y-60502438D02*
X123876785Y-60550057D01*
X123876785Y-60550057D02*
X123829166Y-60645295D01*
X123829166Y-60645295D02*
X123829166Y-60788152D01*
X123829166Y-60788152D02*
X123876785Y-60883390D01*
X123876785Y-60883390D02*
X123924404Y-60931009D01*
X123924404Y-60931009D02*
X124019642Y-60978628D01*
X124019642Y-60978628D02*
X124400594Y-60978628D01*
X123448213Y-60550057D02*
X123400594Y-60502438D01*
X123400594Y-60502438D02*
X123305356Y-60454819D01*
X123305356Y-60454819D02*
X123067261Y-60454819D01*
X123067261Y-60454819D02*
X122972023Y-60502438D01*
X122972023Y-60502438D02*
X122924404Y-60550057D01*
X122924404Y-60550057D02*
X122876785Y-60645295D01*
X122876785Y-60645295D02*
X122876785Y-60740533D01*
X122876785Y-60740533D02*
X122924404Y-60883390D01*
X122924404Y-60883390D02*
X123495832Y-61454819D01*
X123495832Y-61454819D02*
X122876785Y-61454819D01*
X123829166Y-63454819D02*
X124162499Y-62978628D01*
X124400594Y-63454819D02*
X124400594Y-62454819D01*
X124400594Y-62454819D02*
X124019642Y-62454819D01*
X124019642Y-62454819D02*
X123924404Y-62502438D01*
X123924404Y-62502438D02*
X123876785Y-62550057D01*
X123876785Y-62550057D02*
X123829166Y-62645295D01*
X123829166Y-62645295D02*
X123829166Y-62788152D01*
X123829166Y-62788152D02*
X123876785Y-62883390D01*
X123876785Y-62883390D02*
X123924404Y-62931009D01*
X123924404Y-62931009D02*
X124019642Y-62978628D01*
X124019642Y-62978628D02*
X124400594Y-62978628D01*
X123495832Y-62454819D02*
X122876785Y-62454819D01*
X122876785Y-62454819D02*
X123210118Y-62835771D01*
X123210118Y-62835771D02*
X123067261Y-62835771D01*
X123067261Y-62835771D02*
X122972023Y-62883390D01*
X122972023Y-62883390D02*
X122924404Y-62931009D01*
X122924404Y-62931009D02*
X122876785Y-63026247D01*
X122876785Y-63026247D02*
X122876785Y-63264342D01*
X122876785Y-63264342D02*
X122924404Y-63359580D01*
X122924404Y-63359580D02*
X122972023Y-63407200D01*
X122972023Y-63407200D02*
X123067261Y-63454819D01*
X123067261Y-63454819D02*
X123352975Y-63454819D01*
X123352975Y-63454819D02*
X123448213Y-63407200D01*
X123448213Y-63407200D02*
X123495832Y-63359580D01*
X110442857Y-142304819D02*
X110776190Y-141828628D01*
X111014285Y-142304819D02*
X111014285Y-141304819D01*
X111014285Y-141304819D02*
X110633333Y-141304819D01*
X110633333Y-141304819D02*
X110538095Y-141352438D01*
X110538095Y-141352438D02*
X110490476Y-141400057D01*
X110490476Y-141400057D02*
X110442857Y-141495295D01*
X110442857Y-141495295D02*
X110442857Y-141638152D01*
X110442857Y-141638152D02*
X110490476Y-141733390D01*
X110490476Y-141733390D02*
X110538095Y-141781009D01*
X110538095Y-141781009D02*
X110633333Y-141828628D01*
X110633333Y-141828628D02*
X111014285Y-141828628D01*
X110061904Y-141400057D02*
X110014285Y-141352438D01*
X110014285Y-141352438D02*
X109919047Y-141304819D01*
X109919047Y-141304819D02*
X109680952Y-141304819D01*
X109680952Y-141304819D02*
X109585714Y-141352438D01*
X109585714Y-141352438D02*
X109538095Y-141400057D01*
X109538095Y-141400057D02*
X109490476Y-141495295D01*
X109490476Y-141495295D02*
X109490476Y-141590533D01*
X109490476Y-141590533D02*
X109538095Y-141733390D01*
X109538095Y-141733390D02*
X110109523Y-142304819D01*
X110109523Y-142304819D02*
X109490476Y-142304819D01*
X108871428Y-141304819D02*
X108776190Y-141304819D01*
X108776190Y-141304819D02*
X108680952Y-141352438D01*
X108680952Y-141352438D02*
X108633333Y-141400057D01*
X108633333Y-141400057D02*
X108585714Y-141495295D01*
X108585714Y-141495295D02*
X108538095Y-141685771D01*
X108538095Y-141685771D02*
X108538095Y-141923866D01*
X108538095Y-141923866D02*
X108585714Y-142114342D01*
X108585714Y-142114342D02*
X108633333Y-142209580D01*
X108633333Y-142209580D02*
X108680952Y-142257200D01*
X108680952Y-142257200D02*
X108776190Y-142304819D01*
X108776190Y-142304819D02*
X108871428Y-142304819D01*
X108871428Y-142304819D02*
X108966666Y-142257200D01*
X108966666Y-142257200D02*
X109014285Y-142209580D01*
X109014285Y-142209580D02*
X109061904Y-142114342D01*
X109061904Y-142114342D02*
X109109523Y-141923866D01*
X109109523Y-141923866D02*
X109109523Y-141685771D01*
X109109523Y-141685771D02*
X109061904Y-141495295D01*
X109061904Y-141495295D02*
X109014285Y-141400057D01*
X109014285Y-141400057D02*
X108966666Y-141352438D01*
X108966666Y-141352438D02*
X108871428Y-141304819D01*
X115254819Y-109157142D02*
X114778628Y-108823809D01*
X115254819Y-108585714D02*
X114254819Y-108585714D01*
X114254819Y-108585714D02*
X114254819Y-108966666D01*
X114254819Y-108966666D02*
X114302438Y-109061904D01*
X114302438Y-109061904D02*
X114350057Y-109109523D01*
X114350057Y-109109523D02*
X114445295Y-109157142D01*
X114445295Y-109157142D02*
X114588152Y-109157142D01*
X114588152Y-109157142D02*
X114683390Y-109109523D01*
X114683390Y-109109523D02*
X114731009Y-109061904D01*
X114731009Y-109061904D02*
X114778628Y-108966666D01*
X114778628Y-108966666D02*
X114778628Y-108585714D01*
X115254819Y-110109523D02*
X115254819Y-109538095D01*
X115254819Y-109823809D02*
X114254819Y-109823809D01*
X114254819Y-109823809D02*
X114397676Y-109728571D01*
X114397676Y-109728571D02*
X114492914Y-109633333D01*
X114492914Y-109633333D02*
X114540533Y-109538095D01*
X114350057Y-110490476D02*
X114302438Y-110538095D01*
X114302438Y-110538095D02*
X114254819Y-110633333D01*
X114254819Y-110633333D02*
X114254819Y-110871428D01*
X114254819Y-110871428D02*
X114302438Y-110966666D01*
X114302438Y-110966666D02*
X114350057Y-111014285D01*
X114350057Y-111014285D02*
X114445295Y-111061904D01*
X114445295Y-111061904D02*
X114540533Y-111061904D01*
X114540533Y-111061904D02*
X114683390Y-111014285D01*
X114683390Y-111014285D02*
X115254819Y-110442857D01*
X115254819Y-110442857D02*
X115254819Y-111061904D01*
X119833333Y-70454819D02*
X119833333Y-71169104D01*
X119833333Y-71169104D02*
X119880952Y-71311961D01*
X119880952Y-71311961D02*
X119976190Y-71407200D01*
X119976190Y-71407200D02*
X120119047Y-71454819D01*
X120119047Y-71454819D02*
X120214285Y-71454819D01*
X119452380Y-70454819D02*
X118785714Y-70454819D01*
X118785714Y-70454819D02*
X119214285Y-71454819D01*
X107133333Y-79931009D02*
X107466666Y-79931009D01*
X107466666Y-80454819D02*
X107466666Y-79454819D01*
X107466666Y-79454819D02*
X106990476Y-79454819D01*
X106085714Y-80454819D02*
X106657142Y-80454819D01*
X106371428Y-80454819D02*
X106371428Y-79454819D01*
X106371428Y-79454819D02*
X106466666Y-79597676D01*
X106466666Y-79597676D02*
X106561904Y-79692914D01*
X106561904Y-79692914D02*
X106657142Y-79740533D01*
X104161904Y-103654819D02*
X104161904Y-104464342D01*
X104161904Y-104464342D02*
X104114285Y-104559580D01*
X104114285Y-104559580D02*
X104066666Y-104607200D01*
X104066666Y-104607200D02*
X103971428Y-104654819D01*
X103971428Y-104654819D02*
X103780952Y-104654819D01*
X103780952Y-104654819D02*
X103685714Y-104607200D01*
X103685714Y-104607200D02*
X103638095Y-104559580D01*
X103638095Y-104559580D02*
X103590476Y-104464342D01*
X103590476Y-104464342D02*
X103590476Y-103654819D01*
X102590476Y-104654819D02*
X103161904Y-104654819D01*
X102876190Y-104654819D02*
X102876190Y-103654819D01*
X102876190Y-103654819D02*
X102971428Y-103797676D01*
X102971428Y-103797676D02*
X103066666Y-103892914D01*
X103066666Y-103892914D02*
X103161904Y-103940533D01*
X109966666Y-64304819D02*
X110299999Y-63828628D01*
X110538094Y-64304819D02*
X110538094Y-63304819D01*
X110538094Y-63304819D02*
X110157142Y-63304819D01*
X110157142Y-63304819D02*
X110061904Y-63352438D01*
X110061904Y-63352438D02*
X110014285Y-63400057D01*
X110014285Y-63400057D02*
X109966666Y-63495295D01*
X109966666Y-63495295D02*
X109966666Y-63638152D01*
X109966666Y-63638152D02*
X110014285Y-63733390D01*
X110014285Y-63733390D02*
X110061904Y-63781009D01*
X110061904Y-63781009D02*
X110157142Y-63828628D01*
X110157142Y-63828628D02*
X110538094Y-63828628D01*
X109109523Y-63638152D02*
X109109523Y-64304819D01*
X109347618Y-63257200D02*
X109585713Y-63971485D01*
X109585713Y-63971485D02*
X108966666Y-63971485D01*
X123829166Y-89654819D02*
X124162499Y-89178628D01*
X124400594Y-89654819D02*
X124400594Y-88654819D01*
X124400594Y-88654819D02*
X124019642Y-88654819D01*
X124019642Y-88654819D02*
X123924404Y-88702438D01*
X123924404Y-88702438D02*
X123876785Y-88750057D01*
X123876785Y-88750057D02*
X123829166Y-88845295D01*
X123829166Y-88845295D02*
X123829166Y-88988152D01*
X123829166Y-88988152D02*
X123876785Y-89083390D01*
X123876785Y-89083390D02*
X123924404Y-89131009D01*
X123924404Y-89131009D02*
X124019642Y-89178628D01*
X124019642Y-89178628D02*
X124400594Y-89178628D01*
X123257737Y-89083390D02*
X123352975Y-89035771D01*
X123352975Y-89035771D02*
X123400594Y-88988152D01*
X123400594Y-88988152D02*
X123448213Y-88892914D01*
X123448213Y-88892914D02*
X123448213Y-88845295D01*
X123448213Y-88845295D02*
X123400594Y-88750057D01*
X123400594Y-88750057D02*
X123352975Y-88702438D01*
X123352975Y-88702438D02*
X123257737Y-88654819D01*
X123257737Y-88654819D02*
X123067261Y-88654819D01*
X123067261Y-88654819D02*
X122972023Y-88702438D01*
X122972023Y-88702438D02*
X122924404Y-88750057D01*
X122924404Y-88750057D02*
X122876785Y-88845295D01*
X122876785Y-88845295D02*
X122876785Y-88892914D01*
X122876785Y-88892914D02*
X122924404Y-88988152D01*
X122924404Y-88988152D02*
X122972023Y-89035771D01*
X122972023Y-89035771D02*
X123067261Y-89083390D01*
X123067261Y-89083390D02*
X123257737Y-89083390D01*
X123257737Y-89083390D02*
X123352975Y-89131009D01*
X123352975Y-89131009D02*
X123400594Y-89178628D01*
X123400594Y-89178628D02*
X123448213Y-89273866D01*
X123448213Y-89273866D02*
X123448213Y-89464342D01*
X123448213Y-89464342D02*
X123400594Y-89559580D01*
X123400594Y-89559580D02*
X123352975Y-89607200D01*
X123352975Y-89607200D02*
X123257737Y-89654819D01*
X123257737Y-89654819D02*
X123067261Y-89654819D01*
X123067261Y-89654819D02*
X122972023Y-89607200D01*
X122972023Y-89607200D02*
X122924404Y-89559580D01*
X122924404Y-89559580D02*
X122876785Y-89464342D01*
X122876785Y-89464342D02*
X122876785Y-89273866D01*
X122876785Y-89273866D02*
X122924404Y-89178628D01*
X122924404Y-89178628D02*
X122972023Y-89131009D01*
X122972023Y-89131009D02*
X123067261Y-89083390D01*
X105766666Y-96804819D02*
X106099999Y-96328628D01*
X106338094Y-96804819D02*
X106338094Y-95804819D01*
X106338094Y-95804819D02*
X105957142Y-95804819D01*
X105957142Y-95804819D02*
X105861904Y-95852438D01*
X105861904Y-95852438D02*
X105814285Y-95900057D01*
X105814285Y-95900057D02*
X105766666Y-95995295D01*
X105766666Y-95995295D02*
X105766666Y-96138152D01*
X105766666Y-96138152D02*
X105814285Y-96233390D01*
X105814285Y-96233390D02*
X105861904Y-96281009D01*
X105861904Y-96281009D02*
X105957142Y-96328628D01*
X105957142Y-96328628D02*
X106338094Y-96328628D01*
X104814285Y-96804819D02*
X105385713Y-96804819D01*
X105099999Y-96804819D02*
X105099999Y-95804819D01*
X105099999Y-95804819D02*
X105195237Y-95947676D01*
X105195237Y-95947676D02*
X105290475Y-96042914D01*
X105290475Y-96042914D02*
X105385713Y-96090533D01*
X110566666Y-110009580D02*
X110614285Y-110057200D01*
X110614285Y-110057200D02*
X110757142Y-110104819D01*
X110757142Y-110104819D02*
X110852380Y-110104819D01*
X110852380Y-110104819D02*
X110995237Y-110057200D01*
X110995237Y-110057200D02*
X111090475Y-109961961D01*
X111090475Y-109961961D02*
X111138094Y-109866723D01*
X111138094Y-109866723D02*
X111185713Y-109676247D01*
X111185713Y-109676247D02*
X111185713Y-109533390D01*
X111185713Y-109533390D02*
X111138094Y-109342914D01*
X111138094Y-109342914D02*
X111090475Y-109247676D01*
X111090475Y-109247676D02*
X110995237Y-109152438D01*
X110995237Y-109152438D02*
X110852380Y-109104819D01*
X110852380Y-109104819D02*
X110757142Y-109104819D01*
X110757142Y-109104819D02*
X110614285Y-109152438D01*
X110614285Y-109152438D02*
X110566666Y-109200057D01*
X110090475Y-110104819D02*
X109899999Y-110104819D01*
X109899999Y-110104819D02*
X109804761Y-110057200D01*
X109804761Y-110057200D02*
X109757142Y-110009580D01*
X109757142Y-110009580D02*
X109661904Y-109866723D01*
X109661904Y-109866723D02*
X109614285Y-109676247D01*
X109614285Y-109676247D02*
X109614285Y-109295295D01*
X109614285Y-109295295D02*
X109661904Y-109200057D01*
X109661904Y-109200057D02*
X109709523Y-109152438D01*
X109709523Y-109152438D02*
X109804761Y-109104819D01*
X109804761Y-109104819D02*
X109995237Y-109104819D01*
X109995237Y-109104819D02*
X110090475Y-109152438D01*
X110090475Y-109152438D02*
X110138094Y-109200057D01*
X110138094Y-109200057D02*
X110185713Y-109295295D01*
X110185713Y-109295295D02*
X110185713Y-109533390D01*
X110185713Y-109533390D02*
X110138094Y-109628628D01*
X110138094Y-109628628D02*
X110090475Y-109676247D01*
X110090475Y-109676247D02*
X109995237Y-109723866D01*
X109995237Y-109723866D02*
X109804761Y-109723866D01*
X109804761Y-109723866D02*
X109709523Y-109676247D01*
X109709523Y-109676247D02*
X109661904Y-109628628D01*
X109661904Y-109628628D02*
X109614285Y-109533390D01*
X117904819Y-128661905D02*
X116904819Y-128661905D01*
X116904819Y-128661905D02*
X116904819Y-128900000D01*
X116904819Y-128900000D02*
X116952438Y-129042857D01*
X116952438Y-129042857D02*
X117047676Y-129138095D01*
X117047676Y-129138095D02*
X117142914Y-129185714D01*
X117142914Y-129185714D02*
X117333390Y-129233333D01*
X117333390Y-129233333D02*
X117476247Y-129233333D01*
X117476247Y-129233333D02*
X117666723Y-129185714D01*
X117666723Y-129185714D02*
X117761961Y-129138095D01*
X117761961Y-129138095D02*
X117857200Y-129042857D01*
X117857200Y-129042857D02*
X117904819Y-128900000D01*
X117904819Y-128900000D02*
X117904819Y-128661905D01*
X116904819Y-129566667D02*
X116904819Y-130185714D01*
X116904819Y-130185714D02*
X117285771Y-129852381D01*
X117285771Y-129852381D02*
X117285771Y-129995238D01*
X117285771Y-129995238D02*
X117333390Y-130090476D01*
X117333390Y-130090476D02*
X117381009Y-130138095D01*
X117381009Y-130138095D02*
X117476247Y-130185714D01*
X117476247Y-130185714D02*
X117714342Y-130185714D01*
X117714342Y-130185714D02*
X117809580Y-130138095D01*
X117809580Y-130138095D02*
X117857200Y-130090476D01*
X117857200Y-130090476D02*
X117904819Y-129995238D01*
X117904819Y-129995238D02*
X117904819Y-129709524D01*
X117904819Y-129709524D02*
X117857200Y-129614286D01*
X117857200Y-129614286D02*
X117809580Y-129566667D01*
X108054819Y-123661905D02*
X107054819Y-123661905D01*
X107054819Y-123661905D02*
X107054819Y-123900000D01*
X107054819Y-123900000D02*
X107102438Y-124042857D01*
X107102438Y-124042857D02*
X107197676Y-124138095D01*
X107197676Y-124138095D02*
X107292914Y-124185714D01*
X107292914Y-124185714D02*
X107483390Y-124233333D01*
X107483390Y-124233333D02*
X107626247Y-124233333D01*
X107626247Y-124233333D02*
X107816723Y-124185714D01*
X107816723Y-124185714D02*
X107911961Y-124138095D01*
X107911961Y-124138095D02*
X108007200Y-124042857D01*
X108007200Y-124042857D02*
X108054819Y-123900000D01*
X108054819Y-123900000D02*
X108054819Y-123661905D01*
X108054819Y-124709524D02*
X108054819Y-124900000D01*
X108054819Y-124900000D02*
X108007200Y-124995238D01*
X108007200Y-124995238D02*
X107959580Y-125042857D01*
X107959580Y-125042857D02*
X107816723Y-125138095D01*
X107816723Y-125138095D02*
X107626247Y-125185714D01*
X107626247Y-125185714D02*
X107245295Y-125185714D01*
X107245295Y-125185714D02*
X107150057Y-125138095D01*
X107150057Y-125138095D02*
X107102438Y-125090476D01*
X107102438Y-125090476D02*
X107054819Y-124995238D01*
X107054819Y-124995238D02*
X107054819Y-124804762D01*
X107054819Y-124804762D02*
X107102438Y-124709524D01*
X107102438Y-124709524D02*
X107150057Y-124661905D01*
X107150057Y-124661905D02*
X107245295Y-124614286D01*
X107245295Y-124614286D02*
X107483390Y-124614286D01*
X107483390Y-124614286D02*
X107578628Y-124661905D01*
X107578628Y-124661905D02*
X107626247Y-124709524D01*
X107626247Y-124709524D02*
X107673866Y-124804762D01*
X107673866Y-124804762D02*
X107673866Y-124995238D01*
X107673866Y-124995238D02*
X107626247Y-125090476D01*
X107626247Y-125090476D02*
X107578628Y-125138095D01*
X107578628Y-125138095D02*
X107483390Y-125185714D01*
X118842857Y-85654819D02*
X119176190Y-85178628D01*
X119414285Y-85654819D02*
X119414285Y-84654819D01*
X119414285Y-84654819D02*
X119033333Y-84654819D01*
X119033333Y-84654819D02*
X118938095Y-84702438D01*
X118938095Y-84702438D02*
X118890476Y-84750057D01*
X118890476Y-84750057D02*
X118842857Y-84845295D01*
X118842857Y-84845295D02*
X118842857Y-84988152D01*
X118842857Y-84988152D02*
X118890476Y-85083390D01*
X118890476Y-85083390D02*
X118938095Y-85131009D01*
X118938095Y-85131009D02*
X119033333Y-85178628D01*
X119033333Y-85178628D02*
X119414285Y-85178628D01*
X118461904Y-84750057D02*
X118414285Y-84702438D01*
X118414285Y-84702438D02*
X118319047Y-84654819D01*
X118319047Y-84654819D02*
X118080952Y-84654819D01*
X118080952Y-84654819D02*
X117985714Y-84702438D01*
X117985714Y-84702438D02*
X117938095Y-84750057D01*
X117938095Y-84750057D02*
X117890476Y-84845295D01*
X117890476Y-84845295D02*
X117890476Y-84940533D01*
X117890476Y-84940533D02*
X117938095Y-85083390D01*
X117938095Y-85083390D02*
X118509523Y-85654819D01*
X118509523Y-85654819D02*
X117890476Y-85654819D01*
X117557142Y-84654819D02*
X116938095Y-84654819D01*
X116938095Y-84654819D02*
X117271428Y-85035771D01*
X117271428Y-85035771D02*
X117128571Y-85035771D01*
X117128571Y-85035771D02*
X117033333Y-85083390D01*
X117033333Y-85083390D02*
X116985714Y-85131009D01*
X116985714Y-85131009D02*
X116938095Y-85226247D01*
X116938095Y-85226247D02*
X116938095Y-85464342D01*
X116938095Y-85464342D02*
X116985714Y-85559580D01*
X116985714Y-85559580D02*
X117033333Y-85607200D01*
X117033333Y-85607200D02*
X117128571Y-85654819D01*
X117128571Y-85654819D02*
X117414285Y-85654819D01*
X117414285Y-85654819D02*
X117509523Y-85607200D01*
X117509523Y-85607200D02*
X117557142Y-85559580D01*
X106654819Y-57661905D02*
X105654819Y-57661905D01*
X105654819Y-57661905D02*
X105654819Y-57900000D01*
X105654819Y-57900000D02*
X105702438Y-58042857D01*
X105702438Y-58042857D02*
X105797676Y-58138095D01*
X105797676Y-58138095D02*
X105892914Y-58185714D01*
X105892914Y-58185714D02*
X106083390Y-58233333D01*
X106083390Y-58233333D02*
X106226247Y-58233333D01*
X106226247Y-58233333D02*
X106416723Y-58185714D01*
X106416723Y-58185714D02*
X106511961Y-58138095D01*
X106511961Y-58138095D02*
X106607200Y-58042857D01*
X106607200Y-58042857D02*
X106654819Y-57900000D01*
X106654819Y-57900000D02*
X106654819Y-57661905D01*
X105654819Y-59138095D02*
X105654819Y-58661905D01*
X105654819Y-58661905D02*
X106131009Y-58614286D01*
X106131009Y-58614286D02*
X106083390Y-58661905D01*
X106083390Y-58661905D02*
X106035771Y-58757143D01*
X106035771Y-58757143D02*
X106035771Y-58995238D01*
X106035771Y-58995238D02*
X106083390Y-59090476D01*
X106083390Y-59090476D02*
X106131009Y-59138095D01*
X106131009Y-59138095D02*
X106226247Y-59185714D01*
X106226247Y-59185714D02*
X106464342Y-59185714D01*
X106464342Y-59185714D02*
X106559580Y-59138095D01*
X106559580Y-59138095D02*
X106607200Y-59090476D01*
X106607200Y-59090476D02*
X106654819Y-58995238D01*
X106654819Y-58995238D02*
X106654819Y-58757143D01*
X106654819Y-58757143D02*
X106607200Y-58661905D01*
X106607200Y-58661905D02*
X106559580Y-58614286D01*
X118505357Y-111854819D02*
X118838690Y-111378628D01*
X119076785Y-111854819D02*
X119076785Y-110854819D01*
X119076785Y-110854819D02*
X118695833Y-110854819D01*
X118695833Y-110854819D02*
X118600595Y-110902438D01*
X118600595Y-110902438D02*
X118552976Y-110950057D01*
X118552976Y-110950057D02*
X118505357Y-111045295D01*
X118505357Y-111045295D02*
X118505357Y-111188152D01*
X118505357Y-111188152D02*
X118552976Y-111283390D01*
X118552976Y-111283390D02*
X118600595Y-111331009D01*
X118600595Y-111331009D02*
X118695833Y-111378628D01*
X118695833Y-111378628D02*
X119076785Y-111378628D01*
X118124404Y-110950057D02*
X118076785Y-110902438D01*
X118076785Y-110902438D02*
X117981547Y-110854819D01*
X117981547Y-110854819D02*
X117743452Y-110854819D01*
X117743452Y-110854819D02*
X117648214Y-110902438D01*
X117648214Y-110902438D02*
X117600595Y-110950057D01*
X117600595Y-110950057D02*
X117552976Y-111045295D01*
X117552976Y-111045295D02*
X117552976Y-111140533D01*
X117552976Y-111140533D02*
X117600595Y-111283390D01*
X117600595Y-111283390D02*
X118172023Y-111854819D01*
X118172023Y-111854819D02*
X117552976Y-111854819D01*
X116695833Y-111188152D02*
X116695833Y-111854819D01*
X116933928Y-110807200D02*
X117172023Y-111521485D01*
X117172023Y-111521485D02*
X116552976Y-111521485D01*
X121642857Y-57804819D02*
X121976190Y-57328628D01*
X122214285Y-57804819D02*
X122214285Y-56804819D01*
X122214285Y-56804819D02*
X121833333Y-56804819D01*
X121833333Y-56804819D02*
X121738095Y-56852438D01*
X121738095Y-56852438D02*
X121690476Y-56900057D01*
X121690476Y-56900057D02*
X121642857Y-56995295D01*
X121642857Y-56995295D02*
X121642857Y-57138152D01*
X121642857Y-57138152D02*
X121690476Y-57233390D01*
X121690476Y-57233390D02*
X121738095Y-57281009D01*
X121738095Y-57281009D02*
X121833333Y-57328628D01*
X121833333Y-57328628D02*
X122214285Y-57328628D01*
X121261904Y-56900057D02*
X121214285Y-56852438D01*
X121214285Y-56852438D02*
X121119047Y-56804819D01*
X121119047Y-56804819D02*
X120880952Y-56804819D01*
X120880952Y-56804819D02*
X120785714Y-56852438D01*
X120785714Y-56852438D02*
X120738095Y-56900057D01*
X120738095Y-56900057D02*
X120690476Y-56995295D01*
X120690476Y-56995295D02*
X120690476Y-57090533D01*
X120690476Y-57090533D02*
X120738095Y-57233390D01*
X120738095Y-57233390D02*
X121309523Y-57804819D01*
X121309523Y-57804819D02*
X120690476Y-57804819D01*
X120309523Y-56900057D02*
X120261904Y-56852438D01*
X120261904Y-56852438D02*
X120166666Y-56804819D01*
X120166666Y-56804819D02*
X119928571Y-56804819D01*
X119928571Y-56804819D02*
X119833333Y-56852438D01*
X119833333Y-56852438D02*
X119785714Y-56900057D01*
X119785714Y-56900057D02*
X119738095Y-56995295D01*
X119738095Y-56995295D02*
X119738095Y-57090533D01*
X119738095Y-57090533D02*
X119785714Y-57233390D01*
X119785714Y-57233390D02*
X120357142Y-57804819D01*
X120357142Y-57804819D02*
X119738095Y-57804819D01*
X118842857Y-137654819D02*
X119176190Y-137178628D01*
X119414285Y-137654819D02*
X119414285Y-136654819D01*
X119414285Y-136654819D02*
X119033333Y-136654819D01*
X119033333Y-136654819D02*
X118938095Y-136702438D01*
X118938095Y-136702438D02*
X118890476Y-136750057D01*
X118890476Y-136750057D02*
X118842857Y-136845295D01*
X118842857Y-136845295D02*
X118842857Y-136988152D01*
X118842857Y-136988152D02*
X118890476Y-137083390D01*
X118890476Y-137083390D02*
X118938095Y-137131009D01*
X118938095Y-137131009D02*
X119033333Y-137178628D01*
X119033333Y-137178628D02*
X119414285Y-137178628D01*
X118461904Y-136750057D02*
X118414285Y-136702438D01*
X118414285Y-136702438D02*
X118319047Y-136654819D01*
X118319047Y-136654819D02*
X118080952Y-136654819D01*
X118080952Y-136654819D02*
X117985714Y-136702438D01*
X117985714Y-136702438D02*
X117938095Y-136750057D01*
X117938095Y-136750057D02*
X117890476Y-136845295D01*
X117890476Y-136845295D02*
X117890476Y-136940533D01*
X117890476Y-136940533D02*
X117938095Y-137083390D01*
X117938095Y-137083390D02*
X118509523Y-137654819D01*
X118509523Y-137654819D02*
X117890476Y-137654819D01*
X116985714Y-136654819D02*
X117461904Y-136654819D01*
X117461904Y-136654819D02*
X117509523Y-137131009D01*
X117509523Y-137131009D02*
X117461904Y-137083390D01*
X117461904Y-137083390D02*
X117366666Y-137035771D01*
X117366666Y-137035771D02*
X117128571Y-137035771D01*
X117128571Y-137035771D02*
X117033333Y-137083390D01*
X117033333Y-137083390D02*
X116985714Y-137131009D01*
X116985714Y-137131009D02*
X116938095Y-137226247D01*
X116938095Y-137226247D02*
X116938095Y-137464342D01*
X116938095Y-137464342D02*
X116985714Y-137559580D01*
X116985714Y-137559580D02*
X117033333Y-137607200D01*
X117033333Y-137607200D02*
X117128571Y-137654819D01*
X117128571Y-137654819D02*
X117366666Y-137654819D01*
X117366666Y-137654819D02*
X117461904Y-137607200D01*
X117461904Y-137607200D02*
X117509523Y-137559580D01*
X127330357Y-136004819D02*
X127663690Y-135528628D01*
X127901785Y-136004819D02*
X127901785Y-135004819D01*
X127901785Y-135004819D02*
X127520833Y-135004819D01*
X127520833Y-135004819D02*
X127425595Y-135052438D01*
X127425595Y-135052438D02*
X127377976Y-135100057D01*
X127377976Y-135100057D02*
X127330357Y-135195295D01*
X127330357Y-135195295D02*
X127330357Y-135338152D01*
X127330357Y-135338152D02*
X127377976Y-135433390D01*
X127377976Y-135433390D02*
X127425595Y-135481009D01*
X127425595Y-135481009D02*
X127520833Y-135528628D01*
X127520833Y-135528628D02*
X127901785Y-135528628D01*
X126949404Y-135100057D02*
X126901785Y-135052438D01*
X126901785Y-135052438D02*
X126806547Y-135004819D01*
X126806547Y-135004819D02*
X126568452Y-135004819D01*
X126568452Y-135004819D02*
X126473214Y-135052438D01*
X126473214Y-135052438D02*
X126425595Y-135100057D01*
X126425595Y-135100057D02*
X126377976Y-135195295D01*
X126377976Y-135195295D02*
X126377976Y-135290533D01*
X126377976Y-135290533D02*
X126425595Y-135433390D01*
X126425595Y-135433390D02*
X126997023Y-136004819D01*
X126997023Y-136004819D02*
X126377976Y-136004819D01*
X125901785Y-136004819D02*
X125711309Y-136004819D01*
X125711309Y-136004819D02*
X125616071Y-135957200D01*
X125616071Y-135957200D02*
X125568452Y-135909580D01*
X125568452Y-135909580D02*
X125473214Y-135766723D01*
X125473214Y-135766723D02*
X125425595Y-135576247D01*
X125425595Y-135576247D02*
X125425595Y-135195295D01*
X125425595Y-135195295D02*
X125473214Y-135100057D01*
X125473214Y-135100057D02*
X125520833Y-135052438D01*
X125520833Y-135052438D02*
X125616071Y-135004819D01*
X125616071Y-135004819D02*
X125806547Y-135004819D01*
X125806547Y-135004819D02*
X125901785Y-135052438D01*
X125901785Y-135052438D02*
X125949404Y-135100057D01*
X125949404Y-135100057D02*
X125997023Y-135195295D01*
X125997023Y-135195295D02*
X125997023Y-135433390D01*
X125997023Y-135433390D02*
X125949404Y-135528628D01*
X125949404Y-135528628D02*
X125901785Y-135576247D01*
X125901785Y-135576247D02*
X125806547Y-135623866D01*
X125806547Y-135623866D02*
X125616071Y-135623866D01*
X125616071Y-135623866D02*
X125520833Y-135576247D01*
X125520833Y-135576247D02*
X125473214Y-135528628D01*
X125473214Y-135528628D02*
X125425595Y-135433390D01*
X104654819Y-134335714D02*
X103654819Y-134335714D01*
X103654819Y-134335714D02*
X103654819Y-134573809D01*
X103654819Y-134573809D02*
X103702438Y-134716666D01*
X103702438Y-134716666D02*
X103797676Y-134811904D01*
X103797676Y-134811904D02*
X103892914Y-134859523D01*
X103892914Y-134859523D02*
X104083390Y-134907142D01*
X104083390Y-134907142D02*
X104226247Y-134907142D01*
X104226247Y-134907142D02*
X104416723Y-134859523D01*
X104416723Y-134859523D02*
X104511961Y-134811904D01*
X104511961Y-134811904D02*
X104607200Y-134716666D01*
X104607200Y-134716666D02*
X104654819Y-134573809D01*
X104654819Y-134573809D02*
X104654819Y-134335714D01*
X104654819Y-135859523D02*
X104654819Y-135288095D01*
X104654819Y-135573809D02*
X103654819Y-135573809D01*
X103654819Y-135573809D02*
X103797676Y-135478571D01*
X103797676Y-135478571D02*
X103892914Y-135383333D01*
X103892914Y-135383333D02*
X103940533Y-135288095D01*
X104654819Y-136811904D02*
X104654819Y-136240476D01*
X104654819Y-136526190D02*
X103654819Y-136526190D01*
X103654819Y-136526190D02*
X103797676Y-136430952D01*
X103797676Y-136430952D02*
X103892914Y-136335714D01*
X103892914Y-136335714D02*
X103940533Y-136240476D01*
X109254819Y-83661905D02*
X108254819Y-83661905D01*
X108254819Y-83661905D02*
X108254819Y-83900000D01*
X108254819Y-83900000D02*
X108302438Y-84042857D01*
X108302438Y-84042857D02*
X108397676Y-84138095D01*
X108397676Y-84138095D02*
X108492914Y-84185714D01*
X108492914Y-84185714D02*
X108683390Y-84233333D01*
X108683390Y-84233333D02*
X108826247Y-84233333D01*
X108826247Y-84233333D02*
X109016723Y-84185714D01*
X109016723Y-84185714D02*
X109111961Y-84138095D01*
X109111961Y-84138095D02*
X109207200Y-84042857D01*
X109207200Y-84042857D02*
X109254819Y-83900000D01*
X109254819Y-83900000D02*
X109254819Y-83661905D01*
X108254819Y-85090476D02*
X108254819Y-84900000D01*
X108254819Y-84900000D02*
X108302438Y-84804762D01*
X108302438Y-84804762D02*
X108350057Y-84757143D01*
X108350057Y-84757143D02*
X108492914Y-84661905D01*
X108492914Y-84661905D02*
X108683390Y-84614286D01*
X108683390Y-84614286D02*
X109064342Y-84614286D01*
X109064342Y-84614286D02*
X109159580Y-84661905D01*
X109159580Y-84661905D02*
X109207200Y-84709524D01*
X109207200Y-84709524D02*
X109254819Y-84804762D01*
X109254819Y-84804762D02*
X109254819Y-84995238D01*
X109254819Y-84995238D02*
X109207200Y-85090476D01*
X109207200Y-85090476D02*
X109159580Y-85138095D01*
X109159580Y-85138095D02*
X109064342Y-85185714D01*
X109064342Y-85185714D02*
X108826247Y-85185714D01*
X108826247Y-85185714D02*
X108731009Y-85138095D01*
X108731009Y-85138095D02*
X108683390Y-85090476D01*
X108683390Y-85090476D02*
X108635771Y-84995238D01*
X108635771Y-84995238D02*
X108635771Y-84804762D01*
X108635771Y-84804762D02*
X108683390Y-84709524D01*
X108683390Y-84709524D02*
X108731009Y-84661905D01*
X108731009Y-84661905D02*
X108826247Y-84614286D01*
X110504819Y-134335714D02*
X109504819Y-134335714D01*
X109504819Y-134335714D02*
X109504819Y-134573809D01*
X109504819Y-134573809D02*
X109552438Y-134716666D01*
X109552438Y-134716666D02*
X109647676Y-134811904D01*
X109647676Y-134811904D02*
X109742914Y-134859523D01*
X109742914Y-134859523D02*
X109933390Y-134907142D01*
X109933390Y-134907142D02*
X110076247Y-134907142D01*
X110076247Y-134907142D02*
X110266723Y-134859523D01*
X110266723Y-134859523D02*
X110361961Y-134811904D01*
X110361961Y-134811904D02*
X110457200Y-134716666D01*
X110457200Y-134716666D02*
X110504819Y-134573809D01*
X110504819Y-134573809D02*
X110504819Y-134335714D01*
X110504819Y-135859523D02*
X110504819Y-135288095D01*
X110504819Y-135573809D02*
X109504819Y-135573809D01*
X109504819Y-135573809D02*
X109647676Y-135478571D01*
X109647676Y-135478571D02*
X109742914Y-135383333D01*
X109742914Y-135383333D02*
X109790533Y-135288095D01*
X109504819Y-136478571D02*
X109504819Y-136573809D01*
X109504819Y-136573809D02*
X109552438Y-136669047D01*
X109552438Y-136669047D02*
X109600057Y-136716666D01*
X109600057Y-136716666D02*
X109695295Y-136764285D01*
X109695295Y-136764285D02*
X109885771Y-136811904D01*
X109885771Y-136811904D02*
X110123866Y-136811904D01*
X110123866Y-136811904D02*
X110314342Y-136764285D01*
X110314342Y-136764285D02*
X110409580Y-136716666D01*
X110409580Y-136716666D02*
X110457200Y-136669047D01*
X110457200Y-136669047D02*
X110504819Y-136573809D01*
X110504819Y-136573809D02*
X110504819Y-136478571D01*
X110504819Y-136478571D02*
X110457200Y-136383333D01*
X110457200Y-136383333D02*
X110409580Y-136335714D01*
X110409580Y-136335714D02*
X110314342Y-136288095D01*
X110314342Y-136288095D02*
X110123866Y-136240476D01*
X110123866Y-136240476D02*
X109885771Y-136240476D01*
X109885771Y-136240476D02*
X109695295Y-136288095D01*
X109695295Y-136288095D02*
X109600057Y-136335714D01*
X109600057Y-136335714D02*
X109552438Y-136383333D01*
X109552438Y-136383333D02*
X109504819Y-136478571D01*
X108654819Y-57661905D02*
X107654819Y-57661905D01*
X107654819Y-57661905D02*
X107654819Y-57900000D01*
X107654819Y-57900000D02*
X107702438Y-58042857D01*
X107702438Y-58042857D02*
X107797676Y-58138095D01*
X107797676Y-58138095D02*
X107892914Y-58185714D01*
X107892914Y-58185714D02*
X108083390Y-58233333D01*
X108083390Y-58233333D02*
X108226247Y-58233333D01*
X108226247Y-58233333D02*
X108416723Y-58185714D01*
X108416723Y-58185714D02*
X108511961Y-58138095D01*
X108511961Y-58138095D02*
X108607200Y-58042857D01*
X108607200Y-58042857D02*
X108654819Y-57900000D01*
X108654819Y-57900000D02*
X108654819Y-57661905D01*
X107988152Y-59090476D02*
X108654819Y-59090476D01*
X107607200Y-58852381D02*
X108321485Y-58614286D01*
X108321485Y-58614286D02*
X108321485Y-59233333D01*
X127355357Y-84004819D02*
X127688690Y-83528628D01*
X127926785Y-84004819D02*
X127926785Y-83004819D01*
X127926785Y-83004819D02*
X127545833Y-83004819D01*
X127545833Y-83004819D02*
X127450595Y-83052438D01*
X127450595Y-83052438D02*
X127402976Y-83100057D01*
X127402976Y-83100057D02*
X127355357Y-83195295D01*
X127355357Y-83195295D02*
X127355357Y-83338152D01*
X127355357Y-83338152D02*
X127402976Y-83433390D01*
X127402976Y-83433390D02*
X127450595Y-83481009D01*
X127450595Y-83481009D02*
X127545833Y-83528628D01*
X127545833Y-83528628D02*
X127926785Y-83528628D01*
X126974404Y-83100057D02*
X126926785Y-83052438D01*
X126926785Y-83052438D02*
X126831547Y-83004819D01*
X126831547Y-83004819D02*
X126593452Y-83004819D01*
X126593452Y-83004819D02*
X126498214Y-83052438D01*
X126498214Y-83052438D02*
X126450595Y-83100057D01*
X126450595Y-83100057D02*
X126402976Y-83195295D01*
X126402976Y-83195295D02*
X126402976Y-83290533D01*
X126402976Y-83290533D02*
X126450595Y-83433390D01*
X126450595Y-83433390D02*
X127022023Y-84004819D01*
X127022023Y-84004819D02*
X126402976Y-84004819D01*
X126069642Y-83004819D02*
X125402976Y-83004819D01*
X125402976Y-83004819D02*
X125831547Y-84004819D01*
X107454819Y-83661905D02*
X106454819Y-83661905D01*
X106454819Y-83661905D02*
X106454819Y-83900000D01*
X106454819Y-83900000D02*
X106502438Y-84042857D01*
X106502438Y-84042857D02*
X106597676Y-84138095D01*
X106597676Y-84138095D02*
X106692914Y-84185714D01*
X106692914Y-84185714D02*
X106883390Y-84233333D01*
X106883390Y-84233333D02*
X107026247Y-84233333D01*
X107026247Y-84233333D02*
X107216723Y-84185714D01*
X107216723Y-84185714D02*
X107311961Y-84138095D01*
X107311961Y-84138095D02*
X107407200Y-84042857D01*
X107407200Y-84042857D02*
X107454819Y-83900000D01*
X107454819Y-83900000D02*
X107454819Y-83661905D01*
X106454819Y-84566667D02*
X106454819Y-85233333D01*
X106454819Y-85233333D02*
X107454819Y-84804762D01*
X113854819Y-123661905D02*
X112854819Y-123661905D01*
X112854819Y-123661905D02*
X112854819Y-123900000D01*
X112854819Y-123900000D02*
X112902438Y-124042857D01*
X112902438Y-124042857D02*
X112997676Y-124138095D01*
X112997676Y-124138095D02*
X113092914Y-124185714D01*
X113092914Y-124185714D02*
X113283390Y-124233333D01*
X113283390Y-124233333D02*
X113426247Y-124233333D01*
X113426247Y-124233333D02*
X113616723Y-124185714D01*
X113616723Y-124185714D02*
X113711961Y-124138095D01*
X113711961Y-124138095D02*
X113807200Y-124042857D01*
X113807200Y-124042857D02*
X113854819Y-123900000D01*
X113854819Y-123900000D02*
X113854819Y-123661905D01*
X113283390Y-124804762D02*
X113235771Y-124709524D01*
X113235771Y-124709524D02*
X113188152Y-124661905D01*
X113188152Y-124661905D02*
X113092914Y-124614286D01*
X113092914Y-124614286D02*
X113045295Y-124614286D01*
X113045295Y-124614286D02*
X112950057Y-124661905D01*
X112950057Y-124661905D02*
X112902438Y-124709524D01*
X112902438Y-124709524D02*
X112854819Y-124804762D01*
X112854819Y-124804762D02*
X112854819Y-124995238D01*
X112854819Y-124995238D02*
X112902438Y-125090476D01*
X112902438Y-125090476D02*
X112950057Y-125138095D01*
X112950057Y-125138095D02*
X113045295Y-125185714D01*
X113045295Y-125185714D02*
X113092914Y-125185714D01*
X113092914Y-125185714D02*
X113188152Y-125138095D01*
X113188152Y-125138095D02*
X113235771Y-125090476D01*
X113235771Y-125090476D02*
X113283390Y-124995238D01*
X113283390Y-124995238D02*
X113283390Y-124804762D01*
X113283390Y-124804762D02*
X113331009Y-124709524D01*
X113331009Y-124709524D02*
X113378628Y-124661905D01*
X113378628Y-124661905D02*
X113473866Y-124614286D01*
X113473866Y-124614286D02*
X113664342Y-124614286D01*
X113664342Y-124614286D02*
X113759580Y-124661905D01*
X113759580Y-124661905D02*
X113807200Y-124709524D01*
X113807200Y-124709524D02*
X113854819Y-124804762D01*
X113854819Y-124804762D02*
X113854819Y-124995238D01*
X113854819Y-124995238D02*
X113807200Y-125090476D01*
X113807200Y-125090476D02*
X113759580Y-125138095D01*
X113759580Y-125138095D02*
X113664342Y-125185714D01*
X113664342Y-125185714D02*
X113473866Y-125185714D01*
X113473866Y-125185714D02*
X113378628Y-125138095D01*
X113378628Y-125138095D02*
X113331009Y-125090476D01*
X113331009Y-125090476D02*
X113283390Y-124995238D01*
X127330357Y-110204819D02*
X127663690Y-109728628D01*
X127901785Y-110204819D02*
X127901785Y-109204819D01*
X127901785Y-109204819D02*
X127520833Y-109204819D01*
X127520833Y-109204819D02*
X127425595Y-109252438D01*
X127425595Y-109252438D02*
X127377976Y-109300057D01*
X127377976Y-109300057D02*
X127330357Y-109395295D01*
X127330357Y-109395295D02*
X127330357Y-109538152D01*
X127330357Y-109538152D02*
X127377976Y-109633390D01*
X127377976Y-109633390D02*
X127425595Y-109681009D01*
X127425595Y-109681009D02*
X127520833Y-109728628D01*
X127520833Y-109728628D02*
X127901785Y-109728628D01*
X126949404Y-109300057D02*
X126901785Y-109252438D01*
X126901785Y-109252438D02*
X126806547Y-109204819D01*
X126806547Y-109204819D02*
X126568452Y-109204819D01*
X126568452Y-109204819D02*
X126473214Y-109252438D01*
X126473214Y-109252438D02*
X126425595Y-109300057D01*
X126425595Y-109300057D02*
X126377976Y-109395295D01*
X126377976Y-109395295D02*
X126377976Y-109490533D01*
X126377976Y-109490533D02*
X126425595Y-109633390D01*
X126425595Y-109633390D02*
X126997023Y-110204819D01*
X126997023Y-110204819D02*
X126377976Y-110204819D01*
X125806547Y-109633390D02*
X125901785Y-109585771D01*
X125901785Y-109585771D02*
X125949404Y-109538152D01*
X125949404Y-109538152D02*
X125997023Y-109442914D01*
X125997023Y-109442914D02*
X125997023Y-109395295D01*
X125997023Y-109395295D02*
X125949404Y-109300057D01*
X125949404Y-109300057D02*
X125901785Y-109252438D01*
X125901785Y-109252438D02*
X125806547Y-109204819D01*
X125806547Y-109204819D02*
X125616071Y-109204819D01*
X125616071Y-109204819D02*
X125520833Y-109252438D01*
X125520833Y-109252438D02*
X125473214Y-109300057D01*
X125473214Y-109300057D02*
X125425595Y-109395295D01*
X125425595Y-109395295D02*
X125425595Y-109442914D01*
X125425595Y-109442914D02*
X125473214Y-109538152D01*
X125473214Y-109538152D02*
X125520833Y-109585771D01*
X125520833Y-109585771D02*
X125616071Y-109633390D01*
X125616071Y-109633390D02*
X125806547Y-109633390D01*
X125806547Y-109633390D02*
X125901785Y-109681009D01*
X125901785Y-109681009D02*
X125949404Y-109728628D01*
X125949404Y-109728628D02*
X125997023Y-109823866D01*
X125997023Y-109823866D02*
X125997023Y-110014342D01*
X125997023Y-110014342D02*
X125949404Y-110109580D01*
X125949404Y-110109580D02*
X125901785Y-110157200D01*
X125901785Y-110157200D02*
X125806547Y-110204819D01*
X125806547Y-110204819D02*
X125616071Y-110204819D01*
X125616071Y-110204819D02*
X125520833Y-110157200D01*
X125520833Y-110157200D02*
X125473214Y-110109580D01*
X125473214Y-110109580D02*
X125425595Y-110014342D01*
X125425595Y-110014342D02*
X125425595Y-109823866D01*
X125425595Y-109823866D02*
X125473214Y-109728628D01*
X125473214Y-109728628D02*
X125520833Y-109681009D01*
X125520833Y-109681009D02*
X125616071Y-109633390D01*
X126842857Y-57854819D02*
X127176190Y-57378628D01*
X127414285Y-57854819D02*
X127414285Y-56854819D01*
X127414285Y-56854819D02*
X127033333Y-56854819D01*
X127033333Y-56854819D02*
X126938095Y-56902438D01*
X126938095Y-56902438D02*
X126890476Y-56950057D01*
X126890476Y-56950057D02*
X126842857Y-57045295D01*
X126842857Y-57045295D02*
X126842857Y-57188152D01*
X126842857Y-57188152D02*
X126890476Y-57283390D01*
X126890476Y-57283390D02*
X126938095Y-57331009D01*
X126938095Y-57331009D02*
X127033333Y-57378628D01*
X127033333Y-57378628D02*
X127414285Y-57378628D01*
X126461904Y-56950057D02*
X126414285Y-56902438D01*
X126414285Y-56902438D02*
X126319047Y-56854819D01*
X126319047Y-56854819D02*
X126080952Y-56854819D01*
X126080952Y-56854819D02*
X125985714Y-56902438D01*
X125985714Y-56902438D02*
X125938095Y-56950057D01*
X125938095Y-56950057D02*
X125890476Y-57045295D01*
X125890476Y-57045295D02*
X125890476Y-57140533D01*
X125890476Y-57140533D02*
X125938095Y-57283390D01*
X125938095Y-57283390D02*
X126509523Y-57854819D01*
X126509523Y-57854819D02*
X125890476Y-57854819D01*
X125033333Y-56854819D02*
X125223809Y-56854819D01*
X125223809Y-56854819D02*
X125319047Y-56902438D01*
X125319047Y-56902438D02*
X125366666Y-56950057D01*
X125366666Y-56950057D02*
X125461904Y-57092914D01*
X125461904Y-57092914D02*
X125509523Y-57283390D01*
X125509523Y-57283390D02*
X125509523Y-57664342D01*
X125509523Y-57664342D02*
X125461904Y-57759580D01*
X125461904Y-57759580D02*
X125414285Y-57807200D01*
X125414285Y-57807200D02*
X125319047Y-57854819D01*
X125319047Y-57854819D02*
X125128571Y-57854819D01*
X125128571Y-57854819D02*
X125033333Y-57807200D01*
X125033333Y-57807200D02*
X124985714Y-57759580D01*
X124985714Y-57759580D02*
X124938095Y-57664342D01*
X124938095Y-57664342D02*
X124938095Y-57426247D01*
X124938095Y-57426247D02*
X124985714Y-57331009D01*
X124985714Y-57331009D02*
X125033333Y-57283390D01*
X125033333Y-57283390D02*
X125128571Y-57235771D01*
X125128571Y-57235771D02*
X125319047Y-57235771D01*
X125319047Y-57235771D02*
X125414285Y-57283390D01*
X125414285Y-57283390D02*
X125461904Y-57331009D01*
X125461904Y-57331009D02*
X125509523Y-57426247D01*
D12*
X116015000Y-101488748D02*
X116015000Y-102011252D01*
X117485000Y-101488748D02*
X117485000Y-102011252D01*
X118265000Y-102011252D02*
X118265000Y-101488748D01*
X119735000Y-102011252D02*
X119735000Y-101488748D01*
X120988748Y-127265000D02*
X121511252Y-127265000D01*
X120988748Y-128735000D02*
X121511252Y-128735000D01*
X101765000Y-101238748D02*
X101765000Y-101761252D01*
X103235000Y-101238748D02*
X103235000Y-101761252D01*
X112488748Y-81765000D02*
X113011252Y-81765000D01*
X112488748Y-83235000D02*
X113011252Y-83235000D01*
X109988748Y-97265000D02*
X110511252Y-97265000D01*
X109988748Y-98735000D02*
X110511252Y-98735000D01*
X101765000Y-107011252D02*
X101765000Y-106488748D01*
X103235000Y-107011252D02*
X103235000Y-106488748D01*
X104511252Y-81765000D02*
X103988748Y-81765000D01*
X104511252Y-83235000D02*
X103988748Y-83235000D01*
X129010000Y-74350000D02*
X123500000Y-74350000D01*
X129010000Y-74350000D02*
X129010000Y-77650000D01*
X129010000Y-77650000D02*
X123500000Y-77650000D01*
X119990000Y-123490000D02*
X119990000Y-123540000D01*
X119990000Y-124660000D02*
X119990000Y-125440000D01*
X119990000Y-126560000D02*
X119990000Y-126610000D01*
X119990000Y-126610000D02*
X121510000Y-126610000D01*
X121510000Y-123490000D02*
X119990000Y-123490000D01*
X121510000Y-124490000D02*
X121510000Y-123490000D01*
X121510000Y-126610000D02*
X121510000Y-125610000D01*
X119450000Y-125430000D02*
X119690000Y-125100000D01*
X119210000Y-125100000D01*
X119450000Y-125430000D01*
G36*
X119450000Y-125430000D02*
G01*
X119210000Y-125100000D01*
X119690000Y-125100000D01*
X119450000Y-125430000D01*
G37*
X104422936Y-142765000D02*
X104877064Y-142765000D01*
X104422936Y-144235000D02*
X104877064Y-144235000D01*
X126914564Y-140465000D02*
X126460436Y-140465000D01*
X126914564Y-141935000D02*
X126460436Y-141935000D01*
X105622936Y-107265000D02*
X106077064Y-107265000D01*
X105622936Y-108735000D02*
X106077064Y-108735000D01*
X109622936Y-116765000D02*
X110077064Y-116765000D01*
X109622936Y-118235000D02*
X110077064Y-118235000D01*
X126485436Y-86465000D02*
X126939564Y-86465000D01*
X126485436Y-87935000D02*
X126939564Y-87935000D01*
X126877064Y-114665000D02*
X126422936Y-114665000D01*
X126877064Y-116135000D02*
X126422936Y-116135000D01*
X126460936Y-112665000D02*
X126915064Y-112665000D01*
X126460936Y-114135000D02*
X126915064Y-114135000D01*
X104422936Y-90765000D02*
X104877064Y-90765000D01*
X104422936Y-92235000D02*
X104877064Y-92235000D01*
X104422936Y-64765000D02*
X104877064Y-64765000D01*
X104422936Y-66235000D02*
X104877064Y-66235000D01*
X111487936Y-79090000D02*
X112692064Y-79090000D01*
X111487936Y-80910000D02*
X112692064Y-80910000D01*
X109622936Y-90765000D02*
X110077064Y-90765000D01*
X109622936Y-92235000D02*
X110077064Y-92235000D01*
X126460436Y-138465000D02*
X126914564Y-138465000D01*
X126460436Y-139935000D02*
X126914564Y-139935000D01*
X129010000Y-70350000D02*
X123500000Y-70350000D01*
X129010000Y-70350000D02*
X129010000Y-73650000D01*
X129010000Y-73650000D02*
X123500000Y-73650000D01*
X116627064Y-125265000D02*
X116172936Y-125265000D01*
X116627064Y-126735000D02*
X116172936Y-126735000D01*
X104422936Y-116765000D02*
X104877064Y-116765000D01*
X104422936Y-118235000D02*
X104877064Y-118235000D01*
X114015000Y-101522936D02*
X114015000Y-101977064D01*
X115485000Y-101522936D02*
X115485000Y-101977064D01*
X126485436Y-60265000D02*
X126939564Y-60265000D01*
X126485436Y-61735000D02*
X126939564Y-61735000D01*
X126939564Y-62265000D02*
X126485436Y-62265000D01*
X126939564Y-63735000D02*
X126485436Y-63735000D01*
X109622936Y-142765000D02*
X110077064Y-142765000D01*
X109622936Y-144235000D02*
X110077064Y-144235000D01*
X114015000Y-106877064D02*
X114015000Y-106422936D01*
X115485000Y-106877064D02*
X115485000Y-106422936D01*
D11*
X100260000Y-70166000D02*
X120580000Y-70166000D01*
X100260000Y-78294000D02*
X100260000Y-70166000D01*
D12*
X104010000Y-76830000D02*
X104010000Y-71630000D01*
D11*
X107880000Y-78294000D02*
X100260000Y-78294000D01*
D12*
X114230000Y-74230000D02*
X116830000Y-74230000D01*
X114230000Y-76830000D02*
X104010000Y-76830000D01*
X114230000Y-76830000D02*
X114230000Y-74230000D01*
X115500000Y-76830000D02*
X116830000Y-76830000D01*
X116830000Y-71630000D02*
X104010000Y-71630000D01*
X116830000Y-74230000D02*
X116830000Y-71630000D01*
X116830000Y-76830000D02*
X116830000Y-75500000D01*
D11*
X120580000Y-70166000D02*
X120580000Y-78294000D01*
X120580000Y-78294000D02*
X112960000Y-78294000D01*
D12*
X102987936Y-79090000D02*
X104192064Y-79090000D01*
X102987936Y-80910000D02*
X104192064Y-80910000D01*
X104505000Y-100990000D02*
X104505000Y-105110000D01*
X104505000Y-105110000D02*
X104570000Y-105110000D01*
X104570000Y-100990000D02*
X104505000Y-100990000D01*
X113310000Y-105110000D02*
X113375000Y-105110000D01*
X113375000Y-100990000D02*
X113310000Y-100990000D01*
X113375000Y-105110000D02*
X113375000Y-100990000D01*
X104570000Y-100450000D02*
X104240000Y-100210000D01*
X104240000Y-100690000D01*
X104570000Y-100450000D01*
G36*
X104570000Y-100450000D02*
G01*
X104240000Y-100690000D01*
X104240000Y-100210000D01*
X104570000Y-100450000D01*
G37*
X109622936Y-64765000D02*
X110077064Y-64765000D01*
X109622936Y-66235000D02*
X110077064Y-66235000D01*
X126939564Y-88465000D02*
X126485436Y-88465000D01*
X126939564Y-89935000D02*
X126485436Y-89935000D01*
X105422936Y-97265000D02*
X105877064Y-97265000D01*
X105422936Y-98735000D02*
X105877064Y-98735000D01*
X110761252Y-107265000D02*
X110238748Y-107265000D01*
X110761252Y-108735000D02*
X110238748Y-108735000D01*
X114750000Y-131010000D02*
X114750000Y-128350000D01*
X116450000Y-131010000D02*
X114750000Y-131010000D01*
X116450000Y-131010000D02*
X116450000Y-128350000D01*
X108550000Y-125960000D02*
X108550000Y-123300000D01*
X110250000Y-125960000D02*
X108550000Y-125960000D01*
X110250000Y-125960000D02*
X110250000Y-123300000D01*
X121739564Y-84465000D02*
X121285436Y-84465000D01*
X121739564Y-85935000D02*
X121285436Y-85935000D01*
X105350000Y-62560000D02*
X105350000Y-59900000D01*
X107050000Y-62560000D02*
X105350000Y-62560000D01*
X107050000Y-62560000D02*
X107050000Y-59900000D01*
X121139564Y-110665000D02*
X120685436Y-110665000D01*
X121139564Y-112135000D02*
X120685436Y-112135000D01*
X121314564Y-58265000D02*
X120860436Y-58265000D01*
X121314564Y-59735000D02*
X120860436Y-59735000D01*
X121627064Y-136465000D02*
X121172936Y-136465000D01*
X121627064Y-137935000D02*
X121172936Y-137935000D01*
X126914564Y-136465000D02*
X126460436Y-136465000D01*
X126914564Y-137935000D02*
X126460436Y-137935000D01*
X105150000Y-137160000D02*
X105150000Y-134500000D01*
X106850000Y-137160000D02*
X105150000Y-137160000D01*
X106850000Y-137160000D02*
X106850000Y-134500000D01*
X107950000Y-88760000D02*
X107950000Y-86100000D01*
X109650000Y-88760000D02*
X107950000Y-88760000D01*
X109650000Y-88760000D02*
X109650000Y-86100000D01*
X107350000Y-137160000D02*
X107350000Y-134500000D01*
X109050000Y-137160000D02*
X107350000Y-137160000D01*
X109050000Y-137160000D02*
X109050000Y-134500000D01*
X107350000Y-62560000D02*
X107350000Y-59900000D01*
X109050000Y-62560000D02*
X107350000Y-62560000D01*
X109050000Y-62560000D02*
X109050000Y-59900000D01*
X126939564Y-84465000D02*
X126485436Y-84465000D01*
X126939564Y-85935000D02*
X126485436Y-85935000D01*
X105950000Y-88760000D02*
X105950000Y-86100000D01*
X107650000Y-88760000D02*
X105950000Y-88760000D01*
X107650000Y-88760000D02*
X107650000Y-86100000D01*
X110750000Y-125960000D02*
X110750000Y-123300000D01*
X112450000Y-125960000D02*
X110750000Y-125960000D01*
X112450000Y-125960000D02*
X112450000Y-123300000D01*
X126914564Y-110665000D02*
X126460436Y-110665000D01*
X126914564Y-112135000D02*
X126460436Y-112135000D01*
D13*
X105331722Y-51018570D02*
X105203132Y-51078714D01*
X105060218Y-51207752D01*
X105058256Y-51209770D01*
X104930830Y-51359782D01*
X104871800Y-51495746D01*
X104857984Y-51659444D01*
X104873260Y-51830170D01*
X104934872Y-51963288D01*
X105057422Y-52102340D01*
X105204370Y-52230178D01*
X105339024Y-52288686D01*
X105494866Y-52301566D01*
X105722348Y-52268398D01*
X105917682Y-52188678D01*
X105992300Y-52148806D01*
X106078086Y-52119554D01*
X106192894Y-52099306D01*
X106354578Y-52086446D01*
X106580988Y-52079360D01*
X106889982Y-52076436D01*
X107163732Y-52076000D01*
X107534734Y-52076480D01*
X107809672Y-52079162D01*
X108005376Y-52085900D01*
X108138670Y-52098550D01*
X108226382Y-52118970D01*
X108285334Y-52149018D01*
X108332356Y-52190546D01*
X108347700Y-52206638D01*
X108448618Y-52383334D01*
X108479430Y-52595614D01*
X108441520Y-52802446D01*
X108336280Y-52962798D01*
X108321706Y-52975014D01*
X108263986Y-53015152D01*
X108196246Y-53044914D01*
X108101792Y-53065838D01*
X107963926Y-53079468D01*
X107765950Y-53087342D01*
X107491166Y-53091002D01*
X107122878Y-53091986D01*
X107053822Y-53092000D01*
X106658588Y-53093174D01*
X106356942Y-53097736D01*
X106129596Y-53107252D01*
X105957262Y-53123280D01*
X105820656Y-53147382D01*
X105700488Y-53181124D01*
X105625506Y-53207670D01*
X105290926Y-53388040D01*
X105037500Y-53643156D01*
X104872520Y-53962400D01*
X104803274Y-54335146D01*
X104801540Y-54408208D01*
X104844798Y-54810738D01*
X104976602Y-55144860D01*
X105200000Y-55415880D01*
X105496484Y-55617972D01*
X105596636Y-55668812D01*
X105688910Y-55707282D01*
X105790926Y-55735422D01*
X105920314Y-55755270D01*
X106094696Y-55768868D01*
X106331700Y-55778252D01*
X106648948Y-55785464D01*
X106995518Y-55791420D01*
X107402796Y-55799066D01*
X107713380Y-55807870D01*
X107943462Y-55819324D01*
X108109232Y-55834926D01*
X108226886Y-55856166D01*
X108312616Y-55884538D01*
X108378406Y-55918948D01*
X108641264Y-56019342D01*
X108909824Y-56014754D01*
X109159414Y-55907126D01*
X109230464Y-55851930D01*
X109352924Y-55730924D01*
X109411672Y-55617510D01*
X109429322Y-55459778D01*
X109429908Y-55401432D01*
X109074270Y-55401432D01*
X109066940Y-55450550D01*
X108974180Y-55582030D01*
X108823952Y-55641146D01*
X108650980Y-55620680D01*
X108540984Y-55559882D01*
X108473952Y-55450900D01*
X108490050Y-55322216D01*
X108572034Y-55205786D01*
X108702658Y-55133574D01*
X108776156Y-55124000D01*
X108920106Y-55166822D01*
X109030160Y-55271296D01*
X109074270Y-55401432D01*
X109429908Y-55401432D01*
X109429984Y-55393876D01*
X109420208Y-55211130D01*
X109374986Y-55086510D01*
X109270484Y-54965858D01*
X109221398Y-54919946D01*
X108993456Y-54772918D01*
X108750480Y-54722256D01*
X108516934Y-54770282D01*
X108398582Y-54841778D01*
X108343448Y-54879516D01*
X108276520Y-54907792D01*
X108181810Y-54927962D01*
X108043334Y-54941376D01*
X107845110Y-54949386D01*
X107571154Y-54953348D01*
X107205480Y-54954610D01*
X107064526Y-54954666D01*
X106666550Y-54954028D01*
X106365906Y-54951230D01*
X106147038Y-54944936D01*
X105994394Y-54933816D01*
X105892416Y-54916540D01*
X105825550Y-54891776D01*
X105778244Y-54858192D01*
X105762530Y-54843212D01*
X105632610Y-54640274D01*
X105601308Y-54406892D01*
X105669916Y-54169812D01*
X105725736Y-54079778D01*
X105759276Y-54042892D01*
X105808946Y-54014356D01*
X105889420Y-53992582D01*
X106015370Y-53975984D01*
X106201470Y-53962980D01*
X106462394Y-53951984D01*
X106812818Y-53941408D01*
X107068742Y-53934694D01*
X107524302Y-53921410D01*
X107883016Y-53905288D01*
X108160924Y-53882900D01*
X108374072Y-53850812D01*
X108538498Y-53805598D01*
X108670244Y-53743824D01*
X108785354Y-53662060D01*
X108899868Y-53556880D01*
X108917476Y-53539380D01*
X109103318Y-53326226D01*
X109217058Y-53114894D01*
X109273562Y-52867036D01*
X109287752Y-52584000D01*
X109281794Y-52342222D01*
X109255712Y-52168290D01*
X109199502Y-52017614D01*
X109133434Y-51896244D01*
X109031830Y-51743966D01*
X105799554Y-51743966D01*
X105719046Y-51855488D01*
X105549570Y-51904946D01*
X105501260Y-51906666D01*
X105362658Y-51889868D01*
X105295214Y-51823656D01*
X105277296Y-51769628D01*
X105265114Y-51611406D01*
X105281016Y-51512508D01*
X105328730Y-51432032D01*
X105425198Y-51405740D01*
X105524972Y-51409656D01*
X105676076Y-51440438D01*
X105757420Y-51517398D01*
X105783888Y-51578738D01*
X105799554Y-51743966D01*
X109031830Y-51743966D01*
X108999920Y-51696144D01*
X108851946Y-51539222D01*
X108674526Y-51420576D01*
X108452674Y-51335308D01*
X108171408Y-51278518D01*
X107815740Y-51245304D01*
X107370686Y-51230768D01*
X107092680Y-51228960D01*
X106723858Y-51227802D01*
X106449874Y-51223496D01*
X106252682Y-51214336D01*
X106114240Y-51198618D01*
X106016508Y-51174638D01*
X105941438Y-51140688D01*
X105902206Y-51116444D01*
X105699938Y-51031344D01*
X105495702Y-51003926D01*
X105331722Y-51018570D01*
G36*
X109133434Y-51896244D02*
G01*
X109199502Y-52017614D01*
X109255712Y-52168290D01*
X109281794Y-52342222D01*
X109287752Y-52584000D01*
X109273562Y-52867036D01*
X109217058Y-53114894D01*
X109103318Y-53326226D01*
X108917476Y-53539380D01*
X108899868Y-53556880D01*
X108785354Y-53662060D01*
X108670244Y-53743824D01*
X108538498Y-53805598D01*
X108374072Y-53850812D01*
X108160924Y-53882900D01*
X107883016Y-53905288D01*
X107524302Y-53921410D01*
X107068742Y-53934694D01*
X106812818Y-53941408D01*
X106462394Y-53951984D01*
X106201470Y-53962980D01*
X106015370Y-53975984D01*
X105889420Y-53992582D01*
X105808946Y-54014356D01*
X105759276Y-54042892D01*
X105725736Y-54079778D01*
X105669916Y-54169812D01*
X105601308Y-54406892D01*
X105632610Y-54640274D01*
X105762530Y-54843212D01*
X105778244Y-54858192D01*
X105825550Y-54891776D01*
X105892416Y-54916540D01*
X105994394Y-54933816D01*
X106147038Y-54944936D01*
X106365906Y-54951230D01*
X106666550Y-54954028D01*
X107064526Y-54954666D01*
X107205480Y-54954610D01*
X107571154Y-54953348D01*
X107845110Y-54949386D01*
X108043334Y-54941376D01*
X108181810Y-54927962D01*
X108276520Y-54907792D01*
X108343448Y-54879516D01*
X108398582Y-54841778D01*
X108516934Y-54770282D01*
X108750480Y-54722256D01*
X108993456Y-54772918D01*
X109221398Y-54919946D01*
X109270484Y-54965858D01*
X109374986Y-55086510D01*
X109420208Y-55211130D01*
X109429984Y-55393876D01*
X109429908Y-55401432D01*
X109429322Y-55459778D01*
X109411672Y-55617510D01*
X109352924Y-55730924D01*
X109230464Y-55851930D01*
X109159414Y-55907126D01*
X108909824Y-56014754D01*
X108641264Y-56019342D01*
X108378406Y-55918948D01*
X108312616Y-55884538D01*
X108226886Y-55856166D01*
X108109232Y-55834926D01*
X107943462Y-55819324D01*
X107713380Y-55807870D01*
X107402796Y-55799066D01*
X106995518Y-55791420D01*
X106648948Y-55785464D01*
X106331700Y-55778252D01*
X106094696Y-55768868D01*
X105920314Y-55755270D01*
X105790926Y-55735422D01*
X105688910Y-55707282D01*
X105596636Y-55668812D01*
X105496484Y-55617972D01*
X105251377Y-55450900D01*
X108473952Y-55450900D01*
X108540984Y-55559882D01*
X108650980Y-55620680D01*
X108823952Y-55641146D01*
X108974180Y-55582030D01*
X109066940Y-55450550D01*
X109074270Y-55401432D01*
X109030160Y-55271296D01*
X108920106Y-55166822D01*
X108776156Y-55124000D01*
X108702658Y-55133574D01*
X108572034Y-55205786D01*
X108490050Y-55322216D01*
X108473952Y-55450900D01*
X105251377Y-55450900D01*
X105200000Y-55415880D01*
X104976602Y-55144860D01*
X104844798Y-54810738D01*
X104801540Y-54408208D01*
X104803274Y-54335146D01*
X104872520Y-53962400D01*
X105037500Y-53643156D01*
X105290926Y-53388040D01*
X105625506Y-53207670D01*
X105700488Y-53181124D01*
X105820656Y-53147382D01*
X105957262Y-53123280D01*
X106129596Y-53107252D01*
X106356942Y-53097736D01*
X106658588Y-53093174D01*
X107053822Y-53092000D01*
X107122878Y-53091986D01*
X107491166Y-53091002D01*
X107765950Y-53087342D01*
X107963926Y-53079468D01*
X108101792Y-53065838D01*
X108196246Y-53044914D01*
X108263986Y-53015152D01*
X108321706Y-52975014D01*
X108336280Y-52962798D01*
X108441520Y-52802446D01*
X108479430Y-52595614D01*
X108448618Y-52383334D01*
X108347700Y-52206638D01*
X108332356Y-52190546D01*
X108285334Y-52149018D01*
X108226382Y-52118970D01*
X108138670Y-52098550D01*
X108005376Y-52085900D01*
X107809672Y-52079162D01*
X107534734Y-52076480D01*
X107163732Y-52076000D01*
X106889982Y-52076436D01*
X106580988Y-52079360D01*
X106354578Y-52086446D01*
X106192894Y-52099306D01*
X106078086Y-52119554D01*
X105992300Y-52148806D01*
X105917682Y-52188678D01*
X105722348Y-52268398D01*
X105494866Y-52301566D01*
X105339024Y-52288686D01*
X105204370Y-52230178D01*
X105057422Y-52102340D01*
X104934872Y-51963288D01*
X104873260Y-51830170D01*
X104857984Y-51659444D01*
X104862038Y-51611406D01*
X105265114Y-51611406D01*
X105277296Y-51769628D01*
X105295214Y-51823656D01*
X105362658Y-51889868D01*
X105501260Y-51906666D01*
X105549570Y-51904946D01*
X105719046Y-51855488D01*
X105799554Y-51743966D01*
X105783888Y-51578738D01*
X105757420Y-51517398D01*
X105676076Y-51440438D01*
X105524972Y-51409656D01*
X105425198Y-51405740D01*
X105328730Y-51432032D01*
X105281016Y-51512508D01*
X105265114Y-51611406D01*
X104862038Y-51611406D01*
X104871800Y-51495746D01*
X104930830Y-51359782D01*
X105058256Y-51209770D01*
X105060218Y-51207752D01*
X105203132Y-51078714D01*
X105331722Y-51018570D01*
X105495702Y-51003926D01*
X105699938Y-51031344D01*
X105902206Y-51116444D01*
X105941438Y-51140688D01*
X106016508Y-51174638D01*
X106114240Y-51198618D01*
X106252682Y-51214336D01*
X106449874Y-51223496D01*
X106723858Y-51227802D01*
X107092680Y-51228960D01*
X107370686Y-51230768D01*
X107815740Y-51245304D01*
X108171408Y-51278518D01*
X108452674Y-51335308D01*
X108674526Y-51420576D01*
X108851946Y-51539222D01*
X108999920Y-51696144D01*
X109031830Y-51743966D01*
X109133434Y-51896244D01*
G37*
D12*
X126460436Y-58265000D02*
X126914564Y-58265000D01*
X126460436Y-59735000D02*
X126914564Y-59735000D01*
M02*
