M48
; DRILL file KiCad 10.0.6 date 2026-10-03T15:39:39
; FORMAT={-:-/ absolute / metric / decimal}
; #@! TF.CreationDate,2026-10-03T15:39:39-07:00
; #@! TF.GenerationSoftware,Kicad,Pcbnew,10.0.6
; #@! TF.FileFunction,Plated,1,2,PTH
FMAT,2
METRIC
; #@! TA.AperFunction,Plated,PTH,ViaDrill
T1C0.300
; #@! TA.AperFunction,Plated,PTH,ViaDrill
T2C0.400
; #@! TA.AperFunction,Plated,PTH,ComponentDrill
T3C0.750
; #@! TA.AperFunction,Plated,PTH,ComponentDrill
T4C1.000
; #@! TA.AperFunction,Plated,PTH,ComponentDrill
T5C1.220
; #@! TA.AperFunction,Plated,PTH,ComponentDrill
T6C2.000
%
G90
G05
T1
X106.625Y-127.0
X107.4Y-83.8
X107.6Y-125.0
X108.6Y-80.6
X109.6Y-129.6
X110.8Y-128.2
X115.2Y-81.8
X115.6Y-82.6
X116.0Y-123.2
X116.4Y-111.8
X116.4Y-115.6
X116.6Y-82.8
X117.6Y-58.0
X117.6Y-115.6
X117.6Y-121.4
X118.6Y-73.0
X118.8Y-114.0
X121.4Y-109.6
X121.4Y-116.2
X121.4Y-138.6
X121.8Y-83.4
X121.8Y-113.4
X122.2Y-122.4
X123.4Y-59.2
X124.0Y-85.2
X124.8Y-77.4
X125.2Y-77.0
X125.2Y-126.2
X125.6Y-76.6
X126.2Y-81.2
X126.2Y-118.2
X127.0Y-70.2
X127.0Y-73.6
X127.6Y-122.6
X127.8Y-126.4
X128.8Y-70.2
X129.0Y-73.6
T2
X102.25Y-96.25
X102.5Y-97.75
X105.2Y-102.275
X106.0Y-109.25
X106.0Y-140.25
X107.25Y-112.5
X107.75Y-103.25
X109.0Y-109.5
X109.25Y-102.75
X110.0Y-82.0
X111.5Y-93.5
X115.0Y-119.0
X117.25Y-87.75
X118.75Y-121.4
X118.887Y-77.697
X123.0Y-63.0
X124.4Y-61.0
T4
X104.75Y-68.5
X104.75Y-94.5
X104.75Y-120.5
X104.75Y-146.5
X105.34Y-72.96
X105.34Y-75.5
X107.25Y-68.5
X107.25Y-94.5
X107.25Y-120.5
X107.25Y-146.5
X107.88Y-72.96
X107.88Y-75.5
X109.75Y-68.5
X109.75Y-94.5
X109.75Y-120.5
X109.75Y-146.5
X110.42Y-72.96
X110.42Y-75.5
X112.96Y-72.96
X112.96Y-75.5
X115.5Y-72.96
X115.5Y-75.5
T5
X117.322Y-55.0
X117.322Y-67.0
X117.322Y-81.0
X117.322Y-93.0
X117.322Y-107.0
X117.322Y-119.0
X117.322Y-133.0
X117.322Y-145.0
T6
X102.5Y-61.0
X102.5Y-87.0
X102.5Y-113.0
X102.5Y-139.0
X112.0Y-61.0
X112.0Y-87.0
X112.0Y-113.0
X112.0Y-139.0
T3
X120.422Y-54.125G85X120.422Y-55.875
G05
X120.422Y-66.125G85X120.422Y-67.875
G05
X120.422Y-80.125G85X120.422Y-81.875
G05
X120.422Y-92.125G85X120.422Y-93.875
G05
X120.422Y-106.125G85X120.422Y-107.875
G05
X120.422Y-118.125G85X120.422Y-119.875
G05
X120.422Y-132.125G85X120.422Y-133.875
G05
X120.422Y-144.125G85X120.422Y-145.875
G05
X128.722Y-54.125G85X128.722Y-55.875
G05
X128.722Y-66.125G85X128.722Y-67.875
G05
X128.722Y-80.125G85X128.722Y-81.875
G05
X128.722Y-92.125G85X128.722Y-93.875
G05
X128.722Y-106.125G85X128.722Y-107.875
G05
X128.722Y-118.125G85X128.722Y-119.875
G05
X128.722Y-132.125G85X128.722Y-133.875
G05
X128.722Y-144.125G85X128.722Y-145.875
G05
M30
