G04 #@! TF.GenerationSoftware,KiCad,Pcbnew,(5.1.4)-1*
G04 #@! TF.CreationDate,2019-11-25T21:03:09-08:00*
G04 #@! TF.ProjectId,Attenuverter,41747465-6e75-4766-9572-7465722e6b69,rev?*
G04 #@! TF.SameCoordinates,Original*
G04 #@! TF.FileFunction,Soldermask,Bot*
G04 #@! TF.FilePolarity,Negative*
%FSLAX46Y46*%
G04 Gerber Fmt 4.6, Leading zero omitted, Abs format (unit mm)*
G04 Created by KiCad (PCBNEW (5.1.4)-1) date 2019-11-25 21:03:09*
%MOMM*%
%LPD*%
G04 APERTURE LIST*
%ADD10C,0.100000*%
G04 APERTURE END LIST*
D10*
G36*
X110027395Y-145585546D02*
G01*
X110200466Y-145657234D01*
X110200467Y-145657235D01*
X110356227Y-145761310D01*
X110488690Y-145893773D01*
X110488691Y-145893775D01*
X110592766Y-146049534D01*
X110664454Y-146222605D01*
X110701000Y-146406333D01*
X110701000Y-146593667D01*
X110664454Y-146777395D01*
X110592766Y-146950466D01*
X110592765Y-146950467D01*
X110488690Y-147106227D01*
X110356227Y-147238690D01*
X110277818Y-147291081D01*
X110200466Y-147342766D01*
X110027395Y-147414454D01*
X109843667Y-147451000D01*
X109656333Y-147451000D01*
X109472605Y-147414454D01*
X109299534Y-147342766D01*
X109222182Y-147291081D01*
X109143773Y-147238690D01*
X109011310Y-147106227D01*
X108907235Y-146950467D01*
X108907234Y-146950466D01*
X108835546Y-146777395D01*
X108799000Y-146593667D01*
X108799000Y-146406333D01*
X108835546Y-146222605D01*
X108907234Y-146049534D01*
X109011309Y-145893775D01*
X109011310Y-145893773D01*
X109143773Y-145761310D01*
X109299533Y-145657235D01*
X109299534Y-145657234D01*
X109472605Y-145585546D01*
X109656333Y-145549000D01*
X109843667Y-145549000D01*
X110027395Y-145585546D01*
X110027395Y-145585546D01*
G37*
G36*
X107527395Y-145585546D02*
G01*
X107700466Y-145657234D01*
X107700467Y-145657235D01*
X107856227Y-145761310D01*
X107988690Y-145893773D01*
X107988691Y-145893775D01*
X108092766Y-146049534D01*
X108164454Y-146222605D01*
X108201000Y-146406333D01*
X108201000Y-146593667D01*
X108164454Y-146777395D01*
X108092766Y-146950466D01*
X108092765Y-146950467D01*
X107988690Y-147106227D01*
X107856227Y-147238690D01*
X107777818Y-147291081D01*
X107700466Y-147342766D01*
X107527395Y-147414454D01*
X107343667Y-147451000D01*
X107156333Y-147451000D01*
X106972605Y-147414454D01*
X106799534Y-147342766D01*
X106722182Y-147291081D01*
X106643773Y-147238690D01*
X106511310Y-147106227D01*
X106407235Y-146950467D01*
X106407234Y-146950466D01*
X106335546Y-146777395D01*
X106299000Y-146593667D01*
X106299000Y-146406333D01*
X106335546Y-146222605D01*
X106407234Y-146049534D01*
X106511309Y-145893775D01*
X106511310Y-145893773D01*
X106643773Y-145761310D01*
X106799533Y-145657235D01*
X106799534Y-145657234D01*
X106972605Y-145585546D01*
X107156333Y-145549000D01*
X107343667Y-145549000D01*
X107527395Y-145585546D01*
X107527395Y-145585546D01*
G37*
G36*
X105027395Y-145585546D02*
G01*
X105200466Y-145657234D01*
X105200467Y-145657235D01*
X105356227Y-145761310D01*
X105488690Y-145893773D01*
X105488691Y-145893775D01*
X105592766Y-146049534D01*
X105664454Y-146222605D01*
X105701000Y-146406333D01*
X105701000Y-146593667D01*
X105664454Y-146777395D01*
X105592766Y-146950466D01*
X105592765Y-146950467D01*
X105488690Y-147106227D01*
X105356227Y-147238690D01*
X105277818Y-147291081D01*
X105200466Y-147342766D01*
X105027395Y-147414454D01*
X104843667Y-147451000D01*
X104656333Y-147451000D01*
X104472605Y-147414454D01*
X104299534Y-147342766D01*
X104222182Y-147291081D01*
X104143773Y-147238690D01*
X104011310Y-147106227D01*
X103907235Y-146950467D01*
X103907234Y-146950466D01*
X103835546Y-146777395D01*
X103799000Y-146593667D01*
X103799000Y-146406333D01*
X103835546Y-146222605D01*
X103907234Y-146049534D01*
X104011309Y-145893775D01*
X104011310Y-145893773D01*
X104143773Y-145761310D01*
X104299533Y-145657235D01*
X104299534Y-145657234D01*
X104472605Y-145585546D01*
X104656333Y-145549000D01*
X104843667Y-145549000D01*
X105027395Y-145585546D01*
X105027395Y-145585546D01*
G37*
G36*
X128557023Y-143310590D02*
G01*
X128657682Y-143341125D01*
X128708013Y-143356392D01*
X128847165Y-143430771D01*
X128969133Y-143530867D01*
X129069229Y-143652835D01*
X129143608Y-143791987D01*
X129144601Y-143795260D01*
X129189410Y-143942977D01*
X129201000Y-144060655D01*
X129201000Y-145939345D01*
X129189410Y-146057023D01*
X129158875Y-146157682D01*
X129143608Y-146208013D01*
X129135808Y-146222605D01*
X129069229Y-146347165D01*
X128969133Y-146469133D01*
X128869376Y-146551000D01*
X128847164Y-146569229D01*
X128708012Y-146643608D01*
X128657681Y-146658875D01*
X128557022Y-146689410D01*
X128400000Y-146704875D01*
X128242977Y-146689410D01*
X128142318Y-146658875D01*
X128091987Y-146643608D01*
X127952835Y-146569229D01*
X127857995Y-146491396D01*
X127830867Y-146469133D01*
X127730771Y-146347164D01*
X127656392Y-146208012D01*
X127641125Y-146157681D01*
X127610590Y-146057022D01*
X127599000Y-145939344D01*
X127599001Y-144060655D01*
X127610591Y-143942977D01*
X127655400Y-143795260D01*
X127656393Y-143791987D01*
X127730772Y-143652835D01*
X127830868Y-143530867D01*
X127952836Y-143430771D01*
X128091988Y-143356392D01*
X128142319Y-143341125D01*
X128242978Y-143310590D01*
X128400000Y-143295125D01*
X128557023Y-143310590D01*
X128557023Y-143310590D01*
G37*
G36*
X120257023Y-143310590D02*
G01*
X120357682Y-143341125D01*
X120408013Y-143356392D01*
X120547165Y-143430771D01*
X120669133Y-143530867D01*
X120769229Y-143652835D01*
X120843608Y-143791987D01*
X120844601Y-143795260D01*
X120889410Y-143942977D01*
X120901000Y-144060655D01*
X120901000Y-145939345D01*
X120889410Y-146057023D01*
X120858875Y-146157682D01*
X120843608Y-146208013D01*
X120835808Y-146222605D01*
X120769229Y-146347165D01*
X120669133Y-146469133D01*
X120569376Y-146551000D01*
X120547164Y-146569229D01*
X120408012Y-146643608D01*
X120357681Y-146658875D01*
X120257022Y-146689410D01*
X120100000Y-146704875D01*
X119942977Y-146689410D01*
X119842318Y-146658875D01*
X119791987Y-146643608D01*
X119652835Y-146569229D01*
X119557995Y-146491396D01*
X119530867Y-146469133D01*
X119430771Y-146347164D01*
X119356392Y-146208012D01*
X119341125Y-146157681D01*
X119310590Y-146057022D01*
X119299000Y-145939344D01*
X119299001Y-144060655D01*
X119310591Y-143942977D01*
X119355400Y-143795260D01*
X119356393Y-143791987D01*
X119430772Y-143652835D01*
X119530868Y-143530867D01*
X119652836Y-143430771D01*
X119791988Y-143356392D01*
X119842319Y-143341125D01*
X119942978Y-143310590D01*
X120100000Y-143295125D01*
X120257023Y-143310590D01*
X120257023Y-143310590D01*
G37*
G36*
X123779585Y-143478802D02*
G01*
X123929410Y-143508604D01*
X124211674Y-143625521D01*
X124465705Y-143795259D01*
X124681741Y-144011295D01*
X124851479Y-144265326D01*
X124968396Y-144547590D01*
X125028000Y-144847240D01*
X125028000Y-145152760D01*
X124968396Y-145452410D01*
X124851479Y-145734674D01*
X124681741Y-145988705D01*
X124465705Y-146204741D01*
X124211674Y-146374479D01*
X123929410Y-146491396D01*
X123779585Y-146521198D01*
X123629761Y-146551000D01*
X123324239Y-146551000D01*
X123174415Y-146521198D01*
X123024590Y-146491396D01*
X122742326Y-146374479D01*
X122488295Y-146204741D01*
X122272259Y-145988705D01*
X122102521Y-145734674D01*
X121985604Y-145452410D01*
X121926000Y-145152760D01*
X121926000Y-144847240D01*
X121985604Y-144547590D01*
X122102521Y-144265326D01*
X122272259Y-144011295D01*
X122488295Y-143795259D01*
X122742326Y-143625521D01*
X123024590Y-143508604D01*
X123174415Y-143478802D01*
X123324239Y-143449000D01*
X123629761Y-143449000D01*
X123779585Y-143478802D01*
X123779585Y-143478802D01*
G37*
G36*
X117966000Y-146016000D02*
G01*
X116034000Y-146016000D01*
X116034000Y-143984000D01*
X117966000Y-143984000D01*
X117966000Y-146016000D01*
X117966000Y-146016000D01*
G37*
G36*
X112001000Y-144201000D02*
G01*
X110399000Y-144201000D01*
X110399000Y-142799000D01*
X112001000Y-142799000D01*
X112001000Y-144201000D01*
X112001000Y-144201000D01*
G37*
G36*
X109301000Y-144201000D02*
G01*
X107699000Y-144201000D01*
X107699000Y-142799000D01*
X109301000Y-142799000D01*
X109301000Y-144201000D01*
X109301000Y-144201000D01*
G37*
G36*
X106801000Y-144201000D02*
G01*
X105199000Y-144201000D01*
X105199000Y-142799000D01*
X106801000Y-142799000D01*
X106801000Y-144201000D01*
X106801000Y-144201000D01*
G37*
G36*
X104101000Y-144201000D02*
G01*
X102499000Y-144201000D01*
X102499000Y-142799000D01*
X104101000Y-142799000D01*
X104101000Y-144201000D01*
X104101000Y-144201000D01*
G37*
G36*
X126101000Y-142201000D02*
G01*
X124499000Y-142201000D01*
X124499000Y-140799000D01*
X126101000Y-140799000D01*
X126101000Y-142201000D01*
X126101000Y-142201000D01*
G37*
G36*
X128801000Y-142201000D02*
G01*
X127199000Y-142201000D01*
X127199000Y-140799000D01*
X128801000Y-140799000D01*
X128801000Y-142201000D01*
X128801000Y-142201000D01*
G37*
G36*
X112598254Y-137027818D02*
G01*
X112971511Y-137182426D01*
X112971513Y-137182427D01*
X112999309Y-137201000D01*
X113307436Y-137406884D01*
X113593116Y-137692564D01*
X113817574Y-138028489D01*
X113972182Y-138401746D01*
X114051000Y-138797993D01*
X114051000Y-139202007D01*
X113972182Y-139598254D01*
X113817574Y-139971511D01*
X113817573Y-139971513D01*
X113593116Y-140307436D01*
X113307436Y-140593116D01*
X112971513Y-140817573D01*
X112971512Y-140817574D01*
X112971511Y-140817574D01*
X112598254Y-140972182D01*
X112202007Y-141051000D01*
X111797993Y-141051000D01*
X111401746Y-140972182D01*
X111028489Y-140817574D01*
X111028488Y-140817574D01*
X111028487Y-140817573D01*
X110692564Y-140593116D01*
X110406884Y-140307436D01*
X110182427Y-139971513D01*
X110182426Y-139971511D01*
X110027818Y-139598254D01*
X109949000Y-139202007D01*
X109949000Y-138797993D01*
X110027818Y-138401746D01*
X110182426Y-138028489D01*
X110406884Y-137692564D01*
X110692564Y-137406884D01*
X111000691Y-137201000D01*
X111028487Y-137182427D01*
X111028489Y-137182426D01*
X111401746Y-137027818D01*
X111797993Y-136949000D01*
X112202007Y-136949000D01*
X112598254Y-137027818D01*
X112598254Y-137027818D01*
G37*
G36*
X103098254Y-137027818D02*
G01*
X103471511Y-137182426D01*
X103471513Y-137182427D01*
X103499309Y-137201000D01*
X103807436Y-137406884D01*
X104093116Y-137692564D01*
X104317574Y-138028489D01*
X104472182Y-138401746D01*
X104551000Y-138797993D01*
X104551000Y-139202007D01*
X104472182Y-139598254D01*
X104317574Y-139971511D01*
X104317573Y-139971513D01*
X104093116Y-140307436D01*
X103807436Y-140593116D01*
X103471513Y-140817573D01*
X103471512Y-140817574D01*
X103471511Y-140817574D01*
X103098254Y-140972182D01*
X102702007Y-141051000D01*
X102297993Y-141051000D01*
X101901746Y-140972182D01*
X101528489Y-140817574D01*
X101528488Y-140817574D01*
X101528487Y-140817573D01*
X101192564Y-140593116D01*
X100906884Y-140307436D01*
X100682427Y-139971513D01*
X100682426Y-139971511D01*
X100527818Y-139598254D01*
X100449000Y-139202007D01*
X100449000Y-138797993D01*
X100527818Y-138401746D01*
X100682426Y-138028489D01*
X100906884Y-137692564D01*
X101192564Y-137406884D01*
X101500691Y-137201000D01*
X101528487Y-137182427D01*
X101528489Y-137182426D01*
X101901746Y-137027818D01*
X102297993Y-136949000D01*
X102702007Y-136949000D01*
X103098254Y-137027818D01*
X103098254Y-137027818D01*
G37*
G36*
X128801000Y-137201000D02*
G01*
X127199000Y-137201000D01*
X127199000Y-135799000D01*
X128801000Y-135799000D01*
X128801000Y-137201000D01*
X128801000Y-137201000D01*
G37*
G36*
X126101000Y-137201000D02*
G01*
X124499000Y-137201000D01*
X124499000Y-135799000D01*
X126101000Y-135799000D01*
X126101000Y-137201000D01*
X126101000Y-137201000D01*
G37*
G36*
X120257023Y-131310590D02*
G01*
X120357682Y-131341125D01*
X120408013Y-131356392D01*
X120547165Y-131430771D01*
X120669133Y-131530867D01*
X120769229Y-131652835D01*
X120843608Y-131791987D01*
X120844601Y-131795260D01*
X120889410Y-131942977D01*
X120901000Y-132060655D01*
X120901000Y-133939345D01*
X120889410Y-134057023D01*
X120858875Y-134157682D01*
X120843608Y-134208013D01*
X120769230Y-134347164D01*
X120769229Y-134347165D01*
X120669133Y-134469133D01*
X120569376Y-134551000D01*
X120547164Y-134569229D01*
X120408012Y-134643608D01*
X120357681Y-134658875D01*
X120257022Y-134689410D01*
X120100000Y-134704875D01*
X119942977Y-134689410D01*
X119842318Y-134658875D01*
X119791987Y-134643608D01*
X119652835Y-134569229D01*
X119557995Y-134491396D01*
X119530867Y-134469133D01*
X119430771Y-134347164D01*
X119356393Y-134208013D01*
X119356392Y-134208012D01*
X119341125Y-134157681D01*
X119310590Y-134057022D01*
X119299000Y-133939344D01*
X119299001Y-132060655D01*
X119310591Y-131942977D01*
X119355400Y-131795260D01*
X119356393Y-131791987D01*
X119430772Y-131652835D01*
X119530868Y-131530867D01*
X119652836Y-131430771D01*
X119791988Y-131356392D01*
X119842319Y-131341125D01*
X119942978Y-131310590D01*
X120100000Y-131295125D01*
X120257023Y-131310590D01*
X120257023Y-131310590D01*
G37*
G36*
X128557023Y-131310590D02*
G01*
X128657682Y-131341125D01*
X128708013Y-131356392D01*
X128847165Y-131430771D01*
X128969133Y-131530867D01*
X129069229Y-131652835D01*
X129143608Y-131791987D01*
X129144601Y-131795260D01*
X129189410Y-131942977D01*
X129201000Y-132060655D01*
X129201000Y-133939345D01*
X129189410Y-134057023D01*
X129158875Y-134157682D01*
X129143608Y-134208013D01*
X129069230Y-134347164D01*
X129069229Y-134347165D01*
X128969133Y-134469133D01*
X128869376Y-134551000D01*
X128847164Y-134569229D01*
X128708012Y-134643608D01*
X128657681Y-134658875D01*
X128557022Y-134689410D01*
X128400000Y-134704875D01*
X128242977Y-134689410D01*
X128142318Y-134658875D01*
X128091987Y-134643608D01*
X127952835Y-134569229D01*
X127857995Y-134491396D01*
X127830867Y-134469133D01*
X127730771Y-134347164D01*
X127656393Y-134208013D01*
X127656392Y-134208012D01*
X127641125Y-134157681D01*
X127610590Y-134057022D01*
X127599000Y-133939344D01*
X127599001Y-132060655D01*
X127610591Y-131942977D01*
X127655400Y-131795260D01*
X127656393Y-131791987D01*
X127730772Y-131652835D01*
X127830868Y-131530867D01*
X127952836Y-131430771D01*
X128091988Y-131356392D01*
X128142319Y-131341125D01*
X128242978Y-131310590D01*
X128400000Y-131295125D01*
X128557023Y-131310590D01*
X128557023Y-131310590D01*
G37*
G36*
X123779585Y-131478802D02*
G01*
X123929410Y-131508604D01*
X124211674Y-131625521D01*
X124465705Y-131795259D01*
X124681741Y-132011295D01*
X124851479Y-132265326D01*
X124968396Y-132547590D01*
X125028000Y-132847240D01*
X125028000Y-133152760D01*
X124968396Y-133452410D01*
X124851479Y-133734674D01*
X124681741Y-133988705D01*
X124465705Y-134204741D01*
X124211674Y-134374479D01*
X123929410Y-134491396D01*
X123779585Y-134521198D01*
X123629761Y-134551000D01*
X123324239Y-134551000D01*
X123174415Y-134521198D01*
X123024590Y-134491396D01*
X122742326Y-134374479D01*
X122488295Y-134204741D01*
X122272259Y-133988705D01*
X122102521Y-133734674D01*
X121985604Y-133452410D01*
X121926000Y-133152760D01*
X121926000Y-132847240D01*
X121985604Y-132547590D01*
X122102521Y-132265326D01*
X122272259Y-132011295D01*
X122488295Y-131795259D01*
X122742326Y-131625521D01*
X123024590Y-131508604D01*
X123174415Y-131478802D01*
X123324239Y-131449000D01*
X123629761Y-131449000D01*
X123779585Y-131478802D01*
X123779585Y-131478802D01*
G37*
G36*
X117966000Y-134016000D02*
G01*
X116034000Y-134016000D01*
X116034000Y-131984000D01*
X117966000Y-131984000D01*
X117966000Y-134016000D01*
X117966000Y-134016000D01*
G37*
G36*
X123301000Y-128676000D02*
G01*
X121699000Y-128676000D01*
X121699000Y-127324000D01*
X123301000Y-127324000D01*
X123301000Y-128676000D01*
X123301000Y-128676000D01*
G37*
G36*
X120801000Y-128676000D02*
G01*
X119199000Y-128676000D01*
X119199000Y-127324000D01*
X120801000Y-127324000D01*
X120801000Y-128676000D01*
X120801000Y-128676000D01*
G37*
G36*
X115851000Y-126701000D02*
G01*
X114249000Y-126701000D01*
X114249000Y-125299000D01*
X115851000Y-125299000D01*
X115851000Y-126701000D01*
X115851000Y-126701000D01*
G37*
G36*
X118551000Y-126701000D02*
G01*
X116949000Y-126701000D01*
X116949000Y-125299000D01*
X118551000Y-125299000D01*
X118551000Y-126701000D01*
X118551000Y-126701000D01*
G37*
G36*
X120251000Y-126451000D02*
G01*
X119249000Y-126451000D01*
X119249000Y-125549000D01*
X120251000Y-125549000D01*
X120251000Y-126451000D01*
X120251000Y-126451000D01*
G37*
G36*
X122251000Y-125501000D02*
G01*
X121249000Y-125501000D01*
X121249000Y-124599000D01*
X122251000Y-124599000D01*
X122251000Y-125501000D01*
X122251000Y-125501000D01*
G37*
G36*
X120251000Y-124551000D02*
G01*
X119249000Y-124551000D01*
X119249000Y-123649000D01*
X120251000Y-123649000D01*
X120251000Y-124551000D01*
X120251000Y-124551000D01*
G37*
G36*
X105027395Y-119585546D02*
G01*
X105200466Y-119657234D01*
X105200467Y-119657235D01*
X105356227Y-119761310D01*
X105488690Y-119893773D01*
X105488691Y-119893775D01*
X105592766Y-120049534D01*
X105664454Y-120222605D01*
X105701000Y-120406333D01*
X105701000Y-120593667D01*
X105664454Y-120777395D01*
X105592766Y-120950466D01*
X105592765Y-120950467D01*
X105488690Y-121106227D01*
X105356227Y-121238690D01*
X105277818Y-121291081D01*
X105200466Y-121342766D01*
X105027395Y-121414454D01*
X104843667Y-121451000D01*
X104656333Y-121451000D01*
X104472605Y-121414454D01*
X104299534Y-121342766D01*
X104222182Y-121291081D01*
X104143773Y-121238690D01*
X104011310Y-121106227D01*
X103907235Y-120950467D01*
X103907234Y-120950466D01*
X103835546Y-120777395D01*
X103799000Y-120593667D01*
X103799000Y-120406333D01*
X103835546Y-120222605D01*
X103907234Y-120049534D01*
X104011309Y-119893775D01*
X104011310Y-119893773D01*
X104143773Y-119761310D01*
X104299533Y-119657235D01*
X104299534Y-119657234D01*
X104472605Y-119585546D01*
X104656333Y-119549000D01*
X104843667Y-119549000D01*
X105027395Y-119585546D01*
X105027395Y-119585546D01*
G37*
G36*
X107527395Y-119585546D02*
G01*
X107700466Y-119657234D01*
X107700467Y-119657235D01*
X107856227Y-119761310D01*
X107988690Y-119893773D01*
X107988691Y-119893775D01*
X108092766Y-120049534D01*
X108164454Y-120222605D01*
X108201000Y-120406333D01*
X108201000Y-120593667D01*
X108164454Y-120777395D01*
X108092766Y-120950466D01*
X108092765Y-120950467D01*
X107988690Y-121106227D01*
X107856227Y-121238690D01*
X107777818Y-121291081D01*
X107700466Y-121342766D01*
X107527395Y-121414454D01*
X107343667Y-121451000D01*
X107156333Y-121451000D01*
X106972605Y-121414454D01*
X106799534Y-121342766D01*
X106722182Y-121291081D01*
X106643773Y-121238690D01*
X106511310Y-121106227D01*
X106407235Y-120950467D01*
X106407234Y-120950466D01*
X106335546Y-120777395D01*
X106299000Y-120593667D01*
X106299000Y-120406333D01*
X106335546Y-120222605D01*
X106407234Y-120049534D01*
X106511309Y-119893775D01*
X106511310Y-119893773D01*
X106643773Y-119761310D01*
X106799533Y-119657235D01*
X106799534Y-119657234D01*
X106972605Y-119585546D01*
X107156333Y-119549000D01*
X107343667Y-119549000D01*
X107527395Y-119585546D01*
X107527395Y-119585546D01*
G37*
G36*
X110027395Y-119585546D02*
G01*
X110200466Y-119657234D01*
X110200467Y-119657235D01*
X110356227Y-119761310D01*
X110488690Y-119893773D01*
X110488691Y-119893775D01*
X110592766Y-120049534D01*
X110664454Y-120222605D01*
X110701000Y-120406333D01*
X110701000Y-120593667D01*
X110664454Y-120777395D01*
X110592766Y-120950466D01*
X110592765Y-120950467D01*
X110488690Y-121106227D01*
X110356227Y-121238690D01*
X110277818Y-121291081D01*
X110200466Y-121342766D01*
X110027395Y-121414454D01*
X109843667Y-121451000D01*
X109656333Y-121451000D01*
X109472605Y-121414454D01*
X109299534Y-121342766D01*
X109222182Y-121291081D01*
X109143773Y-121238690D01*
X109011310Y-121106227D01*
X108907235Y-120950467D01*
X108907234Y-120950466D01*
X108835546Y-120777395D01*
X108799000Y-120593667D01*
X108799000Y-120406333D01*
X108835546Y-120222605D01*
X108907234Y-120049534D01*
X109011309Y-119893775D01*
X109011310Y-119893773D01*
X109143773Y-119761310D01*
X109299533Y-119657235D01*
X109299534Y-119657234D01*
X109472605Y-119585546D01*
X109656333Y-119549000D01*
X109843667Y-119549000D01*
X110027395Y-119585546D01*
X110027395Y-119585546D01*
G37*
G36*
X120257023Y-117310590D02*
G01*
X120357682Y-117341125D01*
X120408013Y-117356392D01*
X120547165Y-117430771D01*
X120669133Y-117530867D01*
X120769229Y-117652835D01*
X120843608Y-117791987D01*
X120844601Y-117795260D01*
X120889410Y-117942977D01*
X120901000Y-118060655D01*
X120901000Y-119939345D01*
X120889410Y-120057023D01*
X120858875Y-120157682D01*
X120843608Y-120208013D01*
X120835808Y-120222605D01*
X120769229Y-120347165D01*
X120669133Y-120469133D01*
X120569376Y-120551000D01*
X120547164Y-120569229D01*
X120408012Y-120643608D01*
X120357681Y-120658875D01*
X120257022Y-120689410D01*
X120100000Y-120704875D01*
X119942977Y-120689410D01*
X119842318Y-120658875D01*
X119791987Y-120643608D01*
X119652835Y-120569229D01*
X119557995Y-120491396D01*
X119530867Y-120469133D01*
X119430771Y-120347164D01*
X119356392Y-120208012D01*
X119341125Y-120157681D01*
X119310590Y-120057022D01*
X119299000Y-119939344D01*
X119299001Y-118060655D01*
X119310591Y-117942977D01*
X119355400Y-117795260D01*
X119356393Y-117791987D01*
X119430772Y-117652835D01*
X119530868Y-117530867D01*
X119652836Y-117430771D01*
X119791988Y-117356392D01*
X119842319Y-117341125D01*
X119942978Y-117310590D01*
X120100000Y-117295125D01*
X120257023Y-117310590D01*
X120257023Y-117310590D01*
G37*
G36*
X128557023Y-117310590D02*
G01*
X128657682Y-117341125D01*
X128708013Y-117356392D01*
X128847165Y-117430771D01*
X128969133Y-117530867D01*
X129069229Y-117652835D01*
X129143608Y-117791987D01*
X129144601Y-117795260D01*
X129189410Y-117942977D01*
X129201000Y-118060655D01*
X129201000Y-119939345D01*
X129189410Y-120057023D01*
X129158875Y-120157682D01*
X129143608Y-120208013D01*
X129135808Y-120222605D01*
X129069229Y-120347165D01*
X128969133Y-120469133D01*
X128869376Y-120551000D01*
X128847164Y-120569229D01*
X128708012Y-120643608D01*
X128657681Y-120658875D01*
X128557022Y-120689410D01*
X128400000Y-120704875D01*
X128242977Y-120689410D01*
X128142318Y-120658875D01*
X128091987Y-120643608D01*
X127952835Y-120569229D01*
X127857995Y-120491396D01*
X127830867Y-120469133D01*
X127730771Y-120347164D01*
X127656392Y-120208012D01*
X127641125Y-120157681D01*
X127610590Y-120057022D01*
X127599000Y-119939344D01*
X127599001Y-118060655D01*
X127610591Y-117942977D01*
X127655400Y-117795260D01*
X127656393Y-117791987D01*
X127730772Y-117652835D01*
X127830868Y-117530867D01*
X127952836Y-117430771D01*
X128091988Y-117356392D01*
X128142319Y-117341125D01*
X128242978Y-117310590D01*
X128400000Y-117295125D01*
X128557023Y-117310590D01*
X128557023Y-117310590D01*
G37*
G36*
X123779585Y-117478802D02*
G01*
X123929410Y-117508604D01*
X124211674Y-117625521D01*
X124465705Y-117795259D01*
X124681741Y-118011295D01*
X124851479Y-118265326D01*
X124968396Y-118547590D01*
X125028000Y-118847240D01*
X125028000Y-119152760D01*
X124968396Y-119452410D01*
X124851479Y-119734674D01*
X124681741Y-119988705D01*
X124465705Y-120204741D01*
X124211674Y-120374479D01*
X123929410Y-120491396D01*
X123779585Y-120521198D01*
X123629761Y-120551000D01*
X123324239Y-120551000D01*
X123174415Y-120521198D01*
X123024590Y-120491396D01*
X122742326Y-120374479D01*
X122488295Y-120204741D01*
X122272259Y-119988705D01*
X122102521Y-119734674D01*
X121985604Y-119452410D01*
X121926000Y-119152760D01*
X121926000Y-118847240D01*
X121985604Y-118547590D01*
X122102521Y-118265326D01*
X122272259Y-118011295D01*
X122488295Y-117795259D01*
X122742326Y-117625521D01*
X123024590Y-117508604D01*
X123174415Y-117478802D01*
X123324239Y-117449000D01*
X123629761Y-117449000D01*
X123779585Y-117478802D01*
X123779585Y-117478802D01*
G37*
G36*
X117966000Y-120016000D02*
G01*
X116034000Y-120016000D01*
X116034000Y-117984000D01*
X117966000Y-117984000D01*
X117966000Y-120016000D01*
X117966000Y-120016000D01*
G37*
G36*
X104101000Y-118201000D02*
G01*
X102499000Y-118201000D01*
X102499000Y-116799000D01*
X104101000Y-116799000D01*
X104101000Y-118201000D01*
X104101000Y-118201000D01*
G37*
G36*
X112001000Y-118201000D02*
G01*
X110399000Y-118201000D01*
X110399000Y-116799000D01*
X112001000Y-116799000D01*
X112001000Y-118201000D01*
X112001000Y-118201000D01*
G37*
G36*
X106801000Y-118201000D02*
G01*
X105199000Y-118201000D01*
X105199000Y-116799000D01*
X106801000Y-116799000D01*
X106801000Y-118201000D01*
X106801000Y-118201000D01*
G37*
G36*
X109301000Y-118201000D02*
G01*
X107699000Y-118201000D01*
X107699000Y-116799000D01*
X109301000Y-116799000D01*
X109301000Y-118201000D01*
X109301000Y-118201000D01*
G37*
G36*
X128801000Y-116201000D02*
G01*
X127199000Y-116201000D01*
X127199000Y-114799000D01*
X128801000Y-114799000D01*
X128801000Y-116201000D01*
X128801000Y-116201000D01*
G37*
G36*
X126101000Y-116201000D02*
G01*
X124499000Y-116201000D01*
X124499000Y-114799000D01*
X126101000Y-114799000D01*
X126101000Y-116201000D01*
X126101000Y-116201000D01*
G37*
G36*
X103098254Y-111027818D02*
G01*
X103471511Y-111182426D01*
X103471513Y-111182427D01*
X103499309Y-111201000D01*
X103807436Y-111406884D01*
X104093116Y-111692564D01*
X104317574Y-112028489D01*
X104472182Y-112401746D01*
X104551000Y-112797993D01*
X104551000Y-113202007D01*
X104472182Y-113598254D01*
X104317574Y-113971511D01*
X104317573Y-113971513D01*
X104093116Y-114307436D01*
X103807436Y-114593116D01*
X103471513Y-114817573D01*
X103471512Y-114817574D01*
X103471511Y-114817574D01*
X103098254Y-114972182D01*
X102702007Y-115051000D01*
X102297993Y-115051000D01*
X101901746Y-114972182D01*
X101528489Y-114817574D01*
X101528488Y-114817574D01*
X101528487Y-114817573D01*
X101192564Y-114593116D01*
X100906884Y-114307436D01*
X100682427Y-113971513D01*
X100682426Y-113971511D01*
X100527818Y-113598254D01*
X100449000Y-113202007D01*
X100449000Y-112797993D01*
X100527818Y-112401746D01*
X100682426Y-112028489D01*
X100906884Y-111692564D01*
X101192564Y-111406884D01*
X101500691Y-111201000D01*
X101528487Y-111182427D01*
X101528489Y-111182426D01*
X101901746Y-111027818D01*
X102297993Y-110949000D01*
X102702007Y-110949000D01*
X103098254Y-111027818D01*
X103098254Y-111027818D01*
G37*
G36*
X112598254Y-111027818D02*
G01*
X112971511Y-111182426D01*
X112971513Y-111182427D01*
X112999309Y-111201000D01*
X113307436Y-111406884D01*
X113593116Y-111692564D01*
X113817574Y-112028489D01*
X113972182Y-112401746D01*
X114051000Y-112797993D01*
X114051000Y-113202007D01*
X113972182Y-113598254D01*
X113817574Y-113971511D01*
X113817573Y-113971513D01*
X113593116Y-114307436D01*
X113307436Y-114593116D01*
X112971513Y-114817573D01*
X112971512Y-114817574D01*
X112971511Y-114817574D01*
X112598254Y-114972182D01*
X112202007Y-115051000D01*
X111797993Y-115051000D01*
X111401746Y-114972182D01*
X111028489Y-114817574D01*
X111028488Y-114817574D01*
X111028487Y-114817573D01*
X110692564Y-114593116D01*
X110406884Y-114307436D01*
X110182427Y-113971513D01*
X110182426Y-113971511D01*
X110027818Y-113598254D01*
X109949000Y-113202007D01*
X109949000Y-112797993D01*
X110027818Y-112401746D01*
X110182426Y-112028489D01*
X110406884Y-111692564D01*
X110692564Y-111406884D01*
X111000691Y-111201000D01*
X111028487Y-111182427D01*
X111028489Y-111182426D01*
X111401746Y-111027818D01*
X111797993Y-110949000D01*
X112202007Y-110949000D01*
X112598254Y-111027818D01*
X112598254Y-111027818D01*
G37*
G36*
X128801000Y-111201000D02*
G01*
X127199000Y-111201000D01*
X127199000Y-109799000D01*
X128801000Y-109799000D01*
X128801000Y-111201000D01*
X128801000Y-111201000D01*
G37*
G36*
X126101000Y-111201000D02*
G01*
X124499000Y-111201000D01*
X124499000Y-109799000D01*
X126101000Y-109799000D01*
X126101000Y-111201000D01*
X126101000Y-111201000D01*
G37*
G36*
X115451000Y-108801000D02*
G01*
X114049000Y-108801000D01*
X114049000Y-107199000D01*
X115451000Y-107199000D01*
X115451000Y-108801000D01*
X115451000Y-108801000D01*
G37*
G36*
X103176000Y-108801000D02*
G01*
X101824000Y-108801000D01*
X101824000Y-107199000D01*
X103176000Y-107199000D01*
X103176000Y-108801000D01*
X103176000Y-108801000D01*
G37*
G36*
X128557023Y-105310590D02*
G01*
X128657682Y-105341125D01*
X128708013Y-105356392D01*
X128847165Y-105430771D01*
X128969133Y-105530867D01*
X129069229Y-105652835D01*
X129143608Y-105791987D01*
X129144601Y-105795260D01*
X129189410Y-105942977D01*
X129201000Y-106060655D01*
X129201000Y-107939345D01*
X129189410Y-108057023D01*
X129158875Y-108157682D01*
X129143608Y-108208013D01*
X129069230Y-108347164D01*
X129069229Y-108347165D01*
X128969133Y-108469133D01*
X128869376Y-108551000D01*
X128847164Y-108569229D01*
X128708012Y-108643608D01*
X128657681Y-108658875D01*
X128557022Y-108689410D01*
X128400000Y-108704875D01*
X128242977Y-108689410D01*
X128142318Y-108658875D01*
X128091987Y-108643608D01*
X127952835Y-108569229D01*
X127857995Y-108491396D01*
X127830867Y-108469133D01*
X127730771Y-108347164D01*
X127656393Y-108208013D01*
X127656392Y-108208012D01*
X127641125Y-108157681D01*
X127610590Y-108057022D01*
X127599000Y-107939344D01*
X127599001Y-106060655D01*
X127610591Y-105942977D01*
X127655400Y-105795260D01*
X127656393Y-105791987D01*
X127730772Y-105652835D01*
X127830868Y-105530867D01*
X127952836Y-105430771D01*
X128091988Y-105356392D01*
X128142319Y-105341125D01*
X128242978Y-105310590D01*
X128400000Y-105295125D01*
X128557023Y-105310590D01*
X128557023Y-105310590D01*
G37*
G36*
X120257023Y-105310590D02*
G01*
X120357682Y-105341125D01*
X120408013Y-105356392D01*
X120547165Y-105430771D01*
X120669133Y-105530867D01*
X120769229Y-105652835D01*
X120843608Y-105791987D01*
X120844601Y-105795260D01*
X120889410Y-105942977D01*
X120901000Y-106060655D01*
X120901000Y-107939345D01*
X120889410Y-108057023D01*
X120858875Y-108157682D01*
X120843608Y-108208013D01*
X120769230Y-108347164D01*
X120769229Y-108347165D01*
X120669133Y-108469133D01*
X120569376Y-108551000D01*
X120547164Y-108569229D01*
X120408012Y-108643608D01*
X120357681Y-108658875D01*
X120257022Y-108689410D01*
X120100000Y-108704875D01*
X119942977Y-108689410D01*
X119842318Y-108658875D01*
X119791987Y-108643608D01*
X119652835Y-108569229D01*
X119557995Y-108491396D01*
X119530867Y-108469133D01*
X119430771Y-108347164D01*
X119356393Y-108208013D01*
X119356392Y-108208012D01*
X119341125Y-108157681D01*
X119310590Y-108057022D01*
X119299000Y-107939344D01*
X119299001Y-106060655D01*
X119310591Y-105942977D01*
X119355400Y-105795260D01*
X119356393Y-105791987D01*
X119430772Y-105652835D01*
X119530868Y-105530867D01*
X119652836Y-105430771D01*
X119791988Y-105356392D01*
X119842319Y-105341125D01*
X119942978Y-105310590D01*
X120100000Y-105295125D01*
X120257023Y-105310590D01*
X120257023Y-105310590D01*
G37*
G36*
X105301000Y-108701000D02*
G01*
X103699000Y-108701000D01*
X103699000Y-107299000D01*
X105301000Y-107299000D01*
X105301000Y-108701000D01*
X105301000Y-108701000D01*
G37*
G36*
X108001000Y-108701000D02*
G01*
X106399000Y-108701000D01*
X106399000Y-107299000D01*
X108001000Y-107299000D01*
X108001000Y-108701000D01*
X108001000Y-108701000D01*
G37*
G36*
X112551000Y-108676000D02*
G01*
X110949000Y-108676000D01*
X110949000Y-107324000D01*
X112551000Y-107324000D01*
X112551000Y-108676000D01*
X112551000Y-108676000D01*
G37*
G36*
X110051000Y-108676000D02*
G01*
X108449000Y-108676000D01*
X108449000Y-107324000D01*
X110051000Y-107324000D01*
X110051000Y-108676000D01*
X110051000Y-108676000D01*
G37*
G36*
X123779585Y-105478802D02*
G01*
X123929410Y-105508604D01*
X124211674Y-105625521D01*
X124465705Y-105795259D01*
X124681741Y-106011295D01*
X124851479Y-106265326D01*
X124968396Y-106547590D01*
X125028000Y-106847240D01*
X125028000Y-107152760D01*
X124968396Y-107452410D01*
X124851479Y-107734674D01*
X124681741Y-107988705D01*
X124465705Y-108204741D01*
X124211674Y-108374479D01*
X123929410Y-108491396D01*
X123779585Y-108521198D01*
X123629761Y-108551000D01*
X123324239Y-108551000D01*
X123174415Y-108521198D01*
X123024590Y-108491396D01*
X122742326Y-108374479D01*
X122488295Y-108204741D01*
X122272259Y-107988705D01*
X122102521Y-107734674D01*
X121985604Y-107452410D01*
X121926000Y-107152760D01*
X121926000Y-106847240D01*
X121985604Y-106547590D01*
X122102521Y-106265326D01*
X122272259Y-106011295D01*
X122488295Y-105795259D01*
X122742326Y-105625521D01*
X123024590Y-105508604D01*
X123174415Y-105478802D01*
X123324239Y-105449000D01*
X123629761Y-105449000D01*
X123779585Y-105478802D01*
X123779585Y-105478802D01*
G37*
G36*
X117966000Y-108016000D02*
G01*
X116034000Y-108016000D01*
X116034000Y-105984000D01*
X117966000Y-105984000D01*
X117966000Y-108016000D01*
X117966000Y-108016000D01*
G37*
G36*
X106751000Y-106551000D02*
G01*
X106049000Y-106551000D01*
X106049000Y-104949000D01*
X106751000Y-104949000D01*
X106751000Y-106551000D01*
X106751000Y-106551000D01*
G37*
G36*
X109291000Y-106551000D02*
G01*
X108589000Y-106551000D01*
X108589000Y-104949000D01*
X109291000Y-104949000D01*
X109291000Y-106551000D01*
X109291000Y-106551000D01*
G37*
G36*
X105481000Y-106551000D02*
G01*
X104779000Y-106551000D01*
X104779000Y-104949000D01*
X105481000Y-104949000D01*
X105481000Y-106551000D01*
X105481000Y-106551000D01*
G37*
G36*
X110561000Y-106551000D02*
G01*
X109859000Y-106551000D01*
X109859000Y-104949000D01*
X110561000Y-104949000D01*
X110561000Y-106551000D01*
X110561000Y-106551000D01*
G37*
G36*
X111831000Y-106551000D02*
G01*
X111129000Y-106551000D01*
X111129000Y-104949000D01*
X111831000Y-104949000D01*
X111831000Y-106551000D01*
X111831000Y-106551000D01*
G37*
G36*
X113101000Y-106551000D02*
G01*
X112399000Y-106551000D01*
X112399000Y-104949000D01*
X113101000Y-104949000D01*
X113101000Y-106551000D01*
X113101000Y-106551000D01*
G37*
G36*
X108021000Y-106551000D02*
G01*
X107319000Y-106551000D01*
X107319000Y-104949000D01*
X108021000Y-104949000D01*
X108021000Y-106551000D01*
X108021000Y-106551000D01*
G37*
G36*
X103176000Y-106301000D02*
G01*
X101824000Y-106301000D01*
X101824000Y-104699000D01*
X103176000Y-104699000D01*
X103176000Y-106301000D01*
X103176000Y-106301000D01*
G37*
G36*
X115451000Y-106101000D02*
G01*
X114049000Y-106101000D01*
X114049000Y-104499000D01*
X115451000Y-104499000D01*
X115451000Y-106101000D01*
X115451000Y-106101000D01*
G37*
G36*
X117426000Y-103801000D02*
G01*
X116074000Y-103801000D01*
X116074000Y-102199000D01*
X117426000Y-102199000D01*
X117426000Y-103801000D01*
X117426000Y-103801000D01*
G37*
G36*
X119426000Y-103801000D02*
G01*
X118074000Y-103801000D01*
X118074000Y-102199000D01*
X119426000Y-102199000D01*
X119426000Y-103801000D01*
X119426000Y-103801000D01*
G37*
G36*
X115451000Y-103801000D02*
G01*
X114049000Y-103801000D01*
X114049000Y-102199000D01*
X115451000Y-102199000D01*
X115451000Y-103801000D01*
X115451000Y-103801000D01*
G37*
G36*
X103176000Y-103551000D02*
G01*
X101824000Y-103551000D01*
X101824000Y-101949000D01*
X103176000Y-101949000D01*
X103176000Y-103551000D01*
X103176000Y-103551000D01*
G37*
G36*
X119426000Y-101301000D02*
G01*
X118074000Y-101301000D01*
X118074000Y-99699000D01*
X119426000Y-99699000D01*
X119426000Y-101301000D01*
X119426000Y-101301000D01*
G37*
G36*
X117426000Y-101301000D02*
G01*
X116074000Y-101301000D01*
X116074000Y-99699000D01*
X117426000Y-99699000D01*
X117426000Y-101301000D01*
X117426000Y-101301000D01*
G37*
G36*
X110561000Y-101151000D02*
G01*
X109859000Y-101151000D01*
X109859000Y-99549000D01*
X110561000Y-99549000D01*
X110561000Y-101151000D01*
X110561000Y-101151000D01*
G37*
G36*
X108021000Y-101151000D02*
G01*
X107319000Y-101151000D01*
X107319000Y-99549000D01*
X108021000Y-99549000D01*
X108021000Y-101151000D01*
X108021000Y-101151000D01*
G37*
G36*
X111831000Y-101151000D02*
G01*
X111129000Y-101151000D01*
X111129000Y-99549000D01*
X111831000Y-99549000D01*
X111831000Y-101151000D01*
X111831000Y-101151000D01*
G37*
G36*
X113101000Y-101151000D02*
G01*
X112399000Y-101151000D01*
X112399000Y-99549000D01*
X113101000Y-99549000D01*
X113101000Y-101151000D01*
X113101000Y-101151000D01*
G37*
G36*
X105481000Y-101151000D02*
G01*
X104779000Y-101151000D01*
X104779000Y-99549000D01*
X105481000Y-99549000D01*
X105481000Y-101151000D01*
X105481000Y-101151000D01*
G37*
G36*
X106751000Y-101151000D02*
G01*
X106049000Y-101151000D01*
X106049000Y-99549000D01*
X106751000Y-99549000D01*
X106751000Y-101151000D01*
X106751000Y-101151000D01*
G37*
G36*
X109291000Y-101151000D02*
G01*
X108589000Y-101151000D01*
X108589000Y-99549000D01*
X109291000Y-99549000D01*
X109291000Y-101151000D01*
X109291000Y-101151000D01*
G37*
G36*
X115451000Y-101101000D02*
G01*
X114049000Y-101101000D01*
X114049000Y-99499000D01*
X115451000Y-99499000D01*
X115451000Y-101101000D01*
X115451000Y-101101000D01*
G37*
G36*
X103176000Y-101051000D02*
G01*
X101824000Y-101051000D01*
X101824000Y-99449000D01*
X103176000Y-99449000D01*
X103176000Y-101051000D01*
X103176000Y-101051000D01*
G37*
G36*
X107801000Y-98701000D02*
G01*
X106199000Y-98701000D01*
X106199000Y-97299000D01*
X107801000Y-97299000D01*
X107801000Y-98701000D01*
X107801000Y-98701000D01*
G37*
G36*
X105101000Y-98701000D02*
G01*
X103499000Y-98701000D01*
X103499000Y-97299000D01*
X105101000Y-97299000D01*
X105101000Y-98701000D01*
X105101000Y-98701000D01*
G37*
G36*
X109801000Y-98676000D02*
G01*
X108199000Y-98676000D01*
X108199000Y-97324000D01*
X109801000Y-97324000D01*
X109801000Y-98676000D01*
X109801000Y-98676000D01*
G37*
G36*
X112301000Y-98676000D02*
G01*
X110699000Y-98676000D01*
X110699000Y-97324000D01*
X112301000Y-97324000D01*
X112301000Y-98676000D01*
X112301000Y-98676000D01*
G37*
G36*
X110027395Y-93585546D02*
G01*
X110200466Y-93657234D01*
X110200467Y-93657235D01*
X110356227Y-93761310D01*
X110488690Y-93893773D01*
X110488691Y-93893775D01*
X110592766Y-94049534D01*
X110664454Y-94222605D01*
X110701000Y-94406333D01*
X110701000Y-94593667D01*
X110664454Y-94777395D01*
X110592766Y-94950466D01*
X110592765Y-94950467D01*
X110488690Y-95106227D01*
X110356227Y-95238690D01*
X110277818Y-95291081D01*
X110200466Y-95342766D01*
X110027395Y-95414454D01*
X109843667Y-95451000D01*
X109656333Y-95451000D01*
X109472605Y-95414454D01*
X109299534Y-95342766D01*
X109222182Y-95291081D01*
X109143773Y-95238690D01*
X109011310Y-95106227D01*
X108907235Y-94950467D01*
X108907234Y-94950466D01*
X108835546Y-94777395D01*
X108799000Y-94593667D01*
X108799000Y-94406333D01*
X108835546Y-94222605D01*
X108907234Y-94049534D01*
X109011309Y-93893775D01*
X109011310Y-93893773D01*
X109143773Y-93761310D01*
X109299533Y-93657235D01*
X109299534Y-93657234D01*
X109472605Y-93585546D01*
X109656333Y-93549000D01*
X109843667Y-93549000D01*
X110027395Y-93585546D01*
X110027395Y-93585546D01*
G37*
G36*
X105027395Y-93585546D02*
G01*
X105200466Y-93657234D01*
X105200467Y-93657235D01*
X105356227Y-93761310D01*
X105488690Y-93893773D01*
X105488691Y-93893775D01*
X105592766Y-94049534D01*
X105664454Y-94222605D01*
X105701000Y-94406333D01*
X105701000Y-94593667D01*
X105664454Y-94777395D01*
X105592766Y-94950466D01*
X105592765Y-94950467D01*
X105488690Y-95106227D01*
X105356227Y-95238690D01*
X105277818Y-95291081D01*
X105200466Y-95342766D01*
X105027395Y-95414454D01*
X104843667Y-95451000D01*
X104656333Y-95451000D01*
X104472605Y-95414454D01*
X104299534Y-95342766D01*
X104222182Y-95291081D01*
X104143773Y-95238690D01*
X104011310Y-95106227D01*
X103907235Y-94950467D01*
X103907234Y-94950466D01*
X103835546Y-94777395D01*
X103799000Y-94593667D01*
X103799000Y-94406333D01*
X103835546Y-94222605D01*
X103907234Y-94049534D01*
X104011309Y-93893775D01*
X104011310Y-93893773D01*
X104143773Y-93761310D01*
X104299533Y-93657235D01*
X104299534Y-93657234D01*
X104472605Y-93585546D01*
X104656333Y-93549000D01*
X104843667Y-93549000D01*
X105027395Y-93585546D01*
X105027395Y-93585546D01*
G37*
G36*
X107527395Y-93585546D02*
G01*
X107700466Y-93657234D01*
X107700467Y-93657235D01*
X107856227Y-93761310D01*
X107988690Y-93893773D01*
X107988691Y-93893775D01*
X108092766Y-94049534D01*
X108164454Y-94222605D01*
X108201000Y-94406333D01*
X108201000Y-94593667D01*
X108164454Y-94777395D01*
X108092766Y-94950466D01*
X108092765Y-94950467D01*
X107988690Y-95106227D01*
X107856227Y-95238690D01*
X107777818Y-95291081D01*
X107700466Y-95342766D01*
X107527395Y-95414454D01*
X107343667Y-95451000D01*
X107156333Y-95451000D01*
X106972605Y-95414454D01*
X106799534Y-95342766D01*
X106722182Y-95291081D01*
X106643773Y-95238690D01*
X106511310Y-95106227D01*
X106407235Y-94950467D01*
X106407234Y-94950466D01*
X106335546Y-94777395D01*
X106299000Y-94593667D01*
X106299000Y-94406333D01*
X106335546Y-94222605D01*
X106407234Y-94049534D01*
X106511309Y-93893775D01*
X106511310Y-93893773D01*
X106643773Y-93761310D01*
X106799533Y-93657235D01*
X106799534Y-93657234D01*
X106972605Y-93585546D01*
X107156333Y-93549000D01*
X107343667Y-93549000D01*
X107527395Y-93585546D01*
X107527395Y-93585546D01*
G37*
G36*
X120257023Y-91310590D02*
G01*
X120357682Y-91341125D01*
X120408013Y-91356392D01*
X120547165Y-91430771D01*
X120669133Y-91530867D01*
X120769229Y-91652835D01*
X120843608Y-91791987D01*
X120844601Y-91795260D01*
X120889410Y-91942977D01*
X120901000Y-92060655D01*
X120901000Y-93939345D01*
X120889410Y-94057023D01*
X120858875Y-94157682D01*
X120843608Y-94208013D01*
X120835808Y-94222605D01*
X120769229Y-94347165D01*
X120669133Y-94469133D01*
X120569376Y-94551000D01*
X120547164Y-94569229D01*
X120408012Y-94643608D01*
X120357681Y-94658875D01*
X120257022Y-94689410D01*
X120100000Y-94704875D01*
X119942977Y-94689410D01*
X119842318Y-94658875D01*
X119791987Y-94643608D01*
X119652835Y-94569229D01*
X119557995Y-94491396D01*
X119530867Y-94469133D01*
X119430771Y-94347164D01*
X119356392Y-94208012D01*
X119341125Y-94157681D01*
X119310590Y-94057022D01*
X119299000Y-93939344D01*
X119299001Y-92060655D01*
X119310591Y-91942977D01*
X119355400Y-91795260D01*
X119356393Y-91791987D01*
X119430772Y-91652835D01*
X119530868Y-91530867D01*
X119652836Y-91430771D01*
X119791988Y-91356392D01*
X119842319Y-91341125D01*
X119942978Y-91310590D01*
X120100000Y-91295125D01*
X120257023Y-91310590D01*
X120257023Y-91310590D01*
G37*
G36*
X128557023Y-91310590D02*
G01*
X128657682Y-91341125D01*
X128708013Y-91356392D01*
X128847165Y-91430771D01*
X128969133Y-91530867D01*
X129069229Y-91652835D01*
X129143608Y-91791987D01*
X129144601Y-91795260D01*
X129189410Y-91942977D01*
X129201000Y-92060655D01*
X129201000Y-93939345D01*
X129189410Y-94057023D01*
X129158875Y-94157682D01*
X129143608Y-94208013D01*
X129135808Y-94222605D01*
X129069229Y-94347165D01*
X128969133Y-94469133D01*
X128869376Y-94551000D01*
X128847164Y-94569229D01*
X128708012Y-94643608D01*
X128657681Y-94658875D01*
X128557022Y-94689410D01*
X128400000Y-94704875D01*
X128242977Y-94689410D01*
X128142318Y-94658875D01*
X128091987Y-94643608D01*
X127952835Y-94569229D01*
X127857995Y-94491396D01*
X127830867Y-94469133D01*
X127730771Y-94347164D01*
X127656392Y-94208012D01*
X127641125Y-94157681D01*
X127610590Y-94057022D01*
X127599000Y-93939344D01*
X127599001Y-92060655D01*
X127610591Y-91942977D01*
X127655400Y-91795260D01*
X127656393Y-91791987D01*
X127730772Y-91652835D01*
X127830868Y-91530867D01*
X127952836Y-91430771D01*
X128091988Y-91356392D01*
X128142319Y-91341125D01*
X128242978Y-91310590D01*
X128400000Y-91295125D01*
X128557023Y-91310590D01*
X128557023Y-91310590D01*
G37*
G36*
X123779585Y-91478802D02*
G01*
X123929410Y-91508604D01*
X124211674Y-91625521D01*
X124465705Y-91795259D01*
X124681741Y-92011295D01*
X124851479Y-92265326D01*
X124968396Y-92547590D01*
X125028000Y-92847240D01*
X125028000Y-93152760D01*
X124968396Y-93452410D01*
X124851479Y-93734674D01*
X124681741Y-93988705D01*
X124465705Y-94204741D01*
X124211674Y-94374479D01*
X123929410Y-94491396D01*
X123779585Y-94521198D01*
X123629761Y-94551000D01*
X123324239Y-94551000D01*
X123174415Y-94521198D01*
X123024590Y-94491396D01*
X122742326Y-94374479D01*
X122488295Y-94204741D01*
X122272259Y-93988705D01*
X122102521Y-93734674D01*
X121985604Y-93452410D01*
X121926000Y-93152760D01*
X121926000Y-92847240D01*
X121985604Y-92547590D01*
X122102521Y-92265326D01*
X122272259Y-92011295D01*
X122488295Y-91795259D01*
X122742326Y-91625521D01*
X123024590Y-91508604D01*
X123174415Y-91478802D01*
X123324239Y-91449000D01*
X123629761Y-91449000D01*
X123779585Y-91478802D01*
X123779585Y-91478802D01*
G37*
G36*
X117966000Y-94016000D02*
G01*
X116034000Y-94016000D01*
X116034000Y-91984000D01*
X117966000Y-91984000D01*
X117966000Y-94016000D01*
X117966000Y-94016000D01*
G37*
G36*
X112001000Y-92201000D02*
G01*
X110399000Y-92201000D01*
X110399000Y-90799000D01*
X112001000Y-90799000D01*
X112001000Y-92201000D01*
X112001000Y-92201000D01*
G37*
G36*
X106801000Y-92201000D02*
G01*
X105199000Y-92201000D01*
X105199000Y-90799000D01*
X106801000Y-90799000D01*
X106801000Y-92201000D01*
X106801000Y-92201000D01*
G37*
G36*
X109301000Y-92201000D02*
G01*
X107699000Y-92201000D01*
X107699000Y-90799000D01*
X109301000Y-90799000D01*
X109301000Y-92201000D01*
X109301000Y-92201000D01*
G37*
G36*
X104101000Y-92201000D02*
G01*
X102499000Y-92201000D01*
X102499000Y-90799000D01*
X104101000Y-90799000D01*
X104101000Y-92201000D01*
X104101000Y-92201000D01*
G37*
G36*
X128801000Y-90201000D02*
G01*
X127199000Y-90201000D01*
X127199000Y-88799000D01*
X128801000Y-88799000D01*
X128801000Y-90201000D01*
X128801000Y-90201000D01*
G37*
G36*
X126101000Y-90201000D02*
G01*
X124499000Y-90201000D01*
X124499000Y-88799000D01*
X126101000Y-88799000D01*
X126101000Y-90201000D01*
X126101000Y-90201000D01*
G37*
G36*
X103098254Y-85027818D02*
G01*
X103471511Y-85182426D01*
X103471513Y-85182427D01*
X103499309Y-85201000D01*
X103807436Y-85406884D01*
X104093116Y-85692564D01*
X104317574Y-86028489D01*
X104472182Y-86401746D01*
X104551000Y-86797993D01*
X104551000Y-87202007D01*
X104472182Y-87598254D01*
X104317574Y-87971511D01*
X104317573Y-87971513D01*
X104093116Y-88307436D01*
X103807436Y-88593116D01*
X103471513Y-88817573D01*
X103471512Y-88817574D01*
X103471511Y-88817574D01*
X103098254Y-88972182D01*
X102702007Y-89051000D01*
X102297993Y-89051000D01*
X101901746Y-88972182D01*
X101528489Y-88817574D01*
X101528488Y-88817574D01*
X101528487Y-88817573D01*
X101192564Y-88593116D01*
X100906884Y-88307436D01*
X100682427Y-87971513D01*
X100682426Y-87971511D01*
X100527818Y-87598254D01*
X100449000Y-87202007D01*
X100449000Y-86797993D01*
X100527818Y-86401746D01*
X100682426Y-86028489D01*
X100906884Y-85692564D01*
X101192564Y-85406884D01*
X101500691Y-85201000D01*
X101528487Y-85182427D01*
X101528489Y-85182426D01*
X101901746Y-85027818D01*
X102297993Y-84949000D01*
X102702007Y-84949000D01*
X103098254Y-85027818D01*
X103098254Y-85027818D01*
G37*
G36*
X112598254Y-85027818D02*
G01*
X112971511Y-85182426D01*
X112971513Y-85182427D01*
X112999309Y-85201000D01*
X113307436Y-85406884D01*
X113593116Y-85692564D01*
X113817574Y-86028489D01*
X113972182Y-86401746D01*
X114051000Y-86797993D01*
X114051000Y-87202007D01*
X113972182Y-87598254D01*
X113817574Y-87971511D01*
X113817573Y-87971513D01*
X113593116Y-88307436D01*
X113307436Y-88593116D01*
X112971513Y-88817573D01*
X112971512Y-88817574D01*
X112971511Y-88817574D01*
X112598254Y-88972182D01*
X112202007Y-89051000D01*
X111797993Y-89051000D01*
X111401746Y-88972182D01*
X111028489Y-88817574D01*
X111028488Y-88817574D01*
X111028487Y-88817573D01*
X110692564Y-88593116D01*
X110406884Y-88307436D01*
X110182427Y-87971513D01*
X110182426Y-87971511D01*
X110027818Y-87598254D01*
X109949000Y-87202007D01*
X109949000Y-86797993D01*
X110027818Y-86401746D01*
X110182426Y-86028489D01*
X110406884Y-85692564D01*
X110692564Y-85406884D01*
X111000691Y-85201000D01*
X111028487Y-85182427D01*
X111028489Y-85182426D01*
X111401746Y-85027818D01*
X111797993Y-84949000D01*
X112202007Y-84949000D01*
X112598254Y-85027818D01*
X112598254Y-85027818D01*
G37*
G36*
X126101000Y-85201000D02*
G01*
X124499000Y-85201000D01*
X124499000Y-83799000D01*
X126101000Y-83799000D01*
X126101000Y-85201000D01*
X126101000Y-85201000D01*
G37*
G36*
X128801000Y-85201000D02*
G01*
X127199000Y-85201000D01*
X127199000Y-83799000D01*
X128801000Y-83799000D01*
X128801000Y-85201000D01*
X128801000Y-85201000D01*
G37*
G36*
X106301000Y-83176000D02*
G01*
X104699000Y-83176000D01*
X104699000Y-81824000D01*
X106301000Y-81824000D01*
X106301000Y-83176000D01*
X106301000Y-83176000D01*
G37*
G36*
X114801000Y-83176000D02*
G01*
X113199000Y-83176000D01*
X113199000Y-81824000D01*
X114801000Y-81824000D01*
X114801000Y-83176000D01*
X114801000Y-83176000D01*
G37*
G36*
X103801000Y-83176000D02*
G01*
X102199000Y-83176000D01*
X102199000Y-81824000D01*
X103801000Y-81824000D01*
X103801000Y-83176000D01*
X103801000Y-83176000D01*
G37*
G36*
X112301000Y-83176000D02*
G01*
X110699000Y-83176000D01*
X110699000Y-81824000D01*
X112301000Y-81824000D01*
X112301000Y-83176000D01*
X112301000Y-83176000D01*
G37*
G36*
X128557023Y-79310590D02*
G01*
X128657682Y-79341125D01*
X128708013Y-79356392D01*
X128847165Y-79430771D01*
X128969133Y-79530867D01*
X129069229Y-79652835D01*
X129143608Y-79791987D01*
X129144601Y-79795260D01*
X129189410Y-79942977D01*
X129201000Y-80060655D01*
X129201000Y-81939345D01*
X129189410Y-82057023D01*
X129158875Y-82157682D01*
X129143608Y-82208013D01*
X129069230Y-82347164D01*
X129069229Y-82347165D01*
X128969133Y-82469133D01*
X128869376Y-82551000D01*
X128847164Y-82569229D01*
X128708012Y-82643608D01*
X128657681Y-82658875D01*
X128557022Y-82689410D01*
X128400000Y-82704875D01*
X128242977Y-82689410D01*
X128142318Y-82658875D01*
X128091987Y-82643608D01*
X127952835Y-82569229D01*
X127857995Y-82491396D01*
X127830867Y-82469133D01*
X127730771Y-82347164D01*
X127656393Y-82208013D01*
X127656392Y-82208012D01*
X127641125Y-82157681D01*
X127610590Y-82057022D01*
X127599000Y-81939344D01*
X127599001Y-80060655D01*
X127610591Y-79942977D01*
X127655400Y-79795260D01*
X127656393Y-79791987D01*
X127730772Y-79652835D01*
X127830868Y-79530867D01*
X127952836Y-79430771D01*
X128091988Y-79356392D01*
X128142319Y-79341125D01*
X128242978Y-79310590D01*
X128400000Y-79295125D01*
X128557023Y-79310590D01*
X128557023Y-79310590D01*
G37*
G36*
X120257023Y-79310590D02*
G01*
X120357682Y-79341125D01*
X120408013Y-79356392D01*
X120547165Y-79430771D01*
X120669133Y-79530867D01*
X120769229Y-79652835D01*
X120843608Y-79791987D01*
X120844601Y-79795260D01*
X120889410Y-79942977D01*
X120901000Y-80060655D01*
X120901000Y-81939345D01*
X120889410Y-82057023D01*
X120858875Y-82157682D01*
X120843608Y-82208013D01*
X120769230Y-82347164D01*
X120769229Y-82347165D01*
X120669133Y-82469133D01*
X120569376Y-82551000D01*
X120547164Y-82569229D01*
X120408012Y-82643608D01*
X120357681Y-82658875D01*
X120257022Y-82689410D01*
X120100000Y-82704875D01*
X119942977Y-82689410D01*
X119842318Y-82658875D01*
X119791987Y-82643608D01*
X119652835Y-82569229D01*
X119557995Y-82491396D01*
X119530867Y-82469133D01*
X119430771Y-82347164D01*
X119356393Y-82208013D01*
X119356392Y-82208012D01*
X119341125Y-82157681D01*
X119310590Y-82057022D01*
X119299000Y-81939344D01*
X119299001Y-80060655D01*
X119310591Y-79942977D01*
X119355400Y-79795260D01*
X119356393Y-79791987D01*
X119430772Y-79652835D01*
X119530868Y-79530867D01*
X119652836Y-79430771D01*
X119791988Y-79356392D01*
X119842319Y-79341125D01*
X119942978Y-79310590D01*
X120100000Y-79295125D01*
X120257023Y-79310590D01*
X120257023Y-79310590D01*
G37*
G36*
X123779585Y-79478802D02*
G01*
X123929410Y-79508604D01*
X124211674Y-79625521D01*
X124465705Y-79795259D01*
X124681741Y-80011295D01*
X124851479Y-80265326D01*
X124968396Y-80547590D01*
X125028000Y-80847240D01*
X125028000Y-81152760D01*
X124968396Y-81452410D01*
X124851479Y-81734674D01*
X124681741Y-81988705D01*
X124465705Y-82204741D01*
X124211674Y-82374479D01*
X123929410Y-82491396D01*
X123779585Y-82521198D01*
X123629761Y-82551000D01*
X123324239Y-82551000D01*
X123174415Y-82521198D01*
X123024590Y-82491396D01*
X122742326Y-82374479D01*
X122488295Y-82204741D01*
X122272259Y-81988705D01*
X122102521Y-81734674D01*
X121985604Y-81452410D01*
X121926000Y-81152760D01*
X121926000Y-80847240D01*
X121985604Y-80547590D01*
X122102521Y-80265326D01*
X122272259Y-80011295D01*
X122488295Y-79795259D01*
X122742326Y-79625521D01*
X123024590Y-79508604D01*
X123174415Y-79478802D01*
X123324239Y-79449000D01*
X123629761Y-79449000D01*
X123779585Y-79478802D01*
X123779585Y-79478802D01*
G37*
G36*
X117966000Y-82016000D02*
G01*
X116034000Y-82016000D01*
X116034000Y-79984000D01*
X117966000Y-79984000D01*
X117966000Y-82016000D01*
X117966000Y-82016000D01*
G37*
G36*
X102876000Y-81066000D02*
G01*
X100124000Y-81066000D01*
X100124000Y-78934000D01*
X102876000Y-78934000D01*
X102876000Y-81066000D01*
X102876000Y-81066000D01*
G37*
G36*
X107056000Y-81066000D02*
G01*
X104304000Y-81066000D01*
X104304000Y-78934000D01*
X107056000Y-78934000D01*
X107056000Y-81066000D01*
X107056000Y-81066000D01*
G37*
G36*
X111376000Y-81066000D02*
G01*
X108624000Y-81066000D01*
X108624000Y-78934000D01*
X111376000Y-78934000D01*
X111376000Y-81066000D01*
X111376000Y-81066000D01*
G37*
G36*
X115556000Y-81066000D02*
G01*
X112804000Y-81066000D01*
X112804000Y-78934000D01*
X115556000Y-78934000D01*
X115556000Y-81066000D01*
X115556000Y-81066000D01*
G37*
G36*
X129801000Y-76951000D02*
G01*
X126199000Y-76951000D01*
X126199000Y-75049000D01*
X129801000Y-75049000D01*
X129801000Y-76951000D01*
X129801000Y-76951000D01*
G37*
G36*
X124801000Y-76951000D02*
G01*
X121199000Y-76951000D01*
X121199000Y-75049000D01*
X124801000Y-75049000D01*
X124801000Y-76951000D01*
X124801000Y-76951000D01*
G37*
G36*
X113070443Y-74605519D02*
G01*
X113136627Y-74612037D01*
X113306466Y-74663557D01*
X113462991Y-74747222D01*
X113498729Y-74776552D01*
X113600186Y-74859814D01*
X113683448Y-74961271D01*
X113712778Y-74997009D01*
X113796443Y-75153534D01*
X113847963Y-75323373D01*
X113865359Y-75500000D01*
X113847963Y-75676627D01*
X113796443Y-75846466D01*
X113712778Y-76002991D01*
X113683448Y-76038729D01*
X113600186Y-76140186D01*
X113498729Y-76223448D01*
X113462991Y-76252778D01*
X113306466Y-76336443D01*
X113136627Y-76387963D01*
X113070443Y-76394481D01*
X113004260Y-76401000D01*
X112915740Y-76401000D01*
X112849557Y-76394481D01*
X112783373Y-76387963D01*
X112613534Y-76336443D01*
X112457009Y-76252778D01*
X112421271Y-76223448D01*
X112319814Y-76140186D01*
X112236552Y-76038729D01*
X112207222Y-76002991D01*
X112123557Y-75846466D01*
X112072037Y-75676627D01*
X112054641Y-75500000D01*
X112072037Y-75323373D01*
X112123557Y-75153534D01*
X112207222Y-74997009D01*
X112236552Y-74961271D01*
X112319814Y-74859814D01*
X112421271Y-74776552D01*
X112457009Y-74747222D01*
X112613534Y-74663557D01*
X112783373Y-74612037D01*
X112849557Y-74605519D01*
X112915740Y-74599000D01*
X113004260Y-74599000D01*
X113070443Y-74605519D01*
X113070443Y-74605519D01*
G37*
G36*
X110530443Y-74605519D02*
G01*
X110596627Y-74612037D01*
X110766466Y-74663557D01*
X110922991Y-74747222D01*
X110958729Y-74776552D01*
X111060186Y-74859814D01*
X111143448Y-74961271D01*
X111172778Y-74997009D01*
X111256443Y-75153534D01*
X111307963Y-75323373D01*
X111325359Y-75500000D01*
X111307963Y-75676627D01*
X111256443Y-75846466D01*
X111172778Y-76002991D01*
X111143448Y-76038729D01*
X111060186Y-76140186D01*
X110958729Y-76223448D01*
X110922991Y-76252778D01*
X110766466Y-76336443D01*
X110596627Y-76387963D01*
X110530443Y-76394481D01*
X110464260Y-76401000D01*
X110375740Y-76401000D01*
X110309557Y-76394481D01*
X110243373Y-76387963D01*
X110073534Y-76336443D01*
X109917009Y-76252778D01*
X109881271Y-76223448D01*
X109779814Y-76140186D01*
X109696552Y-76038729D01*
X109667222Y-76002991D01*
X109583557Y-75846466D01*
X109532037Y-75676627D01*
X109514641Y-75500000D01*
X109532037Y-75323373D01*
X109583557Y-75153534D01*
X109667222Y-74997009D01*
X109696552Y-74961271D01*
X109779814Y-74859814D01*
X109881271Y-74776552D01*
X109917009Y-74747222D01*
X110073534Y-74663557D01*
X110243373Y-74612037D01*
X110309557Y-74605519D01*
X110375740Y-74599000D01*
X110464260Y-74599000D01*
X110530443Y-74605519D01*
X110530443Y-74605519D01*
G37*
G36*
X107990443Y-74605519D02*
G01*
X108056627Y-74612037D01*
X108226466Y-74663557D01*
X108382991Y-74747222D01*
X108418729Y-74776552D01*
X108520186Y-74859814D01*
X108603448Y-74961271D01*
X108632778Y-74997009D01*
X108716443Y-75153534D01*
X108767963Y-75323373D01*
X108785359Y-75500000D01*
X108767963Y-75676627D01*
X108716443Y-75846466D01*
X108632778Y-76002991D01*
X108603448Y-76038729D01*
X108520186Y-76140186D01*
X108418729Y-76223448D01*
X108382991Y-76252778D01*
X108226466Y-76336443D01*
X108056627Y-76387963D01*
X107990443Y-76394481D01*
X107924260Y-76401000D01*
X107835740Y-76401000D01*
X107769557Y-76394481D01*
X107703373Y-76387963D01*
X107533534Y-76336443D01*
X107377009Y-76252778D01*
X107341271Y-76223448D01*
X107239814Y-76140186D01*
X107156552Y-76038729D01*
X107127222Y-76002991D01*
X107043557Y-75846466D01*
X106992037Y-75676627D01*
X106974641Y-75500000D01*
X106992037Y-75323373D01*
X107043557Y-75153534D01*
X107127222Y-74997009D01*
X107156552Y-74961271D01*
X107239814Y-74859814D01*
X107341271Y-74776552D01*
X107377009Y-74747222D01*
X107533534Y-74663557D01*
X107703373Y-74612037D01*
X107769557Y-74605519D01*
X107835740Y-74599000D01*
X107924260Y-74599000D01*
X107990443Y-74605519D01*
X107990443Y-74605519D01*
G37*
G36*
X105450443Y-74605519D02*
G01*
X105516627Y-74612037D01*
X105686466Y-74663557D01*
X105842991Y-74747222D01*
X105878729Y-74776552D01*
X105980186Y-74859814D01*
X106063448Y-74961271D01*
X106092778Y-74997009D01*
X106176443Y-75153534D01*
X106227963Y-75323373D01*
X106245359Y-75500000D01*
X106227963Y-75676627D01*
X106176443Y-75846466D01*
X106092778Y-76002991D01*
X106063448Y-76038729D01*
X105980186Y-76140186D01*
X105878729Y-76223448D01*
X105842991Y-76252778D01*
X105686466Y-76336443D01*
X105516627Y-76387963D01*
X105450443Y-76394481D01*
X105384260Y-76401000D01*
X105295740Y-76401000D01*
X105229557Y-76394481D01*
X105163373Y-76387963D01*
X104993534Y-76336443D01*
X104837009Y-76252778D01*
X104801271Y-76223448D01*
X104699814Y-76140186D01*
X104616552Y-76038729D01*
X104587222Y-76002991D01*
X104503557Y-75846466D01*
X104452037Y-75676627D01*
X104434641Y-75500000D01*
X104452037Y-75323373D01*
X104503557Y-75153534D01*
X104587222Y-74997009D01*
X104616552Y-74961271D01*
X104699814Y-74859814D01*
X104801271Y-74776552D01*
X104837009Y-74747222D01*
X104993534Y-74663557D01*
X105163373Y-74612037D01*
X105229557Y-74605519D01*
X105295740Y-74599000D01*
X105384260Y-74599000D01*
X105450443Y-74605519D01*
X105450443Y-74605519D01*
G37*
G36*
X116401000Y-76401000D02*
G01*
X114599000Y-76401000D01*
X114599000Y-74599000D01*
X116401000Y-74599000D01*
X116401000Y-76401000D01*
X116401000Y-76401000D01*
G37*
G36*
X113070442Y-72065518D02*
G01*
X113136627Y-72072037D01*
X113306466Y-72123557D01*
X113462991Y-72207222D01*
X113498729Y-72236552D01*
X113600186Y-72319814D01*
X113683448Y-72421271D01*
X113712778Y-72457009D01*
X113796443Y-72613534D01*
X113847963Y-72783373D01*
X113865359Y-72960000D01*
X113847963Y-73136627D01*
X113796443Y-73306466D01*
X113712778Y-73462991D01*
X113683448Y-73498729D01*
X113600186Y-73600186D01*
X113498729Y-73683448D01*
X113462991Y-73712778D01*
X113306466Y-73796443D01*
X113136627Y-73847963D01*
X113070442Y-73854482D01*
X113004260Y-73861000D01*
X112915740Y-73861000D01*
X112849558Y-73854482D01*
X112783373Y-73847963D01*
X112613534Y-73796443D01*
X112457009Y-73712778D01*
X112421271Y-73683448D01*
X112319814Y-73600186D01*
X112236552Y-73498729D01*
X112207222Y-73462991D01*
X112123557Y-73306466D01*
X112072037Y-73136627D01*
X112054641Y-72960000D01*
X112072037Y-72783373D01*
X112123557Y-72613534D01*
X112207222Y-72457009D01*
X112236552Y-72421271D01*
X112319814Y-72319814D01*
X112421271Y-72236552D01*
X112457009Y-72207222D01*
X112613534Y-72123557D01*
X112783373Y-72072037D01*
X112849558Y-72065518D01*
X112915740Y-72059000D01*
X113004260Y-72059000D01*
X113070442Y-72065518D01*
X113070442Y-72065518D01*
G37*
G36*
X110530442Y-72065518D02*
G01*
X110596627Y-72072037D01*
X110766466Y-72123557D01*
X110922991Y-72207222D01*
X110958729Y-72236552D01*
X111060186Y-72319814D01*
X111143448Y-72421271D01*
X111172778Y-72457009D01*
X111256443Y-72613534D01*
X111307963Y-72783373D01*
X111325359Y-72960000D01*
X111307963Y-73136627D01*
X111256443Y-73306466D01*
X111172778Y-73462991D01*
X111143448Y-73498729D01*
X111060186Y-73600186D01*
X110958729Y-73683448D01*
X110922991Y-73712778D01*
X110766466Y-73796443D01*
X110596627Y-73847963D01*
X110530442Y-73854482D01*
X110464260Y-73861000D01*
X110375740Y-73861000D01*
X110309558Y-73854482D01*
X110243373Y-73847963D01*
X110073534Y-73796443D01*
X109917009Y-73712778D01*
X109881271Y-73683448D01*
X109779814Y-73600186D01*
X109696552Y-73498729D01*
X109667222Y-73462991D01*
X109583557Y-73306466D01*
X109532037Y-73136627D01*
X109514641Y-72960000D01*
X109532037Y-72783373D01*
X109583557Y-72613534D01*
X109667222Y-72457009D01*
X109696552Y-72421271D01*
X109779814Y-72319814D01*
X109881271Y-72236552D01*
X109917009Y-72207222D01*
X110073534Y-72123557D01*
X110243373Y-72072037D01*
X110309558Y-72065518D01*
X110375740Y-72059000D01*
X110464260Y-72059000D01*
X110530442Y-72065518D01*
X110530442Y-72065518D01*
G37*
G36*
X115610442Y-72065518D02*
G01*
X115676627Y-72072037D01*
X115846466Y-72123557D01*
X116002991Y-72207222D01*
X116038729Y-72236552D01*
X116140186Y-72319814D01*
X116223448Y-72421271D01*
X116252778Y-72457009D01*
X116336443Y-72613534D01*
X116387963Y-72783373D01*
X116405359Y-72960000D01*
X116387963Y-73136627D01*
X116336443Y-73306466D01*
X116252778Y-73462991D01*
X116223448Y-73498729D01*
X116140186Y-73600186D01*
X116038729Y-73683448D01*
X116002991Y-73712778D01*
X115846466Y-73796443D01*
X115676627Y-73847963D01*
X115610442Y-73854482D01*
X115544260Y-73861000D01*
X115455740Y-73861000D01*
X115389558Y-73854482D01*
X115323373Y-73847963D01*
X115153534Y-73796443D01*
X114997009Y-73712778D01*
X114961271Y-73683448D01*
X114859814Y-73600186D01*
X114776552Y-73498729D01*
X114747222Y-73462991D01*
X114663557Y-73306466D01*
X114612037Y-73136627D01*
X114594641Y-72960000D01*
X114612037Y-72783373D01*
X114663557Y-72613534D01*
X114747222Y-72457009D01*
X114776552Y-72421271D01*
X114859814Y-72319814D01*
X114961271Y-72236552D01*
X114997009Y-72207222D01*
X115153534Y-72123557D01*
X115323373Y-72072037D01*
X115389558Y-72065518D01*
X115455740Y-72059000D01*
X115544260Y-72059000D01*
X115610442Y-72065518D01*
X115610442Y-72065518D01*
G37*
G36*
X105450442Y-72065518D02*
G01*
X105516627Y-72072037D01*
X105686466Y-72123557D01*
X105842991Y-72207222D01*
X105878729Y-72236552D01*
X105980186Y-72319814D01*
X106063448Y-72421271D01*
X106092778Y-72457009D01*
X106176443Y-72613534D01*
X106227963Y-72783373D01*
X106245359Y-72960000D01*
X106227963Y-73136627D01*
X106176443Y-73306466D01*
X106092778Y-73462991D01*
X106063448Y-73498729D01*
X105980186Y-73600186D01*
X105878729Y-73683448D01*
X105842991Y-73712778D01*
X105686466Y-73796443D01*
X105516627Y-73847963D01*
X105450442Y-73854482D01*
X105384260Y-73861000D01*
X105295740Y-73861000D01*
X105229558Y-73854482D01*
X105163373Y-73847963D01*
X104993534Y-73796443D01*
X104837009Y-73712778D01*
X104801271Y-73683448D01*
X104699814Y-73600186D01*
X104616552Y-73498729D01*
X104587222Y-73462991D01*
X104503557Y-73306466D01*
X104452037Y-73136627D01*
X104434641Y-72960000D01*
X104452037Y-72783373D01*
X104503557Y-72613534D01*
X104587222Y-72457009D01*
X104616552Y-72421271D01*
X104699814Y-72319814D01*
X104801271Y-72236552D01*
X104837009Y-72207222D01*
X104993534Y-72123557D01*
X105163373Y-72072037D01*
X105229558Y-72065518D01*
X105295740Y-72059000D01*
X105384260Y-72059000D01*
X105450442Y-72065518D01*
X105450442Y-72065518D01*
G37*
G36*
X107990442Y-72065518D02*
G01*
X108056627Y-72072037D01*
X108226466Y-72123557D01*
X108382991Y-72207222D01*
X108418729Y-72236552D01*
X108520186Y-72319814D01*
X108603448Y-72421271D01*
X108632778Y-72457009D01*
X108716443Y-72613534D01*
X108767963Y-72783373D01*
X108785359Y-72960000D01*
X108767963Y-73136627D01*
X108716443Y-73306466D01*
X108632778Y-73462991D01*
X108603448Y-73498729D01*
X108520186Y-73600186D01*
X108418729Y-73683448D01*
X108382991Y-73712778D01*
X108226466Y-73796443D01*
X108056627Y-73847963D01*
X107990442Y-73854482D01*
X107924260Y-73861000D01*
X107835740Y-73861000D01*
X107769558Y-73854482D01*
X107703373Y-73847963D01*
X107533534Y-73796443D01*
X107377009Y-73712778D01*
X107341271Y-73683448D01*
X107239814Y-73600186D01*
X107156552Y-73498729D01*
X107127222Y-73462991D01*
X107043557Y-73306466D01*
X106992037Y-73136627D01*
X106974641Y-72960000D01*
X106992037Y-72783373D01*
X107043557Y-72613534D01*
X107127222Y-72457009D01*
X107156552Y-72421271D01*
X107239814Y-72319814D01*
X107341271Y-72236552D01*
X107377009Y-72207222D01*
X107533534Y-72123557D01*
X107703373Y-72072037D01*
X107769558Y-72065518D01*
X107835740Y-72059000D01*
X107924260Y-72059000D01*
X107990442Y-72065518D01*
X107990442Y-72065518D01*
G37*
G36*
X129801000Y-72951000D02*
G01*
X126199000Y-72951000D01*
X126199000Y-71049000D01*
X129801000Y-71049000D01*
X129801000Y-72951000D01*
X129801000Y-72951000D01*
G37*
G36*
X124801000Y-72951000D02*
G01*
X121199000Y-72951000D01*
X121199000Y-71049000D01*
X124801000Y-71049000D01*
X124801000Y-72951000D01*
X124801000Y-72951000D01*
G37*
G36*
X105027395Y-67585546D02*
G01*
X105200466Y-67657234D01*
X105200467Y-67657235D01*
X105356227Y-67761310D01*
X105488690Y-67893773D01*
X105488691Y-67893775D01*
X105592766Y-68049534D01*
X105664454Y-68222605D01*
X105701000Y-68406333D01*
X105701000Y-68593667D01*
X105664454Y-68777395D01*
X105592766Y-68950466D01*
X105592765Y-68950467D01*
X105488690Y-69106227D01*
X105356227Y-69238690D01*
X105277818Y-69291081D01*
X105200466Y-69342766D01*
X105027395Y-69414454D01*
X104843667Y-69451000D01*
X104656333Y-69451000D01*
X104472605Y-69414454D01*
X104299534Y-69342766D01*
X104222182Y-69291081D01*
X104143773Y-69238690D01*
X104011310Y-69106227D01*
X103907235Y-68950467D01*
X103907234Y-68950466D01*
X103835546Y-68777395D01*
X103799000Y-68593667D01*
X103799000Y-68406333D01*
X103835546Y-68222605D01*
X103907234Y-68049534D01*
X104011309Y-67893775D01*
X104011310Y-67893773D01*
X104143773Y-67761310D01*
X104299533Y-67657235D01*
X104299534Y-67657234D01*
X104472605Y-67585546D01*
X104656333Y-67549000D01*
X104843667Y-67549000D01*
X105027395Y-67585546D01*
X105027395Y-67585546D01*
G37*
G36*
X107527395Y-67585546D02*
G01*
X107700466Y-67657234D01*
X107700467Y-67657235D01*
X107856227Y-67761310D01*
X107988690Y-67893773D01*
X107988691Y-67893775D01*
X108092766Y-68049534D01*
X108164454Y-68222605D01*
X108201000Y-68406333D01*
X108201000Y-68593667D01*
X108164454Y-68777395D01*
X108092766Y-68950466D01*
X108092765Y-68950467D01*
X107988690Y-69106227D01*
X107856227Y-69238690D01*
X107777818Y-69291081D01*
X107700466Y-69342766D01*
X107527395Y-69414454D01*
X107343667Y-69451000D01*
X107156333Y-69451000D01*
X106972605Y-69414454D01*
X106799534Y-69342766D01*
X106722182Y-69291081D01*
X106643773Y-69238690D01*
X106511310Y-69106227D01*
X106407235Y-68950467D01*
X106407234Y-68950466D01*
X106335546Y-68777395D01*
X106299000Y-68593667D01*
X106299000Y-68406333D01*
X106335546Y-68222605D01*
X106407234Y-68049534D01*
X106511309Y-67893775D01*
X106511310Y-67893773D01*
X106643773Y-67761310D01*
X106799533Y-67657235D01*
X106799534Y-67657234D01*
X106972605Y-67585546D01*
X107156333Y-67549000D01*
X107343667Y-67549000D01*
X107527395Y-67585546D01*
X107527395Y-67585546D01*
G37*
G36*
X110027395Y-67585546D02*
G01*
X110200466Y-67657234D01*
X110200467Y-67657235D01*
X110356227Y-67761310D01*
X110488690Y-67893773D01*
X110488691Y-67893775D01*
X110592766Y-68049534D01*
X110664454Y-68222605D01*
X110701000Y-68406333D01*
X110701000Y-68593667D01*
X110664454Y-68777395D01*
X110592766Y-68950466D01*
X110592765Y-68950467D01*
X110488690Y-69106227D01*
X110356227Y-69238690D01*
X110277818Y-69291081D01*
X110200466Y-69342766D01*
X110027395Y-69414454D01*
X109843667Y-69451000D01*
X109656333Y-69451000D01*
X109472605Y-69414454D01*
X109299534Y-69342766D01*
X109222182Y-69291081D01*
X109143773Y-69238690D01*
X109011310Y-69106227D01*
X108907235Y-68950467D01*
X108907234Y-68950466D01*
X108835546Y-68777395D01*
X108799000Y-68593667D01*
X108799000Y-68406333D01*
X108835546Y-68222605D01*
X108907234Y-68049534D01*
X109011309Y-67893775D01*
X109011310Y-67893773D01*
X109143773Y-67761310D01*
X109299533Y-67657235D01*
X109299534Y-67657234D01*
X109472605Y-67585546D01*
X109656333Y-67549000D01*
X109843667Y-67549000D01*
X110027395Y-67585546D01*
X110027395Y-67585546D01*
G37*
G36*
X128557023Y-65310590D02*
G01*
X128657682Y-65341125D01*
X128708013Y-65356392D01*
X128847165Y-65430771D01*
X128969133Y-65530867D01*
X129069229Y-65652835D01*
X129143608Y-65791987D01*
X129144601Y-65795260D01*
X129189410Y-65942977D01*
X129201000Y-66060655D01*
X129201000Y-67939345D01*
X129189410Y-68057023D01*
X129158875Y-68157682D01*
X129143608Y-68208013D01*
X129135808Y-68222605D01*
X129069229Y-68347165D01*
X128969133Y-68469133D01*
X128869376Y-68551000D01*
X128847164Y-68569229D01*
X128708012Y-68643608D01*
X128657681Y-68658875D01*
X128557022Y-68689410D01*
X128400000Y-68704875D01*
X128242977Y-68689410D01*
X128142318Y-68658875D01*
X128091987Y-68643608D01*
X127952835Y-68569229D01*
X127857995Y-68491396D01*
X127830867Y-68469133D01*
X127730771Y-68347164D01*
X127656392Y-68208012D01*
X127641125Y-68157681D01*
X127610590Y-68057022D01*
X127599000Y-67939344D01*
X127599001Y-66060655D01*
X127610591Y-65942977D01*
X127655400Y-65795260D01*
X127656393Y-65791987D01*
X127730772Y-65652835D01*
X127830868Y-65530867D01*
X127952836Y-65430771D01*
X128091988Y-65356392D01*
X128142319Y-65341125D01*
X128242978Y-65310590D01*
X128400000Y-65295125D01*
X128557023Y-65310590D01*
X128557023Y-65310590D01*
G37*
G36*
X120257023Y-65310590D02*
G01*
X120357682Y-65341125D01*
X120408013Y-65356392D01*
X120547165Y-65430771D01*
X120669133Y-65530867D01*
X120769229Y-65652835D01*
X120843608Y-65791987D01*
X120844601Y-65795260D01*
X120889410Y-65942977D01*
X120901000Y-66060655D01*
X120901000Y-67939345D01*
X120889410Y-68057023D01*
X120858875Y-68157682D01*
X120843608Y-68208013D01*
X120835808Y-68222605D01*
X120769229Y-68347165D01*
X120669133Y-68469133D01*
X120569376Y-68551000D01*
X120547164Y-68569229D01*
X120408012Y-68643608D01*
X120357681Y-68658875D01*
X120257022Y-68689410D01*
X120100000Y-68704875D01*
X119942977Y-68689410D01*
X119842318Y-68658875D01*
X119791987Y-68643608D01*
X119652835Y-68569229D01*
X119557995Y-68491396D01*
X119530867Y-68469133D01*
X119430771Y-68347164D01*
X119356392Y-68208012D01*
X119341125Y-68157681D01*
X119310590Y-68057022D01*
X119299000Y-67939344D01*
X119299001Y-66060655D01*
X119310591Y-65942977D01*
X119355400Y-65795260D01*
X119356393Y-65791987D01*
X119430772Y-65652835D01*
X119530868Y-65530867D01*
X119652836Y-65430771D01*
X119791988Y-65356392D01*
X119842319Y-65341125D01*
X119942978Y-65310590D01*
X120100000Y-65295125D01*
X120257023Y-65310590D01*
X120257023Y-65310590D01*
G37*
G36*
X123779585Y-65478802D02*
G01*
X123929410Y-65508604D01*
X124211674Y-65625521D01*
X124465705Y-65795259D01*
X124681741Y-66011295D01*
X124851479Y-66265326D01*
X124968396Y-66547590D01*
X125028000Y-66847240D01*
X125028000Y-67152760D01*
X124968396Y-67452410D01*
X124851479Y-67734674D01*
X124681741Y-67988705D01*
X124465705Y-68204741D01*
X124211674Y-68374479D01*
X123929410Y-68491396D01*
X123779585Y-68521198D01*
X123629761Y-68551000D01*
X123324239Y-68551000D01*
X123174415Y-68521198D01*
X123024590Y-68491396D01*
X122742326Y-68374479D01*
X122488295Y-68204741D01*
X122272259Y-67988705D01*
X122102521Y-67734674D01*
X121985604Y-67452410D01*
X121926000Y-67152760D01*
X121926000Y-66847240D01*
X121985604Y-66547590D01*
X122102521Y-66265326D01*
X122272259Y-66011295D01*
X122488295Y-65795259D01*
X122742326Y-65625521D01*
X123024590Y-65508604D01*
X123174415Y-65478802D01*
X123324239Y-65449000D01*
X123629761Y-65449000D01*
X123779585Y-65478802D01*
X123779585Y-65478802D01*
G37*
G36*
X117966000Y-68016000D02*
G01*
X116034000Y-68016000D01*
X116034000Y-65984000D01*
X117966000Y-65984000D01*
X117966000Y-68016000D01*
X117966000Y-68016000D01*
G37*
G36*
X104101000Y-66201000D02*
G01*
X102499000Y-66201000D01*
X102499000Y-64799000D01*
X104101000Y-64799000D01*
X104101000Y-66201000D01*
X104101000Y-66201000D01*
G37*
G36*
X112001000Y-66201000D02*
G01*
X110399000Y-66201000D01*
X110399000Y-64799000D01*
X112001000Y-64799000D01*
X112001000Y-66201000D01*
X112001000Y-66201000D01*
G37*
G36*
X106801000Y-66201000D02*
G01*
X105199000Y-66201000D01*
X105199000Y-64799000D01*
X106801000Y-64799000D01*
X106801000Y-66201000D01*
X106801000Y-66201000D01*
G37*
G36*
X109301000Y-66201000D02*
G01*
X107699000Y-66201000D01*
X107699000Y-64799000D01*
X109301000Y-64799000D01*
X109301000Y-66201000D01*
X109301000Y-66201000D01*
G37*
G36*
X126101000Y-63701000D02*
G01*
X124499000Y-63701000D01*
X124499000Y-62299000D01*
X126101000Y-62299000D01*
X126101000Y-63701000D01*
X126101000Y-63701000D01*
G37*
G36*
X128801000Y-63701000D02*
G01*
X127199000Y-63701000D01*
X127199000Y-62299000D01*
X128801000Y-62299000D01*
X128801000Y-63701000D01*
X128801000Y-63701000D01*
G37*
G36*
X112598254Y-59027818D02*
G01*
X112971511Y-59182426D01*
X112971513Y-59182427D01*
X112999309Y-59201000D01*
X113307436Y-59406884D01*
X113593116Y-59692564D01*
X113817574Y-60028489D01*
X113972182Y-60401746D01*
X114051000Y-60797993D01*
X114051000Y-61202007D01*
X113972182Y-61598254D01*
X113817574Y-61971511D01*
X113817573Y-61971513D01*
X113593116Y-62307436D01*
X113307436Y-62593116D01*
X112971513Y-62817573D01*
X112971512Y-62817574D01*
X112971511Y-62817574D01*
X112598254Y-62972182D01*
X112202007Y-63051000D01*
X111797993Y-63051000D01*
X111401746Y-62972182D01*
X111028489Y-62817574D01*
X111028488Y-62817574D01*
X111028487Y-62817573D01*
X110692564Y-62593116D01*
X110406884Y-62307436D01*
X110182427Y-61971513D01*
X110182426Y-61971511D01*
X110027818Y-61598254D01*
X109949000Y-61202007D01*
X109949000Y-60797993D01*
X110027818Y-60401746D01*
X110182426Y-60028489D01*
X110406884Y-59692564D01*
X110692564Y-59406884D01*
X111000691Y-59201000D01*
X111028487Y-59182427D01*
X111028489Y-59182426D01*
X111401746Y-59027818D01*
X111797993Y-58949000D01*
X112202007Y-58949000D01*
X112598254Y-59027818D01*
X112598254Y-59027818D01*
G37*
G36*
X103098254Y-59027818D02*
G01*
X103471511Y-59182426D01*
X103471513Y-59182427D01*
X103499309Y-59201000D01*
X103807436Y-59406884D01*
X104093116Y-59692564D01*
X104317574Y-60028489D01*
X104472182Y-60401746D01*
X104551000Y-60797993D01*
X104551000Y-61202007D01*
X104472182Y-61598254D01*
X104317574Y-61971511D01*
X104317573Y-61971513D01*
X104093116Y-62307436D01*
X103807436Y-62593116D01*
X103471513Y-62817573D01*
X103471512Y-62817574D01*
X103471511Y-62817574D01*
X103098254Y-62972182D01*
X102702007Y-63051000D01*
X102297993Y-63051000D01*
X101901746Y-62972182D01*
X101528489Y-62817574D01*
X101528488Y-62817574D01*
X101528487Y-62817573D01*
X101192564Y-62593116D01*
X100906884Y-62307436D01*
X100682427Y-61971513D01*
X100682426Y-61971511D01*
X100527818Y-61598254D01*
X100449000Y-61202007D01*
X100449000Y-60797993D01*
X100527818Y-60401746D01*
X100682426Y-60028489D01*
X100906884Y-59692564D01*
X101192564Y-59406884D01*
X101500691Y-59201000D01*
X101528487Y-59182427D01*
X101528489Y-59182426D01*
X101901746Y-59027818D01*
X102297993Y-58949000D01*
X102702007Y-58949000D01*
X103098254Y-59027818D01*
X103098254Y-59027818D01*
G37*
G36*
X126101000Y-59201000D02*
G01*
X124499000Y-59201000D01*
X124499000Y-57799000D01*
X126101000Y-57799000D01*
X126101000Y-59201000D01*
X126101000Y-59201000D01*
G37*
G36*
X128801000Y-59201000D02*
G01*
X127199000Y-59201000D01*
X127199000Y-57799000D01*
X128801000Y-57799000D01*
X128801000Y-59201000D01*
X128801000Y-59201000D01*
G37*
G36*
X120257023Y-53310590D02*
G01*
X120357682Y-53341125D01*
X120408013Y-53356392D01*
X120547165Y-53430771D01*
X120669133Y-53530867D01*
X120769229Y-53652835D01*
X120843608Y-53791987D01*
X120844601Y-53795260D01*
X120889410Y-53942977D01*
X120901000Y-54060655D01*
X120901000Y-55939345D01*
X120889410Y-56057023D01*
X120858875Y-56157682D01*
X120843608Y-56208013D01*
X120769230Y-56347164D01*
X120769229Y-56347165D01*
X120669133Y-56469133D01*
X120569376Y-56551000D01*
X120547164Y-56569229D01*
X120408012Y-56643608D01*
X120357681Y-56658875D01*
X120257022Y-56689410D01*
X120100000Y-56704875D01*
X119942977Y-56689410D01*
X119842318Y-56658875D01*
X119791987Y-56643608D01*
X119652835Y-56569229D01*
X119557995Y-56491396D01*
X119530867Y-56469133D01*
X119430771Y-56347164D01*
X119356393Y-56208013D01*
X119356392Y-56208012D01*
X119341125Y-56157681D01*
X119310590Y-56057022D01*
X119299000Y-55939344D01*
X119299001Y-54060655D01*
X119310591Y-53942977D01*
X119355400Y-53795260D01*
X119356393Y-53791987D01*
X119430772Y-53652835D01*
X119530868Y-53530867D01*
X119652836Y-53430771D01*
X119791988Y-53356392D01*
X119842319Y-53341125D01*
X119942978Y-53310590D01*
X120100000Y-53295125D01*
X120257023Y-53310590D01*
X120257023Y-53310590D01*
G37*
G36*
X128557023Y-53310590D02*
G01*
X128657682Y-53341125D01*
X128708013Y-53356392D01*
X128847165Y-53430771D01*
X128969133Y-53530867D01*
X129069229Y-53652835D01*
X129143608Y-53791987D01*
X129144601Y-53795260D01*
X129189410Y-53942977D01*
X129201000Y-54060655D01*
X129201000Y-55939345D01*
X129189410Y-56057023D01*
X129158875Y-56157682D01*
X129143608Y-56208013D01*
X129069230Y-56347164D01*
X129069229Y-56347165D01*
X128969133Y-56469133D01*
X128869376Y-56551000D01*
X128847164Y-56569229D01*
X128708012Y-56643608D01*
X128657681Y-56658875D01*
X128557022Y-56689410D01*
X128400000Y-56704875D01*
X128242977Y-56689410D01*
X128142318Y-56658875D01*
X128091987Y-56643608D01*
X127952835Y-56569229D01*
X127857995Y-56491396D01*
X127830867Y-56469133D01*
X127730771Y-56347164D01*
X127656393Y-56208013D01*
X127656392Y-56208012D01*
X127641125Y-56157681D01*
X127610590Y-56057022D01*
X127599000Y-55939344D01*
X127599001Y-54060655D01*
X127610591Y-53942977D01*
X127655400Y-53795260D01*
X127656393Y-53791987D01*
X127730772Y-53652835D01*
X127830868Y-53530867D01*
X127952836Y-53430771D01*
X128091988Y-53356392D01*
X128142319Y-53341125D01*
X128242978Y-53310590D01*
X128400000Y-53295125D01*
X128557023Y-53310590D01*
X128557023Y-53310590D01*
G37*
G36*
X123779585Y-53478802D02*
G01*
X123929410Y-53508604D01*
X124211674Y-53625521D01*
X124465705Y-53795259D01*
X124681741Y-54011295D01*
X124851479Y-54265326D01*
X124968396Y-54547590D01*
X125028000Y-54847240D01*
X125028000Y-55152760D01*
X124968396Y-55452410D01*
X124851479Y-55734674D01*
X124681741Y-55988705D01*
X124465705Y-56204741D01*
X124211674Y-56374479D01*
X123929410Y-56491396D01*
X123779585Y-56521198D01*
X123629761Y-56551000D01*
X123324239Y-56551000D01*
X123174415Y-56521198D01*
X123024590Y-56491396D01*
X122742326Y-56374479D01*
X122488295Y-56204741D01*
X122272259Y-55988705D01*
X122102521Y-55734674D01*
X121985604Y-55452410D01*
X121926000Y-55152760D01*
X121926000Y-54847240D01*
X121985604Y-54547590D01*
X122102521Y-54265326D01*
X122272259Y-54011295D01*
X122488295Y-53795259D01*
X122742326Y-53625521D01*
X123024590Y-53508604D01*
X123174415Y-53478802D01*
X123324239Y-53449000D01*
X123629761Y-53449000D01*
X123779585Y-53478802D01*
X123779585Y-53478802D01*
G37*
G36*
X117966000Y-56016000D02*
G01*
X116034000Y-56016000D01*
X116034000Y-53984000D01*
X117966000Y-53984000D01*
X117966000Y-56016000D01*
X117966000Y-56016000D01*
G37*
M02*
