G04 #@! TF.GenerationSoftware,KiCad,Pcbnew,(5.1.4)-1*
G04 #@! TF.CreationDate,2019-11-28T10:56:44-08:00*
G04 #@! TF.ProjectId,Attenuverter,41747465-6e75-4766-9572-7465722e6b69,rev?*
G04 #@! TF.SameCoordinates,Original*
G04 #@! TF.FileFunction,Legend,Bot*
G04 #@! TF.FilePolarity,Positive*
%FSLAX46Y46*%
G04 Gerber Fmt 4.6, Leading zero omitted, Abs format (unit mm)*
G04 Created by KiCad (PCBNEW (5.1.4)-1) date 2019-11-28 10:56:44*
%MOMM*%
%LPD*%
G04 APERTURE LIST*
%ADD10C,0.150000*%
%ADD11C,1.000000*%
%ADD12C,0.120000*%
G04 APERTURE END LIST*
D10*
X120642857Y-69571428D02*
X119880952Y-69571428D01*
X118880952Y-69952380D02*
X119452380Y-69952380D01*
X119166666Y-69952380D02*
X119166666Y-68952380D01*
X119261904Y-69095238D01*
X119357142Y-69190476D01*
X119452380Y-69238095D01*
X118500000Y-69047619D02*
X118452380Y-69000000D01*
X118357142Y-68952380D01*
X118119047Y-68952380D01*
X118023809Y-69000000D01*
X117976190Y-69047619D01*
X117928571Y-69142857D01*
X117928571Y-69238095D01*
X117976190Y-69380952D01*
X118547619Y-69952380D01*
X117928571Y-69952380D01*
X117595238Y-69285714D02*
X117357142Y-69952380D01*
X117119047Y-69285714D01*
X103785714Y-69571428D02*
X103023809Y-69571428D01*
X103404761Y-69952380D02*
X103404761Y-69190476D01*
X102023809Y-69952380D02*
X102595238Y-69952380D01*
X102309523Y-69952380D02*
X102309523Y-68952380D01*
X102404761Y-69095238D01*
X102500000Y-69190476D01*
X102595238Y-69238095D01*
X101642857Y-69047619D02*
X101595238Y-69000000D01*
X101500000Y-68952380D01*
X101261904Y-68952380D01*
X101166666Y-69000000D01*
X101119047Y-69047619D01*
X101071428Y-69142857D01*
X101071428Y-69238095D01*
X101119047Y-69380952D01*
X101690476Y-69952380D01*
X101071428Y-69952380D01*
X100738095Y-69285714D02*
X100500000Y-69952380D01*
X100261904Y-69285714D01*
X115702380Y-56357142D02*
X115226190Y-56023809D01*
X115702380Y-55785714D02*
X114702380Y-55785714D01*
X114702380Y-56166666D01*
X114750000Y-56261904D01*
X114797619Y-56309523D01*
X114892857Y-56357142D01*
X115035714Y-56357142D01*
X115130952Y-56309523D01*
X115178571Y-56261904D01*
X115226190Y-56166666D01*
X115226190Y-55785714D01*
X115654761Y-57166666D02*
X115702380Y-57071428D01*
X115702380Y-56880952D01*
X115654761Y-56785714D01*
X115559523Y-56738095D01*
X115178571Y-56738095D01*
X115083333Y-56785714D01*
X115035714Y-56880952D01*
X115035714Y-57071428D01*
X115083333Y-57166666D01*
X115178571Y-57214285D01*
X115273809Y-57214285D01*
X115369047Y-56738095D01*
X115702380Y-58071428D02*
X114702380Y-58071428D01*
X115654761Y-58071428D02*
X115702380Y-57976190D01*
X115702380Y-57785714D01*
X115654761Y-57690476D01*
X115607142Y-57642857D01*
X115511904Y-57595238D01*
X115226190Y-57595238D01*
X115130952Y-57642857D01*
X115083333Y-57690476D01*
X115035714Y-57785714D01*
X115035714Y-57976190D01*
X115083333Y-58071428D01*
X115654761Y-59261904D02*
X115702380Y-59404761D01*
X115702380Y-59642857D01*
X115654761Y-59738095D01*
X115607142Y-59785714D01*
X115511904Y-59833333D01*
X115416666Y-59833333D01*
X115321428Y-59785714D01*
X115273809Y-59738095D01*
X115226190Y-59642857D01*
X115178571Y-59452380D01*
X115130952Y-59357142D01*
X115083333Y-59309523D01*
X114988095Y-59261904D01*
X114892857Y-59261904D01*
X114797619Y-59309523D01*
X114750000Y-59357142D01*
X114702380Y-59452380D01*
X114702380Y-59690476D01*
X114750000Y-59833333D01*
X115035714Y-60119047D02*
X115035714Y-60500000D01*
X114702380Y-60261904D02*
X115559523Y-60261904D01*
X115654761Y-60309523D01*
X115702380Y-60404761D01*
X115702380Y-60500000D01*
X115702380Y-60833333D02*
X115035714Y-60833333D01*
X115226190Y-60833333D02*
X115130952Y-60880952D01*
X115083333Y-60928571D01*
X115035714Y-61023809D01*
X115035714Y-61119047D01*
X115702380Y-61452380D02*
X115035714Y-61452380D01*
X114702380Y-61452380D02*
X114750000Y-61404761D01*
X114797619Y-61452380D01*
X114750000Y-61500000D01*
X114702380Y-61452380D01*
X114797619Y-61452380D01*
X115035714Y-61928571D02*
X116035714Y-61928571D01*
X115083333Y-61928571D02*
X115035714Y-62023809D01*
X115035714Y-62214285D01*
X115083333Y-62309523D01*
X115130952Y-62357142D01*
X115226190Y-62404761D01*
X115511904Y-62404761D01*
X115607142Y-62357142D01*
X115654761Y-62309523D01*
X115702380Y-62214285D01*
X115702380Y-62023809D01*
X115654761Y-61928571D01*
X115654761Y-63214285D02*
X115702380Y-63119047D01*
X115702380Y-62928571D01*
X115654761Y-62833333D01*
X115559523Y-62785714D01*
X115178571Y-62785714D01*
X115083333Y-62833333D01*
X115035714Y-62928571D01*
X115035714Y-63119047D01*
X115083333Y-63214285D01*
X115178571Y-63261904D01*
X115273809Y-63261904D01*
X115369047Y-62785714D01*
D11*
X115500000Y-71500000D02*
X115500000Y-64250000D01*
D10*
X113738095Y-131154761D02*
X113642857Y-131202380D01*
X113452380Y-131202380D01*
X113357142Y-131154761D01*
X113309523Y-131059523D01*
X113309523Y-131011904D01*
X113357142Y-130916666D01*
X113452380Y-130869047D01*
X113595238Y-130869047D01*
X113690476Y-130821428D01*
X113738095Y-130726190D01*
X113738095Y-130678571D01*
X113690476Y-130583333D01*
X113595238Y-130535714D01*
X113452380Y-130535714D01*
X113357142Y-130583333D01*
X112452380Y-131154761D02*
X112547619Y-131202380D01*
X112738095Y-131202380D01*
X112833333Y-131154761D01*
X112880952Y-131107142D01*
X112928571Y-131011904D01*
X112928571Y-130726190D01*
X112880952Y-130630952D01*
X112833333Y-130583333D01*
X112738095Y-130535714D01*
X112547619Y-130535714D01*
X112452380Y-130583333D01*
X112023809Y-131202380D02*
X112023809Y-130202380D01*
X111595238Y-131202380D02*
X111595238Y-130678571D01*
X111642857Y-130583333D01*
X111738095Y-130535714D01*
X111880952Y-130535714D01*
X111976190Y-130583333D01*
X112023809Y-130630952D01*
X110738095Y-131154761D02*
X110833333Y-131202380D01*
X111023809Y-131202380D01*
X111119047Y-131154761D01*
X111166666Y-131059523D01*
X111166666Y-130678571D01*
X111119047Y-130583333D01*
X111023809Y-130535714D01*
X110833333Y-130535714D01*
X110738095Y-130583333D01*
X110690476Y-130678571D01*
X110690476Y-130773809D01*
X111166666Y-130869047D01*
X110261904Y-130535714D02*
X110261904Y-131202380D01*
X110261904Y-130630952D02*
X110214285Y-130583333D01*
X110119047Y-130535714D01*
X109976190Y-130535714D01*
X109880952Y-130583333D01*
X109833333Y-130678571D01*
X109833333Y-131202380D01*
X109357142Y-131202380D02*
X109357142Y-130202380D01*
X109261904Y-130821428D02*
X108976190Y-131202380D01*
X108976190Y-130535714D02*
X109357142Y-130916666D01*
X108690476Y-130535714D02*
X108309523Y-130535714D01*
X108547619Y-130202380D02*
X108547619Y-131059523D01*
X108500000Y-131154761D01*
X108404761Y-131202380D01*
X108309523Y-131202380D01*
X107976190Y-131202380D02*
X107976190Y-130535714D01*
X107976190Y-130726190D02*
X107928571Y-130630952D01*
X107880952Y-130583333D01*
X107785714Y-130535714D01*
X107690476Y-130535714D01*
X107214285Y-131202380D02*
X107309523Y-131154761D01*
X107357142Y-131107142D01*
X107404761Y-131011904D01*
X107404761Y-130726190D01*
X107357142Y-130630952D01*
X107309523Y-130583333D01*
X107214285Y-130535714D01*
X107071428Y-130535714D01*
X106976190Y-130583333D01*
X106928571Y-130630952D01*
X106880952Y-130726190D01*
X106880952Y-131011904D01*
X106928571Y-131107142D01*
X106976190Y-131154761D01*
X107071428Y-131202380D01*
X107214285Y-131202380D01*
X106452380Y-130535714D02*
X106452380Y-131202380D01*
X106452380Y-130630952D02*
X106404761Y-130583333D01*
X106309523Y-130535714D01*
X106166666Y-130535714D01*
X106071428Y-130583333D01*
X106023809Y-130678571D01*
X106023809Y-131202380D01*
X105547619Y-131202380D02*
X105547619Y-130535714D01*
X105547619Y-130202380D02*
X105595238Y-130250000D01*
X105547619Y-130297619D01*
X105500000Y-130250000D01*
X105547619Y-130202380D01*
X105547619Y-130297619D01*
X104642857Y-131154761D02*
X104738095Y-131202380D01*
X104928571Y-131202380D01*
X105023809Y-131154761D01*
X105071428Y-131107142D01*
X105119047Y-131011904D01*
X105119047Y-130726190D01*
X105071428Y-130630952D01*
X105023809Y-130583333D01*
X104928571Y-130535714D01*
X104738095Y-130535714D01*
X104642857Y-130583333D01*
X104261904Y-131154761D02*
X104166666Y-131202380D01*
X103976190Y-131202380D01*
X103880952Y-131154761D01*
X103833333Y-131059523D01*
X103833333Y-131011904D01*
X103880952Y-130916666D01*
X103976190Y-130869047D01*
X104119047Y-130869047D01*
X104214285Y-130821428D01*
X104261904Y-130726190D01*
X104261904Y-130678571D01*
X104214285Y-130583333D01*
X104119047Y-130535714D01*
X103976190Y-130535714D01*
X103880952Y-130583333D01*
X103404761Y-131107142D02*
X103357142Y-131154761D01*
X103404761Y-131202380D01*
X103452380Y-131154761D01*
X103404761Y-131107142D01*
X103404761Y-131202380D01*
X102500000Y-131154761D02*
X102595238Y-131202380D01*
X102785714Y-131202380D01*
X102880952Y-131154761D01*
X102928571Y-131107142D01*
X102976190Y-131011904D01*
X102976190Y-130726190D01*
X102928571Y-130630952D01*
X102880952Y-130583333D01*
X102785714Y-130535714D01*
X102595238Y-130535714D01*
X102500000Y-130583333D01*
X101928571Y-131202380D02*
X102023809Y-131154761D01*
X102071428Y-131107142D01*
X102119047Y-131011904D01*
X102119047Y-130726190D01*
X102071428Y-130630952D01*
X102023809Y-130583333D01*
X101928571Y-130535714D01*
X101785714Y-130535714D01*
X101690476Y-130583333D01*
X101642857Y-130630952D01*
X101595238Y-130726190D01*
X101595238Y-131011904D01*
X101642857Y-131107142D01*
X101690476Y-131154761D01*
X101785714Y-131202380D01*
X101928571Y-131202380D01*
X101166666Y-131202380D02*
X101166666Y-130535714D01*
X101166666Y-130630952D02*
X101119047Y-130583333D01*
X101023809Y-130535714D01*
X100880952Y-130535714D01*
X100785714Y-130583333D01*
X100738095Y-130678571D01*
X100738095Y-131202380D01*
X100738095Y-130678571D02*
X100690476Y-130583333D01*
X100595238Y-130535714D01*
X100452380Y-130535714D01*
X100357142Y-130583333D01*
X100309523Y-130678571D01*
X100309523Y-131202380D01*
X113212023Y-127591666D02*
X112735833Y-127591666D01*
X113307261Y-127877380D02*
X112973928Y-126877380D01*
X112640595Y-127877380D01*
X112450119Y-127210714D02*
X112069166Y-127210714D01*
X112307261Y-126877380D02*
X112307261Y-127734523D01*
X112259642Y-127829761D01*
X112164404Y-127877380D01*
X112069166Y-127877380D01*
X111878690Y-127210714D02*
X111497738Y-127210714D01*
X111735833Y-126877380D02*
X111735833Y-127734523D01*
X111688214Y-127829761D01*
X111592976Y-127877380D01*
X111497738Y-127877380D01*
X110783452Y-127829761D02*
X110878690Y-127877380D01*
X111069166Y-127877380D01*
X111164404Y-127829761D01*
X111212023Y-127734523D01*
X111212023Y-127353571D01*
X111164404Y-127258333D01*
X111069166Y-127210714D01*
X110878690Y-127210714D01*
X110783452Y-127258333D01*
X110735833Y-127353571D01*
X110735833Y-127448809D01*
X111212023Y-127544047D01*
X110307261Y-127210714D02*
X110307261Y-127877380D01*
X110307261Y-127305952D02*
X110259642Y-127258333D01*
X110164404Y-127210714D01*
X110021547Y-127210714D01*
X109926309Y-127258333D01*
X109878690Y-127353571D01*
X109878690Y-127877380D01*
X108973928Y-127210714D02*
X108973928Y-127877380D01*
X109402500Y-127210714D02*
X109402500Y-127734523D01*
X109354880Y-127829761D01*
X109259642Y-127877380D01*
X109116785Y-127877380D01*
X109021547Y-127829761D01*
X108973928Y-127782142D01*
X108592976Y-127210714D02*
X108354880Y-127877380D01*
X108116785Y-127210714D01*
X107354880Y-127829761D02*
X107450119Y-127877380D01*
X107640595Y-127877380D01*
X107735833Y-127829761D01*
X107783452Y-127734523D01*
X107783452Y-127353571D01*
X107735833Y-127258333D01*
X107640595Y-127210714D01*
X107450119Y-127210714D01*
X107354880Y-127258333D01*
X107307261Y-127353571D01*
X107307261Y-127448809D01*
X107783452Y-127544047D01*
X106878690Y-127877380D02*
X106878690Y-127210714D01*
X106878690Y-127401190D02*
X106831071Y-127305952D01*
X106783452Y-127258333D01*
X106688214Y-127210714D01*
X106592976Y-127210714D01*
X106402500Y-127210714D02*
X106021547Y-127210714D01*
X106259642Y-126877380D02*
X106259642Y-127734523D01*
X106212023Y-127829761D01*
X106116785Y-127877380D01*
X106021547Y-127877380D01*
X105307261Y-127829761D02*
X105402500Y-127877380D01*
X105592976Y-127877380D01*
X105688214Y-127829761D01*
X105735833Y-127734523D01*
X105735833Y-127353571D01*
X105688214Y-127258333D01*
X105592976Y-127210714D01*
X105402500Y-127210714D01*
X105307261Y-127258333D01*
X105259642Y-127353571D01*
X105259642Y-127448809D01*
X105735833Y-127544047D01*
X104831071Y-127877380D02*
X104831071Y-127210714D01*
X104831071Y-127401190D02*
X104783452Y-127305952D01*
X104735833Y-127258333D01*
X104640595Y-127210714D01*
X104545357Y-127210714D01*
X113259642Y-128860714D02*
X113021547Y-129527380D01*
X112783452Y-128860714D01*
X111878690Y-129527380D02*
X112450119Y-129527380D01*
X112164404Y-129527380D02*
X112164404Y-128527380D01*
X112259642Y-128670238D01*
X112354880Y-128765476D01*
X112450119Y-128813095D01*
X111450119Y-129432142D02*
X111402500Y-129479761D01*
X111450119Y-129527380D01*
X111497738Y-129479761D01*
X111450119Y-129432142D01*
X111450119Y-129527380D01*
X110783452Y-128527380D02*
X110688214Y-128527380D01*
X110592976Y-128575000D01*
X110545357Y-128622619D01*
X110497738Y-128717857D01*
X110450119Y-128908333D01*
X110450119Y-129146428D01*
X110497738Y-129336904D01*
X110545357Y-129432142D01*
X110592976Y-129479761D01*
X110688214Y-129527380D01*
X110783452Y-129527380D01*
X110878690Y-129479761D01*
X110926309Y-129432142D01*
X110973928Y-129336904D01*
X111021547Y-129146428D01*
X111021547Y-128908333D01*
X110973928Y-128717857D01*
X110926309Y-128622619D01*
X110878690Y-128575000D01*
X110783452Y-128527380D01*
D12*
X101650000Y-102000000D02*
X101650000Y-101000000D01*
X103350000Y-101000000D02*
X103350000Y-102000000D01*
X115900000Y-102250000D02*
X115900000Y-101250000D01*
X117600000Y-101250000D02*
X117600000Y-102250000D01*
X119600000Y-101250000D02*
X119600000Y-102250000D01*
X117900000Y-102250000D02*
X117900000Y-101250000D01*
X121750000Y-128850000D02*
X120750000Y-128850000D01*
X120750000Y-127150000D02*
X121750000Y-127150000D01*
X103750000Y-81650000D02*
X104750000Y-81650000D01*
X104750000Y-83350000D02*
X103750000Y-83350000D01*
X110750000Y-98850000D02*
X109750000Y-98850000D01*
X109750000Y-97150000D02*
X110750000Y-97150000D01*
X103350000Y-106250000D02*
X103350000Y-107250000D01*
X101650000Y-107250000D02*
X101650000Y-106250000D01*
X113250000Y-83350000D02*
X112250000Y-83350000D01*
X112250000Y-81650000D02*
X113250000Y-81650000D01*
X110000000Y-107150000D02*
X111000000Y-107150000D01*
X111000000Y-108850000D02*
X110000000Y-108850000D01*
X129900000Y-74350000D02*
X129900000Y-77650000D01*
X129900000Y-77650000D02*
X123000000Y-77650000D01*
X129900000Y-74350000D02*
X123000000Y-74350000D01*
X129900000Y-70350000D02*
X129900000Y-73650000D01*
X129900000Y-73650000D02*
X123000000Y-73650000D01*
X129900000Y-70350000D02*
X123000000Y-70350000D01*
X104590000Y-78930000D02*
X102590000Y-78930000D01*
X102590000Y-81070000D02*
X104590000Y-81070000D01*
X113090000Y-78930000D02*
X111090000Y-78930000D01*
X111090000Y-81070000D02*
X113090000Y-81070000D01*
X106250000Y-97120000D02*
X105050000Y-97120000D01*
X105050000Y-98880000D02*
X106250000Y-98880000D01*
X127250000Y-57620000D02*
X126050000Y-57620000D01*
X126050000Y-59380000D02*
X127250000Y-59380000D01*
X126050000Y-63880000D02*
X127250000Y-63880000D01*
X127250000Y-62120000D02*
X126050000Y-62120000D01*
X110450000Y-64620000D02*
X109250000Y-64620000D01*
X109250000Y-66380000D02*
X110450000Y-66380000D01*
X105250000Y-64620000D02*
X104050000Y-64620000D01*
X104050000Y-66380000D02*
X105250000Y-66380000D01*
X115630000Y-102250000D02*
X115630000Y-101050000D01*
X113870000Y-101050000D02*
X113870000Y-102250000D01*
X127250000Y-83620000D02*
X126050000Y-83620000D01*
X126050000Y-85380000D02*
X127250000Y-85380000D01*
X126050000Y-90380000D02*
X127250000Y-90380000D01*
X127250000Y-88620000D02*
X126050000Y-88620000D01*
X110450000Y-90620000D02*
X109250000Y-90620000D01*
X109250000Y-92380000D02*
X110450000Y-92380000D01*
X105250000Y-90620000D02*
X104050000Y-90620000D01*
X104050000Y-92380000D02*
X105250000Y-92380000D01*
X115800000Y-126880000D02*
X117000000Y-126880000D01*
X117000000Y-125120000D02*
X115800000Y-125120000D01*
X113870000Y-106050000D02*
X113870000Y-107250000D01*
X115630000Y-107250000D02*
X115630000Y-106050000D01*
X127250000Y-109620000D02*
X126050000Y-109620000D01*
X126050000Y-111380000D02*
X127250000Y-111380000D01*
X126050000Y-116380000D02*
X127250000Y-116380000D01*
X127250000Y-114620000D02*
X126050000Y-114620000D01*
X110450000Y-116620000D02*
X109250000Y-116620000D01*
X109250000Y-118380000D02*
X110450000Y-118380000D01*
X105250000Y-116620000D02*
X104050000Y-116620000D01*
X104050000Y-118380000D02*
X105250000Y-118380000D01*
X106450000Y-107120000D02*
X105250000Y-107120000D01*
X105250000Y-108880000D02*
X106450000Y-108880000D01*
X127250000Y-135620000D02*
X126050000Y-135620000D01*
X126050000Y-137380000D02*
X127250000Y-137380000D01*
X126050000Y-142380000D02*
X127250000Y-142380000D01*
X127250000Y-140620000D02*
X126050000Y-140620000D01*
X110450000Y-142620000D02*
X109250000Y-142620000D01*
X109250000Y-144380000D02*
X110450000Y-144380000D01*
X105250000Y-142620000D02*
X104050000Y-142620000D01*
X104050000Y-144380000D02*
X105250000Y-144380000D01*
D10*
X104490000Y-100975000D02*
X104515000Y-100975000D01*
X104490000Y-105125000D02*
X104605000Y-105125000D01*
X113390000Y-105125000D02*
X113275000Y-105125000D01*
X113390000Y-100975000D02*
X113275000Y-100975000D01*
X104490000Y-100975000D02*
X104490000Y-105125000D01*
X113390000Y-100975000D02*
X113390000Y-105125000D01*
X104515000Y-100975000D02*
X104515000Y-99600000D01*
D12*
X121510000Y-123470000D02*
X121510000Y-124400000D01*
X121510000Y-126630000D02*
X121510000Y-125700000D01*
X121510000Y-126630000D02*
X119350000Y-126630000D01*
X121510000Y-123470000D02*
X120050000Y-123470000D01*
X116830000Y-76830000D02*
X116830000Y-75500000D01*
X115500000Y-76830000D02*
X116830000Y-76830000D01*
X116830000Y-74230000D02*
X116830000Y-71630000D01*
X114230000Y-74230000D02*
X116830000Y-74230000D01*
X114230000Y-76830000D02*
X114230000Y-74230000D01*
X116830000Y-71630000D02*
X104010000Y-71630000D01*
X114230000Y-76830000D02*
X104010000Y-76830000D01*
X104010000Y-76830000D02*
X104010000Y-71630000D01*
D10*
X107880000Y-78294000D02*
X100260000Y-78294000D01*
X100260000Y-78294000D02*
X100260000Y-70166000D01*
X100260000Y-70166000D02*
X120580000Y-70166000D01*
X120580000Y-70166000D02*
X120580000Y-78294000D01*
X120580000Y-78294000D02*
X112960000Y-78294000D01*
X101357142Y-101333333D02*
X101404761Y-101285714D01*
X101452380Y-101142857D01*
X101452380Y-101047619D01*
X101404761Y-100904761D01*
X101309523Y-100809523D01*
X101214285Y-100761904D01*
X101023809Y-100714285D01*
X100880952Y-100714285D01*
X100690476Y-100761904D01*
X100595238Y-100809523D01*
X100500000Y-100904761D01*
X100452380Y-101047619D01*
X100452380Y-101142857D01*
X100500000Y-101285714D01*
X100547619Y-101333333D01*
X101452380Y-102285714D02*
X101452380Y-101714285D01*
X101452380Y-102000000D02*
X100452380Y-102000000D01*
X100595238Y-101904761D01*
X100690476Y-101809523D01*
X100738095Y-101714285D01*
X117107142Y-98333333D02*
X117154761Y-98285714D01*
X117202380Y-98142857D01*
X117202380Y-98047619D01*
X117154761Y-97904761D01*
X117059523Y-97809523D01*
X116964285Y-97761904D01*
X116773809Y-97714285D01*
X116630952Y-97714285D01*
X116440476Y-97761904D01*
X116345238Y-97809523D01*
X116250000Y-97904761D01*
X116202380Y-98047619D01*
X116202380Y-98142857D01*
X116250000Y-98285714D01*
X116297619Y-98333333D01*
X116297619Y-98714285D02*
X116250000Y-98761904D01*
X116202380Y-98857142D01*
X116202380Y-99095238D01*
X116250000Y-99190476D01*
X116297619Y-99238095D01*
X116392857Y-99285714D01*
X116488095Y-99285714D01*
X116630952Y-99238095D01*
X117202380Y-98666666D01*
X117202380Y-99285714D01*
X119107142Y-98333333D02*
X119154761Y-98285714D01*
X119202380Y-98142857D01*
X119202380Y-98047619D01*
X119154761Y-97904761D01*
X119059523Y-97809523D01*
X118964285Y-97761904D01*
X118773809Y-97714285D01*
X118630952Y-97714285D01*
X118440476Y-97761904D01*
X118345238Y-97809523D01*
X118250000Y-97904761D01*
X118202380Y-98047619D01*
X118202380Y-98142857D01*
X118250000Y-98285714D01*
X118297619Y-98333333D01*
X118202380Y-98666666D02*
X118202380Y-99285714D01*
X118583333Y-98952380D01*
X118583333Y-99095238D01*
X118630952Y-99190476D01*
X118678571Y-99238095D01*
X118773809Y-99285714D01*
X119011904Y-99285714D01*
X119107142Y-99238095D01*
X119154761Y-99190476D01*
X119202380Y-99095238D01*
X119202380Y-98809523D01*
X119154761Y-98714285D01*
X119107142Y-98666666D01*
X121416666Y-130107142D02*
X121464285Y-130154761D01*
X121607142Y-130202380D01*
X121702380Y-130202380D01*
X121845238Y-130154761D01*
X121940476Y-130059523D01*
X121988095Y-129964285D01*
X122035714Y-129773809D01*
X122035714Y-129630952D01*
X121988095Y-129440476D01*
X121940476Y-129345238D01*
X121845238Y-129250000D01*
X121702380Y-129202380D01*
X121607142Y-129202380D01*
X121464285Y-129250000D01*
X121416666Y-129297619D01*
X120559523Y-129535714D02*
X120559523Y-130202380D01*
X120797619Y-129154761D02*
X121035714Y-129869047D01*
X120416666Y-129869047D01*
X107666666Y-82857142D02*
X107714285Y-82904761D01*
X107857142Y-82952380D01*
X107952380Y-82952380D01*
X108095238Y-82904761D01*
X108190476Y-82809523D01*
X108238095Y-82714285D01*
X108285714Y-82523809D01*
X108285714Y-82380952D01*
X108238095Y-82190476D01*
X108190476Y-82095238D01*
X108095238Y-82000000D01*
X107952380Y-81952380D01*
X107857142Y-81952380D01*
X107714285Y-82000000D01*
X107666666Y-82047619D01*
X106761904Y-81952380D02*
X107238095Y-81952380D01*
X107285714Y-82428571D01*
X107238095Y-82380952D01*
X107142857Y-82333333D01*
X106904761Y-82333333D01*
X106809523Y-82380952D01*
X106761904Y-82428571D01*
X106714285Y-82523809D01*
X106714285Y-82761904D01*
X106761904Y-82857142D01*
X106809523Y-82904761D01*
X106904761Y-82952380D01*
X107142857Y-82952380D01*
X107238095Y-82904761D01*
X107285714Y-82857142D01*
X110416666Y-96607142D02*
X110464285Y-96654761D01*
X110607142Y-96702380D01*
X110702380Y-96702380D01*
X110845238Y-96654761D01*
X110940476Y-96559523D01*
X110988095Y-96464285D01*
X111035714Y-96273809D01*
X111035714Y-96130952D01*
X110988095Y-95940476D01*
X110940476Y-95845238D01*
X110845238Y-95750000D01*
X110702380Y-95702380D01*
X110607142Y-95702380D01*
X110464285Y-95750000D01*
X110416666Y-95797619D01*
X109559523Y-95702380D02*
X109750000Y-95702380D01*
X109845238Y-95750000D01*
X109892857Y-95797619D01*
X109988095Y-95940476D01*
X110035714Y-96130952D01*
X110035714Y-96511904D01*
X109988095Y-96607142D01*
X109940476Y-96654761D01*
X109845238Y-96702380D01*
X109654761Y-96702380D01*
X109559523Y-96654761D01*
X109511904Y-96607142D01*
X109464285Y-96511904D01*
X109464285Y-96273809D01*
X109511904Y-96178571D01*
X109559523Y-96130952D01*
X109654761Y-96083333D01*
X109845238Y-96083333D01*
X109940476Y-96130952D01*
X109988095Y-96178571D01*
X110035714Y-96273809D01*
X101357142Y-106583333D02*
X101404761Y-106535714D01*
X101452380Y-106392857D01*
X101452380Y-106297619D01*
X101404761Y-106154761D01*
X101309523Y-106059523D01*
X101214285Y-106011904D01*
X101023809Y-105964285D01*
X100880952Y-105964285D01*
X100690476Y-106011904D01*
X100595238Y-106059523D01*
X100500000Y-106154761D01*
X100452380Y-106297619D01*
X100452380Y-106392857D01*
X100500000Y-106535714D01*
X100547619Y-106583333D01*
X100452380Y-106916666D02*
X100452380Y-107583333D01*
X101452380Y-107154761D01*
X116416666Y-83357142D02*
X116464285Y-83404761D01*
X116607142Y-83452380D01*
X116702380Y-83452380D01*
X116845238Y-83404761D01*
X116940476Y-83309523D01*
X116988095Y-83214285D01*
X117035714Y-83023809D01*
X117035714Y-82880952D01*
X116988095Y-82690476D01*
X116940476Y-82595238D01*
X116845238Y-82500000D01*
X116702380Y-82452380D01*
X116607142Y-82452380D01*
X116464285Y-82500000D01*
X116416666Y-82547619D01*
X115845238Y-82880952D02*
X115940476Y-82833333D01*
X115988095Y-82785714D01*
X116035714Y-82690476D01*
X116035714Y-82642857D01*
X115988095Y-82547619D01*
X115940476Y-82500000D01*
X115845238Y-82452380D01*
X115654761Y-82452380D01*
X115559523Y-82500000D01*
X115511904Y-82547619D01*
X115464285Y-82642857D01*
X115464285Y-82690476D01*
X115511904Y-82785714D01*
X115559523Y-82833333D01*
X115654761Y-82880952D01*
X115845238Y-82880952D01*
X115940476Y-82928571D01*
X115988095Y-82976190D01*
X116035714Y-83071428D01*
X116035714Y-83261904D01*
X115988095Y-83357142D01*
X115940476Y-83404761D01*
X115845238Y-83452380D01*
X115654761Y-83452380D01*
X115559523Y-83404761D01*
X115511904Y-83357142D01*
X115464285Y-83261904D01*
X115464285Y-83071428D01*
X115511904Y-82976190D01*
X115559523Y-82928571D01*
X115654761Y-82880952D01*
X110666666Y-110107142D02*
X110714285Y-110154761D01*
X110857142Y-110202380D01*
X110952380Y-110202380D01*
X111095238Y-110154761D01*
X111190476Y-110059523D01*
X111238095Y-109964285D01*
X111285714Y-109773809D01*
X111285714Y-109630952D01*
X111238095Y-109440476D01*
X111190476Y-109345238D01*
X111095238Y-109250000D01*
X110952380Y-109202380D01*
X110857142Y-109202380D01*
X110714285Y-109250000D01*
X110666666Y-109297619D01*
X110190476Y-110202380D02*
X110000000Y-110202380D01*
X109904761Y-110154761D01*
X109857142Y-110107142D01*
X109761904Y-109964285D01*
X109714285Y-109773809D01*
X109714285Y-109392857D01*
X109761904Y-109297619D01*
X109809523Y-109250000D01*
X109904761Y-109202380D01*
X110095238Y-109202380D01*
X110190476Y-109250000D01*
X110238095Y-109297619D01*
X110285714Y-109392857D01*
X110285714Y-109630952D01*
X110238095Y-109726190D01*
X110190476Y-109773809D01*
X110095238Y-109821428D01*
X109904761Y-109821428D01*
X109809523Y-109773809D01*
X109761904Y-109726190D01*
X109714285Y-109630952D01*
X126238095Y-78952380D02*
X126238095Y-77952380D01*
X126000000Y-77952380D01*
X125857142Y-78000000D01*
X125761904Y-78095238D01*
X125714285Y-78190476D01*
X125666666Y-78380952D01*
X125666666Y-78523809D01*
X125714285Y-78714285D01*
X125761904Y-78809523D01*
X125857142Y-78904761D01*
X126000000Y-78952380D01*
X126238095Y-78952380D01*
X124714285Y-78952380D02*
X125285714Y-78952380D01*
X125000000Y-78952380D02*
X125000000Y-77952380D01*
X125095238Y-78095238D01*
X125190476Y-78190476D01*
X125285714Y-78238095D01*
X126238095Y-69952380D02*
X126238095Y-68952380D01*
X126000000Y-68952380D01*
X125857142Y-69000000D01*
X125761904Y-69095238D01*
X125714285Y-69190476D01*
X125666666Y-69380952D01*
X125666666Y-69523809D01*
X125714285Y-69714285D01*
X125761904Y-69809523D01*
X125857142Y-69904761D01*
X126000000Y-69952380D01*
X126238095Y-69952380D01*
X125285714Y-69047619D02*
X125238095Y-69000000D01*
X125142857Y-68952380D01*
X124904761Y-68952380D01*
X124809523Y-69000000D01*
X124761904Y-69047619D01*
X124714285Y-69142857D01*
X124714285Y-69238095D01*
X124761904Y-69380952D01*
X125333333Y-69952380D01*
X124714285Y-69952380D01*
X101333333Y-82128571D02*
X101666666Y-82128571D01*
X101666666Y-82652380D02*
X101666666Y-81652380D01*
X101190476Y-81652380D01*
X100285714Y-82652380D02*
X100857142Y-82652380D01*
X100571428Y-82652380D02*
X100571428Y-81652380D01*
X100666666Y-81795238D01*
X100761904Y-81890476D01*
X100857142Y-81938095D01*
X116833333Y-78928571D02*
X117166666Y-78928571D01*
X117166666Y-79452380D02*
X117166666Y-78452380D01*
X116690476Y-78452380D01*
X116357142Y-78547619D02*
X116309523Y-78500000D01*
X116214285Y-78452380D01*
X115976190Y-78452380D01*
X115880952Y-78500000D01*
X115833333Y-78547619D01*
X115785714Y-78642857D01*
X115785714Y-78738095D01*
X115833333Y-78880952D01*
X116404761Y-79452380D01*
X115785714Y-79452380D01*
X105916666Y-96702380D02*
X106250000Y-96226190D01*
X106488095Y-96702380D02*
X106488095Y-95702380D01*
X106107142Y-95702380D01*
X106011904Y-95750000D01*
X105964285Y-95797619D01*
X105916666Y-95892857D01*
X105916666Y-96035714D01*
X105964285Y-96130952D01*
X106011904Y-96178571D01*
X106107142Y-96226190D01*
X106488095Y-96226190D01*
X104964285Y-96702380D02*
X105535714Y-96702380D01*
X105250000Y-96702380D02*
X105250000Y-95702380D01*
X105345238Y-95845238D01*
X105440476Y-95940476D01*
X105535714Y-95988095D01*
X123316666Y-58952380D02*
X123650000Y-58476190D01*
X123888095Y-58952380D02*
X123888095Y-57952380D01*
X123507142Y-57952380D01*
X123411904Y-58000000D01*
X123364285Y-58047619D01*
X123316666Y-58142857D01*
X123316666Y-58285714D01*
X123364285Y-58380952D01*
X123411904Y-58428571D01*
X123507142Y-58476190D01*
X123888095Y-58476190D01*
X122935714Y-58047619D02*
X122888095Y-58000000D01*
X122792857Y-57952380D01*
X122554761Y-57952380D01*
X122459523Y-58000000D01*
X122411904Y-58047619D01*
X122364285Y-58142857D01*
X122364285Y-58238095D01*
X122411904Y-58380952D01*
X122983333Y-58952380D01*
X122364285Y-58952380D01*
X123166666Y-63452380D02*
X123500000Y-62976190D01*
X123738095Y-63452380D02*
X123738095Y-62452380D01*
X123357142Y-62452380D01*
X123261904Y-62500000D01*
X123214285Y-62547619D01*
X123166666Y-62642857D01*
X123166666Y-62785714D01*
X123214285Y-62880952D01*
X123261904Y-62928571D01*
X123357142Y-62976190D01*
X123738095Y-62976190D01*
X122833333Y-62452380D02*
X122214285Y-62452380D01*
X122547619Y-62833333D01*
X122404761Y-62833333D01*
X122309523Y-62880952D01*
X122261904Y-62928571D01*
X122214285Y-63023809D01*
X122214285Y-63261904D01*
X122261904Y-63357142D01*
X122309523Y-63404761D01*
X122404761Y-63452380D01*
X122690476Y-63452380D01*
X122785714Y-63404761D01*
X122833333Y-63357142D01*
X110016666Y-64202380D02*
X110350000Y-63726190D01*
X110588095Y-64202380D02*
X110588095Y-63202380D01*
X110207142Y-63202380D01*
X110111904Y-63250000D01*
X110064285Y-63297619D01*
X110016666Y-63392857D01*
X110016666Y-63535714D01*
X110064285Y-63630952D01*
X110111904Y-63678571D01*
X110207142Y-63726190D01*
X110588095Y-63726190D01*
X109159523Y-63535714D02*
X109159523Y-64202380D01*
X109397619Y-63154761D02*
X109635714Y-63869047D01*
X109016666Y-63869047D01*
X104966666Y-64202380D02*
X105300000Y-63726190D01*
X105538095Y-64202380D02*
X105538095Y-63202380D01*
X105157142Y-63202380D01*
X105061904Y-63250000D01*
X105014285Y-63297619D01*
X104966666Y-63392857D01*
X104966666Y-63535714D01*
X105014285Y-63630952D01*
X105061904Y-63678571D01*
X105157142Y-63726190D01*
X105538095Y-63726190D01*
X104061904Y-63202380D02*
X104538095Y-63202380D01*
X104585714Y-63678571D01*
X104538095Y-63630952D01*
X104442857Y-63583333D01*
X104204761Y-63583333D01*
X104109523Y-63630952D01*
X104061904Y-63678571D01*
X104014285Y-63773809D01*
X104014285Y-64011904D01*
X104061904Y-64107142D01*
X104109523Y-64154761D01*
X104204761Y-64202380D01*
X104442857Y-64202380D01*
X104538095Y-64154761D01*
X104585714Y-64107142D01*
X115202380Y-98233333D02*
X114726190Y-97900000D01*
X115202380Y-97661904D02*
X114202380Y-97661904D01*
X114202380Y-98042857D01*
X114250000Y-98138095D01*
X114297619Y-98185714D01*
X114392857Y-98233333D01*
X114535714Y-98233333D01*
X114630952Y-98185714D01*
X114678571Y-98138095D01*
X114726190Y-98042857D01*
X114726190Y-97661904D01*
X114202380Y-99090476D02*
X114202380Y-98900000D01*
X114250000Y-98804761D01*
X114297619Y-98757142D01*
X114440476Y-98661904D01*
X114630952Y-98614285D01*
X115011904Y-98614285D01*
X115107142Y-98661904D01*
X115154761Y-98709523D01*
X115202380Y-98804761D01*
X115202380Y-98995238D01*
X115154761Y-99090476D01*
X115107142Y-99138095D01*
X115011904Y-99185714D01*
X114773809Y-99185714D01*
X114678571Y-99138095D01*
X114630952Y-99090476D01*
X114583333Y-98995238D01*
X114583333Y-98804761D01*
X114630952Y-98709523D01*
X114678571Y-98661904D01*
X114773809Y-98614285D01*
X123166666Y-84952380D02*
X123500000Y-84476190D01*
X123738095Y-84952380D02*
X123738095Y-83952380D01*
X123357142Y-83952380D01*
X123261904Y-84000000D01*
X123214285Y-84047619D01*
X123166666Y-84142857D01*
X123166666Y-84285714D01*
X123214285Y-84380952D01*
X123261904Y-84428571D01*
X123357142Y-84476190D01*
X123738095Y-84476190D01*
X122833333Y-83952380D02*
X122166666Y-83952380D01*
X122595238Y-84952380D01*
X123166666Y-89952380D02*
X123500000Y-89476190D01*
X123738095Y-89952380D02*
X123738095Y-88952380D01*
X123357142Y-88952380D01*
X123261904Y-89000000D01*
X123214285Y-89047619D01*
X123166666Y-89142857D01*
X123166666Y-89285714D01*
X123214285Y-89380952D01*
X123261904Y-89428571D01*
X123357142Y-89476190D01*
X123738095Y-89476190D01*
X122595238Y-89380952D02*
X122690476Y-89333333D01*
X122738095Y-89285714D01*
X122785714Y-89190476D01*
X122785714Y-89142857D01*
X122738095Y-89047619D01*
X122690476Y-89000000D01*
X122595238Y-88952380D01*
X122404761Y-88952380D01*
X122309523Y-89000000D01*
X122261904Y-89047619D01*
X122214285Y-89142857D01*
X122214285Y-89190476D01*
X122261904Y-89285714D01*
X122309523Y-89333333D01*
X122404761Y-89380952D01*
X122595238Y-89380952D01*
X122690476Y-89428571D01*
X122738095Y-89476190D01*
X122785714Y-89571428D01*
X122785714Y-89761904D01*
X122738095Y-89857142D01*
X122690476Y-89904761D01*
X122595238Y-89952380D01*
X122404761Y-89952380D01*
X122309523Y-89904761D01*
X122261904Y-89857142D01*
X122214285Y-89761904D01*
X122214285Y-89571428D01*
X122261904Y-89476190D01*
X122309523Y-89428571D01*
X122404761Y-89380952D01*
X110016666Y-90202380D02*
X110350000Y-89726190D01*
X110588095Y-90202380D02*
X110588095Y-89202380D01*
X110207142Y-89202380D01*
X110111904Y-89250000D01*
X110064285Y-89297619D01*
X110016666Y-89392857D01*
X110016666Y-89535714D01*
X110064285Y-89630952D01*
X110111904Y-89678571D01*
X110207142Y-89726190D01*
X110588095Y-89726190D01*
X109540476Y-90202380D02*
X109350000Y-90202380D01*
X109254761Y-90154761D01*
X109207142Y-90107142D01*
X109111904Y-89964285D01*
X109064285Y-89773809D01*
X109064285Y-89392857D01*
X109111904Y-89297619D01*
X109159523Y-89250000D01*
X109254761Y-89202380D01*
X109445238Y-89202380D01*
X109540476Y-89250000D01*
X109588095Y-89297619D01*
X109635714Y-89392857D01*
X109635714Y-89630952D01*
X109588095Y-89726190D01*
X109540476Y-89773809D01*
X109445238Y-89821428D01*
X109254761Y-89821428D01*
X109159523Y-89773809D01*
X109111904Y-89726190D01*
X109064285Y-89630952D01*
X105142857Y-90202380D02*
X105476190Y-89726190D01*
X105714285Y-90202380D02*
X105714285Y-89202380D01*
X105333333Y-89202380D01*
X105238095Y-89250000D01*
X105190476Y-89297619D01*
X105142857Y-89392857D01*
X105142857Y-89535714D01*
X105190476Y-89630952D01*
X105238095Y-89678571D01*
X105333333Y-89726190D01*
X105714285Y-89726190D01*
X104190476Y-90202380D02*
X104761904Y-90202380D01*
X104476190Y-90202380D02*
X104476190Y-89202380D01*
X104571428Y-89345238D01*
X104666666Y-89440476D01*
X104761904Y-89488095D01*
X103571428Y-89202380D02*
X103476190Y-89202380D01*
X103380952Y-89250000D01*
X103333333Y-89297619D01*
X103285714Y-89392857D01*
X103238095Y-89583333D01*
X103238095Y-89821428D01*
X103285714Y-90011904D01*
X103333333Y-90107142D01*
X103380952Y-90154761D01*
X103476190Y-90202380D01*
X103571428Y-90202380D01*
X103666666Y-90154761D01*
X103714285Y-90107142D01*
X103761904Y-90011904D01*
X103809523Y-89821428D01*
X103809523Y-89583333D01*
X103761904Y-89392857D01*
X103714285Y-89297619D01*
X103666666Y-89250000D01*
X103571428Y-89202380D01*
X117042857Y-124752380D02*
X117376190Y-124276190D01*
X117614285Y-124752380D02*
X117614285Y-123752380D01*
X117233333Y-123752380D01*
X117138095Y-123800000D01*
X117090476Y-123847619D01*
X117042857Y-123942857D01*
X117042857Y-124085714D01*
X117090476Y-124180952D01*
X117138095Y-124228571D01*
X117233333Y-124276190D01*
X117614285Y-124276190D01*
X116090476Y-124752380D02*
X116661904Y-124752380D01*
X116376190Y-124752380D02*
X116376190Y-123752380D01*
X116471428Y-123895238D01*
X116566666Y-123990476D01*
X116661904Y-124038095D01*
X115138095Y-124752380D02*
X115709523Y-124752380D01*
X115423809Y-124752380D02*
X115423809Y-123752380D01*
X115519047Y-123895238D01*
X115614285Y-123990476D01*
X115709523Y-124038095D01*
X115202380Y-109857142D02*
X114726190Y-109523809D01*
X115202380Y-109285714D02*
X114202380Y-109285714D01*
X114202380Y-109666666D01*
X114250000Y-109761904D01*
X114297619Y-109809523D01*
X114392857Y-109857142D01*
X114535714Y-109857142D01*
X114630952Y-109809523D01*
X114678571Y-109761904D01*
X114726190Y-109666666D01*
X114726190Y-109285714D01*
X115202380Y-110809523D02*
X115202380Y-110238095D01*
X115202380Y-110523809D02*
X114202380Y-110523809D01*
X114345238Y-110428571D01*
X114440476Y-110333333D01*
X114488095Y-110238095D01*
X114297619Y-111190476D02*
X114250000Y-111238095D01*
X114202380Y-111333333D01*
X114202380Y-111571428D01*
X114250000Y-111666666D01*
X114297619Y-111714285D01*
X114392857Y-111761904D01*
X114488095Y-111761904D01*
X114630952Y-111714285D01*
X115202380Y-111142857D01*
X115202380Y-111761904D01*
X123392857Y-110952380D02*
X123726190Y-110476190D01*
X123964285Y-110952380D02*
X123964285Y-109952380D01*
X123583333Y-109952380D01*
X123488095Y-110000000D01*
X123440476Y-110047619D01*
X123392857Y-110142857D01*
X123392857Y-110285714D01*
X123440476Y-110380952D01*
X123488095Y-110428571D01*
X123583333Y-110476190D01*
X123964285Y-110476190D01*
X122440476Y-110952380D02*
X123011904Y-110952380D01*
X122726190Y-110952380D02*
X122726190Y-109952380D01*
X122821428Y-110095238D01*
X122916666Y-110190476D01*
X123011904Y-110238095D01*
X122107142Y-109952380D02*
X121488095Y-109952380D01*
X121821428Y-110333333D01*
X121678571Y-110333333D01*
X121583333Y-110380952D01*
X121535714Y-110428571D01*
X121488095Y-110523809D01*
X121488095Y-110761904D01*
X121535714Y-110857142D01*
X121583333Y-110904761D01*
X121678571Y-110952380D01*
X121964285Y-110952380D01*
X122059523Y-110904761D01*
X122107142Y-110857142D01*
X123392857Y-115952380D02*
X123726190Y-115476190D01*
X123964285Y-115952380D02*
X123964285Y-114952380D01*
X123583333Y-114952380D01*
X123488095Y-115000000D01*
X123440476Y-115047619D01*
X123392857Y-115142857D01*
X123392857Y-115285714D01*
X123440476Y-115380952D01*
X123488095Y-115428571D01*
X123583333Y-115476190D01*
X123964285Y-115476190D01*
X122440476Y-115952380D02*
X123011904Y-115952380D01*
X122726190Y-115952380D02*
X122726190Y-114952380D01*
X122821428Y-115095238D01*
X122916666Y-115190476D01*
X123011904Y-115238095D01*
X121583333Y-115285714D02*
X121583333Y-115952380D01*
X121821428Y-114904761D02*
X122059523Y-115619047D01*
X121440476Y-115619047D01*
X110492857Y-116202380D02*
X110826190Y-115726190D01*
X111064285Y-116202380D02*
X111064285Y-115202380D01*
X110683333Y-115202380D01*
X110588095Y-115250000D01*
X110540476Y-115297619D01*
X110492857Y-115392857D01*
X110492857Y-115535714D01*
X110540476Y-115630952D01*
X110588095Y-115678571D01*
X110683333Y-115726190D01*
X111064285Y-115726190D01*
X109540476Y-116202380D02*
X110111904Y-116202380D01*
X109826190Y-116202380D02*
X109826190Y-115202380D01*
X109921428Y-115345238D01*
X110016666Y-115440476D01*
X110111904Y-115488095D01*
X108635714Y-115202380D02*
X109111904Y-115202380D01*
X109159523Y-115678571D01*
X109111904Y-115630952D01*
X109016666Y-115583333D01*
X108778571Y-115583333D01*
X108683333Y-115630952D01*
X108635714Y-115678571D01*
X108588095Y-115773809D01*
X108588095Y-116011904D01*
X108635714Y-116107142D01*
X108683333Y-116154761D01*
X108778571Y-116202380D01*
X109016666Y-116202380D01*
X109111904Y-116154761D01*
X109159523Y-116107142D01*
X105292857Y-116202380D02*
X105626190Y-115726190D01*
X105864285Y-116202380D02*
X105864285Y-115202380D01*
X105483333Y-115202380D01*
X105388095Y-115250000D01*
X105340476Y-115297619D01*
X105292857Y-115392857D01*
X105292857Y-115535714D01*
X105340476Y-115630952D01*
X105388095Y-115678571D01*
X105483333Y-115726190D01*
X105864285Y-115726190D01*
X104340476Y-116202380D02*
X104911904Y-116202380D01*
X104626190Y-116202380D02*
X104626190Y-115202380D01*
X104721428Y-115345238D01*
X104816666Y-115440476D01*
X104911904Y-115488095D01*
X103483333Y-115202380D02*
X103673809Y-115202380D01*
X103769047Y-115250000D01*
X103816666Y-115297619D01*
X103911904Y-115440476D01*
X103959523Y-115630952D01*
X103959523Y-116011904D01*
X103911904Y-116107142D01*
X103864285Y-116154761D01*
X103769047Y-116202380D01*
X103578571Y-116202380D01*
X103483333Y-116154761D01*
X103435714Y-116107142D01*
X103388095Y-116011904D01*
X103388095Y-115773809D01*
X103435714Y-115678571D01*
X103483333Y-115630952D01*
X103578571Y-115583333D01*
X103769047Y-115583333D01*
X103864285Y-115630952D01*
X103911904Y-115678571D01*
X103959523Y-115773809D01*
X106492857Y-110152380D02*
X106826190Y-109676190D01*
X107064285Y-110152380D02*
X107064285Y-109152380D01*
X106683333Y-109152380D01*
X106588095Y-109200000D01*
X106540476Y-109247619D01*
X106492857Y-109342857D01*
X106492857Y-109485714D01*
X106540476Y-109580952D01*
X106588095Y-109628571D01*
X106683333Y-109676190D01*
X107064285Y-109676190D01*
X105540476Y-110152380D02*
X106111904Y-110152380D01*
X105826190Y-110152380D02*
X105826190Y-109152380D01*
X105921428Y-109295238D01*
X106016666Y-109390476D01*
X106111904Y-109438095D01*
X105207142Y-109152380D02*
X104540476Y-109152380D01*
X104969047Y-110152380D01*
X123142857Y-136952380D02*
X123476190Y-136476190D01*
X123714285Y-136952380D02*
X123714285Y-135952380D01*
X123333333Y-135952380D01*
X123238095Y-136000000D01*
X123190476Y-136047619D01*
X123142857Y-136142857D01*
X123142857Y-136285714D01*
X123190476Y-136380952D01*
X123238095Y-136428571D01*
X123333333Y-136476190D01*
X123714285Y-136476190D01*
X122190476Y-136952380D02*
X122761904Y-136952380D01*
X122476190Y-136952380D02*
X122476190Y-135952380D01*
X122571428Y-136095238D01*
X122666666Y-136190476D01*
X122761904Y-136238095D01*
X121619047Y-136380952D02*
X121714285Y-136333333D01*
X121761904Y-136285714D01*
X121809523Y-136190476D01*
X121809523Y-136142857D01*
X121761904Y-136047619D01*
X121714285Y-136000000D01*
X121619047Y-135952380D01*
X121428571Y-135952380D01*
X121333333Y-136000000D01*
X121285714Y-136047619D01*
X121238095Y-136142857D01*
X121238095Y-136190476D01*
X121285714Y-136285714D01*
X121333333Y-136333333D01*
X121428571Y-136380952D01*
X121619047Y-136380952D01*
X121714285Y-136428571D01*
X121761904Y-136476190D01*
X121809523Y-136571428D01*
X121809523Y-136761904D01*
X121761904Y-136857142D01*
X121714285Y-136904761D01*
X121619047Y-136952380D01*
X121428571Y-136952380D01*
X121333333Y-136904761D01*
X121285714Y-136857142D01*
X121238095Y-136761904D01*
X121238095Y-136571428D01*
X121285714Y-136476190D01*
X121333333Y-136428571D01*
X121428571Y-136380952D01*
X123142857Y-141952380D02*
X123476190Y-141476190D01*
X123714285Y-141952380D02*
X123714285Y-140952380D01*
X123333333Y-140952380D01*
X123238095Y-141000000D01*
X123190476Y-141047619D01*
X123142857Y-141142857D01*
X123142857Y-141285714D01*
X123190476Y-141380952D01*
X123238095Y-141428571D01*
X123333333Y-141476190D01*
X123714285Y-141476190D01*
X122190476Y-141952380D02*
X122761904Y-141952380D01*
X122476190Y-141952380D02*
X122476190Y-140952380D01*
X122571428Y-141095238D01*
X122666666Y-141190476D01*
X122761904Y-141238095D01*
X121714285Y-141952380D02*
X121523809Y-141952380D01*
X121428571Y-141904761D01*
X121380952Y-141857142D01*
X121285714Y-141714285D01*
X121238095Y-141523809D01*
X121238095Y-141142857D01*
X121285714Y-141047619D01*
X121333333Y-141000000D01*
X121428571Y-140952380D01*
X121619047Y-140952380D01*
X121714285Y-141000000D01*
X121761904Y-141047619D01*
X121809523Y-141142857D01*
X121809523Y-141380952D01*
X121761904Y-141476190D01*
X121714285Y-141523809D01*
X121619047Y-141571428D01*
X121428571Y-141571428D01*
X121333333Y-141523809D01*
X121285714Y-141476190D01*
X121238095Y-141380952D01*
X110492857Y-142202380D02*
X110826190Y-141726190D01*
X111064285Y-142202380D02*
X111064285Y-141202380D01*
X110683333Y-141202380D01*
X110588095Y-141250000D01*
X110540476Y-141297619D01*
X110492857Y-141392857D01*
X110492857Y-141535714D01*
X110540476Y-141630952D01*
X110588095Y-141678571D01*
X110683333Y-141726190D01*
X111064285Y-141726190D01*
X110111904Y-141297619D02*
X110064285Y-141250000D01*
X109969047Y-141202380D01*
X109730952Y-141202380D01*
X109635714Y-141250000D01*
X109588095Y-141297619D01*
X109540476Y-141392857D01*
X109540476Y-141488095D01*
X109588095Y-141630952D01*
X110159523Y-142202380D01*
X109540476Y-142202380D01*
X108921428Y-141202380D02*
X108826190Y-141202380D01*
X108730952Y-141250000D01*
X108683333Y-141297619D01*
X108635714Y-141392857D01*
X108588095Y-141583333D01*
X108588095Y-141821428D01*
X108635714Y-142011904D01*
X108683333Y-142107142D01*
X108730952Y-142154761D01*
X108826190Y-142202380D01*
X108921428Y-142202380D01*
X109016666Y-142154761D01*
X109064285Y-142107142D01*
X109111904Y-142011904D01*
X109159523Y-141821428D01*
X109159523Y-141583333D01*
X109111904Y-141392857D01*
X109064285Y-141297619D01*
X109016666Y-141250000D01*
X108921428Y-141202380D01*
X105292857Y-142202380D02*
X105626190Y-141726190D01*
X105864285Y-142202380D02*
X105864285Y-141202380D01*
X105483333Y-141202380D01*
X105388095Y-141250000D01*
X105340476Y-141297619D01*
X105292857Y-141392857D01*
X105292857Y-141535714D01*
X105340476Y-141630952D01*
X105388095Y-141678571D01*
X105483333Y-141726190D01*
X105864285Y-141726190D01*
X104911904Y-141297619D02*
X104864285Y-141250000D01*
X104769047Y-141202380D01*
X104530952Y-141202380D01*
X104435714Y-141250000D01*
X104388095Y-141297619D01*
X104340476Y-141392857D01*
X104340476Y-141488095D01*
X104388095Y-141630952D01*
X104959523Y-142202380D01*
X104340476Y-142202380D01*
X103388095Y-142202380D02*
X103959523Y-142202380D01*
X103673809Y-142202380D02*
X103673809Y-141202380D01*
X103769047Y-141345238D01*
X103864285Y-141440476D01*
X103959523Y-141488095D01*
X108702380Y-102238095D02*
X109511904Y-102238095D01*
X109607142Y-102285714D01*
X109654761Y-102333333D01*
X109702380Y-102428571D01*
X109702380Y-102619047D01*
X109654761Y-102714285D01*
X109607142Y-102761904D01*
X109511904Y-102809523D01*
X108702380Y-102809523D01*
X109702380Y-103809523D02*
X109702380Y-103238095D01*
X109702380Y-103523809D02*
X108702380Y-103523809D01*
X108845238Y-103428571D01*
X108940476Y-103333333D01*
X108988095Y-103238095D01*
X121511904Y-122202380D02*
X121511904Y-123011904D01*
X121464285Y-123107142D01*
X121416666Y-123154761D01*
X121321428Y-123202380D01*
X121130952Y-123202380D01*
X121035714Y-123154761D01*
X120988095Y-123107142D01*
X120940476Y-123011904D01*
X120940476Y-122202380D01*
X120511904Y-122297619D02*
X120464285Y-122250000D01*
X120369047Y-122202380D01*
X120130952Y-122202380D01*
X120035714Y-122250000D01*
X119988095Y-122297619D01*
X119940476Y-122392857D01*
X119940476Y-122488095D01*
X119988095Y-122630952D01*
X120559523Y-123202380D01*
X119940476Y-123202380D01*
X119833333Y-70452380D02*
X119833333Y-71166666D01*
X119880952Y-71309523D01*
X119976190Y-71404761D01*
X120119047Y-71452380D01*
X120214285Y-71452380D01*
X119452380Y-70452380D02*
X118785714Y-70452380D01*
X119214285Y-71452380D01*
M02*
