%TF.GenerationSoftware,KiCad,Pcbnew,10.0.6*%
%TF.CreationDate,2026-10-03T15:39:38-07:00*%
%TF.ProjectId,Attenuverter,41747465-6e75-4766-9572-7465722e6b69,1.0*%
%TF.SameCoordinates,Original*%
%TF.FileFunction,Copper,L1,Top*%
%TF.FilePolarity,Positive*%
%FSLAX46Y46*%
G04 Gerber Fmt 4.6, Leading zero omitted, Abs format (unit mm)*
G04 Created by KiCad (PCBNEW 10.0.6) date 2026-10-03 15:39:38*
%MOMM*%
%LPD*%
G01*
G04 APERTURE LIST*
%TA.AperFunction,ComponentPad*%
%ADD10R,1.830000X1.930000*%
%TD*%
%TA.AperFunction,ComponentPad*%
%ADD11O,1.500000X3.300000*%
%TD*%
%TA.AperFunction,ComponentPad*%
%ADD12C,4.000000*%
%TD*%
%TA.AperFunction,ComponentPad*%
%ADD13C,1.800000*%
%TD*%
%TA.AperFunction,ComponentPad*%
%ADD14R,1.700000X1.700000*%
%TD*%
%TA.AperFunction,ComponentPad*%
%ADD15O,1.700000X1.700000*%
%TD*%
%TA.AperFunction,ViaPad*%
%ADD16C,0.600000*%
%TD*%
%TA.AperFunction,ViaPad*%
%ADD17C,0.800000*%
%TD*%
%TA.AperFunction,Conductor*%
%ADD18C,0.750000*%
%TD*%
%TA.AperFunction,Conductor*%
%ADD19C,0.250000*%
%TD*%
%TA.AperFunction,Conductor*%
%ADD20C,0.200000*%
%TD*%
%TA.AperFunction,Conductor*%
%ADD21C,0.500000*%
%TD*%
G04 APERTURE END LIST*
D10*
%TO.P,J4,S,~_S*%
%TO.N,GND*%
X117321827Y-93000000D03*
D11*
%TO.P,J4,T,~_T*%
%TO.N,Net-(J4-~-PadT)*%
X128721827Y-93000000D03*
%TO.P,J4,TN,~_TN*%
%TO.N,unconnected-(J4-~-PadTN)*%
X120421827Y-93000000D03*
%TD*%
D10*
%TO.P,J1,S,~_S*%
%TO.N,GND*%
X117321827Y-55000000D03*
D11*
%TO.P,J1,T,~_T*%
%TO.N,Net-(J1-~-PadT)*%
X128721827Y-55000000D03*
%TO.P,J1,TN,~_TN*%
%TO.N,Net-(J1-~-PadTN)*%
X120421827Y-55000000D03*
%TD*%
D10*
%TO.P,J6,S,~_S*%
%TO.N,GND*%
X117321827Y-119000000D03*
D11*
%TO.P,J6,T,~_T*%
%TO.N,Net-(J6-~-PadT)*%
X128721827Y-119000000D03*
%TO.P,J6,TN,~_TN*%
%TO.N,unconnected-(J6-~-PadTN)*%
X120421827Y-119000000D03*
%TD*%
D10*
%TO.P,J3,S,~_S*%
%TO.N,GND*%
X117321827Y-81000000D03*
D11*
%TO.P,J3,T,~_T*%
%TO.N,Net-(J3-~-PadT)*%
X128721827Y-81000000D03*
%TO.P,J3,TN,~_TN*%
%TO.N,Net-(J3-~-PadTN)*%
X120421827Y-81000000D03*
%TD*%
D10*
%TO.P,J9,S,~_S*%
%TO.N,GND*%
X117321827Y-145000000D03*
D11*
%TO.P,J9,T,~_T*%
%TO.N,Net-(J9-~-PadT)*%
X128721827Y-145000000D03*
%TO.P,J9,TN,~_TN*%
%TO.N,unconnected-(J9-~-PadTN)*%
X120421827Y-145000000D03*
%TD*%
D10*
%TO.P,J8,S,~_S*%
%TO.N,GND*%
X117321827Y-133000000D03*
D11*
%TO.P,J8,T,~_T*%
%TO.N,Net-(J8-~-PadT)*%
X128721827Y-133000000D03*
%TO.P,J8,TN,~_TN*%
%TO.N,Net-(J8-~-PadTN)*%
X120421827Y-133000000D03*
%TD*%
D10*
%TO.P,J5,S,~_S*%
%TO.N,GND*%
X117321827Y-107000000D03*
D11*
%TO.P,J5,T,~_T*%
%TO.N,Net-(J5-~-PadT)*%
X128721827Y-107000000D03*
%TO.P,J5,TN,~_TN*%
%TO.N,Net-(J5-~-PadTN)*%
X120421827Y-107000000D03*
%TD*%
D12*
%TO.P,RV2,*%
%TO.N,GND*%
X102500000Y-87000000D03*
X112000000Y-87000000D03*
D13*
%TO.P,RV2,1,1_1*%
%TO.N,Net-(D6-A)*%
X109750000Y-94500000D03*
%TO.P,RV2,2,2_2*%
%TO.N,Net-(U1B-+)*%
X107250000Y-94500000D03*
%TO.P,RV2,3,3_3*%
%TO.N,GND*%
X104750000Y-94500000D03*
%TD*%
D12*
%TO.P,RV3,*%
%TO.N,GND*%
X102500000Y-113000000D03*
X112000000Y-113000000D03*
D13*
%TO.P,RV3,1,1_1*%
%TO.N,Net-(D8-A)*%
X109750000Y-120500000D03*
%TO.P,RV3,2,2_2*%
%TO.N,Net-(U1C-+)*%
X107250000Y-120500000D03*
%TO.P,RV3,3,3_3*%
%TO.N,GND*%
X104750000Y-120500000D03*
%TD*%
D12*
%TO.P,RV4,*%
%TO.N,GND*%
X102500000Y-139000000D03*
X112000000Y-139000000D03*
D13*
%TO.P,RV4,1,1_1*%
%TO.N,Net-(D10-A)*%
X109750000Y-146500000D03*
%TO.P,RV4,2,2_2*%
%TO.N,Net-(U1D-+)*%
X107250000Y-146500000D03*
%TO.P,RV4,3,3_3*%
%TO.N,GND*%
X104750000Y-146500000D03*
%TD*%
D12*
%TO.P,RV1,*%
%TO.N,GND*%
X102500000Y-61000000D03*
X112000000Y-61000000D03*
D13*
%TO.P,RV1,1,1_1*%
%TO.N,Net-(D4-K)*%
X109750000Y-68500000D03*
%TO.P,RV1,2,2_2*%
%TO.N,Net-(U1A-+)*%
X107250000Y-68500000D03*
%TO.P,RV1,3,3_3*%
%TO.N,GND*%
X104750000Y-68500000D03*
%TD*%
D10*
%TO.P,J2,S,~_S*%
%TO.N,GND*%
X117321827Y-67000000D03*
D11*
%TO.P,J2,T,~_T*%
%TO.N,Net-(J2-~-PadT)*%
X128721827Y-67000000D03*
%TO.P,J2,TN,~_TN*%
%TO.N,unconnected-(J2-~-PadTN)*%
X120421827Y-67000000D03*
%TD*%
D14*
%TO.P,J7,1,Pin_1_1*%
%TO.N,Net-(J7-Pin_1)*%
X115500000Y-75500000D03*
D15*
%TO.P,J7,2,Pin_2_2*%
X115500000Y-72960000D03*
%TO.P,J7,3,Pin_3_3*%
%TO.N,GND*%
X112960000Y-75500000D03*
%TO.P,J7,4,Pin_4_4*%
X112960000Y-72960000D03*
%TO.P,J7,5,Pin_5_5*%
X110420000Y-75500000D03*
%TO.P,J7,6,Pin_6_6*%
X110420000Y-72960000D03*
%TO.P,J7,7,Pin_7_7*%
X107880000Y-75500000D03*
%TO.P,J7,8,Pin_8_8*%
X107880000Y-72960000D03*
%TO.P,J7,9,Pin_9_9*%
%TO.N,Net-(J7-Pin_10)*%
X105340000Y-75500000D03*
%TO.P,J7,10,Pin_10_10*%
X105340000Y-72960000D03*
%TD*%
D16*
%TO.N,GND*%
X126200000Y-118200000D03*
D17*
X117250000Y-87750000D03*
D16*
X127600000Y-122600000D03*
X127000000Y-70200000D03*
X128800000Y-70200000D03*
X118800000Y-114000000D03*
D17*
X111500000Y-93500000D03*
X110000000Y-82000000D03*
D16*
X116400000Y-111800000D03*
X124800000Y-77400000D03*
X129000000Y-73600000D03*
D17*
X102500000Y-97750000D03*
D16*
X116400000Y-115600000D03*
X127000000Y-73600000D03*
X121400000Y-116200000D03*
X125200000Y-77000000D03*
X117600000Y-115600000D03*
X116600000Y-82800000D03*
X115600000Y-82600000D03*
X125200000Y-126200000D03*
X125600000Y-76600000D03*
X116000000Y-123200000D03*
X117600000Y-121400000D03*
X115200000Y-81800000D03*
X122200000Y-122400000D03*
X127800000Y-126400000D03*
D17*
%TO.N,Net-(U1D-+)*%
X106000000Y-109250000D03*
X106000000Y-140250000D03*
%TO.N,Net-(U1A-+)*%
X105200000Y-102275000D03*
D16*
%TO.N,+5V*%
X121800000Y-83400000D03*
D17*
X118750000Y-121400000D03*
D16*
X123400000Y-59200000D03*
X121800000Y-113400000D03*
X124000000Y-85200000D03*
X121400000Y-109600000D03*
D17*
%TO.N,Net-(C1-Pad1)*%
X123000000Y-63000000D03*
X102250000Y-96250000D03*
%TO.N,Net-(U1A--)*%
X107750000Y-103250000D03*
X124400000Y-61000000D03*
D16*
X126200000Y-81200000D03*
%TO.N,-12V*%
X106625000Y-127000000D03*
X108600000Y-80600000D03*
X118600000Y-73000000D03*
X117600000Y-58000000D03*
D17*
X109000000Y-109500000D03*
D16*
X107600000Y-125000000D03*
X107400000Y-83800000D03*
D17*
X118887073Y-77697231D03*
D16*
%TO.N,+12V*%
X109600000Y-129600000D03*
D17*
X115000000Y-119000000D03*
X109250000Y-102750000D03*
D16*
X110800000Y-128200000D03*
D17*
%TO.N,Net-(U1D--)*%
X107250000Y-112500000D03*
D16*
X121400000Y-138600000D03*
%TD*%
%TO.N,GND*%
D18*
X102500000Y-87000000D02*
X102500000Y-84171573D01*
X102500000Y-84171573D02*
X102500000Y-83500000D01*
X102500000Y-87000000D02*
X102500000Y-88500000D01*
X102500000Y-88500000D02*
X101250000Y-89750000D01*
%TO.N,Net-(U1D-+)*%
D19*
X106000000Y-140250000D02*
X106000000Y-111250000D01*
X106000000Y-111250000D02*
X106000000Y-109250000D01*
%TO.N,Net-(U1A-+)*%
X105200000Y-102275000D02*
X105075000Y-102275000D01*
X105075000Y-102275000D02*
X101524999Y-98724999D01*
X104825001Y-79825001D02*
X103000000Y-78000000D01*
X101524999Y-98724999D02*
X101524999Y-91416003D01*
X103000000Y-78000000D02*
X103000000Y-68436998D01*
X103000000Y-68436998D02*
X104161999Y-67274999D01*
X101524999Y-91416003D02*
X104825001Y-88116001D01*
X104161999Y-67274999D02*
X106024999Y-67274999D01*
X106024999Y-67274999D02*
X107250000Y-68500000D01*
X104825001Y-88116001D02*
X104825001Y-79825001D01*
%TO.N,+5V*%
X118750000Y-121400000D02*
X118750000Y-116450000D01*
D20*
X125648827Y-67766295D02*
X125327000Y-68088122D01*
X121627000Y-79188076D02*
X121627000Y-83227000D01*
X121600000Y-91400000D02*
X121600000Y-108206751D01*
X121627000Y-83227000D02*
X121800000Y-83400000D01*
X125327000Y-75488076D02*
X121627000Y-79188076D01*
X121600000Y-108206751D02*
X121400000Y-108406751D01*
X123400000Y-59200000D02*
X123700000Y-59500000D01*
X123700000Y-64284878D02*
X125648827Y-66233705D01*
X124000000Y-85200000D02*
X121400000Y-87800000D01*
X121400000Y-91200000D02*
X121600000Y-91400000D01*
X125327000Y-68088122D02*
X125327000Y-75488076D01*
X121400000Y-87800000D02*
X121400000Y-91200000D01*
X121400000Y-108406751D02*
X121400000Y-109600000D01*
D19*
X118750000Y-116450000D02*
X121800000Y-113400000D01*
D20*
X123700000Y-59500000D02*
X123700000Y-64284878D01*
X125648827Y-66233705D02*
X125648827Y-67766295D01*
%TO.N,Net-(C1-Pad1)*%
D19*
X121600000Y-73958998D02*
X102250000Y-93308998D01*
X123000000Y-63000000D02*
X121600000Y-64400000D01*
X121600000Y-64400000D02*
X121600000Y-73958998D01*
X102250000Y-93308998D02*
X102250000Y-96250000D01*
%TO.N,Net-(U1A--)*%
X121199695Y-86025000D02*
X121575000Y-86025000D01*
X107750000Y-103250000D02*
X107750000Y-99474695D01*
X107750000Y-99474695D02*
X121199695Y-86025000D01*
X126200000Y-81400000D02*
X126200000Y-81200000D01*
X121575000Y-86025000D02*
X126200000Y-81400000D01*
X124400000Y-61000000D02*
X124400000Y-60850000D01*
%TO.N,-12V*%
D21*
X118600000Y-82415000D02*
X118887073Y-82127927D01*
X106899999Y-107399999D02*
X106899999Y-99348003D01*
X109000000Y-109500000D02*
X106899999Y-107399999D01*
D20*
X106625000Y-125975000D02*
X107600000Y-125000000D01*
D21*
X118887073Y-82127927D02*
X118887073Y-77697231D01*
D20*
X108600000Y-82600000D02*
X108600000Y-80600000D01*
X106625000Y-127000000D02*
X106625000Y-125975000D01*
X106550000Y-111950000D02*
X109000000Y-109500000D01*
X117600000Y-58000000D02*
X118600000Y-59000000D01*
D21*
X118600000Y-87648002D02*
X118600000Y-82415000D01*
D20*
X118600000Y-59000000D02*
X118600000Y-73000000D01*
X106550000Y-112789950D02*
X106550000Y-111950000D01*
X107600000Y-125000000D02*
X108550000Y-124050000D01*
X108550000Y-114789950D02*
X106550000Y-112789950D01*
X108550000Y-124050000D02*
X108550000Y-114789950D01*
X107400000Y-83800000D02*
X108600000Y-82600000D01*
D21*
X106899999Y-99348003D02*
X118600000Y-87648002D01*
%TO.N,+12V*%
D19*
X115000000Y-108500000D02*
X115000000Y-119000000D01*
D20*
X109600000Y-129400000D02*
X110800000Y-128200000D01*
D19*
X109250000Y-102750000D02*
X115000000Y-108500000D01*
D20*
X109600000Y-129600000D02*
X109600000Y-129400000D01*
%TO.N,Net-(U1D--)*%
D19*
X121400000Y-138600000D02*
X121600000Y-138400000D01*
X121600000Y-126850000D02*
X107250000Y-112500000D01*
X121600000Y-138400000D02*
X121600000Y-126850000D01*
%TD*%
%TA.AperFunction,Conductor*%
%TO.N,GND*%
G36*
X109954075Y-75307007D02*
G01*
X109920000Y-75434174D01*
X109920000Y-75565826D01*
X109954075Y-75692993D01*
X109989297Y-75754000D01*
X108310703Y-75754000D01*
X108345925Y-75692993D01*
X108380000Y-75565826D01*
X108380000Y-75434174D01*
X108345925Y-75307007D01*
X108310703Y-75246000D01*
X109989297Y-75246000D01*
X109954075Y-75307007D01*
G37*
%TD.AperFunction*%
%TA.AperFunction,Conductor*%
G36*
X112494075Y-75307007D02*
G01*
X112460000Y-75434174D01*
X112460000Y-75565826D01*
X112494075Y-75692993D01*
X112529297Y-75754000D01*
X110850703Y-75754000D01*
X110885925Y-75692993D01*
X110920000Y-75565826D01*
X110920000Y-75434174D01*
X110885925Y-75307007D01*
X110850703Y-75246000D01*
X112529297Y-75246000D01*
X112494075Y-75307007D01*
G37*
%TD.AperFunction*%
%TA.AperFunction,Conductor*%
G36*
X108134000Y-75069297D02*
G01*
X108072993Y-75034075D01*
X107945826Y-75000000D01*
X107814174Y-75000000D01*
X107687007Y-75034075D01*
X107626000Y-75069297D01*
X107626000Y-73390702D01*
X107687007Y-73425925D01*
X107814174Y-73460000D01*
X107945826Y-73460000D01*
X108072993Y-73425925D01*
X108134000Y-73390702D01*
X108134000Y-75069297D01*
G37*
%TD.AperFunction*%
%TA.AperFunction,Conductor*%
G36*
X110674000Y-75069297D02*
G01*
X110612993Y-75034075D01*
X110485826Y-75000000D01*
X110354174Y-75000000D01*
X110227007Y-75034075D01*
X110166000Y-75069297D01*
X110166000Y-73390702D01*
X110227007Y-73425925D01*
X110354174Y-73460000D01*
X110485826Y-73460000D01*
X110612993Y-73425925D01*
X110674000Y-73390702D01*
X110674000Y-75069297D01*
G37*
%TD.AperFunction*%
%TA.AperFunction,Conductor*%
G36*
X113214000Y-75069297D02*
G01*
X113152993Y-75034075D01*
X113025826Y-75000000D01*
X112894174Y-75000000D01*
X112767007Y-75034075D01*
X112706000Y-75069297D01*
X112706000Y-73390702D01*
X112767007Y-73425925D01*
X112894174Y-73460000D01*
X113025826Y-73460000D01*
X113152993Y-73425925D01*
X113214000Y-73390702D01*
X113214000Y-75069297D01*
G37*
%TD.AperFunction*%
%TA.AperFunction,Conductor*%
G36*
X109954075Y-72767007D02*
G01*
X109920000Y-72894174D01*
X109920000Y-73025826D01*
X109954075Y-73152993D01*
X109989297Y-73214000D01*
X108310703Y-73214000D01*
X108345925Y-73152993D01*
X108380000Y-73025826D01*
X108380000Y-72894174D01*
X108345925Y-72767007D01*
X108310703Y-72706000D01*
X109989297Y-72706000D01*
X109954075Y-72767007D01*
G37*
%TD.AperFunction*%
%TA.AperFunction,Conductor*%
G36*
X112494075Y-72767007D02*
G01*
X112460000Y-72894174D01*
X112460000Y-73025826D01*
X112494075Y-73152993D01*
X112529297Y-73214000D01*
X110850703Y-73214000D01*
X110885925Y-73152993D01*
X110920000Y-73025826D01*
X110920000Y-72894174D01*
X110885925Y-72767007D01*
X110850703Y-72706000D01*
X112529297Y-72706000D01*
X112494075Y-72767007D01*
G37*
%TD.AperFunction*%
%TA.AperFunction,Conductor*%
G36*
X129441621Y-50520502D02*
G01*
X129488114Y-50574158D01*
X129499500Y-50626500D01*
X129499500Y-52878183D01*
X129479498Y-52946304D01*
X129425842Y-52992797D01*
X129355568Y-53002901D01*
X129316299Y-52990450D01*
X129204924Y-52933702D01*
X129016527Y-52872488D01*
X128820873Y-52841500D01*
X128622781Y-52841500D01*
X128427127Y-52872488D01*
X128427124Y-52872488D01*
X128427123Y-52872489D01*
X128238730Y-52933702D01*
X128238728Y-52933703D01*
X128062225Y-53023636D01*
X127901966Y-53140071D01*
X127761898Y-53280139D01*
X127645463Y-53440398D01*
X127594007Y-53541386D01*
X127555529Y-53616903D01*
X127494315Y-53805300D01*
X127463327Y-54000954D01*
X127463327Y-55999046D01*
X127494315Y-56194700D01*
X127555529Y-56383097D01*
X127601337Y-56473000D01*
X127645463Y-56559601D01*
X127761898Y-56719860D01*
X127901966Y-56859928D01*
X128007240Y-56936414D01*
X128062229Y-56976366D01*
X128238730Y-57066298D01*
X128427127Y-57127512D01*
X128622781Y-57158500D01*
X128622784Y-57158500D01*
X128820870Y-57158500D01*
X128820873Y-57158500D01*
X129016527Y-57127512D01*
X129204924Y-57066298D01*
X129316299Y-57009549D01*
X129386073Y-56996445D01*
X129451858Y-57023145D01*
X129492765Y-57081172D01*
X129499500Y-57121816D01*
X129499500Y-64878183D01*
X129479498Y-64946304D01*
X129425842Y-64992797D01*
X129355568Y-65002901D01*
X129316299Y-64990450D01*
X129204924Y-64933702D01*
X129016527Y-64872488D01*
X128820873Y-64841500D01*
X128622781Y-64841500D01*
X128427127Y-64872488D01*
X128427124Y-64872488D01*
X128427123Y-64872489D01*
X128238730Y-64933702D01*
X128238728Y-64933703D01*
X128062225Y-65023636D01*
X127901966Y-65140071D01*
X127761898Y-65280139D01*
X127645463Y-65440398D01*
X127594007Y-65541386D01*
X127555529Y-65616903D01*
X127494315Y-65805300D01*
X127463327Y-66000954D01*
X127463327Y-67999046D01*
X127494315Y-68194700D01*
X127555529Y-68383097D01*
X127601337Y-68473000D01*
X127645463Y-68559601D01*
X127761898Y-68719860D01*
X127901966Y-68859928D01*
X127957257Y-68900099D01*
X128062229Y-68976366D01*
X128238730Y-69066298D01*
X128427127Y-69127512D01*
X128622781Y-69158500D01*
X128622784Y-69158500D01*
X128820870Y-69158500D01*
X128820873Y-69158500D01*
X129016527Y-69127512D01*
X129204924Y-69066298D01*
X129316299Y-69009549D01*
X129386073Y-68996445D01*
X129451858Y-69023145D01*
X129492765Y-69081172D01*
X129499500Y-69121816D01*
X129499500Y-78878183D01*
X129479498Y-78946304D01*
X129425842Y-78992797D01*
X129355568Y-79002901D01*
X129316299Y-78990450D01*
X129204924Y-78933702D01*
X129016527Y-78872488D01*
X128820873Y-78841500D01*
X128622781Y-78841500D01*
X128427127Y-78872488D01*
X128427124Y-78872488D01*
X128427123Y-78872489D01*
X128238730Y-78933702D01*
X128238728Y-78933703D01*
X128062225Y-79023636D01*
X127901966Y-79140071D01*
X127761898Y-79280139D01*
X127645463Y-79440398D01*
X127555530Y-79616901D01*
X127555529Y-79616903D01*
X127499068Y-79790673D01*
X127494315Y-79805300D01*
X127463327Y-80000954D01*
X127463327Y-81999046D01*
X127494315Y-82194700D01*
X127555529Y-82383097D01*
X127601337Y-82473000D01*
X127645463Y-82559601D01*
X127761898Y-82719860D01*
X127901966Y-82859928D01*
X127967417Y-82907481D01*
X128062229Y-82976366D01*
X128238730Y-83066298D01*
X128427127Y-83127512D01*
X128622781Y-83158500D01*
X128622784Y-83158500D01*
X128820870Y-83158500D01*
X128820873Y-83158500D01*
X129016527Y-83127512D01*
X129204924Y-83066298D01*
X129316299Y-83009549D01*
X129386073Y-82996445D01*
X129451858Y-83023145D01*
X129492765Y-83081172D01*
X129499500Y-83121816D01*
X129499500Y-90878183D01*
X129479498Y-90946304D01*
X129425842Y-90992797D01*
X129355568Y-91002901D01*
X129316299Y-90990450D01*
X129204924Y-90933702D01*
X129016527Y-90872488D01*
X128820873Y-90841500D01*
X128622781Y-90841500D01*
X128427127Y-90872488D01*
X128427124Y-90872488D01*
X128427123Y-90872489D01*
X128238730Y-90933702D01*
X128238728Y-90933703D01*
X128062225Y-91023636D01*
X127901966Y-91140071D01*
X127761898Y-91280139D01*
X127645463Y-91440398D01*
X127555530Y-91616901D01*
X127555529Y-91616903D01*
X127518588Y-91730597D01*
X127494315Y-91805300D01*
X127463327Y-92000954D01*
X127463327Y-93999046D01*
X127494315Y-94194700D01*
X127555529Y-94383097D01*
X127601337Y-94473000D01*
X127645463Y-94559601D01*
X127761898Y-94719860D01*
X127901966Y-94859928D01*
X127957257Y-94900099D01*
X128062229Y-94976366D01*
X128238730Y-95066298D01*
X128427127Y-95127512D01*
X128622781Y-95158500D01*
X128622784Y-95158500D01*
X128820870Y-95158500D01*
X128820873Y-95158500D01*
X129016527Y-95127512D01*
X129204924Y-95066298D01*
X129316299Y-95009549D01*
X129386073Y-94996445D01*
X129451858Y-95023145D01*
X129492765Y-95081172D01*
X129499500Y-95121816D01*
X129499500Y-104878183D01*
X129479498Y-104946304D01*
X129425842Y-104992797D01*
X129355568Y-105002901D01*
X129316299Y-104990450D01*
X129204924Y-104933702D01*
X129016527Y-104872488D01*
X128820873Y-104841500D01*
X128622781Y-104841500D01*
X128427127Y-104872488D01*
X128427124Y-104872488D01*
X128427123Y-104872489D01*
X128238730Y-104933702D01*
X128238728Y-104933703D01*
X128062225Y-105023636D01*
X127901966Y-105140071D01*
X127761898Y-105280139D01*
X127645463Y-105440398D01*
X127594007Y-105541386D01*
X127555529Y-105616903D01*
X127494315Y-105805300D01*
X127463327Y-106000954D01*
X127463327Y-107999046D01*
X127494315Y-108194700D01*
X127555529Y-108383097D01*
X127645461Y-108559598D01*
X127645463Y-108559601D01*
X127761898Y-108719860D01*
X127901966Y-108859928D01*
X127985834Y-108920862D01*
X128062229Y-108976366D01*
X128238730Y-109066298D01*
X128427127Y-109127512D01*
X128622781Y-109158500D01*
X128622784Y-109158500D01*
X128820870Y-109158500D01*
X128820873Y-109158500D01*
X129016527Y-109127512D01*
X129204924Y-109066298D01*
X129316299Y-109009549D01*
X129386073Y-108996445D01*
X129451858Y-109023145D01*
X129492765Y-109081172D01*
X129499500Y-109121816D01*
X129499500Y-116878183D01*
X129479498Y-116946304D01*
X129425842Y-116992797D01*
X129355568Y-117002901D01*
X129316299Y-116990450D01*
X129204924Y-116933702D01*
X129016527Y-116872488D01*
X128820873Y-116841500D01*
X128622781Y-116841500D01*
X128427127Y-116872488D01*
X128427124Y-116872488D01*
X128427123Y-116872489D01*
X128238730Y-116933702D01*
X128238728Y-116933703D01*
X128062225Y-117023636D01*
X127901966Y-117140071D01*
X127761898Y-117280139D01*
X127645463Y-117440398D01*
X127594007Y-117541386D01*
X127555529Y-117616903D01*
X127494315Y-117805300D01*
X127463327Y-118000954D01*
X127463327Y-119999046D01*
X127494315Y-120194700D01*
X127555529Y-120383097D01*
X127615094Y-120499999D01*
X127645463Y-120559601D01*
X127761898Y-120719860D01*
X127901966Y-120859928D01*
X127957257Y-120900099D01*
X128062229Y-120976366D01*
X128238730Y-121066298D01*
X128427127Y-121127512D01*
X128622781Y-121158500D01*
X128622784Y-121158500D01*
X128820870Y-121158500D01*
X128820873Y-121158500D01*
X129016527Y-121127512D01*
X129204924Y-121066298D01*
X129316299Y-121009549D01*
X129386073Y-120996445D01*
X129451858Y-121023145D01*
X129492765Y-121081172D01*
X129499500Y-121121816D01*
X129499500Y-130878183D01*
X129479498Y-130946304D01*
X129425842Y-130992797D01*
X129355568Y-131002901D01*
X129316299Y-130990450D01*
X129204924Y-130933702D01*
X129016527Y-130872488D01*
X128820873Y-130841500D01*
X128622781Y-130841500D01*
X128427127Y-130872488D01*
X128427124Y-130872488D01*
X128427123Y-130872489D01*
X128238730Y-130933702D01*
X128238728Y-130933703D01*
X128062225Y-131023636D01*
X127901966Y-131140071D01*
X127761898Y-131280139D01*
X127645463Y-131440398D01*
X127594007Y-131541386D01*
X127555529Y-131616903D01*
X127494315Y-131805300D01*
X127463327Y-132000954D01*
X127463327Y-133999046D01*
X127494315Y-134194700D01*
X127555529Y-134383097D01*
X127601337Y-134473000D01*
X127645463Y-134559601D01*
X127761898Y-134719860D01*
X127901966Y-134859928D01*
X128007240Y-134936414D01*
X128062229Y-134976366D01*
X128238730Y-135066298D01*
X128427127Y-135127512D01*
X128622781Y-135158500D01*
X128622784Y-135158500D01*
X128820870Y-135158500D01*
X128820873Y-135158500D01*
X129016527Y-135127512D01*
X129204924Y-135066298D01*
X129316299Y-135009549D01*
X129386073Y-134996445D01*
X129451858Y-135023145D01*
X129492765Y-135081172D01*
X129499500Y-135121816D01*
X129499500Y-142878183D01*
X129479498Y-142946304D01*
X129425842Y-142992797D01*
X129355568Y-143002901D01*
X129316299Y-142990450D01*
X129204924Y-142933702D01*
X129016527Y-142872488D01*
X128820873Y-142841500D01*
X128622781Y-142841500D01*
X128427127Y-142872488D01*
X128427124Y-142872488D01*
X128427123Y-142872489D01*
X128238730Y-142933702D01*
X128238728Y-142933703D01*
X128062225Y-143023636D01*
X127901966Y-143140071D01*
X127761898Y-143280139D01*
X127645463Y-143440398D01*
X127594007Y-143541386D01*
X127555529Y-143616903D01*
X127494315Y-143805300D01*
X127463327Y-144000954D01*
X127463327Y-145999046D01*
X127494315Y-146194700D01*
X127555529Y-146383097D01*
X127601337Y-146473000D01*
X127645463Y-146559601D01*
X127761898Y-146719860D01*
X127901966Y-146859928D01*
X127957257Y-146900099D01*
X128062229Y-146976366D01*
X128238730Y-147066298D01*
X128427127Y-147127512D01*
X128622781Y-147158500D01*
X128622784Y-147158500D01*
X128820870Y-147158500D01*
X128820873Y-147158500D01*
X129016527Y-147127512D01*
X129204924Y-147066298D01*
X129316299Y-147009549D01*
X129386073Y-146996445D01*
X129451858Y-147023145D01*
X129492765Y-147081172D01*
X129499500Y-147121816D01*
X129499500Y-149373500D01*
X129479498Y-149441621D01*
X129425842Y-149488114D01*
X129373500Y-149499500D01*
X100626500Y-149499500D01*
X100558379Y-149479498D01*
X100511886Y-149425842D01*
X100500500Y-149373500D01*
X100500500Y-146389191D01*
X103342000Y-146389191D01*
X103342000Y-146610808D01*
X103376670Y-146829710D01*
X103445155Y-147040483D01*
X103445156Y-147040485D01*
X103545770Y-147237952D01*
X103590824Y-147299963D01*
X104265841Y-146624946D01*
X104284075Y-146692993D01*
X104349901Y-146807007D01*
X104442993Y-146900099D01*
X104557007Y-146965925D01*
X104625051Y-146984157D01*
X103950035Y-147659173D01*
X103950035Y-147659174D01*
X104012047Y-147704229D01*
X104209514Y-147804843D01*
X104209516Y-147804844D01*
X104420289Y-147873329D01*
X104639191Y-147908000D01*
X104860809Y-147908000D01*
X105079710Y-147873329D01*
X105290483Y-147804844D01*
X105290485Y-147804843D01*
X105487954Y-147704228D01*
X105487956Y-147704227D01*
X105549963Y-147659175D01*
X105549964Y-147659174D01*
X104874947Y-146984157D01*
X104942993Y-146965925D01*
X105057007Y-146900099D01*
X105150099Y-146807007D01*
X105215925Y-146692993D01*
X105234158Y-146624947D01*
X105909174Y-147299964D01*
X105919155Y-147299178D01*
X105953975Y-147272328D01*
X106024712Y-147266252D01*
X106087503Y-147299384D01*
X106101626Y-147315682D01*
X106175658Y-147417578D01*
X106332421Y-147574341D01*
X106332424Y-147574343D01*
X106511785Y-147704657D01*
X106709324Y-147805308D01*
X106920176Y-147873818D01*
X107139149Y-147908500D01*
X107139152Y-147908500D01*
X107360848Y-147908500D01*
X107360851Y-147908500D01*
X107579824Y-147873818D01*
X107790676Y-147805308D01*
X107988215Y-147704657D01*
X108167576Y-147574343D01*
X108324343Y-147417576D01*
X108398064Y-147316107D01*
X108454287Y-147272754D01*
X108525023Y-147266679D01*
X108587814Y-147299811D01*
X108601936Y-147316108D01*
X108675658Y-147417578D01*
X108832421Y-147574341D01*
X108832424Y-147574343D01*
X109011785Y-147704657D01*
X109209324Y-147805308D01*
X109420176Y-147873818D01*
X109639149Y-147908500D01*
X109639152Y-147908500D01*
X109860848Y-147908500D01*
X109860851Y-147908500D01*
X110079824Y-147873818D01*
X110290676Y-147805308D01*
X110488215Y-147704657D01*
X110667576Y-147574343D01*
X110824343Y-147417576D01*
X110954657Y-147238215D01*
X111055308Y-147040676D01*
X111123818Y-146829824D01*
X111158500Y-146610851D01*
X111158500Y-146389149D01*
X111123818Y-146170176D01*
X111055308Y-145959324D01*
X110954657Y-145761785D01*
X110824343Y-145582424D01*
X110824341Y-145582421D01*
X110667578Y-145425658D01*
X110499780Y-145303745D01*
X110488217Y-145295344D01*
X110475656Y-145288944D01*
X110290676Y-145194692D01*
X110290673Y-145194691D01*
X110290671Y-145194690D01*
X110079829Y-145126183D01*
X110079825Y-145126182D01*
X110079824Y-145126182D01*
X109860851Y-145091500D01*
X109639149Y-145091500D01*
X109420176Y-145126182D01*
X109420170Y-145126183D01*
X109209328Y-145194690D01*
X109209322Y-145194693D01*
X109011781Y-145295345D01*
X108832421Y-145425658D01*
X108675662Y-145582417D01*
X108601936Y-145683892D01*
X108545713Y-145727245D01*
X108474977Y-145733320D01*
X108412185Y-145700188D01*
X108398064Y-145683892D01*
X108344378Y-145610000D01*
X108324343Y-145582424D01*
X108324339Y-145582420D01*
X108324337Y-145582417D01*
X108167578Y-145425658D01*
X107988218Y-145295345D01*
X107988217Y-145295344D01*
X107988215Y-145295343D01*
X107790676Y-145194692D01*
X107790673Y-145194691D01*
X107790671Y-145194690D01*
X107579829Y-145126183D01*
X107579825Y-145126182D01*
X107579824Y-145126182D01*
X107360851Y-145091500D01*
X107139149Y-145091500D01*
X106920176Y-145126182D01*
X106920170Y-145126183D01*
X106709328Y-145194690D01*
X106709322Y-145194693D01*
X106511781Y-145295345D01*
X106332421Y-145425658D01*
X106175658Y-145582421D01*
X106101627Y-145684317D01*
X106045404Y-145727671D01*
X105974668Y-145733746D01*
X105911877Y-145700614D01*
X105911536Y-145700221D01*
X105909173Y-145700035D01*
X105234157Y-146375051D01*
X105215925Y-146307007D01*
X105150099Y-146192993D01*
X105057007Y-146099901D01*
X104942993Y-146034075D01*
X104874946Y-146015841D01*
X105549963Y-145340824D01*
X105487952Y-145295770D01*
X105290485Y-145195156D01*
X105290483Y-145195155D01*
X105079710Y-145126670D01*
X104860809Y-145092000D01*
X104639191Y-145092000D01*
X104420289Y-145126670D01*
X104209516Y-145195155D01*
X104209514Y-145195156D01*
X104012043Y-145295772D01*
X103950035Y-145340823D01*
X103950035Y-145340825D01*
X104625052Y-146015842D01*
X104557007Y-146034075D01*
X104442993Y-146099901D01*
X104349901Y-146192993D01*
X104284075Y-146307007D01*
X104265842Y-146375052D01*
X103590825Y-145700035D01*
X103590823Y-145700035D01*
X103545772Y-145762043D01*
X103445156Y-145959514D01*
X103445155Y-145959516D01*
X103376670Y-146170289D01*
X103342000Y-146389191D01*
X100500500Y-146389191D01*
X100500500Y-143986402D01*
X115898827Y-143986402D01*
X115898827Y-144746000D01*
X116766778Y-144746000D01*
X116735269Y-144822069D01*
X116711827Y-144939920D01*
X116711827Y-145060080D01*
X116735269Y-145177931D01*
X116766778Y-145254000D01*
X115898827Y-145254000D01*
X115898827Y-146013597D01*
X115905332Y-146074093D01*
X115956382Y-146210964D01*
X115956382Y-146210965D01*
X116043922Y-146327904D01*
X116160861Y-146415444D01*
X116297733Y-146466494D01*
X116358229Y-146472999D01*
X116358242Y-146473000D01*
X117067827Y-146473000D01*
X117067827Y-145555049D01*
X117143896Y-145586558D01*
X117261747Y-145610000D01*
X117381907Y-145610000D01*
X117499758Y-145586558D01*
X117575827Y-145555049D01*
X117575827Y-146473000D01*
X118285412Y-146473000D01*
X118285424Y-146472999D01*
X118345920Y-146466494D01*
X118482791Y-146415444D01*
X118482792Y-146415444D01*
X118599731Y-146327904D01*
X118687271Y-146210965D01*
X118687271Y-146210964D01*
X118738321Y-146074093D01*
X118744826Y-146013597D01*
X118744827Y-146013585D01*
X118744827Y-145254000D01*
X117876876Y-145254000D01*
X117908385Y-145177931D01*
X117931827Y-145060080D01*
X117931827Y-144939920D01*
X117908385Y-144822069D01*
X117876876Y-144746000D01*
X118744827Y-144746000D01*
X118744827Y-144000954D01*
X119163327Y-144000954D01*
X119163327Y-145999046D01*
X119194315Y-146194700D01*
X119255529Y-146383097D01*
X119301337Y-146473000D01*
X119345463Y-146559601D01*
X119461898Y-146719860D01*
X119601966Y-146859928D01*
X119657257Y-146900099D01*
X119762229Y-146976366D01*
X119938730Y-147066298D01*
X120127127Y-147127512D01*
X120322781Y-147158500D01*
X120322784Y-147158500D01*
X120520870Y-147158500D01*
X120520873Y-147158500D01*
X120716527Y-147127512D01*
X120904924Y-147066298D01*
X121081425Y-146976366D01*
X121241685Y-146859930D01*
X121381757Y-146719858D01*
X121498193Y-146559598D01*
X121588125Y-146383097D01*
X121649339Y-146194700D01*
X121680327Y-145999046D01*
X121680327Y-144885263D01*
X122048327Y-144885263D01*
X122048327Y-145114736D01*
X122078277Y-145342231D01*
X122078279Y-145342238D01*
X122137669Y-145563887D01*
X122225483Y-145775888D01*
X122225484Y-145775889D01*
X122225489Y-145775900D01*
X122340213Y-145974608D01*
X122340218Y-145974615D01*
X122479900Y-146156652D01*
X122479919Y-146156673D01*
X122642153Y-146318907D01*
X122642174Y-146318926D01*
X122824211Y-146458608D01*
X122824218Y-146458613D01*
X123022926Y-146573337D01*
X123022930Y-146573338D01*
X123022939Y-146573344D01*
X123234940Y-146661158D01*
X123456589Y-146720548D01*
X123456593Y-146720548D01*
X123456595Y-146720549D01*
X123515225Y-146728267D01*
X123684093Y-146750500D01*
X123684100Y-146750500D01*
X123913554Y-146750500D01*
X123913561Y-146750500D01*
X124119172Y-146723430D01*
X124141058Y-146720549D01*
X124141058Y-146720548D01*
X124141065Y-146720548D01*
X124362714Y-146661158D01*
X124574715Y-146573344D01*
X124773439Y-146458611D01*
X124955488Y-146318919D01*
X125117746Y-146156661D01*
X125257438Y-145974612D01*
X125372171Y-145775888D01*
X125459985Y-145563887D01*
X125519375Y-145342238D01*
X125549327Y-145114734D01*
X125549327Y-144885266D01*
X125519375Y-144657762D01*
X125459985Y-144436113D01*
X125372171Y-144224112D01*
X125372165Y-144224103D01*
X125372164Y-144224099D01*
X125257440Y-144025391D01*
X125257435Y-144025384D01*
X125117753Y-143843347D01*
X125117734Y-143843326D01*
X124955500Y-143681092D01*
X124955479Y-143681073D01*
X124773442Y-143541391D01*
X124773435Y-143541386D01*
X124574727Y-143426662D01*
X124574719Y-143426658D01*
X124574715Y-143426656D01*
X124362714Y-143338842D01*
X124211328Y-143298278D01*
X124141058Y-143279450D01*
X123913563Y-143249500D01*
X123913561Y-143249500D01*
X123684093Y-143249500D01*
X123684090Y-143249500D01*
X123456595Y-143279450D01*
X123234940Y-143338842D01*
X123022937Y-143426657D01*
X123022926Y-143426662D01*
X122824218Y-143541386D01*
X122824211Y-143541391D01*
X122642174Y-143681073D01*
X122642153Y-143681092D01*
X122479919Y-143843326D01*
X122479900Y-143843347D01*
X122340218Y-144025384D01*
X122340213Y-144025391D01*
X122225489Y-144224099D01*
X122225484Y-144224110D01*
X122137669Y-144436113D01*
X122078277Y-144657768D01*
X122048327Y-144885263D01*
X121680327Y-144885263D01*
X121680327Y-144000954D01*
X121649339Y-143805300D01*
X121588125Y-143616903D01*
X121498193Y-143440402D01*
X121381757Y-143280142D01*
X121381755Y-143280139D01*
X121241687Y-143140071D01*
X121081428Y-143023636D01*
X121081427Y-143023635D01*
X121081425Y-143023634D01*
X120904924Y-142933702D01*
X120716527Y-142872488D01*
X120520873Y-142841500D01*
X120322781Y-142841500D01*
X120127127Y-142872488D01*
X120127124Y-142872488D01*
X120127123Y-142872489D01*
X119938730Y-142933702D01*
X119938728Y-142933703D01*
X119762225Y-143023636D01*
X119601966Y-143140071D01*
X119461898Y-143280139D01*
X119345463Y-143440398D01*
X119294007Y-143541386D01*
X119255529Y-143616903D01*
X119194315Y-143805300D01*
X119163327Y-144000954D01*
X118744827Y-144000954D01*
X118744827Y-143986414D01*
X118744826Y-143986402D01*
X118738321Y-143925906D01*
X118687271Y-143789035D01*
X118687271Y-143789034D01*
X118599731Y-143672095D01*
X118482792Y-143584555D01*
X118345920Y-143533505D01*
X118285424Y-143527000D01*
X117575827Y-143527000D01*
X117575827Y-144444950D01*
X117499758Y-144413442D01*
X117381907Y-144390000D01*
X117261747Y-144390000D01*
X117143896Y-144413442D01*
X117067827Y-144444950D01*
X117067827Y-143527000D01*
X116358229Y-143527000D01*
X116297733Y-143533505D01*
X116160862Y-143584555D01*
X116160861Y-143584555D01*
X116043922Y-143672095D01*
X115956382Y-143789034D01*
X115956382Y-143789035D01*
X115905332Y-143925906D01*
X115898827Y-143986402D01*
X100500500Y-143986402D01*
X100500500Y-140692480D01*
X100520502Y-140624359D01*
X100537405Y-140603385D01*
X101635160Y-139505629D01*
X101723249Y-139637463D01*
X101862537Y-139776751D01*
X101994369Y-139864838D01*
X100915195Y-140944012D01*
X100915196Y-140944013D01*
X101046395Y-141048643D01*
X101046401Y-141048647D01*
X101284917Y-141198517D01*
X101538708Y-141320736D01*
X101538735Y-141320747D01*
X101804595Y-141413776D01*
X102079229Y-141476460D01*
X102079226Y-141476460D01*
X102359152Y-141508000D01*
X102640848Y-141508000D01*
X102920771Y-141476460D01*
X103195404Y-141413776D01*
X103461264Y-141320747D01*
X103461291Y-141320736D01*
X103715082Y-141198516D01*
X103953587Y-141048655D01*
X103953596Y-141048648D01*
X104084802Y-140944013D01*
X104084803Y-140944012D01*
X103005630Y-139864839D01*
X103137463Y-139776751D01*
X103276751Y-139637463D01*
X103364839Y-139505630D01*
X104444012Y-140584803D01*
X104444013Y-140584802D01*
X104548648Y-140453596D01*
X104548655Y-140453587D01*
X104698516Y-140215082D01*
X104820736Y-139961291D01*
X104820747Y-139961264D01*
X104913776Y-139695404D01*
X104976460Y-139420771D01*
X105008000Y-139140847D01*
X105008000Y-138859152D01*
X104976460Y-138579228D01*
X104913776Y-138304595D01*
X104820747Y-138038735D01*
X104820736Y-138038708D01*
X104698517Y-137784917D01*
X104548647Y-137546401D01*
X104548643Y-137546395D01*
X104444013Y-137415196D01*
X104444012Y-137415195D01*
X103364838Y-138494369D01*
X103276751Y-138362537D01*
X103137463Y-138223249D01*
X103005629Y-138135160D01*
X104084803Y-137055986D01*
X104084802Y-137055985D01*
X103953604Y-136951356D01*
X103953598Y-136951352D01*
X103715082Y-136801482D01*
X103461291Y-136679263D01*
X103461264Y-136679252D01*
X103195404Y-136586223D01*
X102920770Y-136523539D01*
X102920773Y-136523539D01*
X102640848Y-136492000D01*
X102359152Y-136492000D01*
X102079228Y-136523539D01*
X101804595Y-136586223D01*
X101538735Y-136679252D01*
X101538708Y-136679263D01*
X101284917Y-136801482D01*
X101046401Y-136951352D01*
X101046395Y-136951356D01*
X100915196Y-137055985D01*
X100915196Y-137055987D01*
X101994369Y-138135160D01*
X101862537Y-138223249D01*
X101723249Y-138362537D01*
X101635160Y-138494369D01*
X100537405Y-137396614D01*
X100522460Y-137369245D01*
X100505604Y-137343017D01*
X100504698Y-137336718D01*
X100503379Y-137334302D01*
X100500500Y-137307519D01*
X100500500Y-114692480D01*
X100520502Y-114624359D01*
X100537405Y-114603385D01*
X101635160Y-113505629D01*
X101723249Y-113637463D01*
X101862537Y-113776751D01*
X101994369Y-113864838D01*
X100915195Y-114944012D01*
X100915196Y-114944013D01*
X101046395Y-115048643D01*
X101046401Y-115048647D01*
X101284917Y-115198517D01*
X101538708Y-115320736D01*
X101538735Y-115320747D01*
X101804595Y-115413776D01*
X102079229Y-115476460D01*
X102079226Y-115476460D01*
X102359152Y-115508000D01*
X102640848Y-115508000D01*
X102920771Y-115476460D01*
X103195404Y-115413776D01*
X103461264Y-115320747D01*
X103461291Y-115320736D01*
X103715082Y-115198516D01*
X103953587Y-115048655D01*
X103953596Y-115048648D01*
X104084802Y-114944013D01*
X104084803Y-114944012D01*
X103005630Y-113864839D01*
X103137463Y-113776751D01*
X103276751Y-113637463D01*
X103364839Y-113505630D01*
X104444012Y-114584803D01*
X104444013Y-114584802D01*
X104548648Y-114453596D01*
X104548655Y-114453587D01*
X104698516Y-114215082D01*
X104820736Y-113961291D01*
X104820747Y-113961264D01*
X104913776Y-113695404D01*
X104976460Y-113420771D01*
X105008000Y-113140847D01*
X105008000Y-112859152D01*
X104976460Y-112579228D01*
X104913776Y-112304595D01*
X104820747Y-112038735D01*
X104820736Y-112038708D01*
X104698517Y-111784917D01*
X104548647Y-111546401D01*
X104548643Y-111546395D01*
X104444013Y-111415196D01*
X104444012Y-111415195D01*
X103364838Y-112494369D01*
X103276751Y-112362537D01*
X103137463Y-112223249D01*
X103005629Y-112135160D01*
X104084803Y-111055986D01*
X104084802Y-111055985D01*
X103953604Y-110951356D01*
X103953598Y-110951352D01*
X103715082Y-110801482D01*
X103461291Y-110679263D01*
X103461264Y-110679252D01*
X103195404Y-110586223D01*
X102920770Y-110523539D01*
X102920773Y-110523539D01*
X102640848Y-110492000D01*
X102359152Y-110492000D01*
X102079228Y-110523539D01*
X101804595Y-110586223D01*
X101538735Y-110679252D01*
X101538708Y-110679263D01*
X101284917Y-110801482D01*
X101046401Y-110951352D01*
X101046395Y-110951356D01*
X100915196Y-111055985D01*
X100915196Y-111055987D01*
X101994369Y-112135160D01*
X101862537Y-112223249D01*
X101723249Y-112362537D01*
X101635160Y-112494369D01*
X100537405Y-111396614D01*
X100522460Y-111369245D01*
X100505604Y-111343017D01*
X100504698Y-111336718D01*
X100503379Y-111334302D01*
X100500500Y-111307519D01*
X100500500Y-88692480D01*
X100520502Y-88624359D01*
X100537405Y-88603385D01*
X101635160Y-87505629D01*
X101723249Y-87637463D01*
X101862537Y-87776751D01*
X101994369Y-87864838D01*
X100915195Y-88944012D01*
X100915196Y-88944013D01*
X101046395Y-89048643D01*
X101046401Y-89048647D01*
X101284917Y-89198517D01*
X101538708Y-89320736D01*
X101538735Y-89320747D01*
X101804595Y-89413776D01*
X102079229Y-89476460D01*
X102079226Y-89476460D01*
X102259082Y-89496724D01*
X102324535Y-89524227D01*
X102364728Y-89582751D01*
X102366901Y-89653714D01*
X102334070Y-89711027D01*
X101121166Y-90923932D01*
X101032930Y-91012167D01*
X101032925Y-91012174D01*
X100967948Y-91109420D01*
X100963599Y-91115928D01*
X100915844Y-91231218D01*
X100906250Y-91279450D01*
X100891499Y-91353606D01*
X100891499Y-91353609D01*
X100891499Y-98662605D01*
X100891499Y-98787393D01*
X100915844Y-98909784D01*
X100963599Y-99025074D01*
X101032928Y-99128832D01*
X101032930Y-99128834D01*
X104270164Y-102366069D01*
X104304190Y-102428381D01*
X104304648Y-102430582D01*
X104326413Y-102540000D01*
X104394898Y-102705336D01*
X104494322Y-102854135D01*
X104620865Y-102980678D01*
X104769664Y-103080102D01*
X104935000Y-103148587D01*
X105110521Y-103183500D01*
X105110522Y-103183500D01*
X105289478Y-103183500D01*
X105289479Y-103183500D01*
X105465000Y-103148587D01*
X105630336Y-103080102D01*
X105779135Y-102980678D01*
X105905678Y-102854135D01*
X105910733Y-102846568D01*
X105965209Y-102801041D01*
X106035652Y-102792192D01*
X106099697Y-102822832D01*
X106137009Y-102883234D01*
X106141499Y-102916570D01*
X106141499Y-107474706D01*
X106163748Y-107586558D01*
X106170648Y-107621246D01*
X106227825Y-107759283D01*
X106310833Y-107883514D01*
X106310837Y-107883518D01*
X107944290Y-109516971D01*
X107978316Y-109579283D01*
X107973251Y-109650098D01*
X107944290Y-109695161D01*
X106848595Y-110790856D01*
X106786283Y-110824882D01*
X106715468Y-110819817D01*
X106658632Y-110777270D01*
X106633821Y-110710750D01*
X106633500Y-110701761D01*
X106633500Y-109953503D01*
X106653502Y-109885382D01*
X106670405Y-109864408D01*
X106705678Y-109829135D01*
X106805102Y-109680336D01*
X106873587Y-109515000D01*
X106908500Y-109339479D01*
X106908500Y-109160521D01*
X106873587Y-108985000D01*
X106805102Y-108819664D01*
X106705678Y-108670865D01*
X106579135Y-108544322D01*
X106430336Y-108444898D01*
X106281139Y-108383098D01*
X106265003Y-108376414D01*
X106265001Y-108376413D01*
X106265000Y-108376413D01*
X106176645Y-108358838D01*
X106089481Y-108341500D01*
X106089479Y-108341500D01*
X105910521Y-108341500D01*
X105910518Y-108341500D01*
X105779771Y-108367507D01*
X105735000Y-108376413D01*
X105734999Y-108376413D01*
X105734996Y-108376414D01*
X105603902Y-108430716D01*
X105577571Y-108441623D01*
X105569662Y-108444899D01*
X105420869Y-108544319D01*
X105420862Y-108544324D01*
X105294324Y-108670862D01*
X105294319Y-108670869D01*
X105194899Y-108819662D01*
X105126414Y-108984996D01*
X105126413Y-108984999D01*
X105126413Y-108985000D01*
X105121530Y-109009550D01*
X105091500Y-109160518D01*
X105091500Y-109339481D01*
X105096411Y-109364169D01*
X105126413Y-109515000D01*
X105194898Y-109680336D01*
X105294322Y-109829135D01*
X105294324Y-109829137D01*
X105329595Y-109864408D01*
X105363621Y-109926720D01*
X105366500Y-109953503D01*
X105366500Y-119046430D01*
X105346498Y-119114551D01*
X105292842Y-119161044D01*
X105222568Y-119171148D01*
X105201563Y-119166263D01*
X105079710Y-119126670D01*
X104860809Y-119092000D01*
X104639191Y-119092000D01*
X104420289Y-119126670D01*
X104209516Y-119195155D01*
X104209514Y-119195156D01*
X104012043Y-119295772D01*
X103950035Y-119340823D01*
X103950035Y-119340825D01*
X104625052Y-120015842D01*
X104557007Y-120034075D01*
X104442993Y-120099901D01*
X104349901Y-120192993D01*
X104284075Y-120307007D01*
X104265842Y-120375052D01*
X103590825Y-119700035D01*
X103590823Y-119700035D01*
X103545772Y-119762043D01*
X103445156Y-119959514D01*
X103445155Y-119959516D01*
X103376670Y-120170289D01*
X103342000Y-120389191D01*
X103342000Y-120610808D01*
X103376670Y-120829710D01*
X103445155Y-121040483D01*
X103445156Y-121040485D01*
X103545770Y-121237952D01*
X103590824Y-121299963D01*
X104265841Y-120624946D01*
X104284075Y-120692993D01*
X104349901Y-120807007D01*
X104442993Y-120900099D01*
X104557007Y-120965925D01*
X104625051Y-120984157D01*
X103950035Y-121659173D01*
X103950035Y-121659174D01*
X104012047Y-121704229D01*
X104209514Y-121804843D01*
X104209516Y-121804844D01*
X104420289Y-121873329D01*
X104639191Y-121908000D01*
X104860809Y-121908000D01*
X105079710Y-121873329D01*
X105201563Y-121833737D01*
X105272531Y-121831709D01*
X105333329Y-121868372D01*
X105364655Y-121932084D01*
X105366500Y-121953570D01*
X105366500Y-139546497D01*
X105346498Y-139614618D01*
X105329595Y-139635592D01*
X105294324Y-139670862D01*
X105294319Y-139670869D01*
X105194899Y-139819662D01*
X105126414Y-139984996D01*
X105091500Y-140160518D01*
X105091500Y-140160521D01*
X105091500Y-140339479D01*
X105126413Y-140515000D01*
X105194898Y-140680336D01*
X105294322Y-140829135D01*
X105420865Y-140955678D01*
X105569664Y-141055102D01*
X105735000Y-141123587D01*
X105910521Y-141158500D01*
X105910522Y-141158500D01*
X106089478Y-141158500D01*
X106089479Y-141158500D01*
X106265000Y-141123587D01*
X106430336Y-141055102D01*
X106579135Y-140955678D01*
X106705678Y-140829135D01*
X106805102Y-140680336D01*
X106873587Y-140515000D01*
X106908500Y-140339479D01*
X106908500Y-140160521D01*
X106873587Y-139985000D01*
X106805102Y-139819664D01*
X106705678Y-139670865D01*
X106670405Y-139635592D01*
X106636379Y-139573280D01*
X106633500Y-139546497D01*
X106633500Y-138859152D01*
X109492000Y-138859152D01*
X109492000Y-139140847D01*
X109523539Y-139420771D01*
X109586223Y-139695404D01*
X109679252Y-139961264D01*
X109679263Y-139961291D01*
X109801482Y-140215082D01*
X109951352Y-140453598D01*
X109951356Y-140453604D01*
X110055985Y-140584802D01*
X110055986Y-140584803D01*
X111135160Y-139505629D01*
X111223249Y-139637463D01*
X111362537Y-139776751D01*
X111494369Y-139864838D01*
X110415195Y-140944012D01*
X110415196Y-140944013D01*
X110546395Y-141048643D01*
X110546401Y-141048647D01*
X110784917Y-141198517D01*
X111038708Y-141320736D01*
X111038735Y-141320747D01*
X111304595Y-141413776D01*
X111579229Y-141476460D01*
X111579226Y-141476460D01*
X111859152Y-141508000D01*
X112140848Y-141508000D01*
X112420771Y-141476460D01*
X112695404Y-141413776D01*
X112961264Y-141320747D01*
X112961291Y-141320736D01*
X113215082Y-141198516D01*
X113453587Y-141048655D01*
X113453596Y-141048648D01*
X113584802Y-140944013D01*
X113584803Y-140944012D01*
X112505630Y-139864839D01*
X112637463Y-139776751D01*
X112776751Y-139637463D01*
X112864839Y-139505630D01*
X113944012Y-140584803D01*
X113944013Y-140584802D01*
X114048648Y-140453596D01*
X114048655Y-140453587D01*
X114198516Y-140215082D01*
X114320736Y-139961291D01*
X114320747Y-139961264D01*
X114413776Y-139695404D01*
X114476460Y-139420771D01*
X114508000Y-139140847D01*
X114508000Y-138859152D01*
X114476460Y-138579228D01*
X114413776Y-138304595D01*
X114320747Y-138038735D01*
X114320736Y-138038708D01*
X114198517Y-137784917D01*
X114048647Y-137546401D01*
X114048643Y-137546395D01*
X113944013Y-137415196D01*
X113944012Y-137415195D01*
X112864838Y-138494369D01*
X112776751Y-138362537D01*
X112637463Y-138223249D01*
X112505629Y-138135160D01*
X113584803Y-137055986D01*
X113584802Y-137055985D01*
X113453604Y-136951356D01*
X113453598Y-136951352D01*
X113215082Y-136801482D01*
X112961291Y-136679263D01*
X112961264Y-136679252D01*
X112695404Y-136586223D01*
X112420770Y-136523539D01*
X112420773Y-136523539D01*
X112140848Y-136492000D01*
X111859152Y-136492000D01*
X111579228Y-136523539D01*
X111304595Y-136586223D01*
X111038735Y-136679252D01*
X111038708Y-136679263D01*
X110784917Y-136801482D01*
X110546401Y-136951352D01*
X110546395Y-136951356D01*
X110415196Y-137055985D01*
X110415196Y-137055987D01*
X111494369Y-138135160D01*
X111362537Y-138223249D01*
X111223249Y-138362537D01*
X111135160Y-138494369D01*
X110055987Y-137415196D01*
X110055985Y-137415196D01*
X109951356Y-137546395D01*
X109951352Y-137546401D01*
X109801482Y-137784917D01*
X109679263Y-138038708D01*
X109679252Y-138038735D01*
X109586223Y-138304595D01*
X109523539Y-138579228D01*
X109492000Y-138859152D01*
X106633500Y-138859152D01*
X106633500Y-131986402D01*
X115898827Y-131986402D01*
X115898827Y-132746000D01*
X116766778Y-132746000D01*
X116735269Y-132822069D01*
X116711827Y-132939920D01*
X116711827Y-133060080D01*
X116735269Y-133177931D01*
X116766778Y-133254000D01*
X115898827Y-133254000D01*
X115898827Y-134013597D01*
X115905332Y-134074093D01*
X115956382Y-134210964D01*
X115956382Y-134210965D01*
X116043922Y-134327904D01*
X116160861Y-134415444D01*
X116297733Y-134466494D01*
X116358229Y-134472999D01*
X116358242Y-134473000D01*
X117067827Y-134473000D01*
X117067827Y-133555049D01*
X117143896Y-133586558D01*
X117261747Y-133610000D01*
X117381907Y-133610000D01*
X117499758Y-133586558D01*
X117575827Y-133555049D01*
X117575827Y-134473000D01*
X118285412Y-134473000D01*
X118285424Y-134472999D01*
X118345920Y-134466494D01*
X118482791Y-134415444D01*
X118482792Y-134415444D01*
X118599731Y-134327904D01*
X118687271Y-134210965D01*
X118687271Y-134210964D01*
X118738321Y-134074093D01*
X118744826Y-134013597D01*
X118744827Y-134013585D01*
X118744827Y-133254000D01*
X117876876Y-133254000D01*
X117908385Y-133177931D01*
X117931827Y-133060080D01*
X117931827Y-132939920D01*
X117908385Y-132822069D01*
X117876876Y-132746000D01*
X118744827Y-132746000D01*
X118744827Y-131986414D01*
X118744826Y-131986402D01*
X118738321Y-131925906D01*
X118687271Y-131789035D01*
X118687271Y-131789034D01*
X118599731Y-131672095D01*
X118482792Y-131584555D01*
X118345920Y-131533505D01*
X118285424Y-131527000D01*
X117575827Y-131527000D01*
X117575827Y-132444950D01*
X117499758Y-132413442D01*
X117381907Y-132390000D01*
X117261747Y-132390000D01*
X117143896Y-132413442D01*
X117067827Y-132444950D01*
X117067827Y-131527000D01*
X116358229Y-131527000D01*
X116297733Y-131533505D01*
X116160862Y-131584555D01*
X116160861Y-131584555D01*
X116043922Y-131672095D01*
X115956382Y-131789034D01*
X115956382Y-131789035D01*
X115905332Y-131925906D01*
X115898827Y-131986402D01*
X106633500Y-131986402D01*
X106633500Y-129520367D01*
X108791500Y-129520367D01*
X108791500Y-129520370D01*
X108791500Y-129679630D01*
X108822570Y-129835831D01*
X108883517Y-129982968D01*
X108971997Y-130115389D01*
X108971998Y-130115390D01*
X108972003Y-130115396D01*
X109084603Y-130227996D01*
X109084609Y-130228001D01*
X109084611Y-130228003D01*
X109217032Y-130316483D01*
X109364169Y-130377430D01*
X109520370Y-130408500D01*
X109520371Y-130408500D01*
X109679629Y-130408500D01*
X109679630Y-130408500D01*
X109835831Y-130377430D01*
X109982968Y-130316483D01*
X110115389Y-130228003D01*
X110228003Y-130115389D01*
X110316483Y-129982968D01*
X110377430Y-129835831D01*
X110408500Y-129679630D01*
X110408500Y-129520370D01*
X110408216Y-129517489D01*
X110408500Y-129515990D01*
X110408500Y-129514180D01*
X110408843Y-129514180D01*
X110421439Y-129447735D01*
X110444510Y-129416038D01*
X110818175Y-129042373D01*
X110880485Y-129008350D01*
X110882671Y-129007894D01*
X111035831Y-128977430D01*
X111182968Y-128916483D01*
X111315389Y-128828003D01*
X111428003Y-128715389D01*
X111516483Y-128582968D01*
X111577430Y-128435831D01*
X111608500Y-128279630D01*
X111608500Y-128120370D01*
X111577430Y-127964169D01*
X111516483Y-127817032D01*
X111428003Y-127684611D01*
X111428001Y-127684609D01*
X111427996Y-127684603D01*
X111315396Y-127572003D01*
X111315390Y-127571998D01*
X111315389Y-127571997D01*
X111182968Y-127483517D01*
X111035831Y-127422570D01*
X110957730Y-127407035D01*
X110879632Y-127391500D01*
X110879630Y-127391500D01*
X110720370Y-127391500D01*
X110720367Y-127391500D01*
X110603219Y-127414802D01*
X110564169Y-127422570D01*
X110564167Y-127422571D01*
X110417032Y-127483517D01*
X110284609Y-127571998D01*
X110284603Y-127572003D01*
X110172003Y-127684603D01*
X110171998Y-127684609D01*
X110083517Y-127817032D01*
X110022571Y-127964167D01*
X110022570Y-127964170D01*
X109992107Y-128117313D01*
X109959199Y-128180223D01*
X109957623Y-128181827D01*
X109301162Y-128838287D01*
X109260289Y-128865598D01*
X109217032Y-128883517D01*
X109217031Y-128883517D01*
X109084609Y-128971998D01*
X109084603Y-128972003D01*
X108972003Y-129084603D01*
X108971998Y-129084609D01*
X108883517Y-129217032D01*
X108822571Y-129364167D01*
X108822570Y-129364170D01*
X108791500Y-129520367D01*
X106633500Y-129520367D01*
X106633500Y-127926054D01*
X106653502Y-127857933D01*
X106707158Y-127811440D01*
X106734917Y-127802475D01*
X106860831Y-127777430D01*
X107007968Y-127716483D01*
X107140389Y-127628003D01*
X107253003Y-127515389D01*
X107341483Y-127382968D01*
X107402430Y-127235831D01*
X107433500Y-127079630D01*
X107433500Y-126920370D01*
X107402430Y-126764169D01*
X107341483Y-126617032D01*
X107254733Y-126487201D01*
X107233520Y-126419449D01*
X107233500Y-126417201D01*
X107233500Y-126279239D01*
X107253502Y-126211118D01*
X107270399Y-126190149D01*
X107618175Y-125842373D01*
X107680484Y-125808351D01*
X107682672Y-125807894D01*
X107835831Y-125777430D01*
X107982968Y-125716483D01*
X108115389Y-125628003D01*
X108228003Y-125515389D01*
X108316483Y-125382968D01*
X108377430Y-125235831D01*
X108407892Y-125082685D01*
X108440799Y-125019776D01*
X108442263Y-125018285D01*
X109036922Y-124423627D01*
X109117032Y-124284873D01*
X109158500Y-124130110D01*
X109158500Y-123969890D01*
X109158500Y-121962218D01*
X109178502Y-121894097D01*
X109232158Y-121847604D01*
X109302432Y-121837500D01*
X109323430Y-121842383D01*
X109420176Y-121873818D01*
X109639149Y-121908500D01*
X109639152Y-121908500D01*
X109860848Y-121908500D01*
X109860851Y-121908500D01*
X110079824Y-121873818D01*
X110290676Y-121805308D01*
X110488215Y-121704657D01*
X110667576Y-121574343D01*
X110824343Y-121417576D01*
X110954657Y-121238215D01*
X111055308Y-121040676D01*
X111123818Y-120829824D01*
X111158500Y-120610851D01*
X111158500Y-120389149D01*
X111123818Y-120170176D01*
X111055308Y-119959324D01*
X110954657Y-119761785D01*
X110824343Y-119582424D01*
X110824341Y-119582421D01*
X110667578Y-119425658D01*
X110488218Y-119295345D01*
X110488217Y-119295344D01*
X110488215Y-119295343D01*
X110290676Y-119194692D01*
X110290673Y-119194691D01*
X110290671Y-119194690D01*
X110079829Y-119126183D01*
X110079825Y-119126182D01*
X110079824Y-119126182D01*
X109860851Y-119091500D01*
X109639149Y-119091500D01*
X109440399Y-119122979D01*
X109420170Y-119126183D01*
X109323436Y-119157614D01*
X109252468Y-119159641D01*
X109191670Y-119122979D01*
X109160345Y-119059266D01*
X109158500Y-119037781D01*
X109158500Y-115608594D01*
X109178502Y-115540473D01*
X109232158Y-115493980D01*
X109302432Y-115483876D01*
X109367012Y-115513370D01*
X109373595Y-115519499D01*
X120929595Y-127075499D01*
X120963621Y-127137811D01*
X120966500Y-127164594D01*
X120966500Y-130780285D01*
X120946498Y-130848406D01*
X120892842Y-130894899D01*
X120822568Y-130905003D01*
X120801564Y-130900118D01*
X120716530Y-130872489D01*
X120716534Y-130872489D01*
X120680113Y-130866720D01*
X120520873Y-130841500D01*
X120322781Y-130841500D01*
X120127127Y-130872488D01*
X120127124Y-130872488D01*
X120127123Y-130872489D01*
X119938730Y-130933702D01*
X119938728Y-130933703D01*
X119762225Y-131023636D01*
X119601966Y-131140071D01*
X119461898Y-131280139D01*
X119345463Y-131440398D01*
X119294007Y-131541386D01*
X119255529Y-131616903D01*
X119194315Y-131805300D01*
X119163327Y-132000954D01*
X119163327Y-133999046D01*
X119194315Y-134194700D01*
X119255529Y-134383097D01*
X119301337Y-134473000D01*
X119345463Y-134559601D01*
X119461898Y-134719860D01*
X119601966Y-134859928D01*
X119707240Y-134936414D01*
X119762229Y-134976366D01*
X119938730Y-135066298D01*
X120127127Y-135127512D01*
X120322781Y-135158500D01*
X120322784Y-135158500D01*
X120520870Y-135158500D01*
X120520873Y-135158500D01*
X120716527Y-135127512D01*
X120801566Y-135099880D01*
X120872530Y-135097853D01*
X120933328Y-135134515D01*
X120964654Y-135198227D01*
X120966500Y-135219714D01*
X120966500Y-137849932D01*
X120946498Y-137918053D01*
X120910504Y-137954696D01*
X120884608Y-137971999D01*
X120884603Y-137972003D01*
X120772003Y-138084603D01*
X120771998Y-138084609D01*
X120683517Y-138217032D01*
X120622571Y-138364167D01*
X120622570Y-138364170D01*
X120591500Y-138520367D01*
X120591500Y-138520370D01*
X120591500Y-138679630D01*
X120622570Y-138835831D01*
X120683517Y-138982968D01*
X120771997Y-139115389D01*
X120771998Y-139115390D01*
X120772003Y-139115396D01*
X120884603Y-139227996D01*
X120884609Y-139228001D01*
X120884611Y-139228003D01*
X121017032Y-139316483D01*
X121164169Y-139377430D01*
X121320370Y-139408500D01*
X121320371Y-139408500D01*
X121479629Y-139408500D01*
X121479630Y-139408500D01*
X121635831Y-139377430D01*
X121782968Y-139316483D01*
X121915389Y-139228003D01*
X122028003Y-139115389D01*
X122116483Y-138982968D01*
X122177430Y-138835831D01*
X122208500Y-138679630D01*
X122208500Y-138600487D01*
X122210921Y-138575905D01*
X122233500Y-138462393D01*
X122233500Y-138337606D01*
X122233500Y-134206720D01*
X122253502Y-134138599D01*
X122307158Y-134092106D01*
X122377432Y-134082002D01*
X122442012Y-134111496D01*
X122459462Y-134130016D01*
X122479900Y-134156652D01*
X122479919Y-134156673D01*
X122642153Y-134318907D01*
X122642174Y-134318926D01*
X122824211Y-134458608D01*
X122824218Y-134458613D01*
X123022926Y-134573337D01*
X123022930Y-134573338D01*
X123022939Y-134573344D01*
X123234940Y-134661158D01*
X123456589Y-134720548D01*
X123456593Y-134720548D01*
X123456595Y-134720549D01*
X123515225Y-134728267D01*
X123684093Y-134750500D01*
X123684100Y-134750500D01*
X123913554Y-134750500D01*
X123913561Y-134750500D01*
X124119172Y-134723430D01*
X124141058Y-134720549D01*
X124141058Y-134720548D01*
X124141065Y-134720548D01*
X124362714Y-134661158D01*
X124574715Y-134573344D01*
X124773439Y-134458611D01*
X124955488Y-134318919D01*
X125117746Y-134156661D01*
X125257438Y-133974612D01*
X125372171Y-133775888D01*
X125459985Y-133563887D01*
X125519375Y-133342238D01*
X125549327Y-133114734D01*
X125549327Y-132885266D01*
X125519375Y-132657762D01*
X125459985Y-132436113D01*
X125372171Y-132224112D01*
X125372165Y-132224103D01*
X125372164Y-132224099D01*
X125257440Y-132025391D01*
X125257435Y-132025384D01*
X125117753Y-131843347D01*
X125117734Y-131843326D01*
X124955500Y-131681092D01*
X124955479Y-131681073D01*
X124773442Y-131541391D01*
X124773435Y-131541386D01*
X124574727Y-131426662D01*
X124574719Y-131426658D01*
X124574715Y-131426656D01*
X124362714Y-131338842D01*
X124211328Y-131298278D01*
X124141058Y-131279450D01*
X123913563Y-131249500D01*
X123913561Y-131249500D01*
X123684093Y-131249500D01*
X123684090Y-131249500D01*
X123456595Y-131279450D01*
X123234940Y-131338842D01*
X123022937Y-131426657D01*
X123022926Y-131426662D01*
X122824218Y-131541386D01*
X122824211Y-131541391D01*
X122642174Y-131681073D01*
X122642153Y-131681092D01*
X122479919Y-131843326D01*
X122479904Y-131843343D01*
X122459461Y-131869985D01*
X122402122Y-131911851D01*
X122331251Y-131916072D01*
X122269349Y-131881306D01*
X122236069Y-131818593D01*
X122233500Y-131793279D01*
X122233500Y-126787607D01*
X122233499Y-126787603D01*
X122228838Y-126764169D01*
X122209155Y-126665215D01*
X122189197Y-126617032D01*
X122161401Y-126549925D01*
X122092072Y-126446167D01*
X116334000Y-120688095D01*
X116299974Y-120625783D01*
X116305039Y-120554968D01*
X116347586Y-120498132D01*
X116414106Y-120473321D01*
X116423095Y-120473000D01*
X117067827Y-120473000D01*
X117067827Y-119555049D01*
X117143896Y-119586558D01*
X117261747Y-119610000D01*
X117381907Y-119610000D01*
X117499758Y-119586558D01*
X117575827Y-119555049D01*
X117575827Y-120473000D01*
X117990500Y-120473000D01*
X118058621Y-120493002D01*
X118105114Y-120546658D01*
X118116500Y-120599000D01*
X118116500Y-120696497D01*
X118096498Y-120764618D01*
X118079595Y-120785592D01*
X118044324Y-120820862D01*
X118044319Y-120820869D01*
X117944899Y-120969662D01*
X117876414Y-121134996D01*
X117841500Y-121310518D01*
X117841500Y-121310521D01*
X117841500Y-121489479D01*
X117876413Y-121665000D01*
X117944898Y-121830336D01*
X118044322Y-121979135D01*
X118170865Y-122105678D01*
X118319664Y-122205102D01*
X118485000Y-122273587D01*
X118660521Y-122308500D01*
X118660522Y-122308500D01*
X118839478Y-122308500D01*
X118839479Y-122308500D01*
X119015000Y-122273587D01*
X119180336Y-122205102D01*
X119329135Y-122105678D01*
X119455678Y-121979135D01*
X119555102Y-121830336D01*
X119623587Y-121665000D01*
X119658500Y-121489479D01*
X119658500Y-121310521D01*
X119623587Y-121135000D01*
X119623584Y-121134993D01*
X119623516Y-121134650D01*
X119629844Y-121063936D01*
X119673398Y-121007869D01*
X119740350Y-120984249D01*
X119804297Y-120997800D01*
X119938730Y-121066298D01*
X120127127Y-121127512D01*
X120322781Y-121158500D01*
X120322784Y-121158500D01*
X120520870Y-121158500D01*
X120520873Y-121158500D01*
X120716527Y-121127512D01*
X120904924Y-121066298D01*
X121081425Y-120976366D01*
X121241685Y-120859930D01*
X121381757Y-120719858D01*
X121498193Y-120559598D01*
X121588125Y-120383097D01*
X121649339Y-120194700D01*
X121680327Y-119999046D01*
X121680327Y-118885263D01*
X122048327Y-118885263D01*
X122048327Y-119114736D01*
X122078277Y-119342231D01*
X122078279Y-119342238D01*
X122137669Y-119563887D01*
X122225483Y-119775888D01*
X122225484Y-119775889D01*
X122225489Y-119775900D01*
X122340213Y-119974608D01*
X122340218Y-119974615D01*
X122479900Y-120156652D01*
X122479919Y-120156673D01*
X122642153Y-120318907D01*
X122642174Y-120318926D01*
X122824211Y-120458608D01*
X122824218Y-120458613D01*
X123022926Y-120573337D01*
X123022930Y-120573338D01*
X123022939Y-120573344D01*
X123234940Y-120661158D01*
X123456589Y-120720548D01*
X123456593Y-120720548D01*
X123456595Y-120720549D01*
X123515225Y-120728267D01*
X123684093Y-120750500D01*
X123684100Y-120750500D01*
X123913554Y-120750500D01*
X123913561Y-120750500D01*
X124119172Y-120723430D01*
X124141058Y-120720549D01*
X124141058Y-120720548D01*
X124141065Y-120720548D01*
X124362714Y-120661158D01*
X124574715Y-120573344D01*
X124773439Y-120458611D01*
X124955488Y-120318919D01*
X125117746Y-120156661D01*
X125257438Y-119974612D01*
X125372171Y-119775888D01*
X125459985Y-119563887D01*
X125519375Y-119342238D01*
X125549327Y-119114734D01*
X125549327Y-118885266D01*
X125519375Y-118657762D01*
X125459985Y-118436113D01*
X125372171Y-118224112D01*
X125372165Y-118224103D01*
X125372164Y-118224099D01*
X125257440Y-118025391D01*
X125257435Y-118025384D01*
X125117753Y-117843347D01*
X125117734Y-117843326D01*
X124955500Y-117681092D01*
X124955479Y-117681073D01*
X124773442Y-117541391D01*
X124773435Y-117541386D01*
X124574727Y-117426662D01*
X124574719Y-117426658D01*
X124574715Y-117426656D01*
X124362714Y-117338842D01*
X124211328Y-117298278D01*
X124141058Y-117279450D01*
X123913563Y-117249500D01*
X123913561Y-117249500D01*
X123684093Y-117249500D01*
X123684090Y-117249500D01*
X123456595Y-117279450D01*
X123234940Y-117338842D01*
X123022937Y-117426657D01*
X123022926Y-117426662D01*
X122824218Y-117541386D01*
X122824211Y-117541391D01*
X122642174Y-117681073D01*
X122642153Y-117681092D01*
X122479919Y-117843326D01*
X122479900Y-117843347D01*
X122340218Y-118025384D01*
X122340213Y-118025391D01*
X122225489Y-118224099D01*
X122225484Y-118224110D01*
X122225483Y-118224112D01*
X122195500Y-118296497D01*
X122137669Y-118436113D01*
X122078277Y-118657768D01*
X122048327Y-118885263D01*
X121680327Y-118885263D01*
X121680327Y-118000954D01*
X121649339Y-117805300D01*
X121588125Y-117616903D01*
X121498193Y-117440402D01*
X121381757Y-117280142D01*
X121381755Y-117280139D01*
X121241687Y-117140071D01*
X121081428Y-117023636D01*
X121081427Y-117023635D01*
X121081425Y-117023634D01*
X120904924Y-116933702D01*
X120716527Y-116872488D01*
X120520873Y-116841500D01*
X120322781Y-116841500D01*
X120127127Y-116872488D01*
X120127124Y-116872488D01*
X120127123Y-116872489D01*
X119938730Y-116933702D01*
X119938728Y-116933703D01*
X119762225Y-117023636D01*
X119601966Y-117140071D01*
X119601963Y-117140074D01*
X119598595Y-117143443D01*
X119536283Y-117177469D01*
X119465468Y-117172404D01*
X119408632Y-117129857D01*
X119383821Y-117063337D01*
X119383500Y-117054348D01*
X119383500Y-116764593D01*
X119403502Y-116696472D01*
X119420400Y-116675503D01*
X121862308Y-114233594D01*
X121924618Y-114199571D01*
X121926752Y-114199126D01*
X122035831Y-114177430D01*
X122035834Y-114177428D01*
X122035837Y-114177428D01*
X122182963Y-114116485D01*
X122182962Y-114116485D01*
X122182968Y-114116483D01*
X122315389Y-114028003D01*
X122428003Y-113915389D01*
X122516483Y-113782968D01*
X122577430Y-113635831D01*
X122608500Y-113479630D01*
X122608500Y-113320370D01*
X122577430Y-113164169D01*
X122516483Y-113017032D01*
X122428003Y-112884611D01*
X122428001Y-112884609D01*
X122427996Y-112884603D01*
X122315396Y-112772003D01*
X122315390Y-112771998D01*
X122315389Y-112771997D01*
X122182968Y-112683517D01*
X122035831Y-112622570D01*
X121957730Y-112607035D01*
X121879632Y-112591500D01*
X121879630Y-112591500D01*
X121720370Y-112591500D01*
X121720367Y-112591500D01*
X121603219Y-112614802D01*
X121564169Y-112622570D01*
X121564167Y-112622571D01*
X121417032Y-112683517D01*
X121284609Y-112771998D01*
X121284603Y-112772003D01*
X121172003Y-112884603D01*
X121171998Y-112884609D01*
X121083517Y-113017032D01*
X121022570Y-113164169D01*
X121000886Y-113273179D01*
X120967978Y-113336089D01*
X120966402Y-113337692D01*
X118346167Y-115957929D01*
X118257931Y-116046164D01*
X118257926Y-116046171D01*
X118188601Y-116149923D01*
X118140846Y-116265212D01*
X118116500Y-116387603D01*
X118116500Y-117401000D01*
X118096498Y-117469121D01*
X118042842Y-117515614D01*
X117990500Y-117527000D01*
X117575827Y-117527000D01*
X117575827Y-118444950D01*
X117499758Y-118413442D01*
X117381907Y-118390000D01*
X117261747Y-118390000D01*
X117143896Y-118413442D01*
X117067827Y-118444950D01*
X117067827Y-117527000D01*
X116358229Y-117527000D01*
X116297733Y-117533505D01*
X116160862Y-117584555D01*
X116160861Y-117584555D01*
X116043922Y-117672095D01*
X115956382Y-117789034D01*
X115956382Y-117789035D01*
X115905332Y-117925906D01*
X115898827Y-117986402D01*
X115898827Y-118309824D01*
X115878825Y-118377945D01*
X115825169Y-118424438D01*
X115754895Y-118434542D01*
X115690315Y-118405048D01*
X115683732Y-118398919D01*
X115670405Y-118385592D01*
X115636379Y-118323280D01*
X115633500Y-118296497D01*
X115633500Y-108437607D01*
X115633499Y-108437603D01*
X115609155Y-108315215D01*
X115561400Y-108199925D01*
X115492071Y-108096167D01*
X115403833Y-108007929D01*
X113382306Y-105986402D01*
X115898827Y-105986402D01*
X115898827Y-106746000D01*
X116766778Y-106746000D01*
X116735269Y-106822069D01*
X116711827Y-106939920D01*
X116711827Y-107060080D01*
X116735269Y-107177931D01*
X116766778Y-107254000D01*
X115898827Y-107254000D01*
X115898827Y-108013597D01*
X115905332Y-108074093D01*
X115956382Y-108210964D01*
X115956382Y-108210965D01*
X116043922Y-108327904D01*
X116160861Y-108415444D01*
X116297733Y-108466494D01*
X116358229Y-108472999D01*
X116358242Y-108473000D01*
X117067827Y-108473000D01*
X117067827Y-107555049D01*
X117143896Y-107586558D01*
X117261747Y-107610000D01*
X117381907Y-107610000D01*
X117499758Y-107586558D01*
X117575827Y-107555049D01*
X117575827Y-108473000D01*
X118285412Y-108473000D01*
X118285424Y-108472999D01*
X118345920Y-108466494D01*
X118482791Y-108415444D01*
X118482792Y-108415444D01*
X118599731Y-108327904D01*
X118687271Y-108210965D01*
X118687271Y-108210964D01*
X118738321Y-108074093D01*
X118744826Y-108013597D01*
X118744827Y-108013585D01*
X118744827Y-107254000D01*
X117876876Y-107254000D01*
X117908385Y-107177931D01*
X117931827Y-107060080D01*
X117931827Y-106939920D01*
X117908385Y-106822069D01*
X117876876Y-106746000D01*
X118744827Y-106746000D01*
X118744827Y-105986414D01*
X118744826Y-105986402D01*
X118738321Y-105925906D01*
X118687271Y-105789035D01*
X118687271Y-105789034D01*
X118599731Y-105672095D01*
X118482792Y-105584555D01*
X118345920Y-105533505D01*
X118285424Y-105527000D01*
X117575827Y-105527000D01*
X117575827Y-106444950D01*
X117499758Y-106413442D01*
X117381907Y-106390000D01*
X117261747Y-106390000D01*
X117143896Y-106413442D01*
X117067827Y-106444950D01*
X117067827Y-105527000D01*
X116358229Y-105527000D01*
X116297733Y-105533505D01*
X116160862Y-105584555D01*
X116160861Y-105584555D01*
X116043922Y-105672095D01*
X115956382Y-105789034D01*
X115956382Y-105789035D01*
X115905332Y-105925906D01*
X115898827Y-105986402D01*
X113382306Y-105986402D01*
X110195405Y-102799501D01*
X110161379Y-102737189D01*
X110158500Y-102710406D01*
X110158500Y-102660522D01*
X110158499Y-102660518D01*
X110134527Y-102540002D01*
X110123587Y-102485000D01*
X110055102Y-102319664D01*
X109955678Y-102170865D01*
X109829135Y-102044322D01*
X109680336Y-101944898D01*
X109563429Y-101896473D01*
X109515003Y-101876414D01*
X109515001Y-101876413D01*
X109515000Y-101876413D01*
X109426645Y-101858838D01*
X109339481Y-101841500D01*
X109339479Y-101841500D01*
X109160521Y-101841500D01*
X109160518Y-101841500D01*
X109029771Y-101867507D01*
X108985000Y-101876413D01*
X108984999Y-101876413D01*
X108984996Y-101876414D01*
X108819662Y-101944899D01*
X108670869Y-102044319D01*
X108670862Y-102044324D01*
X108598595Y-102116592D01*
X108536283Y-102150618D01*
X108465468Y-102145553D01*
X108408632Y-102103006D01*
X108383821Y-102036486D01*
X108383500Y-102027497D01*
X108383500Y-99789289D01*
X108403502Y-99721168D01*
X108420405Y-99700194D01*
X115683732Y-92436867D01*
X115746044Y-92402841D01*
X115816859Y-92407906D01*
X115873695Y-92450453D01*
X115898506Y-92516973D01*
X115898827Y-92525962D01*
X115898827Y-92746000D01*
X116766778Y-92746000D01*
X116735269Y-92822069D01*
X116711827Y-92939920D01*
X116711827Y-93060080D01*
X116735269Y-93177931D01*
X116766778Y-93254000D01*
X115898827Y-93254000D01*
X115898827Y-94013597D01*
X115905332Y-94074093D01*
X115956382Y-94210964D01*
X115956382Y-94210965D01*
X116043922Y-94327904D01*
X116160861Y-94415444D01*
X116297733Y-94466494D01*
X116358229Y-94472999D01*
X116358242Y-94473000D01*
X117067827Y-94473000D01*
X117067827Y-93555049D01*
X117143896Y-93586558D01*
X117261747Y-93610000D01*
X117381907Y-93610000D01*
X117499758Y-93586558D01*
X117575827Y-93555049D01*
X117575827Y-94473000D01*
X118285412Y-94473000D01*
X118285424Y-94472999D01*
X118345920Y-94466494D01*
X118482791Y-94415444D01*
X118482792Y-94415444D01*
X118599731Y-94327904D01*
X118687271Y-94210965D01*
X118687271Y-94210964D01*
X118738321Y-94074093D01*
X118744826Y-94013597D01*
X118744827Y-94013585D01*
X118744827Y-93254000D01*
X117876876Y-93254000D01*
X117908385Y-93177931D01*
X117931827Y-93060080D01*
X117931827Y-92939920D01*
X117908385Y-92822069D01*
X117876876Y-92746000D01*
X118744827Y-92746000D01*
X118744827Y-91986414D01*
X118744826Y-91986402D01*
X118738321Y-91925906D01*
X118687271Y-91789035D01*
X118687271Y-91789034D01*
X118599731Y-91672095D01*
X118482792Y-91584555D01*
X118345920Y-91533505D01*
X118285424Y-91527000D01*
X117575827Y-91527000D01*
X117575827Y-92444950D01*
X117499758Y-92413442D01*
X117381907Y-92390000D01*
X117261747Y-92390000D01*
X117143896Y-92413442D01*
X117067827Y-92444950D01*
X117067827Y-91527000D01*
X116897789Y-91527000D01*
X116829668Y-91506998D01*
X116783175Y-91453342D01*
X116773071Y-91383068D01*
X116802565Y-91318488D01*
X116808694Y-91311905D01*
X118644139Y-89476460D01*
X120602032Y-87518566D01*
X120664342Y-87484542D01*
X120735157Y-87489607D01*
X120791993Y-87532154D01*
X120816804Y-87598674D01*
X120812832Y-87640273D01*
X120791500Y-87719888D01*
X120791500Y-90736836D01*
X120771498Y-90804957D01*
X120717842Y-90851450D01*
X120647568Y-90861554D01*
X120645872Y-90861297D01*
X120520873Y-90841500D01*
X120322781Y-90841500D01*
X120127127Y-90872488D01*
X120127124Y-90872488D01*
X120127123Y-90872489D01*
X119938730Y-90933702D01*
X119938728Y-90933703D01*
X119762225Y-91023636D01*
X119601966Y-91140071D01*
X119461898Y-91280139D01*
X119345463Y-91440398D01*
X119255530Y-91616901D01*
X119255529Y-91616903D01*
X119218588Y-91730597D01*
X119194315Y-91805300D01*
X119163327Y-92000954D01*
X119163327Y-93999046D01*
X119194315Y-94194700D01*
X119255529Y-94383097D01*
X119301337Y-94473000D01*
X119345463Y-94559601D01*
X119461898Y-94719860D01*
X119601966Y-94859928D01*
X119657257Y-94900099D01*
X119762229Y-94976366D01*
X119938730Y-95066298D01*
X120127127Y-95127512D01*
X120322781Y-95158500D01*
X120322784Y-95158500D01*
X120520870Y-95158500D01*
X120520873Y-95158500D01*
X120716527Y-95127512D01*
X120826566Y-95091757D01*
X120897530Y-95089730D01*
X120958329Y-95126392D01*
X120989654Y-95190104D01*
X120991500Y-95211591D01*
X120991500Y-104788408D01*
X120971498Y-104856529D01*
X120917842Y-104903022D01*
X120847568Y-104913126D01*
X120826564Y-104908241D01*
X120716530Y-104872489D01*
X120716534Y-104872489D01*
X120680113Y-104866720D01*
X120520873Y-104841500D01*
X120322781Y-104841500D01*
X120127127Y-104872488D01*
X120127124Y-104872488D01*
X120127123Y-104872489D01*
X119938730Y-104933702D01*
X119938728Y-104933703D01*
X119762225Y-105023636D01*
X119601966Y-105140071D01*
X119461898Y-105280139D01*
X119345463Y-105440398D01*
X119294007Y-105541386D01*
X119255529Y-105616903D01*
X119194315Y-105805300D01*
X119163327Y-106000954D01*
X119163327Y-107999046D01*
X119194315Y-108194700D01*
X119255529Y-108383097D01*
X119345461Y-108559598D01*
X119345463Y-108559601D01*
X119461898Y-108719860D01*
X119601966Y-108859928D01*
X119685834Y-108920862D01*
X119762229Y-108976366D01*
X119938730Y-109066298D01*
X120127127Y-109127512D01*
X120322781Y-109158500D01*
X120322784Y-109158500D01*
X120519189Y-109158500D01*
X120587310Y-109178502D01*
X120633803Y-109232158D01*
X120643907Y-109302432D01*
X120635598Y-109332715D01*
X120622571Y-109364167D01*
X120622570Y-109364170D01*
X120591500Y-109520367D01*
X120591500Y-109679632D01*
X120594589Y-109695161D01*
X120622570Y-109835831D01*
X120683517Y-109982968D01*
X120771997Y-110115389D01*
X120771998Y-110115390D01*
X120772003Y-110115396D01*
X120884603Y-110227996D01*
X120884609Y-110228001D01*
X120884611Y-110228003D01*
X121017032Y-110316483D01*
X121164169Y-110377430D01*
X121320370Y-110408500D01*
X121320371Y-110408500D01*
X121479629Y-110408500D01*
X121479630Y-110408500D01*
X121635831Y-110377430D01*
X121782968Y-110316483D01*
X121915389Y-110228003D01*
X122028003Y-110115389D01*
X122116483Y-109982968D01*
X122177430Y-109835831D01*
X122208500Y-109679630D01*
X122208500Y-109520370D01*
X122177430Y-109364169D01*
X122116483Y-109217032D01*
X122029733Y-109087201D01*
X122008520Y-109019449D01*
X122008500Y-109017201D01*
X122008500Y-108710990D01*
X122028502Y-108642869D01*
X122045400Y-108621899D01*
X122086922Y-108580378D01*
X122167032Y-108441623D01*
X122197841Y-108326641D01*
X122208500Y-108286862D01*
X122208500Y-108174139D01*
X122228502Y-108106018D01*
X122282158Y-108059525D01*
X122352432Y-108049421D01*
X122417012Y-108078915D01*
X122434457Y-108097429D01*
X122479901Y-108156652D01*
X122479908Y-108156661D01*
X122479919Y-108156673D01*
X122642153Y-108318907D01*
X122642174Y-108318926D01*
X122824211Y-108458608D01*
X122824218Y-108458613D01*
X123022926Y-108573337D01*
X123022930Y-108573338D01*
X123022939Y-108573344D01*
X123234940Y-108661158D01*
X123456589Y-108720548D01*
X123456593Y-108720548D01*
X123456595Y-108720549D01*
X123515225Y-108728267D01*
X123684093Y-108750500D01*
X123684100Y-108750500D01*
X123913554Y-108750500D01*
X123913561Y-108750500D01*
X124119172Y-108723430D01*
X124141058Y-108720549D01*
X124141058Y-108720548D01*
X124141065Y-108720548D01*
X124362714Y-108661158D01*
X124574715Y-108573344D01*
X124773439Y-108458611D01*
X124955488Y-108318919D01*
X125117746Y-108156661D01*
X125257438Y-107974612D01*
X125372171Y-107775888D01*
X125459985Y-107563887D01*
X125519375Y-107342238D01*
X125549327Y-107114734D01*
X125549327Y-106885266D01*
X125519375Y-106657762D01*
X125459985Y-106436113D01*
X125372171Y-106224112D01*
X125372165Y-106224103D01*
X125372164Y-106224099D01*
X125257440Y-106025391D01*
X125257435Y-106025384D01*
X125117753Y-105843347D01*
X125117734Y-105843326D01*
X124955500Y-105681092D01*
X124955479Y-105681073D01*
X124773442Y-105541391D01*
X124773435Y-105541386D01*
X124574727Y-105426662D01*
X124574719Y-105426658D01*
X124574715Y-105426656D01*
X124362714Y-105338842D01*
X124211328Y-105298278D01*
X124141058Y-105279450D01*
X123913563Y-105249500D01*
X123913561Y-105249500D01*
X123684093Y-105249500D01*
X123684090Y-105249500D01*
X123456595Y-105279450D01*
X123234940Y-105338842D01*
X123022937Y-105426657D01*
X123022926Y-105426662D01*
X122824218Y-105541386D01*
X122824211Y-105541391D01*
X122642174Y-105681073D01*
X122642153Y-105681092D01*
X122479919Y-105843326D01*
X122479906Y-105843341D01*
X122434462Y-105902565D01*
X122377124Y-105944432D01*
X122306253Y-105948653D01*
X122244350Y-105913888D01*
X122211069Y-105851175D01*
X122208500Y-105825860D01*
X122208500Y-94174139D01*
X122228502Y-94106018D01*
X122282158Y-94059525D01*
X122352432Y-94049421D01*
X122417012Y-94078915D01*
X122434457Y-94097429D01*
X122467729Y-94140789D01*
X122479908Y-94156661D01*
X122479919Y-94156673D01*
X122642153Y-94318907D01*
X122642174Y-94318926D01*
X122824211Y-94458608D01*
X122824218Y-94458613D01*
X123022926Y-94573337D01*
X123022930Y-94573338D01*
X123022939Y-94573344D01*
X123234940Y-94661158D01*
X123456589Y-94720548D01*
X123456593Y-94720548D01*
X123456595Y-94720549D01*
X123515225Y-94728267D01*
X123684093Y-94750500D01*
X123684100Y-94750500D01*
X123913554Y-94750500D01*
X123913561Y-94750500D01*
X124119172Y-94723430D01*
X124141058Y-94720549D01*
X124141058Y-94720548D01*
X124141065Y-94720548D01*
X124362714Y-94661158D01*
X124574715Y-94573344D01*
X124773439Y-94458611D01*
X124955488Y-94318919D01*
X125117746Y-94156661D01*
X125257438Y-93974612D01*
X125372171Y-93775888D01*
X125459985Y-93563887D01*
X125519375Y-93342238D01*
X125549327Y-93114734D01*
X125549327Y-92885266D01*
X125519375Y-92657762D01*
X125459985Y-92436113D01*
X125372171Y-92224112D01*
X125372165Y-92224103D01*
X125372164Y-92224099D01*
X125257440Y-92025391D01*
X125257435Y-92025384D01*
X125117753Y-91843347D01*
X125117734Y-91843326D01*
X124955500Y-91681092D01*
X124955479Y-91681073D01*
X124773442Y-91541391D01*
X124773435Y-91541386D01*
X124574727Y-91426662D01*
X124574719Y-91426658D01*
X124574715Y-91426656D01*
X124362714Y-91338842D01*
X124211328Y-91298278D01*
X124141058Y-91279450D01*
X123913563Y-91249500D01*
X123913561Y-91249500D01*
X123684093Y-91249500D01*
X123684090Y-91249500D01*
X123456595Y-91279450D01*
X123234940Y-91338842D01*
X123128170Y-91383068D01*
X123022937Y-91426657D01*
X123022926Y-91426662D01*
X122824218Y-91541386D01*
X122824211Y-91541391D01*
X122642174Y-91681073D01*
X122642153Y-91681092D01*
X122479919Y-91843326D01*
X122479906Y-91843341D01*
X122434462Y-91902565D01*
X122377124Y-91944432D01*
X122306253Y-91948653D01*
X122244350Y-91913888D01*
X122211069Y-91851175D01*
X122208500Y-91825860D01*
X122208500Y-91319890D01*
X122208500Y-91319889D01*
X122167032Y-91165128D01*
X122086921Y-91026372D01*
X122086919Y-91026370D01*
X122086915Y-91026365D01*
X122045405Y-90984855D01*
X122011379Y-90922543D01*
X122008500Y-90895760D01*
X122008500Y-88104239D01*
X122028502Y-88036118D01*
X122045405Y-88015144D01*
X122970039Y-87090510D01*
X124018174Y-86042374D01*
X124080484Y-86008351D01*
X124082672Y-86007894D01*
X124235831Y-85977430D01*
X124382968Y-85916483D01*
X124515389Y-85828003D01*
X124628003Y-85715389D01*
X124716483Y-85582968D01*
X124777430Y-85435831D01*
X124808500Y-85279630D01*
X124808500Y-85120370D01*
X124777430Y-84964169D01*
X124716483Y-84817032D01*
X124628003Y-84684611D01*
X124628001Y-84684609D01*
X124627996Y-84684603D01*
X124515396Y-84572003D01*
X124515390Y-84571998D01*
X124442866Y-84523539D01*
X124382968Y-84483517D01*
X124295142Y-84447138D01*
X124239864Y-84402590D01*
X124217443Y-84335227D01*
X124235002Y-84266435D01*
X124254264Y-84241639D01*
X126563506Y-81932397D01*
X126582595Y-81916731D01*
X126582963Y-81916485D01*
X126582968Y-81916483D01*
X126715389Y-81828003D01*
X126828003Y-81715389D01*
X126916483Y-81582968D01*
X126977430Y-81435831D01*
X127008500Y-81279630D01*
X127008500Y-81120370D01*
X126977430Y-80964169D01*
X126916483Y-80817032D01*
X126828003Y-80684611D01*
X126828001Y-80684609D01*
X126827996Y-80684603D01*
X126715396Y-80572003D01*
X126715390Y-80571998D01*
X126715389Y-80571997D01*
X126582968Y-80483517D01*
X126435831Y-80422570D01*
X126357730Y-80407035D01*
X126279632Y-80391500D01*
X126279630Y-80391500D01*
X126120370Y-80391500D01*
X126120367Y-80391500D01*
X126010059Y-80413442D01*
X125964169Y-80422570D01*
X125817032Y-80483517D01*
X125684603Y-80572002D01*
X125681368Y-80574657D01*
X125616017Y-80602400D01*
X125546040Y-80590408D01*
X125493656Y-80542487D01*
X125479745Y-80509860D01*
X125459985Y-80436113D01*
X125372171Y-80224112D01*
X125372165Y-80224103D01*
X125372164Y-80224099D01*
X125257440Y-80025391D01*
X125257435Y-80025384D01*
X125117753Y-79843347D01*
X125117734Y-79843326D01*
X124955500Y-79681092D01*
X124955479Y-79681073D01*
X124773442Y-79541391D01*
X124773435Y-79541386D01*
X124574727Y-79426662D01*
X124574719Y-79426658D01*
X124574715Y-79426656D01*
X124362714Y-79338842D01*
X124211328Y-79298278D01*
X124141058Y-79279450D01*
X123913563Y-79249500D01*
X123913561Y-79249500D01*
X123684093Y-79249500D01*
X123684090Y-79249500D01*
X123456595Y-79279450D01*
X123257004Y-79332930D01*
X123234940Y-79338842D01*
X123036189Y-79421168D01*
X123022937Y-79426657D01*
X123022926Y-79426662D01*
X122824218Y-79541386D01*
X122824211Y-79541391D01*
X122642174Y-79681073D01*
X122642153Y-79681092D01*
X122479919Y-79843326D01*
X122479906Y-79843341D01*
X122461462Y-79867378D01*
X122404123Y-79909245D01*
X122333252Y-79913466D01*
X122271350Y-79878701D01*
X122238069Y-79815988D01*
X122235500Y-79790673D01*
X122235500Y-79492315D01*
X122255502Y-79424194D01*
X122272405Y-79403220D01*
X125813915Y-75861710D01*
X125813921Y-75861704D01*
X125894032Y-75722949D01*
X125914766Y-75645567D01*
X125935500Y-75568187D01*
X125935500Y-68392361D01*
X125955502Y-68324240D01*
X125972400Y-68303270D01*
X126135748Y-68139923D01*
X126215859Y-68001168D01*
X126257327Y-67846405D01*
X126257327Y-67686185D01*
X126257327Y-66153594D01*
X126215859Y-65998833D01*
X126135749Y-65860078D01*
X126135747Y-65860076D01*
X126135743Y-65860071D01*
X124345405Y-64069733D01*
X124311379Y-64007421D01*
X124308500Y-63980638D01*
X124308500Y-62034500D01*
X124328502Y-61966379D01*
X124382158Y-61919886D01*
X124434500Y-61908500D01*
X124489478Y-61908500D01*
X124489479Y-61908500D01*
X124665000Y-61873587D01*
X124830336Y-61805102D01*
X124979135Y-61705678D01*
X125105678Y-61579135D01*
X125205102Y-61430336D01*
X125273587Y-61265000D01*
X125308500Y-61089479D01*
X125308500Y-60910521D01*
X125273587Y-60735000D01*
X125205102Y-60569664D01*
X125105678Y-60420865D01*
X124979135Y-60294322D01*
X124830336Y-60194898D01*
X124713429Y-60146473D01*
X124665003Y-60126414D01*
X124665001Y-60126413D01*
X124665000Y-60126413D01*
X124576645Y-60108838D01*
X124489481Y-60091500D01*
X124489479Y-60091500D01*
X124434500Y-60091500D01*
X124366379Y-60071498D01*
X124319886Y-60017842D01*
X124308500Y-59965500D01*
X124308500Y-59419890D01*
X124308500Y-59419889D01*
X124287766Y-59342508D01*
X124267032Y-59265127D01*
X124226977Y-59195753D01*
X124226973Y-59195733D01*
X124226969Y-59195736D01*
X124225372Y-59192969D01*
X124208500Y-59129985D01*
X124208500Y-59120371D01*
X124208499Y-59120367D01*
X124177430Y-58964169D01*
X124116483Y-58817032D01*
X124028003Y-58684611D01*
X124028001Y-58684609D01*
X124027996Y-58684603D01*
X123915396Y-58572003D01*
X123915390Y-58571998D01*
X123915389Y-58571997D01*
X123782968Y-58483517D01*
X123635831Y-58422570D01*
X123557730Y-58407035D01*
X123479632Y-58391500D01*
X123479630Y-58391500D01*
X123320370Y-58391500D01*
X123320367Y-58391500D01*
X123203219Y-58414802D01*
X123164169Y-58422570D01*
X123164167Y-58422571D01*
X123017032Y-58483517D01*
X122884609Y-58571998D01*
X122884603Y-58572003D01*
X122772003Y-58684603D01*
X122771998Y-58684609D01*
X122750701Y-58716483D01*
X122683517Y-58817032D01*
X122627878Y-58951356D01*
X122622571Y-58964167D01*
X122622570Y-58964170D01*
X122591500Y-59120367D01*
X122591500Y-59120370D01*
X122591500Y-59279630D01*
X122622570Y-59435831D01*
X122683517Y-59582968D01*
X122771997Y-59715389D01*
X122771998Y-59715390D01*
X122772003Y-59715396D01*
X122884603Y-59827996D01*
X122884609Y-59828001D01*
X122884611Y-59828003D01*
X123017032Y-59916483D01*
X123022493Y-59919402D01*
X123021453Y-59921345D01*
X123068994Y-59959652D01*
X123091419Y-60027014D01*
X123091500Y-60031519D01*
X123091500Y-61965500D01*
X123071498Y-62033621D01*
X123017842Y-62080114D01*
X122965500Y-62091500D01*
X122910518Y-62091500D01*
X122779771Y-62117507D01*
X122735000Y-62126413D01*
X122734999Y-62126413D01*
X122734996Y-62126414D01*
X122569662Y-62194899D01*
X122420869Y-62294319D01*
X122420862Y-62294324D01*
X122294324Y-62420862D01*
X122294319Y-62420869D01*
X122194899Y-62569662D01*
X122126414Y-62734996D01*
X122091500Y-62910518D01*
X122091500Y-62960406D01*
X122071498Y-63028527D01*
X122054595Y-63049501D01*
X121107931Y-63996164D01*
X121107926Y-63996171D01*
X121038601Y-64099923D01*
X120990846Y-64215212D01*
X120966500Y-64337603D01*
X120966500Y-64780285D01*
X120946498Y-64848406D01*
X120892842Y-64894899D01*
X120822568Y-64905003D01*
X120801564Y-64900118D01*
X120716530Y-64872489D01*
X120716534Y-64872489D01*
X120680113Y-64866720D01*
X120520873Y-64841500D01*
X120322781Y-64841500D01*
X120127127Y-64872488D01*
X120127124Y-64872488D01*
X120127123Y-64872489D01*
X119938730Y-64933702D01*
X119938728Y-64933703D01*
X119762225Y-65023636D01*
X119601966Y-65140071D01*
X119461898Y-65280139D01*
X119436436Y-65315186D01*
X119380213Y-65358540D01*
X119309477Y-65364615D01*
X119246686Y-65331483D01*
X119211774Y-65269663D01*
X119208500Y-65241125D01*
X119208500Y-58919890D01*
X119187308Y-58840800D01*
X119167032Y-58765128D01*
X119136981Y-58713078D01*
X119120546Y-58684611D01*
X119086924Y-58626376D01*
X119086919Y-58626370D01*
X118843516Y-58382967D01*
X118442374Y-57981825D01*
X118408351Y-57919515D01*
X118407892Y-57917314D01*
X118377430Y-57764169D01*
X118316483Y-57617032D01*
X118228003Y-57484611D01*
X118228001Y-57484609D01*
X118227996Y-57484603D01*
X118115396Y-57372003D01*
X118115390Y-57371998D01*
X118115389Y-57371997D01*
X117982968Y-57283517D01*
X117835831Y-57222570D01*
X117757730Y-57207035D01*
X117679632Y-57191500D01*
X117679630Y-57191500D01*
X117520370Y-57191500D01*
X117520367Y-57191500D01*
X117403219Y-57214802D01*
X117364169Y-57222570D01*
X117364167Y-57222571D01*
X117217032Y-57283517D01*
X117084609Y-57371998D01*
X117084603Y-57372003D01*
X116972003Y-57484603D01*
X116971998Y-57484609D01*
X116883517Y-57617032D01*
X116822571Y-57764167D01*
X116822570Y-57764170D01*
X116791500Y-57920367D01*
X116791500Y-57920370D01*
X116791500Y-58079630D01*
X116822570Y-58235831D01*
X116883517Y-58382968D01*
X116971997Y-58515389D01*
X116971998Y-58515390D01*
X116972003Y-58515396D01*
X117084603Y-58627996D01*
X117084609Y-58628001D01*
X117084611Y-58628003D01*
X117217032Y-58716483D01*
X117364169Y-58777430D01*
X117517314Y-58807892D01*
X117580223Y-58840800D01*
X117581827Y-58842376D01*
X117954595Y-59215144D01*
X117988621Y-59277456D01*
X117991500Y-59304239D01*
X117991500Y-65401000D01*
X117971498Y-65469121D01*
X117917842Y-65515614D01*
X117865500Y-65527000D01*
X117575827Y-65527000D01*
X117575827Y-66444950D01*
X117499758Y-66413442D01*
X117381907Y-66390000D01*
X117261747Y-66390000D01*
X117143896Y-66413442D01*
X117067827Y-66444950D01*
X117067827Y-65527000D01*
X116358229Y-65527000D01*
X116297733Y-65533505D01*
X116160862Y-65584555D01*
X116160861Y-65584555D01*
X116043922Y-65672095D01*
X115956382Y-65789034D01*
X115956382Y-65789035D01*
X115905332Y-65925906D01*
X115898827Y-65986402D01*
X115898827Y-66746000D01*
X116766778Y-66746000D01*
X116735269Y-66822069D01*
X116711827Y-66939920D01*
X116711827Y-67060080D01*
X116735269Y-67177931D01*
X116766778Y-67254000D01*
X115898827Y-67254000D01*
X115898827Y-68013597D01*
X115905332Y-68074093D01*
X115956382Y-68210964D01*
X115956382Y-68210965D01*
X116043922Y-68327904D01*
X116160861Y-68415444D01*
X116297733Y-68466494D01*
X116358229Y-68472999D01*
X116358242Y-68473000D01*
X117067827Y-68473000D01*
X117067827Y-67555049D01*
X117143896Y-67586558D01*
X117261747Y-67610000D01*
X117381907Y-67610000D01*
X117499758Y-67586558D01*
X117575827Y-67555049D01*
X117575827Y-68473000D01*
X117865500Y-68473000D01*
X117933621Y-68493002D01*
X117980114Y-68546658D01*
X117991500Y-68599000D01*
X117991500Y-72417201D01*
X117971498Y-72485322D01*
X117970277Y-72487183D01*
X117934429Y-72540835D01*
X117883516Y-72617033D01*
X117868621Y-72652993D01*
X117822570Y-72764169D01*
X117814802Y-72803219D01*
X117791500Y-72920367D01*
X117791500Y-72920370D01*
X117791500Y-73079630D01*
X117822570Y-73235831D01*
X117883517Y-73382968D01*
X117912220Y-73425925D01*
X117971998Y-73515390D01*
X117972003Y-73515396D01*
X118084603Y-73627996D01*
X118084609Y-73628001D01*
X118084611Y-73628003D01*
X118217032Y-73716483D01*
X118364169Y-73777430D01*
X118520370Y-73808500D01*
X118520371Y-73808500D01*
X118679629Y-73808500D01*
X118679630Y-73808500D01*
X118835831Y-73777430D01*
X118982968Y-73716483D01*
X119115389Y-73628003D01*
X119228003Y-73515389D01*
X119316483Y-73382968D01*
X119377430Y-73235831D01*
X119408500Y-73079630D01*
X119408500Y-72920370D01*
X119377430Y-72764169D01*
X119316483Y-72617032D01*
X119229733Y-72487201D01*
X119208520Y-72419449D01*
X119208500Y-72417201D01*
X119208500Y-68758874D01*
X119228502Y-68690753D01*
X119282158Y-68644260D01*
X119352432Y-68634156D01*
X119417012Y-68663650D01*
X119436432Y-68684808D01*
X119461897Y-68719858D01*
X119461901Y-68719863D01*
X119601966Y-68859928D01*
X119657257Y-68900099D01*
X119762229Y-68976366D01*
X119938730Y-69066298D01*
X120127127Y-69127512D01*
X120322781Y-69158500D01*
X120322784Y-69158500D01*
X120520870Y-69158500D01*
X120520873Y-69158500D01*
X120716527Y-69127512D01*
X120801566Y-69099880D01*
X120872530Y-69097853D01*
X120933328Y-69134515D01*
X120964654Y-69198227D01*
X120966500Y-69219714D01*
X120966500Y-73644404D01*
X120946498Y-73712525D01*
X120929595Y-73733499D01*
X102373594Y-92289500D01*
X102311282Y-92323526D01*
X102240467Y-92318461D01*
X102183631Y-92275914D01*
X102158820Y-92209394D01*
X102158499Y-92200405D01*
X102158499Y-91730597D01*
X102178501Y-91662476D01*
X102195404Y-91641502D01*
X105317068Y-88519839D01*
X105317068Y-88519838D01*
X105317073Y-88519834D01*
X105386402Y-88416076D01*
X105434156Y-88300785D01*
X105446811Y-88237167D01*
X105458501Y-88178395D01*
X105458501Y-83720367D01*
X106591500Y-83720367D01*
X106591500Y-83879632D01*
X106598613Y-83915389D01*
X106622570Y-84035831D01*
X106683517Y-84182968D01*
X106754346Y-84288972D01*
X106771998Y-84315390D01*
X106772003Y-84315396D01*
X106884603Y-84427996D01*
X106884609Y-84428001D01*
X106884611Y-84428003D01*
X107017032Y-84516483D01*
X107164169Y-84577430D01*
X107320370Y-84608500D01*
X107320371Y-84608500D01*
X107479629Y-84608500D01*
X107479630Y-84608500D01*
X107635831Y-84577430D01*
X107782968Y-84516483D01*
X107915389Y-84428003D01*
X108028003Y-84315389D01*
X108116483Y-84182968D01*
X108177430Y-84035831D01*
X108207892Y-83882685D01*
X108240799Y-83819776D01*
X108242263Y-83818285D01*
X109086921Y-82973628D01*
X109167032Y-82834873D01*
X109208500Y-82680110D01*
X109208500Y-82519890D01*
X109208500Y-81182798D01*
X109228502Y-81114677D01*
X109229705Y-81112840D01*
X109316483Y-80982968D01*
X109377430Y-80835831D01*
X109408500Y-80679630D01*
X109408500Y-80520370D01*
X109377430Y-80364169D01*
X109316483Y-80217032D01*
X109228003Y-80084611D01*
X109228001Y-80084609D01*
X109227996Y-80084603D01*
X109115396Y-79972003D01*
X109115390Y-79971998D01*
X109115389Y-79971997D01*
X108982968Y-79883517D01*
X108835831Y-79822570D01*
X108748988Y-79805296D01*
X108679632Y-79791500D01*
X108679630Y-79791500D01*
X108520370Y-79791500D01*
X108520367Y-79791500D01*
X108403219Y-79814802D01*
X108364169Y-79822570D01*
X108228659Y-79878701D01*
X108217032Y-79883517D01*
X108084609Y-79971998D01*
X108084603Y-79972003D01*
X107972003Y-80084603D01*
X107971998Y-80084609D01*
X107883517Y-80217032D01*
X107822571Y-80364167D01*
X107822570Y-80364170D01*
X107791500Y-80520367D01*
X107791500Y-80679632D01*
X107797751Y-80711056D01*
X107822570Y-80835831D01*
X107883517Y-80982968D01*
X107970265Y-81112797D01*
X107991480Y-81180549D01*
X107991500Y-81182798D01*
X107991500Y-82295761D01*
X107971498Y-82363882D01*
X107954599Y-82384851D01*
X107659343Y-82680108D01*
X107381827Y-82957624D01*
X107319515Y-82991649D01*
X107317314Y-82992107D01*
X107192665Y-83016901D01*
X107164169Y-83022570D01*
X107058607Y-83066296D01*
X107017032Y-83083517D01*
X106884609Y-83171998D01*
X106884603Y-83172003D01*
X106772003Y-83284603D01*
X106771998Y-83284609D01*
X106683517Y-83417032D01*
X106622571Y-83564167D01*
X106622570Y-83564170D01*
X106591500Y-83720367D01*
X105458501Y-83720367D01*
X105458501Y-79762607D01*
X105434156Y-79640216D01*
X105386401Y-79524926D01*
X105317072Y-79421168D01*
X105228834Y-79332930D01*
X103670405Y-77774501D01*
X103636379Y-77712189D01*
X103633500Y-77685406D01*
X103633500Y-72853084D01*
X103981500Y-72853084D01*
X103981500Y-73066916D01*
X104014951Y-73278116D01*
X104014952Y-73278121D01*
X104081026Y-73481478D01*
X104081028Y-73481483D01*
X104178106Y-73672009D01*
X104303794Y-73845004D01*
X104303796Y-73845006D01*
X104303798Y-73845009D01*
X104454990Y-73996201D01*
X104454993Y-73996203D01*
X104454996Y-73996206D01*
X104627991Y-74121894D01*
X104627996Y-74121896D01*
X104629088Y-74122566D01*
X104629418Y-74122931D01*
X104631996Y-74124804D01*
X104631602Y-74125345D01*
X104676721Y-74175213D01*
X104688328Y-74245255D01*
X104660226Y-74310453D01*
X104631870Y-74335023D01*
X104631996Y-74335196D01*
X104629982Y-74336658D01*
X104629088Y-74337434D01*
X104627987Y-74338108D01*
X104454993Y-74463796D01*
X104454990Y-74463798D01*
X104303798Y-74614990D01*
X104303796Y-74614993D01*
X104178108Y-74787987D01*
X104081029Y-74978515D01*
X104081026Y-74978521D01*
X104014952Y-75181878D01*
X104014951Y-75181883D01*
X104014951Y-75181884D01*
X103981500Y-75393084D01*
X103981500Y-75606916D01*
X104014951Y-75818116D01*
X104014952Y-75818121D01*
X104081026Y-76021478D01*
X104081028Y-76021483D01*
X104178106Y-76212009D01*
X104303794Y-76385004D01*
X104303796Y-76385006D01*
X104303798Y-76385009D01*
X104454990Y-76536201D01*
X104454993Y-76536203D01*
X104454996Y-76536206D01*
X104627991Y-76661894D01*
X104818517Y-76758972D01*
X105021878Y-76825047D01*
X105021879Y-76825047D01*
X105021884Y-76825049D01*
X105233084Y-76858500D01*
X105233087Y-76858500D01*
X105446913Y-76858500D01*
X105446916Y-76858500D01*
X105658116Y-76825049D01*
X105861483Y-76758972D01*
X106052009Y-76661894D01*
X106225004Y-76536206D01*
X106376206Y-76385004D01*
X106501894Y-76212009D01*
X106501902Y-76211992D01*
X106502854Y-76210441D01*
X106503377Y-76209967D01*
X106504804Y-76208004D01*
X106505216Y-76208303D01*
X106555497Y-76162804D01*
X106625537Y-76151189D01*
X106690738Y-76179285D01*
X106715484Y-76207843D01*
X106715624Y-76207742D01*
X106716801Y-76209362D01*
X106717729Y-76210433D01*
X106718535Y-76211749D01*
X106844177Y-76384679D01*
X106995320Y-76535822D01*
X107168249Y-76661463D01*
X107358707Y-76758506D01*
X107358713Y-76758509D01*
X107561998Y-76824560D01*
X107626000Y-76834696D01*
X107626000Y-75930702D01*
X107687007Y-75965925D01*
X107814174Y-76000000D01*
X107945826Y-76000000D01*
X108072993Y-75965925D01*
X108134000Y-75930702D01*
X108134000Y-76834696D01*
X108198001Y-76824560D01*
X108401286Y-76758509D01*
X108401292Y-76758506D01*
X108591750Y-76661463D01*
X108764679Y-76535822D01*
X108915822Y-76384679D01*
X109041465Y-76211748D01*
X109042564Y-76209955D01*
X109043159Y-76209415D01*
X109044376Y-76207742D01*
X109044727Y-76207997D01*
X109095209Y-76162321D01*
X109165250Y-76150710D01*
X109230449Y-76178810D01*
X109255559Y-76207789D01*
X109255624Y-76207742D01*
X109256172Y-76208496D01*
X109257436Y-76209955D01*
X109258534Y-76211748D01*
X109384177Y-76384679D01*
X109535320Y-76535822D01*
X109708249Y-76661463D01*
X109898707Y-76758506D01*
X109898713Y-76758509D01*
X110101998Y-76824560D01*
X110166000Y-76834696D01*
X110166000Y-75930702D01*
X110227007Y-75965925D01*
X110354174Y-76000000D01*
X110485826Y-76000000D01*
X110612993Y-75965925D01*
X110674000Y-75930702D01*
X110674000Y-76834696D01*
X110738001Y-76824560D01*
X110941286Y-76758509D01*
X110941292Y-76758506D01*
X111131750Y-76661463D01*
X111304679Y-76535822D01*
X111455822Y-76384679D01*
X111581465Y-76211748D01*
X111582564Y-76209955D01*
X111583159Y-76209415D01*
X111584376Y-76207742D01*
X111584727Y-76207997D01*
X111635209Y-76162321D01*
X111705250Y-76150710D01*
X111770449Y-76178810D01*
X111795559Y-76207789D01*
X111795624Y-76207742D01*
X111796172Y-76208496D01*
X111797436Y-76209955D01*
X111798534Y-76211748D01*
X111924177Y-76384679D01*
X112075320Y-76535822D01*
X112248249Y-76661463D01*
X112438707Y-76758506D01*
X112438713Y-76758509D01*
X112641998Y-76824560D01*
X112706000Y-76834696D01*
X112706000Y-75930702D01*
X112767007Y-75965925D01*
X112894174Y-76000000D01*
X113025826Y-76000000D01*
X113152993Y-75965925D01*
X113214000Y-75930702D01*
X113214000Y-76834696D01*
X113278001Y-76824560D01*
X113481286Y-76758509D01*
X113481292Y-76758506D01*
X113671750Y-76661463D01*
X113844677Y-76535823D01*
X113947787Y-76432713D01*
X114010099Y-76398688D01*
X114080915Y-76403752D01*
X114137751Y-76446299D01*
X114154938Y-76477775D01*
X114199110Y-76596202D01*
X114199112Y-76596207D01*
X114286738Y-76713261D01*
X114403792Y-76800887D01*
X114403794Y-76800888D01*
X114403796Y-76800889D01*
X114462875Y-76822924D01*
X114540795Y-76851988D01*
X114540803Y-76851990D01*
X114601350Y-76858499D01*
X114601355Y-76858499D01*
X114601362Y-76858500D01*
X114601368Y-76858500D01*
X116398632Y-76858500D01*
X116398638Y-76858500D01*
X116398645Y-76858499D01*
X116398649Y-76858499D01*
X116459196Y-76851990D01*
X116459199Y-76851989D01*
X116459201Y-76851989D01*
X116596204Y-76800889D01*
X116652199Y-76758972D01*
X116713261Y-76713261D01*
X116800887Y-76596207D01*
X116800887Y-76596206D01*
X116800889Y-76596204D01*
X116851989Y-76459201D01*
X116858500Y-76398638D01*
X116858500Y-74601362D01*
X116857147Y-74588778D01*
X116851990Y-74540803D01*
X116851988Y-74540795D01*
X116800889Y-74403797D01*
X116800887Y-74403792D01*
X116713261Y-74286738D01*
X116596207Y-74199112D01*
X116596203Y-74199110D01*
X116478291Y-74155131D01*
X116421455Y-74112585D01*
X116396645Y-74046064D01*
X116411737Y-73976690D01*
X116433226Y-73947983D01*
X116536206Y-73845004D01*
X116661894Y-73672009D01*
X116758972Y-73481483D01*
X116825049Y-73278116D01*
X116858500Y-73066916D01*
X116858500Y-72853084D01*
X116825049Y-72641884D01*
X116758972Y-72438517D01*
X116661894Y-72247991D01*
X116536206Y-72074996D01*
X116536203Y-72074993D01*
X116536201Y-72074990D01*
X116385009Y-71923798D01*
X116385006Y-71923796D01*
X116385004Y-71923794D01*
X116212009Y-71798106D01*
X116021483Y-71701028D01*
X116021480Y-71701027D01*
X116021478Y-71701026D01*
X115818120Y-71634952D01*
X115818123Y-71634952D01*
X115757195Y-71625302D01*
X115606916Y-71601500D01*
X115393084Y-71601500D01*
X115181884Y-71634951D01*
X115181878Y-71634952D01*
X114978521Y-71701026D01*
X114978515Y-71701029D01*
X114787987Y-71798108D01*
X114614993Y-71923796D01*
X114614990Y-71923798D01*
X114463798Y-72074990D01*
X114463796Y-72074993D01*
X114338100Y-72247998D01*
X114337131Y-72249580D01*
X114336606Y-72250054D01*
X114335196Y-72251996D01*
X114334787Y-72251699D01*
X114284479Y-72297206D01*
X114214437Y-72308807D01*
X114149242Y-72280697D01*
X114124515Y-72252156D01*
X114124376Y-72252258D01*
X114123194Y-72250631D01*
X114122266Y-72249560D01*
X114121460Y-72248244D01*
X113995822Y-72075320D01*
X113844679Y-71924177D01*
X113671750Y-71798536D01*
X113481292Y-71701493D01*
X113481286Y-71701490D01*
X113278004Y-71635440D01*
X113214000Y-71625302D01*
X113214000Y-72529297D01*
X113152993Y-72494075D01*
X113025826Y-72460000D01*
X112894174Y-72460000D01*
X112767007Y-72494075D01*
X112706000Y-72529297D01*
X112706000Y-71625302D01*
X112641995Y-71635440D01*
X112438713Y-71701490D01*
X112438707Y-71701493D01*
X112248249Y-71798536D01*
X112075320Y-71924177D01*
X111924177Y-72075320D01*
X111798531Y-72248256D01*
X111797431Y-72250052D01*
X111796835Y-72250591D01*
X111795624Y-72252258D01*
X111795273Y-72252003D01*
X111744783Y-72297682D01*
X111674741Y-72309288D01*
X111609544Y-72281183D01*
X111584440Y-72252211D01*
X111584376Y-72252258D01*
X111583833Y-72251511D01*
X111582569Y-72250052D01*
X111581468Y-72248256D01*
X111455822Y-72075320D01*
X111304679Y-71924177D01*
X111131750Y-71798536D01*
X110941292Y-71701493D01*
X110941286Y-71701490D01*
X110738004Y-71635440D01*
X110674000Y-71625302D01*
X110674000Y-72529297D01*
X110612993Y-72494075D01*
X110485826Y-72460000D01*
X110354174Y-72460000D01*
X110227007Y-72494075D01*
X110166000Y-72529297D01*
X110166000Y-71625302D01*
X110101995Y-71635440D01*
X109898713Y-71701490D01*
X109898707Y-71701493D01*
X109708249Y-71798536D01*
X109535320Y-71924177D01*
X109384177Y-72075320D01*
X109258531Y-72248256D01*
X109257431Y-72250052D01*
X109256835Y-72250591D01*
X109255624Y-72252258D01*
X109255273Y-72252003D01*
X109204783Y-72297682D01*
X109134741Y-72309288D01*
X109069544Y-72281183D01*
X109044440Y-72252211D01*
X109044376Y-72252258D01*
X109043833Y-72251511D01*
X109042569Y-72250052D01*
X109041468Y-72248256D01*
X108915822Y-72075320D01*
X108764679Y-71924177D01*
X108591750Y-71798536D01*
X108401292Y-71701493D01*
X108401286Y-71701490D01*
X108198004Y-71635440D01*
X108134000Y-71625302D01*
X108134000Y-72529297D01*
X108072993Y-72494075D01*
X107945826Y-72460000D01*
X107814174Y-72460000D01*
X107687007Y-72494075D01*
X107626000Y-72529297D01*
X107626000Y-71625302D01*
X107561995Y-71635440D01*
X107358713Y-71701490D01*
X107358707Y-71701493D01*
X107168249Y-71798536D01*
X106995320Y-71924177D01*
X106844177Y-72075320D01*
X106718532Y-72248255D01*
X106717724Y-72249574D01*
X106717286Y-72249969D01*
X106715624Y-72252258D01*
X106715143Y-72251908D01*
X106665075Y-72297203D01*
X106595033Y-72308807D01*
X106529836Y-72280702D01*
X106504901Y-72251924D01*
X106504804Y-72251996D01*
X106503975Y-72250855D01*
X106502859Y-72249567D01*
X106501899Y-72248001D01*
X106501894Y-72247991D01*
X106376206Y-72074996D01*
X106376203Y-72074993D01*
X106376201Y-72074990D01*
X106225009Y-71923798D01*
X106225006Y-71923796D01*
X106225004Y-71923794D01*
X106052009Y-71798106D01*
X105861483Y-71701028D01*
X105861480Y-71701027D01*
X105861478Y-71701026D01*
X105658120Y-71634952D01*
X105658123Y-71634952D01*
X105597195Y-71625302D01*
X105446916Y-71601500D01*
X105233084Y-71601500D01*
X105021884Y-71634951D01*
X105021878Y-71634952D01*
X104818521Y-71701026D01*
X104818515Y-71701029D01*
X104627987Y-71798108D01*
X104454993Y-71923796D01*
X104454990Y-71923798D01*
X104303798Y-72074990D01*
X104303796Y-72074993D01*
X104178108Y-72247987D01*
X104081029Y-72438515D01*
X104081026Y-72438521D01*
X104014952Y-72641878D01*
X104014951Y-72641883D01*
X104014951Y-72641884D01*
X103981500Y-72853084D01*
X103633500Y-72853084D01*
X103633500Y-69309480D01*
X103653502Y-69241359D01*
X103670405Y-69220385D01*
X104265842Y-68624947D01*
X104284075Y-68692993D01*
X104349901Y-68807007D01*
X104442993Y-68900099D01*
X104557007Y-68965925D01*
X104625051Y-68984157D01*
X103950035Y-69659173D01*
X103950035Y-69659174D01*
X104012047Y-69704229D01*
X104209514Y-69804843D01*
X104209516Y-69804844D01*
X104420289Y-69873329D01*
X104639191Y-69908000D01*
X104860809Y-69908000D01*
X105079710Y-69873329D01*
X105290483Y-69804844D01*
X105290485Y-69804843D01*
X105487954Y-69704228D01*
X105487956Y-69704227D01*
X105549963Y-69659175D01*
X105549964Y-69659174D01*
X104874947Y-68984157D01*
X104942993Y-68965925D01*
X105057007Y-68900099D01*
X105150099Y-68807007D01*
X105215925Y-68692993D01*
X105234157Y-68624947D01*
X105909174Y-69299964D01*
X105919155Y-69299178D01*
X105953975Y-69272328D01*
X106024712Y-69266252D01*
X106087503Y-69299384D01*
X106101626Y-69315682D01*
X106175658Y-69417578D01*
X106332421Y-69574341D01*
X106332424Y-69574343D01*
X106511785Y-69704657D01*
X106709324Y-69805308D01*
X106920176Y-69873818D01*
X107139149Y-69908500D01*
X107139152Y-69908500D01*
X107360848Y-69908500D01*
X107360851Y-69908500D01*
X107579824Y-69873818D01*
X107790676Y-69805308D01*
X107988215Y-69704657D01*
X108167576Y-69574343D01*
X108324343Y-69417576D01*
X108398064Y-69316107D01*
X108454287Y-69272754D01*
X108525023Y-69266679D01*
X108587814Y-69299811D01*
X108601936Y-69316108D01*
X108675658Y-69417578D01*
X108832421Y-69574341D01*
X108832424Y-69574343D01*
X109011785Y-69704657D01*
X109209324Y-69805308D01*
X109420176Y-69873818D01*
X109639149Y-69908500D01*
X109639152Y-69908500D01*
X109860848Y-69908500D01*
X109860851Y-69908500D01*
X110079824Y-69873818D01*
X110290676Y-69805308D01*
X110488215Y-69704657D01*
X110667576Y-69574343D01*
X110824343Y-69417576D01*
X110954657Y-69238215D01*
X111055308Y-69040676D01*
X111123818Y-68829824D01*
X111158500Y-68610851D01*
X111158500Y-68389149D01*
X111123818Y-68170176D01*
X111055308Y-67959324D01*
X110954657Y-67761785D01*
X110824343Y-67582424D01*
X110824341Y-67582421D01*
X110667578Y-67425658D01*
X110499780Y-67303745D01*
X110488217Y-67295344D01*
X110475656Y-67288944D01*
X110290676Y-67194692D01*
X110290673Y-67194691D01*
X110290671Y-67194690D01*
X110079829Y-67126183D01*
X110079825Y-67126182D01*
X110079824Y-67126182D01*
X109860851Y-67091500D01*
X109639149Y-67091500D01*
X109420176Y-67126182D01*
X109420170Y-67126183D01*
X109209328Y-67194690D01*
X109209322Y-67194693D01*
X109011781Y-67295345D01*
X108832421Y-67425658D01*
X108675662Y-67582417D01*
X108601936Y-67683892D01*
X108545713Y-67727245D01*
X108474977Y-67733320D01*
X108412185Y-67700188D01*
X108398064Y-67683892D01*
X108344378Y-67610000D01*
X108324343Y-67582424D01*
X108324339Y-67582420D01*
X108324337Y-67582417D01*
X108167578Y-67425658D01*
X107988218Y-67295345D01*
X107988217Y-67295344D01*
X107988215Y-67295343D01*
X107790676Y-67194692D01*
X107790673Y-67194691D01*
X107790671Y-67194690D01*
X107579829Y-67126183D01*
X107579825Y-67126182D01*
X107579824Y-67126182D01*
X107360851Y-67091500D01*
X107139149Y-67091500D01*
X106920176Y-67126182D01*
X106920170Y-67126183D01*
X106881836Y-67138639D01*
X106810868Y-67140666D01*
X106753805Y-67107901D01*
X106428834Y-66782930D01*
X106428832Y-66782928D01*
X106325074Y-66713599D01*
X106209784Y-66665844D01*
X106136085Y-66651184D01*
X106087395Y-66641499D01*
X106087393Y-66641499D01*
X104099605Y-66641499D01*
X104099599Y-66641499D01*
X103977216Y-66665843D01*
X103977208Y-66665845D01*
X103943446Y-66679829D01*
X103943446Y-66679830D01*
X103868061Y-66711056D01*
X103861924Y-66713598D01*
X103758166Y-66782926D01*
X103481013Y-67060080D01*
X102596167Y-67944927D01*
X102507931Y-68033162D01*
X102507926Y-68033169D01*
X102455590Y-68111496D01*
X102438600Y-68136923D01*
X102437357Y-68139925D01*
X102390846Y-68252210D01*
X102366500Y-68374601D01*
X102366500Y-68374604D01*
X102366500Y-77937606D01*
X102366500Y-78062394D01*
X102390845Y-78184785D01*
X102438600Y-78300075D01*
X102507929Y-78403833D01*
X102507931Y-78403835D01*
X104154596Y-80050500D01*
X104188622Y-80112812D01*
X104191501Y-80139595D01*
X104191501Y-84879431D01*
X104171499Y-84947552D01*
X104117843Y-84994045D01*
X104047569Y-85004149D01*
X103986943Y-84977943D01*
X103953600Y-84951353D01*
X103953598Y-84951352D01*
X103715082Y-84801482D01*
X103461291Y-84679263D01*
X103461264Y-84679252D01*
X103195404Y-84586223D01*
X102920770Y-84523539D01*
X102920773Y-84523539D01*
X102640848Y-84492000D01*
X102359152Y-84492000D01*
X102079228Y-84523539D01*
X101804595Y-84586223D01*
X101538735Y-84679252D01*
X101538708Y-84679263D01*
X101284917Y-84801482D01*
X101046401Y-84951352D01*
X101046395Y-84951356D01*
X100915196Y-85055985D01*
X100915196Y-85055987D01*
X101994370Y-86135160D01*
X101862537Y-86223249D01*
X101723249Y-86362537D01*
X101635160Y-86494369D01*
X100537405Y-85396614D01*
X100503379Y-85334302D01*
X100500500Y-85307519D01*
X100500500Y-62692480D01*
X100520502Y-62624359D01*
X100537405Y-62603385D01*
X101635160Y-61505629D01*
X101723249Y-61637463D01*
X101862537Y-61776751D01*
X101994369Y-61864838D01*
X100915195Y-62944012D01*
X100915196Y-62944013D01*
X101046395Y-63048643D01*
X101046401Y-63048647D01*
X101284917Y-63198517D01*
X101538708Y-63320736D01*
X101538735Y-63320747D01*
X101804595Y-63413776D01*
X102079229Y-63476460D01*
X102079226Y-63476460D01*
X102359152Y-63508000D01*
X102640848Y-63508000D01*
X102920771Y-63476460D01*
X103195404Y-63413776D01*
X103461264Y-63320747D01*
X103461291Y-63320736D01*
X103715082Y-63198516D01*
X103953587Y-63048655D01*
X103953596Y-63048648D01*
X104084802Y-62944013D01*
X104084803Y-62944012D01*
X103005630Y-61864839D01*
X103137463Y-61776751D01*
X103276751Y-61637463D01*
X103364839Y-61505630D01*
X104444012Y-62584803D01*
X104444013Y-62584802D01*
X104548648Y-62453596D01*
X104548655Y-62453587D01*
X104698516Y-62215082D01*
X104820736Y-61961291D01*
X104820747Y-61961264D01*
X104913776Y-61695404D01*
X104976460Y-61420771D01*
X105008000Y-61140847D01*
X105008000Y-60859152D01*
X109492000Y-60859152D01*
X109492000Y-61140847D01*
X109523539Y-61420771D01*
X109586223Y-61695404D01*
X109679252Y-61961264D01*
X109679263Y-61961291D01*
X109801482Y-62215082D01*
X109951352Y-62453598D01*
X109951356Y-62453604D01*
X110055985Y-62584802D01*
X110055986Y-62584803D01*
X111135160Y-61505629D01*
X111223249Y-61637463D01*
X111362537Y-61776751D01*
X111494369Y-61864838D01*
X110415195Y-62944012D01*
X110415196Y-62944013D01*
X110546395Y-63048643D01*
X110546401Y-63048647D01*
X110784917Y-63198517D01*
X111038708Y-63320736D01*
X111038735Y-63320747D01*
X111304595Y-63413776D01*
X111579229Y-63476460D01*
X111579226Y-63476460D01*
X111859152Y-63508000D01*
X112140848Y-63508000D01*
X112420771Y-63476460D01*
X112695404Y-63413776D01*
X112961264Y-63320747D01*
X112961291Y-63320736D01*
X113215082Y-63198516D01*
X113453587Y-63048655D01*
X113453596Y-63048648D01*
X113584802Y-62944013D01*
X113584803Y-62944012D01*
X112505630Y-61864839D01*
X112637463Y-61776751D01*
X112776751Y-61637463D01*
X112864839Y-61505630D01*
X113944012Y-62584803D01*
X113944013Y-62584802D01*
X114048648Y-62453596D01*
X114048655Y-62453587D01*
X114198516Y-62215082D01*
X114320736Y-61961291D01*
X114320747Y-61961264D01*
X114413776Y-61695404D01*
X114476460Y-61420771D01*
X114508000Y-61140847D01*
X114508000Y-60859152D01*
X114476460Y-60579228D01*
X114413776Y-60304595D01*
X114320747Y-60038735D01*
X114320736Y-60038708D01*
X114198517Y-59784917D01*
X114048647Y-59546401D01*
X114048643Y-59546395D01*
X113944013Y-59415196D01*
X113944012Y-59415195D01*
X112864838Y-60494369D01*
X112776751Y-60362537D01*
X112637463Y-60223249D01*
X112505629Y-60135160D01*
X113584803Y-59055986D01*
X113584802Y-59055985D01*
X113453604Y-58951356D01*
X113453598Y-58951352D01*
X113215082Y-58801482D01*
X112961291Y-58679263D01*
X112961264Y-58679252D01*
X112695404Y-58586223D01*
X112420770Y-58523539D01*
X112420773Y-58523539D01*
X112140848Y-58492000D01*
X111859152Y-58492000D01*
X111579228Y-58523539D01*
X111304595Y-58586223D01*
X111038735Y-58679252D01*
X111038708Y-58679263D01*
X110784917Y-58801482D01*
X110546401Y-58951352D01*
X110546395Y-58951356D01*
X110415196Y-59055985D01*
X110415196Y-59055987D01*
X111494369Y-60135160D01*
X111362537Y-60223249D01*
X111223249Y-60362537D01*
X111135160Y-60494369D01*
X110055987Y-59415196D01*
X110055985Y-59415196D01*
X109951356Y-59546395D01*
X109951352Y-59546401D01*
X109801482Y-59784917D01*
X109679263Y-60038708D01*
X109679252Y-60038735D01*
X109586223Y-60304595D01*
X109523539Y-60579228D01*
X109492000Y-60859152D01*
X105008000Y-60859152D01*
X104976460Y-60579228D01*
X104913776Y-60304595D01*
X104820747Y-60038735D01*
X104820736Y-60038708D01*
X104698517Y-59784917D01*
X104548647Y-59546401D01*
X104548643Y-59546395D01*
X104444013Y-59415196D01*
X104444012Y-59415195D01*
X103364838Y-60494369D01*
X103276751Y-60362537D01*
X103137463Y-60223249D01*
X103005629Y-60135160D01*
X104084803Y-59055986D01*
X104084802Y-59055985D01*
X103953604Y-58951356D01*
X103953598Y-58951352D01*
X103715082Y-58801482D01*
X103461291Y-58679263D01*
X103461264Y-58679252D01*
X103195404Y-58586223D01*
X102920770Y-58523539D01*
X102920773Y-58523539D01*
X102640848Y-58492000D01*
X102359152Y-58492000D01*
X102079228Y-58523539D01*
X101804595Y-58586223D01*
X101538735Y-58679252D01*
X101538708Y-58679263D01*
X101284917Y-58801482D01*
X101046401Y-58951352D01*
X101046395Y-58951356D01*
X100915196Y-59055985D01*
X100915196Y-59055987D01*
X101994369Y-60135160D01*
X101862537Y-60223249D01*
X101723249Y-60362537D01*
X101635160Y-60494369D01*
X100537405Y-59396614D01*
X100522460Y-59369245D01*
X100505604Y-59343017D01*
X100504698Y-59336718D01*
X100503379Y-59334302D01*
X100500500Y-59307519D01*
X100500500Y-53986402D01*
X115898827Y-53986402D01*
X115898827Y-54746000D01*
X116766778Y-54746000D01*
X116735269Y-54822069D01*
X116711827Y-54939920D01*
X116711827Y-55060080D01*
X116735269Y-55177931D01*
X116766778Y-55254000D01*
X115898827Y-55254000D01*
X115898827Y-56013597D01*
X115905332Y-56074093D01*
X115956382Y-56210964D01*
X115956382Y-56210965D01*
X116043922Y-56327904D01*
X116160861Y-56415444D01*
X116297733Y-56466494D01*
X116358229Y-56472999D01*
X116358242Y-56473000D01*
X117067827Y-56473000D01*
X117067827Y-55555049D01*
X117143896Y-55586558D01*
X117261747Y-55610000D01*
X117381907Y-55610000D01*
X117499758Y-55586558D01*
X117575827Y-55555049D01*
X117575827Y-56473000D01*
X118285412Y-56473000D01*
X118285424Y-56472999D01*
X118345920Y-56466494D01*
X118482791Y-56415444D01*
X118482792Y-56415444D01*
X118599731Y-56327904D01*
X118687271Y-56210965D01*
X118687271Y-56210964D01*
X118738321Y-56074093D01*
X118744826Y-56013597D01*
X118744827Y-56013585D01*
X118744827Y-55254000D01*
X117876876Y-55254000D01*
X117908385Y-55177931D01*
X117931827Y-55060080D01*
X117931827Y-54939920D01*
X117908385Y-54822069D01*
X117876876Y-54746000D01*
X118744827Y-54746000D01*
X118744827Y-54000954D01*
X119163327Y-54000954D01*
X119163327Y-55999046D01*
X119194315Y-56194700D01*
X119255529Y-56383097D01*
X119301337Y-56473000D01*
X119345463Y-56559601D01*
X119461898Y-56719860D01*
X119601966Y-56859928D01*
X119707240Y-56936414D01*
X119762229Y-56976366D01*
X119938730Y-57066298D01*
X120127127Y-57127512D01*
X120322781Y-57158500D01*
X120322784Y-57158500D01*
X120520870Y-57158500D01*
X120520873Y-57158500D01*
X120716527Y-57127512D01*
X120904924Y-57066298D01*
X121081425Y-56976366D01*
X121241685Y-56859930D01*
X121381757Y-56719858D01*
X121498193Y-56559598D01*
X121588125Y-56383097D01*
X121649339Y-56194700D01*
X121680327Y-55999046D01*
X121680327Y-54885263D01*
X122048327Y-54885263D01*
X122048327Y-55114736D01*
X122078277Y-55342231D01*
X122078279Y-55342238D01*
X122137669Y-55563887D01*
X122225483Y-55775888D01*
X122225484Y-55775889D01*
X122225489Y-55775900D01*
X122340213Y-55974608D01*
X122340218Y-55974615D01*
X122479900Y-56156652D01*
X122479919Y-56156673D01*
X122642153Y-56318907D01*
X122642174Y-56318926D01*
X122824211Y-56458608D01*
X122824218Y-56458613D01*
X123022926Y-56573337D01*
X123022930Y-56573338D01*
X123022939Y-56573344D01*
X123234940Y-56661158D01*
X123456589Y-56720548D01*
X123456593Y-56720548D01*
X123456595Y-56720549D01*
X123515225Y-56728267D01*
X123684093Y-56750500D01*
X123684100Y-56750500D01*
X123913554Y-56750500D01*
X123913561Y-56750500D01*
X124119172Y-56723430D01*
X124141058Y-56720549D01*
X124141058Y-56720548D01*
X124141065Y-56720548D01*
X124362714Y-56661158D01*
X124574715Y-56573344D01*
X124773439Y-56458611D01*
X124955488Y-56318919D01*
X125117746Y-56156661D01*
X125257438Y-55974612D01*
X125372171Y-55775888D01*
X125459985Y-55563887D01*
X125519375Y-55342238D01*
X125549327Y-55114734D01*
X125549327Y-54885266D01*
X125519375Y-54657762D01*
X125459985Y-54436113D01*
X125372171Y-54224112D01*
X125372165Y-54224103D01*
X125372164Y-54224099D01*
X125257440Y-54025391D01*
X125257435Y-54025384D01*
X125117753Y-53843347D01*
X125117734Y-53843326D01*
X124955500Y-53681092D01*
X124955479Y-53681073D01*
X124773442Y-53541391D01*
X124773435Y-53541386D01*
X124574727Y-53426662D01*
X124574719Y-53426658D01*
X124574715Y-53426656D01*
X124362714Y-53338842D01*
X124211328Y-53298278D01*
X124141058Y-53279450D01*
X123913563Y-53249500D01*
X123913561Y-53249500D01*
X123684093Y-53249500D01*
X123684090Y-53249500D01*
X123456595Y-53279450D01*
X123234940Y-53338842D01*
X123022937Y-53426657D01*
X123022926Y-53426662D01*
X122824218Y-53541386D01*
X122824211Y-53541391D01*
X122642174Y-53681073D01*
X122642153Y-53681092D01*
X122479919Y-53843326D01*
X122479900Y-53843347D01*
X122340218Y-54025384D01*
X122340213Y-54025391D01*
X122225489Y-54224099D01*
X122225484Y-54224110D01*
X122137669Y-54436113D01*
X122078277Y-54657768D01*
X122048327Y-54885263D01*
X121680327Y-54885263D01*
X121680327Y-54000954D01*
X121649339Y-53805300D01*
X121588125Y-53616903D01*
X121498193Y-53440402D01*
X121381757Y-53280142D01*
X121381755Y-53280139D01*
X121241687Y-53140071D01*
X121081428Y-53023636D01*
X121081427Y-53023635D01*
X121081425Y-53023634D01*
X120904924Y-52933702D01*
X120716527Y-52872488D01*
X120520873Y-52841500D01*
X120322781Y-52841500D01*
X120127127Y-52872488D01*
X120127124Y-52872488D01*
X120127123Y-52872489D01*
X119938730Y-52933702D01*
X119938728Y-52933703D01*
X119762225Y-53023636D01*
X119601966Y-53140071D01*
X119461898Y-53280139D01*
X119345463Y-53440398D01*
X119294007Y-53541386D01*
X119255529Y-53616903D01*
X119194315Y-53805300D01*
X119163327Y-54000954D01*
X118744827Y-54000954D01*
X118744827Y-53986414D01*
X118744826Y-53986402D01*
X118738321Y-53925906D01*
X118687271Y-53789035D01*
X118687271Y-53789034D01*
X118599731Y-53672095D01*
X118482792Y-53584555D01*
X118345920Y-53533505D01*
X118285424Y-53527000D01*
X117575827Y-53527000D01*
X117575827Y-54444950D01*
X117499758Y-54413442D01*
X117381907Y-54390000D01*
X117261747Y-54390000D01*
X117143896Y-54413442D01*
X117067827Y-54444950D01*
X117067827Y-53527000D01*
X116358229Y-53527000D01*
X116297733Y-53533505D01*
X116160862Y-53584555D01*
X116160861Y-53584555D01*
X116043922Y-53672095D01*
X115956382Y-53789034D01*
X115956382Y-53789035D01*
X115905332Y-53925906D01*
X115898827Y-53986402D01*
X100500500Y-53986402D01*
X100500500Y-50626500D01*
X100520502Y-50558379D01*
X100574158Y-50511886D01*
X100626500Y-50500500D01*
X129373500Y-50500500D01*
X129441621Y-50520502D01*
G37*
%TD.AperFunction*%
%TA.AperFunction,Conductor*%
G36*
X113944012Y-114584803D02*
G01*
X113944013Y-114584802D01*
X114048647Y-114453598D01*
X114133812Y-114318058D01*
X114186991Y-114271020D01*
X114257158Y-114260200D01*
X114322036Y-114289033D01*
X114361028Y-114348364D01*
X114366500Y-114385094D01*
X114366500Y-118296496D01*
X114346498Y-118364617D01*
X114329595Y-118385591D01*
X114294326Y-118420859D01*
X114294320Y-118420867D01*
X114288472Y-118429619D01*
X114233993Y-118475145D01*
X114163550Y-118483991D01*
X114099507Y-118453348D01*
X114094614Y-118448709D01*
X111296505Y-115650600D01*
X111262479Y-115588288D01*
X111267544Y-115517473D01*
X111310091Y-115460637D01*
X111376611Y-115435826D01*
X111413639Y-115438664D01*
X111579230Y-115476460D01*
X111859152Y-115508000D01*
X112140848Y-115508000D01*
X112420771Y-115476460D01*
X112695404Y-115413776D01*
X112961264Y-115320747D01*
X112961291Y-115320736D01*
X113215082Y-115198516D01*
X113453587Y-115048655D01*
X113453596Y-115048648D01*
X113584802Y-114944013D01*
X113584803Y-114944012D01*
X112505629Y-113864839D01*
X112637463Y-113776751D01*
X112776751Y-113637463D01*
X112864839Y-113505630D01*
X113944012Y-114584803D01*
G37*
%TD.AperFunction*%
%TA.AperFunction,Conductor*%
G36*
X108775028Y-103525495D02*
G01*
X108780730Y-103529087D01*
X108819664Y-103555102D01*
X108985000Y-103623587D01*
X109160521Y-103658500D01*
X109210406Y-103658500D01*
X109278527Y-103678502D01*
X109299501Y-103695405D01*
X114329595Y-108725499D01*
X114363621Y-108787811D01*
X114366500Y-108814594D01*
X114366500Y-111614905D01*
X114346498Y-111683026D01*
X114292842Y-111729519D01*
X114222568Y-111739623D01*
X114157988Y-111710129D01*
X114133813Y-111681941D01*
X114048647Y-111546401D01*
X114048643Y-111546395D01*
X113944013Y-111415196D01*
X113944012Y-111415195D01*
X112864838Y-112494369D01*
X112776751Y-112362537D01*
X112637463Y-112223249D01*
X112505629Y-112135160D01*
X113584803Y-111055986D01*
X113584802Y-111055985D01*
X113453604Y-110951356D01*
X113453598Y-110951352D01*
X113215082Y-110801482D01*
X112961291Y-110679263D01*
X112961264Y-110679252D01*
X112695404Y-110586223D01*
X112420770Y-110523539D01*
X112420773Y-110523539D01*
X112140848Y-110492000D01*
X111859152Y-110492000D01*
X111579228Y-110523539D01*
X111304595Y-110586223D01*
X111038735Y-110679252D01*
X111038708Y-110679263D01*
X110784917Y-110801482D01*
X110546401Y-110951352D01*
X110546395Y-110951356D01*
X110415196Y-111055985D01*
X110415196Y-111055987D01*
X111494369Y-112135160D01*
X111362537Y-112223249D01*
X111223249Y-112362537D01*
X111135160Y-112494370D01*
X110055987Y-111415196D01*
X110055985Y-111415196D01*
X109951356Y-111546395D01*
X109951352Y-111546401D01*
X109801482Y-111784917D01*
X109679263Y-112038708D01*
X109679252Y-112038735D01*
X109586223Y-112304595D01*
X109523539Y-112579228D01*
X109492000Y-112859152D01*
X109492000Y-113140847D01*
X109523539Y-113420771D01*
X109561335Y-113586361D01*
X109556993Y-113657225D01*
X109515028Y-113714491D01*
X109448765Y-113739980D01*
X109379240Y-113725597D01*
X109349399Y-113703494D01*
X108195405Y-112549500D01*
X108161379Y-112487188D01*
X108158500Y-112460405D01*
X108158500Y-112410522D01*
X108158499Y-112410518D01*
X108148955Y-112362537D01*
X108123587Y-112235000D01*
X108055102Y-112069664D01*
X107955678Y-111920865D01*
X107829135Y-111794322D01*
X107799188Y-111774312D01*
X107753660Y-111719835D01*
X107744812Y-111649392D01*
X107775453Y-111585348D01*
X107780057Y-111580491D01*
X108915146Y-110445402D01*
X108977456Y-110411379D01*
X109004239Y-110408500D01*
X109089478Y-110408500D01*
X109089479Y-110408500D01*
X109265000Y-110373587D01*
X109430336Y-110305102D01*
X109579135Y-110205678D01*
X109705678Y-110079135D01*
X109805102Y-109930336D01*
X109873587Y-109765000D01*
X109908500Y-109589479D01*
X109908500Y-109410521D01*
X109873587Y-109235000D01*
X109805102Y-109069664D01*
X109705678Y-108920865D01*
X109579135Y-108794322D01*
X109430336Y-108694898D01*
X109265000Y-108626413D01*
X109220211Y-108617503D01*
X109157303Y-108584595D01*
X109155701Y-108583020D01*
X107695404Y-107122723D01*
X107661378Y-107060411D01*
X107658499Y-107033628D01*
X107658499Y-104284500D01*
X107678501Y-104216379D01*
X107732157Y-104169886D01*
X107784499Y-104158500D01*
X107839478Y-104158500D01*
X107839479Y-104158500D01*
X108015000Y-104123587D01*
X108180336Y-104055102D01*
X108329135Y-103955678D01*
X108455678Y-103829135D01*
X108555102Y-103680336D01*
X108594327Y-103585638D01*
X108638874Y-103530358D01*
X108706237Y-103507937D01*
X108775028Y-103525495D01*
G37*
%TD.AperFunction*%
%TA.AperFunction,Conductor*%
G36*
X115847896Y-80711172D02*
G01*
X115892959Y-80740133D01*
X115898826Y-80746000D01*
X116766778Y-80746000D01*
X116735269Y-80822069D01*
X116711827Y-80939920D01*
X116711827Y-81060080D01*
X116735269Y-81177931D01*
X116766778Y-81254000D01*
X115898827Y-81254000D01*
X115898827Y-82013597D01*
X115905332Y-82074093D01*
X115956382Y-82210964D01*
X115956382Y-82210965D01*
X116043922Y-82327904D01*
X116160861Y-82415444D01*
X116297733Y-82466494D01*
X116358229Y-82472999D01*
X116358242Y-82473000D01*
X117067827Y-82473000D01*
X117067827Y-81555049D01*
X117143896Y-81586558D01*
X117261747Y-81610000D01*
X117381907Y-81610000D01*
X117499758Y-81586558D01*
X117575827Y-81555049D01*
X117575827Y-82473000D01*
X117715500Y-82473000D01*
X117783621Y-82493002D01*
X117830114Y-82546658D01*
X117841500Y-82599000D01*
X117841500Y-87281630D01*
X117821498Y-87349751D01*
X117804595Y-87370725D01*
X111232175Y-93943144D01*
X111169863Y-93977170D01*
X111099048Y-93972105D01*
X111042212Y-93929558D01*
X111030816Y-93911256D01*
X110954657Y-93761785D01*
X110876007Y-93653533D01*
X110824341Y-93582421D01*
X110667578Y-93425658D01*
X110488218Y-93295345D01*
X110488217Y-93295344D01*
X110488215Y-93295343D01*
X110290676Y-93194692D01*
X110290673Y-93194691D01*
X110290671Y-93194690D01*
X110079829Y-93126183D01*
X110079825Y-93126182D01*
X110079824Y-93126182D01*
X109860851Y-93091500D01*
X109639149Y-93091500D01*
X109420176Y-93126182D01*
X109420170Y-93126183D01*
X109209328Y-93194690D01*
X109209322Y-93194693D01*
X109011781Y-93295345D01*
X108832421Y-93425658D01*
X108675662Y-93582417D01*
X108601936Y-93683892D01*
X108545713Y-93727245D01*
X108474977Y-93733320D01*
X108412185Y-93700188D01*
X108398064Y-93683892D01*
X108344378Y-93610000D01*
X108324343Y-93582424D01*
X108324339Y-93582420D01*
X108324337Y-93582417D01*
X108167578Y-93425658D01*
X107988218Y-93295345D01*
X107988217Y-93295344D01*
X107988215Y-93295343D01*
X107790676Y-93194692D01*
X107790673Y-93194691D01*
X107790671Y-93194690D01*
X107579829Y-93126183D01*
X107579825Y-93126182D01*
X107579824Y-93126182D01*
X107360851Y-93091500D01*
X107139149Y-93091500D01*
X106920176Y-93126182D01*
X106920170Y-93126183D01*
X106709328Y-93194690D01*
X106709322Y-93194693D01*
X106511781Y-93295345D01*
X106332421Y-93425658D01*
X106175658Y-93582421D01*
X106101627Y-93684317D01*
X106045404Y-93727671D01*
X105974668Y-93733746D01*
X105911877Y-93700614D01*
X105911536Y-93700221D01*
X105909173Y-93700035D01*
X105234157Y-94375051D01*
X105215925Y-94307007D01*
X105150099Y-94192993D01*
X105057007Y-94099901D01*
X104942993Y-94034075D01*
X104874946Y-94015841D01*
X105549963Y-93340824D01*
X105487952Y-93295770D01*
X105290485Y-93195156D01*
X105290483Y-93195155D01*
X105079710Y-93126670D01*
X104860809Y-93092000D01*
X104639191Y-93092000D01*
X104420289Y-93126670D01*
X104209516Y-93195155D01*
X104209514Y-93195156D01*
X104012043Y-93295772D01*
X103950035Y-93340823D01*
X103950035Y-93340825D01*
X104625052Y-94015842D01*
X104557007Y-94034075D01*
X104442993Y-94099901D01*
X104349901Y-94192993D01*
X104284075Y-94307007D01*
X104265842Y-94375052D01*
X103590825Y-93700035D01*
X103590823Y-93700035D01*
X103545772Y-93762043D01*
X103445156Y-93959514D01*
X103445155Y-93959516D01*
X103376670Y-94170289D01*
X103342000Y-94389191D01*
X103342000Y-94610808D01*
X103376670Y-94829710D01*
X103445155Y-95040483D01*
X103445156Y-95040485D01*
X103545770Y-95237952D01*
X103590824Y-95299963D01*
X104265841Y-94624946D01*
X104284075Y-94692993D01*
X104349901Y-94807007D01*
X104442993Y-94900099D01*
X104557007Y-94965925D01*
X104625051Y-94984157D01*
X103950035Y-95659173D01*
X103950035Y-95659174D01*
X104012047Y-95704229D01*
X104209514Y-95804843D01*
X104209516Y-95804844D01*
X104420289Y-95873329D01*
X104639191Y-95908000D01*
X104860809Y-95908000D01*
X105079710Y-95873329D01*
X105290483Y-95804844D01*
X105290485Y-95804843D01*
X105487954Y-95704228D01*
X105487956Y-95704227D01*
X105549963Y-95659175D01*
X105549964Y-95659174D01*
X104874947Y-94984157D01*
X104942993Y-94965925D01*
X105057007Y-94900099D01*
X105150099Y-94807007D01*
X105215925Y-94692993D01*
X105234158Y-94624947D01*
X105909174Y-95299964D01*
X105919155Y-95299178D01*
X105953975Y-95272328D01*
X106024712Y-95266252D01*
X106087503Y-95299384D01*
X106101626Y-95315682D01*
X106175658Y-95417578D01*
X106332421Y-95574341D01*
X106332424Y-95574343D01*
X106511785Y-95704657D01*
X106709324Y-95805308D01*
X106920176Y-95873818D01*
X107139149Y-95908500D01*
X107139152Y-95908500D01*
X107360848Y-95908500D01*
X107360851Y-95908500D01*
X107579824Y-95873818D01*
X107790676Y-95805308D01*
X107988215Y-95704657D01*
X108167576Y-95574343D01*
X108324343Y-95417576D01*
X108398064Y-95316107D01*
X108454287Y-95272754D01*
X108525023Y-95266679D01*
X108587814Y-95299811D01*
X108601936Y-95316108D01*
X108675658Y-95417578D01*
X108832421Y-95574341D01*
X108832424Y-95574343D01*
X109011785Y-95704657D01*
X109161252Y-95780814D01*
X109212867Y-95829561D01*
X109229933Y-95898476D01*
X109207033Y-95965677D01*
X109193144Y-95982175D01*
X106310836Y-98864483D01*
X106310833Y-98864487D01*
X106231902Y-98982618D01*
X106231898Y-98982623D01*
X106227830Y-98988710D01*
X106227827Y-98988714D01*
X106170648Y-99126756D01*
X106141499Y-99273293D01*
X106141499Y-101633429D01*
X106121497Y-101701550D01*
X106067841Y-101748043D01*
X105997567Y-101758147D01*
X105932987Y-101728653D01*
X105910736Y-101703433D01*
X105905685Y-101695874D01*
X105905680Y-101695868D01*
X105905678Y-101695865D01*
X105779135Y-101569322D01*
X105630336Y-101469898D01*
X105513429Y-101421473D01*
X105465003Y-101401414D01*
X105465001Y-101401413D01*
X105465000Y-101401413D01*
X105376645Y-101383838D01*
X105289481Y-101366500D01*
X105289479Y-101366500D01*
X105114595Y-101366500D01*
X105046474Y-101346498D01*
X105025500Y-101329595D01*
X102195404Y-98499499D01*
X102161378Y-98437187D01*
X102158499Y-98410404D01*
X102158499Y-97284500D01*
X102178501Y-97216379D01*
X102232157Y-97169886D01*
X102284499Y-97158500D01*
X102339478Y-97158500D01*
X102339479Y-97158500D01*
X102515000Y-97123587D01*
X102680336Y-97055102D01*
X102829135Y-96955678D01*
X102955678Y-96829135D01*
X103055102Y-96680336D01*
X103123587Y-96515000D01*
X103158500Y-96339479D01*
X103158500Y-96160521D01*
X103123587Y-95985000D01*
X103055102Y-95819664D01*
X103055101Y-95819662D01*
X103055100Y-95819660D01*
X103055099Y-95819659D01*
X102967485Y-95688534D01*
X102967481Y-95688529D01*
X102955678Y-95670865D01*
X102917911Y-95633098D01*
X102915577Y-95630488D01*
X102901774Y-95601474D01*
X102886379Y-95573280D01*
X102885800Y-95567893D01*
X102885078Y-95566376D01*
X102885381Y-95564001D01*
X102883500Y-95546497D01*
X102883500Y-93623592D01*
X102903502Y-93555471D01*
X102920405Y-93534497D01*
X103155151Y-93299751D01*
X105345482Y-91109420D01*
X109288974Y-87165927D01*
X109351284Y-87131903D01*
X109422099Y-87136968D01*
X109478935Y-87179515D01*
X109503275Y-87240917D01*
X109523539Y-87420771D01*
X109586223Y-87695404D01*
X109679252Y-87961264D01*
X109679263Y-87961291D01*
X109801482Y-88215082D01*
X109951352Y-88453598D01*
X109951356Y-88453604D01*
X110055985Y-88584802D01*
X110055986Y-88584803D01*
X111135160Y-87505629D01*
X111223249Y-87637463D01*
X111362537Y-87776751D01*
X111494369Y-87864838D01*
X110415195Y-88944012D01*
X110415196Y-88944013D01*
X110546395Y-89048643D01*
X110546401Y-89048647D01*
X110784917Y-89198517D01*
X111038708Y-89320736D01*
X111038735Y-89320747D01*
X111304595Y-89413776D01*
X111579229Y-89476460D01*
X111579226Y-89476460D01*
X111859152Y-89508000D01*
X112140848Y-89508000D01*
X112420771Y-89476460D01*
X112695404Y-89413776D01*
X112961264Y-89320747D01*
X112961291Y-89320736D01*
X113215082Y-89198516D01*
X113453587Y-89048655D01*
X113453596Y-89048648D01*
X113584802Y-88944013D01*
X113584803Y-88944012D01*
X112505630Y-87864839D01*
X112637463Y-87776751D01*
X112776751Y-87637463D01*
X112864839Y-87505630D01*
X113944012Y-88584803D01*
X113944013Y-88584802D01*
X114048648Y-88453596D01*
X114048655Y-88453587D01*
X114198516Y-88215082D01*
X114320736Y-87961291D01*
X114320747Y-87961264D01*
X114413776Y-87695404D01*
X114476460Y-87420771D01*
X114508000Y-87140847D01*
X114508000Y-86859152D01*
X114476460Y-86579228D01*
X114413776Y-86304595D01*
X114320747Y-86038735D01*
X114320736Y-86038708D01*
X114198517Y-85784917D01*
X114048647Y-85546401D01*
X114048643Y-85546395D01*
X113944013Y-85415196D01*
X113944012Y-85415195D01*
X112864838Y-86494369D01*
X112776751Y-86362537D01*
X112637463Y-86223249D01*
X112505629Y-86135160D01*
X113584803Y-85055986D01*
X113584802Y-85055985D01*
X113453604Y-84951356D01*
X113453598Y-84951352D01*
X113215082Y-84801482D01*
X112961291Y-84679263D01*
X112961264Y-84679252D01*
X112695404Y-84586223D01*
X112420770Y-84523539D01*
X112420773Y-84523539D01*
X112240917Y-84503275D01*
X112175464Y-84475771D01*
X112135271Y-84417248D01*
X112133098Y-84346284D01*
X112165927Y-84288974D01*
X115714769Y-80740133D01*
X115777081Y-80706107D01*
X115847896Y-80711172D01*
G37*
%TD.AperFunction*%
%TA.AperFunction,Conductor*%
G36*
X118046605Y-78512463D02*
G01*
X118103441Y-78555010D01*
X118128252Y-78621530D01*
X118128573Y-78630519D01*
X118128573Y-79401000D01*
X118108571Y-79469121D01*
X118054915Y-79515614D01*
X118002573Y-79527000D01*
X117575827Y-79527000D01*
X117575827Y-80444950D01*
X117499758Y-80413442D01*
X117381907Y-80390000D01*
X117261747Y-80390000D01*
X117143896Y-80413442D01*
X117067827Y-80444950D01*
X117067827Y-79511093D01*
X117052934Y-79483820D01*
X117057999Y-79413005D01*
X117086960Y-79367942D01*
X117913478Y-78541424D01*
X117975790Y-78507398D01*
X118046605Y-78512463D01*
G37*
%TD.AperFunction*%
%TD*%
M02*
