G04 #@! TF.GenerationSoftware,KiCad,Pcbnew,10.0.6*
G04 #@! TF.CreationDate,2026-10-07T19:39:00-07:00*
G04 #@! TF.ProjectId,AttenuverterFaceplate,41747465-6e75-4766-9572-746572466163,1.1*
G04 #@! TF.SameCoordinates,Original*
G04 #@! TF.FileFunction,Legend,Top*
G04 #@! TF.FilePolarity,Positive*
%FSLAX46Y46*%
G04 Gerber Fmt 4.6, Leading zero omitted, Abs format (unit mm)*
G04 Created by KiCad (PCBNEW 10.0.6) date 2026-10-07 19:39:00*
%MOMM*%
%LPD*%
G01*
G04 APERTURE LIST*
%ADD10C,0.200000*%
%ADD11C,0.300000*%
%ADD12C,0.500000*%
%ADD13C,5.000000*%
%ADD14C,0.010000*%
G04 APERTURE END LIST*
D10*
X114950000Y-73062997D02*
G75*
G02*
X120868372Y-68858178I7250000J-3937003D01*
G01*
X114950000Y-99062997D02*
G75*
G02*
X120868372Y-94858178I7250000J-3937003D01*
G01*
X114950000Y-125062997D02*
G75*
G02*
X120868372Y-120858178I7250000J-3937003D01*
G01*
X115000000Y-47062997D02*
G75*
G02*
X120918372Y-42858178I7250000J-3937003D01*
G01*
D11*
X118700000Y-77000000D02*
X114950000Y-77000000D01*
X118700000Y-103000000D02*
X114950000Y-103000000D01*
X118700000Y-129000000D02*
X114950000Y-129000000D01*
X118750000Y-51000000D02*
X115000000Y-51000000D01*
D10*
X118819259Y-76094134D02*
X115680000Y-75252972D01*
X118819259Y-77905867D02*
X115680000Y-78747029D01*
X118819259Y-102094134D02*
X115680000Y-101252972D01*
X118819259Y-103905867D02*
X115680000Y-104747029D01*
X118819259Y-128094134D02*
X115680000Y-127252972D01*
X118819259Y-129905867D02*
X115680000Y-130747029D01*
X118869259Y-50094134D02*
X115730000Y-49252972D01*
X118869259Y-51905867D02*
X115730000Y-52747029D01*
X119168911Y-75250000D02*
X116354328Y-73625000D01*
X119168911Y-78750000D02*
X116354328Y-80375000D01*
X119168911Y-101250000D02*
X116354328Y-99625000D01*
X119168911Y-104750000D02*
X116354328Y-106375000D01*
X119168911Y-127250000D02*
X116354328Y-125625000D01*
X119168911Y-130750000D02*
X116354328Y-132375000D01*
X119218911Y-49250000D02*
X116404328Y-47625000D01*
X119218911Y-52750000D02*
X116404328Y-54375000D01*
D11*
X119725126Y-74525127D02*
X117073475Y-71873476D01*
X119725126Y-79474874D02*
X117073475Y-82126525D01*
X119725126Y-100525127D02*
X117073475Y-97873476D01*
X119725126Y-105474874D02*
X117073475Y-108126525D01*
X119725126Y-126525127D02*
X117073475Y-123873476D01*
X119725126Y-131474874D02*
X117073475Y-134126525D01*
X119775126Y-48525127D02*
X117123475Y-45873476D01*
X119775126Y-53474874D02*
X117123475Y-56126525D01*
D10*
X120450000Y-73968912D02*
X118825000Y-71154329D01*
D11*
X120450000Y-80031089D02*
X118825000Y-82845672D01*
D10*
X120450000Y-99968912D02*
X118825000Y-97154329D01*
D11*
X120450000Y-106031089D02*
X118825000Y-108845672D01*
D10*
X120450000Y-125968912D02*
X118825000Y-123154329D01*
D11*
X120450000Y-132031089D02*
X118825000Y-134845672D01*
D10*
X120500000Y-47968912D02*
X118875000Y-45154329D01*
D11*
X120500000Y-54031089D02*
X118875000Y-56845672D01*
D10*
X120868372Y-68858178D02*
X137942953Y-66065563D01*
X120868373Y-85141822D02*
G75*
G02*
X114950000Y-80937004I1331627J8141822D01*
G01*
X120868372Y-85141823D02*
X137942953Y-87934438D01*
X120868372Y-94858178D02*
X137942953Y-92065563D01*
X120868373Y-111141822D02*
G75*
G02*
X114950000Y-106937004I1331627J8141822D01*
G01*
X120868372Y-111141823D02*
X137942953Y-113934438D01*
X120868372Y-120858178D02*
X137942953Y-118065563D01*
X120868373Y-137141822D02*
G75*
G02*
X114950000Y-132937004I1331627J8141822D01*
G01*
X120868372Y-137141823D02*
X137942953Y-139934438D01*
X120918372Y-42858178D02*
X137992953Y-40065563D01*
X120918373Y-59141822D02*
G75*
G02*
X115000000Y-54937004I1331627J8141822D01*
G01*
X120918372Y-59141823D02*
X137992953Y-61934438D01*
X121294133Y-73619260D02*
X120452971Y-70480001D01*
X121294133Y-99619260D02*
X120452971Y-96480001D01*
X121294133Y-125619260D02*
X120452971Y-122480001D01*
X121344133Y-47619260D02*
X120502971Y-44480001D01*
D12*
X122200000Y-73500000D02*
X122200000Y-69750000D01*
X122200000Y-99500000D02*
X122200000Y-95750000D01*
X122200000Y-125500000D02*
X122200000Y-121750000D01*
X122250000Y-47500000D02*
X122250000Y-43750000D01*
D10*
X123105866Y-73619260D02*
X123947028Y-70480001D01*
X123105866Y-99619260D02*
X123947028Y-96480001D01*
X123105866Y-125619260D02*
X123947028Y-122480001D01*
X123155866Y-47619260D02*
X123997028Y-44480001D01*
X123950000Y-73968912D02*
X125575000Y-71154329D01*
D11*
X123950000Y-80031089D02*
X125575000Y-82845672D01*
D10*
X123950000Y-99968912D02*
X125575000Y-97154329D01*
D11*
X123950000Y-106031089D02*
X125575000Y-108845672D01*
D10*
X123950000Y-125968912D02*
X125575000Y-123154329D01*
D11*
X123950000Y-132031089D02*
X125575000Y-134845672D01*
D10*
X124000000Y-47968912D02*
X125625000Y-45154329D01*
D11*
X124000000Y-54031089D02*
X125625000Y-56845672D01*
X124674873Y-74525127D02*
X127326524Y-71873476D01*
X124674873Y-79474874D02*
X127326524Y-82126525D01*
X124674873Y-100525127D02*
X127326524Y-97873476D01*
X124674873Y-105474874D02*
X127326524Y-108126525D01*
X124674873Y-126525127D02*
X127326524Y-123873476D01*
X124674873Y-131474874D02*
X127326524Y-134126525D01*
X124724873Y-48525127D02*
X127376524Y-45873476D01*
X124724873Y-53474874D02*
X127376524Y-56126525D01*
D10*
X125231088Y-75250000D02*
X128045671Y-73625000D01*
X125231088Y-78750000D02*
X128045671Y-80375000D01*
X125231088Y-101250000D02*
X128045671Y-99625000D01*
X125231088Y-104750000D02*
X128045671Y-106375000D01*
X125231088Y-127250000D02*
X128045671Y-125625000D01*
X125231088Y-130750000D02*
X128045671Y-132375000D01*
X125281088Y-49250000D02*
X128095671Y-47625000D01*
X125281088Y-52750000D02*
X128095671Y-54375000D01*
X125580740Y-76094134D02*
X128719999Y-75252972D01*
X125580740Y-77905867D02*
X128719999Y-78747029D01*
X125580740Y-102094134D02*
X128719999Y-101252972D01*
X125580740Y-103905867D02*
X128719999Y-104747029D01*
X125580740Y-128094134D02*
X128719999Y-127252972D01*
X125580740Y-129905867D02*
X128719999Y-130747029D01*
X125630740Y-50094134D02*
X128769999Y-49252972D01*
X125630740Y-51905867D02*
X128769999Y-52747029D01*
D11*
X125700000Y-77000000D02*
X129450000Y-77000000D01*
X125700000Y-103000000D02*
X129450000Y-103000000D01*
X125700000Y-129000000D02*
X129450000Y-129000000D01*
X125750000Y-51000000D02*
X129500000Y-51000000D01*
D10*
X137942953Y-66065562D02*
G75*
G02*
X143750000Y-71000000I807047J-4934438D01*
G01*
X137942953Y-92065562D02*
G75*
G02*
X143750000Y-97000000I807047J-4934438D01*
G01*
X137942953Y-118065562D02*
G75*
G02*
X143750000Y-123000000I807047J-4934438D01*
G01*
X137992953Y-40065562D02*
G75*
G02*
X143800000Y-45000000I807047J-4934438D01*
G01*
D13*
X141200000Y-83000000D02*
G75*
G02*
X136300000Y-83000000I-2450000J0D01*
G01*
X136300000Y-83000000D02*
G75*
G02*
X141200000Y-83000000I2450000J0D01*
G01*
X141200000Y-109000000D02*
G75*
G02*
X136300000Y-109000000I-2450000J0D01*
G01*
X136300000Y-109000000D02*
G75*
G02*
X141200000Y-109000000I2450000J0D01*
G01*
X141200000Y-135000000D02*
G75*
G02*
X136300000Y-135000000I-2450000J0D01*
G01*
X136300000Y-135000000D02*
G75*
G02*
X141200000Y-135000000I2450000J0D01*
G01*
X141250000Y-57000000D02*
G75*
G02*
X136350000Y-57000000I-2450000J0D01*
G01*
X136350000Y-57000000D02*
G75*
G02*
X141250000Y-57000000I2450000J0D01*
G01*
D10*
X143750000Y-71000000D02*
X143750000Y-83000000D01*
X143750000Y-83000000D02*
G75*
G02*
X137942953Y-87934438I-5000000J0D01*
G01*
X143750000Y-97000000D02*
X143750000Y-109000000D01*
X143750000Y-109000000D02*
G75*
G02*
X137942953Y-113934438I-5000000J0D01*
G01*
X143750000Y-123000000D02*
X143750000Y-135000000D01*
X143750000Y-135000000D02*
G75*
G02*
X137942953Y-139934438I-5000000J0D01*
G01*
X143800000Y-45000000D02*
X143800000Y-57000000D01*
X143800000Y-57000000D02*
G75*
G02*
X137992953Y-61934438I-5000000J0D01*
G01*
D11*
G36*
X119636847Y-32531049D02*
G01*
X119737374Y-32572937D01*
X119823622Y-32639035D01*
X119889720Y-32725283D01*
X119931603Y-32825831D01*
X119945744Y-32937164D01*
X119945744Y-35037500D01*
X119658758Y-35037500D01*
X119658758Y-34119146D01*
X117712143Y-34119146D01*
X117712143Y-35037500D01*
X117425157Y-35037500D01*
X117425157Y-32940064D01*
X117712143Y-32940064D01*
X117712143Y-33831856D01*
X119658758Y-33831856D01*
X119658758Y-32940064D01*
X119648758Y-32888250D01*
X119618611Y-32844199D01*
X119574466Y-32814159D01*
X119522746Y-32804204D01*
X117848156Y-32804204D01*
X117796304Y-32814166D01*
X117752138Y-32844199D01*
X117722110Y-32888238D01*
X117712143Y-32940064D01*
X117425157Y-32940064D01*
X117425157Y-32937164D01*
X117439298Y-32825831D01*
X117481181Y-32725283D01*
X117547252Y-32639024D01*
X117633375Y-32572937D01*
X117734031Y-32531045D01*
X117845255Y-32516913D01*
X119525646Y-32516913D01*
X119636847Y-32531049D01*
G37*
G36*
X120755867Y-35037500D02*
G01*
X120641548Y-35022863D01*
X120540170Y-34979797D01*
X120453812Y-34912253D01*
X120387671Y-34825619D01*
X120345779Y-34724962D01*
X120331647Y-34613738D01*
X120331647Y-32341058D01*
X120618633Y-32341058D01*
X120618633Y-33005399D01*
X121499128Y-33005399D01*
X121499128Y-33292690D01*
X120618633Y-33292690D01*
X120618633Y-34613586D01*
X120628663Y-34665571D01*
X120658933Y-34709909D01*
X120703397Y-34740183D01*
X120755409Y-34750209D01*
X121499128Y-34750209D01*
X121499128Y-35037500D01*
X120755867Y-35037500D01*
G37*
G36*
X122189572Y-35037500D02*
G01*
X122075254Y-35022863D01*
X121973875Y-34979797D01*
X121887517Y-34912253D01*
X121821376Y-34825619D01*
X121779485Y-34724962D01*
X121765353Y-34613738D01*
X121765353Y-32341058D01*
X122052338Y-32341058D01*
X122052338Y-33005399D01*
X122932834Y-33005399D01*
X122932834Y-33292690D01*
X122052338Y-33292690D01*
X122052338Y-34613586D01*
X122062369Y-34665571D01*
X122092638Y-34709909D01*
X122137102Y-34740183D01*
X122189114Y-34750209D01*
X122932834Y-34750209D01*
X122932834Y-35037500D01*
X122189572Y-35037500D01*
G37*
G36*
X124941879Y-33020029D02*
G01*
X125042787Y-33063101D01*
X125129334Y-33130300D01*
X125196660Y-33216822D01*
X125239839Y-33317407D01*
X125254362Y-33428244D01*
X125254362Y-34162194D01*
X123476274Y-34162194D01*
X123476274Y-34612975D01*
X123486269Y-34665156D01*
X123516421Y-34709756D01*
X123560749Y-34740152D01*
X123612592Y-34750209D01*
X125254362Y-34750209D01*
X125254362Y-35037500D01*
X123612134Y-35037500D01*
X123501297Y-35022977D01*
X123400711Y-34979797D01*
X123314288Y-34912340D01*
X123246991Y-34825619D01*
X123203813Y-34724733D01*
X123189289Y-34613586D01*
X123189289Y-33429313D01*
X123189369Y-33428702D01*
X123476274Y-33428702D01*
X123476274Y-33874904D01*
X124967377Y-33874904D01*
X124967377Y-33428702D01*
X124957343Y-33376900D01*
X124927077Y-33332837D01*
X124882772Y-33302680D01*
X124830906Y-33292690D01*
X123612897Y-33292690D01*
X123560900Y-33302687D01*
X123516574Y-33332837D01*
X123486307Y-33376900D01*
X123476274Y-33428702D01*
X123189369Y-33428702D01*
X123203817Y-33318188D01*
X123246991Y-33217432D01*
X123314305Y-33130617D01*
X123400711Y-33063254D01*
X123501306Y-33019958D01*
X123612134Y-33005399D01*
X124828158Y-33005399D01*
X124941879Y-33020029D01*
G37*
G36*
X125619505Y-35037500D02*
G01*
X125619505Y-33005399D01*
X127266465Y-33005399D01*
X127377713Y-33019968D01*
X127478498Y-33063254D01*
X127565312Y-33130643D01*
X127632829Y-33217432D01*
X127676120Y-33318197D01*
X127690684Y-33429313D01*
X127690684Y-35037500D01*
X127403699Y-35037500D01*
X127403699Y-33429313D01*
X127393669Y-33377327D01*
X127363399Y-33332990D01*
X127319040Y-33302727D01*
X127266923Y-33292690D01*
X126046777Y-33292690D01*
X125994347Y-33302669D01*
X125948470Y-33332990D01*
X125916882Y-33377458D01*
X125906490Y-33429313D01*
X125906490Y-35037500D01*
X125619505Y-35037500D01*
G37*
G36*
X128478520Y-35037500D02*
G01*
X128367504Y-35022980D01*
X128266640Y-34979797D01*
X128179933Y-34912325D01*
X128112461Y-34825619D01*
X128069166Y-34724724D01*
X128054606Y-34613586D01*
X128054606Y-33005399D01*
X128341592Y-33005399D01*
X128341592Y-34613586D01*
X128351622Y-34665571D01*
X128381892Y-34709909D01*
X128426355Y-34740183D01*
X128478368Y-34750209D01*
X129698361Y-34750209D01*
X129750791Y-34740230D01*
X129796668Y-34709909D01*
X129828376Y-34665429D01*
X129838800Y-34613586D01*
X129838800Y-33005399D01*
X130125786Y-33005399D01*
X130125786Y-34613586D01*
X130111226Y-34724724D01*
X130067931Y-34825619D01*
X130000431Y-34912314D01*
X129913600Y-34979797D01*
X129812351Y-35022859D01*
X129698055Y-35037500D01*
X128478520Y-35037500D01*
G37*
G36*
X131492630Y-35037500D02*
G01*
X130372623Y-33005399D01*
X130708763Y-33005399D01*
X131660699Y-34757231D01*
X132612636Y-33005399D01*
X132948622Y-33005399D01*
X131825258Y-35037500D01*
X131492630Y-35037500D01*
G37*
G36*
X134887448Y-33020029D02*
G01*
X134988355Y-33063101D01*
X135074902Y-33130300D01*
X135142228Y-33216822D01*
X135185408Y-33317407D01*
X135199931Y-33428244D01*
X135199931Y-34162194D01*
X133421843Y-34162194D01*
X133421843Y-34612975D01*
X133431837Y-34665156D01*
X133461990Y-34709756D01*
X133506318Y-34740152D01*
X133558161Y-34750209D01*
X135199931Y-34750209D01*
X135199931Y-35037500D01*
X133557703Y-35037500D01*
X133446865Y-35022977D01*
X133346280Y-34979797D01*
X133259856Y-34912340D01*
X133192560Y-34825619D01*
X133149381Y-34724733D01*
X133134857Y-34613586D01*
X133134857Y-33429313D01*
X133134937Y-33428702D01*
X133421843Y-33428702D01*
X133421843Y-33874904D01*
X134912945Y-33874904D01*
X134912945Y-33428702D01*
X134902912Y-33376900D01*
X134872645Y-33332837D01*
X134828341Y-33302680D01*
X134776475Y-33292690D01*
X133558466Y-33292690D01*
X133506469Y-33302687D01*
X133462143Y-33332837D01*
X133431876Y-33376900D01*
X133421843Y-33428702D01*
X133134937Y-33428702D01*
X133149386Y-33318188D01*
X133192560Y-33217432D01*
X133259874Y-33130617D01*
X133346280Y-33063254D01*
X133446875Y-33019958D01*
X133557703Y-33005399D01*
X134773727Y-33005399D01*
X134887448Y-33020029D01*
G37*
G36*
X135547977Y-35037500D02*
G01*
X135547977Y-33429313D01*
X135562505Y-33318188D01*
X135605679Y-33217432D01*
X135673021Y-33130628D01*
X135759552Y-33063254D01*
X135860188Y-33019967D01*
X135971280Y-33005399D01*
X137111131Y-33005399D01*
X137111131Y-33292690D01*
X135971433Y-33292690D01*
X135919447Y-33302720D01*
X135875110Y-33332990D01*
X135844959Y-33377315D01*
X135834962Y-33429313D01*
X135834962Y-35037500D01*
X135547977Y-35037500D01*
G37*
G36*
X137762496Y-35037500D02*
G01*
X137648178Y-35022863D01*
X137546799Y-34979797D01*
X137460441Y-34912253D01*
X137394300Y-34825619D01*
X137352408Y-34724962D01*
X137338277Y-34613738D01*
X137338277Y-32341058D01*
X137625262Y-32341058D01*
X137625262Y-33005399D01*
X138505758Y-33005399D01*
X138505758Y-33292690D01*
X137625262Y-33292690D01*
X137625262Y-34613586D01*
X137635293Y-34665571D01*
X137665562Y-34709909D01*
X137710026Y-34740183D01*
X137762038Y-34750209D01*
X138505758Y-34750209D01*
X138505758Y-35037500D01*
X137762496Y-35037500D01*
G37*
G36*
X140514803Y-33020029D02*
G01*
X140615711Y-33063101D01*
X140702257Y-33130300D01*
X140769584Y-33216822D01*
X140812763Y-33317407D01*
X140827286Y-33428244D01*
X140827286Y-34162194D01*
X139049198Y-34162194D01*
X139049198Y-34612975D01*
X139059193Y-34665156D01*
X139089345Y-34709756D01*
X139133673Y-34740152D01*
X139185516Y-34750209D01*
X140827286Y-34750209D01*
X140827286Y-35037500D01*
X139185058Y-35037500D01*
X139074221Y-35022977D01*
X138973635Y-34979797D01*
X138887212Y-34912340D01*
X138819915Y-34825619D01*
X138776737Y-34724733D01*
X138762213Y-34613586D01*
X138762213Y-33429313D01*
X138762293Y-33428702D01*
X139049198Y-33428702D01*
X139049198Y-33874904D01*
X140540301Y-33874904D01*
X140540301Y-33428702D01*
X140530267Y-33376900D01*
X140500000Y-33332837D01*
X140455696Y-33302680D01*
X140403830Y-33292690D01*
X139185821Y-33292690D01*
X139133824Y-33302687D01*
X139089498Y-33332837D01*
X139059231Y-33376900D01*
X139049198Y-33428702D01*
X138762293Y-33428702D01*
X138776741Y-33318188D01*
X138819915Y-33217432D01*
X138887229Y-33130617D01*
X138973635Y-33063254D01*
X139074230Y-33019958D01*
X139185058Y-33005399D01*
X140401082Y-33005399D01*
X140514803Y-33020029D01*
G37*
G36*
X141175332Y-35037500D02*
G01*
X141175332Y-33429313D01*
X141189860Y-33318188D01*
X141233034Y-33217432D01*
X141300376Y-33130628D01*
X141386907Y-33063254D01*
X141487543Y-33019967D01*
X141598635Y-33005399D01*
X142738486Y-33005399D01*
X142738486Y-33292690D01*
X141598788Y-33292690D01*
X141546802Y-33302720D01*
X141502465Y-33332990D01*
X141472315Y-33377315D01*
X141462317Y-33429313D01*
X141462317Y-35037500D01*
X141175332Y-35037500D01*
G37*
G36*
X117956901Y-152054348D02*
G01*
X117947239Y-152130058D01*
X117918597Y-152198531D01*
X117873420Y-152257073D01*
X117814379Y-152302022D01*
X117745435Y-152330510D01*
X117669366Y-152340118D01*
X117602205Y-152340118D01*
X117602205Y-152144968D01*
X117668847Y-152144968D01*
X117704116Y-152138175D01*
X117734243Y-152117668D01*
X117754746Y-152087627D01*
X117761543Y-152052376D01*
X117761543Y-150913758D01*
X117754743Y-150878525D01*
X117734243Y-150848570D01*
X117704116Y-150828063D01*
X117668847Y-150821270D01*
X117285917Y-150821270D01*
X117250863Y-150828103D01*
X117221766Y-150848570D01*
X117202160Y-150878537D01*
X117195608Y-150913966D01*
X117195608Y-152054867D01*
X117185753Y-152130332D01*
X117156474Y-152198738D01*
X117110876Y-152257363D01*
X117053086Y-152302126D01*
X116985819Y-152330503D01*
X116910564Y-152340118D01*
X116528049Y-152340118D01*
X116452538Y-152330506D01*
X116384282Y-152302022D01*
X116325818Y-152257105D01*
X116280998Y-152198531D01*
X116252515Y-152130070D01*
X116242902Y-152054348D01*
X116242902Y-150911786D01*
X116252566Y-150836092D01*
X116281205Y-150767707D01*
X116326275Y-150709091D01*
X116385112Y-150664215D01*
X116453675Y-150635733D01*
X116529503Y-150626120D01*
X116596352Y-150626120D01*
X116596352Y-150821270D01*
X116530333Y-150821270D01*
X116495207Y-150828068D01*
X116465352Y-150848570D01*
X116445015Y-150878509D01*
X116438260Y-150913758D01*
X116438260Y-152052376D01*
X116445011Y-152087643D01*
X116465352Y-152117668D01*
X116495207Y-152138170D01*
X116530333Y-152144968D01*
X116910564Y-152144968D01*
X116945332Y-152138146D01*
X116974299Y-152117668D01*
X116993747Y-152087630D01*
X117000250Y-152052168D01*
X117000250Y-150911267D01*
X117010181Y-150835836D01*
X117039695Y-150767500D01*
X117085443Y-150708829D01*
X117143499Y-150664112D01*
X117210983Y-150635739D01*
X117286539Y-150626120D01*
X117670611Y-150626120D01*
X117746364Y-150635727D01*
X117815002Y-150664215D01*
X117873753Y-150709083D01*
X117918805Y-150767707D01*
X117947285Y-150836080D01*
X117956901Y-150911786D01*
X117956901Y-152054348D01*
G37*
G36*
X117956901Y-149696873D02*
G01*
X116438260Y-149696873D01*
X116438260Y-150458374D01*
X116242902Y-150458374D01*
X116242902Y-148744375D01*
X116438260Y-148744375D01*
X116438260Y-149501723D01*
X117956901Y-149501723D01*
X117956901Y-149696873D01*
G37*
G36*
X117352351Y-148560021D02*
G01*
X117156993Y-148560021D01*
X117156993Y-147629944D01*
X117352351Y-147629944D01*
X117352351Y-148560021D01*
G37*
G36*
X117744405Y-145617761D02*
G01*
X117812925Y-145647199D01*
X117871867Y-145692983D01*
X117917663Y-145751832D01*
X117947019Y-145820258D01*
X117956901Y-145895807D01*
X117956901Y-147049788D01*
X117946949Y-147127313D01*
X117917663Y-147196046D01*
X117871818Y-147254658D01*
X117812925Y-147299538D01*
X117744479Y-147328024D01*
X117668847Y-147337634D01*
X116533447Y-147337634D01*
X116455673Y-147327947D01*
X116386981Y-147299538D01*
X116328088Y-147254658D01*
X116282243Y-147196046D01*
X116252879Y-147127307D01*
X116242902Y-147049788D01*
X116242902Y-147049684D01*
X116438260Y-147049684D01*
X116445080Y-147085034D01*
X116465664Y-147115184D01*
X116495834Y-147135676D01*
X116531371Y-147142484D01*
X117525494Y-147142484D01*
X116438260Y-145829166D01*
X116438260Y-147049684D01*
X116242902Y-147049684D01*
X116242902Y-145895807D01*
X116252808Y-145820264D01*
X116260231Y-145803007D01*
X116674308Y-145803007D01*
X117761543Y-147118713D01*
X117761543Y-145895807D01*
X117754719Y-145860475D01*
X117734139Y-145830411D01*
X117703975Y-145809833D01*
X117668535Y-145803007D01*
X116674308Y-145803007D01*
X116260231Y-145803007D01*
X116282243Y-145751832D01*
X116328039Y-145692983D01*
X116386981Y-145647199D01*
X116455748Y-145617840D01*
X116533447Y-145607857D01*
X117668847Y-145607857D01*
X117744405Y-145617761D01*
G37*
G36*
X117956901Y-145069015D02*
G01*
X117946948Y-145146646D01*
X117917663Y-145215481D01*
X117871890Y-145274359D01*
X117813029Y-145320219D01*
X117744523Y-145349660D01*
X117669054Y-145359560D01*
X117630958Y-145359560D01*
X117630958Y-145164410D01*
X117668950Y-145164410D01*
X117704194Y-145157591D01*
X117734243Y-145137006D01*
X117754748Y-145106778D01*
X117761543Y-145071402D01*
X117761543Y-143913893D01*
X117754740Y-143878445D01*
X117734243Y-143848289D01*
X117704186Y-143827623D01*
X117668950Y-143820781D01*
X117272215Y-143820781D01*
X117236979Y-143827623D01*
X117206922Y-143848289D01*
X117186425Y-143878445D01*
X117179622Y-143913893D01*
X117179622Y-145033203D01*
X116984264Y-145033203D01*
X116984264Y-143991018D01*
X116977439Y-143955579D01*
X116956860Y-143925415D01*
X116926682Y-143904841D01*
X116891153Y-143898011D01*
X116531267Y-143898011D01*
X116495756Y-143904844D01*
X116465664Y-143925415D01*
X116445085Y-143955579D01*
X116438260Y-143991018D01*
X116438260Y-145071402D01*
X116445077Y-145106770D01*
X116465664Y-145137006D01*
X116495756Y-145157576D01*
X116531267Y-145164410D01*
X116593134Y-145164410D01*
X116593134Y-145359560D01*
X116531682Y-145359560D01*
X116454474Y-145349609D01*
X116386047Y-145320322D01*
X116327484Y-145274476D01*
X116281932Y-145215585D01*
X116252802Y-145146776D01*
X116242902Y-145069222D01*
X116242902Y-143990811D01*
X116252854Y-143913285D01*
X116282140Y-143844552D01*
X116327891Y-143785852D01*
X116386669Y-143740956D01*
X116455246Y-143712544D01*
X116532824Y-143702861D01*
X116891568Y-143702861D01*
X116956964Y-143711165D01*
X117015198Y-143731199D01*
X117076298Y-143679848D01*
X117141319Y-143648468D01*
X117209779Y-143631111D01*
X117272007Y-143625631D01*
X117669158Y-143625631D01*
X117744611Y-143635534D01*
X117813029Y-143664973D01*
X117871883Y-143710851D01*
X117917663Y-143769814D01*
X117947015Y-143838254D01*
X117956901Y-143913893D01*
X117956901Y-145069015D01*
G37*
D14*
X132313987Y-151052444D02*
X131577765Y-151052444D01*
X131577765Y-150770222D01*
X132313987Y-150770222D01*
X132313987Y-151052444D01*
G36*
X132313987Y-151052444D02*
G01*
X131577765Y-151052444D01*
X131577765Y-150770222D01*
X132313987Y-150770222D01*
X132313987Y-151052444D01*
G37*
X144093535Y-150516222D02*
X143679728Y-150516222D01*
X143512635Y-150517297D01*
X143389679Y-150521606D01*
X143304239Y-150530772D01*
X143249699Y-150546421D01*
X143219440Y-150570176D01*
X143206844Y-150603661D01*
X143204992Y-150632739D01*
X143212106Y-150685562D01*
X143238005Y-150723261D01*
X143289522Y-150748195D01*
X143373490Y-150762723D01*
X143496742Y-150769205D01*
X143603193Y-150770222D01*
X143741625Y-150771387D01*
X143840450Y-150775945D01*
X143910807Y-150785490D01*
X143963838Y-150801617D01*
X144010683Y-150825919D01*
X144016204Y-150829326D01*
X144115373Y-150919749D01*
X144178466Y-151036542D01*
X144205458Y-151167672D01*
X144196323Y-151301105D01*
X144151037Y-151424806D01*
X144069571Y-151526740D01*
X144017770Y-151564308D01*
X143981077Y-151582893D01*
X143937290Y-151596576D01*
X143878463Y-151606081D01*
X143796648Y-151612131D01*
X143683900Y-151615449D01*
X143532271Y-151616760D01*
X143440217Y-151616889D01*
X142951122Y-151616889D01*
X142951122Y-151306444D01*
X143415703Y-151306444D01*
X143592358Y-151305604D01*
X143724586Y-151302143D01*
X143818727Y-151294651D01*
X143881117Y-151281719D01*
X143918091Y-151261936D01*
X143935989Y-151233891D01*
X143941147Y-151196176D01*
X143941213Y-151189511D01*
X143930029Y-151136981D01*
X143892700Y-151098860D01*
X143823563Y-151073326D01*
X143716955Y-151058555D01*
X143567210Y-151052723D01*
X143515420Y-151052444D01*
X143353300Y-151049364D01*
X143232772Y-151038055D01*
X143144860Y-151015418D01*
X143080592Y-150978353D01*
X143030991Y-150923759D01*
X143000869Y-150874685D01*
X142962136Y-150760557D01*
X142951217Y-150624221D01*
X142955879Y-150520050D01*
X142974468Y-150447319D01*
X143013658Y-150381602D01*
X143019751Y-150373439D01*
X143068176Y-150316048D01*
X143119881Y-150273293D01*
X143183028Y-150243081D01*
X143265779Y-150223320D01*
X143376298Y-150211918D01*
X143522747Y-150206781D01*
X143673835Y-150205778D01*
X144093535Y-150205778D01*
X144093535Y-150516222D01*
G36*
X144093535Y-150516222D02*
G01*
X143679728Y-150516222D01*
X143512635Y-150517297D01*
X143389679Y-150521606D01*
X143304239Y-150530772D01*
X143249699Y-150546421D01*
X143219440Y-150570176D01*
X143206844Y-150603661D01*
X143204992Y-150632739D01*
X143212106Y-150685562D01*
X143238005Y-150723261D01*
X143289522Y-150748195D01*
X143373490Y-150762723D01*
X143496742Y-150769205D01*
X143603193Y-150770222D01*
X143741625Y-150771387D01*
X143840450Y-150775945D01*
X143910807Y-150785490D01*
X143963838Y-150801617D01*
X144010683Y-150825919D01*
X144016204Y-150829326D01*
X144115373Y-150919749D01*
X144178466Y-151036542D01*
X144205458Y-151167672D01*
X144196323Y-151301105D01*
X144151037Y-151424806D01*
X144069571Y-151526740D01*
X144017770Y-151564308D01*
X143981077Y-151582893D01*
X143937290Y-151596576D01*
X143878463Y-151606081D01*
X143796648Y-151612131D01*
X143683900Y-151615449D01*
X143532271Y-151616760D01*
X143440217Y-151616889D01*
X142951122Y-151616889D01*
X142951122Y-151306444D01*
X143415703Y-151306444D01*
X143592358Y-151305604D01*
X143724586Y-151302143D01*
X143818727Y-151294651D01*
X143881117Y-151281719D01*
X143918091Y-151261936D01*
X143935989Y-151233891D01*
X143941147Y-151196176D01*
X143941213Y-151189511D01*
X143930029Y-151136981D01*
X143892700Y-151098860D01*
X143823563Y-151073326D01*
X143716955Y-151058555D01*
X143567210Y-151052723D01*
X143515420Y-151052444D01*
X143353300Y-151049364D01*
X143232772Y-151038055D01*
X143144860Y-151015418D01*
X143080592Y-150978353D01*
X143030991Y-150923759D01*
X143000869Y-150874685D01*
X142962136Y-150760557D01*
X142951217Y-150624221D01*
X142955879Y-150520050D01*
X142974468Y-150447319D01*
X143013658Y-150381602D01*
X143019751Y-150373439D01*
X143068176Y-150316048D01*
X143119881Y-150273293D01*
X143183028Y-150243081D01*
X143265779Y-150223320D01*
X143376298Y-150211918D01*
X143522747Y-150206781D01*
X143673835Y-150205778D01*
X144093535Y-150205778D01*
X144093535Y-150516222D01*
G37*
X142824188Y-150514889D02*
X142386262Y-150522611D01*
X141948337Y-150530333D01*
X141941278Y-150917719D01*
X141934219Y-151305104D01*
X142372856Y-151312830D01*
X142811494Y-151320555D01*
X142826840Y-151616889D01*
X142362202Y-151616783D01*
X142195113Y-151616239D01*
X142070598Y-151614124D01*
X141980462Y-151609586D01*
X141916512Y-151601774D01*
X141870548Y-151589834D01*
X141834378Y-151572915D01*
X141813528Y-151559721D01*
X141757320Y-151513406D01*
X141715916Y-151455813D01*
X141687221Y-151378208D01*
X141669140Y-151271855D01*
X141659576Y-151128021D01*
X141656434Y-150937971D01*
X141656387Y-150904744D01*
X141657409Y-150736701D01*
X141661145Y-150614250D01*
X141668598Y-150526573D01*
X141680772Y-150462848D01*
X141698674Y-150412255D01*
X141702968Y-150402893D01*
X141738445Y-150338385D01*
X141780478Y-150289508D01*
X141836234Y-150254156D01*
X141912883Y-150230222D01*
X142017592Y-150215599D01*
X142157529Y-150208181D01*
X142339867Y-150205860D01*
X142373569Y-150205821D01*
X142824188Y-150205778D01*
X142824188Y-150514889D01*
G36*
X142824188Y-150514889D02*
G01*
X142386262Y-150522611D01*
X141948337Y-150530333D01*
X141941278Y-150917719D01*
X141934219Y-151305104D01*
X142372856Y-151312830D01*
X142811494Y-151320555D01*
X142826840Y-151616889D01*
X142362202Y-151616783D01*
X142195113Y-151616239D01*
X142070598Y-151614124D01*
X141980462Y-151609586D01*
X141916512Y-151601774D01*
X141870548Y-151589834D01*
X141834378Y-151572915D01*
X141813528Y-151559721D01*
X141757320Y-151513406D01*
X141715916Y-151455813D01*
X141687221Y-151378208D01*
X141669140Y-151271855D01*
X141659576Y-151128021D01*
X141656434Y-150937971D01*
X141656387Y-150904744D01*
X141657409Y-150736701D01*
X141661145Y-150614250D01*
X141668598Y-150526573D01*
X141680772Y-150462848D01*
X141698674Y-150412255D01*
X141702968Y-150402893D01*
X141738445Y-150338385D01*
X141780478Y-150289508D01*
X141836234Y-150254156D01*
X141912883Y-150230222D01*
X142017592Y-150215599D01*
X142157529Y-150208181D01*
X142339867Y-150205860D01*
X142373569Y-150205821D01*
X142824188Y-150205778D01*
X142824188Y-150514889D01*
G37*
X141478679Y-151616889D02*
X141199422Y-151616889D01*
X141199422Y-150205778D01*
X141478679Y-150205778D01*
X141478679Y-151616889D01*
G36*
X141478679Y-151616889D02*
G01*
X141199422Y-151616889D01*
X141199422Y-150205778D01*
X141478679Y-150205778D01*
X141478679Y-151616889D01*
G37*
X137144353Y-150207959D02*
X137301013Y-150210058D01*
X137369592Y-150211203D01*
X137877999Y-150219889D01*
X137952026Y-150312056D01*
X137989915Y-150363972D01*
X138012094Y-150413983D01*
X138022710Y-150479514D01*
X138025914Y-150577993D01*
X138026053Y-150622941D01*
X138017458Y-150791004D01*
X137988357Y-150916766D01*
X137933770Y-151011666D01*
X137848718Y-151087142D01*
X137814542Y-151108889D01*
X137748257Y-151151282D01*
X137705267Y-151184311D01*
X137696095Y-151196201D01*
X137714269Y-151220193D01*
X137763442Y-151271872D01*
X137835488Y-151342944D01*
X137899118Y-151403487D01*
X137982824Y-151483037D01*
X138049763Y-151548598D01*
X138091840Y-151592122D01*
X138102213Y-151605453D01*
X138078848Y-151610807D01*
X138016836Y-151614819D01*
X137928299Y-151616794D01*
X137902704Y-151616889D01*
X137703195Y-151616889D01*
X137488031Y-151407205D01*
X137386367Y-151310863D01*
X137311023Y-151247456D01*
X137252246Y-151210201D01*
X137200279Y-151192314D01*
X137173454Y-151188483D01*
X137074041Y-151179444D01*
X137066368Y-151031278D01*
X137058694Y-150883111D01*
X137353125Y-150883111D01*
X137480435Y-150882408D01*
X137567550Y-150878932D01*
X137625043Y-150870627D01*
X137663489Y-150855443D01*
X137693463Y-150831324D01*
X137709870Y-150813838D01*
X137757554Y-150736128D01*
X137772163Y-150635214D01*
X137772182Y-150630394D01*
X137772182Y-150516222D01*
X137035961Y-150516222D01*
X137035961Y-151616889D01*
X136756705Y-151616889D01*
X136756705Y-150967778D01*
X136756919Y-150759458D01*
X136757927Y-150600156D01*
X136760279Y-150482448D01*
X136764522Y-150398907D01*
X136771204Y-150342108D01*
X136780875Y-150304626D01*
X136794083Y-150279035D01*
X136808945Y-150260592D01*
X136829131Y-150240861D01*
X136853936Y-150226366D01*
X136890609Y-150216467D01*
X136946403Y-150210525D01*
X137028567Y-150207902D01*
X137144353Y-150207959D01*
G36*
X137144353Y-150207959D02*
G01*
X137301013Y-150210058D01*
X137369592Y-150211203D01*
X137877999Y-150219889D01*
X137952026Y-150312056D01*
X137989915Y-150363972D01*
X138012094Y-150413983D01*
X138022710Y-150479514D01*
X138025914Y-150577993D01*
X138026053Y-150622941D01*
X138017458Y-150791004D01*
X137988357Y-150916766D01*
X137933770Y-151011666D01*
X137848718Y-151087142D01*
X137814542Y-151108889D01*
X137748257Y-151151282D01*
X137705267Y-151184311D01*
X137696095Y-151196201D01*
X137714269Y-151220193D01*
X137763442Y-151271872D01*
X137835488Y-151342944D01*
X137899118Y-151403487D01*
X137982824Y-151483037D01*
X138049763Y-151548598D01*
X138091840Y-151592122D01*
X138102213Y-151605453D01*
X138078848Y-151610807D01*
X138016836Y-151614819D01*
X137928299Y-151616794D01*
X137902704Y-151616889D01*
X137703195Y-151616889D01*
X137488031Y-151407205D01*
X137386367Y-151310863D01*
X137311023Y-151247456D01*
X137252246Y-151210201D01*
X137200279Y-151192314D01*
X137173454Y-151188483D01*
X137074041Y-151179444D01*
X137066368Y-151031278D01*
X137058694Y-150883111D01*
X137353125Y-150883111D01*
X137480435Y-150882408D01*
X137567550Y-150878932D01*
X137625043Y-150870627D01*
X137663489Y-150855443D01*
X137693463Y-150831324D01*
X137709870Y-150813838D01*
X137757554Y-150736128D01*
X137772163Y-150635214D01*
X137772182Y-150630394D01*
X137772182Y-150516222D01*
X137035961Y-150516222D01*
X137035961Y-151616889D01*
X136756705Y-151616889D01*
X136756705Y-150967778D01*
X136756919Y-150759458D01*
X136757927Y-150600156D01*
X136760279Y-150482448D01*
X136764522Y-150398907D01*
X136771204Y-150342108D01*
X136780875Y-150304626D01*
X136794083Y-150279035D01*
X136808945Y-150260592D01*
X136829131Y-150240861D01*
X136853936Y-150226366D01*
X136890609Y-150216467D01*
X136946403Y-150210525D01*
X137028567Y-150207902D01*
X137144353Y-150207959D01*
G37*
X136655157Y-150516222D02*
X136172804Y-150516222D01*
X136172804Y-151616889D01*
X135893548Y-151616889D01*
X135893548Y-150518266D01*
X135646025Y-150510188D01*
X135398502Y-150502111D01*
X135385809Y-150397356D01*
X135373115Y-150292601D01*
X135081165Y-150599758D01*
X134789215Y-150906915D01*
X135106172Y-151261902D01*
X135423127Y-151616889D01*
X135042133Y-151616889D01*
X134789215Y-151334666D01*
X134680726Y-151216050D01*
X134599756Y-151134047D01*
X134540011Y-151083161D01*
X134495201Y-151057899D01*
X134466007Y-151052444D01*
X134424368Y-151048770D01*
X134403600Y-151028066D01*
X134396469Y-150975805D01*
X134395717Y-150911333D01*
X134397212Y-150827821D01*
X134407409Y-150786181D01*
X134434879Y-150771837D01*
X134478702Y-150770222D01*
X134516860Y-150765170D01*
X134557388Y-150745937D01*
X134607563Y-150706405D01*
X134674668Y-150640459D01*
X134765982Y-150541982D01*
X134814603Y-150488000D01*
X135067519Y-150205778D01*
X136655157Y-150205778D01*
X136655157Y-150516222D01*
G36*
X136655157Y-150516222D02*
G01*
X136172804Y-150516222D01*
X136172804Y-151616889D01*
X135893548Y-151616889D01*
X135893548Y-150518266D01*
X135646025Y-150510188D01*
X135398502Y-150502111D01*
X135385809Y-150397356D01*
X135373115Y-150292601D01*
X135081165Y-150599758D01*
X134789215Y-150906915D01*
X135106172Y-151261902D01*
X135423127Y-151616889D01*
X135042133Y-151616889D01*
X134789215Y-151334666D01*
X134680726Y-151216050D01*
X134599756Y-151134047D01*
X134540011Y-151083161D01*
X134495201Y-151057899D01*
X134466007Y-151052444D01*
X134424368Y-151048770D01*
X134403600Y-151028066D01*
X134396469Y-150975805D01*
X134395717Y-150911333D01*
X134397212Y-150827821D01*
X134407409Y-150786181D01*
X134434879Y-150771837D01*
X134478702Y-150770222D01*
X134516860Y-150765170D01*
X134557388Y-150745937D01*
X134607563Y-150706405D01*
X134674668Y-150640459D01*
X134765982Y-150541982D01*
X134814603Y-150488000D01*
X135067519Y-150205778D01*
X136655157Y-150205778D01*
X136655157Y-150516222D01*
G37*
X134344943Y-151616889D02*
X134065687Y-151616889D01*
X134065687Y-150205778D01*
X134344943Y-150205778D01*
X134344943Y-151616889D01*
G36*
X134344943Y-151616889D02*
G01*
X134065687Y-151616889D01*
X134065687Y-150205778D01*
X134344943Y-150205778D01*
X134344943Y-151616889D01*
G37*
X132435901Y-150353944D02*
X132428228Y-150502111D01*
X131525566Y-150517531D01*
X131539685Y-151292333D01*
X132428228Y-151320555D01*
X132443575Y-151616889D01*
X131978936Y-151616246D01*
X131804143Y-151615095D01*
X131672336Y-151611753D01*
X131575743Y-151605560D01*
X131506593Y-151595857D01*
X131457119Y-151581983D01*
X131430472Y-151569678D01*
X131379814Y-151537837D01*
X131341293Y-151499932D01*
X131313270Y-151448261D01*
X131294105Y-151375118D01*
X131282159Y-151272801D01*
X131275793Y-151133605D01*
X131273368Y-150949826D01*
X131273122Y-150830084D01*
X131273720Y-150637873D01*
X131275869Y-150494371D01*
X131280101Y-150391853D01*
X131286947Y-150322596D01*
X131296937Y-150278875D01*
X131310604Y-150252966D01*
X131313016Y-150250127D01*
X131333180Y-150235155D01*
X131367450Y-150223887D01*
X131422334Y-150215829D01*
X131504337Y-150210488D01*
X131619968Y-150207371D01*
X131775732Y-150205984D01*
X131898242Y-150205778D01*
X132443575Y-150205778D01*
X132435901Y-150353944D01*
G36*
X132435901Y-150353944D02*
G01*
X132428228Y-150502111D01*
X131525566Y-150517531D01*
X131539685Y-151292333D01*
X132428228Y-151320555D01*
X132443575Y-151616889D01*
X131978936Y-151616246D01*
X131804143Y-151615095D01*
X131672336Y-151611753D01*
X131575743Y-151605560D01*
X131506593Y-151595857D01*
X131457119Y-151581983D01*
X131430472Y-151569678D01*
X131379814Y-151537837D01*
X131341293Y-151499932D01*
X131313270Y-151448261D01*
X131294105Y-151375118D01*
X131282159Y-151272801D01*
X131275793Y-151133605D01*
X131273368Y-150949826D01*
X131273122Y-150830084D01*
X131273720Y-150637873D01*
X131275869Y-150494371D01*
X131280101Y-150391853D01*
X131286947Y-150322596D01*
X131296937Y-150278875D01*
X131310604Y-150252966D01*
X131313016Y-150250127D01*
X131333180Y-150235155D01*
X131367450Y-150223887D01*
X131422334Y-150215829D01*
X131504337Y-150210488D01*
X131619968Y-150207371D01*
X131775732Y-150205984D01*
X131898242Y-150205778D01*
X132443575Y-150205778D01*
X132435901Y-150353944D01*
G37*
X130054548Y-150770222D02*
X130790769Y-150770222D01*
X130790769Y-150205778D01*
X131044639Y-150205778D01*
X131044639Y-151616889D01*
X130792608Y-151616889D01*
X130785342Y-151341722D01*
X130778076Y-151066555D01*
X130067241Y-151066555D01*
X130059975Y-151341722D01*
X130052709Y-151616889D01*
X129775291Y-151616889D01*
X129775291Y-150205778D01*
X130054548Y-150205778D01*
X130054548Y-150770222D01*
G36*
X130054548Y-150770222D02*
G01*
X130790769Y-150770222D01*
X130790769Y-150205778D01*
X131044639Y-150205778D01*
X131044639Y-151616889D01*
X130792608Y-151616889D01*
X130785342Y-151341722D01*
X130778076Y-151066555D01*
X130067241Y-151066555D01*
X130059975Y-151341722D01*
X130052709Y-151616889D01*
X129775291Y-151616889D01*
X129775291Y-150205778D01*
X130054548Y-150205778D01*
X130054548Y-150770222D01*
G37*
X129622969Y-150514889D02*
X129185044Y-150522611D01*
X128747119Y-150530333D01*
X128740056Y-150918389D01*
X128732993Y-151306444D01*
X129622969Y-151306444D01*
X129622969Y-151616889D01*
X129157065Y-151616889D01*
X128991515Y-151616537D01*
X128868540Y-151614844D01*
X128779942Y-151610853D01*
X128717523Y-151603605D01*
X128673084Y-151592144D01*
X128638429Y-151575513D01*
X128605357Y-151552754D01*
X128604898Y-151552411D01*
X128551365Y-151503389D01*
X128512120Y-151442104D01*
X128485091Y-151359615D01*
X128468201Y-151246983D01*
X128459378Y-151095266D01*
X128456602Y-150913188D01*
X128457008Y-150752071D01*
X128460465Y-150635178D01*
X128468206Y-150550328D01*
X128481466Y-150485336D01*
X128501476Y-150428020D01*
X128507065Y-150414867D01*
X128540706Y-150346856D01*
X128579360Y-150295299D01*
X128630190Y-150257957D01*
X128700363Y-150232590D01*
X128797042Y-150216961D01*
X128927394Y-150208829D01*
X129098583Y-150205956D01*
X129176188Y-150205778D01*
X129622969Y-150205778D01*
X129622969Y-150514889D01*
G36*
X129622969Y-150514889D02*
G01*
X129185044Y-150522611D01*
X128747119Y-150530333D01*
X128740056Y-150918389D01*
X128732993Y-151306444D01*
X129622969Y-151306444D01*
X129622969Y-151616889D01*
X129157065Y-151616889D01*
X128991515Y-151616537D01*
X128868540Y-151614844D01*
X128779942Y-151610853D01*
X128717523Y-151603605D01*
X128673084Y-151592144D01*
X128638429Y-151575513D01*
X128605357Y-151552754D01*
X128604898Y-151552411D01*
X128551365Y-151503389D01*
X128512120Y-151442104D01*
X128485091Y-151359615D01*
X128468201Y-151246983D01*
X128459378Y-151095266D01*
X128456602Y-150913188D01*
X128457008Y-150752071D01*
X128460465Y-150635178D01*
X128468206Y-150550328D01*
X128481466Y-150485336D01*
X128501476Y-150428020D01*
X128507065Y-150414867D01*
X128540706Y-150346856D01*
X128579360Y-150295299D01*
X128630190Y-150257957D01*
X128700363Y-150232590D01*
X128797042Y-150216961D01*
X128927394Y-150208829D01*
X129098583Y-150205956D01*
X129176188Y-150205778D01*
X129622969Y-150205778D01*
X129622969Y-150514889D01*
G37*
X139885413Y-150196084D02*
X139941356Y-150250595D01*
X140021586Y-150334653D01*
X140120752Y-150442579D01*
X140233508Y-150568695D01*
X140304403Y-150649523D01*
X140716812Y-151123000D01*
X140717070Y-150205778D01*
X140996327Y-150205778D01*
X140996327Y-150862720D01*
X140995836Y-151079073D01*
X140994106Y-151246053D01*
X140990747Y-151370725D01*
X140985373Y-151460153D01*
X140977596Y-151521400D01*
X140967027Y-151561531D01*
X140956806Y-151582387D01*
X140926492Y-151622503D01*
X140893912Y-151643185D01*
X140854474Y-151641180D01*
X140803582Y-151613234D01*
X140736643Y-151556091D01*
X140649061Y-151466499D01*
X140536242Y-151341202D01*
X140407996Y-151193670D01*
X140294238Y-151062625D01*
X140191881Y-150946519D01*
X140106206Y-150851194D01*
X140042494Y-150782496D01*
X140006028Y-150746267D01*
X139999888Y-150742114D01*
X139993364Y-150768695D01*
X139987802Y-150842123D01*
X139983622Y-150952807D01*
X139981240Y-151091153D01*
X139980848Y-151179444D01*
X139980848Y-151616889D01*
X139701591Y-151616889D01*
X139701591Y-150316101D01*
X139763905Y-150246828D01*
X139815074Y-150199544D01*
X139856332Y-150177073D01*
X139859106Y-150176801D01*
X139885413Y-150196084D01*
G36*
X139885413Y-150196084D02*
G01*
X139941356Y-150250595D01*
X140021586Y-150334653D01*
X140120752Y-150442579D01*
X140233508Y-150568695D01*
X140304403Y-150649523D01*
X140716812Y-151123000D01*
X140717070Y-150205778D01*
X140996327Y-150205778D01*
X140996327Y-150862720D01*
X140995836Y-151079073D01*
X140994106Y-151246053D01*
X140990747Y-151370725D01*
X140985373Y-151460153D01*
X140977596Y-151521400D01*
X140967027Y-151561531D01*
X140956806Y-151582387D01*
X140926492Y-151622503D01*
X140893912Y-151643185D01*
X140854474Y-151641180D01*
X140803582Y-151613234D01*
X140736643Y-151556091D01*
X140649061Y-151466499D01*
X140536242Y-151341202D01*
X140407996Y-151193670D01*
X140294238Y-151062625D01*
X140191881Y-150946519D01*
X140106206Y-150851194D01*
X140042494Y-150782496D01*
X140006028Y-150746267D01*
X139999888Y-150742114D01*
X139993364Y-150768695D01*
X139987802Y-150842123D01*
X139983622Y-150952807D01*
X139981240Y-151091153D01*
X139980848Y-151179444D01*
X139980848Y-151616889D01*
X139701591Y-151616889D01*
X139701591Y-150316101D01*
X139763905Y-150246828D01*
X139815074Y-150199544D01*
X139856332Y-150177073D01*
X139859106Y-150176801D01*
X139885413Y-150196084D01*
G37*
X139081931Y-150197278D02*
X139146387Y-150206790D01*
X139197934Y-150224597D01*
X139249189Y-150253033D01*
X139275685Y-150270028D01*
X139392205Y-150368747D01*
X139473358Y-150493243D01*
X139522954Y-150651614D01*
X139544310Y-150840757D01*
X139542262Y-151061482D01*
X139511998Y-151240347D01*
X139451862Y-151383602D01*
X139373560Y-151484523D01*
X139294968Y-151550137D01*
X139210695Y-151601052D01*
X139176609Y-151614853D01*
X139088255Y-151631804D01*
X138969786Y-151640943D01*
X138837720Y-151642485D01*
X138708573Y-151636643D01*
X138598864Y-151623630D01*
X138531796Y-151606528D01*
X138399347Y-151537229D01*
X138301253Y-151444652D01*
X138234093Y-151322022D01*
X138194449Y-151162562D01*
X138178901Y-150959496D01*
X138178556Y-150924509D01*
X138457630Y-150924509D01*
X138458285Y-151048409D01*
X138462361Y-151129548D01*
X138473030Y-151181609D01*
X138493463Y-151218276D01*
X138526829Y-151253233D01*
X138535739Y-151261602D01*
X138575376Y-151295208D01*
X138615705Y-151316573D01*
X138669195Y-151328441D01*
X138748316Y-151333558D01*
X138865536Y-151334666D01*
X138867722Y-151334666D01*
X138984072Y-151333911D01*
X139061771Y-151329613D01*
X139112939Y-151318724D01*
X139149699Y-151298197D01*
X139184170Y-151264984D01*
X139195805Y-151252171D01*
X139232808Y-151207147D01*
X139254914Y-151163056D01*
X139265933Y-151103888D01*
X139269675Y-151013634D01*
X139270014Y-150940325D01*
X139263346Y-150773484D01*
X139239252Y-150651436D01*
X139191587Y-150568170D01*
X139114210Y-150517675D01*
X139000979Y-150493941D01*
X138845752Y-150490958D01*
X138812060Y-150492196D01*
X138700900Y-150498100D01*
X138627988Y-150506852D01*
X138580804Y-150522257D01*
X138546827Y-150548120D01*
X138518882Y-150581296D01*
X138489719Y-150624362D01*
X138471576Y-150671256D01*
X138461898Y-150736308D01*
X138458126Y-150833845D01*
X138457630Y-150924509D01*
X138178556Y-150924509D01*
X138178374Y-150906215D01*
X138185829Y-150722468D01*
X138210603Y-150579811D01*
X138256309Y-150464985D01*
X138325696Y-150365744D01*
X138394112Y-150296789D01*
X138468633Y-150248555D01*
X138559928Y-150217632D01*
X138678667Y-150200612D01*
X138835519Y-150194085D01*
X138863822Y-150193794D01*
X138991948Y-150193724D01*
X139081931Y-150197278D01*
G36*
X139081931Y-150197278D02*
G01*
X139146387Y-150206790D01*
X139197934Y-150224597D01*
X139249189Y-150253033D01*
X139275685Y-150270028D01*
X139392205Y-150368747D01*
X139473358Y-150493243D01*
X139522954Y-150651614D01*
X139544310Y-150840757D01*
X139542262Y-151061482D01*
X139511998Y-151240347D01*
X139451862Y-151383602D01*
X139373560Y-151484523D01*
X139294968Y-151550137D01*
X139210695Y-151601052D01*
X139176609Y-151614853D01*
X139088255Y-151631804D01*
X138969786Y-151640943D01*
X138837720Y-151642485D01*
X138708573Y-151636643D01*
X138598864Y-151623630D01*
X138531796Y-151606528D01*
X138399347Y-151537229D01*
X138301253Y-151444652D01*
X138234093Y-151322022D01*
X138194449Y-151162562D01*
X138178901Y-150959496D01*
X138178556Y-150924509D01*
X138457630Y-150924509D01*
X138458285Y-151048409D01*
X138462361Y-151129548D01*
X138473030Y-151181609D01*
X138493463Y-151218276D01*
X138526829Y-151253233D01*
X138535739Y-151261602D01*
X138575376Y-151295208D01*
X138615705Y-151316573D01*
X138669195Y-151328441D01*
X138748316Y-151333558D01*
X138865536Y-151334666D01*
X138867722Y-151334666D01*
X138984072Y-151333911D01*
X139061771Y-151329613D01*
X139112939Y-151318724D01*
X139149699Y-151298197D01*
X139184170Y-151264984D01*
X139195805Y-151252171D01*
X139232808Y-151207147D01*
X139254914Y-151163056D01*
X139265933Y-151103888D01*
X139269675Y-151013634D01*
X139270014Y-150940325D01*
X139263346Y-150773484D01*
X139239252Y-150651436D01*
X139191587Y-150568170D01*
X139114210Y-150517675D01*
X139000979Y-150493941D01*
X138845752Y-150490958D01*
X138812060Y-150492196D01*
X138700900Y-150498100D01*
X138627988Y-150506852D01*
X138580804Y-150522257D01*
X138546827Y-150548120D01*
X138518882Y-150581296D01*
X138489719Y-150624362D01*
X138471576Y-150671256D01*
X138461898Y-150736308D01*
X138458126Y-150833845D01*
X138457630Y-150924509D01*
X138178556Y-150924509D01*
X138178374Y-150906215D01*
X138185829Y-150722468D01*
X138210603Y-150579811D01*
X138256309Y-150464985D01*
X138325696Y-150365744D01*
X138394112Y-150296789D01*
X138468633Y-150248555D01*
X138559928Y-150217632D01*
X138678667Y-150200612D01*
X138835519Y-150194085D01*
X138863822Y-150193794D01*
X138991948Y-150193724D01*
X139081931Y-150197278D01*
G37*
X132765972Y-150202814D02*
X132797631Y-150231186D01*
X132858411Y-150294018D01*
X132942416Y-150384897D01*
X133043752Y-150497408D01*
X133156520Y-150625140D01*
X133199252Y-150674156D01*
X133583335Y-151116228D01*
X133583335Y-150205778D01*
X133862591Y-150205778D01*
X133862591Y-150878737D01*
X133862316Y-151092268D01*
X133861182Y-151256464D01*
X133858734Y-151378434D01*
X133854511Y-151465283D01*
X133848055Y-151524121D01*
X133838909Y-151562054D01*
X133826612Y-151586191D01*
X133816165Y-151598403D01*
X133759889Y-151635424D01*
X133720056Y-151645111D01*
X133684947Y-151624465D01*
X133619064Y-151564491D01*
X133525279Y-151468133D01*
X133406461Y-151338335D01*
X133272813Y-151186500D01*
X132875252Y-150727889D01*
X132873876Y-151172389D01*
X132872500Y-151616889D01*
X132593243Y-151616889D01*
X132593243Y-150263523D01*
X132655008Y-150218533D01*
X132715213Y-150189685D01*
X132765972Y-150202814D01*
G36*
X132765972Y-150202814D02*
G01*
X132797631Y-150231186D01*
X132858411Y-150294018D01*
X132942416Y-150384897D01*
X133043752Y-150497408D01*
X133156520Y-150625140D01*
X133199252Y-150674156D01*
X133583335Y-151116228D01*
X133583335Y-150205778D01*
X133862591Y-150205778D01*
X133862591Y-150878737D01*
X133862316Y-151092268D01*
X133861182Y-151256464D01*
X133858734Y-151378434D01*
X133854511Y-151465283D01*
X133848055Y-151524121D01*
X133838909Y-151562054D01*
X133826612Y-151586191D01*
X133816165Y-151598403D01*
X133759889Y-151635424D01*
X133720056Y-151645111D01*
X133684947Y-151624465D01*
X133619064Y-151564491D01*
X133525279Y-151468133D01*
X133406461Y-151338335D01*
X133272813Y-151186500D01*
X132875252Y-150727889D01*
X132873876Y-151172389D01*
X132872500Y-151616889D01*
X132593243Y-151616889D01*
X132593243Y-150263523D01*
X132655008Y-150218533D01*
X132715213Y-150189685D01*
X132765972Y-150202814D01*
G37*
X144118922Y-152266000D02*
X128531331Y-152266000D01*
X128531331Y-151870889D01*
X144118922Y-151870889D01*
X144118922Y-152266000D01*
G36*
X144118922Y-152266000D02*
G01*
X128531331Y-152266000D01*
X128531331Y-151870889D01*
X144118922Y-151870889D01*
X144118922Y-152266000D01*
G37*
X128140549Y-149959285D02*
X128198385Y-149989357D01*
X128262663Y-150053876D01*
X128263545Y-150054885D01*
X128320858Y-150129891D01*
X128347407Y-150197873D01*
X128353621Y-150279722D01*
X128346751Y-150365085D01*
X128319040Y-150431644D01*
X128263920Y-150501170D01*
X128197828Y-150565089D01*
X128137265Y-150594343D01*
X128067172Y-150600783D01*
X127964857Y-150584199D01*
X127877002Y-150544339D01*
X127843441Y-150524403D01*
X127804857Y-150509777D01*
X127753220Y-150499653D01*
X127680500Y-150493223D01*
X127578668Y-150489680D01*
X127439692Y-150488218D01*
X127316568Y-150488000D01*
X127149702Y-150488240D01*
X127026044Y-150489581D01*
X126938022Y-150492950D01*
X126878071Y-150499275D01*
X126838621Y-150509485D01*
X126812106Y-150524509D01*
X126790957Y-150545273D01*
X126784056Y-150553319D01*
X126738666Y-150641667D01*
X126724807Y-150747807D01*
X126741858Y-150851223D01*
X126789192Y-150931399D01*
X126795747Y-150937507D01*
X126821707Y-150957576D01*
X126852175Y-150972457D01*
X126894657Y-150982919D01*
X126956665Y-150989734D01*
X127045709Y-150993671D01*
X127169298Y-150995501D01*
X127334942Y-150995993D01*
X127366002Y-150996000D01*
X127543766Y-150996587D01*
X127679437Y-150998868D01*
X127781690Y-151003626D01*
X127859200Y-151011640D01*
X127920641Y-151023691D01*
X127974689Y-151040562D01*
X128008414Y-151053835D01*
X128158898Y-151144020D01*
X128272881Y-151271578D01*
X128347084Y-151431200D01*
X128378228Y-151617573D01*
X128379008Y-151654104D01*
X128359552Y-151855369D01*
X128300271Y-152022430D01*
X128199793Y-152157940D01*
X128066444Y-152258986D01*
X128021399Y-152284406D01*
X127979897Y-152303641D01*
X127934013Y-152317711D01*
X127875818Y-152327635D01*
X127797387Y-152334434D01*
X127690790Y-152339126D01*
X127548101Y-152342732D01*
X127392225Y-152345710D01*
X127209044Y-152349533D01*
X127069353Y-152353935D01*
X126965869Y-152359662D01*
X126891311Y-152367463D01*
X126838394Y-152378083D01*
X126799835Y-152392269D01*
X126770245Y-152409474D01*
X126652020Y-152459671D01*
X126531230Y-152457377D01*
X126418972Y-152403563D01*
X126387016Y-152375965D01*
X126331937Y-152315462D01*
X126305514Y-152258755D01*
X126297576Y-152179889D01*
X126297312Y-152150716D01*
X126457267Y-152150716D01*
X126460564Y-152175275D01*
X126502284Y-152241015D01*
X126569852Y-152270573D01*
X126647650Y-152260340D01*
X126697122Y-152229941D01*
X126727271Y-152175450D01*
X126720031Y-152111108D01*
X126683157Y-152052893D01*
X126624406Y-152016787D01*
X126591349Y-152012000D01*
X126526605Y-152033411D01*
X126477106Y-152085648D01*
X126457267Y-152150716D01*
X126297312Y-152150716D01*
X126297278Y-152146938D01*
X126301675Y-152055565D01*
X126322014Y-151993255D01*
X126369016Y-151932929D01*
X126391093Y-151909973D01*
X126493615Y-151836459D01*
X126602898Y-151811128D01*
X126707939Y-151835141D01*
X126761170Y-151870889D01*
X126785968Y-151889758D01*
X126816070Y-151903896D01*
X126858668Y-151913981D01*
X126920950Y-151920688D01*
X127010105Y-151924693D01*
X127133322Y-151926674D01*
X127297791Y-151927305D01*
X127361187Y-151927333D01*
X127540185Y-151927014D01*
X127675405Y-151925615D01*
X127773845Y-151922468D01*
X127842499Y-151916908D01*
X127888366Y-151908270D01*
X127918440Y-151895888D01*
X127939717Y-151879096D01*
X127946785Y-151871606D01*
X128005219Y-151770137D01*
X128019297Y-151653446D01*
X127988440Y-151534906D01*
X127963334Y-151489889D01*
X127948248Y-151471446D01*
X127925908Y-151457178D01*
X127889714Y-151446291D01*
X127833065Y-151437992D01*
X127749363Y-151431490D01*
X127632008Y-151425992D01*
X127474398Y-151420704D01*
X127359291Y-151417347D01*
X127154394Y-151410705D01*
X126993056Y-151402644D01*
X126868062Y-151391450D01*
X126772194Y-151375406D01*
X126698241Y-151352799D01*
X126638985Y-151321912D01*
X126587212Y-151281030D01*
X126535708Y-151228440D01*
X126527788Y-151219690D01*
X126444202Y-151113113D01*
X126393045Y-151007447D01*
X126367632Y-150883518D01*
X126361249Y-150742000D01*
X126363929Y-150621111D01*
X126375660Y-150534145D01*
X126400941Y-150458807D01*
X126430657Y-150398122D01*
X126476355Y-150321983D01*
X127930132Y-150321983D01*
X127966342Y-150377744D01*
X128042567Y-150402473D01*
X128064296Y-150403333D01*
X128126635Y-150394934D01*
X128156969Y-150361828D01*
X128165028Y-150334814D01*
X128170507Y-150255703D01*
X128163355Y-150206254D01*
X128141894Y-150166016D01*
X128098506Y-150152870D01*
X128053631Y-150154828D01*
X127985669Y-150170219D01*
X127949083Y-150208699D01*
X127937179Y-150239369D01*
X127930132Y-150321983D01*
X126476355Y-150321983D01*
X126490707Y-150298072D01*
X126557261Y-150219611D01*
X126637059Y-150160288D01*
X126736841Y-150117654D01*
X126863346Y-150089259D01*
X127023315Y-150072652D01*
X127223486Y-150065384D01*
X127348525Y-150064480D01*
X127514409Y-150063901D01*
X127637639Y-150061748D01*
X127726330Y-150057168D01*
X127788596Y-150049309D01*
X127832553Y-150037319D01*
X127866317Y-150020344D01*
X127883963Y-150008222D01*
X127974937Y-149965672D01*
X128066796Y-149951963D01*
X128140549Y-149959285D01*
G36*
X128140549Y-149959285D02*
G01*
X128198385Y-149989357D01*
X128262663Y-150053876D01*
X128263545Y-150054885D01*
X128320858Y-150129891D01*
X128347407Y-150197873D01*
X128353621Y-150279722D01*
X128346751Y-150365085D01*
X128319040Y-150431644D01*
X128263920Y-150501170D01*
X128197828Y-150565089D01*
X128137265Y-150594343D01*
X128067172Y-150600783D01*
X127964857Y-150584199D01*
X127877002Y-150544339D01*
X127843441Y-150524403D01*
X127804857Y-150509777D01*
X127753220Y-150499653D01*
X127680500Y-150493223D01*
X127578668Y-150489680D01*
X127439692Y-150488218D01*
X127316568Y-150488000D01*
X127149702Y-150488240D01*
X127026044Y-150489581D01*
X126938022Y-150492950D01*
X126878071Y-150499275D01*
X126838621Y-150509485D01*
X126812106Y-150524509D01*
X126790957Y-150545273D01*
X126784056Y-150553319D01*
X126738666Y-150641667D01*
X126724807Y-150747807D01*
X126741858Y-150851223D01*
X126789192Y-150931399D01*
X126795747Y-150937507D01*
X126821707Y-150957576D01*
X126852175Y-150972457D01*
X126894657Y-150982919D01*
X126956665Y-150989734D01*
X127045709Y-150993671D01*
X127169298Y-150995501D01*
X127334942Y-150995993D01*
X127366002Y-150996000D01*
X127543766Y-150996587D01*
X127679437Y-150998868D01*
X127781690Y-151003626D01*
X127859200Y-151011640D01*
X127920641Y-151023691D01*
X127974689Y-151040562D01*
X128008414Y-151053835D01*
X128158898Y-151144020D01*
X128272881Y-151271578D01*
X128347084Y-151431200D01*
X128378228Y-151617573D01*
X128379008Y-151654104D01*
X128359552Y-151855369D01*
X128300271Y-152022430D01*
X128199793Y-152157940D01*
X128066444Y-152258986D01*
X128021399Y-152284406D01*
X127979897Y-152303641D01*
X127934013Y-152317711D01*
X127875818Y-152327635D01*
X127797387Y-152334434D01*
X127690790Y-152339126D01*
X127548101Y-152342732D01*
X127392225Y-152345710D01*
X127209044Y-152349533D01*
X127069353Y-152353935D01*
X126965869Y-152359662D01*
X126891311Y-152367463D01*
X126838394Y-152378083D01*
X126799835Y-152392269D01*
X126770245Y-152409474D01*
X126652020Y-152459671D01*
X126531230Y-152457377D01*
X126418972Y-152403563D01*
X126387016Y-152375965D01*
X126331937Y-152315462D01*
X126305514Y-152258755D01*
X126297576Y-152179889D01*
X126297312Y-152150716D01*
X126457267Y-152150716D01*
X126460564Y-152175275D01*
X126502284Y-152241015D01*
X126569852Y-152270573D01*
X126647650Y-152260340D01*
X126697122Y-152229941D01*
X126727271Y-152175450D01*
X126720031Y-152111108D01*
X126683157Y-152052893D01*
X126624406Y-152016787D01*
X126591349Y-152012000D01*
X126526605Y-152033411D01*
X126477106Y-152085648D01*
X126457267Y-152150716D01*
X126297312Y-152150716D01*
X126297278Y-152146938D01*
X126301675Y-152055565D01*
X126322014Y-151993255D01*
X126369016Y-151932929D01*
X126391093Y-151909973D01*
X126493615Y-151836459D01*
X126602898Y-151811128D01*
X126707939Y-151835141D01*
X126761170Y-151870889D01*
X126785968Y-151889758D01*
X126816070Y-151903896D01*
X126858668Y-151913981D01*
X126920950Y-151920688D01*
X127010105Y-151924693D01*
X127133322Y-151926674D01*
X127297791Y-151927305D01*
X127361187Y-151927333D01*
X127540185Y-151927014D01*
X127675405Y-151925615D01*
X127773845Y-151922468D01*
X127842499Y-151916908D01*
X127888366Y-151908270D01*
X127918440Y-151895888D01*
X127939717Y-151879096D01*
X127946785Y-151871606D01*
X128005219Y-151770137D01*
X128019297Y-151653446D01*
X127988440Y-151534906D01*
X127963334Y-151489889D01*
X127948248Y-151471446D01*
X127925908Y-151457178D01*
X127889714Y-151446291D01*
X127833065Y-151437992D01*
X127749363Y-151431490D01*
X127632008Y-151425992D01*
X127474398Y-151420704D01*
X127359291Y-151417347D01*
X127154394Y-151410705D01*
X126993056Y-151402644D01*
X126868062Y-151391450D01*
X126772194Y-151375406D01*
X126698241Y-151352799D01*
X126638985Y-151321912D01*
X126587212Y-151281030D01*
X126535708Y-151228440D01*
X126527788Y-151219690D01*
X126444202Y-151113113D01*
X126393045Y-151007447D01*
X126367632Y-150883518D01*
X126361249Y-150742000D01*
X126363929Y-150621111D01*
X126375660Y-150534145D01*
X126400941Y-150458807D01*
X126430657Y-150398122D01*
X126476355Y-150321983D01*
X127930132Y-150321983D01*
X127966342Y-150377744D01*
X128042567Y-150402473D01*
X128064296Y-150403333D01*
X128126635Y-150394934D01*
X128156969Y-150361828D01*
X128165028Y-150334814D01*
X128170507Y-150255703D01*
X128163355Y-150206254D01*
X128141894Y-150166016D01*
X128098506Y-150152870D01*
X128053631Y-150154828D01*
X127985669Y-150170219D01*
X127949083Y-150208699D01*
X127937179Y-150239369D01*
X127930132Y-150321983D01*
X126476355Y-150321983D01*
X126490707Y-150298072D01*
X126557261Y-150219611D01*
X126637059Y-150160288D01*
X126736841Y-150117654D01*
X126863346Y-150089259D01*
X127023315Y-150072652D01*
X127223486Y-150065384D01*
X127348525Y-150064480D01*
X127514409Y-150063901D01*
X127637639Y-150061748D01*
X127726330Y-150057168D01*
X127788596Y-150049309D01*
X127832553Y-150037319D01*
X127866317Y-150020344D01*
X127883963Y-150008222D01*
X127974937Y-149965672D01*
X128066796Y-149951963D01*
X128140549Y-149959285D01*
G37*
M02*
