G04 #@! TF.GenerationSoftware,KiCad,Pcbnew,(5.1.4)-1*
G04 #@! TF.CreationDate,2019-11-28T12:25:54-08:00*
G04 #@! TF.ProjectId,AttenuverterFaceplate,41747465-6e75-4766-9572-746572466163,rev?*
G04 #@! TF.SameCoordinates,Original*
G04 #@! TF.FileFunction,Soldermask,Top*
G04 #@! TF.FilePolarity,Negative*
%FSLAX46Y46*%
G04 Gerber Fmt 4.6, Leading zero omitted, Abs format (unit mm)*
G04 Created by KiCad (PCBNEW (5.1.4)-1) date 2019-11-28 12:25:54*
%MOMM*%
%LPD*%
G04 APERTURE LIST*
%ADD10C,0.100000*%
G04 APERTURE END LIST*
D10*
G36*
X122873872Y-149641298D02*
G01*
X122980195Y-149662447D01*
X123280658Y-149786903D01*
X123551067Y-149967585D01*
X123781031Y-150197549D01*
X123961713Y-150467958D01*
X124086169Y-150768421D01*
X124149616Y-151087391D01*
X124149616Y-151412609D01*
X124086169Y-151731579D01*
X123961713Y-152032042D01*
X123781031Y-152302451D01*
X123551067Y-152532415D01*
X123280658Y-152713097D01*
X122980195Y-152837553D01*
X122873872Y-152858702D01*
X122661227Y-152901000D01*
X122336005Y-152901000D01*
X122123360Y-152858702D01*
X122017037Y-152837553D01*
X121716574Y-152713097D01*
X121446165Y-152532415D01*
X121216201Y-152302451D01*
X121035519Y-152032042D01*
X120911063Y-151731579D01*
X120847616Y-151412609D01*
X120847616Y-151087391D01*
X120911063Y-150768421D01*
X121035519Y-150467958D01*
X121216201Y-150197549D01*
X121446165Y-149967585D01*
X121716574Y-149786903D01*
X122017037Y-149662447D01*
X122123360Y-149641298D01*
X122336005Y-149599000D01*
X122661227Y-149599000D01*
X122873872Y-149641298D01*
X122873872Y-149641298D01*
G37*
G36*
X138123872Y-149641298D02*
G01*
X138230195Y-149662447D01*
X138530658Y-149786903D01*
X138801067Y-149967585D01*
X139031031Y-150197549D01*
X139211713Y-150467958D01*
X139336169Y-150768421D01*
X139399616Y-151087391D01*
X139399616Y-151412609D01*
X139336169Y-151731579D01*
X139211713Y-152032042D01*
X139031031Y-152302451D01*
X138801067Y-152532415D01*
X138530658Y-152713097D01*
X138230195Y-152837553D01*
X138123872Y-152858702D01*
X137911227Y-152901000D01*
X137586005Y-152901000D01*
X137373360Y-152858702D01*
X137267037Y-152837553D01*
X136966574Y-152713097D01*
X136696165Y-152532415D01*
X136466201Y-152302451D01*
X136285519Y-152032042D01*
X136161063Y-151731579D01*
X136097616Y-151412609D01*
X136097616Y-151087391D01*
X136161063Y-150768421D01*
X136285519Y-150467958D01*
X136466201Y-150197549D01*
X136696165Y-149967585D01*
X136966574Y-149786903D01*
X137267037Y-149662447D01*
X137373360Y-149641298D01*
X137586005Y-149599000D01*
X137911227Y-149599000D01*
X138123872Y-149641298D01*
X138123872Y-149641298D01*
G37*
G36*
X139689943Y-132066248D02*
G01*
X140245189Y-132296238D01*
X140422237Y-132414538D01*
X140744899Y-132630134D01*
X141169866Y-133055101D01*
X141169867Y-133055103D01*
X141503762Y-133554811D01*
X141733752Y-134110057D01*
X141851000Y-134699501D01*
X141851000Y-135300499D01*
X141733752Y-135889943D01*
X141503762Y-136445189D01*
X141503761Y-136445190D01*
X141169866Y-136944899D01*
X140744899Y-137369866D01*
X140493347Y-137537948D01*
X140245189Y-137703762D01*
X139689943Y-137933752D01*
X139100499Y-138051000D01*
X138499501Y-138051000D01*
X137910057Y-137933752D01*
X137354811Y-137703762D01*
X137106653Y-137537948D01*
X136855101Y-137369866D01*
X136430134Y-136944899D01*
X136096239Y-136445190D01*
X136096238Y-136445189D01*
X135866248Y-135889943D01*
X135749000Y-135300499D01*
X135749000Y-134699501D01*
X135866248Y-134110057D01*
X136096238Y-133554811D01*
X136430133Y-133055103D01*
X136430134Y-133055101D01*
X136855101Y-132630134D01*
X137177763Y-132414538D01*
X137354811Y-132296238D01*
X137910057Y-132066248D01*
X138499501Y-131949000D01*
X139100499Y-131949000D01*
X139689943Y-132066248D01*
X139689943Y-132066248D01*
G37*
G36*
X123283019Y-125585462D02*
G01*
X123283022Y-125585463D01*
X123283021Y-125585463D01*
X123929261Y-125853144D01*
X124510863Y-126241758D01*
X125005474Y-126736369D01*
X125394088Y-127317971D01*
X125394088Y-127317972D01*
X125661770Y-127964213D01*
X125798232Y-128650256D01*
X125798232Y-129349744D01*
X125661770Y-130035787D01*
X125661769Y-130035789D01*
X125394088Y-130682029D01*
X125005474Y-131263631D01*
X124510863Y-131758242D01*
X123929261Y-132146856D01*
X123568620Y-132296238D01*
X123283019Y-132414538D01*
X122596976Y-132551000D01*
X121897488Y-132551000D01*
X121211445Y-132414538D01*
X120925844Y-132296238D01*
X120565203Y-132146856D01*
X119983601Y-131758242D01*
X119488990Y-131263631D01*
X119100376Y-130682029D01*
X118832695Y-130035789D01*
X118832694Y-130035787D01*
X118696232Y-129349744D01*
X118696232Y-128650256D01*
X118832694Y-127964213D01*
X119100376Y-127317972D01*
X119100376Y-127317971D01*
X119488990Y-126736369D01*
X119983601Y-126241758D01*
X120565203Y-125853144D01*
X121211443Y-125585463D01*
X121211442Y-125585463D01*
X121211445Y-125585462D01*
X121897488Y-125449000D01*
X122596976Y-125449000D01*
X123283019Y-125585462D01*
X123283019Y-125585462D01*
G37*
G36*
X139689943Y-120066248D02*
G01*
X140245189Y-120296238D01*
X140245190Y-120296239D01*
X140744899Y-120630134D01*
X141169866Y-121055101D01*
X141169867Y-121055103D01*
X141503762Y-121554811D01*
X141733752Y-122110057D01*
X141851000Y-122699501D01*
X141851000Y-123300499D01*
X141733752Y-123889943D01*
X141503762Y-124445189D01*
X141503761Y-124445190D01*
X141169866Y-124944899D01*
X140744899Y-125369866D01*
X140493347Y-125537948D01*
X140245189Y-125703762D01*
X139689943Y-125933752D01*
X139100499Y-126051000D01*
X138499501Y-126051000D01*
X137910057Y-125933752D01*
X137354811Y-125703762D01*
X137106653Y-125537948D01*
X136855101Y-125369866D01*
X136430134Y-124944899D01*
X136096239Y-124445190D01*
X136096238Y-124445189D01*
X135866248Y-123889943D01*
X135749000Y-123300499D01*
X135749000Y-122699501D01*
X135866248Y-122110057D01*
X136096238Y-121554811D01*
X136430133Y-121055103D01*
X136430134Y-121055101D01*
X136855101Y-120630134D01*
X137354810Y-120296239D01*
X137354811Y-120296238D01*
X137910057Y-120066248D01*
X138499501Y-119949000D01*
X139100499Y-119949000D01*
X139689943Y-120066248D01*
X139689943Y-120066248D01*
G37*
G36*
X139689943Y-106066248D02*
G01*
X140245189Y-106296238D01*
X140422237Y-106414538D01*
X140744899Y-106630134D01*
X141169866Y-107055101D01*
X141169867Y-107055103D01*
X141503762Y-107554811D01*
X141733752Y-108110057D01*
X141851000Y-108699501D01*
X141851000Y-109300499D01*
X141733752Y-109889943D01*
X141503762Y-110445189D01*
X141503761Y-110445190D01*
X141169866Y-110944899D01*
X140744899Y-111369866D01*
X140493347Y-111537948D01*
X140245189Y-111703762D01*
X139689943Y-111933752D01*
X139100499Y-112051000D01*
X138499501Y-112051000D01*
X137910057Y-111933752D01*
X137354811Y-111703762D01*
X137106653Y-111537948D01*
X136855101Y-111369866D01*
X136430134Y-110944899D01*
X136096239Y-110445190D01*
X136096238Y-110445189D01*
X135866248Y-109889943D01*
X135749000Y-109300499D01*
X135749000Y-108699501D01*
X135866248Y-108110057D01*
X136096238Y-107554811D01*
X136430133Y-107055103D01*
X136430134Y-107055101D01*
X136855101Y-106630134D01*
X137177763Y-106414538D01*
X137354811Y-106296238D01*
X137910057Y-106066248D01*
X138499501Y-105949000D01*
X139100499Y-105949000D01*
X139689943Y-106066248D01*
X139689943Y-106066248D01*
G37*
G36*
X123283019Y-99585462D02*
G01*
X123283022Y-99585463D01*
X123283021Y-99585463D01*
X123929261Y-99853144D01*
X124510863Y-100241758D01*
X125005474Y-100736369D01*
X125394088Y-101317971D01*
X125394088Y-101317972D01*
X125661770Y-101964213D01*
X125798232Y-102650256D01*
X125798232Y-103349744D01*
X125661770Y-104035787D01*
X125661769Y-104035789D01*
X125394088Y-104682029D01*
X125005474Y-105263631D01*
X124510863Y-105758242D01*
X123929261Y-106146856D01*
X123568620Y-106296238D01*
X123283019Y-106414538D01*
X122596976Y-106551000D01*
X121897488Y-106551000D01*
X121211445Y-106414538D01*
X120925844Y-106296238D01*
X120565203Y-106146856D01*
X119983601Y-105758242D01*
X119488990Y-105263631D01*
X119100376Y-104682029D01*
X118832695Y-104035789D01*
X118832694Y-104035787D01*
X118696232Y-103349744D01*
X118696232Y-102650256D01*
X118832694Y-101964213D01*
X119100376Y-101317972D01*
X119100376Y-101317971D01*
X119488990Y-100736369D01*
X119983601Y-100241758D01*
X120565203Y-99853144D01*
X121211443Y-99585463D01*
X121211442Y-99585463D01*
X121211445Y-99585462D01*
X121897488Y-99449000D01*
X122596976Y-99449000D01*
X123283019Y-99585462D01*
X123283019Y-99585462D01*
G37*
G36*
X139689943Y-94066248D02*
G01*
X140245189Y-94296238D01*
X140245190Y-94296239D01*
X140744899Y-94630134D01*
X141169866Y-95055101D01*
X141169867Y-95055103D01*
X141503762Y-95554811D01*
X141733752Y-96110057D01*
X141851000Y-96699501D01*
X141851000Y-97300499D01*
X141733752Y-97889943D01*
X141503762Y-98445189D01*
X141503761Y-98445190D01*
X141169866Y-98944899D01*
X140744899Y-99369866D01*
X140493347Y-99537948D01*
X140245189Y-99703762D01*
X139689943Y-99933752D01*
X139100499Y-100051000D01*
X138499501Y-100051000D01*
X137910057Y-99933752D01*
X137354811Y-99703762D01*
X137106653Y-99537948D01*
X136855101Y-99369866D01*
X136430134Y-98944899D01*
X136096239Y-98445190D01*
X136096238Y-98445189D01*
X135866248Y-97889943D01*
X135749000Y-97300499D01*
X135749000Y-96699501D01*
X135866248Y-96110057D01*
X136096238Y-95554811D01*
X136430133Y-95055103D01*
X136430134Y-95055101D01*
X136855101Y-94630134D01*
X137354810Y-94296239D01*
X137354811Y-94296238D01*
X137910057Y-94066248D01*
X138499501Y-93949000D01*
X139100499Y-93949000D01*
X139689943Y-94066248D01*
X139689943Y-94066248D01*
G37*
G36*
X139689943Y-80066248D02*
G01*
X140245189Y-80296238D01*
X140422237Y-80414538D01*
X140744899Y-80630134D01*
X141169866Y-81055101D01*
X141169867Y-81055103D01*
X141503762Y-81554811D01*
X141733752Y-82110057D01*
X141851000Y-82699501D01*
X141851000Y-83300499D01*
X141733752Y-83889943D01*
X141503762Y-84445189D01*
X141503761Y-84445190D01*
X141169866Y-84944899D01*
X140744899Y-85369866D01*
X140493347Y-85537948D01*
X140245189Y-85703762D01*
X139689943Y-85933752D01*
X139100499Y-86051000D01*
X138499501Y-86051000D01*
X137910057Y-85933752D01*
X137354811Y-85703762D01*
X137106653Y-85537948D01*
X136855101Y-85369866D01*
X136430134Y-84944899D01*
X136096239Y-84445190D01*
X136096238Y-84445189D01*
X135866248Y-83889943D01*
X135749000Y-83300499D01*
X135749000Y-82699501D01*
X135866248Y-82110057D01*
X136096238Y-81554811D01*
X136430133Y-81055103D01*
X136430134Y-81055101D01*
X136855101Y-80630134D01*
X137177763Y-80414538D01*
X137354811Y-80296238D01*
X137910057Y-80066248D01*
X138499501Y-79949000D01*
X139100499Y-79949000D01*
X139689943Y-80066248D01*
X139689943Y-80066248D01*
G37*
G36*
X123283019Y-73585462D02*
G01*
X123283022Y-73585463D01*
X123283021Y-73585463D01*
X123929261Y-73853144D01*
X124510863Y-74241758D01*
X125005474Y-74736369D01*
X125394088Y-75317971D01*
X125394088Y-75317972D01*
X125661770Y-75964213D01*
X125798232Y-76650256D01*
X125798232Y-77349744D01*
X125661770Y-78035787D01*
X125661769Y-78035789D01*
X125394088Y-78682029D01*
X125005474Y-79263631D01*
X124510863Y-79758242D01*
X123929261Y-80146856D01*
X123568620Y-80296238D01*
X123283019Y-80414538D01*
X122596976Y-80551000D01*
X121897488Y-80551000D01*
X121211445Y-80414538D01*
X120925844Y-80296238D01*
X120565203Y-80146856D01*
X119983601Y-79758242D01*
X119488990Y-79263631D01*
X119100376Y-78682029D01*
X118832695Y-78035789D01*
X118832694Y-78035787D01*
X118696232Y-77349744D01*
X118696232Y-76650256D01*
X118832694Y-75964213D01*
X119100376Y-75317972D01*
X119100376Y-75317971D01*
X119488990Y-74736369D01*
X119983601Y-74241758D01*
X120565203Y-73853144D01*
X121211443Y-73585463D01*
X121211442Y-73585463D01*
X121211445Y-73585462D01*
X121897488Y-73449000D01*
X122596976Y-73449000D01*
X123283019Y-73585462D01*
X123283019Y-73585462D01*
G37*
G36*
X139689943Y-68066248D02*
G01*
X140245189Y-68296238D01*
X140245190Y-68296239D01*
X140744899Y-68630134D01*
X141169866Y-69055101D01*
X141169867Y-69055103D01*
X141503762Y-69554811D01*
X141733752Y-70110057D01*
X141851000Y-70699501D01*
X141851000Y-71300499D01*
X141733752Y-71889943D01*
X141503762Y-72445189D01*
X141503761Y-72445190D01*
X141169866Y-72944899D01*
X140744899Y-73369866D01*
X140493347Y-73537948D01*
X140245189Y-73703762D01*
X139689943Y-73933752D01*
X139100499Y-74051000D01*
X138499501Y-74051000D01*
X137910057Y-73933752D01*
X137354811Y-73703762D01*
X137106653Y-73537948D01*
X136855101Y-73369866D01*
X136430134Y-72944899D01*
X136096239Y-72445190D01*
X136096238Y-72445189D01*
X135866248Y-71889943D01*
X135749000Y-71300499D01*
X135749000Y-70699501D01*
X135866248Y-70110057D01*
X136096238Y-69554811D01*
X136430133Y-69055103D01*
X136430134Y-69055101D01*
X136855101Y-68630134D01*
X137354810Y-68296239D01*
X137354811Y-68296238D01*
X137910057Y-68066248D01*
X138499501Y-67949000D01*
X139100499Y-67949000D01*
X139689943Y-68066248D01*
X139689943Y-68066248D01*
G37*
G36*
X139689943Y-54066248D02*
G01*
X140245189Y-54296238D01*
X140422237Y-54414538D01*
X140744899Y-54630134D01*
X141169866Y-55055101D01*
X141169867Y-55055103D01*
X141503762Y-55554811D01*
X141733752Y-56110057D01*
X141851000Y-56699501D01*
X141851000Y-57300499D01*
X141733752Y-57889943D01*
X141503762Y-58445189D01*
X141503761Y-58445190D01*
X141169866Y-58944899D01*
X140744899Y-59369866D01*
X140493347Y-59537948D01*
X140245189Y-59703762D01*
X139689943Y-59933752D01*
X139100499Y-60051000D01*
X138499501Y-60051000D01*
X137910057Y-59933752D01*
X137354811Y-59703762D01*
X137106653Y-59537948D01*
X136855101Y-59369866D01*
X136430134Y-58944899D01*
X136096239Y-58445190D01*
X136096238Y-58445189D01*
X135866248Y-57889943D01*
X135749000Y-57300499D01*
X135749000Y-56699501D01*
X135866248Y-56110057D01*
X136096238Y-55554811D01*
X136430133Y-55055103D01*
X136430134Y-55055101D01*
X136855101Y-54630134D01*
X137177763Y-54414538D01*
X137354811Y-54296238D01*
X137910057Y-54066248D01*
X138499501Y-53949000D01*
X139100499Y-53949000D01*
X139689943Y-54066248D01*
X139689943Y-54066248D01*
G37*
G36*
X123284403Y-47585462D02*
G01*
X123284406Y-47585463D01*
X123284405Y-47585463D01*
X123930645Y-47853144D01*
X124512247Y-48241758D01*
X125006858Y-48736369D01*
X125395472Y-49317971D01*
X125395472Y-49317972D01*
X125663154Y-49964213D01*
X125799616Y-50650256D01*
X125799616Y-51349744D01*
X125663154Y-52035787D01*
X125663153Y-52035789D01*
X125395472Y-52682029D01*
X125006858Y-53263631D01*
X124512247Y-53758242D01*
X123930645Y-54146856D01*
X123570004Y-54296238D01*
X123284403Y-54414538D01*
X122598360Y-54551000D01*
X121898872Y-54551000D01*
X121212829Y-54414538D01*
X120927228Y-54296238D01*
X120566587Y-54146856D01*
X119984985Y-53758242D01*
X119490374Y-53263631D01*
X119101760Y-52682029D01*
X118834079Y-52035789D01*
X118834078Y-52035787D01*
X118697616Y-51349744D01*
X118697616Y-50650256D01*
X118834078Y-49964213D01*
X119101760Y-49317972D01*
X119101760Y-49317971D01*
X119490374Y-48736369D01*
X119984985Y-48241758D01*
X120566587Y-47853144D01*
X121212827Y-47585463D01*
X121212826Y-47585463D01*
X121212829Y-47585462D01*
X121898872Y-47449000D01*
X122598360Y-47449000D01*
X123284403Y-47585462D01*
X123284403Y-47585462D01*
G37*
G36*
X139688559Y-42066248D02*
G01*
X140243805Y-42296238D01*
X140243806Y-42296239D01*
X140743515Y-42630134D01*
X141168482Y-43055101D01*
X141168483Y-43055103D01*
X141502378Y-43554811D01*
X141732368Y-44110057D01*
X141849616Y-44699501D01*
X141849616Y-45300499D01*
X141732368Y-45889943D01*
X141502378Y-46445189D01*
X141502377Y-46445190D01*
X141168482Y-46944899D01*
X140743515Y-47369866D01*
X140491963Y-47537948D01*
X140243805Y-47703762D01*
X139688559Y-47933752D01*
X139099115Y-48051000D01*
X138498117Y-48051000D01*
X137908673Y-47933752D01*
X137353427Y-47703762D01*
X137105269Y-47537948D01*
X136853717Y-47369866D01*
X136428750Y-46944899D01*
X136094855Y-46445190D01*
X136094854Y-46445189D01*
X135864864Y-45889943D01*
X135747616Y-45300499D01*
X135747616Y-44699501D01*
X135864864Y-44110057D01*
X136094854Y-43554811D01*
X136428749Y-43055103D01*
X136428750Y-43055101D01*
X136853717Y-42630134D01*
X137353426Y-42296239D01*
X137353427Y-42296238D01*
X137908673Y-42066248D01*
X138498117Y-41949000D01*
X139099115Y-41949000D01*
X139688559Y-42066248D01*
X139688559Y-42066248D01*
G37*
G36*
X122875256Y-27141298D02*
G01*
X122981579Y-27162447D01*
X123282042Y-27286903D01*
X123552451Y-27467585D01*
X123782415Y-27697549D01*
X123963097Y-27967958D01*
X124087553Y-28268421D01*
X124151000Y-28587391D01*
X124151000Y-28912609D01*
X124087553Y-29231579D01*
X123963097Y-29532042D01*
X123782415Y-29802451D01*
X123552451Y-30032415D01*
X123282042Y-30213097D01*
X122981579Y-30337553D01*
X122875256Y-30358702D01*
X122662611Y-30401000D01*
X122337389Y-30401000D01*
X122124744Y-30358702D01*
X122018421Y-30337553D01*
X121717958Y-30213097D01*
X121447549Y-30032415D01*
X121217585Y-29802451D01*
X121036903Y-29532042D01*
X120912447Y-29231579D01*
X120849000Y-28912609D01*
X120849000Y-28587391D01*
X120912447Y-28268421D01*
X121036903Y-27967958D01*
X121217585Y-27697549D01*
X121447549Y-27467585D01*
X121717958Y-27286903D01*
X122018421Y-27162447D01*
X122124744Y-27141298D01*
X122337389Y-27099000D01*
X122662611Y-27099000D01*
X122875256Y-27141298D01*
X122875256Y-27141298D01*
G37*
G36*
X138123872Y-27141298D02*
G01*
X138230195Y-27162447D01*
X138530658Y-27286903D01*
X138801067Y-27467585D01*
X139031031Y-27697549D01*
X139211713Y-27967958D01*
X139336169Y-28268421D01*
X139399616Y-28587391D01*
X139399616Y-28912609D01*
X139336169Y-29231579D01*
X139211713Y-29532042D01*
X139031031Y-29802451D01*
X138801067Y-30032415D01*
X138530658Y-30213097D01*
X138230195Y-30337553D01*
X138123872Y-30358702D01*
X137911227Y-30401000D01*
X137586005Y-30401000D01*
X137373360Y-30358702D01*
X137267037Y-30337553D01*
X136966574Y-30213097D01*
X136696165Y-30032415D01*
X136466201Y-29802451D01*
X136285519Y-29532042D01*
X136161063Y-29231579D01*
X136097616Y-28912609D01*
X136097616Y-28587391D01*
X136161063Y-28268421D01*
X136285519Y-27967958D01*
X136466201Y-27697549D01*
X136696165Y-27467585D01*
X136966574Y-27286903D01*
X137267037Y-27162447D01*
X137373360Y-27141298D01*
X137586005Y-27099000D01*
X137911227Y-27099000D01*
X138123872Y-27141298D01*
X138123872Y-27141298D01*
G37*
M02*
