G04 #@! TF.GenerationSoftware,KiCad,Pcbnew,10.0.6*
G04 #@! TF.CreationDate,2026-10-07T19:39:00-07:00*
G04 #@! TF.ProjectId,AttenuverterFaceplate,41747465-6e75-4766-9572-746572466163,1.1*
G04 #@! TF.SameCoordinates,Original*
G04 #@! TF.FileFunction,Soldermask,Top*
G04 #@! TF.FilePolarity,Negative*
%FSLAX46Y46*%
G04 Gerber Fmt 4.6, Leading zero omitted, Abs format (unit mm)*
G04 Created by KiCad (PCBNEW 10.0.6) date 2026-10-07 19:39:00*
%MOMM*%
%LPD*%
G01*
G04 APERTURE LIST*
G04 APERTURE END LIST*
G36*
X122619114Y-149604089D02*
G01*
X122630920Y-149604089D01*
X122689047Y-149613295D01*
X122823426Y-149630986D01*
X122856221Y-149639773D01*
X122886802Y-149644617D01*
X122945613Y-149663726D01*
X123031995Y-149686872D01*
X123087108Y-149709700D01*
X123133194Y-149724675D01*
X123176371Y-149746674D01*
X123231483Y-149769503D01*
X123308923Y-149814213D01*
X123364029Y-149842291D01*
X123389081Y-149860492D01*
X123418480Y-149877466D01*
X123526035Y-149959995D01*
X123573623Y-149994570D01*
X123581963Y-150002910D01*
X123589785Y-150008912D01*
X123742471Y-150161598D01*
X123748472Y-150169419D01*
X123756814Y-150177761D01*
X123791392Y-150225354D01*
X123873917Y-150332903D01*
X123890889Y-150362299D01*
X123909093Y-150387355D01*
X123937173Y-150442466D01*
X123981880Y-150519900D01*
X124004705Y-150575006D01*
X124026709Y-150618190D01*
X124041685Y-150664282D01*
X124064511Y-150719388D01*
X124087653Y-150805757D01*
X124106767Y-150864582D01*
X124111611Y-150895169D01*
X124120397Y-150927957D01*
X124138087Y-151062327D01*
X124147295Y-151120464D01*
X124147295Y-151132269D01*
X124148581Y-151142038D01*
X124148581Y-151357961D01*
X124147295Y-151367729D01*
X124147295Y-151379536D01*
X124138086Y-151437677D01*
X124120397Y-151572042D01*
X124111612Y-151604827D01*
X124106767Y-151635418D01*
X124087652Y-151694246D01*
X124064511Y-151780611D01*
X124041686Y-151835713D01*
X124026709Y-151881810D01*
X124004703Y-151924997D01*
X123981880Y-151980099D01*
X123937177Y-152057525D01*
X123909093Y-152112645D01*
X123890886Y-152137704D01*
X123873917Y-152167096D01*
X123791406Y-152274627D01*
X123756814Y-152322239D01*
X123748469Y-152330583D01*
X123742471Y-152338401D01*
X123589785Y-152491087D01*
X123581967Y-152497085D01*
X123573623Y-152505430D01*
X123526011Y-152540022D01*
X123418480Y-152622533D01*
X123389088Y-152639502D01*
X123364029Y-152657709D01*
X123308909Y-152685793D01*
X123231483Y-152730496D01*
X123176381Y-152753319D01*
X123133194Y-152775325D01*
X123087097Y-152790302D01*
X123031995Y-152813127D01*
X122945630Y-152836268D01*
X122886802Y-152855383D01*
X122856211Y-152860228D01*
X122823426Y-152869013D01*
X122689061Y-152886702D01*
X122630920Y-152895911D01*
X122619113Y-152895911D01*
X122609345Y-152897197D01*
X122393423Y-152897197D01*
X122383655Y-152895911D01*
X122371848Y-152895911D01*
X122313708Y-152886702D01*
X122179341Y-152869013D01*
X122146553Y-152860227D01*
X122115966Y-152855383D01*
X122057141Y-152836269D01*
X121970772Y-152813127D01*
X121915666Y-152790301D01*
X121869574Y-152775325D01*
X121826390Y-152753321D01*
X121771284Y-152730496D01*
X121693850Y-152685789D01*
X121638739Y-152657709D01*
X121613683Y-152639505D01*
X121584287Y-152622533D01*
X121476738Y-152540008D01*
X121429145Y-152505430D01*
X121420803Y-152497088D01*
X121412982Y-152491087D01*
X121260296Y-152338401D01*
X121254294Y-152330579D01*
X121245954Y-152322239D01*
X121211379Y-152274651D01*
X121128850Y-152167096D01*
X121111876Y-152137697D01*
X121093675Y-152112645D01*
X121065597Y-152057539D01*
X121020887Y-151980099D01*
X120998058Y-151924987D01*
X120976059Y-151881810D01*
X120961084Y-151835724D01*
X120938256Y-151780611D01*
X120915110Y-151694229D01*
X120896001Y-151635418D01*
X120891157Y-151604837D01*
X120882370Y-151572042D01*
X120864679Y-151437663D01*
X120855473Y-151379536D01*
X120855473Y-151367729D01*
X120854187Y-151357961D01*
X120854187Y-151142038D01*
X120855473Y-151132269D01*
X120855473Y-151120464D01*
X120864678Y-151062341D01*
X120882370Y-150927957D01*
X120891157Y-150895160D01*
X120896001Y-150864582D01*
X120915108Y-150805775D01*
X120938256Y-150719388D01*
X120961086Y-150664271D01*
X120976059Y-150618190D01*
X120998056Y-150575016D01*
X121020887Y-150519900D01*
X121065601Y-150442451D01*
X121093675Y-150387355D01*
X121111873Y-150362306D01*
X121128850Y-150332903D01*
X121211393Y-150225329D01*
X121245954Y-150177761D01*
X121254290Y-150169424D01*
X121260296Y-150161598D01*
X121412982Y-150008912D01*
X121420808Y-150002906D01*
X121429145Y-149994570D01*
X121476713Y-149960009D01*
X121584287Y-149877466D01*
X121613690Y-149860489D01*
X121638739Y-149842291D01*
X121693835Y-149814217D01*
X121771284Y-149769503D01*
X121826400Y-149746672D01*
X121869574Y-149724675D01*
X121915655Y-149709702D01*
X121970772Y-149686872D01*
X122057159Y-149663724D01*
X122115966Y-149644617D01*
X122146544Y-149639773D01*
X122179341Y-149630986D01*
X122313722Y-149613295D01*
X122371848Y-149604089D01*
X122383654Y-149604089D01*
X122393423Y-149602803D01*
X122609345Y-149602803D01*
X122619114Y-149604089D01*
G37*
G36*
X139311061Y-131992108D02*
G01*
X139644625Y-132068241D01*
X139967567Y-132181244D01*
X140275826Y-132329693D01*
X140565526Y-132511724D01*
X140833023Y-132725046D01*
X141074954Y-132966977D01*
X141288276Y-133234474D01*
X141470307Y-133524174D01*
X141618756Y-133832433D01*
X141731759Y-134155375D01*
X141807892Y-134488939D01*
X141846200Y-134828929D01*
X141846200Y-135171071D01*
X141807892Y-135511061D01*
X141731759Y-135844625D01*
X141618756Y-136167567D01*
X141470307Y-136475826D01*
X141288276Y-136765526D01*
X141074954Y-137033023D01*
X140833023Y-137274954D01*
X140565526Y-137488276D01*
X140275826Y-137670307D01*
X139967567Y-137818756D01*
X139644625Y-137931759D01*
X139311061Y-138007892D01*
X138971071Y-138046200D01*
X138628929Y-138046200D01*
X138288939Y-138007892D01*
X137955375Y-137931759D01*
X137632433Y-137818756D01*
X137324174Y-137670307D01*
X137034474Y-137488276D01*
X136766977Y-137274954D01*
X136525046Y-137033023D01*
X136311724Y-136765526D01*
X136129693Y-136475826D01*
X135981244Y-136167567D01*
X135868241Y-135844625D01*
X135792108Y-135511061D01*
X135753800Y-135171071D01*
X135753800Y-134828929D01*
X135792108Y-134488939D01*
X135868241Y-134155375D01*
X135981244Y-133832433D01*
X136129693Y-133524174D01*
X136311724Y-133234474D01*
X136525046Y-132966977D01*
X136766977Y-132725046D01*
X137034474Y-132511724D01*
X137324174Y-132329693D01*
X137632433Y-132181244D01*
X137955375Y-132068241D01*
X138288939Y-131992108D01*
X138628929Y-131953800D01*
X138971071Y-131953800D01*
X139311061Y-131992108D01*
G37*
G36*
X122768272Y-125487434D02*
G01*
X123110055Y-125555419D01*
X123443528Y-125656577D01*
X123765480Y-125789934D01*
X124072811Y-125954206D01*
X124362560Y-126147810D01*
X124631938Y-126368883D01*
X124878349Y-126615294D01*
X125099422Y-126884672D01*
X125293026Y-127174421D01*
X125457298Y-127481752D01*
X125590655Y-127803704D01*
X125691813Y-128137177D01*
X125759798Y-128478960D01*
X125793955Y-128825761D01*
X125793955Y-129174239D01*
X125759798Y-129521040D01*
X125691813Y-129862823D01*
X125590655Y-130196296D01*
X125457298Y-130518248D01*
X125293026Y-130825579D01*
X125099422Y-131115328D01*
X124878349Y-131384706D01*
X124631938Y-131631117D01*
X124362560Y-131852190D01*
X124072811Y-132045794D01*
X123765480Y-132210066D01*
X123443528Y-132343423D01*
X123110055Y-132444581D01*
X122768272Y-132512566D01*
X122421471Y-132546723D01*
X122072993Y-132546723D01*
X121726192Y-132512566D01*
X121384409Y-132444581D01*
X121050936Y-132343423D01*
X120728984Y-132210066D01*
X120421653Y-132045794D01*
X120131904Y-131852190D01*
X119862526Y-131631117D01*
X119616115Y-131384706D01*
X119395042Y-131115328D01*
X119201438Y-130825579D01*
X119037166Y-130518248D01*
X118903809Y-130196296D01*
X118802651Y-129862823D01*
X118734666Y-129521040D01*
X118700509Y-129174239D01*
X118700509Y-128825761D01*
X118734666Y-128478960D01*
X118802651Y-128137177D01*
X118903809Y-127803704D01*
X119037166Y-127481752D01*
X119201438Y-127174421D01*
X119395042Y-126884672D01*
X119616115Y-126615294D01*
X119862526Y-126368883D01*
X120131904Y-126147810D01*
X120421653Y-125954206D01*
X120728984Y-125789934D01*
X121050936Y-125656577D01*
X121384409Y-125555419D01*
X121726192Y-125487434D01*
X122072993Y-125453277D01*
X122421471Y-125453277D01*
X122768272Y-125487434D01*
G37*
G36*
X139311061Y-119992108D02*
G01*
X139644625Y-120068241D01*
X139967567Y-120181244D01*
X140275826Y-120329693D01*
X140565526Y-120511724D01*
X140833023Y-120725046D01*
X141074954Y-120966977D01*
X141288276Y-121234474D01*
X141470307Y-121524174D01*
X141618756Y-121832433D01*
X141731759Y-122155375D01*
X141807892Y-122488939D01*
X141846200Y-122828929D01*
X141846200Y-123171071D01*
X141807892Y-123511061D01*
X141731759Y-123844625D01*
X141618756Y-124167567D01*
X141470307Y-124475826D01*
X141288276Y-124765526D01*
X141074954Y-125033023D01*
X140833023Y-125274954D01*
X140565526Y-125488276D01*
X140275826Y-125670307D01*
X139967567Y-125818756D01*
X139644625Y-125931759D01*
X139311061Y-126007892D01*
X138971071Y-126046200D01*
X138628929Y-126046200D01*
X138288939Y-126007892D01*
X137955375Y-125931759D01*
X137632433Y-125818756D01*
X137324174Y-125670307D01*
X137034474Y-125488276D01*
X136766977Y-125274954D01*
X136525046Y-125033023D01*
X136311724Y-124765526D01*
X136129693Y-124475826D01*
X135981244Y-124167567D01*
X135868241Y-123844625D01*
X135792108Y-123511061D01*
X135753800Y-123171071D01*
X135753800Y-122828929D01*
X135792108Y-122488939D01*
X135868241Y-122155375D01*
X135981244Y-121832433D01*
X136129693Y-121524174D01*
X136311724Y-121234474D01*
X136525046Y-120966977D01*
X136766977Y-120725046D01*
X137034474Y-120511724D01*
X137324174Y-120329693D01*
X137632433Y-120181244D01*
X137955375Y-120068241D01*
X138288939Y-119992108D01*
X138628929Y-119953800D01*
X138971071Y-119953800D01*
X139311061Y-119992108D01*
G37*
G36*
X139311061Y-105992108D02*
G01*
X139644625Y-106068241D01*
X139967567Y-106181244D01*
X140275826Y-106329693D01*
X140565526Y-106511724D01*
X140833023Y-106725046D01*
X141074954Y-106966977D01*
X141288276Y-107234474D01*
X141470307Y-107524174D01*
X141618756Y-107832433D01*
X141731759Y-108155375D01*
X141807892Y-108488939D01*
X141846200Y-108828929D01*
X141846200Y-109171071D01*
X141807892Y-109511061D01*
X141731759Y-109844625D01*
X141618756Y-110167567D01*
X141470307Y-110475826D01*
X141288276Y-110765526D01*
X141074954Y-111033023D01*
X140833023Y-111274954D01*
X140565526Y-111488276D01*
X140275826Y-111670307D01*
X139967567Y-111818756D01*
X139644625Y-111931759D01*
X139311061Y-112007892D01*
X138971071Y-112046200D01*
X138628929Y-112046200D01*
X138288939Y-112007892D01*
X137955375Y-111931759D01*
X137632433Y-111818756D01*
X137324174Y-111670307D01*
X137034474Y-111488276D01*
X136766977Y-111274954D01*
X136525046Y-111033023D01*
X136311724Y-110765526D01*
X136129693Y-110475826D01*
X135981244Y-110167567D01*
X135868241Y-109844625D01*
X135792108Y-109511061D01*
X135753800Y-109171071D01*
X135753800Y-108828929D01*
X135792108Y-108488939D01*
X135868241Y-108155375D01*
X135981244Y-107832433D01*
X136129693Y-107524174D01*
X136311724Y-107234474D01*
X136525046Y-106966977D01*
X136766977Y-106725046D01*
X137034474Y-106511724D01*
X137324174Y-106329693D01*
X137632433Y-106181244D01*
X137955375Y-106068241D01*
X138288939Y-105992108D01*
X138628929Y-105953800D01*
X138971071Y-105953800D01*
X139311061Y-105992108D01*
G37*
G36*
X122768272Y-99487434D02*
G01*
X123110055Y-99555419D01*
X123443528Y-99656577D01*
X123765480Y-99789934D01*
X124072811Y-99954206D01*
X124362560Y-100147810D01*
X124631938Y-100368883D01*
X124878349Y-100615294D01*
X125099422Y-100884672D01*
X125293026Y-101174421D01*
X125457298Y-101481752D01*
X125590655Y-101803704D01*
X125691813Y-102137177D01*
X125759798Y-102478960D01*
X125793955Y-102825761D01*
X125793955Y-103174239D01*
X125759798Y-103521040D01*
X125691813Y-103862823D01*
X125590655Y-104196296D01*
X125457298Y-104518248D01*
X125293026Y-104825579D01*
X125099422Y-105115328D01*
X124878349Y-105384706D01*
X124631938Y-105631117D01*
X124362560Y-105852190D01*
X124072811Y-106045794D01*
X123765480Y-106210066D01*
X123443528Y-106343423D01*
X123110055Y-106444581D01*
X122768272Y-106512566D01*
X122421471Y-106546723D01*
X122072993Y-106546723D01*
X121726192Y-106512566D01*
X121384409Y-106444581D01*
X121050936Y-106343423D01*
X120728984Y-106210066D01*
X120421653Y-106045794D01*
X120131904Y-105852190D01*
X119862526Y-105631117D01*
X119616115Y-105384706D01*
X119395042Y-105115328D01*
X119201438Y-104825579D01*
X119037166Y-104518248D01*
X118903809Y-104196296D01*
X118802651Y-103862823D01*
X118734666Y-103521040D01*
X118700509Y-103174239D01*
X118700509Y-102825761D01*
X118734666Y-102478960D01*
X118802651Y-102137177D01*
X118903809Y-101803704D01*
X119037166Y-101481752D01*
X119201438Y-101174421D01*
X119395042Y-100884672D01*
X119616115Y-100615294D01*
X119862526Y-100368883D01*
X120131904Y-100147810D01*
X120421653Y-99954206D01*
X120728984Y-99789934D01*
X121050936Y-99656577D01*
X121384409Y-99555419D01*
X121726192Y-99487434D01*
X122072993Y-99453277D01*
X122421471Y-99453277D01*
X122768272Y-99487434D01*
G37*
G36*
X139311061Y-93992108D02*
G01*
X139644625Y-94068241D01*
X139967567Y-94181244D01*
X140275826Y-94329693D01*
X140565526Y-94511724D01*
X140833023Y-94725046D01*
X141074954Y-94966977D01*
X141288276Y-95234474D01*
X141470307Y-95524174D01*
X141618756Y-95832433D01*
X141731759Y-96155375D01*
X141807892Y-96488939D01*
X141846200Y-96828929D01*
X141846200Y-97171071D01*
X141807892Y-97511061D01*
X141731759Y-97844625D01*
X141618756Y-98167567D01*
X141470307Y-98475826D01*
X141288276Y-98765526D01*
X141074954Y-99033023D01*
X140833023Y-99274954D01*
X140565526Y-99488276D01*
X140275826Y-99670307D01*
X139967567Y-99818756D01*
X139644625Y-99931759D01*
X139311061Y-100007892D01*
X138971071Y-100046200D01*
X138628929Y-100046200D01*
X138288939Y-100007892D01*
X137955375Y-99931759D01*
X137632433Y-99818756D01*
X137324174Y-99670307D01*
X137034474Y-99488276D01*
X136766977Y-99274954D01*
X136525046Y-99033023D01*
X136311724Y-98765526D01*
X136129693Y-98475826D01*
X135981244Y-98167567D01*
X135868241Y-97844625D01*
X135792108Y-97511061D01*
X135753800Y-97171071D01*
X135753800Y-96828929D01*
X135792108Y-96488939D01*
X135868241Y-96155375D01*
X135981244Y-95832433D01*
X136129693Y-95524174D01*
X136311724Y-95234474D01*
X136525046Y-94966977D01*
X136766977Y-94725046D01*
X137034474Y-94511724D01*
X137324174Y-94329693D01*
X137632433Y-94181244D01*
X137955375Y-94068241D01*
X138288939Y-93992108D01*
X138628929Y-93953800D01*
X138971071Y-93953800D01*
X139311061Y-93992108D01*
G37*
G36*
X139311061Y-79992108D02*
G01*
X139644625Y-80068241D01*
X139967567Y-80181244D01*
X140275826Y-80329693D01*
X140565526Y-80511724D01*
X140833023Y-80725046D01*
X141074954Y-80966977D01*
X141288276Y-81234474D01*
X141470307Y-81524174D01*
X141618756Y-81832433D01*
X141731759Y-82155375D01*
X141807892Y-82488939D01*
X141846200Y-82828929D01*
X141846200Y-83171071D01*
X141807892Y-83511061D01*
X141731759Y-83844625D01*
X141618756Y-84167567D01*
X141470307Y-84475826D01*
X141288276Y-84765526D01*
X141074954Y-85033023D01*
X140833023Y-85274954D01*
X140565526Y-85488276D01*
X140275826Y-85670307D01*
X139967567Y-85818756D01*
X139644625Y-85931759D01*
X139311061Y-86007892D01*
X138971071Y-86046200D01*
X138628929Y-86046200D01*
X138288939Y-86007892D01*
X137955375Y-85931759D01*
X137632433Y-85818756D01*
X137324174Y-85670307D01*
X137034474Y-85488276D01*
X136766977Y-85274954D01*
X136525046Y-85033023D01*
X136311724Y-84765526D01*
X136129693Y-84475826D01*
X135981244Y-84167567D01*
X135868241Y-83844625D01*
X135792108Y-83511061D01*
X135753800Y-83171071D01*
X135753800Y-82828929D01*
X135792108Y-82488939D01*
X135868241Y-82155375D01*
X135981244Y-81832433D01*
X136129693Y-81524174D01*
X136311724Y-81234474D01*
X136525046Y-80966977D01*
X136766977Y-80725046D01*
X137034474Y-80511724D01*
X137324174Y-80329693D01*
X137632433Y-80181244D01*
X137955375Y-80068241D01*
X138288939Y-79992108D01*
X138628929Y-79953800D01*
X138971071Y-79953800D01*
X139311061Y-79992108D01*
G37*
G36*
X122768272Y-73487434D02*
G01*
X123110055Y-73555419D01*
X123443528Y-73656577D01*
X123765480Y-73789934D01*
X124072811Y-73954206D01*
X124362560Y-74147810D01*
X124631938Y-74368883D01*
X124878349Y-74615294D01*
X125099422Y-74884672D01*
X125293026Y-75174421D01*
X125457298Y-75481752D01*
X125590655Y-75803704D01*
X125691813Y-76137177D01*
X125759798Y-76478960D01*
X125793955Y-76825761D01*
X125793955Y-77174239D01*
X125759798Y-77521040D01*
X125691813Y-77862823D01*
X125590655Y-78196296D01*
X125457298Y-78518248D01*
X125293026Y-78825579D01*
X125099422Y-79115328D01*
X124878349Y-79384706D01*
X124631938Y-79631117D01*
X124362560Y-79852190D01*
X124072811Y-80045794D01*
X123765480Y-80210066D01*
X123443528Y-80343423D01*
X123110055Y-80444581D01*
X122768272Y-80512566D01*
X122421471Y-80546723D01*
X122072993Y-80546723D01*
X121726192Y-80512566D01*
X121384409Y-80444581D01*
X121050936Y-80343423D01*
X120728984Y-80210066D01*
X120421653Y-80045794D01*
X120131904Y-79852190D01*
X119862526Y-79631117D01*
X119616115Y-79384706D01*
X119395042Y-79115328D01*
X119201438Y-78825579D01*
X119037166Y-78518248D01*
X118903809Y-78196296D01*
X118802651Y-77862823D01*
X118734666Y-77521040D01*
X118700509Y-77174239D01*
X118700509Y-76825761D01*
X118734666Y-76478960D01*
X118802651Y-76137177D01*
X118903809Y-75803704D01*
X119037166Y-75481752D01*
X119201438Y-75174421D01*
X119395042Y-74884672D01*
X119616115Y-74615294D01*
X119862526Y-74368883D01*
X120131904Y-74147810D01*
X120421653Y-73954206D01*
X120728984Y-73789934D01*
X121050936Y-73656577D01*
X121384409Y-73555419D01*
X121726192Y-73487434D01*
X122072993Y-73453277D01*
X122421471Y-73453277D01*
X122768272Y-73487434D01*
G37*
G36*
X139311061Y-67992108D02*
G01*
X139644625Y-68068241D01*
X139967567Y-68181244D01*
X140275826Y-68329693D01*
X140565526Y-68511724D01*
X140833023Y-68725046D01*
X141074954Y-68966977D01*
X141288276Y-69234474D01*
X141470307Y-69524174D01*
X141618756Y-69832433D01*
X141731759Y-70155375D01*
X141807892Y-70488939D01*
X141846200Y-70828929D01*
X141846200Y-71171071D01*
X141807892Y-71511061D01*
X141731759Y-71844625D01*
X141618756Y-72167567D01*
X141470307Y-72475826D01*
X141288276Y-72765526D01*
X141074954Y-73033023D01*
X140833023Y-73274954D01*
X140565526Y-73488276D01*
X140275826Y-73670307D01*
X139967567Y-73818756D01*
X139644625Y-73931759D01*
X139311061Y-74007892D01*
X138971071Y-74046200D01*
X138628929Y-74046200D01*
X138288939Y-74007892D01*
X137955375Y-73931759D01*
X137632433Y-73818756D01*
X137324174Y-73670307D01*
X137034474Y-73488276D01*
X136766977Y-73274954D01*
X136525046Y-73033023D01*
X136311724Y-72765526D01*
X136129693Y-72475826D01*
X135981244Y-72167567D01*
X135868241Y-71844625D01*
X135792108Y-71511061D01*
X135753800Y-71171071D01*
X135753800Y-70828929D01*
X135792108Y-70488939D01*
X135868241Y-70155375D01*
X135981244Y-69832433D01*
X136129693Y-69524174D01*
X136311724Y-69234474D01*
X136525046Y-68966977D01*
X136766977Y-68725046D01*
X137034474Y-68511724D01*
X137324174Y-68329693D01*
X137632433Y-68181244D01*
X137955375Y-68068241D01*
X138288939Y-67992108D01*
X138628929Y-67953800D01*
X138971071Y-67953800D01*
X139311061Y-67992108D01*
G37*
G36*
X139311061Y-53992108D02*
G01*
X139644625Y-54068241D01*
X139967567Y-54181244D01*
X140275826Y-54329693D01*
X140565526Y-54511724D01*
X140833023Y-54725046D01*
X141074954Y-54966977D01*
X141288276Y-55234474D01*
X141470307Y-55524174D01*
X141618756Y-55832433D01*
X141731759Y-56155375D01*
X141807892Y-56488939D01*
X141846200Y-56828929D01*
X141846200Y-57171071D01*
X141807892Y-57511061D01*
X141731759Y-57844625D01*
X141618756Y-58167567D01*
X141470307Y-58475826D01*
X141288276Y-58765526D01*
X141074954Y-59033023D01*
X140833023Y-59274954D01*
X140565526Y-59488276D01*
X140275826Y-59670307D01*
X139967567Y-59818756D01*
X139644625Y-59931759D01*
X139311061Y-60007892D01*
X138971071Y-60046200D01*
X138628929Y-60046200D01*
X138288939Y-60007892D01*
X137955375Y-59931759D01*
X137632433Y-59818756D01*
X137324174Y-59670307D01*
X137034474Y-59488276D01*
X136766977Y-59274954D01*
X136525046Y-59033023D01*
X136311724Y-58765526D01*
X136129693Y-58475826D01*
X135981244Y-58167567D01*
X135868241Y-57844625D01*
X135792108Y-57511061D01*
X135753800Y-57171071D01*
X135753800Y-56828929D01*
X135792108Y-56488939D01*
X135868241Y-56155375D01*
X135981244Y-55832433D01*
X136129693Y-55524174D01*
X136311724Y-55234474D01*
X136525046Y-54966977D01*
X136766977Y-54725046D01*
X137034474Y-54511724D01*
X137324174Y-54329693D01*
X137632433Y-54181244D01*
X137955375Y-54068241D01*
X138288939Y-53992108D01*
X138628929Y-53953800D01*
X138971071Y-53953800D01*
X139311061Y-53992108D01*
G37*
G36*
X122769656Y-47487434D02*
G01*
X123111439Y-47555419D01*
X123444912Y-47656577D01*
X123766864Y-47789934D01*
X124074195Y-47954206D01*
X124363944Y-48147810D01*
X124633322Y-48368883D01*
X124879733Y-48615294D01*
X125100806Y-48884672D01*
X125294410Y-49174421D01*
X125458682Y-49481752D01*
X125592039Y-49803704D01*
X125693197Y-50137177D01*
X125761182Y-50478960D01*
X125795339Y-50825761D01*
X125795339Y-51174239D01*
X125761182Y-51521040D01*
X125693197Y-51862823D01*
X125592039Y-52196296D01*
X125458682Y-52518248D01*
X125294410Y-52825579D01*
X125100806Y-53115328D01*
X124879733Y-53384706D01*
X124633322Y-53631117D01*
X124363944Y-53852190D01*
X124074195Y-54045794D01*
X123766864Y-54210066D01*
X123444912Y-54343423D01*
X123111439Y-54444581D01*
X122769656Y-54512566D01*
X122422855Y-54546723D01*
X122074377Y-54546723D01*
X121727576Y-54512566D01*
X121385793Y-54444581D01*
X121052320Y-54343423D01*
X120730368Y-54210066D01*
X120423037Y-54045794D01*
X120133288Y-53852190D01*
X119863910Y-53631117D01*
X119617499Y-53384706D01*
X119396426Y-53115328D01*
X119202822Y-52825579D01*
X119038550Y-52518248D01*
X118905193Y-52196296D01*
X118804035Y-51862823D01*
X118736050Y-51521040D01*
X118701893Y-51174239D01*
X118701893Y-50825761D01*
X118736050Y-50478960D01*
X118804035Y-50137177D01*
X118905193Y-49803704D01*
X119038550Y-49481752D01*
X119202822Y-49174421D01*
X119396426Y-48884672D01*
X119617499Y-48615294D01*
X119863910Y-48368883D01*
X120133288Y-48147810D01*
X120423037Y-47954206D01*
X120730368Y-47789934D01*
X121052320Y-47656577D01*
X121385793Y-47555419D01*
X121727576Y-47487434D01*
X122074377Y-47453277D01*
X122422855Y-47453277D01*
X122769656Y-47487434D01*
G37*
G36*
X139309677Y-41992108D02*
G01*
X139643241Y-42068241D01*
X139966183Y-42181244D01*
X140274442Y-42329693D01*
X140564142Y-42511724D01*
X140831639Y-42725046D01*
X141073570Y-42966977D01*
X141286892Y-43234474D01*
X141468923Y-43524174D01*
X141617372Y-43832433D01*
X141730375Y-44155375D01*
X141806508Y-44488939D01*
X141844816Y-44828929D01*
X141844816Y-45171071D01*
X141806508Y-45511061D01*
X141730375Y-45844625D01*
X141617372Y-46167567D01*
X141468923Y-46475826D01*
X141286892Y-46765526D01*
X141073570Y-47033023D01*
X140831639Y-47274954D01*
X140564142Y-47488276D01*
X140274442Y-47670307D01*
X139966183Y-47818756D01*
X139643241Y-47931759D01*
X139309677Y-48007892D01*
X138969687Y-48046200D01*
X138627545Y-48046200D01*
X138287555Y-48007892D01*
X137953991Y-47931759D01*
X137631049Y-47818756D01*
X137322790Y-47670307D01*
X137033090Y-47488276D01*
X136765593Y-47274954D01*
X136523662Y-47033023D01*
X136310340Y-46765526D01*
X136128309Y-46475826D01*
X135979860Y-46167567D01*
X135866857Y-45844625D01*
X135790724Y-45511061D01*
X135752416Y-45171071D01*
X135752416Y-44828929D01*
X135790724Y-44488939D01*
X135866857Y-44155375D01*
X135979860Y-43832433D01*
X136128309Y-43524174D01*
X136310340Y-43234474D01*
X136523662Y-42966977D01*
X136765593Y-42725046D01*
X137033090Y-42511724D01*
X137322790Y-42329693D01*
X137631049Y-42181244D01*
X137953991Y-42068241D01*
X138287555Y-41992108D01*
X138627545Y-41953800D01*
X138969687Y-41953800D01*
X139309677Y-41992108D01*
G37*
G36*
X122619114Y-27104089D02*
G01*
X122630920Y-27104089D01*
X122689047Y-27113295D01*
X122823426Y-27130986D01*
X122856221Y-27139773D01*
X122886802Y-27144617D01*
X122945613Y-27163726D01*
X123031995Y-27186872D01*
X123087108Y-27209700D01*
X123133194Y-27224675D01*
X123176371Y-27246674D01*
X123231483Y-27269503D01*
X123308923Y-27314213D01*
X123364029Y-27342291D01*
X123389081Y-27360492D01*
X123418480Y-27377466D01*
X123526035Y-27459995D01*
X123573623Y-27494570D01*
X123581963Y-27502910D01*
X123589785Y-27508912D01*
X123742471Y-27661598D01*
X123748472Y-27669419D01*
X123756814Y-27677761D01*
X123791392Y-27725354D01*
X123873917Y-27832903D01*
X123890889Y-27862299D01*
X123909093Y-27887355D01*
X123937173Y-27942466D01*
X123981880Y-28019900D01*
X124004705Y-28075006D01*
X124026709Y-28118190D01*
X124041685Y-28164282D01*
X124064511Y-28219388D01*
X124087653Y-28305757D01*
X124106767Y-28364582D01*
X124111611Y-28395169D01*
X124120397Y-28427957D01*
X124138087Y-28562327D01*
X124147295Y-28620464D01*
X124147295Y-28632269D01*
X124148581Y-28642038D01*
X124148581Y-28857961D01*
X124147295Y-28867729D01*
X124147295Y-28879536D01*
X124138086Y-28937677D01*
X124120397Y-29072042D01*
X124111612Y-29104827D01*
X124106767Y-29135418D01*
X124087652Y-29194246D01*
X124064511Y-29280611D01*
X124041686Y-29335713D01*
X124026709Y-29381810D01*
X124004703Y-29424997D01*
X123981880Y-29480099D01*
X123937177Y-29557525D01*
X123909093Y-29612645D01*
X123890886Y-29637704D01*
X123873917Y-29667096D01*
X123791406Y-29774627D01*
X123756814Y-29822239D01*
X123748469Y-29830583D01*
X123742471Y-29838401D01*
X123589785Y-29991087D01*
X123581967Y-29997085D01*
X123573623Y-30005430D01*
X123526011Y-30040022D01*
X123418480Y-30122533D01*
X123389088Y-30139502D01*
X123364029Y-30157709D01*
X123308909Y-30185793D01*
X123231483Y-30230496D01*
X123176381Y-30253319D01*
X123133194Y-30275325D01*
X123087097Y-30290302D01*
X123031995Y-30313127D01*
X122945630Y-30336268D01*
X122886802Y-30355383D01*
X122856211Y-30360228D01*
X122823426Y-30369013D01*
X122689061Y-30386702D01*
X122630920Y-30395911D01*
X122619113Y-30395911D01*
X122609345Y-30397197D01*
X122393423Y-30397197D01*
X122383655Y-30395911D01*
X122371848Y-30395911D01*
X122313708Y-30386702D01*
X122179341Y-30369013D01*
X122146553Y-30360227D01*
X122115966Y-30355383D01*
X122057141Y-30336269D01*
X121970772Y-30313127D01*
X121915666Y-30290301D01*
X121869574Y-30275325D01*
X121826390Y-30253321D01*
X121771284Y-30230496D01*
X121693850Y-30185789D01*
X121638739Y-30157709D01*
X121613683Y-30139505D01*
X121584287Y-30122533D01*
X121476738Y-30040008D01*
X121429145Y-30005430D01*
X121420803Y-29997088D01*
X121412982Y-29991087D01*
X121260296Y-29838401D01*
X121254294Y-29830579D01*
X121245954Y-29822239D01*
X121211379Y-29774651D01*
X121128850Y-29667096D01*
X121111876Y-29637697D01*
X121093675Y-29612645D01*
X121065597Y-29557539D01*
X121020887Y-29480099D01*
X120998058Y-29424987D01*
X120976059Y-29381810D01*
X120961084Y-29335724D01*
X120938256Y-29280611D01*
X120915110Y-29194229D01*
X120896001Y-29135418D01*
X120891157Y-29104837D01*
X120882370Y-29072042D01*
X120864679Y-28937663D01*
X120855473Y-28879536D01*
X120855473Y-28867729D01*
X120854187Y-28857961D01*
X120854187Y-28642038D01*
X120855473Y-28632269D01*
X120855473Y-28620464D01*
X120864678Y-28562341D01*
X120882370Y-28427957D01*
X120891157Y-28395160D01*
X120896001Y-28364582D01*
X120915108Y-28305775D01*
X120938256Y-28219388D01*
X120961086Y-28164271D01*
X120976059Y-28118190D01*
X120998056Y-28075016D01*
X121020887Y-28019900D01*
X121065601Y-27942451D01*
X121093675Y-27887355D01*
X121111873Y-27862306D01*
X121128850Y-27832903D01*
X121211393Y-27725329D01*
X121245954Y-27677761D01*
X121254290Y-27669424D01*
X121260296Y-27661598D01*
X121412982Y-27508912D01*
X121420808Y-27502906D01*
X121429145Y-27494570D01*
X121476713Y-27460009D01*
X121584287Y-27377466D01*
X121613690Y-27360489D01*
X121638739Y-27342291D01*
X121693835Y-27314217D01*
X121771284Y-27269503D01*
X121826400Y-27246672D01*
X121869574Y-27224675D01*
X121915655Y-27209702D01*
X121970772Y-27186872D01*
X122057159Y-27163724D01*
X122115966Y-27144617D01*
X122146544Y-27139773D01*
X122179341Y-27130986D01*
X122313722Y-27113295D01*
X122371848Y-27104089D01*
X122383654Y-27104089D01*
X122393423Y-27102803D01*
X122609345Y-27102803D01*
X122619114Y-27104089D01*
G37*
M02*
