G04 #@! TF.GenerationSoftware,KiCad,Pcbnew,(5.1.4)-1*
G04 #@! TF.CreationDate,2019-11-28T12:25:54-08:00*
G04 #@! TF.ProjectId,AttenuverterFaceplate,41747465-6e75-4766-9572-746572466163,rev?*
G04 #@! TF.SameCoordinates,Original*
G04 #@! TF.FileFunction,Copper,L1,Top*
G04 #@! TF.FilePolarity,Positive*
%FSLAX46Y46*%
G04 Gerber Fmt 4.6, Leading zero omitted, Abs format (unit mm)*
G04 Created by KiCad (PCBNEW (5.1.4)-1) date 2019-11-28 12:25:54*
%MOMM*%
%LPD*%
G04 APERTURE LIST*
%ADD10C,0.254000*%
G04 APERTURE END LIST*
D10*
G36*
X144266384Y-153515000D02*
G01*
X115736384Y-153515000D01*
X115736384Y-151029872D01*
X120263616Y-151029872D01*
X120263616Y-151470128D01*
X120349506Y-151901925D01*
X120517985Y-152308669D01*
X120762578Y-152674729D01*
X121073887Y-152986038D01*
X121439947Y-153230631D01*
X121846691Y-153399110D01*
X122278488Y-153485000D01*
X122718744Y-153485000D01*
X123150541Y-153399110D01*
X123557285Y-153230631D01*
X123923345Y-152986038D01*
X124234654Y-152674729D01*
X124479247Y-152308669D01*
X124647726Y-151901925D01*
X124733616Y-151470128D01*
X124733616Y-151029872D01*
X135513616Y-151029872D01*
X135513616Y-151470128D01*
X135599506Y-151901925D01*
X135767985Y-152308669D01*
X136012578Y-152674729D01*
X136323887Y-152986038D01*
X136689947Y-153230631D01*
X137096691Y-153399110D01*
X137528488Y-153485000D01*
X137968744Y-153485000D01*
X138400541Y-153399110D01*
X138807285Y-153230631D01*
X139173345Y-152986038D01*
X139484654Y-152674729D01*
X139729247Y-152308669D01*
X139897726Y-151901925D01*
X139983616Y-151470128D01*
X139983616Y-151029872D01*
X139897726Y-150598075D01*
X139729247Y-150191331D01*
X139484654Y-149825271D01*
X139173345Y-149513962D01*
X138807285Y-149269369D01*
X138400541Y-149100890D01*
X137968744Y-149015000D01*
X137528488Y-149015000D01*
X137096691Y-149100890D01*
X136689947Y-149269369D01*
X136323887Y-149513962D01*
X136012578Y-149825271D01*
X135767985Y-150191331D01*
X135599506Y-150598075D01*
X135513616Y-151029872D01*
X124733616Y-151029872D01*
X124647726Y-150598075D01*
X124479247Y-150191331D01*
X124234654Y-149825271D01*
X123923345Y-149513962D01*
X123557285Y-149269369D01*
X123150541Y-149100890D01*
X122718744Y-149015000D01*
X122278488Y-149015000D01*
X121846691Y-149100890D01*
X121439947Y-149269369D01*
X121073887Y-149513962D01*
X120762578Y-149825271D01*
X120517985Y-150191331D01*
X120349506Y-150598075D01*
X120263616Y-151029872D01*
X115736384Y-151029872D01*
X115736384Y-134641984D01*
X135165000Y-134641984D01*
X135165000Y-135358016D01*
X135304691Y-136060290D01*
X135578705Y-136721818D01*
X135976511Y-137317177D01*
X136482823Y-137823489D01*
X137078182Y-138221295D01*
X137739710Y-138495309D01*
X138441984Y-138635000D01*
X139158016Y-138635000D01*
X139860290Y-138495309D01*
X140521818Y-138221295D01*
X141117177Y-137823489D01*
X141623489Y-137317177D01*
X142021295Y-136721818D01*
X142295309Y-136060290D01*
X142435000Y-135358016D01*
X142435000Y-134641984D01*
X142295309Y-133939710D01*
X142021295Y-133278182D01*
X141623489Y-132682823D01*
X141117177Y-132176511D01*
X140521818Y-131778705D01*
X139860290Y-131504691D01*
X139158016Y-131365000D01*
X138441984Y-131365000D01*
X137739710Y-131504691D01*
X137078182Y-131778705D01*
X136482823Y-132176511D01*
X135976511Y-132682823D01*
X135578705Y-133278182D01*
X135304691Y-133939710D01*
X135165000Y-134641984D01*
X115736384Y-134641984D01*
X115736384Y-128592738D01*
X118112232Y-128592738D01*
X118112232Y-129407262D01*
X118271138Y-130206135D01*
X118582843Y-130958657D01*
X119035368Y-131635909D01*
X119611323Y-132211864D01*
X120288575Y-132664389D01*
X121041097Y-132976094D01*
X121839970Y-133135000D01*
X122654494Y-133135000D01*
X123453367Y-132976094D01*
X124205889Y-132664389D01*
X124883141Y-132211864D01*
X125459096Y-131635909D01*
X125911621Y-130958657D01*
X126223326Y-130206135D01*
X126382232Y-129407262D01*
X126382232Y-128592738D01*
X126223326Y-127793865D01*
X125911621Y-127041343D01*
X125459096Y-126364091D01*
X124883141Y-125788136D01*
X124205889Y-125335611D01*
X123453367Y-125023906D01*
X122654494Y-124865000D01*
X121839970Y-124865000D01*
X121041097Y-125023906D01*
X120288575Y-125335611D01*
X119611323Y-125788136D01*
X119035368Y-126364091D01*
X118582843Y-127041343D01*
X118271138Y-127793865D01*
X118112232Y-128592738D01*
X115736384Y-128592738D01*
X115736384Y-122641984D01*
X135165000Y-122641984D01*
X135165000Y-123358016D01*
X135304691Y-124060290D01*
X135578705Y-124721818D01*
X135976511Y-125317177D01*
X136482823Y-125823489D01*
X137078182Y-126221295D01*
X137739710Y-126495309D01*
X138441984Y-126635000D01*
X139158016Y-126635000D01*
X139860290Y-126495309D01*
X140521818Y-126221295D01*
X141117177Y-125823489D01*
X141623489Y-125317177D01*
X142021295Y-124721818D01*
X142295309Y-124060290D01*
X142435000Y-123358016D01*
X142435000Y-122641984D01*
X142295309Y-121939710D01*
X142021295Y-121278182D01*
X141623489Y-120682823D01*
X141117177Y-120176511D01*
X140521818Y-119778705D01*
X139860290Y-119504691D01*
X139158016Y-119365000D01*
X138441984Y-119365000D01*
X137739710Y-119504691D01*
X137078182Y-119778705D01*
X136482823Y-120176511D01*
X135976511Y-120682823D01*
X135578705Y-121278182D01*
X135304691Y-121939710D01*
X135165000Y-122641984D01*
X115736384Y-122641984D01*
X115736384Y-108641984D01*
X135165000Y-108641984D01*
X135165000Y-109358016D01*
X135304691Y-110060290D01*
X135578705Y-110721818D01*
X135976511Y-111317177D01*
X136482823Y-111823489D01*
X137078182Y-112221295D01*
X137739710Y-112495309D01*
X138441984Y-112635000D01*
X139158016Y-112635000D01*
X139860290Y-112495309D01*
X140521818Y-112221295D01*
X141117177Y-111823489D01*
X141623489Y-111317177D01*
X142021295Y-110721818D01*
X142295309Y-110060290D01*
X142435000Y-109358016D01*
X142435000Y-108641984D01*
X142295309Y-107939710D01*
X142021295Y-107278182D01*
X141623489Y-106682823D01*
X141117177Y-106176511D01*
X140521818Y-105778705D01*
X139860290Y-105504691D01*
X139158016Y-105365000D01*
X138441984Y-105365000D01*
X137739710Y-105504691D01*
X137078182Y-105778705D01*
X136482823Y-106176511D01*
X135976511Y-106682823D01*
X135578705Y-107278182D01*
X135304691Y-107939710D01*
X135165000Y-108641984D01*
X115736384Y-108641984D01*
X115736384Y-102592738D01*
X118112232Y-102592738D01*
X118112232Y-103407262D01*
X118271138Y-104206135D01*
X118582843Y-104958657D01*
X119035368Y-105635909D01*
X119611323Y-106211864D01*
X120288575Y-106664389D01*
X121041097Y-106976094D01*
X121839970Y-107135000D01*
X122654494Y-107135000D01*
X123453367Y-106976094D01*
X124205889Y-106664389D01*
X124883141Y-106211864D01*
X125459096Y-105635909D01*
X125911621Y-104958657D01*
X126223326Y-104206135D01*
X126382232Y-103407262D01*
X126382232Y-102592738D01*
X126223326Y-101793865D01*
X125911621Y-101041343D01*
X125459096Y-100364091D01*
X124883141Y-99788136D01*
X124205889Y-99335611D01*
X123453367Y-99023906D01*
X122654494Y-98865000D01*
X121839970Y-98865000D01*
X121041097Y-99023906D01*
X120288575Y-99335611D01*
X119611323Y-99788136D01*
X119035368Y-100364091D01*
X118582843Y-101041343D01*
X118271138Y-101793865D01*
X118112232Y-102592738D01*
X115736384Y-102592738D01*
X115736384Y-96641984D01*
X135165000Y-96641984D01*
X135165000Y-97358016D01*
X135304691Y-98060290D01*
X135578705Y-98721818D01*
X135976511Y-99317177D01*
X136482823Y-99823489D01*
X137078182Y-100221295D01*
X137739710Y-100495309D01*
X138441984Y-100635000D01*
X139158016Y-100635000D01*
X139860290Y-100495309D01*
X140521818Y-100221295D01*
X141117177Y-99823489D01*
X141623489Y-99317177D01*
X142021295Y-98721818D01*
X142295309Y-98060290D01*
X142435000Y-97358016D01*
X142435000Y-96641984D01*
X142295309Y-95939710D01*
X142021295Y-95278182D01*
X141623489Y-94682823D01*
X141117177Y-94176511D01*
X140521818Y-93778705D01*
X139860290Y-93504691D01*
X139158016Y-93365000D01*
X138441984Y-93365000D01*
X137739710Y-93504691D01*
X137078182Y-93778705D01*
X136482823Y-94176511D01*
X135976511Y-94682823D01*
X135578705Y-95278182D01*
X135304691Y-95939710D01*
X135165000Y-96641984D01*
X115736384Y-96641984D01*
X115736384Y-82641984D01*
X135165000Y-82641984D01*
X135165000Y-83358016D01*
X135304691Y-84060290D01*
X135578705Y-84721818D01*
X135976511Y-85317177D01*
X136482823Y-85823489D01*
X137078182Y-86221295D01*
X137739710Y-86495309D01*
X138441984Y-86635000D01*
X139158016Y-86635000D01*
X139860290Y-86495309D01*
X140521818Y-86221295D01*
X141117177Y-85823489D01*
X141623489Y-85317177D01*
X142021295Y-84721818D01*
X142295309Y-84060290D01*
X142435000Y-83358016D01*
X142435000Y-82641984D01*
X142295309Y-81939710D01*
X142021295Y-81278182D01*
X141623489Y-80682823D01*
X141117177Y-80176511D01*
X140521818Y-79778705D01*
X139860290Y-79504691D01*
X139158016Y-79365000D01*
X138441984Y-79365000D01*
X137739710Y-79504691D01*
X137078182Y-79778705D01*
X136482823Y-80176511D01*
X135976511Y-80682823D01*
X135578705Y-81278182D01*
X135304691Y-81939710D01*
X135165000Y-82641984D01*
X115736384Y-82641984D01*
X115736384Y-76592738D01*
X118112232Y-76592738D01*
X118112232Y-77407262D01*
X118271138Y-78206135D01*
X118582843Y-78958657D01*
X119035368Y-79635909D01*
X119611323Y-80211864D01*
X120288575Y-80664389D01*
X121041097Y-80976094D01*
X121839970Y-81135000D01*
X122654494Y-81135000D01*
X123453367Y-80976094D01*
X124205889Y-80664389D01*
X124883141Y-80211864D01*
X125459096Y-79635909D01*
X125911621Y-78958657D01*
X126223326Y-78206135D01*
X126382232Y-77407262D01*
X126382232Y-76592738D01*
X126223326Y-75793865D01*
X125911621Y-75041343D01*
X125459096Y-74364091D01*
X124883141Y-73788136D01*
X124205889Y-73335611D01*
X123453367Y-73023906D01*
X122654494Y-72865000D01*
X121839970Y-72865000D01*
X121041097Y-73023906D01*
X120288575Y-73335611D01*
X119611323Y-73788136D01*
X119035368Y-74364091D01*
X118582843Y-75041343D01*
X118271138Y-75793865D01*
X118112232Y-76592738D01*
X115736384Y-76592738D01*
X115736384Y-70641984D01*
X135165000Y-70641984D01*
X135165000Y-71358016D01*
X135304691Y-72060290D01*
X135578705Y-72721818D01*
X135976511Y-73317177D01*
X136482823Y-73823489D01*
X137078182Y-74221295D01*
X137739710Y-74495309D01*
X138441984Y-74635000D01*
X139158016Y-74635000D01*
X139860290Y-74495309D01*
X140521818Y-74221295D01*
X141117177Y-73823489D01*
X141623489Y-73317177D01*
X142021295Y-72721818D01*
X142295309Y-72060290D01*
X142435000Y-71358016D01*
X142435000Y-70641984D01*
X142295309Y-69939710D01*
X142021295Y-69278182D01*
X141623489Y-68682823D01*
X141117177Y-68176511D01*
X140521818Y-67778705D01*
X139860290Y-67504691D01*
X139158016Y-67365000D01*
X138441984Y-67365000D01*
X137739710Y-67504691D01*
X137078182Y-67778705D01*
X136482823Y-68176511D01*
X135976511Y-68682823D01*
X135578705Y-69278182D01*
X135304691Y-69939710D01*
X135165000Y-70641984D01*
X115736384Y-70641984D01*
X115736384Y-56641984D01*
X135165000Y-56641984D01*
X135165000Y-57358016D01*
X135304691Y-58060290D01*
X135578705Y-58721818D01*
X135976511Y-59317177D01*
X136482823Y-59823489D01*
X137078182Y-60221295D01*
X137739710Y-60495309D01*
X138441984Y-60635000D01*
X139158016Y-60635000D01*
X139860290Y-60495309D01*
X140521818Y-60221295D01*
X141117177Y-59823489D01*
X141623489Y-59317177D01*
X142021295Y-58721818D01*
X142295309Y-58060290D01*
X142435000Y-57358016D01*
X142435000Y-56641984D01*
X142295309Y-55939710D01*
X142021295Y-55278182D01*
X141623489Y-54682823D01*
X141117177Y-54176511D01*
X140521818Y-53778705D01*
X139860290Y-53504691D01*
X139158016Y-53365000D01*
X138441984Y-53365000D01*
X137739710Y-53504691D01*
X137078182Y-53778705D01*
X136482823Y-54176511D01*
X135976511Y-54682823D01*
X135578705Y-55278182D01*
X135304691Y-55939710D01*
X135165000Y-56641984D01*
X115736384Y-56641984D01*
X115736384Y-50592738D01*
X118113616Y-50592738D01*
X118113616Y-51407262D01*
X118272522Y-52206135D01*
X118584227Y-52958657D01*
X119036752Y-53635909D01*
X119612707Y-54211864D01*
X120289959Y-54664389D01*
X121042481Y-54976094D01*
X121841354Y-55135000D01*
X122655878Y-55135000D01*
X123454751Y-54976094D01*
X124207273Y-54664389D01*
X124884525Y-54211864D01*
X125460480Y-53635909D01*
X125913005Y-52958657D01*
X126224710Y-52206135D01*
X126383616Y-51407262D01*
X126383616Y-50592738D01*
X126224710Y-49793865D01*
X125913005Y-49041343D01*
X125460480Y-48364091D01*
X124884525Y-47788136D01*
X124207273Y-47335611D01*
X123454751Y-47023906D01*
X122655878Y-46865000D01*
X121841354Y-46865000D01*
X121042481Y-47023906D01*
X120289959Y-47335611D01*
X119612707Y-47788136D01*
X119036752Y-48364091D01*
X118584227Y-49041343D01*
X118272522Y-49793865D01*
X118113616Y-50592738D01*
X115736384Y-50592738D01*
X115736384Y-44641984D01*
X135163616Y-44641984D01*
X135163616Y-45358016D01*
X135303307Y-46060290D01*
X135577321Y-46721818D01*
X135975127Y-47317177D01*
X136481439Y-47823489D01*
X137076798Y-48221295D01*
X137738326Y-48495309D01*
X138440600Y-48635000D01*
X139156632Y-48635000D01*
X139858906Y-48495309D01*
X140520434Y-48221295D01*
X141115793Y-47823489D01*
X141622105Y-47317177D01*
X142019911Y-46721818D01*
X142293925Y-46060290D01*
X142433616Y-45358016D01*
X142433616Y-44641984D01*
X142293925Y-43939710D01*
X142019911Y-43278182D01*
X141622105Y-42682823D01*
X141115793Y-42176511D01*
X140520434Y-41778705D01*
X139858906Y-41504691D01*
X139156632Y-41365000D01*
X138440600Y-41365000D01*
X137738326Y-41504691D01*
X137076798Y-41778705D01*
X136481439Y-42176511D01*
X135975127Y-42682823D01*
X135577321Y-43278182D01*
X135303307Y-43939710D01*
X135163616Y-44641984D01*
X115736384Y-44641984D01*
X115736384Y-28529872D01*
X120265000Y-28529872D01*
X120265000Y-28970128D01*
X120350890Y-29401925D01*
X120519369Y-29808669D01*
X120763962Y-30174729D01*
X121075271Y-30486038D01*
X121441331Y-30730631D01*
X121848075Y-30899110D01*
X122279872Y-30985000D01*
X122720128Y-30985000D01*
X123151925Y-30899110D01*
X123558669Y-30730631D01*
X123924729Y-30486038D01*
X124236038Y-30174729D01*
X124480631Y-29808669D01*
X124649110Y-29401925D01*
X124735000Y-28970128D01*
X124735000Y-28529872D01*
X135513616Y-28529872D01*
X135513616Y-28970128D01*
X135599506Y-29401925D01*
X135767985Y-29808669D01*
X136012578Y-30174729D01*
X136323887Y-30486038D01*
X136689947Y-30730631D01*
X137096691Y-30899110D01*
X137528488Y-30985000D01*
X137968744Y-30985000D01*
X138400541Y-30899110D01*
X138807285Y-30730631D01*
X139173345Y-30486038D01*
X139484654Y-30174729D01*
X139729247Y-29808669D01*
X139897726Y-29401925D01*
X139983616Y-28970128D01*
X139983616Y-28529872D01*
X139897726Y-28098075D01*
X139729247Y-27691331D01*
X139484654Y-27325271D01*
X139173345Y-27013962D01*
X138807285Y-26769369D01*
X138400541Y-26600890D01*
X137968744Y-26515000D01*
X137528488Y-26515000D01*
X137096691Y-26600890D01*
X136689947Y-26769369D01*
X136323887Y-27013962D01*
X136012578Y-27325271D01*
X135767985Y-27691331D01*
X135599506Y-28098075D01*
X135513616Y-28529872D01*
X124735000Y-28529872D01*
X124649110Y-28098075D01*
X124480631Y-27691331D01*
X124236038Y-27325271D01*
X123924729Y-27013962D01*
X123558669Y-26769369D01*
X123151925Y-26600890D01*
X122720128Y-26515000D01*
X122279872Y-26515000D01*
X121848075Y-26600890D01*
X121441331Y-26769369D01*
X121075271Y-27013962D01*
X120763962Y-27325271D01*
X120519369Y-27691331D01*
X120350890Y-28098075D01*
X120265000Y-28529872D01*
X115736384Y-28529872D01*
X115736384Y-26485000D01*
X144266385Y-26485000D01*
X144266384Y-153515000D01*
X144266384Y-153515000D01*
G37*
X144266384Y-153515000D02*
X115736384Y-153515000D01*
X115736384Y-151029872D01*
X120263616Y-151029872D01*
X120263616Y-151470128D01*
X120349506Y-151901925D01*
X120517985Y-152308669D01*
X120762578Y-152674729D01*
X121073887Y-152986038D01*
X121439947Y-153230631D01*
X121846691Y-153399110D01*
X122278488Y-153485000D01*
X122718744Y-153485000D01*
X123150541Y-153399110D01*
X123557285Y-153230631D01*
X123923345Y-152986038D01*
X124234654Y-152674729D01*
X124479247Y-152308669D01*
X124647726Y-151901925D01*
X124733616Y-151470128D01*
X124733616Y-151029872D01*
X135513616Y-151029872D01*
X135513616Y-151470128D01*
X135599506Y-151901925D01*
X135767985Y-152308669D01*
X136012578Y-152674729D01*
X136323887Y-152986038D01*
X136689947Y-153230631D01*
X137096691Y-153399110D01*
X137528488Y-153485000D01*
X137968744Y-153485000D01*
X138400541Y-153399110D01*
X138807285Y-153230631D01*
X139173345Y-152986038D01*
X139484654Y-152674729D01*
X139729247Y-152308669D01*
X139897726Y-151901925D01*
X139983616Y-151470128D01*
X139983616Y-151029872D01*
X139897726Y-150598075D01*
X139729247Y-150191331D01*
X139484654Y-149825271D01*
X139173345Y-149513962D01*
X138807285Y-149269369D01*
X138400541Y-149100890D01*
X137968744Y-149015000D01*
X137528488Y-149015000D01*
X137096691Y-149100890D01*
X136689947Y-149269369D01*
X136323887Y-149513962D01*
X136012578Y-149825271D01*
X135767985Y-150191331D01*
X135599506Y-150598075D01*
X135513616Y-151029872D01*
X124733616Y-151029872D01*
X124647726Y-150598075D01*
X124479247Y-150191331D01*
X124234654Y-149825271D01*
X123923345Y-149513962D01*
X123557285Y-149269369D01*
X123150541Y-149100890D01*
X122718744Y-149015000D01*
X122278488Y-149015000D01*
X121846691Y-149100890D01*
X121439947Y-149269369D01*
X121073887Y-149513962D01*
X120762578Y-149825271D01*
X120517985Y-150191331D01*
X120349506Y-150598075D01*
X120263616Y-151029872D01*
X115736384Y-151029872D01*
X115736384Y-134641984D01*
X135165000Y-134641984D01*
X135165000Y-135358016D01*
X135304691Y-136060290D01*
X135578705Y-136721818D01*
X135976511Y-137317177D01*
X136482823Y-137823489D01*
X137078182Y-138221295D01*
X137739710Y-138495309D01*
X138441984Y-138635000D01*
X139158016Y-138635000D01*
X139860290Y-138495309D01*
X140521818Y-138221295D01*
X141117177Y-137823489D01*
X141623489Y-137317177D01*
X142021295Y-136721818D01*
X142295309Y-136060290D01*
X142435000Y-135358016D01*
X142435000Y-134641984D01*
X142295309Y-133939710D01*
X142021295Y-133278182D01*
X141623489Y-132682823D01*
X141117177Y-132176511D01*
X140521818Y-131778705D01*
X139860290Y-131504691D01*
X139158016Y-131365000D01*
X138441984Y-131365000D01*
X137739710Y-131504691D01*
X137078182Y-131778705D01*
X136482823Y-132176511D01*
X135976511Y-132682823D01*
X135578705Y-133278182D01*
X135304691Y-133939710D01*
X135165000Y-134641984D01*
X115736384Y-134641984D01*
X115736384Y-128592738D01*
X118112232Y-128592738D01*
X118112232Y-129407262D01*
X118271138Y-130206135D01*
X118582843Y-130958657D01*
X119035368Y-131635909D01*
X119611323Y-132211864D01*
X120288575Y-132664389D01*
X121041097Y-132976094D01*
X121839970Y-133135000D01*
X122654494Y-133135000D01*
X123453367Y-132976094D01*
X124205889Y-132664389D01*
X124883141Y-132211864D01*
X125459096Y-131635909D01*
X125911621Y-130958657D01*
X126223326Y-130206135D01*
X126382232Y-129407262D01*
X126382232Y-128592738D01*
X126223326Y-127793865D01*
X125911621Y-127041343D01*
X125459096Y-126364091D01*
X124883141Y-125788136D01*
X124205889Y-125335611D01*
X123453367Y-125023906D01*
X122654494Y-124865000D01*
X121839970Y-124865000D01*
X121041097Y-125023906D01*
X120288575Y-125335611D01*
X119611323Y-125788136D01*
X119035368Y-126364091D01*
X118582843Y-127041343D01*
X118271138Y-127793865D01*
X118112232Y-128592738D01*
X115736384Y-128592738D01*
X115736384Y-122641984D01*
X135165000Y-122641984D01*
X135165000Y-123358016D01*
X135304691Y-124060290D01*
X135578705Y-124721818D01*
X135976511Y-125317177D01*
X136482823Y-125823489D01*
X137078182Y-126221295D01*
X137739710Y-126495309D01*
X138441984Y-126635000D01*
X139158016Y-126635000D01*
X139860290Y-126495309D01*
X140521818Y-126221295D01*
X141117177Y-125823489D01*
X141623489Y-125317177D01*
X142021295Y-124721818D01*
X142295309Y-124060290D01*
X142435000Y-123358016D01*
X142435000Y-122641984D01*
X142295309Y-121939710D01*
X142021295Y-121278182D01*
X141623489Y-120682823D01*
X141117177Y-120176511D01*
X140521818Y-119778705D01*
X139860290Y-119504691D01*
X139158016Y-119365000D01*
X138441984Y-119365000D01*
X137739710Y-119504691D01*
X137078182Y-119778705D01*
X136482823Y-120176511D01*
X135976511Y-120682823D01*
X135578705Y-121278182D01*
X135304691Y-121939710D01*
X135165000Y-122641984D01*
X115736384Y-122641984D01*
X115736384Y-108641984D01*
X135165000Y-108641984D01*
X135165000Y-109358016D01*
X135304691Y-110060290D01*
X135578705Y-110721818D01*
X135976511Y-111317177D01*
X136482823Y-111823489D01*
X137078182Y-112221295D01*
X137739710Y-112495309D01*
X138441984Y-112635000D01*
X139158016Y-112635000D01*
X139860290Y-112495309D01*
X140521818Y-112221295D01*
X141117177Y-111823489D01*
X141623489Y-111317177D01*
X142021295Y-110721818D01*
X142295309Y-110060290D01*
X142435000Y-109358016D01*
X142435000Y-108641984D01*
X142295309Y-107939710D01*
X142021295Y-107278182D01*
X141623489Y-106682823D01*
X141117177Y-106176511D01*
X140521818Y-105778705D01*
X139860290Y-105504691D01*
X139158016Y-105365000D01*
X138441984Y-105365000D01*
X137739710Y-105504691D01*
X137078182Y-105778705D01*
X136482823Y-106176511D01*
X135976511Y-106682823D01*
X135578705Y-107278182D01*
X135304691Y-107939710D01*
X135165000Y-108641984D01*
X115736384Y-108641984D01*
X115736384Y-102592738D01*
X118112232Y-102592738D01*
X118112232Y-103407262D01*
X118271138Y-104206135D01*
X118582843Y-104958657D01*
X119035368Y-105635909D01*
X119611323Y-106211864D01*
X120288575Y-106664389D01*
X121041097Y-106976094D01*
X121839970Y-107135000D01*
X122654494Y-107135000D01*
X123453367Y-106976094D01*
X124205889Y-106664389D01*
X124883141Y-106211864D01*
X125459096Y-105635909D01*
X125911621Y-104958657D01*
X126223326Y-104206135D01*
X126382232Y-103407262D01*
X126382232Y-102592738D01*
X126223326Y-101793865D01*
X125911621Y-101041343D01*
X125459096Y-100364091D01*
X124883141Y-99788136D01*
X124205889Y-99335611D01*
X123453367Y-99023906D01*
X122654494Y-98865000D01*
X121839970Y-98865000D01*
X121041097Y-99023906D01*
X120288575Y-99335611D01*
X119611323Y-99788136D01*
X119035368Y-100364091D01*
X118582843Y-101041343D01*
X118271138Y-101793865D01*
X118112232Y-102592738D01*
X115736384Y-102592738D01*
X115736384Y-96641984D01*
X135165000Y-96641984D01*
X135165000Y-97358016D01*
X135304691Y-98060290D01*
X135578705Y-98721818D01*
X135976511Y-99317177D01*
X136482823Y-99823489D01*
X137078182Y-100221295D01*
X137739710Y-100495309D01*
X138441984Y-100635000D01*
X139158016Y-100635000D01*
X139860290Y-100495309D01*
X140521818Y-100221295D01*
X141117177Y-99823489D01*
X141623489Y-99317177D01*
X142021295Y-98721818D01*
X142295309Y-98060290D01*
X142435000Y-97358016D01*
X142435000Y-96641984D01*
X142295309Y-95939710D01*
X142021295Y-95278182D01*
X141623489Y-94682823D01*
X141117177Y-94176511D01*
X140521818Y-93778705D01*
X139860290Y-93504691D01*
X139158016Y-93365000D01*
X138441984Y-93365000D01*
X137739710Y-93504691D01*
X137078182Y-93778705D01*
X136482823Y-94176511D01*
X135976511Y-94682823D01*
X135578705Y-95278182D01*
X135304691Y-95939710D01*
X135165000Y-96641984D01*
X115736384Y-96641984D01*
X115736384Y-82641984D01*
X135165000Y-82641984D01*
X135165000Y-83358016D01*
X135304691Y-84060290D01*
X135578705Y-84721818D01*
X135976511Y-85317177D01*
X136482823Y-85823489D01*
X137078182Y-86221295D01*
X137739710Y-86495309D01*
X138441984Y-86635000D01*
X139158016Y-86635000D01*
X139860290Y-86495309D01*
X140521818Y-86221295D01*
X141117177Y-85823489D01*
X141623489Y-85317177D01*
X142021295Y-84721818D01*
X142295309Y-84060290D01*
X142435000Y-83358016D01*
X142435000Y-82641984D01*
X142295309Y-81939710D01*
X142021295Y-81278182D01*
X141623489Y-80682823D01*
X141117177Y-80176511D01*
X140521818Y-79778705D01*
X139860290Y-79504691D01*
X139158016Y-79365000D01*
X138441984Y-79365000D01*
X137739710Y-79504691D01*
X137078182Y-79778705D01*
X136482823Y-80176511D01*
X135976511Y-80682823D01*
X135578705Y-81278182D01*
X135304691Y-81939710D01*
X135165000Y-82641984D01*
X115736384Y-82641984D01*
X115736384Y-76592738D01*
X118112232Y-76592738D01*
X118112232Y-77407262D01*
X118271138Y-78206135D01*
X118582843Y-78958657D01*
X119035368Y-79635909D01*
X119611323Y-80211864D01*
X120288575Y-80664389D01*
X121041097Y-80976094D01*
X121839970Y-81135000D01*
X122654494Y-81135000D01*
X123453367Y-80976094D01*
X124205889Y-80664389D01*
X124883141Y-80211864D01*
X125459096Y-79635909D01*
X125911621Y-78958657D01*
X126223326Y-78206135D01*
X126382232Y-77407262D01*
X126382232Y-76592738D01*
X126223326Y-75793865D01*
X125911621Y-75041343D01*
X125459096Y-74364091D01*
X124883141Y-73788136D01*
X124205889Y-73335611D01*
X123453367Y-73023906D01*
X122654494Y-72865000D01*
X121839970Y-72865000D01*
X121041097Y-73023906D01*
X120288575Y-73335611D01*
X119611323Y-73788136D01*
X119035368Y-74364091D01*
X118582843Y-75041343D01*
X118271138Y-75793865D01*
X118112232Y-76592738D01*
X115736384Y-76592738D01*
X115736384Y-70641984D01*
X135165000Y-70641984D01*
X135165000Y-71358016D01*
X135304691Y-72060290D01*
X135578705Y-72721818D01*
X135976511Y-73317177D01*
X136482823Y-73823489D01*
X137078182Y-74221295D01*
X137739710Y-74495309D01*
X138441984Y-74635000D01*
X139158016Y-74635000D01*
X139860290Y-74495309D01*
X140521818Y-74221295D01*
X141117177Y-73823489D01*
X141623489Y-73317177D01*
X142021295Y-72721818D01*
X142295309Y-72060290D01*
X142435000Y-71358016D01*
X142435000Y-70641984D01*
X142295309Y-69939710D01*
X142021295Y-69278182D01*
X141623489Y-68682823D01*
X141117177Y-68176511D01*
X140521818Y-67778705D01*
X139860290Y-67504691D01*
X139158016Y-67365000D01*
X138441984Y-67365000D01*
X137739710Y-67504691D01*
X137078182Y-67778705D01*
X136482823Y-68176511D01*
X135976511Y-68682823D01*
X135578705Y-69278182D01*
X135304691Y-69939710D01*
X135165000Y-70641984D01*
X115736384Y-70641984D01*
X115736384Y-56641984D01*
X135165000Y-56641984D01*
X135165000Y-57358016D01*
X135304691Y-58060290D01*
X135578705Y-58721818D01*
X135976511Y-59317177D01*
X136482823Y-59823489D01*
X137078182Y-60221295D01*
X137739710Y-60495309D01*
X138441984Y-60635000D01*
X139158016Y-60635000D01*
X139860290Y-60495309D01*
X140521818Y-60221295D01*
X141117177Y-59823489D01*
X141623489Y-59317177D01*
X142021295Y-58721818D01*
X142295309Y-58060290D01*
X142435000Y-57358016D01*
X142435000Y-56641984D01*
X142295309Y-55939710D01*
X142021295Y-55278182D01*
X141623489Y-54682823D01*
X141117177Y-54176511D01*
X140521818Y-53778705D01*
X139860290Y-53504691D01*
X139158016Y-53365000D01*
X138441984Y-53365000D01*
X137739710Y-53504691D01*
X137078182Y-53778705D01*
X136482823Y-54176511D01*
X135976511Y-54682823D01*
X135578705Y-55278182D01*
X135304691Y-55939710D01*
X135165000Y-56641984D01*
X115736384Y-56641984D01*
X115736384Y-50592738D01*
X118113616Y-50592738D01*
X118113616Y-51407262D01*
X118272522Y-52206135D01*
X118584227Y-52958657D01*
X119036752Y-53635909D01*
X119612707Y-54211864D01*
X120289959Y-54664389D01*
X121042481Y-54976094D01*
X121841354Y-55135000D01*
X122655878Y-55135000D01*
X123454751Y-54976094D01*
X124207273Y-54664389D01*
X124884525Y-54211864D01*
X125460480Y-53635909D01*
X125913005Y-52958657D01*
X126224710Y-52206135D01*
X126383616Y-51407262D01*
X126383616Y-50592738D01*
X126224710Y-49793865D01*
X125913005Y-49041343D01*
X125460480Y-48364091D01*
X124884525Y-47788136D01*
X124207273Y-47335611D01*
X123454751Y-47023906D01*
X122655878Y-46865000D01*
X121841354Y-46865000D01*
X121042481Y-47023906D01*
X120289959Y-47335611D01*
X119612707Y-47788136D01*
X119036752Y-48364091D01*
X118584227Y-49041343D01*
X118272522Y-49793865D01*
X118113616Y-50592738D01*
X115736384Y-50592738D01*
X115736384Y-44641984D01*
X135163616Y-44641984D01*
X135163616Y-45358016D01*
X135303307Y-46060290D01*
X135577321Y-46721818D01*
X135975127Y-47317177D01*
X136481439Y-47823489D01*
X137076798Y-48221295D01*
X137738326Y-48495309D01*
X138440600Y-48635000D01*
X139156632Y-48635000D01*
X139858906Y-48495309D01*
X140520434Y-48221295D01*
X141115793Y-47823489D01*
X141622105Y-47317177D01*
X142019911Y-46721818D01*
X142293925Y-46060290D01*
X142433616Y-45358016D01*
X142433616Y-44641984D01*
X142293925Y-43939710D01*
X142019911Y-43278182D01*
X141622105Y-42682823D01*
X141115793Y-42176511D01*
X140520434Y-41778705D01*
X139858906Y-41504691D01*
X139156632Y-41365000D01*
X138440600Y-41365000D01*
X137738326Y-41504691D01*
X137076798Y-41778705D01*
X136481439Y-42176511D01*
X135975127Y-42682823D01*
X135577321Y-43278182D01*
X135303307Y-43939710D01*
X135163616Y-44641984D01*
X115736384Y-44641984D01*
X115736384Y-28529872D01*
X120265000Y-28529872D01*
X120265000Y-28970128D01*
X120350890Y-29401925D01*
X120519369Y-29808669D01*
X120763962Y-30174729D01*
X121075271Y-30486038D01*
X121441331Y-30730631D01*
X121848075Y-30899110D01*
X122279872Y-30985000D01*
X122720128Y-30985000D01*
X123151925Y-30899110D01*
X123558669Y-30730631D01*
X123924729Y-30486038D01*
X124236038Y-30174729D01*
X124480631Y-29808669D01*
X124649110Y-29401925D01*
X124735000Y-28970128D01*
X124735000Y-28529872D01*
X135513616Y-28529872D01*
X135513616Y-28970128D01*
X135599506Y-29401925D01*
X135767985Y-29808669D01*
X136012578Y-30174729D01*
X136323887Y-30486038D01*
X136689947Y-30730631D01*
X137096691Y-30899110D01*
X137528488Y-30985000D01*
X137968744Y-30985000D01*
X138400541Y-30899110D01*
X138807285Y-30730631D01*
X139173345Y-30486038D01*
X139484654Y-30174729D01*
X139729247Y-29808669D01*
X139897726Y-29401925D01*
X139983616Y-28970128D01*
X139983616Y-28529872D01*
X139897726Y-28098075D01*
X139729247Y-27691331D01*
X139484654Y-27325271D01*
X139173345Y-27013962D01*
X138807285Y-26769369D01*
X138400541Y-26600890D01*
X137968744Y-26515000D01*
X137528488Y-26515000D01*
X137096691Y-26600890D01*
X136689947Y-26769369D01*
X136323887Y-27013962D01*
X136012578Y-27325271D01*
X135767985Y-27691331D01*
X135599506Y-28098075D01*
X135513616Y-28529872D01*
X124735000Y-28529872D01*
X124649110Y-28098075D01*
X124480631Y-27691331D01*
X124236038Y-27325271D01*
X123924729Y-27013962D01*
X123558669Y-26769369D01*
X123151925Y-26600890D01*
X122720128Y-26515000D01*
X122279872Y-26515000D01*
X121848075Y-26600890D01*
X121441331Y-26769369D01*
X121075271Y-27013962D01*
X120763962Y-27325271D01*
X120519369Y-27691331D01*
X120350890Y-28098075D01*
X120265000Y-28529872D01*
X115736384Y-28529872D01*
X115736384Y-26485000D01*
X144266385Y-26485000D01*
X144266384Y-153515000D01*
M02*
