G04 #@! TF.GenerationSoftware,KiCad,Pcbnew,10.0.6*
G04 #@! TF.CreationDate,2026-10-07T16:45:18-07:00*
G04 #@! TF.ProjectId,Attenuverter,41747465-6e75-4766-9572-7465722e6b69,1.1*
G04 #@! TF.SameCoordinates,Original*
G04 #@! TF.FileFunction,Soldermask,Top*
G04 #@! TF.FilePolarity,Negative*
%FSLAX46Y46*%
G04 Gerber Fmt 4.6, Leading zero omitted, Abs format (unit mm)*
G04 Created by KiCad (PCBNEW 10.0.6) date 2026-10-07 16:45:18*
%MOMM*%
%LPD*%
G01*
G04 APERTURE LIST*
G04 APERTURE END LIST*
G36*
X104832553Y-145553579D02*
G01*
X104843214Y-145553579D01*
X104884865Y-145561864D01*
X104971916Y-145575651D01*
X104999918Y-145584749D01*
X105026061Y-145589950D01*
X105062956Y-145605232D01*
X105113784Y-145621748D01*
X105161399Y-145646009D01*
X105198298Y-145661293D01*
X105220463Y-145676103D01*
X105246693Y-145689468D01*
X105317990Y-145741268D01*
X105353308Y-145764867D01*
X105360846Y-145772405D01*
X105367370Y-145777145D01*
X105472854Y-145882629D01*
X105477593Y-145889152D01*
X105485133Y-145896692D01*
X105508734Y-145932014D01*
X105560531Y-146003306D01*
X105573894Y-146029533D01*
X105588707Y-146051702D01*
X105603993Y-146088605D01*
X105628251Y-146136215D01*
X105644764Y-146187035D01*
X105660050Y-146223939D01*
X105665251Y-146250086D01*
X105674348Y-146278083D01*
X105688134Y-146365125D01*
X105696421Y-146406786D01*
X105696421Y-146417447D01*
X105697683Y-146425415D01*
X105697683Y-146574584D01*
X105696421Y-146582551D01*
X105696421Y-146593214D01*
X105688133Y-146634877D01*
X105674348Y-146721916D01*
X105665251Y-146749910D01*
X105660050Y-146776061D01*
X105644762Y-146812968D01*
X105628251Y-146863784D01*
X105603995Y-146911388D01*
X105588707Y-146948298D01*
X105573892Y-146970470D01*
X105560531Y-146996693D01*
X105508742Y-147067973D01*
X105485133Y-147103308D01*
X105477591Y-147110849D01*
X105472854Y-147117370D01*
X105367370Y-147222854D01*
X105360849Y-147227591D01*
X105353308Y-147235133D01*
X105317973Y-147258742D01*
X105246693Y-147310531D01*
X105220470Y-147323892D01*
X105198298Y-147338707D01*
X105161388Y-147353995D01*
X105113784Y-147378251D01*
X105062968Y-147394762D01*
X105026061Y-147410050D01*
X104999910Y-147415251D01*
X104971916Y-147424348D01*
X104884875Y-147438133D01*
X104843214Y-147446421D01*
X104832553Y-147446421D01*
X104824585Y-147447683D01*
X104675415Y-147447683D01*
X104667447Y-147446421D01*
X104656786Y-147446421D01*
X104615125Y-147438134D01*
X104528083Y-147424348D01*
X104500086Y-147415251D01*
X104473939Y-147410050D01*
X104437035Y-147394764D01*
X104386215Y-147378251D01*
X104338605Y-147353993D01*
X104301702Y-147338707D01*
X104279533Y-147323894D01*
X104253306Y-147310531D01*
X104182014Y-147258734D01*
X104146692Y-147235133D01*
X104139152Y-147227593D01*
X104132629Y-147222854D01*
X104027145Y-147117370D01*
X104022405Y-147110846D01*
X104014867Y-147103308D01*
X103991268Y-147067990D01*
X103939468Y-146996693D01*
X103926103Y-146970463D01*
X103911293Y-146948298D01*
X103896009Y-146911399D01*
X103871748Y-146863784D01*
X103855232Y-146812956D01*
X103839950Y-146776061D01*
X103834749Y-146749918D01*
X103825651Y-146721916D01*
X103811864Y-146634867D01*
X103803579Y-146593214D01*
X103803579Y-146582552D01*
X103802317Y-146574584D01*
X103802317Y-146425415D01*
X103803579Y-146417446D01*
X103803579Y-146406786D01*
X103811863Y-146365136D01*
X103825651Y-146278083D01*
X103834750Y-146250078D01*
X103839950Y-146223939D01*
X103855231Y-146187046D01*
X103871748Y-146136215D01*
X103896011Y-146088595D01*
X103911293Y-146051702D01*
X103926101Y-146029539D01*
X103939468Y-146003306D01*
X103991277Y-145931996D01*
X104014867Y-145896692D01*
X104022402Y-145889156D01*
X104027145Y-145882629D01*
X104132629Y-145777145D01*
X104139156Y-145772402D01*
X104146692Y-145764867D01*
X104181996Y-145741277D01*
X104253306Y-145689468D01*
X104279539Y-145676101D01*
X104301702Y-145661293D01*
X104338595Y-145646011D01*
X104386215Y-145621748D01*
X104437046Y-145605231D01*
X104473939Y-145589950D01*
X104500078Y-145584750D01*
X104528083Y-145575651D01*
X104615136Y-145561863D01*
X104656786Y-145553579D01*
X104667447Y-145553579D01*
X104675415Y-145552317D01*
X104824585Y-145552317D01*
X104832553Y-145553579D01*
G37*
G36*
X107332553Y-145553579D02*
G01*
X107343214Y-145553579D01*
X107384865Y-145561864D01*
X107471916Y-145575651D01*
X107499918Y-145584749D01*
X107526061Y-145589950D01*
X107562956Y-145605232D01*
X107613784Y-145621748D01*
X107661399Y-145646009D01*
X107698298Y-145661293D01*
X107720463Y-145676103D01*
X107746693Y-145689468D01*
X107817990Y-145741268D01*
X107853308Y-145764867D01*
X107860846Y-145772405D01*
X107867370Y-145777145D01*
X107972854Y-145882629D01*
X107977593Y-145889152D01*
X107985133Y-145896692D01*
X108008734Y-145932014D01*
X108060531Y-146003306D01*
X108073894Y-146029533D01*
X108088707Y-146051702D01*
X108103993Y-146088605D01*
X108128251Y-146136215D01*
X108144764Y-146187035D01*
X108160050Y-146223939D01*
X108165251Y-146250086D01*
X108174348Y-146278083D01*
X108188134Y-146365125D01*
X108196421Y-146406786D01*
X108196421Y-146417447D01*
X108197683Y-146425415D01*
X108197683Y-146574584D01*
X108196421Y-146582551D01*
X108196421Y-146593214D01*
X108188133Y-146634877D01*
X108174348Y-146721916D01*
X108165251Y-146749910D01*
X108160050Y-146776061D01*
X108144762Y-146812968D01*
X108128251Y-146863784D01*
X108103995Y-146911388D01*
X108088707Y-146948298D01*
X108073892Y-146970470D01*
X108060531Y-146996693D01*
X108008742Y-147067973D01*
X107985133Y-147103308D01*
X107977591Y-147110849D01*
X107972854Y-147117370D01*
X107867370Y-147222854D01*
X107860849Y-147227591D01*
X107853308Y-147235133D01*
X107817973Y-147258742D01*
X107746693Y-147310531D01*
X107720470Y-147323892D01*
X107698298Y-147338707D01*
X107661388Y-147353995D01*
X107613784Y-147378251D01*
X107562968Y-147394762D01*
X107526061Y-147410050D01*
X107499910Y-147415251D01*
X107471916Y-147424348D01*
X107384875Y-147438133D01*
X107343214Y-147446421D01*
X107332553Y-147446421D01*
X107324585Y-147447683D01*
X107175415Y-147447683D01*
X107167447Y-147446421D01*
X107156786Y-147446421D01*
X107115125Y-147438134D01*
X107028083Y-147424348D01*
X107000086Y-147415251D01*
X106973939Y-147410050D01*
X106937035Y-147394764D01*
X106886215Y-147378251D01*
X106838605Y-147353993D01*
X106801702Y-147338707D01*
X106779533Y-147323894D01*
X106753306Y-147310531D01*
X106682014Y-147258734D01*
X106646692Y-147235133D01*
X106639152Y-147227593D01*
X106632629Y-147222854D01*
X106527145Y-147117370D01*
X106522405Y-147110846D01*
X106514867Y-147103308D01*
X106491268Y-147067990D01*
X106439468Y-146996693D01*
X106426103Y-146970463D01*
X106411293Y-146948298D01*
X106396009Y-146911399D01*
X106371748Y-146863784D01*
X106355232Y-146812956D01*
X106339950Y-146776061D01*
X106334749Y-146749918D01*
X106325651Y-146721916D01*
X106311864Y-146634867D01*
X106303579Y-146593214D01*
X106303579Y-146582552D01*
X106302317Y-146574584D01*
X106302317Y-146425415D01*
X106303579Y-146417446D01*
X106303579Y-146406786D01*
X106311863Y-146365136D01*
X106325651Y-146278083D01*
X106334750Y-146250078D01*
X106339950Y-146223939D01*
X106355231Y-146187046D01*
X106371748Y-146136215D01*
X106396011Y-146088595D01*
X106411293Y-146051702D01*
X106426101Y-146029539D01*
X106439468Y-146003306D01*
X106491277Y-145931996D01*
X106514867Y-145896692D01*
X106522402Y-145889156D01*
X106527145Y-145882629D01*
X106632629Y-145777145D01*
X106639156Y-145772402D01*
X106646692Y-145764867D01*
X106681996Y-145741277D01*
X106753306Y-145689468D01*
X106779539Y-145676101D01*
X106801702Y-145661293D01*
X106838595Y-145646011D01*
X106886215Y-145621748D01*
X106937046Y-145605231D01*
X106973939Y-145589950D01*
X107000078Y-145584750D01*
X107028083Y-145575651D01*
X107115136Y-145561863D01*
X107156786Y-145553579D01*
X107167447Y-145553579D01*
X107175415Y-145552317D01*
X107324585Y-145552317D01*
X107332553Y-145553579D01*
G37*
G36*
X109832553Y-145553579D02*
G01*
X109843214Y-145553579D01*
X109884865Y-145561864D01*
X109971916Y-145575651D01*
X109999918Y-145584749D01*
X110026061Y-145589950D01*
X110062956Y-145605232D01*
X110113784Y-145621748D01*
X110161399Y-145646009D01*
X110198298Y-145661293D01*
X110220463Y-145676103D01*
X110246693Y-145689468D01*
X110317990Y-145741268D01*
X110353308Y-145764867D01*
X110360846Y-145772405D01*
X110367370Y-145777145D01*
X110472854Y-145882629D01*
X110477593Y-145889152D01*
X110485133Y-145896692D01*
X110508734Y-145932014D01*
X110560531Y-146003306D01*
X110573894Y-146029533D01*
X110588707Y-146051702D01*
X110603993Y-146088605D01*
X110628251Y-146136215D01*
X110644764Y-146187035D01*
X110660050Y-146223939D01*
X110665251Y-146250086D01*
X110674348Y-146278083D01*
X110688134Y-146365125D01*
X110696421Y-146406786D01*
X110696421Y-146417447D01*
X110697683Y-146425415D01*
X110697683Y-146574584D01*
X110696421Y-146582551D01*
X110696421Y-146593214D01*
X110688133Y-146634877D01*
X110674348Y-146721916D01*
X110665251Y-146749910D01*
X110660050Y-146776061D01*
X110644762Y-146812968D01*
X110628251Y-146863784D01*
X110603995Y-146911388D01*
X110588707Y-146948298D01*
X110573892Y-146970470D01*
X110560531Y-146996693D01*
X110508742Y-147067973D01*
X110485133Y-147103308D01*
X110477591Y-147110849D01*
X110472854Y-147117370D01*
X110367370Y-147222854D01*
X110360849Y-147227591D01*
X110353308Y-147235133D01*
X110317973Y-147258742D01*
X110246693Y-147310531D01*
X110220470Y-147323892D01*
X110198298Y-147338707D01*
X110161388Y-147353995D01*
X110113784Y-147378251D01*
X110062968Y-147394762D01*
X110026061Y-147410050D01*
X109999910Y-147415251D01*
X109971916Y-147424348D01*
X109884875Y-147438133D01*
X109843214Y-147446421D01*
X109832553Y-147446421D01*
X109824585Y-147447683D01*
X109675415Y-147447683D01*
X109667447Y-147446421D01*
X109656786Y-147446421D01*
X109615125Y-147438134D01*
X109528083Y-147424348D01*
X109500086Y-147415251D01*
X109473939Y-147410050D01*
X109437035Y-147394764D01*
X109386215Y-147378251D01*
X109338605Y-147353993D01*
X109301702Y-147338707D01*
X109279533Y-147323894D01*
X109253306Y-147310531D01*
X109182014Y-147258734D01*
X109146692Y-147235133D01*
X109139152Y-147227593D01*
X109132629Y-147222854D01*
X109027145Y-147117370D01*
X109022405Y-147110846D01*
X109014867Y-147103308D01*
X108991268Y-147067990D01*
X108939468Y-146996693D01*
X108926103Y-146970463D01*
X108911293Y-146948298D01*
X108896009Y-146911399D01*
X108871748Y-146863784D01*
X108855232Y-146812956D01*
X108839950Y-146776061D01*
X108834749Y-146749918D01*
X108825651Y-146721916D01*
X108811864Y-146634867D01*
X108803579Y-146593214D01*
X108803579Y-146582552D01*
X108802317Y-146574584D01*
X108802317Y-146425415D01*
X108803579Y-146417446D01*
X108803579Y-146406786D01*
X108811863Y-146365136D01*
X108825651Y-146278083D01*
X108834750Y-146250078D01*
X108839950Y-146223939D01*
X108855231Y-146187046D01*
X108871748Y-146136215D01*
X108896011Y-146088595D01*
X108911293Y-146051702D01*
X108926101Y-146029539D01*
X108939468Y-146003306D01*
X108991277Y-145931996D01*
X109014867Y-145896692D01*
X109022402Y-145889156D01*
X109027145Y-145882629D01*
X109132629Y-145777145D01*
X109139156Y-145772402D01*
X109146692Y-145764867D01*
X109181996Y-145741277D01*
X109253306Y-145689468D01*
X109279539Y-145676101D01*
X109301702Y-145661293D01*
X109338595Y-145646011D01*
X109386215Y-145621748D01*
X109437046Y-145605231D01*
X109473939Y-145589950D01*
X109500078Y-145584750D01*
X109528083Y-145575651D01*
X109615136Y-145561863D01*
X109656786Y-145553579D01*
X109667447Y-145553579D01*
X109675415Y-145552317D01*
X109824585Y-145552317D01*
X109832553Y-145553579D01*
G37*
G36*
X120654345Y-143333491D02*
G01*
X120799416Y-143393581D01*
X120929976Y-143480819D01*
X121041008Y-143591851D01*
X121128246Y-143722411D01*
X121188336Y-143867482D01*
X121218970Y-144021488D01*
X121222827Y-144100000D01*
X121222827Y-145900000D01*
X121218970Y-145978512D01*
X121188336Y-146132518D01*
X121128246Y-146277589D01*
X121041008Y-146408149D01*
X120929976Y-146519181D01*
X120799416Y-146606419D01*
X120654345Y-146666509D01*
X120500339Y-146697143D01*
X120343315Y-146697143D01*
X120189309Y-146666509D01*
X120044238Y-146606419D01*
X119913678Y-146519181D01*
X119802646Y-146408149D01*
X119715408Y-146277589D01*
X119655318Y-146132518D01*
X119624684Y-145978512D01*
X119620827Y-145900000D01*
X119620827Y-144100000D01*
X119624684Y-144021488D01*
X119655318Y-143867482D01*
X119715408Y-143722411D01*
X119802646Y-143591851D01*
X119913678Y-143480819D01*
X120044238Y-143393581D01*
X120189309Y-143333491D01*
X120343315Y-143302857D01*
X120500339Y-143302857D01*
X120654345Y-143333491D01*
G37*
G36*
X128954345Y-143333491D02*
G01*
X129099416Y-143393581D01*
X129229976Y-143480819D01*
X129341008Y-143591851D01*
X129428246Y-143722411D01*
X129488336Y-143867482D01*
X129518970Y-144021488D01*
X129522827Y-144100000D01*
X129522827Y-145900000D01*
X129518970Y-145978512D01*
X129488336Y-146132518D01*
X129428246Y-146277589D01*
X129341008Y-146408149D01*
X129229976Y-146519181D01*
X129099416Y-146606419D01*
X128954345Y-146666509D01*
X128800339Y-146697143D01*
X128643315Y-146697143D01*
X128489309Y-146666509D01*
X128344238Y-146606419D01*
X128213678Y-146519181D01*
X128102646Y-146408149D01*
X128015408Y-146277589D01*
X127955318Y-146132518D01*
X127924684Y-145978512D01*
X127920827Y-145900000D01*
X127920827Y-144100000D01*
X127924684Y-144021488D01*
X127955318Y-143867482D01*
X128015408Y-143722411D01*
X128102646Y-143591851D01*
X128213678Y-143480819D01*
X128344238Y-143393581D01*
X128489309Y-143333491D01*
X128643315Y-143302857D01*
X128800339Y-143302857D01*
X128954345Y-143333491D01*
G37*
G36*
X123909309Y-143453781D02*
G01*
X123920517Y-143453781D01*
X123975715Y-143462523D01*
X124101361Y-143479065D01*
X124132016Y-143487279D01*
X124160901Y-143491854D01*
X124216447Y-143509902D01*
X124297294Y-143531565D01*
X124348877Y-143552931D01*
X124392369Y-143567063D01*
X124433113Y-143587823D01*
X124484697Y-143609190D01*
X124557180Y-143651038D01*
X124609222Y-143677555D01*
X124632882Y-143694745D01*
X124660366Y-143710613D01*
X124760901Y-143787756D01*
X124806121Y-143820610D01*
X124814046Y-143828535D01*
X124821293Y-143834096D01*
X124964730Y-143977533D01*
X124970290Y-143984779D01*
X124978217Y-143992706D01*
X125011074Y-144037930D01*
X125088213Y-144138460D01*
X125104079Y-144165941D01*
X125121272Y-144189605D01*
X125147791Y-144241652D01*
X125189636Y-144314129D01*
X125211000Y-144365706D01*
X125231764Y-144406458D01*
X125245897Y-144449955D01*
X125267261Y-144501532D01*
X125288920Y-144582366D01*
X125306973Y-144637926D01*
X125311548Y-144666816D01*
X125319761Y-144697465D01*
X125336301Y-144823099D01*
X125345046Y-144878310D01*
X125345046Y-144889518D01*
X125346239Y-144898580D01*
X125346239Y-145101419D01*
X125345046Y-145110480D01*
X125345046Y-145121690D01*
X125336300Y-145176905D01*
X125319761Y-145302534D01*
X125311549Y-145333180D01*
X125306973Y-145362074D01*
X125288918Y-145417638D01*
X125267261Y-145498467D01*
X125245898Y-145550039D01*
X125231764Y-145593542D01*
X125210998Y-145634297D01*
X125189636Y-145685870D01*
X125147795Y-145758338D01*
X125121272Y-145810395D01*
X125104076Y-145834062D01*
X125088213Y-145861539D01*
X125011088Y-145962050D01*
X124978217Y-146007294D01*
X124970286Y-146015224D01*
X124964730Y-146022466D01*
X124821293Y-146165903D01*
X124814051Y-146171459D01*
X124806121Y-146179390D01*
X124760877Y-146212261D01*
X124660366Y-146289386D01*
X124632889Y-146305249D01*
X124609222Y-146322445D01*
X124557165Y-146348968D01*
X124484697Y-146390809D01*
X124433124Y-146412171D01*
X124392369Y-146432937D01*
X124348866Y-146447071D01*
X124297294Y-146468434D01*
X124216465Y-146490091D01*
X124160901Y-146508146D01*
X124132007Y-146512722D01*
X124101361Y-146520934D01*
X123975729Y-146537474D01*
X123920517Y-146546219D01*
X123909308Y-146546219D01*
X123900247Y-146547412D01*
X123697407Y-146547412D01*
X123688346Y-146546219D01*
X123677137Y-146546219D01*
X123621926Y-146537474D01*
X123496292Y-146520934D01*
X123465643Y-146512721D01*
X123436753Y-146508146D01*
X123381193Y-146490093D01*
X123300359Y-146468434D01*
X123248782Y-146447070D01*
X123205285Y-146432937D01*
X123164533Y-146412173D01*
X123112956Y-146390809D01*
X123040479Y-146348964D01*
X122988432Y-146322445D01*
X122964768Y-146305252D01*
X122937287Y-146289386D01*
X122836757Y-146212247D01*
X122791533Y-146179390D01*
X122783606Y-146171463D01*
X122776360Y-146165903D01*
X122632923Y-146022466D01*
X122627362Y-146015219D01*
X122619437Y-146007294D01*
X122586583Y-145962074D01*
X122509440Y-145861539D01*
X122493572Y-145834055D01*
X122476382Y-145810395D01*
X122449865Y-145758353D01*
X122408017Y-145685870D01*
X122386650Y-145634286D01*
X122365890Y-145593542D01*
X122351758Y-145550050D01*
X122330392Y-145498467D01*
X122308729Y-145417620D01*
X122290681Y-145362074D01*
X122286106Y-145333189D01*
X122277892Y-145302534D01*
X122261351Y-145176891D01*
X122252608Y-145121690D01*
X122252608Y-145110480D01*
X122251415Y-145101419D01*
X122251415Y-144898580D01*
X122252608Y-144889518D01*
X122252608Y-144878310D01*
X122261350Y-144823113D01*
X122277892Y-144697465D01*
X122286106Y-144666807D01*
X122290681Y-144637926D01*
X122308727Y-144582383D01*
X122330392Y-144501532D01*
X122351760Y-144449944D01*
X122365890Y-144406458D01*
X122386648Y-144365717D01*
X122408017Y-144314129D01*
X122449869Y-144241637D01*
X122476382Y-144189605D01*
X122493569Y-144165948D01*
X122509440Y-144138460D01*
X122586597Y-144037906D01*
X122619437Y-143992706D01*
X122627359Y-143984783D01*
X122632923Y-143977533D01*
X122776360Y-143834096D01*
X122783610Y-143828532D01*
X122791533Y-143820610D01*
X122836733Y-143787770D01*
X122937287Y-143710613D01*
X122964775Y-143694742D01*
X122988432Y-143677555D01*
X123040464Y-143651042D01*
X123112956Y-143609190D01*
X123164544Y-143587821D01*
X123205285Y-143567063D01*
X123248771Y-143552933D01*
X123300359Y-143531565D01*
X123381210Y-143509900D01*
X123436753Y-143491854D01*
X123465634Y-143487279D01*
X123496292Y-143479065D01*
X123621940Y-143462523D01*
X123677137Y-143453781D01*
X123688345Y-143453781D01*
X123697407Y-143452588D01*
X123900247Y-143452588D01*
X123909309Y-143453781D01*
G37*
G36*
X118256344Y-143987882D02*
G01*
X118272889Y-143998938D01*
X118283945Y-144015483D01*
X118287827Y-144035000D01*
X118287827Y-145965000D01*
X118283945Y-145984517D01*
X118272889Y-146001062D01*
X118256344Y-146012118D01*
X118236827Y-146016000D01*
X116406827Y-146016000D01*
X116387310Y-146012118D01*
X116370765Y-146001062D01*
X116359709Y-145984517D01*
X116355827Y-145965000D01*
X116355827Y-144035000D01*
X116359709Y-144015483D01*
X116370765Y-143998938D01*
X116387310Y-143987882D01*
X116406827Y-143984000D01*
X118236827Y-143984000D01*
X118256344Y-143987882D01*
G37*
G36*
X102900130Y-136988409D02*
G01*
X103159272Y-137057846D01*
X103407134Y-137160514D01*
X103639475Y-137294656D01*
X103852318Y-137457977D01*
X104042023Y-137647682D01*
X104205344Y-137860525D01*
X104339486Y-138092866D01*
X104442154Y-138340728D01*
X104511591Y-138599870D01*
X104546609Y-138865858D01*
X104546609Y-139134142D01*
X104511591Y-139400130D01*
X104442154Y-139659272D01*
X104339486Y-139907134D01*
X104205344Y-140139475D01*
X104042023Y-140352318D01*
X103852318Y-140542023D01*
X103639475Y-140705344D01*
X103407134Y-140839486D01*
X103159272Y-140942154D01*
X102900130Y-141011591D01*
X102634142Y-141046609D01*
X102365858Y-141046609D01*
X102099870Y-141011591D01*
X101840728Y-140942154D01*
X101592866Y-140839486D01*
X101360525Y-140705344D01*
X101147682Y-140542023D01*
X100957977Y-140352318D01*
X100794656Y-140139475D01*
X100660514Y-139907134D01*
X100557846Y-139659272D01*
X100488409Y-139400130D01*
X100453391Y-139134142D01*
X100453391Y-138865858D01*
X100488409Y-138599870D01*
X100557846Y-138340728D01*
X100660514Y-138092866D01*
X100794656Y-137860525D01*
X100957977Y-137647682D01*
X101147682Y-137457977D01*
X101360525Y-137294656D01*
X101592866Y-137160514D01*
X101840728Y-137057846D01*
X102099870Y-136988409D01*
X102365858Y-136953391D01*
X102634142Y-136953391D01*
X102900130Y-136988409D01*
G37*
G36*
X112400130Y-136988409D02*
G01*
X112659272Y-137057846D01*
X112907134Y-137160514D01*
X113139475Y-137294656D01*
X113352318Y-137457977D01*
X113542023Y-137647682D01*
X113705344Y-137860525D01*
X113839486Y-138092866D01*
X113942154Y-138340728D01*
X114011591Y-138599870D01*
X114046609Y-138865858D01*
X114046609Y-139134142D01*
X114011591Y-139400130D01*
X113942154Y-139659272D01*
X113839486Y-139907134D01*
X113705344Y-140139475D01*
X113542023Y-140352318D01*
X113352318Y-140542023D01*
X113139475Y-140705344D01*
X112907134Y-140839486D01*
X112659272Y-140942154D01*
X112400130Y-141011591D01*
X112134142Y-141046609D01*
X111865858Y-141046609D01*
X111599870Y-141011591D01*
X111340728Y-140942154D01*
X111092866Y-140839486D01*
X110860525Y-140705344D01*
X110647682Y-140542023D01*
X110457977Y-140352318D01*
X110294656Y-140139475D01*
X110160514Y-139907134D01*
X110057846Y-139659272D01*
X109988409Y-139400130D01*
X109953391Y-139134142D01*
X109953391Y-138865858D01*
X109988409Y-138599870D01*
X110057846Y-138340728D01*
X110160514Y-138092866D01*
X110294656Y-137860525D01*
X110457977Y-137647682D01*
X110647682Y-137457977D01*
X110860525Y-137294656D01*
X111092866Y-137160514D01*
X111340728Y-137057846D01*
X111599870Y-136988409D01*
X111865858Y-136953391D01*
X112134142Y-136953391D01*
X112400130Y-136988409D01*
G37*
G36*
X120654345Y-131333491D02*
G01*
X120799416Y-131393581D01*
X120929976Y-131480819D01*
X121041008Y-131591851D01*
X121128246Y-131722411D01*
X121188336Y-131867482D01*
X121218970Y-132021488D01*
X121222827Y-132100000D01*
X121222827Y-133900000D01*
X121218970Y-133978512D01*
X121188336Y-134132518D01*
X121128246Y-134277589D01*
X121041008Y-134408149D01*
X120929976Y-134519181D01*
X120799416Y-134606419D01*
X120654345Y-134666509D01*
X120500339Y-134697143D01*
X120343315Y-134697143D01*
X120189309Y-134666509D01*
X120044238Y-134606419D01*
X119913678Y-134519181D01*
X119802646Y-134408149D01*
X119715408Y-134277589D01*
X119655318Y-134132518D01*
X119624684Y-133978512D01*
X119620827Y-133900000D01*
X119620827Y-132100000D01*
X119624684Y-132021488D01*
X119655318Y-131867482D01*
X119715408Y-131722411D01*
X119802646Y-131591851D01*
X119913678Y-131480819D01*
X120044238Y-131393581D01*
X120189309Y-131333491D01*
X120343315Y-131302857D01*
X120500339Y-131302857D01*
X120654345Y-131333491D01*
G37*
G36*
X128954345Y-131333491D02*
G01*
X129099416Y-131393581D01*
X129229976Y-131480819D01*
X129341008Y-131591851D01*
X129428246Y-131722411D01*
X129488336Y-131867482D01*
X129518970Y-132021488D01*
X129522827Y-132100000D01*
X129522827Y-133900000D01*
X129518970Y-133978512D01*
X129488336Y-134132518D01*
X129428246Y-134277589D01*
X129341008Y-134408149D01*
X129229976Y-134519181D01*
X129099416Y-134606419D01*
X128954345Y-134666509D01*
X128800339Y-134697143D01*
X128643315Y-134697143D01*
X128489309Y-134666509D01*
X128344238Y-134606419D01*
X128213678Y-134519181D01*
X128102646Y-134408149D01*
X128015408Y-134277589D01*
X127955318Y-134132518D01*
X127924684Y-133978512D01*
X127920827Y-133900000D01*
X127920827Y-132100000D01*
X127924684Y-132021488D01*
X127955318Y-131867482D01*
X128015408Y-131722411D01*
X128102646Y-131591851D01*
X128213678Y-131480819D01*
X128344238Y-131393581D01*
X128489309Y-131333491D01*
X128643315Y-131302857D01*
X128800339Y-131302857D01*
X128954345Y-131333491D01*
G37*
G36*
X123909309Y-131453781D02*
G01*
X123920517Y-131453781D01*
X123975715Y-131462523D01*
X124101361Y-131479065D01*
X124132016Y-131487279D01*
X124160901Y-131491854D01*
X124216447Y-131509902D01*
X124297294Y-131531565D01*
X124348877Y-131552931D01*
X124392369Y-131567063D01*
X124433113Y-131587823D01*
X124484697Y-131609190D01*
X124557180Y-131651038D01*
X124609222Y-131677555D01*
X124632882Y-131694745D01*
X124660366Y-131710613D01*
X124760901Y-131787756D01*
X124806121Y-131820610D01*
X124814046Y-131828535D01*
X124821293Y-131834096D01*
X124964730Y-131977533D01*
X124970290Y-131984779D01*
X124978217Y-131992706D01*
X125011074Y-132037930D01*
X125088213Y-132138460D01*
X125104079Y-132165941D01*
X125121272Y-132189605D01*
X125147791Y-132241652D01*
X125189636Y-132314129D01*
X125211000Y-132365706D01*
X125231764Y-132406458D01*
X125245897Y-132449955D01*
X125267261Y-132501532D01*
X125288920Y-132582366D01*
X125306973Y-132637926D01*
X125311548Y-132666816D01*
X125319761Y-132697465D01*
X125336301Y-132823099D01*
X125345046Y-132878310D01*
X125345046Y-132889518D01*
X125346239Y-132898580D01*
X125346239Y-133101419D01*
X125345046Y-133110480D01*
X125345046Y-133121690D01*
X125336300Y-133176905D01*
X125319761Y-133302534D01*
X125311549Y-133333180D01*
X125306973Y-133362074D01*
X125288918Y-133417638D01*
X125267261Y-133498467D01*
X125245898Y-133550039D01*
X125231764Y-133593542D01*
X125210998Y-133634297D01*
X125189636Y-133685870D01*
X125147795Y-133758338D01*
X125121272Y-133810395D01*
X125104076Y-133834062D01*
X125088213Y-133861539D01*
X125011088Y-133962050D01*
X124978217Y-134007294D01*
X124970286Y-134015224D01*
X124964730Y-134022466D01*
X124821293Y-134165903D01*
X124814051Y-134171459D01*
X124806121Y-134179390D01*
X124760877Y-134212261D01*
X124660366Y-134289386D01*
X124632889Y-134305249D01*
X124609222Y-134322445D01*
X124557165Y-134348968D01*
X124484697Y-134390809D01*
X124433124Y-134412171D01*
X124392369Y-134432937D01*
X124348866Y-134447071D01*
X124297294Y-134468434D01*
X124216465Y-134490091D01*
X124160901Y-134508146D01*
X124132007Y-134512722D01*
X124101361Y-134520934D01*
X123975729Y-134537474D01*
X123920517Y-134546219D01*
X123909308Y-134546219D01*
X123900247Y-134547412D01*
X123697407Y-134547412D01*
X123688346Y-134546219D01*
X123677137Y-134546219D01*
X123621926Y-134537474D01*
X123496292Y-134520934D01*
X123465643Y-134512721D01*
X123436753Y-134508146D01*
X123381193Y-134490093D01*
X123300359Y-134468434D01*
X123248782Y-134447070D01*
X123205285Y-134432937D01*
X123164533Y-134412173D01*
X123112956Y-134390809D01*
X123040479Y-134348964D01*
X122988432Y-134322445D01*
X122964768Y-134305252D01*
X122937287Y-134289386D01*
X122836757Y-134212247D01*
X122791533Y-134179390D01*
X122783606Y-134171463D01*
X122776360Y-134165903D01*
X122632923Y-134022466D01*
X122627362Y-134015219D01*
X122619437Y-134007294D01*
X122586583Y-133962074D01*
X122509440Y-133861539D01*
X122493572Y-133834055D01*
X122476382Y-133810395D01*
X122449865Y-133758353D01*
X122408017Y-133685870D01*
X122386650Y-133634286D01*
X122365890Y-133593542D01*
X122351758Y-133550050D01*
X122330392Y-133498467D01*
X122308729Y-133417620D01*
X122290681Y-133362074D01*
X122286106Y-133333189D01*
X122277892Y-133302534D01*
X122261351Y-133176891D01*
X122252608Y-133121690D01*
X122252608Y-133110480D01*
X122251415Y-133101419D01*
X122251415Y-132898580D01*
X122252608Y-132889518D01*
X122252608Y-132878310D01*
X122261350Y-132823113D01*
X122277892Y-132697465D01*
X122286106Y-132666807D01*
X122290681Y-132637926D01*
X122308727Y-132582383D01*
X122330392Y-132501532D01*
X122351760Y-132449944D01*
X122365890Y-132406458D01*
X122386648Y-132365717D01*
X122408017Y-132314129D01*
X122449869Y-132241637D01*
X122476382Y-132189605D01*
X122493569Y-132165948D01*
X122509440Y-132138460D01*
X122586597Y-132037906D01*
X122619437Y-131992706D01*
X122627359Y-131984783D01*
X122632923Y-131977533D01*
X122776360Y-131834096D01*
X122783610Y-131828532D01*
X122791533Y-131820610D01*
X122836733Y-131787770D01*
X122937287Y-131710613D01*
X122964775Y-131694742D01*
X122988432Y-131677555D01*
X123040464Y-131651042D01*
X123112956Y-131609190D01*
X123164544Y-131587821D01*
X123205285Y-131567063D01*
X123248771Y-131552933D01*
X123300359Y-131531565D01*
X123381210Y-131509900D01*
X123436753Y-131491854D01*
X123465634Y-131487279D01*
X123496292Y-131479065D01*
X123621940Y-131462523D01*
X123677137Y-131453781D01*
X123688345Y-131453781D01*
X123697407Y-131452588D01*
X123900247Y-131452588D01*
X123909309Y-131453781D01*
G37*
G36*
X118256344Y-131987882D02*
G01*
X118272889Y-131998938D01*
X118283945Y-132015483D01*
X118287827Y-132035000D01*
X118287827Y-133965000D01*
X118283945Y-133984517D01*
X118272889Y-134001062D01*
X118256344Y-134012118D01*
X118236827Y-134016000D01*
X116406827Y-134016000D01*
X116387310Y-134012118D01*
X116370765Y-134001062D01*
X116359709Y-133984517D01*
X116355827Y-133965000D01*
X116355827Y-132035000D01*
X116359709Y-132015483D01*
X116370765Y-131998938D01*
X116387310Y-131987882D01*
X116406827Y-131984000D01*
X118236827Y-131984000D01*
X118256344Y-131987882D01*
G37*
G36*
X104832553Y-119553579D02*
G01*
X104843214Y-119553579D01*
X104884865Y-119561864D01*
X104971916Y-119575651D01*
X104999918Y-119584749D01*
X105026061Y-119589950D01*
X105062956Y-119605232D01*
X105113784Y-119621748D01*
X105161399Y-119646009D01*
X105198298Y-119661293D01*
X105220463Y-119676103D01*
X105246693Y-119689468D01*
X105317990Y-119741268D01*
X105353308Y-119764867D01*
X105360846Y-119772405D01*
X105367370Y-119777145D01*
X105472854Y-119882629D01*
X105477593Y-119889152D01*
X105485133Y-119896692D01*
X105508734Y-119932014D01*
X105560531Y-120003306D01*
X105573894Y-120029533D01*
X105588707Y-120051702D01*
X105603993Y-120088605D01*
X105628251Y-120136215D01*
X105644764Y-120187035D01*
X105660050Y-120223939D01*
X105665251Y-120250086D01*
X105674348Y-120278083D01*
X105688134Y-120365125D01*
X105696421Y-120406786D01*
X105696421Y-120417447D01*
X105697683Y-120425415D01*
X105697683Y-120574584D01*
X105696421Y-120582551D01*
X105696421Y-120593214D01*
X105688133Y-120634877D01*
X105674348Y-120721916D01*
X105665251Y-120749910D01*
X105660050Y-120776061D01*
X105644762Y-120812968D01*
X105628251Y-120863784D01*
X105603995Y-120911388D01*
X105588707Y-120948298D01*
X105573892Y-120970470D01*
X105560531Y-120996693D01*
X105508742Y-121067973D01*
X105485133Y-121103308D01*
X105477591Y-121110849D01*
X105472854Y-121117370D01*
X105367370Y-121222854D01*
X105360849Y-121227591D01*
X105353308Y-121235133D01*
X105317973Y-121258742D01*
X105246693Y-121310531D01*
X105220470Y-121323892D01*
X105198298Y-121338707D01*
X105161388Y-121353995D01*
X105113784Y-121378251D01*
X105062968Y-121394762D01*
X105026061Y-121410050D01*
X104999910Y-121415251D01*
X104971916Y-121424348D01*
X104884875Y-121438133D01*
X104843214Y-121446421D01*
X104832553Y-121446421D01*
X104824585Y-121447683D01*
X104675415Y-121447683D01*
X104667447Y-121446421D01*
X104656786Y-121446421D01*
X104615125Y-121438134D01*
X104528083Y-121424348D01*
X104500086Y-121415251D01*
X104473939Y-121410050D01*
X104437035Y-121394764D01*
X104386215Y-121378251D01*
X104338605Y-121353993D01*
X104301702Y-121338707D01*
X104279533Y-121323894D01*
X104253306Y-121310531D01*
X104182014Y-121258734D01*
X104146692Y-121235133D01*
X104139152Y-121227593D01*
X104132629Y-121222854D01*
X104027145Y-121117370D01*
X104022405Y-121110846D01*
X104014867Y-121103308D01*
X103991268Y-121067990D01*
X103939468Y-120996693D01*
X103926103Y-120970463D01*
X103911293Y-120948298D01*
X103896009Y-120911399D01*
X103871748Y-120863784D01*
X103855232Y-120812956D01*
X103839950Y-120776061D01*
X103834749Y-120749918D01*
X103825651Y-120721916D01*
X103811864Y-120634867D01*
X103803579Y-120593214D01*
X103803579Y-120582552D01*
X103802317Y-120574584D01*
X103802317Y-120425415D01*
X103803579Y-120417446D01*
X103803579Y-120406786D01*
X103811863Y-120365136D01*
X103825651Y-120278083D01*
X103834750Y-120250078D01*
X103839950Y-120223939D01*
X103855231Y-120187046D01*
X103871748Y-120136215D01*
X103896011Y-120088595D01*
X103911293Y-120051702D01*
X103926101Y-120029539D01*
X103939468Y-120003306D01*
X103991277Y-119931996D01*
X104014867Y-119896692D01*
X104022402Y-119889156D01*
X104027145Y-119882629D01*
X104132629Y-119777145D01*
X104139156Y-119772402D01*
X104146692Y-119764867D01*
X104181996Y-119741277D01*
X104253306Y-119689468D01*
X104279539Y-119676101D01*
X104301702Y-119661293D01*
X104338595Y-119646011D01*
X104386215Y-119621748D01*
X104437046Y-119605231D01*
X104473939Y-119589950D01*
X104500078Y-119584750D01*
X104528083Y-119575651D01*
X104615136Y-119561863D01*
X104656786Y-119553579D01*
X104667447Y-119553579D01*
X104675415Y-119552317D01*
X104824585Y-119552317D01*
X104832553Y-119553579D01*
G37*
G36*
X107332553Y-119553579D02*
G01*
X107343214Y-119553579D01*
X107384865Y-119561864D01*
X107471916Y-119575651D01*
X107499918Y-119584749D01*
X107526061Y-119589950D01*
X107562956Y-119605232D01*
X107613784Y-119621748D01*
X107661399Y-119646009D01*
X107698298Y-119661293D01*
X107720463Y-119676103D01*
X107746693Y-119689468D01*
X107817990Y-119741268D01*
X107853308Y-119764867D01*
X107860846Y-119772405D01*
X107867370Y-119777145D01*
X107972854Y-119882629D01*
X107977593Y-119889152D01*
X107985133Y-119896692D01*
X108008734Y-119932014D01*
X108060531Y-120003306D01*
X108073894Y-120029533D01*
X108088707Y-120051702D01*
X108103993Y-120088605D01*
X108128251Y-120136215D01*
X108144764Y-120187035D01*
X108160050Y-120223939D01*
X108165251Y-120250086D01*
X108174348Y-120278083D01*
X108188134Y-120365125D01*
X108196421Y-120406786D01*
X108196421Y-120417447D01*
X108197683Y-120425415D01*
X108197683Y-120574584D01*
X108196421Y-120582551D01*
X108196421Y-120593214D01*
X108188133Y-120634877D01*
X108174348Y-120721916D01*
X108165251Y-120749910D01*
X108160050Y-120776061D01*
X108144762Y-120812968D01*
X108128251Y-120863784D01*
X108103995Y-120911388D01*
X108088707Y-120948298D01*
X108073892Y-120970470D01*
X108060531Y-120996693D01*
X108008742Y-121067973D01*
X107985133Y-121103308D01*
X107977591Y-121110849D01*
X107972854Y-121117370D01*
X107867370Y-121222854D01*
X107860849Y-121227591D01*
X107853308Y-121235133D01*
X107817973Y-121258742D01*
X107746693Y-121310531D01*
X107720470Y-121323892D01*
X107698298Y-121338707D01*
X107661388Y-121353995D01*
X107613784Y-121378251D01*
X107562968Y-121394762D01*
X107526061Y-121410050D01*
X107499910Y-121415251D01*
X107471916Y-121424348D01*
X107384875Y-121438133D01*
X107343214Y-121446421D01*
X107332553Y-121446421D01*
X107324585Y-121447683D01*
X107175415Y-121447683D01*
X107167447Y-121446421D01*
X107156786Y-121446421D01*
X107115125Y-121438134D01*
X107028083Y-121424348D01*
X107000086Y-121415251D01*
X106973939Y-121410050D01*
X106937035Y-121394764D01*
X106886215Y-121378251D01*
X106838605Y-121353993D01*
X106801702Y-121338707D01*
X106779533Y-121323894D01*
X106753306Y-121310531D01*
X106682014Y-121258734D01*
X106646692Y-121235133D01*
X106639152Y-121227593D01*
X106632629Y-121222854D01*
X106527145Y-121117370D01*
X106522405Y-121110846D01*
X106514867Y-121103308D01*
X106491268Y-121067990D01*
X106439468Y-120996693D01*
X106426103Y-120970463D01*
X106411293Y-120948298D01*
X106396009Y-120911399D01*
X106371748Y-120863784D01*
X106355232Y-120812956D01*
X106339950Y-120776061D01*
X106334749Y-120749918D01*
X106325651Y-120721916D01*
X106311864Y-120634867D01*
X106303579Y-120593214D01*
X106303579Y-120582552D01*
X106302317Y-120574584D01*
X106302317Y-120425415D01*
X106303579Y-120417446D01*
X106303579Y-120406786D01*
X106311863Y-120365136D01*
X106325651Y-120278083D01*
X106334750Y-120250078D01*
X106339950Y-120223939D01*
X106355231Y-120187046D01*
X106371748Y-120136215D01*
X106396011Y-120088595D01*
X106411293Y-120051702D01*
X106426101Y-120029539D01*
X106439468Y-120003306D01*
X106491277Y-119931996D01*
X106514867Y-119896692D01*
X106522402Y-119889156D01*
X106527145Y-119882629D01*
X106632629Y-119777145D01*
X106639156Y-119772402D01*
X106646692Y-119764867D01*
X106681996Y-119741277D01*
X106753306Y-119689468D01*
X106779539Y-119676101D01*
X106801702Y-119661293D01*
X106838595Y-119646011D01*
X106886215Y-119621748D01*
X106937046Y-119605231D01*
X106973939Y-119589950D01*
X107000078Y-119584750D01*
X107028083Y-119575651D01*
X107115136Y-119561863D01*
X107156786Y-119553579D01*
X107167447Y-119553579D01*
X107175415Y-119552317D01*
X107324585Y-119552317D01*
X107332553Y-119553579D01*
G37*
G36*
X109832553Y-119553579D02*
G01*
X109843214Y-119553579D01*
X109884865Y-119561864D01*
X109971916Y-119575651D01*
X109999918Y-119584749D01*
X110026061Y-119589950D01*
X110062956Y-119605232D01*
X110113784Y-119621748D01*
X110161399Y-119646009D01*
X110198298Y-119661293D01*
X110220463Y-119676103D01*
X110246693Y-119689468D01*
X110317990Y-119741268D01*
X110353308Y-119764867D01*
X110360846Y-119772405D01*
X110367370Y-119777145D01*
X110472854Y-119882629D01*
X110477593Y-119889152D01*
X110485133Y-119896692D01*
X110508734Y-119932014D01*
X110560531Y-120003306D01*
X110573894Y-120029533D01*
X110588707Y-120051702D01*
X110603993Y-120088605D01*
X110628251Y-120136215D01*
X110644764Y-120187035D01*
X110660050Y-120223939D01*
X110665251Y-120250086D01*
X110674348Y-120278083D01*
X110688134Y-120365125D01*
X110696421Y-120406786D01*
X110696421Y-120417447D01*
X110697683Y-120425415D01*
X110697683Y-120574584D01*
X110696421Y-120582551D01*
X110696421Y-120593214D01*
X110688133Y-120634877D01*
X110674348Y-120721916D01*
X110665251Y-120749910D01*
X110660050Y-120776061D01*
X110644762Y-120812968D01*
X110628251Y-120863784D01*
X110603995Y-120911388D01*
X110588707Y-120948298D01*
X110573892Y-120970470D01*
X110560531Y-120996693D01*
X110508742Y-121067973D01*
X110485133Y-121103308D01*
X110477591Y-121110849D01*
X110472854Y-121117370D01*
X110367370Y-121222854D01*
X110360849Y-121227591D01*
X110353308Y-121235133D01*
X110317973Y-121258742D01*
X110246693Y-121310531D01*
X110220470Y-121323892D01*
X110198298Y-121338707D01*
X110161388Y-121353995D01*
X110113784Y-121378251D01*
X110062968Y-121394762D01*
X110026061Y-121410050D01*
X109999910Y-121415251D01*
X109971916Y-121424348D01*
X109884875Y-121438133D01*
X109843214Y-121446421D01*
X109832553Y-121446421D01*
X109824585Y-121447683D01*
X109675415Y-121447683D01*
X109667447Y-121446421D01*
X109656786Y-121446421D01*
X109615125Y-121438134D01*
X109528083Y-121424348D01*
X109500086Y-121415251D01*
X109473939Y-121410050D01*
X109437035Y-121394764D01*
X109386215Y-121378251D01*
X109338605Y-121353993D01*
X109301702Y-121338707D01*
X109279533Y-121323894D01*
X109253306Y-121310531D01*
X109182014Y-121258734D01*
X109146692Y-121235133D01*
X109139152Y-121227593D01*
X109132629Y-121222854D01*
X109027145Y-121117370D01*
X109022405Y-121110846D01*
X109014867Y-121103308D01*
X108991268Y-121067990D01*
X108939468Y-120996693D01*
X108926103Y-120970463D01*
X108911293Y-120948298D01*
X108896009Y-120911399D01*
X108871748Y-120863784D01*
X108855232Y-120812956D01*
X108839950Y-120776061D01*
X108834749Y-120749918D01*
X108825651Y-120721916D01*
X108811864Y-120634867D01*
X108803579Y-120593214D01*
X108803579Y-120582552D01*
X108802317Y-120574584D01*
X108802317Y-120425415D01*
X108803579Y-120417446D01*
X108803579Y-120406786D01*
X108811863Y-120365136D01*
X108825651Y-120278083D01*
X108834750Y-120250078D01*
X108839950Y-120223939D01*
X108855231Y-120187046D01*
X108871748Y-120136215D01*
X108896011Y-120088595D01*
X108911293Y-120051702D01*
X108926101Y-120029539D01*
X108939468Y-120003306D01*
X108991277Y-119931996D01*
X109014867Y-119896692D01*
X109022402Y-119889156D01*
X109027145Y-119882629D01*
X109132629Y-119777145D01*
X109139156Y-119772402D01*
X109146692Y-119764867D01*
X109181996Y-119741277D01*
X109253306Y-119689468D01*
X109279539Y-119676101D01*
X109301702Y-119661293D01*
X109338595Y-119646011D01*
X109386215Y-119621748D01*
X109437046Y-119605231D01*
X109473939Y-119589950D01*
X109500078Y-119584750D01*
X109528083Y-119575651D01*
X109615136Y-119561863D01*
X109656786Y-119553579D01*
X109667447Y-119553579D01*
X109675415Y-119552317D01*
X109824585Y-119552317D01*
X109832553Y-119553579D01*
G37*
G36*
X120654345Y-117333491D02*
G01*
X120799416Y-117393581D01*
X120929976Y-117480819D01*
X121041008Y-117591851D01*
X121128246Y-117722411D01*
X121188336Y-117867482D01*
X121218970Y-118021488D01*
X121222827Y-118100000D01*
X121222827Y-119900000D01*
X121218970Y-119978512D01*
X121188336Y-120132518D01*
X121128246Y-120277589D01*
X121041008Y-120408149D01*
X120929976Y-120519181D01*
X120799416Y-120606419D01*
X120654345Y-120666509D01*
X120500339Y-120697143D01*
X120343315Y-120697143D01*
X120189309Y-120666509D01*
X120044238Y-120606419D01*
X119913678Y-120519181D01*
X119802646Y-120408149D01*
X119715408Y-120277589D01*
X119655318Y-120132518D01*
X119624684Y-119978512D01*
X119620827Y-119900000D01*
X119620827Y-118100000D01*
X119624684Y-118021488D01*
X119655318Y-117867482D01*
X119715408Y-117722411D01*
X119802646Y-117591851D01*
X119913678Y-117480819D01*
X120044238Y-117393581D01*
X120189309Y-117333491D01*
X120343315Y-117302857D01*
X120500339Y-117302857D01*
X120654345Y-117333491D01*
G37*
G36*
X128954345Y-117333491D02*
G01*
X129099416Y-117393581D01*
X129229976Y-117480819D01*
X129341008Y-117591851D01*
X129428246Y-117722411D01*
X129488336Y-117867482D01*
X129518970Y-118021488D01*
X129522827Y-118100000D01*
X129522827Y-119900000D01*
X129518970Y-119978512D01*
X129488336Y-120132518D01*
X129428246Y-120277589D01*
X129341008Y-120408149D01*
X129229976Y-120519181D01*
X129099416Y-120606419D01*
X128954345Y-120666509D01*
X128800339Y-120697143D01*
X128643315Y-120697143D01*
X128489309Y-120666509D01*
X128344238Y-120606419D01*
X128213678Y-120519181D01*
X128102646Y-120408149D01*
X128015408Y-120277589D01*
X127955318Y-120132518D01*
X127924684Y-119978512D01*
X127920827Y-119900000D01*
X127920827Y-118100000D01*
X127924684Y-118021488D01*
X127955318Y-117867482D01*
X128015408Y-117722411D01*
X128102646Y-117591851D01*
X128213678Y-117480819D01*
X128344238Y-117393581D01*
X128489309Y-117333491D01*
X128643315Y-117302857D01*
X128800339Y-117302857D01*
X128954345Y-117333491D01*
G37*
G36*
X123909309Y-117453781D02*
G01*
X123920517Y-117453781D01*
X123975715Y-117462523D01*
X124101361Y-117479065D01*
X124132016Y-117487279D01*
X124160901Y-117491854D01*
X124216447Y-117509902D01*
X124297294Y-117531565D01*
X124348877Y-117552931D01*
X124392369Y-117567063D01*
X124433113Y-117587823D01*
X124484697Y-117609190D01*
X124557180Y-117651038D01*
X124609222Y-117677555D01*
X124632882Y-117694745D01*
X124660366Y-117710613D01*
X124760901Y-117787756D01*
X124806121Y-117820610D01*
X124814046Y-117828535D01*
X124821293Y-117834096D01*
X124964730Y-117977533D01*
X124970290Y-117984779D01*
X124978217Y-117992706D01*
X125011074Y-118037930D01*
X125088213Y-118138460D01*
X125104079Y-118165941D01*
X125121272Y-118189605D01*
X125147791Y-118241652D01*
X125189636Y-118314129D01*
X125211000Y-118365706D01*
X125231764Y-118406458D01*
X125245897Y-118449955D01*
X125267261Y-118501532D01*
X125288920Y-118582366D01*
X125306973Y-118637926D01*
X125311548Y-118666816D01*
X125319761Y-118697465D01*
X125336301Y-118823099D01*
X125345046Y-118878310D01*
X125345046Y-118889518D01*
X125346239Y-118898580D01*
X125346239Y-119101419D01*
X125345046Y-119110480D01*
X125345046Y-119121690D01*
X125336300Y-119176905D01*
X125319761Y-119302534D01*
X125311549Y-119333180D01*
X125306973Y-119362074D01*
X125288918Y-119417638D01*
X125267261Y-119498467D01*
X125245898Y-119550039D01*
X125231764Y-119593542D01*
X125210998Y-119634297D01*
X125189636Y-119685870D01*
X125147795Y-119758338D01*
X125121272Y-119810395D01*
X125104076Y-119834062D01*
X125088213Y-119861539D01*
X125011088Y-119962050D01*
X124978217Y-120007294D01*
X124970286Y-120015224D01*
X124964730Y-120022466D01*
X124821293Y-120165903D01*
X124814051Y-120171459D01*
X124806121Y-120179390D01*
X124760877Y-120212261D01*
X124660366Y-120289386D01*
X124632889Y-120305249D01*
X124609222Y-120322445D01*
X124557165Y-120348968D01*
X124484697Y-120390809D01*
X124433124Y-120412171D01*
X124392369Y-120432937D01*
X124348866Y-120447071D01*
X124297294Y-120468434D01*
X124216465Y-120490091D01*
X124160901Y-120508146D01*
X124132007Y-120512722D01*
X124101361Y-120520934D01*
X123975729Y-120537474D01*
X123920517Y-120546219D01*
X123909308Y-120546219D01*
X123900247Y-120547412D01*
X123697407Y-120547412D01*
X123688346Y-120546219D01*
X123677137Y-120546219D01*
X123621926Y-120537474D01*
X123496292Y-120520934D01*
X123465643Y-120512721D01*
X123436753Y-120508146D01*
X123381193Y-120490093D01*
X123300359Y-120468434D01*
X123248782Y-120447070D01*
X123205285Y-120432937D01*
X123164533Y-120412173D01*
X123112956Y-120390809D01*
X123040479Y-120348964D01*
X122988432Y-120322445D01*
X122964768Y-120305252D01*
X122937287Y-120289386D01*
X122836757Y-120212247D01*
X122791533Y-120179390D01*
X122783606Y-120171463D01*
X122776360Y-120165903D01*
X122632923Y-120022466D01*
X122627362Y-120015219D01*
X122619437Y-120007294D01*
X122586583Y-119962074D01*
X122509440Y-119861539D01*
X122493572Y-119834055D01*
X122476382Y-119810395D01*
X122449865Y-119758353D01*
X122408017Y-119685870D01*
X122386650Y-119634286D01*
X122365890Y-119593542D01*
X122351758Y-119550050D01*
X122330392Y-119498467D01*
X122308729Y-119417620D01*
X122290681Y-119362074D01*
X122286106Y-119333189D01*
X122277892Y-119302534D01*
X122261351Y-119176891D01*
X122252608Y-119121690D01*
X122252608Y-119110480D01*
X122251415Y-119101419D01*
X122251415Y-118898580D01*
X122252608Y-118889518D01*
X122252608Y-118878310D01*
X122261350Y-118823113D01*
X122277892Y-118697465D01*
X122286106Y-118666807D01*
X122290681Y-118637926D01*
X122308727Y-118582383D01*
X122330392Y-118501532D01*
X122351760Y-118449944D01*
X122365890Y-118406458D01*
X122386648Y-118365717D01*
X122408017Y-118314129D01*
X122449869Y-118241637D01*
X122476382Y-118189605D01*
X122493569Y-118165948D01*
X122509440Y-118138460D01*
X122586597Y-118037906D01*
X122619437Y-117992706D01*
X122627359Y-117984783D01*
X122632923Y-117977533D01*
X122776360Y-117834096D01*
X122783610Y-117828532D01*
X122791533Y-117820610D01*
X122836733Y-117787770D01*
X122937287Y-117710613D01*
X122964775Y-117694742D01*
X122988432Y-117677555D01*
X123040464Y-117651042D01*
X123112956Y-117609190D01*
X123164544Y-117587821D01*
X123205285Y-117567063D01*
X123248771Y-117552933D01*
X123300359Y-117531565D01*
X123381210Y-117509900D01*
X123436753Y-117491854D01*
X123465634Y-117487279D01*
X123496292Y-117479065D01*
X123621940Y-117462523D01*
X123677137Y-117453781D01*
X123688345Y-117453781D01*
X123697407Y-117452588D01*
X123900247Y-117452588D01*
X123909309Y-117453781D01*
G37*
G36*
X118256344Y-117987882D02*
G01*
X118272889Y-117998938D01*
X118283945Y-118015483D01*
X118287827Y-118035000D01*
X118287827Y-119965000D01*
X118283945Y-119984517D01*
X118272889Y-120001062D01*
X118256344Y-120012118D01*
X118236827Y-120016000D01*
X116406827Y-120016000D01*
X116387310Y-120012118D01*
X116370765Y-120001062D01*
X116359709Y-119984517D01*
X116355827Y-119965000D01*
X116355827Y-118035000D01*
X116359709Y-118015483D01*
X116370765Y-117998938D01*
X116387310Y-117987882D01*
X116406827Y-117984000D01*
X118236827Y-117984000D01*
X118256344Y-117987882D01*
G37*
G36*
X102900130Y-110988409D02*
G01*
X103159272Y-111057846D01*
X103407134Y-111160514D01*
X103639475Y-111294656D01*
X103852318Y-111457977D01*
X104042023Y-111647682D01*
X104205344Y-111860525D01*
X104339486Y-112092866D01*
X104442154Y-112340728D01*
X104511591Y-112599870D01*
X104546609Y-112865858D01*
X104546609Y-113134142D01*
X104511591Y-113400130D01*
X104442154Y-113659272D01*
X104339486Y-113907134D01*
X104205344Y-114139475D01*
X104042023Y-114352318D01*
X103852318Y-114542023D01*
X103639475Y-114705344D01*
X103407134Y-114839486D01*
X103159272Y-114942154D01*
X102900130Y-115011591D01*
X102634142Y-115046609D01*
X102365858Y-115046609D01*
X102099870Y-115011591D01*
X101840728Y-114942154D01*
X101592866Y-114839486D01*
X101360525Y-114705344D01*
X101147682Y-114542023D01*
X100957977Y-114352318D01*
X100794656Y-114139475D01*
X100660514Y-113907134D01*
X100557846Y-113659272D01*
X100488409Y-113400130D01*
X100453391Y-113134142D01*
X100453391Y-112865858D01*
X100488409Y-112599870D01*
X100557846Y-112340728D01*
X100660514Y-112092866D01*
X100794656Y-111860525D01*
X100957977Y-111647682D01*
X101147682Y-111457977D01*
X101360525Y-111294656D01*
X101592866Y-111160514D01*
X101840728Y-111057846D01*
X102099870Y-110988409D01*
X102365858Y-110953391D01*
X102634142Y-110953391D01*
X102900130Y-110988409D01*
G37*
G36*
X112400130Y-110988409D02*
G01*
X112659272Y-111057846D01*
X112907134Y-111160514D01*
X113139475Y-111294656D01*
X113352318Y-111457977D01*
X113542023Y-111647682D01*
X113705344Y-111860525D01*
X113839486Y-112092866D01*
X113942154Y-112340728D01*
X114011591Y-112599870D01*
X114046609Y-112865858D01*
X114046609Y-113134142D01*
X114011591Y-113400130D01*
X113942154Y-113659272D01*
X113839486Y-113907134D01*
X113705344Y-114139475D01*
X113542023Y-114352318D01*
X113352318Y-114542023D01*
X113139475Y-114705344D01*
X112907134Y-114839486D01*
X112659272Y-114942154D01*
X112400130Y-115011591D01*
X112134142Y-115046609D01*
X111865858Y-115046609D01*
X111599870Y-115011591D01*
X111340728Y-114942154D01*
X111092866Y-114839486D01*
X110860525Y-114705344D01*
X110647682Y-114542023D01*
X110457977Y-114352318D01*
X110294656Y-114139475D01*
X110160514Y-113907134D01*
X110057846Y-113659272D01*
X109988409Y-113400130D01*
X109953391Y-113134142D01*
X109953391Y-112865858D01*
X109988409Y-112599870D01*
X110057846Y-112340728D01*
X110160514Y-112092866D01*
X110294656Y-111860525D01*
X110457977Y-111647682D01*
X110647682Y-111457977D01*
X110860525Y-111294656D01*
X111092866Y-111160514D01*
X111340728Y-111057846D01*
X111599870Y-110988409D01*
X111865858Y-110953391D01*
X112134142Y-110953391D01*
X112400130Y-110988409D01*
G37*
G36*
X120654345Y-105333491D02*
G01*
X120799416Y-105393581D01*
X120929976Y-105480819D01*
X121041008Y-105591851D01*
X121128246Y-105722411D01*
X121188336Y-105867482D01*
X121218970Y-106021488D01*
X121222827Y-106100000D01*
X121222827Y-107900000D01*
X121218970Y-107978512D01*
X121188336Y-108132518D01*
X121128246Y-108277589D01*
X121041008Y-108408149D01*
X120929976Y-108519181D01*
X120799416Y-108606419D01*
X120654345Y-108666509D01*
X120500339Y-108697143D01*
X120343315Y-108697143D01*
X120189309Y-108666509D01*
X120044238Y-108606419D01*
X119913678Y-108519181D01*
X119802646Y-108408149D01*
X119715408Y-108277589D01*
X119655318Y-108132518D01*
X119624684Y-107978512D01*
X119620827Y-107900000D01*
X119620827Y-106100000D01*
X119624684Y-106021488D01*
X119655318Y-105867482D01*
X119715408Y-105722411D01*
X119802646Y-105591851D01*
X119913678Y-105480819D01*
X120044238Y-105393581D01*
X120189309Y-105333491D01*
X120343315Y-105302857D01*
X120500339Y-105302857D01*
X120654345Y-105333491D01*
G37*
G36*
X128954345Y-105333491D02*
G01*
X129099416Y-105393581D01*
X129229976Y-105480819D01*
X129341008Y-105591851D01*
X129428246Y-105722411D01*
X129488336Y-105867482D01*
X129518970Y-106021488D01*
X129522827Y-106100000D01*
X129522827Y-107900000D01*
X129518970Y-107978512D01*
X129488336Y-108132518D01*
X129428246Y-108277589D01*
X129341008Y-108408149D01*
X129229976Y-108519181D01*
X129099416Y-108606419D01*
X128954345Y-108666509D01*
X128800339Y-108697143D01*
X128643315Y-108697143D01*
X128489309Y-108666509D01*
X128344238Y-108606419D01*
X128213678Y-108519181D01*
X128102646Y-108408149D01*
X128015408Y-108277589D01*
X127955318Y-108132518D01*
X127924684Y-107978512D01*
X127920827Y-107900000D01*
X127920827Y-106100000D01*
X127924684Y-106021488D01*
X127955318Y-105867482D01*
X128015408Y-105722411D01*
X128102646Y-105591851D01*
X128213678Y-105480819D01*
X128344238Y-105393581D01*
X128489309Y-105333491D01*
X128643315Y-105302857D01*
X128800339Y-105302857D01*
X128954345Y-105333491D01*
G37*
G36*
X123909309Y-105453781D02*
G01*
X123920517Y-105453781D01*
X123975715Y-105462523D01*
X124101361Y-105479065D01*
X124132016Y-105487279D01*
X124160901Y-105491854D01*
X124216447Y-105509902D01*
X124297294Y-105531565D01*
X124348877Y-105552931D01*
X124392369Y-105567063D01*
X124433113Y-105587823D01*
X124484697Y-105609190D01*
X124557180Y-105651038D01*
X124609222Y-105677555D01*
X124632882Y-105694745D01*
X124660366Y-105710613D01*
X124760901Y-105787756D01*
X124806121Y-105820610D01*
X124814046Y-105828535D01*
X124821293Y-105834096D01*
X124964730Y-105977533D01*
X124970290Y-105984779D01*
X124978217Y-105992706D01*
X125011074Y-106037930D01*
X125088213Y-106138460D01*
X125104079Y-106165941D01*
X125121272Y-106189605D01*
X125147791Y-106241652D01*
X125189636Y-106314129D01*
X125211000Y-106365706D01*
X125231764Y-106406458D01*
X125245897Y-106449955D01*
X125267261Y-106501532D01*
X125288920Y-106582366D01*
X125306973Y-106637926D01*
X125311548Y-106666816D01*
X125319761Y-106697465D01*
X125336301Y-106823099D01*
X125345046Y-106878310D01*
X125345046Y-106889518D01*
X125346239Y-106898580D01*
X125346239Y-107101419D01*
X125345046Y-107110480D01*
X125345046Y-107121690D01*
X125336300Y-107176905D01*
X125319761Y-107302534D01*
X125311549Y-107333180D01*
X125306973Y-107362074D01*
X125288918Y-107417638D01*
X125267261Y-107498467D01*
X125245898Y-107550039D01*
X125231764Y-107593542D01*
X125210998Y-107634297D01*
X125189636Y-107685870D01*
X125147795Y-107758338D01*
X125121272Y-107810395D01*
X125104076Y-107834062D01*
X125088213Y-107861539D01*
X125011088Y-107962050D01*
X124978217Y-108007294D01*
X124970286Y-108015224D01*
X124964730Y-108022466D01*
X124821293Y-108165903D01*
X124814051Y-108171459D01*
X124806121Y-108179390D01*
X124760877Y-108212261D01*
X124660366Y-108289386D01*
X124632889Y-108305249D01*
X124609222Y-108322445D01*
X124557165Y-108348968D01*
X124484697Y-108390809D01*
X124433124Y-108412171D01*
X124392369Y-108432937D01*
X124348866Y-108447071D01*
X124297294Y-108468434D01*
X124216465Y-108490091D01*
X124160901Y-108508146D01*
X124132007Y-108512722D01*
X124101361Y-108520934D01*
X123975729Y-108537474D01*
X123920517Y-108546219D01*
X123909308Y-108546219D01*
X123900247Y-108547412D01*
X123697407Y-108547412D01*
X123688346Y-108546219D01*
X123677137Y-108546219D01*
X123621926Y-108537474D01*
X123496292Y-108520934D01*
X123465643Y-108512721D01*
X123436753Y-108508146D01*
X123381193Y-108490093D01*
X123300359Y-108468434D01*
X123248782Y-108447070D01*
X123205285Y-108432937D01*
X123164533Y-108412173D01*
X123112956Y-108390809D01*
X123040479Y-108348964D01*
X122988432Y-108322445D01*
X122964768Y-108305252D01*
X122937287Y-108289386D01*
X122836757Y-108212247D01*
X122791533Y-108179390D01*
X122783606Y-108171463D01*
X122776360Y-108165903D01*
X122632923Y-108022466D01*
X122627362Y-108015219D01*
X122619437Y-108007294D01*
X122586583Y-107962074D01*
X122509440Y-107861539D01*
X122493572Y-107834055D01*
X122476382Y-107810395D01*
X122449865Y-107758353D01*
X122408017Y-107685870D01*
X122386650Y-107634286D01*
X122365890Y-107593542D01*
X122351758Y-107550050D01*
X122330392Y-107498467D01*
X122308729Y-107417620D01*
X122290681Y-107362074D01*
X122286106Y-107333189D01*
X122277892Y-107302534D01*
X122261351Y-107176891D01*
X122252608Y-107121690D01*
X122252608Y-107110480D01*
X122251415Y-107101419D01*
X122251415Y-106898580D01*
X122252608Y-106889518D01*
X122252608Y-106878310D01*
X122261350Y-106823113D01*
X122277892Y-106697465D01*
X122286106Y-106666807D01*
X122290681Y-106637926D01*
X122308727Y-106582383D01*
X122330392Y-106501532D01*
X122351760Y-106449944D01*
X122365890Y-106406458D01*
X122386648Y-106365717D01*
X122408017Y-106314129D01*
X122449869Y-106241637D01*
X122476382Y-106189605D01*
X122493569Y-106165948D01*
X122509440Y-106138460D01*
X122586597Y-106037906D01*
X122619437Y-105992706D01*
X122627359Y-105984783D01*
X122632923Y-105977533D01*
X122776360Y-105834096D01*
X122783610Y-105828532D01*
X122791533Y-105820610D01*
X122836733Y-105787770D01*
X122937287Y-105710613D01*
X122964775Y-105694742D01*
X122988432Y-105677555D01*
X123040464Y-105651042D01*
X123112956Y-105609190D01*
X123164544Y-105587821D01*
X123205285Y-105567063D01*
X123248771Y-105552933D01*
X123300359Y-105531565D01*
X123381210Y-105509900D01*
X123436753Y-105491854D01*
X123465634Y-105487279D01*
X123496292Y-105479065D01*
X123621940Y-105462523D01*
X123677137Y-105453781D01*
X123688345Y-105453781D01*
X123697407Y-105452588D01*
X123900247Y-105452588D01*
X123909309Y-105453781D01*
G37*
G36*
X118256344Y-105987882D02*
G01*
X118272889Y-105998938D01*
X118283945Y-106015483D01*
X118287827Y-106035000D01*
X118287827Y-107965000D01*
X118283945Y-107984517D01*
X118272889Y-108001062D01*
X118256344Y-108012118D01*
X118236827Y-108016000D01*
X116406827Y-108016000D01*
X116387310Y-108012118D01*
X116370765Y-108001062D01*
X116359709Y-107984517D01*
X116355827Y-107965000D01*
X116355827Y-106035000D01*
X116359709Y-106015483D01*
X116370765Y-105998938D01*
X116387310Y-105987882D01*
X116406827Y-105984000D01*
X118236827Y-105984000D01*
X118256344Y-105987882D01*
G37*
G36*
X104832553Y-93553579D02*
G01*
X104843214Y-93553579D01*
X104884865Y-93561864D01*
X104971916Y-93575651D01*
X104999918Y-93584749D01*
X105026061Y-93589950D01*
X105062956Y-93605232D01*
X105113784Y-93621748D01*
X105161399Y-93646009D01*
X105198298Y-93661293D01*
X105220463Y-93676103D01*
X105246693Y-93689468D01*
X105317990Y-93741268D01*
X105353308Y-93764867D01*
X105360846Y-93772405D01*
X105367370Y-93777145D01*
X105472854Y-93882629D01*
X105477593Y-93889152D01*
X105485133Y-93896692D01*
X105508734Y-93932014D01*
X105560531Y-94003306D01*
X105573894Y-94029533D01*
X105588707Y-94051702D01*
X105603993Y-94088605D01*
X105628251Y-94136215D01*
X105644764Y-94187035D01*
X105660050Y-94223939D01*
X105665251Y-94250086D01*
X105674348Y-94278083D01*
X105688134Y-94365125D01*
X105696421Y-94406786D01*
X105696421Y-94417447D01*
X105697683Y-94425415D01*
X105697683Y-94574584D01*
X105696421Y-94582551D01*
X105696421Y-94593214D01*
X105688133Y-94634877D01*
X105674348Y-94721916D01*
X105665251Y-94749910D01*
X105660050Y-94776061D01*
X105644762Y-94812968D01*
X105628251Y-94863784D01*
X105603995Y-94911388D01*
X105588707Y-94948298D01*
X105573892Y-94970470D01*
X105560531Y-94996693D01*
X105508742Y-95067973D01*
X105485133Y-95103308D01*
X105477591Y-95110849D01*
X105472854Y-95117370D01*
X105367370Y-95222854D01*
X105360849Y-95227591D01*
X105353308Y-95235133D01*
X105317973Y-95258742D01*
X105246693Y-95310531D01*
X105220470Y-95323892D01*
X105198298Y-95338707D01*
X105161388Y-95353995D01*
X105113784Y-95378251D01*
X105062968Y-95394762D01*
X105026061Y-95410050D01*
X104999910Y-95415251D01*
X104971916Y-95424348D01*
X104884875Y-95438133D01*
X104843214Y-95446421D01*
X104832553Y-95446421D01*
X104824585Y-95447683D01*
X104675415Y-95447683D01*
X104667447Y-95446421D01*
X104656786Y-95446421D01*
X104615125Y-95438134D01*
X104528083Y-95424348D01*
X104500086Y-95415251D01*
X104473939Y-95410050D01*
X104437035Y-95394764D01*
X104386215Y-95378251D01*
X104338605Y-95353993D01*
X104301702Y-95338707D01*
X104279533Y-95323894D01*
X104253306Y-95310531D01*
X104182014Y-95258734D01*
X104146692Y-95235133D01*
X104139152Y-95227593D01*
X104132629Y-95222854D01*
X104027145Y-95117370D01*
X104022405Y-95110846D01*
X104014867Y-95103308D01*
X103991268Y-95067990D01*
X103939468Y-94996693D01*
X103926103Y-94970463D01*
X103911293Y-94948298D01*
X103896009Y-94911399D01*
X103871748Y-94863784D01*
X103855232Y-94812956D01*
X103839950Y-94776061D01*
X103834749Y-94749918D01*
X103825651Y-94721916D01*
X103811864Y-94634867D01*
X103803579Y-94593214D01*
X103803579Y-94582552D01*
X103802317Y-94574584D01*
X103802317Y-94425415D01*
X103803579Y-94417446D01*
X103803579Y-94406786D01*
X103811863Y-94365136D01*
X103825651Y-94278083D01*
X103834750Y-94250078D01*
X103839950Y-94223939D01*
X103855231Y-94187046D01*
X103871748Y-94136215D01*
X103896011Y-94088595D01*
X103911293Y-94051702D01*
X103926101Y-94029539D01*
X103939468Y-94003306D01*
X103991277Y-93931996D01*
X104014867Y-93896692D01*
X104022402Y-93889156D01*
X104027145Y-93882629D01*
X104132629Y-93777145D01*
X104139156Y-93772402D01*
X104146692Y-93764867D01*
X104181996Y-93741277D01*
X104253306Y-93689468D01*
X104279539Y-93676101D01*
X104301702Y-93661293D01*
X104338595Y-93646011D01*
X104386215Y-93621748D01*
X104437046Y-93605231D01*
X104473939Y-93589950D01*
X104500078Y-93584750D01*
X104528083Y-93575651D01*
X104615136Y-93561863D01*
X104656786Y-93553579D01*
X104667447Y-93553579D01*
X104675415Y-93552317D01*
X104824585Y-93552317D01*
X104832553Y-93553579D01*
G37*
G36*
X107332553Y-93553579D02*
G01*
X107343214Y-93553579D01*
X107384865Y-93561864D01*
X107471916Y-93575651D01*
X107499918Y-93584749D01*
X107526061Y-93589950D01*
X107562956Y-93605232D01*
X107613784Y-93621748D01*
X107661399Y-93646009D01*
X107698298Y-93661293D01*
X107720463Y-93676103D01*
X107746693Y-93689468D01*
X107817990Y-93741268D01*
X107853308Y-93764867D01*
X107860846Y-93772405D01*
X107867370Y-93777145D01*
X107972854Y-93882629D01*
X107977593Y-93889152D01*
X107985133Y-93896692D01*
X108008734Y-93932014D01*
X108060531Y-94003306D01*
X108073894Y-94029533D01*
X108088707Y-94051702D01*
X108103993Y-94088605D01*
X108128251Y-94136215D01*
X108144764Y-94187035D01*
X108160050Y-94223939D01*
X108165251Y-94250086D01*
X108174348Y-94278083D01*
X108188134Y-94365125D01*
X108196421Y-94406786D01*
X108196421Y-94417447D01*
X108197683Y-94425415D01*
X108197683Y-94574584D01*
X108196421Y-94582551D01*
X108196421Y-94593214D01*
X108188133Y-94634877D01*
X108174348Y-94721916D01*
X108165251Y-94749910D01*
X108160050Y-94776061D01*
X108144762Y-94812968D01*
X108128251Y-94863784D01*
X108103995Y-94911388D01*
X108088707Y-94948298D01*
X108073892Y-94970470D01*
X108060531Y-94996693D01*
X108008742Y-95067973D01*
X107985133Y-95103308D01*
X107977591Y-95110849D01*
X107972854Y-95117370D01*
X107867370Y-95222854D01*
X107860849Y-95227591D01*
X107853308Y-95235133D01*
X107817973Y-95258742D01*
X107746693Y-95310531D01*
X107720470Y-95323892D01*
X107698298Y-95338707D01*
X107661388Y-95353995D01*
X107613784Y-95378251D01*
X107562968Y-95394762D01*
X107526061Y-95410050D01*
X107499910Y-95415251D01*
X107471916Y-95424348D01*
X107384875Y-95438133D01*
X107343214Y-95446421D01*
X107332553Y-95446421D01*
X107324585Y-95447683D01*
X107175415Y-95447683D01*
X107167447Y-95446421D01*
X107156786Y-95446421D01*
X107115125Y-95438134D01*
X107028083Y-95424348D01*
X107000086Y-95415251D01*
X106973939Y-95410050D01*
X106937035Y-95394764D01*
X106886215Y-95378251D01*
X106838605Y-95353993D01*
X106801702Y-95338707D01*
X106779533Y-95323894D01*
X106753306Y-95310531D01*
X106682014Y-95258734D01*
X106646692Y-95235133D01*
X106639152Y-95227593D01*
X106632629Y-95222854D01*
X106527145Y-95117370D01*
X106522405Y-95110846D01*
X106514867Y-95103308D01*
X106491268Y-95067990D01*
X106439468Y-94996693D01*
X106426103Y-94970463D01*
X106411293Y-94948298D01*
X106396009Y-94911399D01*
X106371748Y-94863784D01*
X106355232Y-94812956D01*
X106339950Y-94776061D01*
X106334749Y-94749918D01*
X106325651Y-94721916D01*
X106311864Y-94634867D01*
X106303579Y-94593214D01*
X106303579Y-94582552D01*
X106302317Y-94574584D01*
X106302317Y-94425415D01*
X106303579Y-94417446D01*
X106303579Y-94406786D01*
X106311863Y-94365136D01*
X106325651Y-94278083D01*
X106334750Y-94250078D01*
X106339950Y-94223939D01*
X106355231Y-94187046D01*
X106371748Y-94136215D01*
X106396011Y-94088595D01*
X106411293Y-94051702D01*
X106426101Y-94029539D01*
X106439468Y-94003306D01*
X106491277Y-93931996D01*
X106514867Y-93896692D01*
X106522402Y-93889156D01*
X106527145Y-93882629D01*
X106632629Y-93777145D01*
X106639156Y-93772402D01*
X106646692Y-93764867D01*
X106681996Y-93741277D01*
X106753306Y-93689468D01*
X106779539Y-93676101D01*
X106801702Y-93661293D01*
X106838595Y-93646011D01*
X106886215Y-93621748D01*
X106937046Y-93605231D01*
X106973939Y-93589950D01*
X107000078Y-93584750D01*
X107028083Y-93575651D01*
X107115136Y-93561863D01*
X107156786Y-93553579D01*
X107167447Y-93553579D01*
X107175415Y-93552317D01*
X107324585Y-93552317D01*
X107332553Y-93553579D01*
G37*
G36*
X109832553Y-93553579D02*
G01*
X109843214Y-93553579D01*
X109884865Y-93561864D01*
X109971916Y-93575651D01*
X109999918Y-93584749D01*
X110026061Y-93589950D01*
X110062956Y-93605232D01*
X110113784Y-93621748D01*
X110161399Y-93646009D01*
X110198298Y-93661293D01*
X110220463Y-93676103D01*
X110246693Y-93689468D01*
X110317990Y-93741268D01*
X110353308Y-93764867D01*
X110360846Y-93772405D01*
X110367370Y-93777145D01*
X110472854Y-93882629D01*
X110477593Y-93889152D01*
X110485133Y-93896692D01*
X110508734Y-93932014D01*
X110560531Y-94003306D01*
X110573894Y-94029533D01*
X110588707Y-94051702D01*
X110603993Y-94088605D01*
X110628251Y-94136215D01*
X110644764Y-94187035D01*
X110660050Y-94223939D01*
X110665251Y-94250086D01*
X110674348Y-94278083D01*
X110688134Y-94365125D01*
X110696421Y-94406786D01*
X110696421Y-94417447D01*
X110697683Y-94425415D01*
X110697683Y-94574584D01*
X110696421Y-94582551D01*
X110696421Y-94593214D01*
X110688133Y-94634877D01*
X110674348Y-94721916D01*
X110665251Y-94749910D01*
X110660050Y-94776061D01*
X110644762Y-94812968D01*
X110628251Y-94863784D01*
X110603995Y-94911388D01*
X110588707Y-94948298D01*
X110573892Y-94970470D01*
X110560531Y-94996693D01*
X110508742Y-95067973D01*
X110485133Y-95103308D01*
X110477591Y-95110849D01*
X110472854Y-95117370D01*
X110367370Y-95222854D01*
X110360849Y-95227591D01*
X110353308Y-95235133D01*
X110317973Y-95258742D01*
X110246693Y-95310531D01*
X110220470Y-95323892D01*
X110198298Y-95338707D01*
X110161388Y-95353995D01*
X110113784Y-95378251D01*
X110062968Y-95394762D01*
X110026061Y-95410050D01*
X109999910Y-95415251D01*
X109971916Y-95424348D01*
X109884875Y-95438133D01*
X109843214Y-95446421D01*
X109832553Y-95446421D01*
X109824585Y-95447683D01*
X109675415Y-95447683D01*
X109667447Y-95446421D01*
X109656786Y-95446421D01*
X109615125Y-95438134D01*
X109528083Y-95424348D01*
X109500086Y-95415251D01*
X109473939Y-95410050D01*
X109437035Y-95394764D01*
X109386215Y-95378251D01*
X109338605Y-95353993D01*
X109301702Y-95338707D01*
X109279533Y-95323894D01*
X109253306Y-95310531D01*
X109182014Y-95258734D01*
X109146692Y-95235133D01*
X109139152Y-95227593D01*
X109132629Y-95222854D01*
X109027145Y-95117370D01*
X109022405Y-95110846D01*
X109014867Y-95103308D01*
X108991268Y-95067990D01*
X108939468Y-94996693D01*
X108926103Y-94970463D01*
X108911293Y-94948298D01*
X108896009Y-94911399D01*
X108871748Y-94863784D01*
X108855232Y-94812956D01*
X108839950Y-94776061D01*
X108834749Y-94749918D01*
X108825651Y-94721916D01*
X108811864Y-94634867D01*
X108803579Y-94593214D01*
X108803579Y-94582552D01*
X108802317Y-94574584D01*
X108802317Y-94425415D01*
X108803579Y-94417446D01*
X108803579Y-94406786D01*
X108811863Y-94365136D01*
X108825651Y-94278083D01*
X108834750Y-94250078D01*
X108839950Y-94223939D01*
X108855231Y-94187046D01*
X108871748Y-94136215D01*
X108896011Y-94088595D01*
X108911293Y-94051702D01*
X108926101Y-94029539D01*
X108939468Y-94003306D01*
X108991277Y-93931996D01*
X109014867Y-93896692D01*
X109022402Y-93889156D01*
X109027145Y-93882629D01*
X109132629Y-93777145D01*
X109139156Y-93772402D01*
X109146692Y-93764867D01*
X109181996Y-93741277D01*
X109253306Y-93689468D01*
X109279539Y-93676101D01*
X109301702Y-93661293D01*
X109338595Y-93646011D01*
X109386215Y-93621748D01*
X109437046Y-93605231D01*
X109473939Y-93589950D01*
X109500078Y-93584750D01*
X109528083Y-93575651D01*
X109615136Y-93561863D01*
X109656786Y-93553579D01*
X109667447Y-93553579D01*
X109675415Y-93552317D01*
X109824585Y-93552317D01*
X109832553Y-93553579D01*
G37*
G36*
X120654345Y-91333491D02*
G01*
X120799416Y-91393581D01*
X120929976Y-91480819D01*
X121041008Y-91591851D01*
X121128246Y-91722411D01*
X121188336Y-91867482D01*
X121218970Y-92021488D01*
X121222827Y-92100000D01*
X121222827Y-93900000D01*
X121218970Y-93978512D01*
X121188336Y-94132518D01*
X121128246Y-94277589D01*
X121041008Y-94408149D01*
X120929976Y-94519181D01*
X120799416Y-94606419D01*
X120654345Y-94666509D01*
X120500339Y-94697143D01*
X120343315Y-94697143D01*
X120189309Y-94666509D01*
X120044238Y-94606419D01*
X119913678Y-94519181D01*
X119802646Y-94408149D01*
X119715408Y-94277589D01*
X119655318Y-94132518D01*
X119624684Y-93978512D01*
X119620827Y-93900000D01*
X119620827Y-92100000D01*
X119624684Y-92021488D01*
X119655318Y-91867482D01*
X119715408Y-91722411D01*
X119802646Y-91591851D01*
X119913678Y-91480819D01*
X120044238Y-91393581D01*
X120189309Y-91333491D01*
X120343315Y-91302857D01*
X120500339Y-91302857D01*
X120654345Y-91333491D01*
G37*
G36*
X128954345Y-91333491D02*
G01*
X129099416Y-91393581D01*
X129229976Y-91480819D01*
X129341008Y-91591851D01*
X129428246Y-91722411D01*
X129488336Y-91867482D01*
X129518970Y-92021488D01*
X129522827Y-92100000D01*
X129522827Y-93900000D01*
X129518970Y-93978512D01*
X129488336Y-94132518D01*
X129428246Y-94277589D01*
X129341008Y-94408149D01*
X129229976Y-94519181D01*
X129099416Y-94606419D01*
X128954345Y-94666509D01*
X128800339Y-94697143D01*
X128643315Y-94697143D01*
X128489309Y-94666509D01*
X128344238Y-94606419D01*
X128213678Y-94519181D01*
X128102646Y-94408149D01*
X128015408Y-94277589D01*
X127955318Y-94132518D01*
X127924684Y-93978512D01*
X127920827Y-93900000D01*
X127920827Y-92100000D01*
X127924684Y-92021488D01*
X127955318Y-91867482D01*
X128015408Y-91722411D01*
X128102646Y-91591851D01*
X128213678Y-91480819D01*
X128344238Y-91393581D01*
X128489309Y-91333491D01*
X128643315Y-91302857D01*
X128800339Y-91302857D01*
X128954345Y-91333491D01*
G37*
G36*
X123909309Y-91453781D02*
G01*
X123920517Y-91453781D01*
X123975715Y-91462523D01*
X124101361Y-91479065D01*
X124132016Y-91487279D01*
X124160901Y-91491854D01*
X124216447Y-91509902D01*
X124297294Y-91531565D01*
X124348877Y-91552931D01*
X124392369Y-91567063D01*
X124433113Y-91587823D01*
X124484697Y-91609190D01*
X124557180Y-91651038D01*
X124609222Y-91677555D01*
X124632882Y-91694745D01*
X124660366Y-91710613D01*
X124760901Y-91787756D01*
X124806121Y-91820610D01*
X124814046Y-91828535D01*
X124821293Y-91834096D01*
X124964730Y-91977533D01*
X124970290Y-91984779D01*
X124978217Y-91992706D01*
X125011074Y-92037930D01*
X125088213Y-92138460D01*
X125104079Y-92165941D01*
X125121272Y-92189605D01*
X125147791Y-92241652D01*
X125189636Y-92314129D01*
X125211000Y-92365706D01*
X125231764Y-92406458D01*
X125245897Y-92449955D01*
X125267261Y-92501532D01*
X125288920Y-92582366D01*
X125306973Y-92637926D01*
X125311548Y-92666816D01*
X125319761Y-92697465D01*
X125336301Y-92823099D01*
X125345046Y-92878310D01*
X125345046Y-92889518D01*
X125346239Y-92898580D01*
X125346239Y-93101419D01*
X125345046Y-93110480D01*
X125345046Y-93121690D01*
X125336300Y-93176905D01*
X125319761Y-93302534D01*
X125311549Y-93333180D01*
X125306973Y-93362074D01*
X125288918Y-93417638D01*
X125267261Y-93498467D01*
X125245898Y-93550039D01*
X125231764Y-93593542D01*
X125210998Y-93634297D01*
X125189636Y-93685870D01*
X125147795Y-93758338D01*
X125121272Y-93810395D01*
X125104076Y-93834062D01*
X125088213Y-93861539D01*
X125011088Y-93962050D01*
X124978217Y-94007294D01*
X124970286Y-94015224D01*
X124964730Y-94022466D01*
X124821293Y-94165903D01*
X124814051Y-94171459D01*
X124806121Y-94179390D01*
X124760877Y-94212261D01*
X124660366Y-94289386D01*
X124632889Y-94305249D01*
X124609222Y-94322445D01*
X124557165Y-94348968D01*
X124484697Y-94390809D01*
X124433124Y-94412171D01*
X124392369Y-94432937D01*
X124348866Y-94447071D01*
X124297294Y-94468434D01*
X124216465Y-94490091D01*
X124160901Y-94508146D01*
X124132007Y-94512722D01*
X124101361Y-94520934D01*
X123975729Y-94537474D01*
X123920517Y-94546219D01*
X123909308Y-94546219D01*
X123900247Y-94547412D01*
X123697407Y-94547412D01*
X123688346Y-94546219D01*
X123677137Y-94546219D01*
X123621926Y-94537474D01*
X123496292Y-94520934D01*
X123465643Y-94512721D01*
X123436753Y-94508146D01*
X123381193Y-94490093D01*
X123300359Y-94468434D01*
X123248782Y-94447070D01*
X123205285Y-94432937D01*
X123164533Y-94412173D01*
X123112956Y-94390809D01*
X123040479Y-94348964D01*
X122988432Y-94322445D01*
X122964768Y-94305252D01*
X122937287Y-94289386D01*
X122836757Y-94212247D01*
X122791533Y-94179390D01*
X122783606Y-94171463D01*
X122776360Y-94165903D01*
X122632923Y-94022466D01*
X122627362Y-94015219D01*
X122619437Y-94007294D01*
X122586583Y-93962074D01*
X122509440Y-93861539D01*
X122493572Y-93834055D01*
X122476382Y-93810395D01*
X122449865Y-93758353D01*
X122408017Y-93685870D01*
X122386650Y-93634286D01*
X122365890Y-93593542D01*
X122351758Y-93550050D01*
X122330392Y-93498467D01*
X122308729Y-93417620D01*
X122290681Y-93362074D01*
X122286106Y-93333189D01*
X122277892Y-93302534D01*
X122261351Y-93176891D01*
X122252608Y-93121690D01*
X122252608Y-93110480D01*
X122251415Y-93101419D01*
X122251415Y-92898580D01*
X122252608Y-92889518D01*
X122252608Y-92878310D01*
X122261350Y-92823113D01*
X122277892Y-92697465D01*
X122286106Y-92666807D01*
X122290681Y-92637926D01*
X122308727Y-92582383D01*
X122330392Y-92501532D01*
X122351760Y-92449944D01*
X122365890Y-92406458D01*
X122386648Y-92365717D01*
X122408017Y-92314129D01*
X122449869Y-92241637D01*
X122476382Y-92189605D01*
X122493569Y-92165948D01*
X122509440Y-92138460D01*
X122586597Y-92037906D01*
X122619437Y-91992706D01*
X122627359Y-91984783D01*
X122632923Y-91977533D01*
X122776360Y-91834096D01*
X122783610Y-91828532D01*
X122791533Y-91820610D01*
X122836733Y-91787770D01*
X122937287Y-91710613D01*
X122964775Y-91694742D01*
X122988432Y-91677555D01*
X123040464Y-91651042D01*
X123112956Y-91609190D01*
X123164544Y-91587821D01*
X123205285Y-91567063D01*
X123248771Y-91552933D01*
X123300359Y-91531565D01*
X123381210Y-91509900D01*
X123436753Y-91491854D01*
X123465634Y-91487279D01*
X123496292Y-91479065D01*
X123621940Y-91462523D01*
X123677137Y-91453781D01*
X123688345Y-91453781D01*
X123697407Y-91452588D01*
X123900247Y-91452588D01*
X123909309Y-91453781D01*
G37*
G36*
X118256344Y-91987882D02*
G01*
X118272889Y-91998938D01*
X118283945Y-92015483D01*
X118287827Y-92035000D01*
X118287827Y-93965000D01*
X118283945Y-93984517D01*
X118272889Y-94001062D01*
X118256344Y-94012118D01*
X118236827Y-94016000D01*
X116406827Y-94016000D01*
X116387310Y-94012118D01*
X116370765Y-94001062D01*
X116359709Y-93984517D01*
X116355827Y-93965000D01*
X116355827Y-92035000D01*
X116359709Y-92015483D01*
X116370765Y-91998938D01*
X116387310Y-91987882D01*
X116406827Y-91984000D01*
X118236827Y-91984000D01*
X118256344Y-91987882D01*
G37*
G36*
X102900130Y-84988409D02*
G01*
X103159272Y-85057846D01*
X103407134Y-85160514D01*
X103639475Y-85294656D01*
X103852318Y-85457977D01*
X104042023Y-85647682D01*
X104205344Y-85860525D01*
X104339486Y-86092866D01*
X104442154Y-86340728D01*
X104511591Y-86599870D01*
X104546609Y-86865858D01*
X104546609Y-87134142D01*
X104511591Y-87400130D01*
X104442154Y-87659272D01*
X104339486Y-87907134D01*
X104205344Y-88139475D01*
X104042023Y-88352318D01*
X103852318Y-88542023D01*
X103639475Y-88705344D01*
X103407134Y-88839486D01*
X103159272Y-88942154D01*
X102900130Y-89011591D01*
X102634142Y-89046609D01*
X102365858Y-89046609D01*
X102099870Y-89011591D01*
X101840728Y-88942154D01*
X101592866Y-88839486D01*
X101360525Y-88705344D01*
X101147682Y-88542023D01*
X100957977Y-88352318D01*
X100794656Y-88139475D01*
X100660514Y-87907134D01*
X100557846Y-87659272D01*
X100488409Y-87400130D01*
X100453391Y-87134142D01*
X100453391Y-86865858D01*
X100488409Y-86599870D01*
X100557846Y-86340728D01*
X100660514Y-86092866D01*
X100794656Y-85860525D01*
X100957977Y-85647682D01*
X101147682Y-85457977D01*
X101360525Y-85294656D01*
X101592866Y-85160514D01*
X101840728Y-85057846D01*
X102099870Y-84988409D01*
X102365858Y-84953391D01*
X102634142Y-84953391D01*
X102900130Y-84988409D01*
G37*
G36*
X112400130Y-84988409D02*
G01*
X112659272Y-85057846D01*
X112907134Y-85160514D01*
X113139475Y-85294656D01*
X113352318Y-85457977D01*
X113542023Y-85647682D01*
X113705344Y-85860525D01*
X113839486Y-86092866D01*
X113942154Y-86340728D01*
X114011591Y-86599870D01*
X114046609Y-86865858D01*
X114046609Y-87134142D01*
X114011591Y-87400130D01*
X113942154Y-87659272D01*
X113839486Y-87907134D01*
X113705344Y-88139475D01*
X113542023Y-88352318D01*
X113352318Y-88542023D01*
X113139475Y-88705344D01*
X112907134Y-88839486D01*
X112659272Y-88942154D01*
X112400130Y-89011591D01*
X112134142Y-89046609D01*
X111865858Y-89046609D01*
X111599870Y-89011591D01*
X111340728Y-88942154D01*
X111092866Y-88839486D01*
X110860525Y-88705344D01*
X110647682Y-88542023D01*
X110457977Y-88352318D01*
X110294656Y-88139475D01*
X110160514Y-87907134D01*
X110057846Y-87659272D01*
X109988409Y-87400130D01*
X109953391Y-87134142D01*
X109953391Y-86865858D01*
X109988409Y-86599870D01*
X110057846Y-86340728D01*
X110160514Y-86092866D01*
X110294656Y-85860525D01*
X110457977Y-85647682D01*
X110647682Y-85457977D01*
X110860525Y-85294656D01*
X111092866Y-85160514D01*
X111340728Y-85057846D01*
X111599870Y-84988409D01*
X111865858Y-84953391D01*
X112134142Y-84953391D01*
X112400130Y-84988409D01*
G37*
G36*
X120654345Y-79333491D02*
G01*
X120799416Y-79393581D01*
X120929976Y-79480819D01*
X121041008Y-79591851D01*
X121128246Y-79722411D01*
X121188336Y-79867482D01*
X121218970Y-80021488D01*
X121222827Y-80100000D01*
X121222827Y-81900000D01*
X121218970Y-81978512D01*
X121188336Y-82132518D01*
X121128246Y-82277589D01*
X121041008Y-82408149D01*
X120929976Y-82519181D01*
X120799416Y-82606419D01*
X120654345Y-82666509D01*
X120500339Y-82697143D01*
X120343315Y-82697143D01*
X120189309Y-82666509D01*
X120044238Y-82606419D01*
X119913678Y-82519181D01*
X119802646Y-82408149D01*
X119715408Y-82277589D01*
X119655318Y-82132518D01*
X119624684Y-81978512D01*
X119620827Y-81900000D01*
X119620827Y-80100000D01*
X119624684Y-80021488D01*
X119655318Y-79867482D01*
X119715408Y-79722411D01*
X119802646Y-79591851D01*
X119913678Y-79480819D01*
X120044238Y-79393581D01*
X120189309Y-79333491D01*
X120343315Y-79302857D01*
X120500339Y-79302857D01*
X120654345Y-79333491D01*
G37*
G36*
X128954345Y-79333491D02*
G01*
X129099416Y-79393581D01*
X129229976Y-79480819D01*
X129341008Y-79591851D01*
X129428246Y-79722411D01*
X129488336Y-79867482D01*
X129518970Y-80021488D01*
X129522827Y-80100000D01*
X129522827Y-81900000D01*
X129518970Y-81978512D01*
X129488336Y-82132518D01*
X129428246Y-82277589D01*
X129341008Y-82408149D01*
X129229976Y-82519181D01*
X129099416Y-82606419D01*
X128954345Y-82666509D01*
X128800339Y-82697143D01*
X128643315Y-82697143D01*
X128489309Y-82666509D01*
X128344238Y-82606419D01*
X128213678Y-82519181D01*
X128102646Y-82408149D01*
X128015408Y-82277589D01*
X127955318Y-82132518D01*
X127924684Y-81978512D01*
X127920827Y-81900000D01*
X127920827Y-80100000D01*
X127924684Y-80021488D01*
X127955318Y-79867482D01*
X128015408Y-79722411D01*
X128102646Y-79591851D01*
X128213678Y-79480819D01*
X128344238Y-79393581D01*
X128489309Y-79333491D01*
X128643315Y-79302857D01*
X128800339Y-79302857D01*
X128954345Y-79333491D01*
G37*
G36*
X123909309Y-79453781D02*
G01*
X123920517Y-79453781D01*
X123975715Y-79462523D01*
X124101361Y-79479065D01*
X124132016Y-79487279D01*
X124160901Y-79491854D01*
X124216447Y-79509902D01*
X124297294Y-79531565D01*
X124348877Y-79552931D01*
X124392369Y-79567063D01*
X124433113Y-79587823D01*
X124484697Y-79609190D01*
X124557180Y-79651038D01*
X124609222Y-79677555D01*
X124632882Y-79694745D01*
X124660366Y-79710613D01*
X124760901Y-79787756D01*
X124806121Y-79820610D01*
X124814046Y-79828535D01*
X124821293Y-79834096D01*
X124964730Y-79977533D01*
X124970290Y-79984779D01*
X124978217Y-79992706D01*
X125011074Y-80037930D01*
X125088213Y-80138460D01*
X125104079Y-80165941D01*
X125121272Y-80189605D01*
X125147791Y-80241652D01*
X125189636Y-80314129D01*
X125211000Y-80365706D01*
X125231764Y-80406458D01*
X125245897Y-80449955D01*
X125267261Y-80501532D01*
X125288920Y-80582366D01*
X125306973Y-80637926D01*
X125311548Y-80666816D01*
X125319761Y-80697465D01*
X125336301Y-80823099D01*
X125345046Y-80878310D01*
X125345046Y-80889518D01*
X125346239Y-80898580D01*
X125346239Y-81101419D01*
X125345046Y-81110480D01*
X125345046Y-81121690D01*
X125336300Y-81176905D01*
X125319761Y-81302534D01*
X125311549Y-81333180D01*
X125306973Y-81362074D01*
X125288918Y-81417638D01*
X125267261Y-81498467D01*
X125245898Y-81550039D01*
X125231764Y-81593542D01*
X125210998Y-81634297D01*
X125189636Y-81685870D01*
X125147795Y-81758338D01*
X125121272Y-81810395D01*
X125104076Y-81834062D01*
X125088213Y-81861539D01*
X125011088Y-81962050D01*
X124978217Y-82007294D01*
X124970286Y-82015224D01*
X124964730Y-82022466D01*
X124821293Y-82165903D01*
X124814051Y-82171459D01*
X124806121Y-82179390D01*
X124760877Y-82212261D01*
X124660366Y-82289386D01*
X124632889Y-82305249D01*
X124609222Y-82322445D01*
X124557165Y-82348968D01*
X124484697Y-82390809D01*
X124433124Y-82412171D01*
X124392369Y-82432937D01*
X124348866Y-82447071D01*
X124297294Y-82468434D01*
X124216465Y-82490091D01*
X124160901Y-82508146D01*
X124132007Y-82512722D01*
X124101361Y-82520934D01*
X123975729Y-82537474D01*
X123920517Y-82546219D01*
X123909308Y-82546219D01*
X123900247Y-82547412D01*
X123697407Y-82547412D01*
X123688346Y-82546219D01*
X123677137Y-82546219D01*
X123621926Y-82537474D01*
X123496292Y-82520934D01*
X123465643Y-82512721D01*
X123436753Y-82508146D01*
X123381193Y-82490093D01*
X123300359Y-82468434D01*
X123248782Y-82447070D01*
X123205285Y-82432937D01*
X123164533Y-82412173D01*
X123112956Y-82390809D01*
X123040479Y-82348964D01*
X122988432Y-82322445D01*
X122964768Y-82305252D01*
X122937287Y-82289386D01*
X122836757Y-82212247D01*
X122791533Y-82179390D01*
X122783606Y-82171463D01*
X122776360Y-82165903D01*
X122632923Y-82022466D01*
X122627362Y-82015219D01*
X122619437Y-82007294D01*
X122586583Y-81962074D01*
X122509440Y-81861539D01*
X122493572Y-81834055D01*
X122476382Y-81810395D01*
X122449865Y-81758353D01*
X122408017Y-81685870D01*
X122386650Y-81634286D01*
X122365890Y-81593542D01*
X122351758Y-81550050D01*
X122330392Y-81498467D01*
X122308729Y-81417620D01*
X122290681Y-81362074D01*
X122286106Y-81333189D01*
X122277892Y-81302534D01*
X122261351Y-81176891D01*
X122252608Y-81121690D01*
X122252608Y-81110480D01*
X122251415Y-81101419D01*
X122251415Y-80898580D01*
X122252608Y-80889518D01*
X122252608Y-80878310D01*
X122261350Y-80823113D01*
X122277892Y-80697465D01*
X122286106Y-80666807D01*
X122290681Y-80637926D01*
X122308727Y-80582383D01*
X122330392Y-80501532D01*
X122351760Y-80449944D01*
X122365890Y-80406458D01*
X122386648Y-80365717D01*
X122408017Y-80314129D01*
X122449869Y-80241637D01*
X122476382Y-80189605D01*
X122493569Y-80165948D01*
X122509440Y-80138460D01*
X122586597Y-80037906D01*
X122619437Y-79992706D01*
X122627359Y-79984783D01*
X122632923Y-79977533D01*
X122776360Y-79834096D01*
X122783610Y-79828532D01*
X122791533Y-79820610D01*
X122836733Y-79787770D01*
X122937287Y-79710613D01*
X122964775Y-79694742D01*
X122988432Y-79677555D01*
X123040464Y-79651042D01*
X123112956Y-79609190D01*
X123164544Y-79587821D01*
X123205285Y-79567063D01*
X123248771Y-79552933D01*
X123300359Y-79531565D01*
X123381210Y-79509900D01*
X123436753Y-79491854D01*
X123465634Y-79487279D01*
X123496292Y-79479065D01*
X123621940Y-79462523D01*
X123677137Y-79453781D01*
X123688345Y-79453781D01*
X123697407Y-79452588D01*
X123900247Y-79452588D01*
X123909309Y-79453781D01*
G37*
G36*
X118256344Y-79987882D02*
G01*
X118272889Y-79998938D01*
X118283945Y-80015483D01*
X118287827Y-80035000D01*
X118287827Y-81965000D01*
X118283945Y-81984517D01*
X118272889Y-82001062D01*
X118256344Y-82012118D01*
X118236827Y-82016000D01*
X116406827Y-82016000D01*
X116387310Y-82012118D01*
X116370765Y-82001062D01*
X116359709Y-81984517D01*
X116355827Y-81965000D01*
X116355827Y-80035000D01*
X116359709Y-80015483D01*
X116370765Y-79998938D01*
X116387310Y-79987882D01*
X116406827Y-79984000D01*
X118236827Y-79984000D01*
X118256344Y-79987882D01*
G37*
G36*
X116369517Y-74602882D02*
G01*
X116386062Y-74613938D01*
X116397118Y-74630483D01*
X116401000Y-74650000D01*
X116401000Y-76350000D01*
X116397118Y-76369517D01*
X116386062Y-76386062D01*
X116369517Y-76397118D01*
X116350000Y-76401000D01*
X114650000Y-76401000D01*
X114630483Y-76397118D01*
X114613938Y-76386062D01*
X114602882Y-76369517D01*
X114599000Y-76350000D01*
X114599000Y-74650000D01*
X114602882Y-74630483D01*
X114613938Y-74613938D01*
X114630483Y-74602882D01*
X114650000Y-74599000D01*
X116350000Y-74599000D01*
X116369517Y-74602882D01*
G37*
G36*
X105601546Y-74637797D02*
G01*
X105764728Y-74705389D01*
X105911588Y-74803518D01*
X106036482Y-74928412D01*
X106134611Y-75075272D01*
X106202203Y-75238454D01*
X106236661Y-75411687D01*
X106236661Y-75588313D01*
X106202203Y-75761546D01*
X106134611Y-75924728D01*
X106036482Y-76071588D01*
X105911588Y-76196482D01*
X105764728Y-76294611D01*
X105601546Y-76362203D01*
X105428313Y-76396661D01*
X105251687Y-76396661D01*
X105078454Y-76362203D01*
X104915272Y-76294611D01*
X104768412Y-76196482D01*
X104643518Y-76071588D01*
X104545389Y-75924728D01*
X104477797Y-75761546D01*
X104443339Y-75588313D01*
X104443339Y-75411687D01*
X104477797Y-75238454D01*
X104545389Y-75075272D01*
X104643518Y-74928412D01*
X104768412Y-74803518D01*
X104915272Y-74705389D01*
X105078454Y-74637797D01*
X105251687Y-74603339D01*
X105428313Y-74603339D01*
X105601546Y-74637797D01*
G37*
G36*
X108141546Y-74637797D02*
G01*
X108304728Y-74705389D01*
X108451588Y-74803518D01*
X108576482Y-74928412D01*
X108674611Y-75075272D01*
X108742203Y-75238454D01*
X108776661Y-75411687D01*
X108776661Y-75588313D01*
X108742203Y-75761546D01*
X108674611Y-75924728D01*
X108576482Y-76071588D01*
X108451588Y-76196482D01*
X108304728Y-76294611D01*
X108141546Y-76362203D01*
X107968313Y-76396661D01*
X107791687Y-76396661D01*
X107618454Y-76362203D01*
X107455272Y-76294611D01*
X107308412Y-76196482D01*
X107183518Y-76071588D01*
X107085389Y-75924728D01*
X107017797Y-75761546D01*
X106983339Y-75588313D01*
X106983339Y-75411687D01*
X107017797Y-75238454D01*
X107085389Y-75075272D01*
X107183518Y-74928412D01*
X107308412Y-74803518D01*
X107455272Y-74705389D01*
X107618454Y-74637797D01*
X107791687Y-74603339D01*
X107968313Y-74603339D01*
X108141546Y-74637797D01*
G37*
G36*
X110681546Y-74637797D02*
G01*
X110844728Y-74705389D01*
X110991588Y-74803518D01*
X111116482Y-74928412D01*
X111214611Y-75075272D01*
X111282203Y-75238454D01*
X111316661Y-75411687D01*
X111316661Y-75588313D01*
X111282203Y-75761546D01*
X111214611Y-75924728D01*
X111116482Y-76071588D01*
X110991588Y-76196482D01*
X110844728Y-76294611D01*
X110681546Y-76362203D01*
X110508313Y-76396661D01*
X110331687Y-76396661D01*
X110158454Y-76362203D01*
X109995272Y-76294611D01*
X109848412Y-76196482D01*
X109723518Y-76071588D01*
X109625389Y-75924728D01*
X109557797Y-75761546D01*
X109523339Y-75588313D01*
X109523339Y-75411687D01*
X109557797Y-75238454D01*
X109625389Y-75075272D01*
X109723518Y-74928412D01*
X109848412Y-74803518D01*
X109995272Y-74705389D01*
X110158454Y-74637797D01*
X110331687Y-74603339D01*
X110508313Y-74603339D01*
X110681546Y-74637797D01*
G37*
G36*
X113221546Y-74637797D02*
G01*
X113384728Y-74705389D01*
X113531588Y-74803518D01*
X113656482Y-74928412D01*
X113754611Y-75075272D01*
X113822203Y-75238454D01*
X113856661Y-75411687D01*
X113856661Y-75588313D01*
X113822203Y-75761546D01*
X113754611Y-75924728D01*
X113656482Y-76071588D01*
X113531588Y-76196482D01*
X113384728Y-76294611D01*
X113221546Y-76362203D01*
X113048313Y-76396661D01*
X112871687Y-76396661D01*
X112698454Y-76362203D01*
X112535272Y-76294611D01*
X112388412Y-76196482D01*
X112263518Y-76071588D01*
X112165389Y-75924728D01*
X112097797Y-75761546D01*
X112063339Y-75588313D01*
X112063339Y-75411687D01*
X112097797Y-75238454D01*
X112165389Y-75075272D01*
X112263518Y-74928412D01*
X112388412Y-74803518D01*
X112535272Y-74705389D01*
X112698454Y-74637797D01*
X112871687Y-74603339D01*
X113048313Y-74603339D01*
X113221546Y-74637797D01*
G37*
G36*
X105601546Y-72097797D02*
G01*
X105764728Y-72165389D01*
X105911588Y-72263518D01*
X106036482Y-72388412D01*
X106134611Y-72535272D01*
X106202203Y-72698454D01*
X106236661Y-72871687D01*
X106236661Y-73048313D01*
X106202203Y-73221546D01*
X106134611Y-73384728D01*
X106036482Y-73531588D01*
X105911588Y-73656482D01*
X105764728Y-73754611D01*
X105601546Y-73822203D01*
X105428313Y-73856661D01*
X105251687Y-73856661D01*
X105078454Y-73822203D01*
X104915272Y-73754611D01*
X104768412Y-73656482D01*
X104643518Y-73531588D01*
X104545389Y-73384728D01*
X104477797Y-73221546D01*
X104443339Y-73048313D01*
X104443339Y-72871687D01*
X104477797Y-72698454D01*
X104545389Y-72535272D01*
X104643518Y-72388412D01*
X104768412Y-72263518D01*
X104915272Y-72165389D01*
X105078454Y-72097797D01*
X105251687Y-72063339D01*
X105428313Y-72063339D01*
X105601546Y-72097797D01*
G37*
G36*
X108141546Y-72097797D02*
G01*
X108304728Y-72165389D01*
X108451588Y-72263518D01*
X108576482Y-72388412D01*
X108674611Y-72535272D01*
X108742203Y-72698454D01*
X108776661Y-72871687D01*
X108776661Y-73048313D01*
X108742203Y-73221546D01*
X108674611Y-73384728D01*
X108576482Y-73531588D01*
X108451588Y-73656482D01*
X108304728Y-73754611D01*
X108141546Y-73822203D01*
X107968313Y-73856661D01*
X107791687Y-73856661D01*
X107618454Y-73822203D01*
X107455272Y-73754611D01*
X107308412Y-73656482D01*
X107183518Y-73531588D01*
X107085389Y-73384728D01*
X107017797Y-73221546D01*
X106983339Y-73048313D01*
X106983339Y-72871687D01*
X107017797Y-72698454D01*
X107085389Y-72535272D01*
X107183518Y-72388412D01*
X107308412Y-72263518D01*
X107455272Y-72165389D01*
X107618454Y-72097797D01*
X107791687Y-72063339D01*
X107968313Y-72063339D01*
X108141546Y-72097797D01*
G37*
G36*
X110681546Y-72097797D02*
G01*
X110844728Y-72165389D01*
X110991588Y-72263518D01*
X111116482Y-72388412D01*
X111214611Y-72535272D01*
X111282203Y-72698454D01*
X111316661Y-72871687D01*
X111316661Y-73048313D01*
X111282203Y-73221546D01*
X111214611Y-73384728D01*
X111116482Y-73531588D01*
X110991588Y-73656482D01*
X110844728Y-73754611D01*
X110681546Y-73822203D01*
X110508313Y-73856661D01*
X110331687Y-73856661D01*
X110158454Y-73822203D01*
X109995272Y-73754611D01*
X109848412Y-73656482D01*
X109723518Y-73531588D01*
X109625389Y-73384728D01*
X109557797Y-73221546D01*
X109523339Y-73048313D01*
X109523339Y-72871687D01*
X109557797Y-72698454D01*
X109625389Y-72535272D01*
X109723518Y-72388412D01*
X109848412Y-72263518D01*
X109995272Y-72165389D01*
X110158454Y-72097797D01*
X110331687Y-72063339D01*
X110508313Y-72063339D01*
X110681546Y-72097797D01*
G37*
G36*
X113221546Y-72097797D02*
G01*
X113384728Y-72165389D01*
X113531588Y-72263518D01*
X113656482Y-72388412D01*
X113754611Y-72535272D01*
X113822203Y-72698454D01*
X113856661Y-72871687D01*
X113856661Y-73048313D01*
X113822203Y-73221546D01*
X113754611Y-73384728D01*
X113656482Y-73531588D01*
X113531588Y-73656482D01*
X113384728Y-73754611D01*
X113221546Y-73822203D01*
X113048313Y-73856661D01*
X112871687Y-73856661D01*
X112698454Y-73822203D01*
X112535272Y-73754611D01*
X112388412Y-73656482D01*
X112263518Y-73531588D01*
X112165389Y-73384728D01*
X112097797Y-73221546D01*
X112063339Y-73048313D01*
X112063339Y-72871687D01*
X112097797Y-72698454D01*
X112165389Y-72535272D01*
X112263518Y-72388412D01*
X112388412Y-72263518D01*
X112535272Y-72165389D01*
X112698454Y-72097797D01*
X112871687Y-72063339D01*
X113048313Y-72063339D01*
X113221546Y-72097797D01*
G37*
G36*
X115761546Y-72097797D02*
G01*
X115924728Y-72165389D01*
X116071588Y-72263518D01*
X116196482Y-72388412D01*
X116294611Y-72535272D01*
X116362203Y-72698454D01*
X116396661Y-72871687D01*
X116396661Y-73048313D01*
X116362203Y-73221546D01*
X116294611Y-73384728D01*
X116196482Y-73531588D01*
X116071588Y-73656482D01*
X115924728Y-73754611D01*
X115761546Y-73822203D01*
X115588313Y-73856661D01*
X115411687Y-73856661D01*
X115238454Y-73822203D01*
X115075272Y-73754611D01*
X114928412Y-73656482D01*
X114803518Y-73531588D01*
X114705389Y-73384728D01*
X114637797Y-73221546D01*
X114603339Y-73048313D01*
X114603339Y-72871687D01*
X114637797Y-72698454D01*
X114705389Y-72535272D01*
X114803518Y-72388412D01*
X114928412Y-72263518D01*
X115075272Y-72165389D01*
X115238454Y-72097797D01*
X115411687Y-72063339D01*
X115588313Y-72063339D01*
X115761546Y-72097797D01*
G37*
G36*
X104832553Y-67553579D02*
G01*
X104843214Y-67553579D01*
X104884865Y-67561864D01*
X104971916Y-67575651D01*
X104999918Y-67584749D01*
X105026061Y-67589950D01*
X105062956Y-67605232D01*
X105113784Y-67621748D01*
X105161399Y-67646009D01*
X105198298Y-67661293D01*
X105220463Y-67676103D01*
X105246693Y-67689468D01*
X105317990Y-67741268D01*
X105353308Y-67764867D01*
X105360846Y-67772405D01*
X105367370Y-67777145D01*
X105472854Y-67882629D01*
X105477593Y-67889152D01*
X105485133Y-67896692D01*
X105508734Y-67932014D01*
X105560531Y-68003306D01*
X105573894Y-68029533D01*
X105588707Y-68051702D01*
X105603993Y-68088605D01*
X105628251Y-68136215D01*
X105644764Y-68187035D01*
X105660050Y-68223939D01*
X105665251Y-68250086D01*
X105674348Y-68278083D01*
X105688134Y-68365125D01*
X105696421Y-68406786D01*
X105696421Y-68417447D01*
X105697683Y-68425415D01*
X105697683Y-68574584D01*
X105696421Y-68582551D01*
X105696421Y-68593214D01*
X105688133Y-68634877D01*
X105674348Y-68721916D01*
X105665251Y-68749910D01*
X105660050Y-68776061D01*
X105644762Y-68812968D01*
X105628251Y-68863784D01*
X105603995Y-68911388D01*
X105588707Y-68948298D01*
X105573892Y-68970470D01*
X105560531Y-68996693D01*
X105508742Y-69067973D01*
X105485133Y-69103308D01*
X105477591Y-69110849D01*
X105472854Y-69117370D01*
X105367370Y-69222854D01*
X105360849Y-69227591D01*
X105353308Y-69235133D01*
X105317973Y-69258742D01*
X105246693Y-69310531D01*
X105220470Y-69323892D01*
X105198298Y-69338707D01*
X105161388Y-69353995D01*
X105113784Y-69378251D01*
X105062968Y-69394762D01*
X105026061Y-69410050D01*
X104999910Y-69415251D01*
X104971916Y-69424348D01*
X104884875Y-69438133D01*
X104843214Y-69446421D01*
X104832553Y-69446421D01*
X104824585Y-69447683D01*
X104675415Y-69447683D01*
X104667447Y-69446421D01*
X104656786Y-69446421D01*
X104615125Y-69438134D01*
X104528083Y-69424348D01*
X104500086Y-69415251D01*
X104473939Y-69410050D01*
X104437035Y-69394764D01*
X104386215Y-69378251D01*
X104338605Y-69353993D01*
X104301702Y-69338707D01*
X104279533Y-69323894D01*
X104253306Y-69310531D01*
X104182014Y-69258734D01*
X104146692Y-69235133D01*
X104139152Y-69227593D01*
X104132629Y-69222854D01*
X104027145Y-69117370D01*
X104022405Y-69110846D01*
X104014867Y-69103308D01*
X103991268Y-69067990D01*
X103939468Y-68996693D01*
X103926103Y-68970463D01*
X103911293Y-68948298D01*
X103896009Y-68911399D01*
X103871748Y-68863784D01*
X103855232Y-68812956D01*
X103839950Y-68776061D01*
X103834749Y-68749918D01*
X103825651Y-68721916D01*
X103811864Y-68634867D01*
X103803579Y-68593214D01*
X103803579Y-68582552D01*
X103802317Y-68574584D01*
X103802317Y-68425415D01*
X103803579Y-68417446D01*
X103803579Y-68406786D01*
X103811863Y-68365136D01*
X103825651Y-68278083D01*
X103834750Y-68250078D01*
X103839950Y-68223939D01*
X103855231Y-68187046D01*
X103871748Y-68136215D01*
X103896011Y-68088595D01*
X103911293Y-68051702D01*
X103926101Y-68029539D01*
X103939468Y-68003306D01*
X103991277Y-67931996D01*
X104014867Y-67896692D01*
X104022402Y-67889156D01*
X104027145Y-67882629D01*
X104132629Y-67777145D01*
X104139156Y-67772402D01*
X104146692Y-67764867D01*
X104181996Y-67741277D01*
X104253306Y-67689468D01*
X104279539Y-67676101D01*
X104301702Y-67661293D01*
X104338595Y-67646011D01*
X104386215Y-67621748D01*
X104437046Y-67605231D01*
X104473939Y-67589950D01*
X104500078Y-67584750D01*
X104528083Y-67575651D01*
X104615136Y-67561863D01*
X104656786Y-67553579D01*
X104667447Y-67553579D01*
X104675415Y-67552317D01*
X104824585Y-67552317D01*
X104832553Y-67553579D01*
G37*
G36*
X107332553Y-67553579D02*
G01*
X107343214Y-67553579D01*
X107384865Y-67561864D01*
X107471916Y-67575651D01*
X107499918Y-67584749D01*
X107526061Y-67589950D01*
X107562956Y-67605232D01*
X107613784Y-67621748D01*
X107661399Y-67646009D01*
X107698298Y-67661293D01*
X107720463Y-67676103D01*
X107746693Y-67689468D01*
X107817990Y-67741268D01*
X107853308Y-67764867D01*
X107860846Y-67772405D01*
X107867370Y-67777145D01*
X107972854Y-67882629D01*
X107977593Y-67889152D01*
X107985133Y-67896692D01*
X108008734Y-67932014D01*
X108060531Y-68003306D01*
X108073894Y-68029533D01*
X108088707Y-68051702D01*
X108103993Y-68088605D01*
X108128251Y-68136215D01*
X108144764Y-68187035D01*
X108160050Y-68223939D01*
X108165251Y-68250086D01*
X108174348Y-68278083D01*
X108188134Y-68365125D01*
X108196421Y-68406786D01*
X108196421Y-68417447D01*
X108197683Y-68425415D01*
X108197683Y-68574584D01*
X108196421Y-68582551D01*
X108196421Y-68593214D01*
X108188133Y-68634877D01*
X108174348Y-68721916D01*
X108165251Y-68749910D01*
X108160050Y-68776061D01*
X108144762Y-68812968D01*
X108128251Y-68863784D01*
X108103995Y-68911388D01*
X108088707Y-68948298D01*
X108073892Y-68970470D01*
X108060531Y-68996693D01*
X108008742Y-69067973D01*
X107985133Y-69103308D01*
X107977591Y-69110849D01*
X107972854Y-69117370D01*
X107867370Y-69222854D01*
X107860849Y-69227591D01*
X107853308Y-69235133D01*
X107817973Y-69258742D01*
X107746693Y-69310531D01*
X107720470Y-69323892D01*
X107698298Y-69338707D01*
X107661388Y-69353995D01*
X107613784Y-69378251D01*
X107562968Y-69394762D01*
X107526061Y-69410050D01*
X107499910Y-69415251D01*
X107471916Y-69424348D01*
X107384875Y-69438133D01*
X107343214Y-69446421D01*
X107332553Y-69446421D01*
X107324585Y-69447683D01*
X107175415Y-69447683D01*
X107167447Y-69446421D01*
X107156786Y-69446421D01*
X107115125Y-69438134D01*
X107028083Y-69424348D01*
X107000086Y-69415251D01*
X106973939Y-69410050D01*
X106937035Y-69394764D01*
X106886215Y-69378251D01*
X106838605Y-69353993D01*
X106801702Y-69338707D01*
X106779533Y-69323894D01*
X106753306Y-69310531D01*
X106682014Y-69258734D01*
X106646692Y-69235133D01*
X106639152Y-69227593D01*
X106632629Y-69222854D01*
X106527145Y-69117370D01*
X106522405Y-69110846D01*
X106514867Y-69103308D01*
X106491268Y-69067990D01*
X106439468Y-68996693D01*
X106426103Y-68970463D01*
X106411293Y-68948298D01*
X106396009Y-68911399D01*
X106371748Y-68863784D01*
X106355232Y-68812956D01*
X106339950Y-68776061D01*
X106334749Y-68749918D01*
X106325651Y-68721916D01*
X106311864Y-68634867D01*
X106303579Y-68593214D01*
X106303579Y-68582552D01*
X106302317Y-68574584D01*
X106302317Y-68425415D01*
X106303579Y-68417446D01*
X106303579Y-68406786D01*
X106311863Y-68365136D01*
X106325651Y-68278083D01*
X106334750Y-68250078D01*
X106339950Y-68223939D01*
X106355231Y-68187046D01*
X106371748Y-68136215D01*
X106396011Y-68088595D01*
X106411293Y-68051702D01*
X106426101Y-68029539D01*
X106439468Y-68003306D01*
X106491277Y-67931996D01*
X106514867Y-67896692D01*
X106522402Y-67889156D01*
X106527145Y-67882629D01*
X106632629Y-67777145D01*
X106639156Y-67772402D01*
X106646692Y-67764867D01*
X106681996Y-67741277D01*
X106753306Y-67689468D01*
X106779539Y-67676101D01*
X106801702Y-67661293D01*
X106838595Y-67646011D01*
X106886215Y-67621748D01*
X106937046Y-67605231D01*
X106973939Y-67589950D01*
X107000078Y-67584750D01*
X107028083Y-67575651D01*
X107115136Y-67561863D01*
X107156786Y-67553579D01*
X107167447Y-67553579D01*
X107175415Y-67552317D01*
X107324585Y-67552317D01*
X107332553Y-67553579D01*
G37*
G36*
X109832553Y-67553579D02*
G01*
X109843214Y-67553579D01*
X109884865Y-67561864D01*
X109971916Y-67575651D01*
X109999918Y-67584749D01*
X110026061Y-67589950D01*
X110062956Y-67605232D01*
X110113784Y-67621748D01*
X110161399Y-67646009D01*
X110198298Y-67661293D01*
X110220463Y-67676103D01*
X110246693Y-67689468D01*
X110317990Y-67741268D01*
X110353308Y-67764867D01*
X110360846Y-67772405D01*
X110367370Y-67777145D01*
X110472854Y-67882629D01*
X110477593Y-67889152D01*
X110485133Y-67896692D01*
X110508734Y-67932014D01*
X110560531Y-68003306D01*
X110573894Y-68029533D01*
X110588707Y-68051702D01*
X110603993Y-68088605D01*
X110628251Y-68136215D01*
X110644764Y-68187035D01*
X110660050Y-68223939D01*
X110665251Y-68250086D01*
X110674348Y-68278083D01*
X110688134Y-68365125D01*
X110696421Y-68406786D01*
X110696421Y-68417447D01*
X110697683Y-68425415D01*
X110697683Y-68574584D01*
X110696421Y-68582551D01*
X110696421Y-68593214D01*
X110688133Y-68634877D01*
X110674348Y-68721916D01*
X110665251Y-68749910D01*
X110660050Y-68776061D01*
X110644762Y-68812968D01*
X110628251Y-68863784D01*
X110603995Y-68911388D01*
X110588707Y-68948298D01*
X110573892Y-68970470D01*
X110560531Y-68996693D01*
X110508742Y-69067973D01*
X110485133Y-69103308D01*
X110477591Y-69110849D01*
X110472854Y-69117370D01*
X110367370Y-69222854D01*
X110360849Y-69227591D01*
X110353308Y-69235133D01*
X110317973Y-69258742D01*
X110246693Y-69310531D01*
X110220470Y-69323892D01*
X110198298Y-69338707D01*
X110161388Y-69353995D01*
X110113784Y-69378251D01*
X110062968Y-69394762D01*
X110026061Y-69410050D01*
X109999910Y-69415251D01*
X109971916Y-69424348D01*
X109884875Y-69438133D01*
X109843214Y-69446421D01*
X109832553Y-69446421D01*
X109824585Y-69447683D01*
X109675415Y-69447683D01*
X109667447Y-69446421D01*
X109656786Y-69446421D01*
X109615125Y-69438134D01*
X109528083Y-69424348D01*
X109500086Y-69415251D01*
X109473939Y-69410050D01*
X109437035Y-69394764D01*
X109386215Y-69378251D01*
X109338605Y-69353993D01*
X109301702Y-69338707D01*
X109279533Y-69323894D01*
X109253306Y-69310531D01*
X109182014Y-69258734D01*
X109146692Y-69235133D01*
X109139152Y-69227593D01*
X109132629Y-69222854D01*
X109027145Y-69117370D01*
X109022405Y-69110846D01*
X109014867Y-69103308D01*
X108991268Y-69067990D01*
X108939468Y-68996693D01*
X108926103Y-68970463D01*
X108911293Y-68948298D01*
X108896009Y-68911399D01*
X108871748Y-68863784D01*
X108855232Y-68812956D01*
X108839950Y-68776061D01*
X108834749Y-68749918D01*
X108825651Y-68721916D01*
X108811864Y-68634867D01*
X108803579Y-68593214D01*
X108803579Y-68582552D01*
X108802317Y-68574584D01*
X108802317Y-68425415D01*
X108803579Y-68417446D01*
X108803579Y-68406786D01*
X108811863Y-68365136D01*
X108825651Y-68278083D01*
X108834750Y-68250078D01*
X108839950Y-68223939D01*
X108855231Y-68187046D01*
X108871748Y-68136215D01*
X108896011Y-68088595D01*
X108911293Y-68051702D01*
X108926101Y-68029539D01*
X108939468Y-68003306D01*
X108991277Y-67931996D01*
X109014867Y-67896692D01*
X109022402Y-67889156D01*
X109027145Y-67882629D01*
X109132629Y-67777145D01*
X109139156Y-67772402D01*
X109146692Y-67764867D01*
X109181996Y-67741277D01*
X109253306Y-67689468D01*
X109279539Y-67676101D01*
X109301702Y-67661293D01*
X109338595Y-67646011D01*
X109386215Y-67621748D01*
X109437046Y-67605231D01*
X109473939Y-67589950D01*
X109500078Y-67584750D01*
X109528083Y-67575651D01*
X109615136Y-67561863D01*
X109656786Y-67553579D01*
X109667447Y-67553579D01*
X109675415Y-67552317D01*
X109824585Y-67552317D01*
X109832553Y-67553579D01*
G37*
G36*
X120654345Y-65333491D02*
G01*
X120799416Y-65393581D01*
X120929976Y-65480819D01*
X121041008Y-65591851D01*
X121128246Y-65722411D01*
X121188336Y-65867482D01*
X121218970Y-66021488D01*
X121222827Y-66100000D01*
X121222827Y-67900000D01*
X121218970Y-67978512D01*
X121188336Y-68132518D01*
X121128246Y-68277589D01*
X121041008Y-68408149D01*
X120929976Y-68519181D01*
X120799416Y-68606419D01*
X120654345Y-68666509D01*
X120500339Y-68697143D01*
X120343315Y-68697143D01*
X120189309Y-68666509D01*
X120044238Y-68606419D01*
X119913678Y-68519181D01*
X119802646Y-68408149D01*
X119715408Y-68277589D01*
X119655318Y-68132518D01*
X119624684Y-67978512D01*
X119620827Y-67900000D01*
X119620827Y-66100000D01*
X119624684Y-66021488D01*
X119655318Y-65867482D01*
X119715408Y-65722411D01*
X119802646Y-65591851D01*
X119913678Y-65480819D01*
X120044238Y-65393581D01*
X120189309Y-65333491D01*
X120343315Y-65302857D01*
X120500339Y-65302857D01*
X120654345Y-65333491D01*
G37*
G36*
X128954345Y-65333491D02*
G01*
X129099416Y-65393581D01*
X129229976Y-65480819D01*
X129341008Y-65591851D01*
X129428246Y-65722411D01*
X129488336Y-65867482D01*
X129518970Y-66021488D01*
X129522827Y-66100000D01*
X129522827Y-67900000D01*
X129518970Y-67978512D01*
X129488336Y-68132518D01*
X129428246Y-68277589D01*
X129341008Y-68408149D01*
X129229976Y-68519181D01*
X129099416Y-68606419D01*
X128954345Y-68666509D01*
X128800339Y-68697143D01*
X128643315Y-68697143D01*
X128489309Y-68666509D01*
X128344238Y-68606419D01*
X128213678Y-68519181D01*
X128102646Y-68408149D01*
X128015408Y-68277589D01*
X127955318Y-68132518D01*
X127924684Y-67978512D01*
X127920827Y-67900000D01*
X127920827Y-66100000D01*
X127924684Y-66021488D01*
X127955318Y-65867482D01*
X128015408Y-65722411D01*
X128102646Y-65591851D01*
X128213678Y-65480819D01*
X128344238Y-65393581D01*
X128489309Y-65333491D01*
X128643315Y-65302857D01*
X128800339Y-65302857D01*
X128954345Y-65333491D01*
G37*
G36*
X123909309Y-65453781D02*
G01*
X123920517Y-65453781D01*
X123975715Y-65462523D01*
X124101361Y-65479065D01*
X124132016Y-65487279D01*
X124160901Y-65491854D01*
X124216447Y-65509902D01*
X124297294Y-65531565D01*
X124348877Y-65552931D01*
X124392369Y-65567063D01*
X124433113Y-65587823D01*
X124484697Y-65609190D01*
X124557180Y-65651038D01*
X124609222Y-65677555D01*
X124632882Y-65694745D01*
X124660366Y-65710613D01*
X124760901Y-65787756D01*
X124806121Y-65820610D01*
X124814046Y-65828535D01*
X124821293Y-65834096D01*
X124964730Y-65977533D01*
X124970290Y-65984779D01*
X124978217Y-65992706D01*
X125011074Y-66037930D01*
X125088213Y-66138460D01*
X125104079Y-66165941D01*
X125121272Y-66189605D01*
X125147791Y-66241652D01*
X125189636Y-66314129D01*
X125211000Y-66365706D01*
X125231764Y-66406458D01*
X125245897Y-66449955D01*
X125267261Y-66501532D01*
X125288920Y-66582366D01*
X125306973Y-66637926D01*
X125311548Y-66666816D01*
X125319761Y-66697465D01*
X125336301Y-66823099D01*
X125345046Y-66878310D01*
X125345046Y-66889518D01*
X125346239Y-66898580D01*
X125346239Y-67101419D01*
X125345046Y-67110480D01*
X125345046Y-67121690D01*
X125336300Y-67176905D01*
X125319761Y-67302534D01*
X125311549Y-67333180D01*
X125306973Y-67362074D01*
X125288918Y-67417638D01*
X125267261Y-67498467D01*
X125245898Y-67550039D01*
X125231764Y-67593542D01*
X125210998Y-67634297D01*
X125189636Y-67685870D01*
X125147795Y-67758338D01*
X125121272Y-67810395D01*
X125104076Y-67834062D01*
X125088213Y-67861539D01*
X125011088Y-67962050D01*
X124978217Y-68007294D01*
X124970286Y-68015224D01*
X124964730Y-68022466D01*
X124821293Y-68165903D01*
X124814051Y-68171459D01*
X124806121Y-68179390D01*
X124760877Y-68212261D01*
X124660366Y-68289386D01*
X124632889Y-68305249D01*
X124609222Y-68322445D01*
X124557165Y-68348968D01*
X124484697Y-68390809D01*
X124433124Y-68412171D01*
X124392369Y-68432937D01*
X124348866Y-68447071D01*
X124297294Y-68468434D01*
X124216465Y-68490091D01*
X124160901Y-68508146D01*
X124132007Y-68512722D01*
X124101361Y-68520934D01*
X123975729Y-68537474D01*
X123920517Y-68546219D01*
X123909308Y-68546219D01*
X123900247Y-68547412D01*
X123697407Y-68547412D01*
X123688346Y-68546219D01*
X123677137Y-68546219D01*
X123621926Y-68537474D01*
X123496292Y-68520934D01*
X123465643Y-68512721D01*
X123436753Y-68508146D01*
X123381193Y-68490093D01*
X123300359Y-68468434D01*
X123248782Y-68447070D01*
X123205285Y-68432937D01*
X123164533Y-68412173D01*
X123112956Y-68390809D01*
X123040479Y-68348964D01*
X122988432Y-68322445D01*
X122964768Y-68305252D01*
X122937287Y-68289386D01*
X122836757Y-68212247D01*
X122791533Y-68179390D01*
X122783606Y-68171463D01*
X122776360Y-68165903D01*
X122632923Y-68022466D01*
X122627362Y-68015219D01*
X122619437Y-68007294D01*
X122586583Y-67962074D01*
X122509440Y-67861539D01*
X122493572Y-67834055D01*
X122476382Y-67810395D01*
X122449865Y-67758353D01*
X122408017Y-67685870D01*
X122386650Y-67634286D01*
X122365890Y-67593542D01*
X122351758Y-67550050D01*
X122330392Y-67498467D01*
X122308729Y-67417620D01*
X122290681Y-67362074D01*
X122286106Y-67333189D01*
X122277892Y-67302534D01*
X122261351Y-67176891D01*
X122252608Y-67121690D01*
X122252608Y-67110480D01*
X122251415Y-67101419D01*
X122251415Y-66898580D01*
X122252608Y-66889518D01*
X122252608Y-66878310D01*
X122261350Y-66823113D01*
X122277892Y-66697465D01*
X122286106Y-66666807D01*
X122290681Y-66637926D01*
X122308727Y-66582383D01*
X122330392Y-66501532D01*
X122351760Y-66449944D01*
X122365890Y-66406458D01*
X122386648Y-66365717D01*
X122408017Y-66314129D01*
X122449869Y-66241637D01*
X122476382Y-66189605D01*
X122493569Y-66165948D01*
X122509440Y-66138460D01*
X122586597Y-66037906D01*
X122619437Y-65992706D01*
X122627359Y-65984783D01*
X122632923Y-65977533D01*
X122776360Y-65834096D01*
X122783610Y-65828532D01*
X122791533Y-65820610D01*
X122836733Y-65787770D01*
X122937287Y-65710613D01*
X122964775Y-65694742D01*
X122988432Y-65677555D01*
X123040464Y-65651042D01*
X123112956Y-65609190D01*
X123164544Y-65587821D01*
X123205285Y-65567063D01*
X123248771Y-65552933D01*
X123300359Y-65531565D01*
X123381210Y-65509900D01*
X123436753Y-65491854D01*
X123465634Y-65487279D01*
X123496292Y-65479065D01*
X123621940Y-65462523D01*
X123677137Y-65453781D01*
X123688345Y-65453781D01*
X123697407Y-65452588D01*
X123900247Y-65452588D01*
X123909309Y-65453781D01*
G37*
G36*
X118256344Y-65987882D02*
G01*
X118272889Y-65998938D01*
X118283945Y-66015483D01*
X118287827Y-66035000D01*
X118287827Y-67965000D01*
X118283945Y-67984517D01*
X118272889Y-68001062D01*
X118256344Y-68012118D01*
X118236827Y-68016000D01*
X116406827Y-68016000D01*
X116387310Y-68012118D01*
X116370765Y-68001062D01*
X116359709Y-67984517D01*
X116355827Y-67965000D01*
X116355827Y-66035000D01*
X116359709Y-66015483D01*
X116370765Y-65998938D01*
X116387310Y-65987882D01*
X116406827Y-65984000D01*
X118236827Y-65984000D01*
X118256344Y-65987882D01*
G37*
G36*
X102900130Y-58988409D02*
G01*
X103159272Y-59057846D01*
X103407134Y-59160514D01*
X103639475Y-59294656D01*
X103852318Y-59457977D01*
X104042023Y-59647682D01*
X104205344Y-59860525D01*
X104339486Y-60092866D01*
X104442154Y-60340728D01*
X104511591Y-60599870D01*
X104546609Y-60865858D01*
X104546609Y-61134142D01*
X104511591Y-61400130D01*
X104442154Y-61659272D01*
X104339486Y-61907134D01*
X104205344Y-62139475D01*
X104042023Y-62352318D01*
X103852318Y-62542023D01*
X103639475Y-62705344D01*
X103407134Y-62839486D01*
X103159272Y-62942154D01*
X102900130Y-63011591D01*
X102634142Y-63046609D01*
X102365858Y-63046609D01*
X102099870Y-63011591D01*
X101840728Y-62942154D01*
X101592866Y-62839486D01*
X101360525Y-62705344D01*
X101147682Y-62542023D01*
X100957977Y-62352318D01*
X100794656Y-62139475D01*
X100660514Y-61907134D01*
X100557846Y-61659272D01*
X100488409Y-61400130D01*
X100453391Y-61134142D01*
X100453391Y-60865858D01*
X100488409Y-60599870D01*
X100557846Y-60340728D01*
X100660514Y-60092866D01*
X100794656Y-59860525D01*
X100957977Y-59647682D01*
X101147682Y-59457977D01*
X101360525Y-59294656D01*
X101592866Y-59160514D01*
X101840728Y-59057846D01*
X102099870Y-58988409D01*
X102365858Y-58953391D01*
X102634142Y-58953391D01*
X102900130Y-58988409D01*
G37*
G36*
X112400130Y-58988409D02*
G01*
X112659272Y-59057846D01*
X112907134Y-59160514D01*
X113139475Y-59294656D01*
X113352318Y-59457977D01*
X113542023Y-59647682D01*
X113705344Y-59860525D01*
X113839486Y-60092866D01*
X113942154Y-60340728D01*
X114011591Y-60599870D01*
X114046609Y-60865858D01*
X114046609Y-61134142D01*
X114011591Y-61400130D01*
X113942154Y-61659272D01*
X113839486Y-61907134D01*
X113705344Y-62139475D01*
X113542023Y-62352318D01*
X113352318Y-62542023D01*
X113139475Y-62705344D01*
X112907134Y-62839486D01*
X112659272Y-62942154D01*
X112400130Y-63011591D01*
X112134142Y-63046609D01*
X111865858Y-63046609D01*
X111599870Y-63011591D01*
X111340728Y-62942154D01*
X111092866Y-62839486D01*
X110860525Y-62705344D01*
X110647682Y-62542023D01*
X110457977Y-62352318D01*
X110294656Y-62139475D01*
X110160514Y-61907134D01*
X110057846Y-61659272D01*
X109988409Y-61400130D01*
X109953391Y-61134142D01*
X109953391Y-60865858D01*
X109988409Y-60599870D01*
X110057846Y-60340728D01*
X110160514Y-60092866D01*
X110294656Y-59860525D01*
X110457977Y-59647682D01*
X110647682Y-59457977D01*
X110860525Y-59294656D01*
X111092866Y-59160514D01*
X111340728Y-59057846D01*
X111599870Y-58988409D01*
X111865858Y-58953391D01*
X112134142Y-58953391D01*
X112400130Y-58988409D01*
G37*
G36*
X120654345Y-53333491D02*
G01*
X120799416Y-53393581D01*
X120929976Y-53480819D01*
X121041008Y-53591851D01*
X121128246Y-53722411D01*
X121188336Y-53867482D01*
X121218970Y-54021488D01*
X121222827Y-54100000D01*
X121222827Y-55900000D01*
X121218970Y-55978512D01*
X121188336Y-56132518D01*
X121128246Y-56277589D01*
X121041008Y-56408149D01*
X120929976Y-56519181D01*
X120799416Y-56606419D01*
X120654345Y-56666509D01*
X120500339Y-56697143D01*
X120343315Y-56697143D01*
X120189309Y-56666509D01*
X120044238Y-56606419D01*
X119913678Y-56519181D01*
X119802646Y-56408149D01*
X119715408Y-56277589D01*
X119655318Y-56132518D01*
X119624684Y-55978512D01*
X119620827Y-55900000D01*
X119620827Y-54100000D01*
X119624684Y-54021488D01*
X119655318Y-53867482D01*
X119715408Y-53722411D01*
X119802646Y-53591851D01*
X119913678Y-53480819D01*
X120044238Y-53393581D01*
X120189309Y-53333491D01*
X120343315Y-53302857D01*
X120500339Y-53302857D01*
X120654345Y-53333491D01*
G37*
G36*
X128954345Y-53333491D02*
G01*
X129099416Y-53393581D01*
X129229976Y-53480819D01*
X129341008Y-53591851D01*
X129428246Y-53722411D01*
X129488336Y-53867482D01*
X129518970Y-54021488D01*
X129522827Y-54100000D01*
X129522827Y-55900000D01*
X129518970Y-55978512D01*
X129488336Y-56132518D01*
X129428246Y-56277589D01*
X129341008Y-56408149D01*
X129229976Y-56519181D01*
X129099416Y-56606419D01*
X128954345Y-56666509D01*
X128800339Y-56697143D01*
X128643315Y-56697143D01*
X128489309Y-56666509D01*
X128344238Y-56606419D01*
X128213678Y-56519181D01*
X128102646Y-56408149D01*
X128015408Y-56277589D01*
X127955318Y-56132518D01*
X127924684Y-55978512D01*
X127920827Y-55900000D01*
X127920827Y-54100000D01*
X127924684Y-54021488D01*
X127955318Y-53867482D01*
X128015408Y-53722411D01*
X128102646Y-53591851D01*
X128213678Y-53480819D01*
X128344238Y-53393581D01*
X128489309Y-53333491D01*
X128643315Y-53302857D01*
X128800339Y-53302857D01*
X128954345Y-53333491D01*
G37*
G36*
X123909309Y-53453781D02*
G01*
X123920517Y-53453781D01*
X123975715Y-53462523D01*
X124101361Y-53479065D01*
X124132016Y-53487279D01*
X124160901Y-53491854D01*
X124216447Y-53509902D01*
X124297294Y-53531565D01*
X124348877Y-53552931D01*
X124392369Y-53567063D01*
X124433113Y-53587823D01*
X124484697Y-53609190D01*
X124557180Y-53651038D01*
X124609222Y-53677555D01*
X124632882Y-53694745D01*
X124660366Y-53710613D01*
X124760901Y-53787756D01*
X124806121Y-53820610D01*
X124814046Y-53828535D01*
X124821293Y-53834096D01*
X124964730Y-53977533D01*
X124970290Y-53984779D01*
X124978217Y-53992706D01*
X125011074Y-54037930D01*
X125088213Y-54138460D01*
X125104079Y-54165941D01*
X125121272Y-54189605D01*
X125147791Y-54241652D01*
X125189636Y-54314129D01*
X125211000Y-54365706D01*
X125231764Y-54406458D01*
X125245897Y-54449955D01*
X125267261Y-54501532D01*
X125288920Y-54582366D01*
X125306973Y-54637926D01*
X125311548Y-54666816D01*
X125319761Y-54697465D01*
X125336301Y-54823099D01*
X125345046Y-54878310D01*
X125345046Y-54889518D01*
X125346239Y-54898580D01*
X125346239Y-55101419D01*
X125345046Y-55110480D01*
X125345046Y-55121690D01*
X125336300Y-55176905D01*
X125319761Y-55302534D01*
X125311549Y-55333180D01*
X125306973Y-55362074D01*
X125288918Y-55417638D01*
X125267261Y-55498467D01*
X125245898Y-55550039D01*
X125231764Y-55593542D01*
X125210998Y-55634297D01*
X125189636Y-55685870D01*
X125147795Y-55758338D01*
X125121272Y-55810395D01*
X125104076Y-55834062D01*
X125088213Y-55861539D01*
X125011088Y-55962050D01*
X124978217Y-56007294D01*
X124970286Y-56015224D01*
X124964730Y-56022466D01*
X124821293Y-56165903D01*
X124814051Y-56171459D01*
X124806121Y-56179390D01*
X124760877Y-56212261D01*
X124660366Y-56289386D01*
X124632889Y-56305249D01*
X124609222Y-56322445D01*
X124557165Y-56348968D01*
X124484697Y-56390809D01*
X124433124Y-56412171D01*
X124392369Y-56432937D01*
X124348866Y-56447071D01*
X124297294Y-56468434D01*
X124216465Y-56490091D01*
X124160901Y-56508146D01*
X124132007Y-56512722D01*
X124101361Y-56520934D01*
X123975729Y-56537474D01*
X123920517Y-56546219D01*
X123909308Y-56546219D01*
X123900247Y-56547412D01*
X123697407Y-56547412D01*
X123688346Y-56546219D01*
X123677137Y-56546219D01*
X123621926Y-56537474D01*
X123496292Y-56520934D01*
X123465643Y-56512721D01*
X123436753Y-56508146D01*
X123381193Y-56490093D01*
X123300359Y-56468434D01*
X123248782Y-56447070D01*
X123205285Y-56432937D01*
X123164533Y-56412173D01*
X123112956Y-56390809D01*
X123040479Y-56348964D01*
X122988432Y-56322445D01*
X122964768Y-56305252D01*
X122937287Y-56289386D01*
X122836757Y-56212247D01*
X122791533Y-56179390D01*
X122783606Y-56171463D01*
X122776360Y-56165903D01*
X122632923Y-56022466D01*
X122627362Y-56015219D01*
X122619437Y-56007294D01*
X122586583Y-55962074D01*
X122509440Y-55861539D01*
X122493572Y-55834055D01*
X122476382Y-55810395D01*
X122449865Y-55758353D01*
X122408017Y-55685870D01*
X122386650Y-55634286D01*
X122365890Y-55593542D01*
X122351758Y-55550050D01*
X122330392Y-55498467D01*
X122308729Y-55417620D01*
X122290681Y-55362074D01*
X122286106Y-55333189D01*
X122277892Y-55302534D01*
X122261351Y-55176891D01*
X122252608Y-55121690D01*
X122252608Y-55110480D01*
X122251415Y-55101419D01*
X122251415Y-54898580D01*
X122252608Y-54889518D01*
X122252608Y-54878310D01*
X122261350Y-54823113D01*
X122277892Y-54697465D01*
X122286106Y-54666807D01*
X122290681Y-54637926D01*
X122308727Y-54582383D01*
X122330392Y-54501532D01*
X122351760Y-54449944D01*
X122365890Y-54406458D01*
X122386648Y-54365717D01*
X122408017Y-54314129D01*
X122449869Y-54241637D01*
X122476382Y-54189605D01*
X122493569Y-54165948D01*
X122509440Y-54138460D01*
X122586597Y-54037906D01*
X122619437Y-53992706D01*
X122627359Y-53984783D01*
X122632923Y-53977533D01*
X122776360Y-53834096D01*
X122783610Y-53828532D01*
X122791533Y-53820610D01*
X122836733Y-53787770D01*
X122937287Y-53710613D01*
X122964775Y-53694742D01*
X122988432Y-53677555D01*
X123040464Y-53651042D01*
X123112956Y-53609190D01*
X123164544Y-53587821D01*
X123205285Y-53567063D01*
X123248771Y-53552933D01*
X123300359Y-53531565D01*
X123381210Y-53509900D01*
X123436753Y-53491854D01*
X123465634Y-53487279D01*
X123496292Y-53479065D01*
X123621940Y-53462523D01*
X123677137Y-53453781D01*
X123688345Y-53453781D01*
X123697407Y-53452588D01*
X123900247Y-53452588D01*
X123909309Y-53453781D01*
G37*
G36*
X118256344Y-53987882D02*
G01*
X118272889Y-53998938D01*
X118283945Y-54015483D01*
X118287827Y-54035000D01*
X118287827Y-55965000D01*
X118283945Y-55984517D01*
X118272889Y-56001062D01*
X118256344Y-56012118D01*
X118236827Y-56016000D01*
X116406827Y-56016000D01*
X116387310Y-56012118D01*
X116370765Y-56001062D01*
X116359709Y-55984517D01*
X116355827Y-55965000D01*
X116355827Y-54035000D01*
X116359709Y-54015483D01*
X116370765Y-53998938D01*
X116387310Y-53987882D01*
X116406827Y-53984000D01*
X118236827Y-53984000D01*
X118256344Y-53987882D01*
G37*
M02*
